<svg width="108" height="87" viewBox="0 0 108 87" fill="none" xmlns="http://www.w3.org/2000/svg">
  <rect x="15" y="9.39844" width="92" height="77" rx="3.5" fill="white"/>
  <rect x="15" y="9.39844" width="92" height="77" rx="3.5" stroke="#101C3D"/>
  <circle cx="59" cy="26.0991" r="5.5" fill="#D4D4D4" stroke="#101C3D"/>
  <circle cx="57" cy="25.0991" r="1" fill="#101C3D"/>
  <circle cx="61" cy="25.0991" r="1" fill="#101C3D"/>
  <line x1="57.5" y1="28.5991" x2="60.5" y2="28.5991" stroke="#101C3D"/>
  <circle cx="30" cy="30.0991" r="5.5" fill="#D4D4D4" stroke="#101C3D"/>
  <circle cx="30" cy="29.0991" r="1" fill="#101C3D"/>
  <circle cx="34" cy="29.0991" r="1" fill="#101C3D"/>
  <line x1="30.5" y1="32.5991" x2="33.5" y2="32.5991" stroke="#101C3D"/>
  <circle cx="59.5" cy="52.8984" r="5.5" fill="#D4D4D4" stroke="#101C3D"/>
  <circle cx="57.5" cy="51.8984" r="1" fill="#101C3D"/>
  <circle cx="61.5" cy="51.8984" r="1" fill="#101C3D"/>
  <line x1="58" y1="55.3984" x2="61" y2="55.3984" stroke="#101C3D"/>
  <circle cx="67" cy="38.0991" r="5.5" fill="#D4D4D4" stroke="#101C3D"/>
  <circle cx="65" cy="37.0991" r="1" fill="#101C3D"/>
  <circle cx="69" cy="37.0991" r="1" fill="#101C3D"/>
  <line x1="65.5" y1="40.5991" x2="68.5" y2="40.5991" stroke="#101C3D"/>
  <circle cx="83.5" cy="40.8984" r="5.5" fill="#D4D4D4" stroke="#101C3D"/>
  <circle cx="81.5" cy="39.8984" r="1" fill="#101C3D"/>
  <circle cx="85.5" cy="39.8984" r="1" fill="#101C3D"/>
  <line x1="82" y1="43.3984" x2="85" y2="43.3984" stroke="#101C3D"/>
  <circle cx="74.5" cy="55.8984" r="5.5" fill="#D4D4D4" stroke="#101C3D"/>
  <circle cx="72.5" cy="54.8984" r="1" fill="#101C3D"/>
  <circle cx="76.5" cy="54.8984" r="1" fill="#101C3D"/>
  <line x1="73" y1="58.3984" x2="76" y2="58.3984" stroke="#101C3D"/>
  <circle cx="47" cy="44.0991" r="5.5" fill="#D4D4D4" stroke="#101C3D"/>
  <circle cx="45" cy="43.0991" r="1" fill="#101C3D"/>
  <circle cx="49" cy="43.0991" r="1" fill="#101C3D"/>
  <line x1="45.5" y1="46.5991" x2="48.5" y2="46.5991" stroke="#101C3D"/>
  <circle cx="33" cy="54.0991" r="5.5" fill="#D4D4D4" stroke="#101C3D"/>
  <circle cx="31" cy="53.0991" r="1" fill="#101C3D"/>
  <circle cx="35" cy="53.0991" r="1" fill="#101C3D"/>
  <line x1="31.5" y1="56.5991" x2="34.5" y2="56.5991" stroke="#101C3D"/>
  <circle cx="47.5" cy="67.8984" r="5.5" fill="#D4D4D4" stroke="#101C3D"/>
  <circle cx="45.5" cy="66.8984" r="1" fill="#101C3D"/>
  <circle cx="49.5" cy="66.8984" r="1" fill="#101C3D"/>
  <line x1="46" y1="70.3984" x2="49" y2="70.3984" stroke="#101C3D"/>
  <circle cx="68.5" cy="67.8984" r="5.5" fill="#D4D4D4" stroke="#101C3D"/>
  <circle cx="66.5" cy="66.8984" r="1" fill="#101C3D"/>
  <circle cx="70.5" cy="66.8984" r="1" fill="#101C3D"/>
  <line x1="67" y1="70.3984" x2="70" y2="70.3984" stroke="#101C3D"/>
  <circle cx="92.5" cy="55.8984" r="5.5" fill="#D4D4D4" stroke="#101C3D"/>
  <circle cx="90.5" cy="54.8984" r="1" fill="#101C3D"/>
  <circle cx="94.5" cy="54.8984" r="1" fill="#101C3D"/>
  <line x1="91" y1="58.3984" x2="94" y2="58.3984" stroke="#101C3D"/>
  <circle cx="85" cy="71.0991" r="5.5" fill="#D4D4D4" stroke="#101C3D"/>
  <circle cx="83" cy="70.0991" r="1" fill="#101C3D"/>
  <circle cx="87" cy="70.0991" r="1" fill="#101C3D"/>
  <line x1="83.5" y1="73.5991" x2="86.5" y2="73.5991" stroke="#101C3D"/>
  <circle cx="96" cy="30.0991" r="5.5" fill="#D4D4D4" stroke="#101C3D"/>
  <circle cx="94" cy="29.0991" r="1" fill="#101C3D"/>
  <circle cx="98" cy="29.0991" r="1" fill="#101C3D"/>
  <line x1="94.5" y1="32.5991" x2="97.5" y2="32.5991" stroke="#101C3D"/>
  <circle cx="79" cy="20.0991" r="5.5" fill="#D4D4D4" stroke="#101C3D"/>
  <circle cx="77" cy="19.0991" r="1" fill="#101C3D"/>
  <circle cx="81" cy="19.0991" r="1" fill="#101C3D"/>
  <line x1="77.5" y1="22.5991" x2="80.5" y2="22.5991" stroke="#101C3D"/>
  <circle cx="34" cy="73.0991" r="5.5" fill="#D4D4D4" stroke="#101C3D"/>
  <circle cx="32" cy="72.0991" r="1" fill="#101C3D"/>
  <circle cx="36" cy="72.0991" r="1" fill="#101C3D"/>
  <line x1="32.5" y1="75.5991" x2="35.5" y2="75.5991" stroke="#101C3D"/>
  <rect y="0.0991211" width="61" height="18" rx="2" fill="#277CE2"/>
  <path d="M16.3936 7.17512V14.1111H15.0616C14.7896 13.8631 14.4736 13.6391 14.1136 13.4391C13.7536 13.2311 13.3976 13.0631 13.0456 12.9351C13.0136 13.3111 12.8496 13.6191 12.5536 13.8591C12.2656 14.0991 11.9096 14.2191 11.4856 14.2191C11.0456 14.2191 10.6856 14.0871 10.4056 13.8231C10.1336 13.5591 9.99756 13.2231 9.99756 12.8151C9.99756 12.4311 10.1176 12.1191 10.3576 11.8791C10.6056 11.6311 10.9376 11.4911 11.3536 11.4591V9.64712H11.2936C10.9096 9.64712 10.5936 9.53112 10.3456 9.29912C10.1056 9.05912 9.98556 8.74712 9.98556 8.36312C9.98556 7.98712 10.1176 7.67912 10.3816 7.43912C10.6456 7.19112 10.9856 7.06712 11.4016 7.06712C11.8416 7.06712 12.1976 7.19912 12.4696 7.46312C12.7496 7.71912 12.8896 8.05112 12.8896 8.45912V11.6271C13.2576 11.7551 13.6216 11.8991 13.9816 12.0591C14.3416 12.2111 14.6376 12.3591 14.8696 12.5031V7.17512H16.3936ZM11.2816 8.90312C11.4416 8.90312 11.5696 8.85512 11.6656 8.75912C11.7696 8.65512 11.8216 8.52312 11.8216 8.36312C11.8216 8.20312 11.7696 8.07512 11.6656 7.97912C11.5696 7.87512 11.4416 7.82312 11.2816 7.82312C11.1296 7.82312 11.0016 7.87512 10.8976 7.97912C10.8016 8.07512 10.7536 8.20312 10.7536 8.36312C10.7536 8.52312 10.8016 8.65512 10.8976 8.75912C11.0016 8.85512 11.1296 8.90312 11.2816 8.90312ZM11.4136 13.3791C11.5736 13.3791 11.7016 13.3311 11.7976 13.2351C11.9016 13.1311 11.9536 12.9991 11.9536 12.8391C11.9536 12.6791 11.9016 12.5511 11.7976 12.4551C11.7016 12.3511 11.5736 12.2991 11.4136 12.2991C11.2536 12.2991 11.1216 12.3511 11.0176 12.4551C10.9216 12.5511 10.8736 12.6791 10.8736 12.8391C10.8736 12.9991 10.9216 13.1311 11.0176 13.2351C11.1216 13.3311 11.2536 13.3791 11.4136 13.3791ZM16.6148 5.56712C16.6548 5.75912 16.6828 5.99512 16.6988 6.27512C16.1948 6.05912 15.4988 5.87912 14.6108 5.73512C13.7148 5.59112 12.8708 5.51912 12.0788 5.51912C11.6148 5.51912 11.1908 5.55112 10.8068 5.61512C10.8148 5.12712 10.9348 4.69912 11.1668 4.33112C11.3988 3.96312 11.7268 3.67912 12.1508 3.47912C12.5748 3.27112 13.0628 3.16712 13.6148 3.16712C14.2868 3.16712 14.8628 3.31512 15.3428 3.61112V2.65112H16.6148V5.56712ZM12.7268 4.78712C13.1908 4.78712 13.6668 4.81912 14.1548 4.88312C14.6348 4.94712 15.0588 5.03512 15.4268 5.14712C15.2668 4.78712 15.0348 4.51512 14.7308 4.33112C14.4268 4.14712 14.0708 4.05512 13.6628 4.05512C13.2948 4.05512 12.9788 4.12312 12.7148 4.25912C12.4428 4.38712 12.2628 4.56712 12.1748 4.79912C12.2948 4.79112 12.4788 4.78712 12.7268 4.78712ZM20.6329 12.8511C21.1689 12.4751 21.7129 12.0271 22.2649 11.5071C22.8169 10.9791 23.2889 10.4111 23.6809 9.80312C24.0729 9.19512 24.2689 8.61512 24.2689 8.06312C24.2689 7.71912 24.1729 7.44712 23.9809 7.24712C23.7889 7.04712 23.5249 6.94712 23.1889 6.94712C22.8209 6.94712 22.4689 7.04712 22.1329 7.24712C21.8049 7.43912 21.5369 7.69912 21.3289 8.02712L20.4049 7.06712C20.6849 6.59512 21.0689 6.23112 21.5569 5.97512C22.0529 5.71112 22.6009 5.57912 23.2009 5.57912C24.0729 5.57912 24.7569 5.79512 25.2529 6.22712C25.7569 6.65112 26.0089 7.24312 26.0089 8.00312C26.0089 8.70712 25.7329 9.46312 25.1809 10.2711C24.6289 11.0791 23.8769 11.9271 22.9249 12.8151H26.2969V14.0991H20.6329V12.8511ZM32.7269 11.6391C33.1029 11.6391 33.4149 11.7631 33.6629 12.0111C33.9109 12.2511 34.0349 12.5551 34.0349 12.9231C34.0349 13.3071 33.9029 13.6191 33.6389 13.8591C33.3749 14.0991 33.0349 14.2191 32.6189 14.2191C32.1789 14.2191 31.8189 14.0911 31.5389 13.8351C31.2669 13.5711 31.1309 13.2311 31.1309 12.8151V5.79512C31.1309 5.55512 31.0189 5.34312 30.7949 5.15912C30.5709 4.96712 30.2909 4.81912 29.9549 4.71512C29.6189 4.60312 29.2829 4.53912 28.9469 4.52312C28.9469 4.01112 29.0469 3.57912 29.2469 3.22712C29.4389 2.86712 29.6909 2.59912 30.0029 2.42312C30.3229 2.24712 30.6629 2.15912 31.0229 2.15912C31.2629 2.15912 31.4789 2.19112 31.6709 2.25512C31.8629 2.31912 32.0669 2.40312 32.2829 2.50712C32.5229 2.63512 32.6989 2.69912 32.8109 2.69912C32.9069 2.69912 32.9909 2.65912 33.0629 2.57912C33.1349 2.49112 33.1829 2.37512 33.2069 2.23112L34.2389 2.42312C34.1909 2.81512 34.0549 3.14312 33.8309 3.40712C33.6069 3.67112 33.3189 3.80312 32.9669 3.80312C32.7829 3.80312 32.6189 3.78312 32.4749 3.74312C32.3309 3.69512 32.1589 3.63112 31.9589 3.55112C31.7989 3.48712 31.6629 3.43912 31.5509 3.40712C31.4389 3.36712 31.3229 3.34712 31.2029 3.34712C31.0189 3.34712 30.8629 3.38712 30.7349 3.46712C30.6149 3.54712 30.5349 3.65912 30.4949 3.80312C31.2149 3.97912 31.7549 4.21512 32.1149 4.51112C32.4829 4.79912 32.6669 5.15912 32.6669 5.59112V11.6391H32.7269ZM32.7269 13.4631C32.8869 13.4631 33.0149 13.4151 33.1109 13.3191C33.2149 13.2151 33.2669 13.0831 33.2669 12.9231C33.2669 12.7631 33.2149 12.6351 33.1109 12.5391C33.0149 12.4351 32.8869 12.3831 32.7269 12.3831C32.5749 12.3831 32.4469 12.4351 32.3429 12.5391C32.2389 12.6351 32.1869 12.7631 32.1869 12.9231C32.1869 13.0751 32.2389 13.2031 32.3429 13.3071C32.4469 13.4111 32.5749 13.4631 32.7269 13.4631ZM41.057 9.33512C41.313 9.57512 41.441 9.90712 41.441 10.3311V14.0991H39.905V10.5231C39.905 10.2751 39.829 10.1511 39.677 10.1511C39.565 10.1511 39.453 10.2511 39.341 10.4511L37.349 14.0991H35.993V9.64712H35.933C35.541 9.64712 35.221 9.53112 34.973 9.29912C34.733 9.05912 34.613 8.74712 34.613 8.36312C34.613 7.98712 34.745 7.67912 35.009 7.43912C35.273 7.19112 35.613 7.06712 36.029 7.06712C36.469 7.06712 36.825 7.19912 37.097 7.46312C37.377 7.71912 37.517 8.05112 37.517 8.45912V10.9191C37.517 11.3511 37.481 11.7551 37.409 12.1311L38.633 9.87512C38.793 9.57112 38.997 9.35512 39.245 9.22712C39.029 8.98712 38.921 8.69112 38.921 8.33912C38.921 7.97112 39.041 7.66712 39.281 7.42712C39.529 7.18712 39.841 7.06712 40.217 7.06712C40.593 7.06712 40.905 7.18712 41.153 7.42712C41.401 7.66712 41.525 7.97112 41.525 8.33912C41.525 8.54712 41.481 8.73512 41.393 8.90312C41.313 9.07112 41.201 9.21512 41.057 9.33512ZM35.921 8.90312C36.081 8.90312 36.209 8.85512 36.305 8.75912C36.409 8.65512 36.461 8.52312 36.461 8.36312C36.461 8.20312 36.409 8.07512 36.305 7.97912C36.209 7.87512 36.081 7.82312 35.921 7.82312C35.769 7.82312 35.641 7.87512 35.537 7.97912C35.433 8.07512 35.381 8.20312 35.381 8.36312C35.381 8.51512 35.433 8.64312 35.537 8.74712C35.641 8.85112 35.769 8.90312 35.921 8.90312ZM40.217 7.82312C40.065 7.82312 39.937 7.87512 39.833 7.97912C39.737 8.07512 39.689 8.20312 39.689 8.36312C39.689 8.52312 39.737 8.65512 39.833 8.75912C39.937 8.85512 40.065 8.90312 40.217 8.90312C40.377 8.90312 40.505 8.85512 40.601 8.75912C40.705 8.65512 40.757 8.52312 40.757 8.36312C40.757 8.20312 40.705 8.07512 40.601 7.97912C40.505 7.87512 40.377 7.82312 40.217 7.82312ZM45.1794 7.06712C46.0274 7.06712 46.6834 7.25912 47.1474 7.64312C47.6114 8.01912 47.8434 8.54712 47.8434 9.22712V12.8151C47.8434 13.2311 47.7034 13.5711 47.4234 13.8351C47.1514 14.0911 46.7954 14.2191 46.3554 14.2191C45.9394 14.2191 45.5994 14.0991 45.3354 13.8591C45.0714 13.6111 44.9394 13.2991 44.9394 12.9231C44.9394 12.5391 45.0594 12.2311 45.2994 11.9991C45.5474 11.7591 45.8634 11.6391 46.2474 11.6391H46.3074V9.31112C46.3074 8.97512 46.2074 8.71912 46.0074 8.54312C45.8154 8.35912 45.5314 8.26712 45.1554 8.26712C44.8034 8.26712 44.5154 8.37112 44.2914 8.57912C44.0754 8.77912 43.9434 9.05912 43.8954 9.41912H42.3714C42.4034 8.68312 42.6674 8.10712 43.1634 7.69112C43.6674 7.27512 44.3394 7.06712 45.1794 7.06712ZM46.2474 13.4631C46.4074 13.4631 46.5354 13.4111 46.6314 13.3071C46.7354 13.2031 46.7874 13.0751 46.7874 12.9231C46.7874 12.7631 46.7354 12.6351 46.6314 12.5391C46.5354 12.4351 46.4074 12.3831 46.2474 12.3831C46.0874 12.3831 45.9554 12.4351 45.8514 12.5391C45.7554 12.6351 45.7074 12.7631 45.7074 12.9231C45.7074 13.0831 45.7554 13.2151 45.8514 13.3191C45.9554 13.4151 46.0874 13.4631 46.2474 13.4631ZM53.5333 7.06712C54.1013 7.14712 54.5533 7.40312 54.8893 7.83512C55.2253 8.26712 55.3933 8.80312 55.3933 9.44312V14.0991H53.8573V9.44312C53.8573 9.14712 53.8213 8.91112 53.7493 8.73512C53.6853 8.55112 53.5733 8.40312 53.4133 8.29112L52.2733 8.98712L51.0253 8.23112C50.8253 8.36712 50.6773 8.54712 50.5813 8.77112C50.4933 8.99512 50.4493 9.28712 50.4493 9.64712C50.4493 9.83112 50.4693 10.0191 50.5093 10.2111C50.5493 10.4031 50.6093 10.6431 50.6893 10.9311C50.7693 11.2191 50.8293 11.4511 50.8693 11.6271C50.9093 11.8031 50.9293 11.9751 50.9293 12.1431V12.2631C51.0253 12.1511 51.2133 11.9791 51.4933 11.7471L51.8053 11.4831C51.5813 11.4511 51.3973 11.3471 51.2533 11.1711C51.1173 10.9951 51.0493 10.7791 51.0493 10.5231C51.0493 10.2031 51.1613 9.94312 51.3853 9.74312C51.6093 9.53512 51.8933 9.43112 52.2373 9.43112C52.5813 9.43112 52.8573 9.53512 53.0653 9.74312C53.2813 9.95112 53.3893 10.2231 53.3893 10.5591C53.3893 10.8551 53.3013 11.1151 53.1253 11.3391C52.9493 11.5551 52.6733 11.8231 52.2973 12.1431C51.8893 12.4871 51.5733 12.8031 51.3493 13.0911C51.1333 13.3711 51.0133 13.7071 50.9893 14.0991H49.5013V12.3231C49.5013 12.1871 49.4693 11.9911 49.4053 11.7351C49.3413 11.4791 49.3013 11.3231 49.2853 11.2671C49.1813 10.8751 49.1013 10.5631 49.0453 10.3311C48.9973 10.0911 48.9733 9.87512 48.9733 9.68312C48.9733 9.02712 49.1453 8.46312 49.4893 7.99112C49.8413 7.51912 50.3693 7.21112 51.0733 7.06712L52.2853 7.89512L53.5333 7.06712ZM51.7213 10.5231C51.7213 10.6671 51.7653 10.7831 51.8533 10.8711C51.9413 10.9591 52.0613 11.0031 52.2133 11.0031C52.3573 11.0031 52.4733 10.9591 52.5613 10.8711C52.6493 10.7831 52.6933 10.6671 52.6933 10.5231C52.6933 10.3791 52.6493 10.2631 52.5613 10.1751C52.4733 10.0791 52.3573 10.0311 52.2133 10.0311C52.0613 10.0311 51.9413 10.0791 51.8533 10.1751C51.7653 10.2631 51.7213 10.3791 51.7213 10.5231Z" fill="white"/>
  <path d="M31.3661 21.8491C30.9812 22.5158 30.0189 22.5158 29.634 21.8491L27.469 18.0991L33.5311 18.0991L31.3661 21.8491Z" fill="#277CE2"/>
  </svg>
  