<svg width="102" height="88" viewBox="0 0 102 88" fill="none" xmlns="http://www.w3.org/2000/svg">
  <rect x="9.5" y="8.95898" width="92" height="77" rx="3.5" fill="white"/>
  <rect x="9.5" y="8.95898" width="92" height="77" rx="3.5" stroke="#101C3D"/>
  <path d="M53.6057 20.4465C53.9744 19.7099 55.0256 19.7099 55.3943 20.4465L56.735 23.1255C56.8818 23.4187 57.1629 23.6213 57.4874 23.6679L60.4712 24.0957C61.2958 24.2139 61.6228 25.2294 61.0222 25.8066L58.883 27.8621C58.6435 28.0923 58.5339 28.4263 58.5905 28.7535L59.0949 31.6718C59.2358 32.487 58.3825 33.1109 57.6485 32.7295L54.9606 31.3329C54.6718 31.1829 54.3281 31.1827 54.0392 31.3325L51.3436 32.7299C50.6088 33.1109 49.7557 32.4852 49.8983 31.6699L50.4083 28.7546C50.4656 28.4268 50.3561 28.0919 50.1161 27.8612L47.9778 25.8066C47.3772 25.2294 47.7042 24.2139 48.5288 24.0957L51.5126 23.6679C51.8371 23.6213 52.1182 23.4187 52.265 23.1255L53.6057 20.4465Z" fill="#F9D142" stroke="#101C3D" stroke-linejoin="round"/>
  <circle cx="52.5" cy="25.6597" r="1" fill="#101C3D"/>
  <circle cx="56.5" cy="25.6597" r="1" fill="#101C3D"/>
  <path d="M53 28.1597C53 28.1597 54.5 31.6597 56 28.1597" stroke="#101C3D"/>
  <path d="M54.1057 47.2458C54.4744 46.5092 55.5256 46.5092 55.8943 47.2458L57.235 49.9249C57.3818 50.218 57.6629 50.4207 57.9874 50.4672L60.9712 50.895C61.7958 51.0132 62.1228 52.0287 61.5222 52.6059L59.383 54.6615C59.1435 54.8916 59.0339 55.2256 59.0905 55.5529L59.5949 58.4712C59.7358 59.2863 58.8825 59.9103 58.1485 59.5289L55.4606 58.1322C55.1718 57.9822 54.8281 57.982 54.5392 58.1318L51.8436 59.5293C51.1088 59.9102 50.2557 59.2845 50.3983 58.4692L50.9083 55.5539C50.9656 55.2261 50.8561 54.8912 50.6161 54.6606L48.4778 52.6059C47.8772 52.0287 48.2042 51.0132 49.0288 50.895L52.0126 50.4672C52.3371 50.4207 52.6182 50.218 52.765 49.9249L54.1057 47.2458Z" fill="#F9D142" stroke="#101C3D" stroke-linejoin="round"/>
  <circle cx="53" cy="52.459" r="1" fill="#101C3D"/>
  <circle cx="57" cy="52.459" r="1" fill="#101C3D"/>
  <path d="M53.5 54.959C53.5 54.959 55 58.459 56.5 54.959" stroke="#101C3D"/>
  <path d="M61.6057 32.4465C61.9744 31.7099 63.0256 31.7099 63.3943 32.4465L64.735 35.1255C64.8818 35.4187 65.1629 35.6213 65.4874 35.6679L68.4712 36.0957C69.2958 36.2139 69.6228 37.2294 69.0222 37.8066L66.883 39.8621C66.6435 40.0923 66.5339 40.4263 66.5905 40.7535L67.0949 43.6718C67.2358 44.487 66.3825 45.1109 65.6485 44.7295L62.9606 43.3329C62.6718 43.1829 62.3281 43.1827 62.0392 43.3325L59.3436 44.7299C58.6088 45.1109 57.7557 44.4852 57.8983 43.6699L58.4083 40.7546C58.4656 40.4268 58.3561 40.0919 58.1161 39.8612L55.9778 37.8066C55.3772 37.2294 55.7042 36.2139 56.5288 36.0957L59.5126 35.6679C59.8371 35.6213 60.1182 35.4187 60.265 35.1255L61.6057 32.4465Z" fill="#F9D142" stroke="#101C3D" stroke-linejoin="round"/>
  <circle cx="60.5" cy="37.6597" r="1" fill="#101C3D"/>
  <circle cx="64.5" cy="37.6597" r="1" fill="#101C3D"/>
  <path d="M61 40.1597C61 40.1597 62.5 43.6597 64 40.1597" stroke="#101C3D"/>
  <path d="M78.1057 35.2458C78.4744 34.5092 79.5256 34.5092 79.8943 35.2458L81.235 37.9249C81.3818 38.218 81.6629 38.4207 81.9874 38.4672L84.9712 38.895C85.7958 39.0132 86.1228 40.0287 85.5222 40.6059L83.383 42.6615C83.1435 42.8916 83.0339 43.2256 83.0905 43.5529L83.5949 46.4712C83.7358 47.2863 82.8825 47.9103 82.1485 47.5289L79.4606 46.1322C79.1718 45.9822 78.8281 45.982 78.5392 46.1318L75.8436 47.5293C75.1088 47.9102 74.2557 47.2845 74.3983 46.4692L74.9083 43.5539C74.9656 43.2261 74.8561 42.8912 74.6161 42.6606L72.4778 40.6059C71.8772 40.0287 72.2042 39.0132 73.0288 38.895L76.0126 38.4672C76.3371 38.4207 76.6182 38.218 76.765 37.9249L78.1057 35.2458Z" fill="#F9D142" stroke="#101C3D" stroke-linejoin="round"/>
  <circle cx="77" cy="40.459" r="1" fill="#101C3D"/>
  <circle cx="81" cy="40.459" r="1" fill="#101C3D"/>
  <path d="M77.5 42.959C77.5 42.959 79 46.459 80.5 42.959" stroke="#101C3D"/>
  <path d="M69.1057 50.2458C69.4744 49.5092 70.5256 49.5092 70.8943 50.2458L72.235 52.9249C72.3818 53.218 72.6629 53.4207 72.9874 53.4672L75.9712 53.895C76.7958 54.0132 77.1228 55.0287 76.5222 55.6059L74.383 57.6615C74.1435 57.8916 74.0339 58.2256 74.0905 58.5529L74.5949 61.4712C74.7358 62.2863 73.8825 62.9103 73.1485 62.5289L70.4606 61.1322C70.1718 60.9822 69.8281 60.982 69.5392 61.1318L66.8436 62.5293C66.1088 62.9102 65.2557 62.2845 65.3983 61.4692L65.9083 58.5539C65.9656 58.2261 65.8561 57.8912 65.6161 57.6606L63.4778 55.6059C62.8772 55.0287 63.2042 54.0132 64.0288 53.895L67.0126 53.4672C67.3371 53.4207 67.6182 53.218 67.765 52.9249L69.1057 50.2458Z" fill="#F9D142" stroke="#101C3D" stroke-linejoin="round"/>
  <circle cx="68" cy="55.459" r="1" fill="#101C3D"/>
  <circle cx="72" cy="55.459" r="1" fill="#101C3D"/>
  <path d="M68.5 57.959C68.5 57.959 70 61.459 71.5 57.959" stroke="#101C3D"/>
  <path d="M41.6057 40.4465C41.9744 39.7099 43.0256 39.7099 43.3943 40.4465L44.735 43.1255C44.8818 43.4187 45.1629 43.6213 45.4874 43.6679L48.4712 44.0957C49.2958 44.2139 49.6228 45.2294 49.0222 45.8066L46.883 47.8621C46.6435 48.0923 46.5339 48.4263 46.5905 48.7535L47.0949 51.6718C47.2358 52.487 46.3825 53.1109 45.6485 52.7295L42.9606 51.3329C42.6718 51.1829 42.3281 51.1827 42.0392 51.3325L39.3436 52.7299C38.6088 53.1109 37.7557 52.4852 37.8983 51.6699L38.4083 48.7546C38.4656 48.4268 38.3561 48.0919 38.1161 47.8612L35.9778 45.8066C35.3772 45.2294 35.7042 44.2139 36.5288 44.0957L39.5126 43.6679C39.8371 43.6213 40.1182 43.4187 40.265 43.1255L41.6057 40.4465Z" fill="#F9D142" stroke="#101C3D" stroke-linejoin="round"/>
  <circle cx="40.5" cy="45.6597" r="1" fill="#101C3D"/>
  <circle cx="44.5" cy="45.6597" r="1" fill="#101C3D"/>
  <path d="M41 48.1597C41 48.1597 42.5 51.6597 44 48.1597" stroke="#101C3D"/>
  <path d="M32.1057 41.0398C32.4744 40.3032 33.5256 40.3032 33.8943 41.0398L35.235 43.7188C35.3818 44.012 35.6629 44.2146 35.9874 44.2611L38.9712 44.6889C39.7958 44.8072 40.1228 45.8227 39.5222 46.3999L37.383 48.4554C37.1435 48.6855 37.0339 49.0195 37.0905 49.3468L37.5949 52.2651C37.7358 53.0802 36.8825 53.7042 36.1485 53.3228L33.4606 51.9262C33.1718 51.7761 32.8281 51.776 32.5392 51.9257L29.8436 53.3232C29.1088 53.7042 28.2557 53.0784 28.3983 52.2631L28.9083 49.3479C28.9656 49.02 28.8561 48.6851 28.6161 48.4545L26.4778 46.3999C25.8772 45.8227 26.2042 44.8072 27.0288 44.6889L30.0126 44.2611C30.3371 44.2146 30.6182 44.012 30.765 43.7188L32.1057 41.0398Z" fill="#F9D142" stroke="#101C3D" stroke-linejoin="round"/>
  <circle cx="31" cy="46.2529" r="1" fill="#101C3D"/>
  <circle cx="35" cy="46.2529" r="1" fill="#101C3D"/>
  <path d="M31.5 48.7529C31.5 48.7529 33 52.2529 34.5 48.7529" stroke="#101C3D"/>
  <path d="M24.1057 41.0398C24.4744 40.3032 25.5256 40.3032 25.8943 41.0398L27.235 43.7188C27.3818 44.012 27.6629 44.2146 27.9874 44.2611L30.9712 44.6889C31.7958 44.8072 32.1228 45.8227 31.5222 46.3999L29.383 48.4554C29.1435 48.6855 29.0339 49.0195 29.0905 49.3468L29.5949 52.2651C29.7358 53.0802 28.8825 53.7042 28.1485 53.3228L25.4606 51.9262C25.1718 51.7761 24.8281 51.776 24.5392 51.9257L21.8436 53.3232C21.1088 53.7042 20.2557 53.0784 20.3983 52.2631L20.9083 49.3479C20.9656 49.02 20.8561 48.6851 20.6161 48.4545L18.4778 46.3999C17.8772 45.8227 18.2042 44.8072 19.0288 44.6889L22.0126 44.2611C22.3371 44.2146 22.6182 44.012 22.765 43.7188L24.1057 41.0398Z" fill="#F9D142" stroke="#101C3D" stroke-linejoin="round"/>
  <circle cx="23" cy="46.2529" r="1" fill="#101C3D"/>
  <circle cx="27" cy="46.2529" r="1" fill="#101C3D"/>
  <path d="M23.5 48.7529C23.5 48.7529 25 52.2529 26.5 48.7529" stroke="#101C3D"/>
  <path d="M18.1057 50.0398C18.4744 49.3032 19.5256 49.3032 19.8943 50.0398L21.235 52.7188C21.3818 53.012 21.6629 53.2146 21.9874 53.2611L24.9712 53.6889C25.7958 53.8072 26.1228 54.8227 25.5222 55.3999L23.383 57.4554C23.1435 57.6855 23.0339 58.0195 23.0905 58.3468L23.5949 61.2651C23.7358 62.0802 22.8825 62.7042 22.1485 62.3228L19.4606 60.9262C19.1718 60.7761 18.8281 60.776 18.5392 60.9257L15.8436 62.3232C15.1088 62.7042 14.2557 62.0784 14.3983 61.2631L14.9083 58.3479C14.9656 58.02 14.8561 57.6851 14.6161 57.4545L12.4778 55.3999C11.8772 54.8227 12.2042 53.8072 13.0288 53.6889L16.0126 53.2611C16.3371 53.2146 16.6182 53.012 16.765 52.7188L18.1057 50.0398Z" fill="#F9D142" stroke="#101C3D" stroke-linejoin="round"/>
  <circle cx="17" cy="55.2529" r="1" fill="#101C3D"/>
  <circle cx="21" cy="55.2529" r="1" fill="#101C3D"/>
  <path d="M17.5 57.7529C17.5 57.7529 19 61.2529 20.5 57.7529" stroke="#101C3D"/>
  <path d="M25.1057 58.0398C25.4744 57.3032 26.5256 57.3032 26.8943 58.0398L28.235 60.7188C28.3818 61.012 28.6629 61.2146 28.9874 61.2611L31.9712 61.6889C32.7958 61.8072 33.1228 62.8227 32.5222 63.3999L30.383 65.4554C30.1435 65.6855 30.0339 66.0195 30.0905 66.3468L30.5949 69.2651C30.7358 70.0802 29.8825 70.7042 29.1485 70.3228L26.4606 68.9262C26.1718 68.7761 25.8281 68.776 25.5392 68.9257L22.8436 70.3232C22.1088 70.7042 21.2557 70.0784 21.3983 69.2631L21.9083 66.3479C21.9656 66.02 21.8561 65.6851 21.6161 65.4545L19.4778 63.3999C18.8772 62.8227 19.2042 61.8072 20.0288 61.6889L23.0126 61.2611C23.3371 61.2146 23.6182 61.012 23.765 60.7188L25.1057 58.0398Z" fill="#F9D142" stroke="#101C3D" stroke-linejoin="round"/>
  <circle cx="24" cy="63.2529" r="1" fill="#101C3D"/>
  <circle cx="28" cy="63.2529" r="1" fill="#101C3D"/>
  <path d="M24.5 65.7529C24.5 65.7529 26 69.2529 27.5 65.7529" stroke="#101C3D"/>
  <path d="M16.1057 62.0398C16.4744 61.3032 17.5256 61.3032 17.8943 62.0398L19.235 64.7188C19.3818 65.012 19.6629 65.2146 19.9874 65.2611L22.9712 65.6889C23.7958 65.8072 24.1228 66.8227 23.5222 67.3999L21.383 69.4554C21.1435 69.6855 21.0339 70.0195 21.0905 70.3468L21.5949 73.2651C21.7358 74.0802 20.8825 74.7042 20.1485 74.3228L17.4606 72.9262C17.1718 72.7761 16.8281 72.776 16.5392 72.9257L13.8436 74.3232C13.1088 74.7042 12.2557 74.0784 12.3983 73.2631L12.9083 70.3479C12.9656 70.02 12.8561 69.6851 12.6161 69.4545L10.4778 67.3999C9.87718 66.8227 10.2042 65.8072 11.0288 65.6889L14.0126 65.2611C14.3371 65.2146 14.6182 65.012 14.765 64.7188L16.1057 62.0398Z" fill="#F9D142" stroke="#101C3D" stroke-linejoin="round"/>
  <circle cx="15" cy="67.2529" r="1" fill="#101C3D"/>
  <circle cx="19" cy="67.2529" r="1" fill="#101C3D"/>
  <path d="M15.5 69.7529C15.5 69.7529 17 73.2529 18.5 69.7529" stroke="#101C3D"/>
  <path d="M17.1057 70.0398C17.4744 69.3032 18.5256 69.3032 18.8943 70.0398L20.235 72.7188C20.3818 73.012 20.6629 73.2146 20.9874 73.2611L23.9712 73.6889C24.7958 73.8072 25.1228 74.8227 24.5222 75.3999L22.383 77.4554C22.1435 77.6855 22.0339 78.0195 22.0905 78.3468L22.5949 81.2651C22.7358 82.0802 21.8825 82.7042 21.1485 82.3228L18.4606 80.9262C18.1718 80.7761 17.8281 80.776 17.5392 80.9257L14.8436 82.3232C14.1088 82.7042 13.2557 82.0784 13.3983 81.2631L13.9083 78.3479C13.9656 78.02 13.8561 77.6851 13.6161 77.4545L11.4778 75.3999C10.8772 74.8227 11.2042 73.8072 12.0288 73.6889L15.0126 73.2611C15.3371 73.2146 15.6182 73.012 15.765 72.7188L17.1057 70.0398Z" fill="#F9D142" stroke="#101C3D" stroke-linejoin="round"/>
  <circle cx="16" cy="75.2529" r="1" fill="#101C3D"/>
  <circle cx="20" cy="75.2529" r="1" fill="#101C3D"/>
  <path d="M16.5 77.7529C16.5 77.7529 18 81.2529 19.5 77.7529" stroke="#101C3D"/>
  <path d="M32.1057 71.0398C32.4744 70.3032 33.5256 70.3032 33.8943 71.0398L35.235 73.7188C35.3818 74.012 35.6629 74.2146 35.9874 74.2611L38.9712 74.6889C39.7958 74.8072 40.1228 75.8227 39.5222 76.3999L37.383 78.4554C37.1435 78.6855 37.0339 79.0195 37.0905 79.3468L37.5949 82.2651C37.7358 83.0802 36.8825 83.7042 36.1485 83.3228L33.4606 81.9262C33.1718 81.7761 32.8281 81.776 32.5392 81.9257L29.8436 83.3232C29.1088 83.7042 28.2557 83.0784 28.3983 82.2631L28.9083 79.3479C28.9656 79.02 28.8561 78.6851 28.6161 78.4545L26.4778 76.3999C25.8772 75.8227 26.2042 74.8072 27.0288 74.6889L30.0126 74.2611C30.3371 74.2146 30.6182 74.012 30.765 73.7188L32.1057 71.0398Z" fill="#F9D142" stroke="#101C3D" stroke-linejoin="round"/>
  <circle cx="31" cy="76.2529" r="1" fill="#101C3D"/>
  <circle cx="35" cy="76.2529" r="1" fill="#101C3D"/>
  <path d="M31.5 78.7529C31.5 78.7529 33 82.2529 34.5 78.7529" stroke="#101C3D"/>
  <path d="M35.1057 59.0398C35.4744 58.3032 36.5256 58.3032 36.8943 59.0398L38.235 61.7188C38.3818 62.012 38.6629 62.2146 38.9874 62.2611L41.9712 62.6889C42.7958 62.8072 43.1228 63.8227 42.5222 64.3999L40.383 66.4554C40.1435 66.6855 40.0339 67.0195 40.0905 67.3468L40.5949 70.2651C40.7358 71.0802 39.8825 71.7042 39.1485 71.3228L36.4606 69.9262C36.1718 69.7761 35.8281 69.776 35.5392 69.9257L32.8436 71.3232C32.1088 71.7042 31.2557 71.0784 31.3983 70.2631L31.9083 67.3479C31.9656 67.02 31.8561 66.6851 31.6161 66.4545L29.4778 64.3999C28.8772 63.8227 29.2042 62.8072 30.0288 62.6889L33.0126 62.2611C33.3371 62.2146 33.6182 62.012 33.765 61.7188L35.1057 59.0398Z" fill="#F9D142" stroke="#101C3D" stroke-linejoin="round"/>
  <circle cx="34" cy="64.2529" r="1" fill="#101C3D"/>
  <circle cx="38" cy="64.2529" r="1" fill="#101C3D"/>
  <path d="M34.5 66.7529C34.5 66.7529 36 70.2529 37.5 66.7529" stroke="#101C3D"/>
  <path d="M39.1057 50.0398C39.4744 49.3032 40.5256 49.3032 40.8943 50.0398L42.235 52.7188C42.3818 53.012 42.6629 53.2146 42.9874 53.2611L45.9712 53.6889C46.7958 53.8072 47.1228 54.8227 46.5222 55.3999L44.383 57.4554C44.1435 57.6855 44.0339 58.0195 44.0905 58.3468L44.5949 61.2651C44.7358 62.0802 43.8825 62.7042 43.1485 62.3228L40.4606 60.9262C40.1718 60.7761 39.8281 60.776 39.5392 60.9257L36.8436 62.3232C36.1088 62.7042 35.2557 62.0784 35.3983 61.2631L35.9083 58.3479C35.9656 58.02 35.8561 57.6851 35.6161 57.4545L33.4778 55.3999C32.8772 54.8227 33.2042 53.8072 34.0288 53.6889L37.0126 53.2611C37.3371 53.2146 37.6182 53.012 37.765 52.7188L39.1057 50.0398Z" fill="#F9D142" stroke="#101C3D" stroke-linejoin="round"/>
  <circle cx="38" cy="55.2529" r="1" fill="#101C3D"/>
  <circle cx="42" cy="55.2529" r="1" fill="#101C3D"/>
  <path d="M38.5 57.7529C38.5 57.7529 40 61.2529 41.5 57.7529" stroke="#101C3D"/>
  <path d="M45.1057 53.0398C45.4744 52.3032 46.5256 52.3032 46.8943 53.0398L48.235 55.7188C48.3818 56.012 48.6629 56.2146 48.9874 56.2611L51.9712 56.6889C52.7958 56.8072 53.1228 57.8227 52.5222 58.3999L50.383 60.4554C50.1435 60.6855 50.0339 61.0195 50.0905 61.3468L50.5949 64.2651C50.7358 65.0802 49.8825 65.7042 49.1485 65.3228L46.4606 63.9262C46.1718 63.7761 45.8281 63.776 45.5392 63.9257L42.8436 65.3232C42.1088 65.7042 41.2557 65.0784 41.3983 64.2631L41.9083 61.3479C41.9656 61.02 41.8561 60.6851 41.6161 60.4545L39.4778 58.3999C38.8772 57.8227 39.2042 56.8072 40.0288 56.6889L43.0126 56.2611C43.3371 56.2146 43.6182 56.012 43.765 55.7188L45.1057 53.0398Z" fill="#F9D142" stroke="#101C3D" stroke-linejoin="round"/>
  <circle cx="44" cy="58.2529" r="1" fill="#101C3D"/>
  <circle cx="48" cy="58.2529" r="1" fill="#101C3D"/>
  <path d="M44.5 60.7529C44.5 60.7529 46 64.2529 47.5 60.7529" stroke="#101C3D"/>
  <path d="M48.1057 61.0398C48.4744 60.3032 49.5256 60.3032 49.8943 61.0398L51.235 63.7188C51.3818 64.012 51.6629 64.2146 51.9874 64.2611L54.9712 64.6889C55.7958 64.8072 56.1228 65.8227 55.5222 66.3999L53.383 68.4554C53.1435 68.6855 53.0339 69.0195 53.0905 69.3468L53.5949 72.2651C53.7358 73.0802 52.8825 73.7042 52.1485 73.3228L49.4606 71.9262C49.1718 71.7761 48.8281 71.776 48.5392 71.9257L45.8436 73.3232C45.1088 73.7042 44.2557 73.0784 44.3983 72.2631L44.9083 69.3479C44.9656 69.02 44.8561 68.6851 44.6161 68.4545L42.4778 66.3999C41.8772 65.8227 42.2042 64.8072 43.0288 64.6889L46.0126 64.2611C46.3371 64.2146 46.6182 64.012 46.765 63.7188L48.1057 61.0398Z" fill="#F9D142" stroke="#101C3D" stroke-linejoin="round"/>
  <circle cx="47" cy="66.2529" r="1" fill="#101C3D"/>
  <circle cx="51" cy="66.2529" r="1" fill="#101C3D"/>
  <path d="M47.5 68.7529C47.5 68.7529 49 72.2529 50.5 68.7529" stroke="#101C3D"/>
  <path d="M42.1057 71.0398C42.4744 70.3032 43.5256 70.3032 43.8943 71.0398L45.235 73.7188C45.3818 74.012 45.6629 74.2146 45.9874 74.2611L48.9712 74.6889C49.7958 74.8072 50.1228 75.8227 49.5222 76.3999L47.383 78.4554C47.1435 78.6855 47.0339 79.0195 47.0905 79.3468L47.5949 82.2651C47.7358 83.0802 46.8825 83.7042 46.1485 83.3228L43.4606 81.9262C43.1718 81.7761 42.8281 81.776 42.5392 81.9257L39.8436 83.3232C39.1088 83.7042 38.2557 83.0784 38.3983 82.2631L38.9083 79.3479C38.9656 79.02 38.8561 78.6851 38.6161 78.4545L36.4778 76.3999C35.8772 75.8227 36.2042 74.8072 37.0288 74.6889L40.0126 74.2611C40.3371 74.2146 40.6182 74.012 40.765 73.7188L42.1057 71.0398Z" fill="#F9D142" stroke="#101C3D" stroke-linejoin="round"/>
  <circle cx="41" cy="76.2529" r="1" fill="#101C3D"/>
  <circle cx="45" cy="76.2529" r="1" fill="#101C3D"/>
  <path d="M41.5 78.7529C41.5 78.7529 43 82.2529 44.5 78.7529" stroke="#101C3D"/>
  <path d="M51.1057 70.0398C51.4744 69.3032 52.5256 69.3032 52.8943 70.0398L54.235 72.7188C54.3818 73.012 54.6629 73.2146 54.9874 73.2611L57.9712 73.6889C58.7958 73.8072 59.1228 74.8227 58.5222 75.3999L56.383 77.4554C56.1435 77.6855 56.0339 78.0195 56.0905 78.3468L56.5949 81.2651C56.7358 82.0802 55.8825 82.7042 55.1485 82.3228L52.4606 80.9262C52.1718 80.7761 51.8281 80.776 51.5392 80.9257L48.8436 82.3232C48.1088 82.7042 47.2557 82.0784 47.3983 81.2631L47.9083 78.3479C47.9656 78.02 47.8561 77.6851 47.6161 77.4545L45.4778 75.3999C44.8772 74.8227 45.2042 73.8072 46.0288 73.6889L49.0126 73.2611C49.3371 73.2146 49.6182 73.012 49.765 72.7188L51.1057 70.0398Z" fill="#F9D142" stroke="#101C3D" stroke-linejoin="round"/>
  <circle cx="50" cy="75.2529" r="1" fill="#101C3D"/>
  <circle cx="54" cy="75.2529" r="1" fill="#101C3D"/>
  <path d="M50.5 77.7529C50.5 77.7529 52 81.2529 53.5 77.7529" stroke="#101C3D"/>
  <path d="M59.1057 69.0398C59.4744 68.3032 60.5256 68.3032 60.8943 69.0398L62.235 71.7188C62.3818 72.012 62.6629 72.2146 62.9874 72.2611L65.9712 72.6889C66.7958 72.8072 67.1228 73.8227 66.5222 74.3999L64.383 76.4554C64.1435 76.6855 64.0339 77.0195 64.0905 77.3468L64.5949 80.2651C64.7358 81.0802 63.8825 81.7042 63.1485 81.3228L60.4606 79.9262C60.1718 79.7761 59.8281 79.776 59.5392 79.9257L56.8436 81.3232C56.1088 81.7042 55.2557 81.0784 55.3983 80.2631L55.9083 77.3479C55.9656 77.02 55.8561 76.6851 55.6161 76.4545L53.4778 74.3999C52.8772 73.8227 53.2042 72.8072 54.0288 72.6889L57.0126 72.2611C57.3371 72.2146 57.6182 72.012 57.765 71.7188L59.1057 69.0398Z" fill="#F9D142" stroke="#101C3D" stroke-linejoin="round"/>
  <circle cx="58" cy="74.2529" r="1" fill="#101C3D"/>
  <circle cx="62" cy="74.2529" r="1" fill="#101C3D"/>
  <path d="M58.5 76.7529C58.5 76.7529 60 80.2529 61.5 76.7529" stroke="#101C3D"/>
  <path d="M69.1057 69.0398C69.4744 68.3032 70.5256 68.3032 70.8943 69.0398L72.235 71.7188C72.3818 72.012 72.6629 72.2146 72.9874 72.2611L75.9712 72.6889C76.7958 72.8072 77.1228 73.8227 76.5222 74.3999L74.383 76.4554C74.1435 76.6855 74.0339 77.0195 74.0905 77.3468L74.5949 80.2651C74.7358 81.0802 73.8825 81.7042 73.1485 81.3228L70.4606 79.9262C70.1718 79.7761 69.8281 79.776 69.5392 79.9257L66.8436 81.3232C66.1088 81.7042 65.2557 81.0784 65.3983 80.2631L65.9083 77.3479C65.9656 77.02 65.8561 76.6851 65.6161 76.4545L63.4778 74.3999C62.8772 73.8227 63.2042 72.8072 64.0288 72.6889L67.0126 72.2611C67.3371 72.2146 67.6182 72.012 67.765 71.7188L69.1057 69.0398Z" fill="#F9D142" stroke="#101C3D" stroke-linejoin="round"/>
  <circle cx="68" cy="74.2529" r="1" fill="#101C3D"/>
  <circle cx="72" cy="74.2529" r="1" fill="#101C3D"/>
  <path d="M68.5 76.7529C68.5 76.7529 70 80.2529 71.5 76.7529" stroke="#101C3D"/>
  <path d="M83.1057 70.0398C83.4744 69.3032 84.5256 69.3032 84.8943 70.0398L86.235 72.7188C86.3818 73.012 86.6629 73.2146 86.9874 73.2611L89.9712 73.6889C90.7958 73.8072 91.1228 74.8227 90.5222 75.3999L88.383 77.4554C88.1435 77.6855 88.0339 78.0195 88.0905 78.3468L88.5949 81.2651C88.7358 82.0802 87.8825 82.7042 87.1485 82.3228L84.4606 80.9262C84.1718 80.7761 83.8281 80.776 83.5392 80.9257L80.8436 82.3232C80.1088 82.7042 79.2557 82.0784 79.3983 81.2631L79.9083 78.3479C79.9656 78.02 79.8561 77.6851 79.6161 77.4545L77.4778 75.3999C76.8772 74.8227 77.2042 73.8072 78.0288 73.6889L81.0126 73.2611C81.3371 73.2146 81.6182 73.012 81.765 72.7188L83.1057 70.0398Z" fill="#F9D142" stroke="#101C3D" stroke-linejoin="round"/>
  <circle cx="82" cy="75.2529" r="1" fill="#101C3D"/>
  <circle cx="86" cy="75.2529" r="1" fill="#101C3D"/>
  <path d="M82.5 77.7529C82.5 77.7529 84 81.2529 85.5 77.7529" stroke="#101C3D"/>
  <path d="M89.1057 65.0398C89.4744 64.3032 90.5256 64.3032 90.8943 65.0398L92.235 67.7188C92.3818 68.012 92.6629 68.2146 92.9874 68.2611L95.9712 68.6889C96.7958 68.8072 97.1228 69.8227 96.5222 70.3999L94.383 72.4554C94.1435 72.6855 94.0339 73.0195 94.0905 73.3468L94.5949 76.2651C94.7358 77.0802 93.8825 77.7042 93.1485 77.3228L90.4606 75.9262C90.1718 75.7761 89.8281 75.776 89.5392 75.9257L86.8436 77.3232C86.1088 77.7042 85.2557 77.0784 85.3983 76.2631L85.9083 73.3479C85.9656 73.02 85.8561 72.6851 85.6161 72.4545L83.4778 70.3999C82.8772 69.8227 83.2042 68.8072 84.0288 68.6889L87.0126 68.2611C87.3371 68.2146 87.6182 68.012 87.765 67.7188L89.1057 65.0398Z" fill="#F9D142" stroke="#101C3D" stroke-linejoin="round"/>
  <circle cx="88" cy="70.2529" r="1" fill="#101C3D"/>
  <circle cx="92" cy="70.2529" r="1" fill="#101C3D"/>
  <path d="M88.5 72.7529C88.5 72.7529 90 76.2529 91.5 72.7529" stroke="#101C3D"/>
  <path d="M79.1057 56.0398C79.4744 55.3032 80.5256 55.3032 80.8943 56.0398L82.235 58.7188C82.3818 59.012 82.6629 59.2146 82.9874 59.2611L85.9712 59.6889C86.7958 59.8072 87.1228 60.8227 86.5222 61.3999L84.383 63.4554C84.1435 63.6855 84.0339 64.0195 84.0905 64.3468L84.5949 67.2651C84.7358 68.0802 83.8825 68.7042 83.1485 68.3228L80.4606 66.9262C80.1718 66.7761 79.8281 66.776 79.5392 66.9257L76.8436 68.3232C76.1088 68.7042 75.2557 68.0784 75.3983 67.2631L75.9083 64.3479C75.9656 64.02 75.8561 63.6851 75.6161 63.4545L73.4778 61.3999C72.8772 60.8227 73.2042 59.8072 74.0288 59.6889L77.0126 59.2611C77.3371 59.2146 77.6182 59.012 77.765 58.7188L79.1057 56.0398Z" fill="#F9D142" stroke="#101C3D" stroke-linejoin="round"/>
  <circle cx="78" cy="61.2529" r="1" fill="#101C3D"/>
  <circle cx="82" cy="61.2529" r="1" fill="#101C3D"/>
  <path d="M78.5 63.7529C78.5 63.7529 80 67.2529 81.5 63.7529" stroke="#101C3D"/>
  <path d="M68.1057 56.0398C68.4744 55.3032 69.5256 55.3032 69.8943 56.0398L71.235 58.7188C71.3818 59.012 71.6629 59.2146 71.9874 59.2611L74.9712 59.6889C75.7958 59.8072 76.1228 60.8227 75.5222 61.3999L73.383 63.4554C73.1435 63.6855 73.0339 64.0195 73.0905 64.3468L73.5949 67.2651C73.7358 68.0802 72.8825 68.7042 72.1485 68.3228L69.4606 66.9262C69.1718 66.7761 68.8281 66.776 68.5392 66.9257L65.8436 68.3232C65.1088 68.7042 64.2557 68.0784 64.3983 67.2631L64.9083 64.3479C64.9656 64.02 64.8561 63.6851 64.6161 63.4545L62.4778 61.3999C61.8772 60.8227 62.2042 59.8072 63.0288 59.6889L66.0126 59.2611C66.3371 59.2146 66.6182 59.012 66.765 58.7188L68.1057 56.0398Z" fill="#F9D142" stroke="#101C3D" stroke-linejoin="round"/>
  <circle cx="67" cy="61.2529" r="1" fill="#101C3D"/>
  <circle cx="71" cy="61.2529" r="1" fill="#101C3D"/>
  <path d="M67.5 63.7529C67.5 63.7529 69 67.2529 70.5 63.7529" stroke="#101C3D"/>
  <path d="M55.1057 54.0398C55.4744 53.3032 56.5256 53.3032 56.8943 54.0398L58.235 56.7188C58.3818 57.012 58.6629 57.2146 58.9874 57.2611L61.9712 57.6889C62.7958 57.8072 63.1228 58.8227 62.5222 59.3999L60.383 61.4554C60.1435 61.6855 60.0339 62.0195 60.0905 62.3468L60.5949 65.2651C60.7358 66.0802 59.8825 66.7042 59.1485 66.3228L56.4606 64.9262C56.1718 64.7761 55.8281 64.776 55.5392 64.9257L52.8436 66.3232C52.1088 66.7042 51.2557 66.0784 51.3983 65.2631L51.9083 62.3479C51.9656 62.02 51.8561 61.6851 51.6161 61.4545L49.4778 59.3999C48.8772 58.8227 49.2042 57.8072 50.0288 57.6889L53.0126 57.2611C53.3371 57.2146 53.6182 57.012 53.765 56.7188L55.1057 54.0398Z" fill="#F9D142" stroke="#101C3D" stroke-linejoin="round"/>
  <circle cx="54" cy="59.2529" r="1" fill="#101C3D"/>
  <circle cx="58" cy="59.2529" r="1" fill="#101C3D"/>
  <path d="M54.5 61.7529C54.5 61.7529 56 65.2529 57.5 61.7529" stroke="#101C3D"/>
  <path d="M63.1057 45.0398C63.4744 44.3032 64.5256 44.3032 64.8943 45.0398L66.235 47.7188C66.3818 48.012 66.6629 48.2146 66.9874 48.2611L69.9712 48.6889C70.7958 48.8072 71.1228 49.8227 70.5222 50.3999L68.383 52.4554C68.1435 52.6855 68.0339 53.0195 68.0905 53.3468L68.5949 56.2651C68.7358 57.0802 67.8825 57.7042 67.1485 57.3228L64.4606 55.9262C64.1718 55.7761 63.8281 55.776 63.5392 55.9257L60.8436 57.3232C60.1088 57.7042 59.2557 57.0784 59.3983 56.2631L59.9083 53.3479C59.9656 53.02 59.8561 52.6851 59.6161 52.4545L57.4778 50.3999C56.8772 49.8227 57.2042 48.8072 58.0288 48.6889L61.0126 48.2611C61.3371 48.2146 61.6182 48.012 61.765 47.7188L63.1057 45.0398Z" fill="#F9D142" stroke="#101C3D" stroke-linejoin="round"/>
  <circle cx="62" cy="50.2529" r="1" fill="#101C3D"/>
  <circle cx="66" cy="50.2529" r="1" fill="#101C3D"/>
  <path d="M62.5 52.7529C62.5 52.7529 64 56.2529 65.5 52.7529" stroke="#101C3D"/>
  <path d="M58.1057 39.0398C58.4744 38.3032 59.5256 38.3032 59.8943 39.0398L61.235 41.7188C61.3818 42.012 61.6629 42.2146 61.9874 42.2611L64.9712 42.6889C65.7958 42.8072 66.1228 43.8227 65.5222 44.3999L63.383 46.4554C63.1435 46.6855 63.0339 47.0195 63.0905 47.3468L63.5949 50.2651C63.7358 51.0802 62.8825 51.7042 62.1485 51.3228L59.4606 49.9262C59.1718 49.7761 58.8281 49.776 58.5392 49.9257L55.8436 51.3232C55.1088 51.7042 54.2557 51.0784 54.3983 50.2631L54.9083 47.3479C54.9656 47.02 54.8561 46.6851 54.6161 46.4545L52.4778 44.3999C51.8772 43.8227 52.2042 42.8072 53.0288 42.6889L56.0126 42.2611C56.3371 42.2146 56.6182 42.012 56.765 41.7188L58.1057 39.0398Z" fill="#F9D142" stroke="#101C3D" stroke-linejoin="round"/>
  <circle cx="57" cy="44.2529" r="1" fill="#101C3D"/>
  <circle cx="61" cy="44.2529" r="1" fill="#101C3D"/>
  <path d="M57.5 46.7529C57.5 46.7529 59 50.2529 60.5 46.7529" stroke="#101C3D"/>
  <path d="M52.1057 38.0398C52.4744 37.3032 53.5256 37.3032 53.8943 38.0398L55.235 40.7188C55.3818 41.012 55.6629 41.2146 55.9874 41.2611L58.9712 41.6889C59.7958 41.8072 60.1228 42.8227 59.5222 43.3999L57.383 45.4554C57.1435 45.6855 57.0339 46.0195 57.0905 46.3468L57.5949 49.2651C57.7358 50.0802 56.8825 50.7042 56.1485 50.3228L53.4606 48.9262C53.1718 48.7761 52.8281 48.776 52.5392 48.9257L49.8436 50.3232C49.1088 50.7042 48.2557 50.0784 48.3983 49.2631L48.9083 46.3479C48.9656 46.02 48.8561 45.6851 48.6161 45.4545L46.4778 43.3999C45.8772 42.8227 46.2042 41.8072 47.0288 41.6889L50.0126 41.2611C50.3371 41.2146 50.6182 41.012 50.765 40.7188L52.1057 38.0398Z" fill="#F9D142" stroke="#101C3D" stroke-linejoin="round"/>
  <circle cx="51" cy="43.2529" r="1" fill="#101C3D"/>
  <circle cx="55" cy="43.2529" r="1" fill="#101C3D"/>
  <path d="M51.5 45.7529C51.5 45.7529 53 49.2529 54.5 45.7529" stroke="#101C3D"/>
  <path d="M53.1057 30.0398C53.4744 29.3032 54.5256 29.3032 54.8943 30.0398L56.235 32.7188C56.3818 33.012 56.6629 33.2146 56.9874 33.2611L59.9712 33.6889C60.7958 33.8072 61.1228 34.8227 60.5222 35.3999L58.383 37.4554C58.1435 37.6855 58.0339 38.0195 58.0905 38.3468L58.5949 41.2651C58.7358 42.0802 57.8825 42.7042 57.1485 42.3228L54.4606 40.9262C54.1718 40.7761 53.8281 40.776 53.5392 40.9257L50.8436 42.3232C50.1088 42.7042 49.2557 42.0784 49.3983 41.2631L49.9083 38.3479C49.9656 38.02 49.8561 37.6851 49.6161 37.4545L47.4778 35.3999C46.8772 34.8227 47.2042 33.8072 48.0288 33.6889L51.0126 33.2611C51.3371 33.2146 51.6182 33.012 51.765 32.7188L53.1057 30.0398Z" fill="#F9D142" stroke="#101C3D" stroke-linejoin="round"/>
  <circle cx="52" cy="35.2529" r="1" fill="#101C3D"/>
  <circle cx="56" cy="35.2529" r="1" fill="#101C3D"/>
  <path d="M52.5 37.7529C52.5 37.7529 54 41.2529 55.5 37.7529" stroke="#101C3D"/>
  <path d="M45.1057 30.0398C45.4744 29.3032 46.5256 29.3032 46.8943 30.0398L48.235 32.7188C48.3818 33.012 48.6629 33.2146 48.9874 33.2611L51.9712 33.6889C52.7958 33.8072 53.1228 34.8227 52.5222 35.3999L50.383 37.4554C50.1435 37.6855 50.0339 38.0195 50.0905 38.3468L50.5949 41.2651C50.7358 42.0802 49.8825 42.7042 49.1485 42.3228L46.4606 40.9262C46.1718 40.7761 45.8281 40.776 45.5392 40.9257L42.8436 42.3232C42.1088 42.7042 41.2557 42.0784 41.3983 41.2631L41.9083 38.3479C41.9656 38.02 41.8561 37.6851 41.6161 37.4545L39.4778 35.3999C38.8772 34.8227 39.2042 33.8072 40.0288 33.6889L43.0126 33.2611C43.3371 33.2146 43.6182 33.012 43.765 32.7188L45.1057 30.0398Z" fill="#F9D142" stroke="#101C3D" stroke-linejoin="round"/>
  <circle cx="44" cy="35.2529" r="1" fill="#101C3D"/>
  <circle cx="48" cy="35.2529" r="1" fill="#101C3D"/>
  <path d="M44.5 37.7529C44.5 37.7529 46 41.2529 47.5 37.7529" stroke="#101C3D"/>
  <path d="M47.1057 21.0398C47.4744 20.3032 48.5256 20.3032 48.8943 21.0398L50.235 23.7188C50.3818 24.012 50.6629 24.2146 50.9874 24.2611L53.9712 24.6889C54.7958 24.8072 55.1228 25.8227 54.5222 26.3999L52.383 28.4554C52.1435 28.6855 52.0339 29.0195 52.0905 29.3468L52.5949 32.2651C52.7358 33.0802 51.8825 33.7042 51.1485 33.3228L48.4606 31.9262C48.1718 31.7761 47.8281 31.776 47.5392 31.9257L44.8436 33.3232C44.1088 33.7042 43.2557 33.0784 43.3983 32.2631L43.9083 29.3479C43.9656 29.02 43.8561 28.6851 43.6161 28.4545L41.4778 26.3999C40.8772 25.8227 41.2042 24.8072 42.0288 24.6889L45.0126 24.2611C45.3371 24.2146 45.6182 24.012 45.765 23.7188L47.1057 21.0398Z" fill="#F9D142" stroke="#101C3D" stroke-linejoin="round"/>
  <circle cx="46" cy="26.2529" r="1" fill="#101C3D"/>
  <circle cx="50" cy="26.2529" r="1" fill="#101C3D"/>
  <path d="M46.5 28.7529C46.5 28.7529 48 32.2529 49.5 28.7529" stroke="#101C3D"/>
  <path d="M59.1057 11.0398C59.4744 10.3032 60.5256 10.3032 60.8943 11.0398L62.235 13.7188C62.3818 14.012 62.6629 14.2146 62.9874 14.2611L65.9712 14.6889C66.7958 14.8072 67.1228 15.8227 66.5222 16.3999L64.383 18.4554C64.1435 18.6855 64.0339 19.0195 64.0905 19.3468L64.5949 22.2651C64.7358 23.0802 63.8825 23.7042 63.1485 23.3228L60.4606 21.9262C60.1718 21.7761 59.8281 21.776 59.5392 21.9257L56.8436 23.3232C56.1088 23.7042 55.2557 23.0784 55.3983 22.2631L55.9083 19.3479C55.9656 19.02 55.8561 18.6851 55.6161 18.4545L53.4778 16.3999C52.8772 15.8227 53.2042 14.8072 54.0288 14.6889L57.0126 14.2611C57.3371 14.2146 57.6182 14.012 57.765 13.7188L59.1057 11.0398Z" fill="#F9D142" stroke="#101C3D" stroke-linejoin="round"/>
  <circle cx="58" cy="16.2529" r="1" fill="#101C3D"/>
  <circle cx="62" cy="16.2529" r="1" fill="#101C3D"/>
  <path d="M58.5 18.7529C58.5 18.7529 60 22.2529 61.5 18.7529" stroke="#101C3D"/>
  <path d="M49.1057 11.0398C49.4744 10.3032 50.5256 10.3032 50.8943 11.0398L52.235 13.7188C52.3818 14.012 52.6629 14.2146 52.9874 14.2611L55.9712 14.6889C56.7958 14.8072 57.1228 15.8227 56.5222 16.3999L54.383 18.4554C54.1435 18.6855 54.0339 19.0195 54.0905 19.3468L54.5949 22.2651C54.7358 23.0802 53.8825 23.7042 53.1485 23.3228L50.4606 21.9262C50.1718 21.7761 49.8281 21.776 49.5392 21.9257L46.8436 23.3232C46.1088 23.7042 45.2557 23.0784 45.3983 22.2631L45.9083 19.3479C45.9656 19.02 45.8561 18.6851 45.6161 18.4545L43.4778 16.3999C42.8772 15.8227 43.2042 14.8072 44.0288 14.6889L47.0126 14.2611C47.3371 14.2146 47.6182 14.012 47.765 13.7188L49.1057 11.0398Z" fill="#F9D142" stroke="#101C3D" stroke-linejoin="round"/>
  <circle cx="48" cy="16.2529" r="1" fill="#101C3D"/>
  <circle cx="52" cy="16.2529" r="1" fill="#101C3D"/>
  <path d="M48.5 18.7529C48.5 18.7529 50 22.2529 51.5 18.7529" stroke="#101C3D"/>
  <path d="M41.1057 11.0398C41.4744 10.3032 42.5256 10.3032 42.8943 11.0398L44.235 13.7188C44.3818 14.012 44.6629 14.2146 44.9874 14.2611L47.9712 14.6889C48.7958 14.8072 49.1228 15.8227 48.5222 16.3999L46.383 18.4554C46.1435 18.6855 46.0339 19.0195 46.0905 19.3468L46.5949 22.2651C46.7358 23.0802 45.8825 23.7042 45.1485 23.3228L42.4606 21.9262C42.1718 21.7761 41.8281 21.776 41.5392 21.9257L38.8436 23.3232C38.1088 23.7042 37.2557 23.0784 37.3983 22.2631L37.9083 19.3479C37.9656 19.02 37.8561 18.6851 37.6161 18.4545L35.4778 16.3999C34.8772 15.8227 35.2042 14.8072 36.0288 14.6889L39.0126 14.2611C39.3371 14.2146 39.6182 14.012 39.765 13.7188L41.1057 11.0398Z" fill="#F9D142" stroke="#101C3D" stroke-linejoin="round"/>
  <circle cx="40" cy="16.2529" r="1" fill="#101C3D"/>
  <circle cx="44" cy="16.2529" r="1" fill="#101C3D"/>
  <path d="M40.5 18.7529C40.5 18.7529 42 22.2529 43.5 18.7529" stroke="#101C3D"/>
  <path d="M30.1057 10.0398C30.4744 9.30317 31.5256 9.30317 31.8943 10.0398L33.235 12.7188C33.3818 13.012 33.6629 13.2146 33.9874 13.2611L36.9712 13.6889C37.7958 13.8072 38.1228 14.8227 37.5222 15.3999L35.383 17.4554C35.1435 17.6855 35.0339 18.0195 35.0905 18.3468L35.5949 21.2651C35.7358 22.0802 34.8825 22.7042 34.1485 22.3228L31.4606 20.9262C31.1718 20.7761 30.8281 20.776 30.5392 20.9257L27.8436 22.3232C27.1088 22.7042 26.2557 22.0784 26.3983 21.2631L26.9083 18.3479C26.9656 18.02 26.8561 17.6851 26.6161 17.4545L24.4778 15.3999C23.8772 14.8227 24.2042 13.8072 25.0288 13.6889L28.0126 13.2611C28.3371 13.2146 28.6182 13.012 28.765 12.7188L30.1057 10.0398Z" fill="#F9D142" stroke="#101C3D" stroke-linejoin="round"/>
  <circle cx="29" cy="15.2529" r="1" fill="#101C3D"/>
  <circle cx="33" cy="15.2529" r="1" fill="#101C3D"/>
  <path d="M29.5 17.7529C29.5 17.7529 31 21.2529 32.5 17.7529" stroke="#101C3D"/>
  <path d="M21.1057 11.0398C21.4744 10.3032 22.5256 10.3032 22.8943 11.0398L24.235 13.7188C24.3818 14.012 24.6629 14.2146 24.9874 14.2611L27.9712 14.6889C28.7958 14.8072 29.1228 15.8227 28.5222 16.3999L26.383 18.4554C26.1435 18.6855 26.0339 19.0195 26.0905 19.3468L26.5949 22.2651C26.7358 23.0802 25.8825 23.7042 25.1485 23.3228L22.4606 21.9262C22.1718 21.7761 21.8281 21.776 21.5392 21.9257L18.8436 23.3232C18.1088 23.7042 17.2557 23.0784 17.3983 22.2631L17.9083 19.3479C17.9656 19.02 17.8561 18.6851 17.6161 18.4545L15.4778 16.3999C14.8772 15.8227 15.2042 14.8072 16.0288 14.6889L19.0126 14.2611C19.3371 14.2146 19.6182 14.012 19.765 13.7188L21.1057 11.0398Z" fill="#F9D142" stroke="#101C3D" stroke-linejoin="round"/>
  <circle cx="20" cy="16.2529" r="1" fill="#101C3D"/>
  <circle cx="24" cy="16.2529" r="1" fill="#101C3D"/>
  <path d="M20.5 18.7529C20.5 18.7529 22 22.2529 23.5 18.7529" stroke="#101C3D"/>
  <path d="M17.1057 18.0398C17.4744 17.3032 18.5256 17.3032 18.8943 18.0398L20.235 20.7188C20.3818 21.012 20.6629 21.2146 20.9874 21.2611L23.9712 21.6889C24.7958 21.8072 25.1228 22.8227 24.5222 23.3999L22.383 25.4554C22.1435 25.6855 22.0339 26.0195 22.0905 26.3468L22.5949 29.2651C22.7358 30.0802 21.8825 30.7042 21.1485 30.3228L18.4606 28.9262C18.1718 28.7761 17.8281 28.776 17.5392 28.9257L14.8436 30.3232C14.1088 30.7042 13.2557 30.0784 13.3983 29.2631L13.9083 26.3479C13.9656 26.02 13.8561 25.6851 13.6161 25.4545L11.4778 23.3999C10.8772 22.8227 11.2042 21.8072 12.0288 21.6889L15.0126 21.2611C15.3371 21.2146 15.6182 21.012 15.765 20.7188L17.1057 18.0398Z" fill="#F9D142" stroke="#101C3D" stroke-linejoin="round"/>
  <circle cx="16" cy="23.2529" r="1" fill="#101C3D"/>
  <circle cx="20" cy="23.2529" r="1" fill="#101C3D"/>
  <path d="M16.5 25.7529C16.5 25.7529 18 29.2529 19.5 25.7529" stroke="#101C3D"/>
  <path d="M17.1057 24.7868C17.4744 24.0502 18.5256 24.0502 18.8943 24.7868L20.235 27.4659C20.3818 27.759 20.6629 27.9617 20.9874 28.0082L23.9712 28.436C24.7958 28.5542 25.1228 29.5698 24.5222 30.1469L22.383 32.2025C22.1435 32.4326 22.0339 32.7666 22.0905 33.0939L22.5949 36.0122C22.7358 36.8273 21.8825 37.4513 21.1485 37.0699L18.4606 35.6732C18.1718 35.5232 17.8281 35.523 17.5392 35.6728L14.8436 37.0703C14.1088 37.4512 13.2557 36.8255 13.3983 36.0102L13.9083 33.0949C13.9656 32.7671 13.8561 32.4322 13.6161 32.2016L11.4778 30.1469C10.8772 29.5698 11.2042 28.5542 12.0288 28.436L15.0126 28.0082C15.3371 27.9617 15.6182 27.759 15.765 27.4659L17.1057 24.7868Z" fill="#F9D142" stroke="#101C3D" stroke-linejoin="round"/>
  <circle cx="16" cy="30" r="1" fill="#101C3D"/>
  <circle cx="20" cy="30" r="1" fill="#101C3D"/>
  <path d="M16.5 32.5C16.5 32.5 18 36 19.5 32.5" stroke="#101C3D"/>
  <path d="M17.1057 32.7868C17.4744 32.0502 18.5256 32.0502 18.8943 32.7868L20.235 35.4659C20.3818 35.759 20.6629 35.9617 20.9874 36.0082L23.9712 36.436C24.7958 36.5542 25.1228 37.5698 24.5222 38.1469L22.383 40.2025C22.1435 40.4326 22.0339 40.7666 22.0905 41.0939L22.5949 44.0122C22.7358 44.8273 21.8825 45.4513 21.1485 45.0699L18.4606 43.6732C18.1718 43.5232 17.8281 43.523 17.5392 43.6728L14.8436 45.0703C14.1088 45.4512 13.2557 44.8255 13.3983 44.0102L13.9083 41.0949C13.9656 40.7671 13.8561 40.4322 13.6161 40.2016L11.4778 38.1469C10.8772 37.5698 11.2042 36.5542 12.0288 36.436L15.0126 36.0082C15.3371 35.9617 15.6182 35.759 15.765 35.4659L17.1057 32.7868Z" fill="#F9D142" stroke="#101C3D" stroke-linejoin="round"/>
  <circle cx="16" cy="38" r="1" fill="#101C3D"/>
  <circle cx="20" cy="38" r="1" fill="#101C3D"/>
  <path d="M16.5 40.5C16.5 40.5 18 44 19.5 40.5" stroke="#101C3D"/>
  <path d="M18.1057 40.0398C18.4744 39.3032 19.5256 39.3032 19.8943 40.0398L21.235 42.7188C21.3818 43.012 21.6629 43.2146 21.9874 43.2611L24.9712 43.6889C25.7958 43.8072 26.1228 44.8227 25.5222 45.3999L23.383 47.4554C23.1435 47.6855 23.0339 48.0195 23.0905 48.3468L23.5949 51.2651C23.7358 52.0802 22.8825 52.7042 22.1485 52.3228L19.4606 50.9262C19.1718 50.7761 18.8281 50.776 18.5392 50.9257L15.8436 52.3232C15.1088 52.7042 14.2557 52.0784 14.3983 51.2631L14.9083 48.3479C14.9656 48.02 14.8561 47.6851 14.6161 47.4545L12.4778 45.3999C11.8772 44.8227 12.2042 43.8072 13.0288 43.6889L16.0126 43.2611C16.3371 43.2146 16.6182 43.012 16.765 42.7188L18.1057 40.0398Z" fill="#F9D142" stroke="#101C3D" stroke-linejoin="round"/>
  <circle cx="17" cy="45.2529" r="1" fill="#101C3D"/>
  <circle cx="21" cy="45.2529" r="1" fill="#101C3D"/>
  <path d="M17.5 47.7529C17.5 47.7529 19 51.2529 20.5 47.7529" stroke="#101C3D"/>
  <path d="M61.1057 25.0398C61.4744 24.3032 62.5256 24.3032 62.8943 25.0398L64.235 27.7188C64.3818 28.012 64.6629 28.2146 64.9874 28.2611L67.9712 28.6889C68.7958 28.8072 69.1228 29.8227 68.5222 30.3999L66.383 32.4554C66.1435 32.6855 66.0339 33.0195 66.0905 33.3468L66.5949 36.2651C66.7358 37.0802 65.8825 37.7042 65.1485 37.3228L62.4606 35.9262C62.1718 35.7761 61.8281 35.776 61.5392 35.9257L58.8436 37.3232C58.1088 37.7042 57.2557 37.0784 57.3983 36.2631L57.9083 33.3479C57.9656 33.02 57.8561 32.6851 57.6161 32.4545L55.4778 30.3999C54.8772 29.8227 55.2042 28.8072 56.0288 28.6889L59.0126 28.2611C59.3371 28.2146 59.6182 28.012 59.765 27.7188L61.1057 25.0398Z" fill="#F9D142" stroke="#101C3D" stroke-linejoin="round"/>
  <circle cx="60" cy="30.2529" r="1" fill="#101C3D"/>
  <circle cx="64" cy="30.2529" r="1" fill="#101C3D"/>
  <path d="M60.5 32.7529C60.5 32.7529 62 36.2529 63.5 32.7529" stroke="#101C3D"/>
  <path d="M63.1057 33.0398C63.4744 32.3032 64.5256 32.3032 64.8943 33.0398L66.235 35.7188C66.3818 36.012 66.6629 36.2146 66.9874 36.2611L69.9712 36.6889C70.7958 36.8072 71.1228 37.8227 70.5222 38.3999L68.383 40.4554C68.1435 40.6855 68.0339 41.0195 68.0905 41.3468L68.5949 44.2651C68.7358 45.0802 67.8825 45.7042 67.1485 45.3228L64.4606 43.9262C64.1718 43.7761 63.8281 43.776 63.5392 43.9257L60.8436 45.3232C60.1088 45.7042 59.2557 45.0784 59.3983 44.2631L59.9083 41.3479C59.9656 41.02 59.8561 40.6851 59.6161 40.4545L57.4778 38.3999C56.8772 37.8227 57.2042 36.8072 58.0288 36.6889L61.0126 36.2611C61.3371 36.2146 61.6182 36.012 61.765 35.7188L63.1057 33.0398Z" fill="#F9D142" stroke="#101C3D" stroke-linejoin="round"/>
  <circle cx="62" cy="38.2529" r="1" fill="#101C3D"/>
  <circle cx="66" cy="38.2529" r="1" fill="#101C3D"/>
  <path d="M62.5 40.7529C62.5 40.7529 64 44.2529 65.5 40.7529" stroke="#101C3D"/>
  <path d="M70.1057 38.0398C70.4744 37.3032 71.5256 37.3032 71.8943 38.0398L73.235 40.7188C73.3818 41.012 73.6629 41.2146 73.9874 41.2611L76.9712 41.6889C77.7958 41.8072 78.1228 42.8227 77.5222 43.3999L75.383 45.4554C75.1435 45.6855 75.0339 46.0195 75.0905 46.3468L75.5949 49.2651C75.7358 50.0802 74.8825 50.7042 74.1485 50.3228L71.4606 48.9262C71.1718 48.7761 70.8281 48.776 70.5392 48.9257L67.8436 50.3232C67.1088 50.7042 66.2557 50.0784 66.3983 49.2631L66.9083 46.3479C66.9656 46.02 66.8561 45.6851 66.6161 45.4545L64.4778 43.3999C63.8772 42.8227 64.2042 41.8072 65.0288 41.6889L68.0126 41.2611C68.3371 41.2146 68.6182 41.012 68.765 40.7188L70.1057 38.0398Z" fill="#F9D142" stroke="#101C3D" stroke-linejoin="round"/>
  <circle cx="69" cy="43.2529" r="1" fill="#101C3D"/>
  <circle cx="73" cy="43.2529" r="1" fill="#101C3D"/>
  <path d="M69.5 45.7529C69.5 45.7529 71 49.2529 72.5 45.7529" stroke="#101C3D"/>
  <path d="M77.1057 46.0398C77.4744 45.3032 78.5256 45.3032 78.8943 46.0398L80.235 48.7188C80.3818 49.012 80.6629 49.2146 80.9874 49.2611L83.9712 49.6889C84.7958 49.8072 85.1228 50.8227 84.5222 51.3999L82.383 53.4554C82.1435 53.6855 82.0339 54.0195 82.0905 54.3468L82.5949 57.2651C82.7358 58.0802 81.8825 58.7042 81.1485 58.3228L78.4606 56.9262C78.1718 56.7761 77.8281 56.776 77.5392 56.9257L74.8436 58.3232C74.1088 58.7042 73.2557 58.0784 73.3983 57.2631L73.9083 54.3479C73.9656 54.02 73.8561 53.6851 73.6161 53.4545L71.4778 51.3999C70.8772 50.8227 71.2042 49.8072 72.0288 49.6889L75.0126 49.2611C75.3371 49.2146 75.6182 49.012 75.765 48.7188L77.1057 46.0398Z" fill="#F9D142" stroke="#101C3D" stroke-linejoin="round"/>
  <circle cx="76" cy="51.2529" r="1" fill="#101C3D"/>
  <circle cx="80" cy="51.2529" r="1" fill="#101C3D"/>
  <path d="M76.5 53.7529C76.5 53.7529 78 57.2529 79.5 53.7529" stroke="#101C3D"/>
  <path d="M86.1057 43.0398C86.4744 42.3032 87.5256 42.3032 87.8943 43.0398L89.235 45.7188C89.3818 46.012 89.6629 46.2146 89.9874 46.2611L92.9712 46.6889C93.7958 46.8072 94.1228 47.8227 93.5222 48.3999L91.383 50.4554C91.1435 50.6855 91.0339 51.0195 91.0905 51.3468L91.5949 54.2651C91.7358 55.0802 90.8825 55.7042 90.1485 55.3228L87.4606 53.9262C87.1718 53.7761 86.8281 53.776 86.5392 53.9257L83.8436 55.3232C83.1088 55.7042 82.2557 55.0784 82.3983 54.2631L82.9083 51.3479C82.9656 51.02 82.8561 50.6851 82.6161 50.4545L80.4778 48.3999C79.8772 47.8227 80.2042 46.8072 81.0288 46.6889L84.0126 46.2611C84.3371 46.2146 84.6182 46.012 84.765 45.7188L86.1057 43.0398Z" fill="#F9D142" stroke="#101C3D" stroke-linejoin="round"/>
  <circle cx="85" cy="48.2529" r="1" fill="#101C3D"/>
  <circle cx="89" cy="48.2529" r="1" fill="#101C3D"/>
  <path d="M85.5 50.7529C85.5 50.7529 87 54.2529 88.5 50.7529" stroke="#101C3D"/>
  <path d="M89.1057 38.0398C89.4744 37.3032 90.5256 37.3032 90.8943 38.0398L92.235 40.7188C92.3818 41.012 92.6629 41.2146 92.9874 41.2611L95.9712 41.6889C96.7958 41.8072 97.1228 42.8227 96.5222 43.3999L94.383 45.4554C94.1435 45.6855 94.0339 46.0195 94.0905 46.3468L94.5949 49.2651C94.7358 50.0802 93.8825 50.7042 93.1485 50.3228L90.4606 48.9262C90.1718 48.7761 89.8281 48.776 89.5392 48.9257L86.8436 50.3232C86.1088 50.7042 85.2557 50.0784 85.3983 49.2631L85.9083 46.3479C85.9656 46.02 85.8561 45.6851 85.6161 45.4545L83.4778 43.3999C82.8772 42.8227 83.2042 41.8072 84.0288 41.6889L87.0126 41.2611C87.3371 41.2146 87.6182 41.012 87.765 40.7188L89.1057 38.0398Z" fill="#F9D142" stroke="#101C3D" stroke-linejoin="round"/>
  <circle cx="88" cy="43.2529" r="1" fill="#101C3D"/>
  <circle cx="92" cy="43.2529" r="1" fill="#101C3D"/>
  <path d="M88.5 45.7529C88.5 45.7529 90 49.2529 91.5 45.7529" stroke="#101C3D"/>
  <path d="M83.1057 32.0398C83.4744 31.3032 84.5256 31.3032 84.8943 32.0398L86.235 34.7188C86.3818 35.012 86.6629 35.2146 86.9874 35.2611L89.9712 35.6889C90.7958 35.8072 91.1228 36.8227 90.5222 37.3999L88.383 39.4554C88.1435 39.6855 88.0339 40.0195 88.0905 40.3468L88.5949 43.2651C88.7358 44.0802 87.8825 44.7042 87.1485 44.3228L84.4606 42.9262C84.1718 42.7761 83.8281 42.776 83.5392 42.9257L80.8436 44.3232C80.1088 44.7042 79.2557 44.0784 79.3983 43.2631L79.9083 40.3479C79.9656 40.02 79.8561 39.6851 79.6161 39.4545L77.4778 37.3999C76.8772 36.8227 77.2042 35.8072 78.0288 35.6889L81.0126 35.2611C81.3371 35.2146 81.6182 35.012 81.765 34.7188L83.1057 32.0398Z" fill="#F9D142" stroke="#101C3D" stroke-linejoin="round"/>
  <circle cx="82" cy="37.2529" r="1" fill="#101C3D"/>
  <circle cx="86" cy="37.2529" r="1" fill="#101C3D"/>
  <path d="M82.5 39.7529C82.5 39.7529 84 43.2529 85.5 39.7529" stroke="#101C3D"/>
  <path d="M74.1057 29.0398C74.4744 28.3032 75.5256 28.3032 75.8943 29.0398L77.235 31.7188C77.3818 32.012 77.6629 32.2146 77.9874 32.2611L80.9712 32.6889C81.7958 32.8072 82.1228 33.8227 81.5222 34.3999L79.383 36.4554C79.1435 36.6855 79.0339 37.0195 79.0905 37.3468L79.5949 40.2651C79.7358 41.0802 78.8825 41.7042 78.1485 41.3228L75.4606 39.9262C75.1718 39.7761 74.8281 39.776 74.5392 39.9257L71.8436 41.3232C71.1088 41.7042 70.2557 41.0784 70.3983 40.2631L70.9083 37.3479C70.9656 37.02 70.8561 36.6851 70.6161 36.4545L68.4778 34.3999C67.8772 33.8227 68.2042 32.8072 69.0288 32.6889L72.0126 32.2611C72.3371 32.2146 72.6182 32.012 72.765 31.7188L74.1057 29.0398Z" fill="#F9D142" stroke="#101C3D" stroke-linejoin="round"/>
  <circle cx="73" cy="34.2529" r="1" fill="#101C3D"/>
  <circle cx="77" cy="34.2529" r="1" fill="#101C3D"/>
  <path d="M73.5 36.7529C73.5 36.7529 75 40.2529 76.5 36.7529" stroke="#101C3D"/>
  <path d="M77.1057 24.0398C77.4744 23.3032 78.5256 23.3032 78.8943 24.0398L80.235 26.7188C80.3818 27.012 80.6629 27.2146 80.9874 27.2611L83.9712 27.6889C84.7958 27.8072 85.1228 28.8227 84.5222 29.3999L82.383 31.4554C82.1435 31.6855 82.0339 32.0195 82.0905 32.3468L82.5949 35.2651C82.7358 36.0802 81.8825 36.7042 81.1485 36.3228L78.4606 34.9262C78.1718 34.7761 77.8281 34.776 77.5392 34.9257L74.8436 36.3232C74.1088 36.7042 73.2557 36.0784 73.3983 35.2631L73.9083 32.3479C73.9656 32.02 73.8561 31.6851 73.6161 31.4545L71.4778 29.3999C70.8772 28.8227 71.2042 27.8072 72.0288 27.6889L75.0126 27.2611C75.3371 27.2146 75.6182 27.012 75.765 26.7188L77.1057 24.0398Z" fill="#F9D142" stroke="#101C3D" stroke-linejoin="round"/>
  <circle cx="76" cy="29.2529" r="1" fill="#101C3D"/>
  <circle cx="80" cy="29.2529" r="1" fill="#101C3D"/>
  <path d="M76.5 31.7529C76.5 31.7529 78 35.2529 79.5 31.7529" stroke="#101C3D"/>
  <path d="M85.1057 16.0398C85.4744 15.3032 86.5256 15.3032 86.8943 16.0398L88.235 18.7188C88.3818 19.012 88.6629 19.2146 88.9874 19.2611L91.9712 19.6889C92.7958 19.8072 93.1228 20.8227 92.5222 21.3999L90.383 23.4554C90.1435 23.6855 90.0339 24.0195 90.0905 24.3468L90.5949 27.2651C90.7358 28.0802 89.8825 28.7042 89.1485 28.3228L86.4606 26.9262C86.1718 26.7761 85.8281 26.776 85.5392 26.9257L82.8436 28.3232C82.1088 28.7042 81.2557 28.0784 81.3983 27.2631L81.9083 24.3479C81.9656 24.02 81.8561 23.6851 81.6161 23.4545L79.4778 21.3999C78.8772 20.8227 79.2042 19.8072 80.0288 19.6889L83.0126 19.2611C83.3371 19.2146 83.6182 19.012 83.765 18.7188L85.1057 16.0398Z" fill="#F9D142" stroke="#101C3D" stroke-linejoin="round"/>
  <circle cx="84" cy="21.2529" r="1" fill="#101C3D"/>
  <circle cx="88" cy="21.2529" r="1" fill="#101C3D"/>
  <path d="M84.5 23.7529C84.5 23.7529 86 27.2529 87.5 23.7529" stroke="#101C3D"/>
  <path d="M92.1057 12.0398C92.4744 11.3032 93.5256 11.3032 93.8943 12.0398L95.235 14.7188C95.3818 15.012 95.6629 15.2146 95.9874 15.2611L98.9712 15.6889C99.7958 15.8072 100.123 16.8227 99.5222 17.3999L97.383 19.4554C97.1435 19.6855 97.0339 20.0195 97.0905 20.3468L97.5949 23.2651C97.7358 24.0802 96.8825 24.7042 96.1485 24.3228L93.4606 22.9262C93.1718 22.7761 92.8281 22.776 92.5392 22.9257L89.8436 24.3232C89.1088 24.7042 88.2557 24.0784 88.3983 23.2631L88.9083 20.3479C88.9656 20.02 88.8561 19.6851 88.6161 19.4545L86.4778 17.3999C85.8772 16.8227 86.2042 15.8072 87.0288 15.6889L90.0126 15.2611C90.3371 15.2146 90.6182 15.012 90.765 14.7188L92.1057 12.0398Z" fill="#F9D142" stroke="#101C3D" stroke-linejoin="round"/>
  <circle cx="91" cy="17.2529" r="1" fill="#101C3D"/>
  <circle cx="95" cy="17.2529" r="1" fill="#101C3D"/>
  <path d="M91.5 19.7529C91.5 19.7529 93 23.2529 94.5 19.7529" stroke="#101C3D"/>
  <path d="M83.1057 10.0398C83.4744 9.30317 84.5256 9.30317 84.8943 10.0398L86.235 12.7188C86.3818 13.012 86.6629 13.2146 86.9874 13.2611L89.9712 13.6889C90.7958 13.8072 91.1228 14.8227 90.5222 15.3999L88.383 17.4554C88.1435 17.6855 88.0339 18.0195 88.0905 18.3468L88.5949 21.2651C88.7358 22.0802 87.8825 22.7042 87.1485 22.3228L84.4606 20.9262C84.1718 20.7761 83.8281 20.776 83.5392 20.9257L80.8436 22.3232C80.1088 22.7042 79.2557 22.0784 79.3983 21.2631L79.9083 18.3479C79.9656 18.02 79.8561 17.6851 79.6161 17.4545L77.4778 15.3999C76.8772 14.8227 77.2042 13.8072 78.0288 13.6889L81.0126 13.2611C81.3371 13.2146 81.6182 13.012 81.765 12.7188L83.1057 10.0398Z" fill="#F9D142" stroke="#101C3D" stroke-linejoin="round"/>
  <circle cx="82" cy="15.2529" r="1" fill="#101C3D"/>
  <circle cx="86" cy="15.2529" r="1" fill="#101C3D"/>
  <path d="M82.5 17.7529C82.5 17.7529 84 21.2529 85.5 17.7529" stroke="#101C3D"/>
  <path d="M72.1057 11.0398C72.4744 10.3032 73.5256 10.3032 73.8943 11.0398L75.235 13.7188C75.3818 14.012 75.6629 14.2146 75.9874 14.2611L78.9712 14.6889C79.7958 14.8072 80.1228 15.8227 79.5222 16.3999L77.383 18.4554C77.1435 18.6855 77.0339 19.0195 77.0905 19.3468L77.5949 22.2651C77.7358 23.0802 76.8825 23.7042 76.1485 23.3228L73.4606 21.9262C73.1718 21.7761 72.8281 21.776 72.5392 21.9257L69.8436 23.3232C69.1088 23.7042 68.2557 23.0784 68.3983 22.2631L68.9083 19.3479C68.9656 19.02 68.8561 18.6851 68.6161 18.4545L66.4778 16.3999C65.8772 15.8227 66.2042 14.8072 67.0288 14.6889L70.0126 14.2611C70.3371 14.2146 70.6182 14.012 70.765 13.7188L72.1057 11.0398Z" fill="#F9D142" stroke="#101C3D" stroke-linejoin="round"/>
  <circle cx="71" cy="16.2529" r="1" fill="#101C3D"/>
  <circle cx="75" cy="16.2529" r="1" fill="#101C3D"/>
  <path d="M71.5 18.7529C71.5 18.7529 73 22.2529 74.5 18.7529" stroke="#101C3D"/>
  <path d="M65.1057 14.0398C65.4744 13.3032 66.5256 13.3032 66.8943 14.0398L68.235 16.7188C68.3818 17.012 68.6629 17.2146 68.9874 17.2611L71.9712 17.6889C72.7958 17.8072 73.1228 18.8227 72.5222 19.3999L70.383 21.4554C70.1435 21.6855 70.0339 22.0195 70.0905 22.3468L70.5949 25.2651C70.7358 26.0802 69.8825 26.7042 69.1485 26.3228L66.4606 24.9262C66.1718 24.7761 65.8281 24.776 65.5392 24.9257L62.8436 26.3232C62.1088 26.7042 61.2557 26.0784 61.3983 25.2631L61.9083 22.3479C61.9656 22.02 61.8561 21.6851 61.6161 21.4545L59.4778 19.3999C58.8772 18.8227 59.2042 17.8072 60.0288 17.6889L63.0126 17.2611C63.3371 17.2146 63.6182 17.012 63.765 16.7188L65.1057 14.0398Z" fill="#F9D142" stroke="#101C3D" stroke-linejoin="round"/>
  <circle cx="64" cy="19.2529" r="1" fill="#101C3D"/>
  <circle cx="68" cy="19.2529" r="1" fill="#101C3D"/>
  <path d="M64.5 21.7529C64.5 21.7529 66 25.2529 67.5 21.7529" stroke="#101C3D"/>
  <path d="M64.1057 21.0398C64.4744 20.3032 65.5256 20.3032 65.8943 21.0398L67.235 23.7188C67.3818 24.012 67.6629 24.2146 67.9874 24.2611L70.9712 24.6889C71.7958 24.8072 72.1228 25.8227 71.5222 26.3999L69.383 28.4554C69.1435 28.6855 69.0339 29.0195 69.0905 29.3468L69.5949 32.2651C69.7358 33.0802 68.8825 33.7042 68.1485 33.3228L65.4606 31.9262C65.1718 31.7761 64.8281 31.776 64.5392 31.9257L61.8436 33.3232C61.1088 33.7042 60.2557 33.0784 60.3983 32.2631L60.9083 29.3479C60.9656 29.02 60.8561 28.6851 60.6161 28.4545L58.4778 26.3999C57.8772 25.8227 58.2042 24.8072 59.0288 24.6889L62.0126 24.2611C62.3371 24.2146 62.6182 24.012 62.765 23.7188L64.1057 21.0398Z" fill="#F9D142" stroke="#101C3D" stroke-linejoin="round"/>
  <circle cx="63" cy="26.2529" r="1" fill="#101C3D"/>
  <circle cx="67" cy="26.2529" r="1" fill="#101C3D"/>
  <path d="M63.5 28.7529C63.5 28.7529 65 32.2529 66.5 28.7529" stroke="#101C3D"/>
  <path d="M93.1057 32.0398C93.4744 31.3032 94.5256 31.3032 94.8943 32.0398L96.235 34.7188C96.3818 35.012 96.6629 35.2146 96.9874 35.2611L99.9712 35.6889C100.796 35.8072 101.123 36.8227 100.522 37.3999L98.383 39.4554C98.1435 39.6855 98.0339 40.0195 98.0905 40.3468L98.5949 43.2651C98.7358 44.0802 97.8825 44.7042 97.1485 44.3228L94.4606 42.9262C94.1718 42.7761 93.8281 42.776 93.5392 42.9257L90.8436 44.3232C90.1088 44.7042 89.2557 44.0784 89.3983 43.2631L89.9083 40.3479C89.9656 40.02 89.8561 39.6851 89.6161 39.4545L87.4778 37.3999C86.8772 36.8227 87.2042 35.8072 88.0288 35.6889L91.0126 35.2611C91.3371 35.2146 91.6182 35.012 91.765 34.7188L93.1057 32.0398Z" fill="#F9D142" stroke="#101C3D" stroke-linejoin="round"/>
  <circle cx="92" cy="37.2529" r="1" fill="#101C3D"/>
  <circle cx="96" cy="37.2529" r="1" fill="#101C3D"/>
  <path d="M92.5 39.7529C92.5 39.7529 94 43.2529 95.5 39.7529" stroke="#101C3D"/>
  <path d="M93.1057 44.0398C93.4744 43.3032 94.5256 43.3032 94.8943 44.0398L96.235 46.7188C96.3818 47.012 96.6629 47.2146 96.9874 47.2611L99.9712 47.6889C100.796 47.8072 101.123 48.8227 100.522 49.3999L98.383 51.4554C98.1435 51.6855 98.0339 52.0195 98.0905 52.3468L98.5949 55.2651C98.7358 56.0802 97.8825 56.7042 97.1485 56.3228L94.4606 54.9262C94.1718 54.7761 93.8281 54.776 93.5392 54.9257L90.8436 56.3232C90.1088 56.7042 89.2557 56.0784 89.3983 55.2631L89.9083 52.3479C89.9656 52.02 89.8561 51.6851 89.6161 51.4545L87.4778 49.3999C86.8772 48.8227 87.2042 47.8072 88.0288 47.6889L91.0126 47.2611C91.3371 47.2146 91.6182 47.012 91.765 46.7188L93.1057 44.0398Z" fill="#F9D142" stroke="#101C3D" stroke-linejoin="round"/>
  <circle cx="92" cy="49.2529" r="1" fill="#101C3D"/>
  <circle cx="96" cy="49.2529" r="1" fill="#101C3D"/>
  <path d="M92.5 51.7529C92.5 51.7529 94 55.2529 95.5 51.7529" stroke="#101C3D"/>
  <path d="M92.1057 56.0398C92.4744 55.3032 93.5256 55.3032 93.8943 56.0398L95.235 58.7188C95.3818 59.012 95.6629 59.2146 95.9874 59.2611L98.9712 59.6889C99.7958 59.8072 100.123 60.8227 99.5222 61.3999L97.383 63.4554C97.1435 63.6855 97.0339 64.0195 97.0905 64.3468L97.5949 67.2651C97.7358 68.0802 96.8825 68.7042 96.1485 68.3228L93.4606 66.9262C93.1718 66.7761 92.8281 66.776 92.5392 66.9257L89.8436 68.3232C89.1088 68.7042 88.2557 68.0784 88.3983 67.2631L88.9083 64.3479C88.9656 64.02 88.8561 63.6851 88.6161 63.4545L86.4778 61.3999C85.8772 60.8227 86.2042 59.8072 87.0288 59.6889L90.0126 59.2611C90.3371 59.2146 90.6182 59.012 90.765 58.7188L92.1057 56.0398Z" fill="#F9D142" stroke="#101C3D" stroke-linejoin="round"/>
  <circle cx="91" cy="61.2529" r="1" fill="#101C3D"/>
  <circle cx="95" cy="61.2529" r="1" fill="#101C3D"/>
  <path d="M91.5 63.7529C91.5 63.7529 93 67.2529 94.5 63.7529" stroke="#101C3D"/>
  <path d="M92.1057 70.0398C92.4744 69.3032 93.5256 69.3032 93.8943 70.0398L95.235 72.7188C95.3818 73.012 95.6629 73.2146 95.9874 73.2611L98.9712 73.6889C99.7958 73.8072 100.123 74.8227 99.5222 75.3999L97.383 77.4554C97.1435 77.6855 97.0339 78.0195 97.0905 78.3468L97.5949 81.2651C97.7358 82.0802 96.8825 82.7042 96.1485 82.3228L93.4606 80.9262C93.1718 80.7761 92.8281 80.776 92.5392 80.9257L89.8436 82.3232C89.1088 82.7042 88.2557 82.0784 88.3983 81.2631L88.9083 78.3479C88.9656 78.02 88.8561 77.6851 88.6161 77.4545L86.4778 75.3999C85.8772 74.8227 86.2042 73.8072 87.0288 73.6889L90.0126 73.2611C90.3371 73.2146 90.6182 73.012 90.765 72.7188L92.1057 70.0398Z" fill="#F9D142" stroke="#101C3D" stroke-linejoin="round"/>
  <circle cx="91" cy="75.2529" r="1" fill="#101C3D"/>
  <circle cx="95" cy="75.2529" r="1" fill="#101C3D"/>
  <path d="M91.5 77.7529C91.5 77.7529 93 81.2529 94.5 77.7529" stroke="#101C3D"/>
  <path d="M76.1057 70.0398C76.4744 69.3032 77.5256 69.3032 77.8943 70.0398L79.235 72.7188C79.3818 73.012 79.6629 73.2146 79.9874 73.2611L82.9712 73.6889C83.7958 73.8072 84.1228 74.8227 83.5222 75.3999L81.383 77.4554C81.1435 77.6855 81.0339 78.0195 81.0905 78.3468L81.5949 81.2651C81.7358 82.0802 80.8825 82.7042 80.1485 82.3228L77.4606 80.9262C77.1718 80.7761 76.8281 80.776 76.5392 80.9257L73.8436 82.3232C73.1088 82.7042 72.2557 82.0784 72.3983 81.2631L72.9083 78.3479C72.9656 78.02 72.8561 77.6851 72.6161 77.4545L70.4778 75.3999C69.8772 74.8227 70.2042 73.8072 71.0288 73.6889L74.0126 73.2611C74.3371 73.2146 74.6182 73.012 74.765 72.7188L76.1057 70.0398Z" fill="#F9D142" stroke="#101C3D" stroke-linejoin="round"/>
  <circle cx="75" cy="75.2529" r="1" fill="#101C3D"/>
  <circle cx="79" cy="75.2529" r="1" fill="#101C3D"/>
  <path d="M75.5 77.7529C75.5 77.7529 77 81.2529 78.5 77.7529" stroke="#101C3D"/>
  <path d="M31.6057 25.758C31.9744 25.0214 33.0256 25.0214 33.3943 25.758L34.735 28.4371C34.8818 28.7302 35.1629 28.9329 35.4874 28.9794L38.4712 29.4072C39.2958 29.5254 39.6228 30.541 39.0222 31.1181L36.883 33.1737C36.6435 33.4038 36.5339 33.7378 36.5905 34.0651L37.0949 36.9834C37.2358 37.7985 36.3825 38.4225 35.6485 38.0411L32.9606 36.6444C32.6718 36.4944 32.3281 36.4942 32.0392 36.644L29.3436 38.0415C28.6088 38.4224 27.7557 37.7967 27.8983 36.9814L28.4083 34.0661C28.4656 33.7383 28.3561 33.4034 28.1161 33.1728L25.9778 31.1181C25.3772 30.541 25.7042 29.5254 26.5288 29.4072L29.5126 28.9794C29.8371 28.9329 30.1182 28.7302 30.265 28.4371L31.6057 25.758Z" fill="#F9D142" stroke="#101C3D" stroke-linejoin="round"/>
  <circle cx="32.5" cy="30.9712" r="1" fill="#101C3D"/>
  <circle cx="36.5" cy="30.9712" r="1" fill="#101C3D"/>
  <path d="M32.5 33.4712C32.5 33.4712 34 36.9712 35.5 33.4712" stroke="#101C3D"/>
  <path d="M27.6057 48.4465C27.9744 47.7099 29.0256 47.7099 29.3943 48.4465L30.735 51.1255C30.8818 51.4187 31.1629 51.6213 31.4874 51.6679L34.4712 52.0957C35.2958 52.2139 35.6228 53.2294 35.0222 53.8066L32.883 55.8621C32.6435 56.0923 32.5339 56.4263 32.5905 56.7535L33.0949 59.6718C33.2358 60.487 32.3825 61.1109 31.6485 60.7295L28.9606 59.3329C28.6718 59.1829 28.3281 59.1827 28.0392 59.3325L25.3436 60.7299C24.6088 61.1109 23.7557 60.4852 23.8983 59.6699L24.4083 56.7546C24.4656 56.4268 24.3561 56.0919 24.1161 55.8612L21.9778 53.8066C21.3772 53.2294 21.7042 52.2139 22.5288 52.0957L25.5126 51.6679C25.8371 51.6213 26.1182 51.4187 26.265 51.1255L27.6057 48.4465Z" fill="#F9D142" stroke="#101C3D" stroke-linejoin="round"/>
  <circle cx="26.5" cy="53.6597" r="1" fill="#101C3D"/>
  <circle cx="30.5" cy="53.6597" r="1" fill="#101C3D"/>
  <path d="M27 56.1597C27 56.1597 28.5 59.6597 30 56.1597" stroke="#101C3D"/>
  <path d="M42.1057 62.2458C42.4744 61.5092 43.5256 61.5092 43.8943 62.2458L45.235 64.9249C45.3818 65.218 45.6629 65.4207 45.9874 65.4672L48.9712 65.895C49.7958 66.0132 50.1228 67.0287 49.5222 67.6059L47.383 69.6615C47.1435 69.8916 47.0339 70.2256 47.0905 70.5529L47.5949 73.4712C47.7358 74.2863 46.8825 74.9103 46.1485 74.5289L43.4606 73.1322C43.1718 72.9822 42.8281 72.982 42.5392 73.1318L39.8436 74.5293C39.1088 74.9102 38.2557 74.2845 38.3983 73.4692L38.9083 70.5539C38.9656 70.2261 38.8561 69.8912 38.6161 69.6606L36.4778 67.6059C35.8772 67.0287 36.2042 66.0132 37.0288 65.895L40.0126 65.4672C40.3371 65.4207 40.6182 65.218 40.765 64.9249L42.1057 62.2458Z" fill="#F9D142" stroke="#101C3D" stroke-linejoin="round"/>
  <circle cx="41" cy="67.459" r="1" fill="#101C3D"/>
  <circle cx="45" cy="67.459" r="1" fill="#101C3D"/>
  <path d="M41.5 69.959C41.5 69.959 43 73.459 44.5 69.959" stroke="#101C3D"/>
  <path d="M63.1057 62.2458C63.4744 61.5092 64.5256 61.5092 64.8943 62.2458L66.235 64.9249C66.3818 65.218 66.6629 65.4207 66.9874 65.4672L69.9712 65.895C70.7958 66.0132 71.1228 67.0287 70.5222 67.6059L68.383 69.6615C68.1435 69.8916 68.0339 70.2256 68.0905 70.5529L68.5949 73.4712C68.7358 74.2863 67.8825 74.9103 67.1485 74.5289L64.4606 73.1322C64.1718 72.9822 63.8281 72.982 63.5392 73.1318L60.8436 74.5293C60.1088 74.9102 59.2557 74.2845 59.3983 73.4692L59.9083 70.5539C59.9656 70.2261 59.8561 69.8912 59.6161 69.6606L57.4778 67.6059C56.8772 67.0287 57.2042 66.0132 58.0288 65.895L61.0126 65.4672C61.3371 65.4207 61.6182 65.218 61.765 64.9249L63.1057 62.2458Z" fill="#F9D142" stroke="#101C3D" stroke-linejoin="round"/>
  <circle cx="62" cy="67.459" r="1" fill="#101C3D"/>
  <circle cx="66" cy="67.459" r="1" fill="#101C3D"/>
  <path d="M62.5 69.959C62.5 69.959 64 73.459 65.5 69.959" stroke="#101C3D"/>
  <path d="M87.1057 50.2458C87.4744 49.5092 88.5256 49.5092 88.8943 50.2458L90.235 52.9249C90.3818 53.218 90.6629 53.4207 90.9874 53.4672L93.9712 53.895C94.7958 54.0132 95.1228 55.0287 94.5222 55.6059L92.383 57.6615C92.1435 57.8916 92.0339 58.2256 92.0905 58.5529L92.5949 61.4712C92.7358 62.2863 91.8825 62.9103 91.1485 62.5289L88.4606 61.1322C88.1718 60.9822 87.8281 60.982 87.5392 61.1318L84.8436 62.5293C84.1088 62.9102 83.2557 62.2845 83.3983 61.4692L83.9083 58.5539C83.9656 58.2261 83.8561 57.8912 83.6161 57.6606L81.4778 55.6059C80.8772 55.0287 81.2042 54.0132 82.0288 53.895L85.0126 53.4672C85.3371 53.4207 85.6182 53.218 85.765 52.9249L87.1057 50.2458Z" fill="#F9D142" stroke="#101C3D" stroke-linejoin="round"/>
  <circle cx="86" cy="55.459" r="1" fill="#101C3D"/>
  <circle cx="90" cy="55.459" r="1" fill="#101C3D"/>
  <path d="M86.5 57.959C86.5 57.959 88 61.459 89.5 57.959" stroke="#101C3D"/>
  <path d="M79.6057 65.4465C79.9744 64.7099 81.0256 64.7099 81.3943 65.4465L82.735 68.1255C82.8818 68.4187 83.1629 68.6213 83.4874 68.6679L86.4712 69.0957C87.2958 69.2139 87.6228 70.2294 87.0222 70.8066L84.883 72.8621C84.6435 73.0923 84.5339 73.4263 84.5905 73.7535L85.0949 76.6718C85.2358 77.487 84.3825 78.1109 83.6485 77.7295L80.9606 76.3329C80.6718 76.1829 80.3281 76.1827 80.0392 76.3325L77.3436 77.7299C76.6088 78.1109 75.7557 77.4852 75.8983 76.6699L76.4083 73.7546C76.4656 73.4268 76.3561 73.0919 76.1161 72.8612L73.9778 70.8066C73.3772 70.2294 73.7042 69.2139 74.5288 69.0957L77.5126 68.6679C77.8371 68.6213 78.1182 68.4187 78.265 68.1255L79.6057 65.4465Z" fill="#F9D142" stroke="#101C3D" stroke-linejoin="round"/>
  <circle cx="78.5" cy="70.6597" r="1" fill="#101C3D"/>
  <circle cx="82.5" cy="70.6597" r="1" fill="#101C3D"/>
  <path d="M79 73.1597C79 73.1597 80.5 76.6597 82 73.1597" stroke="#101C3D"/>
  <path d="M90.6057 24.4465C90.9744 23.7099 92.0256 23.7099 92.3943 24.4465L93.735 27.1255C93.8818 27.4187 94.1629 27.6213 94.4874 27.6679L97.4712 28.0957C98.2958 28.2139 98.6228 29.2294 98.0222 29.8066L95.883 31.8621C95.6435 32.0923 95.5339 32.4263 95.5905 32.7535L96.0949 35.6718C96.2358 36.487 95.3825 37.1109 94.6485 36.7295L91.9606 35.3329C91.6718 35.1829 91.3281 35.1827 91.0392 35.3325L88.3436 36.7299C87.6088 37.1109 86.7557 36.4852 86.8983 35.6699L87.4083 32.7546C87.4656 32.4268 87.3561 32.0919 87.1161 31.8612L84.9778 29.8066C84.3772 29.2294 84.7042 28.2139 85.5288 28.0957L88.5126 27.6679C88.8371 27.6213 89.1182 27.4187 89.265 27.1255L90.6057 24.4465Z" fill="#F9D142" stroke="#101C3D" stroke-linejoin="round"/>
  <circle cx="89.5" cy="29.6597" r="1" fill="#101C3D"/>
  <circle cx="93.5" cy="29.6597" r="1" fill="#101C3D"/>
  <path d="M90 32.1597C90 32.1597 91.5 35.6597 93 32.1597" stroke="#101C3D"/>
  <path d="M73.6057 14.4465C73.9744 13.7099 75.0256 13.7099 75.3943 14.4465L76.735 17.1255C76.8818 17.4187 77.1629 17.6213 77.4874 17.6679L80.4712 18.0957C81.2958 18.2139 81.6228 19.2294 81.0222 19.8066L78.883 21.8621C78.6435 22.0923 78.5339 22.4263 78.5905 22.7535L79.0949 25.6718C79.2358 26.487 78.3825 27.1109 77.6485 26.7295L74.9606 25.3329C74.6718 25.1829 74.3281 25.1827 74.0392 25.3325L71.3436 26.7299C70.6088 27.1109 69.7557 26.4852 69.8983 25.6699L70.4083 22.7546C70.4656 22.4268 70.3561 22.0919 70.1161 21.8612L67.9778 19.8066C67.3772 19.2294 67.7042 18.2139 68.5288 18.0957L71.5126 17.6679C71.8371 17.6213 72.1182 17.4187 72.265 17.1255L73.6057 14.4465Z" fill="#F9D142" stroke="#101C3D" stroke-linejoin="round"/>
  <circle cx="72.5" cy="19.6597" r="1" fill="#101C3D"/>
  <circle cx="76.5" cy="19.6597" r="1" fill="#101C3D"/>
  <path d="M73 22.1597C73 22.1597 74.5 25.6597 76 22.1597" stroke="#101C3D"/>
  <path d="M28.6057 67.4465C28.9744 66.7099 30.0256 66.7099 30.3943 67.4465L31.735 70.1255C31.8818 70.4187 32.1629 70.6213 32.4874 70.6679L35.4712 71.0957C36.2958 71.2139 36.6228 72.2294 36.0222 72.8066L33.883 74.8621C33.6435 75.0923 33.5339 75.4263 33.5905 75.7535L34.0949 78.6718C34.2358 79.487 33.3825 80.1109 32.6485 79.7295L29.9606 78.3329C29.6718 78.1829 29.3281 78.1827 29.0392 78.3325L26.3436 79.7299C25.6088 80.1109 24.7557 79.4852 24.8983 78.6699L25.4083 75.7546C25.4656 75.4268 25.3561 75.0919 25.1161 74.8612L22.9778 72.8066C22.3772 72.2294 22.7042 71.2139 23.5288 71.0957L26.5126 70.6679C26.8371 70.6213 27.1182 70.4187 27.265 70.1255L28.6057 67.4465Z" fill="#F9D142" stroke="#101C3D" stroke-linejoin="round"/>
  <circle cx="27.5" cy="72.6597" r="1" fill="#101C3D"/>
  <circle cx="31.5" cy="72.6597" r="1" fill="#101C3D"/>
  <path d="M28 75.1597C28 75.1597 29.5 78.6597 31 75.1597" stroke="#101C3D"/>
  <rect x="2.5" y="1.65967" width="62" height="18" rx="2" fill="#277CE2"/>
  <path d="M13.292 8.73567V15.6717H11.96C11.688 15.4237 11.372 15.1997 11.012 14.9997C10.652 14.7917 10.296 14.6237 9.944 14.4957C9.912 14.8717 9.748 15.1797 9.452 15.4197C9.164 15.6597 8.808 15.7797 8.384 15.7797C7.944 15.7797 7.584 15.6477 7.304 15.3837C7.032 15.1197 6.896 14.7837 6.896 14.3757C6.896 13.9917 7.016 13.6797 7.256 13.4397C7.504 13.1917 7.836 13.0517 8.252 13.0197V11.2077H8.192C7.808 11.2077 7.492 11.0917 7.244 10.8597C7.004 10.6197 6.884 10.3077 6.884 9.92367C6.884 9.54767 7.016 9.23967 7.28 8.99967C7.544 8.75167 7.884 8.62767 8.3 8.62767C8.74 8.62767 9.096 8.75967 9.368 9.02367C9.648 9.27967 9.788 9.61167 9.788 10.0197V13.1877C10.156 13.3157 10.52 13.4597 10.88 13.6197C11.24 13.7717 11.536 13.9197 11.768 14.0637V8.73567H13.292ZM8.18 10.4637C8.34 10.4637 8.468 10.4157 8.564 10.3197C8.668 10.2157 8.72 10.0837 8.72 9.92367C8.72 9.76367 8.668 9.63567 8.564 9.53967C8.468 9.43567 8.34 9.38367 8.18 9.38367C8.028 9.38367 7.9 9.43567 7.796 9.53967C7.7 9.63567 7.652 9.76367 7.652 9.92367C7.652 10.0837 7.7 10.2157 7.796 10.3197C7.9 10.4157 8.028 10.4637 8.18 10.4637ZM8.312 14.9397C8.472 14.9397 8.6 14.8917 8.696 14.7957C8.8 14.6917 8.852 14.5597 8.852 14.3997C8.852 14.2397 8.8 14.1117 8.696 14.0157C8.6 13.9117 8.472 13.8597 8.312 13.8597C8.152 13.8597 8.02 13.9117 7.916 14.0157C7.82 14.1117 7.772 14.2397 7.772 14.3997C7.772 14.5597 7.82 14.6917 7.916 14.7957C8.02 14.8917 8.152 14.9397 8.312 14.9397ZM13.5132 7.12767C13.5532 7.31967 13.5812 7.55567 13.5972 7.83567C13.0932 7.61967 12.3972 7.43967 11.5092 7.29567C10.6132 7.15167 9.76925 7.07967 8.97725 7.07967C8.51325 7.07967 8.08925 7.11167 7.70525 7.17567C7.71325 6.68767 7.83325 6.25967 8.06525 5.89167C8.29725 5.52367 8.62525 5.23967 9.04925 5.03967C9.47325 4.83167 9.96125 4.72767 10.5132 4.72767C11.1852 4.72767 11.7612 4.87567 12.2412 5.17167V4.21167H13.5132V7.12767ZM9.62525 6.34767C10.0892 6.34767 10.5652 6.37967 11.0532 6.44367C11.5332 6.50767 11.9572 6.59567 12.3252 6.70767C12.1652 6.34767 11.9332 6.07567 11.6292 5.89167C11.3252 5.70767 10.9692 5.61567 10.5612 5.61567C10.1932 5.61567 9.87725 5.68367 9.61325 5.81967C9.34125 5.94767 9.16125 6.12767 9.07325 6.35967C9.19325 6.35167 9.37725 6.34767 9.62525 6.34767ZM18.2634 14.3757H19.6194V9.19167L18.0594 10.1157V8.57967L20.2194 7.25967H21.3474V14.3757H22.6914V15.6597H18.2634V14.3757ZM27.0405 15.7797C26.0405 15.7797 25.2765 15.4117 24.7485 14.6757C24.2205 13.9397 23.9565 12.8677 23.9565 11.4597C23.9565 10.0517 24.2205 8.97967 24.7485 8.24367C25.2765 7.50767 26.0405 7.13967 27.0405 7.13967C28.0405 7.13967 28.8005 7.50767 29.3205 8.24367C29.8485 8.97967 30.1125 10.0517 30.1125 11.4597C30.1125 12.8677 29.8485 13.9397 29.3205 14.6757C28.8005 15.4117 28.0405 15.7797 27.0405 15.7797ZM27.0405 14.5317C27.4885 14.5317 27.8245 14.2797 28.0485 13.7757C28.2725 13.2717 28.3845 12.4997 28.3845 11.4597C28.3845 10.4117 28.2725 9.63967 28.0485 9.14367C27.8325 8.63967 27.4965 8.38767 27.0405 8.38767C26.5845 8.38767 26.2445 8.63967 26.0205 9.14367C25.7965 9.63967 25.6845 10.4117 25.6845 11.4597C25.6845 12.4997 25.7965 13.2717 26.0205 13.7757C26.2445 14.2797 26.5845 14.5317 27.0405 14.5317ZM36.4105 13.1997C36.7865 13.1997 37.0985 13.3237 37.3465 13.5717C37.5945 13.8117 37.7185 14.1157 37.7185 14.4837C37.7185 14.8677 37.5865 15.1797 37.3225 15.4197C37.0585 15.6597 36.7185 15.7797 36.3025 15.7797C35.8625 15.7797 35.5025 15.6517 35.2225 15.3957C34.9505 15.1317 34.8145 14.7917 34.8145 14.3757V7.35567C34.8145 7.11567 34.7025 6.90367 34.4785 6.71967C34.2545 6.52767 33.9745 6.37967 33.6385 6.27567C33.3025 6.16367 32.9665 6.09967 32.6305 6.08367C32.6305 5.57167 32.7305 5.13967 32.9305 4.78767C33.1225 4.42767 33.3745 4.15967 33.6865 3.98367C34.0065 3.80767 34.3465 3.71967 34.7065 3.71967C34.9465 3.71967 35.1625 3.75167 35.3545 3.81567C35.5465 3.87967 35.7505 3.96367 35.9665 4.06767C36.2065 4.19567 36.3825 4.25967 36.4945 4.25967C36.5905 4.25967 36.6745 4.21967 36.7465 4.13967C36.8185 4.05167 36.8665 3.93567 36.8905 3.79167L37.9225 3.98367C37.8745 4.37567 37.7385 4.70367 37.5145 4.96767C37.2905 5.23167 37.0025 5.36367 36.6505 5.36367C36.4665 5.36367 36.3025 5.34367 36.1585 5.30367C36.0145 5.25567 35.8425 5.19167 35.6425 5.11167C35.4825 5.04767 35.3465 4.99967 35.2345 4.96767C35.1225 4.92767 35.0065 4.90767 34.8865 4.90767C34.7025 4.90767 34.5465 4.94767 34.4185 5.02767C34.2985 5.10767 34.2185 5.21967 34.1785 5.36367C34.8985 5.53967 35.4385 5.77567 35.7985 6.07167C36.1665 6.35967 36.3505 6.71967 36.3505 7.15167V13.1997H36.4105ZM36.4105 15.0237C36.5705 15.0237 36.6985 14.9757 36.7945 14.8797C36.8985 14.7757 36.9505 14.6437 36.9505 14.4837C36.9505 14.3237 36.8985 14.1957 36.7945 14.0997C36.6985 13.9957 36.5705 13.9437 36.4105 13.9437C36.2585 13.9437 36.1305 13.9957 36.0265 14.0997C35.9225 14.1957 35.8705 14.3237 35.8705 14.4837C35.8705 14.6357 35.9225 14.7637 36.0265 14.8677C36.1305 14.9717 36.2585 15.0237 36.4105 15.0237ZM44.7406 10.8957C44.9966 11.1357 45.1246 11.4677 45.1246 11.8917V15.6597H43.5886V12.0837C43.5886 11.8357 43.5126 11.7117 43.3606 11.7117C43.2486 11.7117 43.1366 11.8117 43.0246 12.0117L41.0326 15.6597H39.6766V11.2077H39.6166C39.2246 11.2077 38.9046 11.0917 38.6566 10.8597C38.4166 10.6197 38.2966 10.3077 38.2966 9.92367C38.2966 9.54767 38.4286 9.23967 38.6926 8.99967C38.9566 8.75167 39.2966 8.62767 39.7126 8.62767C40.1526 8.62767 40.5086 8.75967 40.7806 9.02367C41.0606 9.27967 41.2006 9.61167 41.2006 10.0197V12.4797C41.2006 12.9117 41.1646 13.3157 41.0926 13.6917L42.3166 11.4357C42.4766 11.1317 42.6806 10.9157 42.9286 10.7877C42.7126 10.5477 42.6046 10.2517 42.6046 9.89967C42.6046 9.53167 42.7246 9.22767 42.9646 8.98767C43.2126 8.74767 43.5246 8.62767 43.9006 8.62767C44.2766 8.62767 44.5886 8.74767 44.8366 8.98767C45.0846 9.22767 45.2086 9.53167 45.2086 9.89967C45.2086 10.1077 45.1646 10.2957 45.0766 10.4637C44.9966 10.6317 44.8846 10.7757 44.7406 10.8957ZM39.6046 10.4637C39.7646 10.4637 39.8926 10.4157 39.9886 10.3197C40.0926 10.2157 40.1446 10.0837 40.1446 9.92367C40.1446 9.76367 40.0926 9.63567 39.9886 9.53967C39.8926 9.43567 39.7646 9.38367 39.6046 9.38367C39.4526 9.38367 39.3246 9.43567 39.2206 9.53967C39.1166 9.63567 39.0646 9.76367 39.0646 9.92367C39.0646 10.0757 39.1166 10.2037 39.2206 10.3077C39.3246 10.4117 39.4526 10.4637 39.6046 10.4637ZM43.9006 9.38367C43.7486 9.38367 43.6206 9.43567 43.5166 9.53967C43.4206 9.63567 43.3726 9.76367 43.3726 9.92367C43.3726 10.0837 43.4206 10.2157 43.5166 10.3197C43.6206 10.4157 43.7486 10.4637 43.9006 10.4637C44.0606 10.4637 44.1886 10.4157 44.2846 10.3197C44.3886 10.2157 44.4406 10.0837 44.4406 9.92367C44.4406 9.76367 44.3886 9.63567 44.2846 9.53967C44.1886 9.43567 44.0606 9.38367 43.9006 9.38367ZM48.863 8.62767C49.711 8.62767 50.367 8.81967 50.831 9.20367C51.295 9.57967 51.527 10.1077 51.527 10.7877V14.3757C51.527 14.7917 51.387 15.1317 51.107 15.3957C50.835 15.6517 50.479 15.7797 50.039 15.7797C49.623 15.7797 49.283 15.6597 49.019 15.4197C48.755 15.1717 48.623 14.8597 48.623 14.4837C48.623 14.0997 48.743 13.7917 48.983 13.5597C49.231 13.3197 49.547 13.1997 49.931 13.1997H49.991V10.8717C49.991 10.5357 49.891 10.2797 49.691 10.1037C49.499 9.91967 49.215 9.82767 48.839 9.82767C48.487 9.82767 48.199 9.93167 47.975 10.1397C47.759 10.3397 47.627 10.6197 47.579 10.9797H46.055C46.087 10.2437 46.351 9.66767 46.847 9.25167C47.351 8.83567 48.023 8.62767 48.863 8.62767ZM49.931 15.0237C50.091 15.0237 50.219 14.9717 50.315 14.8677C50.419 14.7637 50.471 14.6357 50.471 14.4837C50.471 14.3237 50.419 14.1957 50.315 14.0997C50.219 13.9957 50.091 13.9437 49.931 13.9437C49.771 13.9437 49.639 13.9957 49.535 14.0997C49.439 14.1957 49.391 14.3237 49.391 14.4837C49.391 14.6437 49.439 14.7757 49.535 14.8797C49.639 14.9757 49.771 15.0237 49.931 15.0237ZM57.2169 8.62767C57.7849 8.70767 58.2369 8.96367 58.5729 9.39567C58.9089 9.82767 59.0769 10.3637 59.0769 11.0037V15.6597H57.5409V11.0037C57.5409 10.7077 57.5049 10.4717 57.4329 10.2957C57.3689 10.1117 57.2569 9.96367 57.0969 9.85167L55.9569 10.5477L54.7089 9.79167C54.5089 9.92767 54.3609 10.1077 54.2649 10.3317C54.1769 10.5557 54.1329 10.8477 54.1329 11.2077C54.1329 11.3917 54.1529 11.5797 54.1929 11.7717C54.2329 11.9637 54.2929 12.2037 54.3729 12.4917C54.4529 12.7797 54.5129 13.0117 54.5529 13.1877C54.5929 13.3637 54.6129 13.5357 54.6129 13.7037V13.8237C54.7089 13.7117 54.8969 13.5397 55.1769 13.3077L55.4889 13.0437C55.2649 13.0117 55.0809 12.9077 54.9369 12.7317C54.8009 12.5557 54.7329 12.3397 54.7329 12.0837C54.7329 11.7637 54.8449 11.5037 55.0689 11.3037C55.2929 11.0957 55.5769 10.9917 55.9209 10.9917C56.2649 10.9917 56.5409 11.0957 56.7489 11.3037C56.9649 11.5117 57.0729 11.7837 57.0729 12.1197C57.0729 12.4157 56.9849 12.6757 56.8089 12.8997C56.6329 13.1157 56.3569 13.3837 55.9809 13.7037C55.5729 14.0477 55.2569 14.3637 55.0329 14.6517C54.8169 14.9317 54.6969 15.2677 54.6729 15.6597H53.1849V13.8837C53.1849 13.7477 53.1529 13.5517 53.0889 13.2957C53.0249 13.0397 52.9849 12.8837 52.9689 12.8277C52.8649 12.4357 52.7849 12.1237 52.7289 11.8917C52.6809 11.6517 52.6569 11.4357 52.6569 11.2437C52.6569 10.5877 52.8289 10.0237 53.1729 9.55167C53.5249 9.07967 54.0529 8.77167 54.7569 8.62767L55.9689 9.45567L57.2169 8.62767ZM55.4049 12.0837C55.4049 12.2277 55.4489 12.3437 55.5369 12.4317C55.6249 12.5197 55.7449 12.5637 55.8969 12.5637C56.0409 12.5637 56.1569 12.5197 56.2449 12.4317C56.3329 12.3437 56.3769 12.2277 56.3769 12.0837C56.3769 11.9397 56.3329 11.8237 56.2449 11.7357C56.1569 11.6397 56.0409 11.5917 55.8969 11.5917C55.7449 11.5917 55.6249 11.6397 55.5369 11.7357C55.4489 11.8237 55.4049 11.9397 55.4049 12.0837Z" fill="white"/>
  <path d="M34.3661 23.4097C33.9812 24.0763 33.0189 24.0763 32.634 23.4097L30.469 19.6597L36.5311 19.6597L34.3661 23.4097Z" fill="#277CE2"/>
  </svg>
  