<svg width="167" height="147" viewBox="0 0 167 147" fill="none" xmlns="http://www.w3.org/2000/svg">
  <rect x="2.39375" y="34.0344" width="162.843" height="110.887" rx="5.96289" stroke="#D4D4D4" stroke-width="2.38516"/>
  <mask id="path-2-inside-1_72_2346" fill="white">
  <path d="M8.35657 44.7674C8.35657 42.1328 10.4923 39.9971 13.1269 39.9971H29.9534C32.588 39.9971 34.7238 42.1328 34.7238 44.7674V134.188C34.7238 136.822 32.588 138.958 29.9534 138.958H13.1269C10.4923 138.958 8.35657 136.822 8.35657 134.188V44.7674Z"/>
  </mask>
  <path d="M7.16399 44.7674C7.16399 41.4742 9.83367 38.8045 13.1269 38.8045H29.9534C33.2467 38.8045 35.9163 41.4742 35.9163 44.7674H33.5312C33.5312 42.7915 31.9294 41.1896 29.9534 41.1896H13.1269C11.151 41.1896 9.54915 42.7915 9.54915 44.7674H7.16399ZM34.7238 138.958H8.35657H34.7238ZM13.1269 138.958C9.83367 138.958 7.16399 136.289 7.16399 132.995V44.7674C7.16399 41.4742 9.83367 38.8045 13.1269 38.8045V41.1896C11.151 41.1896 9.54915 42.7915 9.54915 44.7674V134.188C9.54915 136.822 11.151 138.958 13.1269 138.958ZM29.9534 38.8045C33.2467 38.8045 35.9163 41.4742 35.9163 44.7674V132.995C35.9163 136.289 33.2467 138.958 29.9534 138.958C31.9294 138.958 33.5312 136.822 33.5312 134.188V44.7674C33.5312 42.7915 31.9294 41.1896 29.9534 41.1896V38.8045Z" fill="#101C3D" mask="url(#path-2-inside-1_72_2346)"/>
  <path d="M20.3014 45.6924C20.7346 44.8268 21.9698 44.8268 22.403 45.6924L23.9785 48.8404C24.1509 49.1848 24.4812 49.4229 24.8625 49.4776L28.3686 49.9803C29.3376 50.1192 29.7218 51.3125 29.016 51.9907L26.5024 54.406C26.221 54.6764 26.0922 55.0689 26.1587 55.4535L26.7515 58.8826C26.917 59.8404 25.9143 60.5736 25.0518 60.1254L21.8934 58.4843C21.5541 58.308 21.1502 58.3078 20.8108 58.4838L17.6434 60.1259C16.7799 60.5735 15.7775 59.8383 15.9451 58.8803L16.5443 55.4547C16.6117 55.0695 16.483 54.676 16.201 54.405L13.6884 51.9907C12.9826 51.3125 13.3669 50.1192 14.3358 49.9803L17.8419 49.4776C18.2233 49.4229 18.5536 49.1848 18.726 48.8404L20.3014 45.6924Z" fill="#F9D142" stroke="#101C3D" stroke-width="1.17504" stroke-linejoin="round"/>
  <circle cx="21.3523" cy="51.8176" r="1.17504" fill="#101C3D"/>
  <circle cx="26.0524" cy="51.8176" r="1.17504" fill="#101C3D"/>
  <path d="M21.3522 54.7554C21.3522 54.7554 23.1147 58.868 24.8773 54.7554" stroke="#101C3D" stroke-width="1.17504"/>
  <path d="M20.3013 64.0464C20.7345 63.1809 21.9697 63.1809 22.4029 64.0464L23.9783 67.1944C24.1508 67.5388 24.4811 67.7769 24.8624 67.8316L28.3685 68.3343C29.3374 68.4732 29.7217 69.6665 29.0159 70.3447L26.5023 72.76C26.2209 73.0304 26.0921 73.4229 26.1586 73.8075L26.7513 77.2366C26.9169 78.1944 25.9142 78.9276 25.0517 78.4794L21.8933 76.8383C21.554 76.662 21.1501 76.6618 20.8107 76.8378L17.6432 78.4799C16.7798 78.9275 15.7774 78.1923 15.945 77.2343L16.5441 73.8087C16.6115 73.4235 16.4828 73.03 16.2008 72.759L13.6883 70.3447C12.9825 69.6665 13.3668 68.4732 14.3357 68.3343L17.8418 67.8316C18.2231 67.7769 18.5534 67.5388 18.7259 67.1944L20.3013 64.0464Z" fill="#F9D142" stroke="#101C3D" stroke-width="1.17504" stroke-linejoin="round"/>
  <circle cx="19.0021" cy="70.1716" r="1.17504" fill="#101C3D"/>
  <circle cx="23.7021" cy="70.1716" r="1.17504" fill="#101C3D"/>
  <path d="M19.5896 73.1094C19.5896 73.1094 21.3522 77.222 23.1147 73.1094" stroke="#101C3D" stroke-width="1.17504"/>
  <path d="M20.3013 82.4004C20.7345 81.5349 21.9697 81.5349 22.4029 82.4004L23.9783 85.5484C24.1508 85.8928 24.4811 86.1309 24.8624 86.1856L28.3685 86.6883C29.3374 86.8272 29.7217 88.0205 29.0159 88.6987L26.5023 91.114C26.2209 91.3844 26.0921 91.7769 26.1586 92.1615L26.7513 95.5906C26.9169 96.5484 25.9142 97.2816 25.0517 96.8334L21.8933 95.1923C21.554 95.016 21.1501 95.0158 20.8107 95.1918L17.6432 96.8339C16.7798 97.2816 15.7774 96.5463 15.945 95.5883L16.5441 92.1627C16.6115 91.7775 16.4828 91.384 16.2008 91.113L13.6883 88.6987C12.9825 88.0205 13.3668 86.8272 14.3357 86.6883L17.8418 86.1856C18.2231 86.1309 18.5534 85.8928 18.7259 85.5484L20.3013 82.4004Z" fill="#F9D142" stroke="#101C3D" stroke-width="1.17504" stroke-linejoin="round"/>
  <circle cx="19.0021" cy="88.5256" r="1.17504" fill="#101C3D"/>
  <circle cx="23.7021" cy="88.5256" r="1.17504" fill="#101C3D"/>
  <path d="M19.5896 91.4634C19.5896 91.4634 21.3522 95.576 23.1147 91.4634" stroke="#101C3D" stroke-width="1.17504"/>
  <path d="M20.3013 100.754C20.7345 99.8889 21.9697 99.8889 22.4029 100.754L23.9783 103.902C24.1508 104.247 24.4811 104.485 24.8624 104.54L28.3685 105.042C29.3374 105.181 29.7217 106.375 29.0159 107.053L26.5023 109.468C26.2209 109.738 26.0921 110.131 26.1586 110.515L26.7513 113.945C26.9169 114.902 25.9142 115.636 25.0517 115.187L21.8933 113.546C21.554 113.37 21.1501 113.37 20.8107 113.546L17.6432 115.188C16.7798 115.636 15.7774 114.9 15.945 113.942L16.5441 110.517C16.6115 110.132 16.4828 109.738 16.2008 109.467L13.6883 107.053C12.9825 106.375 13.3668 105.181 14.3357 105.042L17.8418 104.54C18.2231 104.485 18.5534 104.247 18.7259 103.902L20.3013 100.754Z" fill="#F9D142" stroke="#101C3D" stroke-width="1.17504" stroke-linejoin="round"/>
  <circle cx="19.0021" cy="106.88" r="1.17504" fill="#101C3D"/>
  <circle cx="23.7021" cy="106.88" r="1.17504" fill="#101C3D"/>
  <path d="M19.5896 109.817C19.5896 109.817 21.3522 113.93 23.1147 109.817" stroke="#101C3D" stroke-width="1.17504"/>
  <path d="M20.3013 119.109C20.7345 118.243 21.9697 118.243 22.4029 119.109L23.9783 122.257C24.1508 122.601 24.4811 122.839 24.8624 122.894L28.3685 123.397C29.3374 123.536 29.7217 124.729 29.0159 125.407L26.5023 127.823C26.2209 128.093 26.0921 128.485 26.1586 128.87L26.7513 132.299C26.9169 133.257 25.9142 133.99 25.0517 133.542L21.8933 131.901C21.554 131.725 21.1501 131.724 20.8107 131.9L17.6432 133.542C16.7798 133.99 15.7774 133.255 15.945 132.297L16.5441 128.871C16.6115 128.486 16.4828 128.092 16.2008 127.822L13.6883 125.407C12.9825 124.729 13.3668 123.536 14.3357 123.397L17.8418 122.894C18.2231 122.839 18.5534 122.601 18.7259 122.257L20.3013 119.109Z" fill="#F9D142" stroke="#101C3D" stroke-width="1.17504" stroke-linejoin="round"/>
  <circle cx="19.0021" cy="125.234" r="1.17504" fill="#101C3D"/>
  <circle cx="23.7021" cy="125.234" r="1.17504" fill="#101C3D"/>
  <path d="M19.5896 128.172C19.5896 128.172 21.3522 132.285 23.1147 128.172" stroke="#101C3D" stroke-width="1.17504"/>
  <mask id="path-24-inside-2_72_2346" fill="white">
  <path d="M39.4941 44.7674C39.4941 42.1328 41.6299 39.9971 44.2645 39.9971H61.091C63.7256 39.9971 65.8613 42.1328 65.8613 44.7674V134.188C65.8613 136.822 63.7256 138.958 61.091 138.958H44.2645C41.6299 138.958 39.4941 136.822 39.4941 134.188V44.7674Z"/>
  </mask>
  <path d="M38.3016 44.7674C38.3016 41.4742 40.9712 38.8045 44.2645 38.8045H61.091C64.3842 38.8045 67.0539 41.4742 67.0539 44.7674H64.6688C64.6688 42.7915 63.0669 41.1896 61.091 41.1896H44.2645C42.2885 41.1896 40.6867 42.7915 40.6867 44.7674H38.3016ZM65.8613 138.958H39.4941H65.8613ZM44.2645 138.958C40.9712 138.958 38.3016 136.289 38.3016 132.995V44.7674C38.3016 41.4742 40.9712 38.8045 44.2645 38.8045V41.1896C42.2885 41.1896 40.6867 42.7915 40.6867 44.7674V134.188C40.6867 136.822 42.2885 138.958 44.2645 138.958ZM61.091 38.8045C64.3842 38.8045 67.0539 41.4742 67.0539 44.7674V132.995C67.0539 136.289 64.3842 138.958 61.091 138.958C63.0669 138.958 64.6688 136.822 64.6688 134.188V44.7674C64.6688 42.7915 63.0669 41.1896 61.091 41.1896V38.8045Z" fill="#101C3D" mask="url(#path-24-inside-2_72_2346)"/>
  <path d="M51.439 45.6924C51.8722 44.8268 53.1074 44.8268 53.5406 45.6924L55.116 48.8404C55.2884 49.1848 55.6188 49.4229 56.0001 49.4776L59.5062 49.9803C60.4751 50.1192 60.8594 51.3125 60.1536 51.9907L57.64 54.406C57.3586 54.6764 57.2298 55.0689 57.2963 55.4535L57.889 58.8826C58.0546 59.8404 57.0519 60.5736 56.1894 60.1254L53.031 58.4843C52.6917 58.308 52.2878 58.3078 51.9484 58.4838L48.7809 60.1259C47.9175 60.5735 46.9151 59.8383 47.0827 58.8803L47.6818 55.4547C47.7492 55.0695 47.6205 54.676 47.3385 54.405L44.826 51.9907C44.1202 51.3125 44.5045 50.1192 45.4734 49.9803L48.9795 49.4776C49.3608 49.4229 49.6911 49.1848 49.8635 48.8404L51.439 45.6924Z" fill="#F9D142" stroke="#101C3D" stroke-width="1.17504" stroke-linejoin="round"/>
  <circle cx="50.1398" cy="51.8176" r="1.17504" fill="#101C3D"/>
  <circle cx="54.8398" cy="51.8176" r="1.17504" fill="#101C3D"/>
  <path d="M50.7273 54.7554C50.7273 54.7554 52.4899 58.868 54.2524 54.7554" stroke="#101C3D" stroke-width="1.17504"/>
  <path d="M51.4389 64.0464C51.8721 63.1809 53.1073 63.1809 53.5405 64.0464L55.1159 67.1944C55.2883 67.5388 55.6186 67.7769 56 67.8316L59.5061 68.3343C60.475 68.4732 60.8593 69.6665 60.1535 70.3447L57.6399 72.76C57.3585 73.0304 57.2297 73.4229 57.2961 73.8075L57.8889 77.2366C58.0545 78.1944 57.0518 78.9276 56.1893 78.4794L53.0308 76.8383C52.6916 76.662 52.2877 76.6618 51.9482 76.8378L48.7808 78.4799C47.9174 78.9275 46.915 78.1923 47.0825 77.2343L47.6817 73.8087C47.7491 73.4235 47.6204 73.03 47.3384 72.759L44.8259 70.3447C44.1201 69.6665 44.5043 68.4732 45.4733 68.3343L48.9794 67.8316C49.3607 67.7769 49.691 67.5388 49.8634 67.1944L51.4389 64.0464Z" fill="#F9D142" stroke="#101C3D" stroke-width="1.17504" stroke-linejoin="round"/>
  <circle cx="50.1396" cy="70.1716" r="1.17504" fill="#101C3D"/>
  <circle cx="54.8397" cy="70.1716" r="1.17504" fill="#101C3D"/>
  <path d="M50.7272 73.1094C50.7272 73.1094 52.4897 77.222 54.2523 73.1094" stroke="#101C3D" stroke-width="1.17504"/>
  <path d="M51.4389 82.4004C51.8721 81.5349 53.1073 81.5349 53.5405 82.4004L55.1159 85.5484C55.2883 85.8928 55.6186 86.1309 56 86.1856L59.5061 86.6883C60.475 86.8272 60.8593 88.0205 60.1535 88.6987L57.6399 91.114C57.3585 91.3844 57.2297 91.7769 57.2961 92.1615L57.8889 95.5906C58.0545 96.5484 57.0518 97.2816 56.1893 96.8334L53.0308 95.1923C52.6916 95.016 52.2877 95.0158 51.9482 95.1918L48.7808 96.8339C47.9174 97.2816 46.915 96.5463 47.0825 95.5883L47.6817 92.1627C47.7491 91.7775 47.6204 91.384 47.3384 91.113L44.8259 88.6987C44.1201 88.0205 44.5043 86.8272 45.4733 86.6883L48.9794 86.1856C49.3607 86.1309 49.691 85.8928 49.8634 85.5484L51.4389 82.4004Z" fill="#F9D142" stroke="#101C3D" stroke-width="1.17504" stroke-linejoin="round"/>
  <circle cx="50.1396" cy="88.5256" r="1.17504" fill="#101C3D"/>
  <circle cx="54.8397" cy="88.5256" r="1.17504" fill="#101C3D"/>
  <path d="M50.7272 91.4634C50.7272 91.4634 52.4897 95.576 54.2523 91.4634" stroke="#101C3D" stroke-width="1.17504"/>
  <path d="M51.4389 100.754C51.8721 99.8889 53.1073 99.8889 53.5405 100.754L55.1159 103.902C55.2883 104.247 55.6186 104.485 56 104.54L59.5061 105.042C60.475 105.181 60.8593 106.375 60.1535 107.053L57.6399 109.468C57.3585 109.738 57.2297 110.131 57.2961 110.515L57.8889 113.945C58.0545 114.902 57.0518 115.636 56.1893 115.187L53.0308 113.546C52.6916 113.37 52.2877 113.37 51.9482 113.546L48.7808 115.188C47.9174 115.636 46.915 114.9 47.0825 113.942L47.6817 110.517C47.7491 110.132 47.6204 109.738 47.3384 109.467L44.8259 107.053C44.1201 106.375 44.5043 105.181 45.4733 105.042L48.9794 104.54C49.3607 104.485 49.691 104.247 49.8634 103.902L51.4389 100.754Z" fill="#F9D142" stroke="#101C3D" stroke-width="1.17504" stroke-linejoin="round"/>
  <circle cx="50.1396" cy="106.88" r="1.17504" fill="#101C3D"/>
  <circle cx="54.8397" cy="106.88" r="1.17504" fill="#101C3D"/>
  <path d="M50.7272 109.817C50.7272 109.817 52.4897 113.93 54.2523 109.817" stroke="#101C3D" stroke-width="1.17504"/>
  <path d="M51.4389 119.109C51.8721 118.243 53.1073 118.243 53.5405 119.109L55.1159 122.257C55.2883 122.601 55.6186 122.839 56 122.894L59.5061 123.397C60.475 123.536 60.8593 124.729 60.1535 125.407L57.6399 127.823C57.3585 128.093 57.2297 128.485 57.2961 128.87L57.8889 132.299C58.0545 133.257 57.0518 133.99 56.1893 133.542L53.0308 131.901C52.6916 131.725 52.2877 131.724 51.9482 131.9L48.7808 133.542C47.9174 133.99 46.915 133.255 47.0825 132.297L47.6817 128.871C47.7491 128.486 47.6204 128.092 47.3384 127.822L44.8259 125.407C44.1201 124.729 44.5043 123.536 45.4733 123.397L48.9794 122.894C49.3607 122.839 49.691 122.601 49.8634 122.257L51.4389 119.109Z" fill="#F9D142" stroke="#101C3D" stroke-width="1.17504" stroke-linejoin="round"/>
  <circle cx="50.1396" cy="125.234" r="1.17504" fill="#101C3D"/>
  <circle cx="54.8397" cy="125.234" r="1.17504" fill="#101C3D"/>
  <path d="M50.7272 128.172C50.7272 128.172 52.4897 132.285 54.2523 128.172" stroke="#101C3D" stroke-width="1.17504"/>
  <mask id="path-46-inside-3_72_2346" fill="white">
  <path d="M70.6316 44.7674C70.6316 42.1328 72.7673 39.9971 75.4019 39.9971H92.2285C94.863 39.9971 96.9988 42.1328 96.9988 44.7674V134.188C96.9988 136.822 94.863 138.958 92.2285 138.958H75.4019C72.7673 138.958 70.6316 136.822 70.6316 134.188V44.7674Z"/>
  </mask>
  <path d="M69.439 44.7674C69.439 41.4742 72.1087 38.8045 75.4019 38.8045H92.2285C95.5217 38.8045 98.1914 41.4742 98.1914 44.7674H95.8062C95.8062 42.7915 94.2044 41.1896 92.2285 41.1896H75.4019C73.426 41.1896 71.8242 42.7915 71.8242 44.7674H69.439ZM96.9988 138.958H70.6316H96.9988ZM75.4019 138.958C72.1087 138.958 69.439 136.289 69.439 132.995V44.7674C69.439 41.4742 72.1087 38.8045 75.4019 38.8045V41.1896C73.426 41.1896 71.8242 42.7915 71.8242 44.7674V134.188C71.8242 136.822 73.426 138.958 75.4019 138.958ZM92.2285 38.8045C95.5217 38.8045 98.1914 41.4742 98.1914 44.7674V132.995C98.1914 136.289 95.5217 138.958 92.2285 138.958C94.2044 138.958 95.8062 136.822 95.8062 134.188V44.7674C95.8062 42.7915 94.2044 41.1896 92.2285 41.1896V38.8045Z" fill="#101C3D" mask="url(#path-46-inside-3_72_2346)"/>
  <path d="M82.5763 45.6924C83.0095 44.8268 84.2447 44.8268 84.6779 45.6924L86.2534 48.8404C86.4258 49.1848 86.7561 49.4229 87.1374 49.4776L90.6435 49.9803C91.6125 50.1192 91.9967 51.3125 91.2909 51.9907L88.7773 54.406C88.4959 54.6764 88.3671 55.0689 88.4336 55.4535L89.0264 58.8826C89.1919 59.8404 88.1892 60.5736 87.3267 60.1254L84.1683 58.4843C83.829 58.308 83.4251 58.3078 83.0857 58.4838L79.9183 60.1259C79.0548 60.5735 78.0524 59.8383 78.22 58.8803L78.8192 55.4547C78.8866 55.0695 78.7579 54.676 78.4759 54.405L75.9633 51.9907C75.2575 51.3125 75.6418 50.1192 76.6107 49.9803L80.1168 49.4776C80.4982 49.4229 80.8285 49.1848 81.0009 48.8404L82.5763 45.6924Z" fill="#F9D142" stroke="#101C3D" stroke-width="1.17504" stroke-linejoin="round"/>
  <circle cx="81.277" cy="51.8176" r="1.17504" fill="#101C3D"/>
  <circle cx="85.9772" cy="51.8176" r="1.17504" fill="#101C3D"/>
  <path d="M81.8646 54.7554C81.8646 54.7554 83.6271 58.868 85.3897 54.7554" stroke="#101C3D" stroke-width="1.17504"/>
  <path d="M82.5763 64.0464C83.0095 63.1809 84.2447 63.1809 84.6779 64.0464L86.2534 67.1944C86.4258 67.5388 86.7561 67.7769 87.1374 67.8316L90.6435 68.3343C91.6125 68.4732 91.9967 69.6665 91.2909 70.3447L88.7773 72.76C88.4959 73.0304 88.3671 73.4229 88.4336 73.8075L89.0264 77.2366C89.1919 78.1944 88.1892 78.9276 87.3267 78.4794L84.1683 76.8383C83.829 76.662 83.4251 76.6618 83.0857 76.8378L79.9183 78.4799C79.0548 78.9275 78.0524 78.1923 78.22 77.2343L78.8192 73.8087C78.8866 73.4235 78.7579 73.03 78.4759 72.759L75.9633 70.3447C75.2575 69.6665 75.6418 68.4732 76.6107 68.3343L80.1168 67.8316C80.4982 67.7769 80.8285 67.5388 81.0009 67.1944L82.5763 64.0464Z" fill="#F9D142" stroke="#101C3D" stroke-width="1.17504" stroke-linejoin="round"/>
  <circle cx="81.277" cy="70.1716" r="1.17504" fill="#101C3D"/>
  <circle cx="85.9772" cy="70.1716" r="1.17504" fill="#101C3D"/>
  <path d="M81.8646 73.1094C81.8646 73.1094 83.6271 77.222 85.3897 73.1094" stroke="#101C3D" stroke-width="1.17504"/>
  <path d="M82.5763 82.4004C83.0095 81.5349 84.2447 81.5349 84.6779 82.4004L86.2534 85.5484C86.4258 85.8928 86.7561 86.1309 87.1374 86.1856L90.6435 86.6883C91.6125 86.8272 91.9967 88.0205 91.2909 88.6987L88.7773 91.114C88.4959 91.3844 88.3671 91.7769 88.4336 92.1615L89.0264 95.5906C89.1919 96.5484 88.1892 97.2816 87.3267 96.8334L84.1683 95.1923C83.829 95.016 83.4251 95.0158 83.0857 95.1918L79.9183 96.8339C79.0548 97.2816 78.0524 96.5463 78.22 95.5883L78.8192 92.1627C78.8866 91.7775 78.7579 91.384 78.4759 91.113L75.9633 88.6987C75.2575 88.0205 75.6418 86.8272 76.6107 86.6883L80.1168 86.1856C80.4982 86.1309 80.8285 85.8928 81.0009 85.5484L82.5763 82.4004Z" fill="#F9D142" stroke="#101C3D" stroke-width="1.17504" stroke-linejoin="round"/>
  <circle cx="81.277" cy="88.5256" r="1.17504" fill="#101C3D"/>
  <circle cx="85.9772" cy="88.5256" r="1.17504" fill="#101C3D"/>
  <path d="M81.8646 91.4634C81.8646 91.4634 83.6271 95.576 85.3897 91.4634" stroke="#101C3D" stroke-width="1.17504"/>
  <path d="M82.5763 100.754C83.0095 99.8889 84.2447 99.8889 84.6779 100.754L86.2534 103.902C86.4258 104.247 86.7561 104.485 87.1374 104.54L90.6435 105.042C91.6125 105.181 91.9967 106.375 91.2909 107.053L88.7773 109.468C88.4959 109.738 88.3671 110.131 88.4336 110.515L89.0264 113.945C89.1919 114.902 88.1892 115.636 87.3267 115.187L84.1683 113.546C83.829 113.37 83.4251 113.37 83.0857 113.546L79.9183 115.188C79.0548 115.636 78.0524 114.9 78.22 113.942L78.8192 110.517C78.8866 110.132 78.7579 109.738 78.4759 109.467L75.9633 107.053C75.2575 106.375 75.6418 105.181 76.6107 105.042L80.1168 104.54C80.4982 104.485 80.8285 104.247 81.0009 103.902L82.5763 100.754Z" fill="#F9D142" stroke="#101C3D" stroke-width="1.17504" stroke-linejoin="round"/>
  <circle cx="81.277" cy="106.88" r="1.17504" fill="#101C3D"/>
  <circle cx="85.9772" cy="106.88" r="1.17504" fill="#101C3D"/>
  <path d="M81.8646 109.817C81.8646 109.817 83.6271 113.93 85.3897 109.817" stroke="#101C3D" stroke-width="1.17504"/>
  <path d="M82.5763 119.109C83.0095 118.243 84.2447 118.243 84.6779 119.109L86.2534 122.257C86.4258 122.601 86.7561 122.839 87.1374 122.894L90.6435 123.397C91.6125 123.536 91.9967 124.729 91.2909 125.407L88.7773 127.823C88.4959 128.093 88.3671 128.485 88.4336 128.87L89.0264 132.299C89.1919 133.257 88.1892 133.99 87.3267 133.542L84.1683 131.901C83.829 131.725 83.4251 131.724 83.0857 131.9L79.9183 133.542C79.0548 133.99 78.0524 133.255 78.22 132.297L78.8192 128.871C78.8866 128.486 78.7579 128.092 78.4759 127.822L75.9633 125.407C75.2575 124.729 75.6418 123.536 76.6107 123.397L80.1168 122.894C80.4982 122.839 80.8285 122.601 81.0009 122.257L82.5763 119.109Z" fill="#F9D142" stroke="#101C3D" stroke-width="1.17504" stroke-linejoin="round"/>
  <circle cx="81.277" cy="125.234" r="1.17504" fill="#101C3D"/>
  <circle cx="85.9772" cy="125.234" r="1.17504" fill="#101C3D"/>
  <path d="M81.8646 128.172C81.8646 128.172 83.6271 132.285 85.3897 128.172" stroke="#101C3D" stroke-width="1.17504"/>
  <mask id="path-68-inside-4_72_2346" fill="white">
  <path d="M101.769 44.7674C101.769 42.1328 103.905 39.9971 106.539 39.9971H123.366C126.001 39.9971 128.136 42.1328 128.136 44.7674V134.188C128.136 136.822 126.001 138.958 123.366 138.958H106.539C103.905 138.958 101.769 136.822 101.769 134.188V44.7674Z"/>
  </mask>
  <path d="M100.577 44.7674C100.577 41.4742 103.246 38.8045 106.539 38.8045H123.366C126.659 38.8045 129.329 41.4742 129.329 44.7674H126.944C126.944 42.7915 125.342 41.1896 123.366 41.1896H106.539C104.564 41.1896 102.962 42.7915 102.962 44.7674H100.577ZM128.136 138.958H101.769H128.136ZM106.539 138.958C103.246 138.958 100.577 136.289 100.577 132.995V44.7674C100.577 41.4742 103.246 38.8045 106.539 38.8045V41.1896C104.564 41.1896 102.962 42.7915 102.962 44.7674V134.188C102.962 136.822 104.564 138.958 106.539 138.958ZM123.366 38.8045C126.659 38.8045 129.329 41.4742 129.329 44.7674V132.995C129.329 136.289 126.659 138.958 123.366 138.958C125.342 138.958 126.944 136.822 126.944 134.188V44.7674C126.944 42.7915 125.342 41.1896 123.366 41.1896V38.8045Z" fill="#101C3D" mask="url(#path-68-inside-4_72_2346)"/>
  <path d="M113.714 45.6924C114.147 44.8268 115.382 44.8268 115.816 45.6924L117.391 48.8404C117.563 49.1848 117.894 49.4229 118.275 49.4776L121.781 49.9803C122.75 50.1192 123.134 51.3125 122.429 51.9907L119.915 54.406C119.634 54.6764 119.505 55.0689 119.571 55.4535L120.164 58.8826C120.33 59.8404 119.327 60.5736 118.464 60.1254L115.306 58.4843C114.967 58.308 114.563 58.3078 114.223 58.4838L111.056 60.1259C110.192 60.5735 109.19 59.8383 109.358 58.8803L109.957 55.4547C110.024 55.0695 109.895 54.676 109.613 54.405L107.101 51.9907C106.395 51.3125 106.779 50.1192 107.748 49.9803L111.254 49.4776C111.636 49.4229 111.966 49.1848 112.139 48.8404L113.714 45.6924Z" fill="#F9D142" stroke="#101C3D" stroke-width="1.17504" stroke-linejoin="round"/>
  <circle cx="112.415" cy="51.8176" r="1.17504" fill="#101C3D"/>
  <circle cx="117.115" cy="51.8176" r="1.17504" fill="#101C3D"/>
  <path d="M113.002 54.7554C113.002 54.7554 114.765 58.868 116.527 54.7554" stroke="#101C3D" stroke-width="1.17504"/>
  <path d="M113.714 64.0464C114.147 63.1809 115.382 63.1809 115.816 64.0464L117.391 67.1944C117.563 67.5388 117.894 67.7769 118.275 67.8316L121.781 68.3343C122.75 68.4732 123.134 69.6665 122.429 70.3447L119.915 72.76C119.634 73.0304 119.505 73.4229 119.571 73.8075L120.164 77.2366C120.33 78.1944 119.327 78.9276 118.464 78.4794L115.306 76.8383C114.967 76.662 114.563 76.6618 114.223 76.8378L111.056 78.4799C110.192 78.9275 109.19 78.1923 109.358 77.2343L109.957 73.8087C110.024 73.4235 109.895 73.03 109.613 72.759L107.101 70.3447C106.395 69.6665 106.779 68.4732 107.748 68.3343L111.254 67.8316C111.636 67.7769 111.966 67.5388 112.139 67.1944L113.714 64.0464Z" fill="#F9D142" stroke="#101C3D" stroke-width="1.17504" stroke-linejoin="round"/>
  <circle cx="112.415" cy="70.1716" r="1.17504" fill="#101C3D"/>
  <circle cx="117.115" cy="70.1716" r="1.17504" fill="#101C3D"/>
  <path d="M113.002 73.1094C113.002 73.1094 114.765 77.222 116.527 73.1094" stroke="#101C3D" stroke-width="1.17504"/>
  <path d="M113.714 82.4004C114.147 81.5349 115.382 81.5349 115.816 82.4004L117.391 85.5484C117.563 85.8928 117.894 86.1309 118.275 86.1856L121.781 86.6883C122.75 86.8272 123.134 88.0205 122.429 88.6987L119.915 91.114C119.634 91.3844 119.505 91.7769 119.571 92.1615L120.164 95.5906C120.33 96.5484 119.327 97.2816 118.464 96.8334L115.306 95.1923C114.967 95.016 114.563 95.0158 114.223 95.1918L111.056 96.8339C110.192 97.2816 109.19 96.5463 109.358 95.5883L109.957 92.1627C110.024 91.7775 109.895 91.384 109.613 91.113L107.101 88.6987C106.395 88.0205 106.779 86.8272 107.748 86.6883L111.254 86.1856C111.636 86.1309 111.966 85.8928 112.139 85.5484L113.714 82.4004Z" fill="#F9D142" stroke="#101C3D" stroke-width="1.17504" stroke-linejoin="round"/>
  <circle cx="112.415" cy="88.5256" r="1.17504" fill="#101C3D"/>
  <circle cx="117.115" cy="88.5256" r="1.17504" fill="#101C3D"/>
  <path d="M113.002 91.4634C113.002 91.4634 114.765 95.576 116.527 91.4634" stroke="#101C3D" stroke-width="1.17504"/>
  <path d="M113.714 100.754C114.147 99.8889 115.382 99.8889 115.816 100.754L117.391 103.902C117.563 104.247 117.894 104.485 118.275 104.54L121.781 105.042C122.75 105.181 123.134 106.375 122.429 107.053L119.915 109.468C119.634 109.738 119.505 110.131 119.571 110.515L120.164 113.945C120.33 114.902 119.327 115.636 118.464 115.187L115.306 113.546C114.967 113.37 114.563 113.37 114.223 113.546L111.056 115.188C110.192 115.636 109.19 114.9 109.358 113.942L109.957 110.517C110.024 110.132 109.895 109.738 109.613 109.467L107.101 107.053C106.395 106.375 106.779 105.181 107.748 105.042L111.254 104.54C111.636 104.485 111.966 104.247 112.139 103.902L113.714 100.754Z" fill="#F9D142" stroke="#101C3D" stroke-width="1.17504" stroke-linejoin="round"/>
  <circle cx="112.415" cy="106.88" r="1.17504" fill="#101C3D"/>
  <circle cx="117.115" cy="106.88" r="1.17504" fill="#101C3D"/>
  <path d="M113.002 109.817C113.002 109.817 114.765 113.93 116.527 109.817" stroke="#101C3D" stroke-width="1.17504"/>
  <path d="M113.714 119.109C114.147 118.243 115.382 118.243 115.816 119.109L117.391 122.257C117.563 122.601 117.894 122.839 118.275 122.894L121.781 123.397C122.75 123.536 123.134 124.729 122.429 125.407L119.915 127.823C119.634 128.093 119.505 128.485 119.571 128.87L120.164 132.299C120.33 133.257 119.327 133.99 118.464 133.542L115.306 131.901C114.967 131.725 114.563 131.724 114.223 131.9L111.056 133.542C110.192 133.99 109.19 133.255 109.358 132.297L109.957 128.871C110.024 128.486 109.895 128.092 109.613 127.822L107.101 125.407C106.395 124.729 106.779 123.536 107.748 123.397L111.254 122.894C111.636 122.839 111.966 122.601 112.139 122.257L113.714 119.109Z" fill="#F9D142" stroke="#101C3D" stroke-width="1.17504" stroke-linejoin="round"/>
  <circle cx="112.415" cy="125.234" r="1.17504" fill="#101C3D"/>
  <circle cx="117.115" cy="125.234" r="1.17504" fill="#101C3D"/>
  <path d="M113.002 128.172C113.002 128.172 114.765 132.285 116.527 128.172" stroke="#101C3D" stroke-width="1.17504"/>
  <mask id="path-90-inside-5_72_2346" fill="white">
  <path d="M132.907 44.7674C132.907 42.1328 135.042 39.9971 137.677 39.9971H154.503C157.138 39.9971 159.274 42.1328 159.274 44.7674V134.188C159.274 136.822 157.138 138.958 154.503 138.958H137.677C135.042 138.958 132.907 136.822 132.907 134.188V44.7674Z"/>
  </mask>
  <path d="M131.714 44.7674C131.714 41.4742 134.384 38.8045 137.677 38.8045H154.503C157.797 38.8045 160.466 41.4742 160.466 44.7674H158.081C158.081 42.7915 156.479 41.1896 154.503 41.1896H137.677C135.701 41.1896 134.099 42.7915 134.099 44.7674H131.714ZM159.274 138.958H132.907H159.274ZM137.677 138.958C134.384 138.958 131.714 136.289 131.714 132.995V44.7674C131.714 41.4742 134.384 38.8045 137.677 38.8045V41.1896C135.701 41.1896 134.099 42.7915 134.099 44.7674V134.188C134.099 136.822 135.701 138.958 137.677 138.958ZM154.503 38.8045C157.797 38.8045 160.466 41.4742 160.466 44.7674V132.995C160.466 136.289 157.797 138.958 154.503 138.958C156.479 138.958 158.081 136.822 158.081 134.188V44.7674C158.081 42.7915 156.479 41.1896 154.503 41.1896V38.8045Z" fill="#101C3D" mask="url(#path-90-inside-5_72_2346)"/>
  <path d="M144.851 45.6924C145.285 44.8268 146.52 44.8268 146.953 45.6924L148.528 48.8404C148.701 49.1848 149.031 49.4229 149.412 49.4776L152.919 49.9803C153.888 50.1192 154.272 51.3125 153.566 51.9907L151.052 54.406C150.771 54.6764 150.642 55.0689 150.709 55.4535L151.301 58.8826C151.467 59.8404 150.464 60.5736 149.602 60.1254L146.443 58.4843C146.104 58.308 145.7 58.3078 145.361 58.4838L142.193 60.1259C141.33 60.5735 140.327 59.8383 140.495 58.8803L141.094 55.4547C141.162 55.0695 141.033 54.676 140.751 54.405L138.238 51.9907C137.533 51.3125 137.917 50.1192 138.886 49.9803L142.392 49.4776C142.773 49.4229 143.104 49.1848 143.276 48.8404L144.851 45.6924Z" fill="#F9D142" stroke="#101C3D" stroke-width="1.17504" stroke-linejoin="round"/>
  <circle cx="143.552" cy="51.8176" r="1.17504" fill="#101C3D"/>
  <circle cx="148.252" cy="51.8176" r="1.17504" fill="#101C3D"/>
  <path d="M144.14 54.7554C144.14 54.7554 145.902 58.868 147.665 54.7554" stroke="#101C3D" stroke-width="1.17504"/>
  <path d="M144.851 64.0464C145.285 63.1809 146.52 63.1809 146.953 64.0464L148.528 67.1944C148.701 67.5388 149.031 67.7769 149.412 67.8316L152.919 68.3343C153.888 68.4732 154.272 69.6665 153.566 70.3447L151.052 72.76C150.771 73.0304 150.642 73.4229 150.709 73.8075L151.301 77.2366C151.467 78.1944 150.464 78.9276 149.602 78.4794L146.443 76.8383C146.104 76.662 145.7 76.6618 145.361 76.8378L142.193 78.4799C141.33 78.9275 140.327 78.1923 140.495 77.2343L141.094 73.8087C141.162 73.4235 141.033 73.03 140.751 72.759L138.238 70.3447C137.533 69.6665 137.917 68.4732 138.886 68.3343L142.392 67.8316C142.773 67.7769 143.104 67.5388 143.276 67.1944L144.851 64.0464Z" fill="#F9D142" stroke="#101C3D" stroke-width="1.17504" stroke-linejoin="round"/>
  <circle cx="143.552" cy="70.1716" r="1.17504" fill="#101C3D"/>
  <circle cx="148.252" cy="70.1716" r="1.17504" fill="#101C3D"/>
  <path d="M144.14 73.1094C144.14 73.1094 145.902 77.222 147.665 73.1094" stroke="#101C3D" stroke-width="1.17504"/>
  <path d="M144.851 82.4004C145.285 81.5349 146.52 81.5349 146.953 82.4004L148.528 85.5484C148.701 85.8928 149.031 86.1309 149.412 86.1856L152.919 86.6883C153.888 86.8272 154.272 88.0205 153.566 88.6987L151.052 91.114C150.771 91.3844 150.642 91.7769 150.709 92.1615L151.301 95.5906C151.467 96.5484 150.464 97.2816 149.602 96.8334L146.443 95.1923C146.104 95.016 145.7 95.0158 145.361 95.1918L142.193 96.8339C141.33 97.2816 140.327 96.5463 140.495 95.5883L141.094 92.1627C141.162 91.7775 141.033 91.384 140.751 91.113L138.238 88.6987C137.533 88.0205 137.917 86.8272 138.886 86.6883L142.392 86.1856C142.773 86.1309 143.104 85.8928 143.276 85.5484L144.851 82.4004Z" fill="#F9D142" stroke="#101C3D" stroke-width="1.17504" stroke-linejoin="round"/>
  <circle cx="143.552" cy="88.5256" r="1.17504" fill="#101C3D"/>
  <circle cx="148.252" cy="88.5256" r="1.17504" fill="#101C3D"/>
  <path d="M144.14 91.4634C144.14 91.4634 145.902 95.576 147.665 91.4634" stroke="#101C3D" stroke-width="1.17504"/>
  <path d="M144.851 100.754C145.285 99.8889 146.52 99.8889 146.953 100.754L148.528 103.902C148.701 104.247 149.031 104.485 149.412 104.54L152.919 105.042C153.888 105.181 154.272 106.375 153.566 107.053L151.052 109.468C150.771 109.738 150.642 110.131 150.709 110.515L151.301 113.945C151.467 114.902 150.464 115.636 149.602 115.187L146.443 113.546C146.104 113.37 145.7 113.37 145.361 113.546L142.193 115.188C141.33 115.636 140.327 114.9 140.495 113.942L141.094 110.517C141.162 110.132 141.033 109.738 140.751 109.467L138.238 107.053C137.533 106.375 137.917 105.181 138.886 105.042L142.392 104.54C142.773 104.485 143.104 104.247 143.276 103.902L144.851 100.754Z" fill="#F9D142" stroke="#101C3D" stroke-width="1.17504" stroke-linejoin="round"/>
  <circle cx="143.552" cy="106.88" r="1.17504" fill="#101C3D"/>
  <circle cx="148.252" cy="106.88" r="1.17504" fill="#101C3D"/>
  <path d="M144.14 109.817C144.14 109.817 145.902 113.93 147.665 109.817" stroke="#101C3D" stroke-width="1.17504"/>
  <path d="M144.851 119.109C145.285 118.243 146.52 118.243 146.953 119.109L148.528 122.257C148.701 122.601 149.031 122.839 149.412 122.894L152.919 123.397C153.888 123.536 154.272 124.729 153.566 125.407L151.052 127.823C150.771 128.093 150.642 128.485 150.709 128.87L151.301 132.299C151.467 133.257 150.464 133.99 149.602 133.542L146.443 131.901C146.104 131.725 145.7 131.724 145.361 131.9L142.193 133.542C141.33 133.99 140.327 133.255 140.495 132.297L141.094 128.871C141.162 128.486 141.033 128.092 140.751 127.822L138.238 125.407C137.533 124.729 137.917 123.536 138.886 123.397L142.392 122.894C142.773 122.839 143.104 122.601 143.276 122.257L144.851 119.109Z" fill="#F9D142" stroke="#101C3D" stroke-width="1.17504" stroke-linejoin="round"/>
  <circle cx="143.552" cy="125.234" r="1.17504" fill="#101C3D"/>
  <circle cx="148.252" cy="125.234" r="1.17504" fill="#101C3D"/>
  <path d="M144.14 128.172C144.14 128.172 145.902 132.285 147.665 128.172" stroke="#101C3D" stroke-width="1.17504"/>
  <path d="M45 26.5565L40.8608 22.5315L39.4447 28.1286L45 26.5565ZM21.5 44.2998C21.5 39.9911 23.3247 34.9921 26.6359 31.2757C29.9355 27.5722 34.6875 25.1642 40.5702 25.948L40.7023 24.9568C34.4369 24.1219 29.3708 26.7029 25.8893 30.6105C22.4194 34.5051 20.5 39.7391 20.5 44.2998H21.5Z" fill="#101C3D"/>
  <path d="M77 17.8587L75.2292 12.3634L71.3556 16.6446L77 17.8587ZM21.5 44.2998C21.5 33.1601 29.2416 21.8303 39.6604 15.3153C50.0668 8.80807 62.9929 7.19135 73.3564 15.2343L73.9695 14.4443C63.1699 6.06286 49.7646 7.81764 39.1302 14.4674C28.5083 21.1094 20.5 32.722 20.5 44.2998H21.5Z" fill="#101C3D"/>
  <path d="M107 18.2559L105.838 12.6005L101.521 16.4342L107 18.2559ZM21.5247 44.2774C21.1765 36.5131 24.5293 29.2827 30.2015 23.1694C35.8753 17.0546 43.8501 12.0823 52.6719 8.85953C70.3468 2.40248 91.2109 3.02938 103.658 15.2442L104.359 14.5305C91.5181 1.92971 70.1792 1.39906 52.3287 7.92025C43.3879 11.1866 35.2694 16.2374 29.4685 22.4893C23.666 28.7428 20.1625 36.2227 20.5257 44.3222L21.5247 44.2774Z" fill="#101C3D"/>
  <path d="M139 17.9813L137.724 12.3506L133.486 16.2711L139 17.9813ZM21.5 44.2998C21.5 33.6336 26.8576 24.888 35.3913 18.1456C43.933 11.3968 55.6351 6.67684 68.2292 4.09938C80.8195 1.52268 94.2665 1.09443 106.274 2.90035C118.292 4.70776 128.812 8.74418 135.606 15.0462L136.286 14.3131C129.287 7.82078 118.544 3.73441 106.423 1.91147C94.2922 0.0870495 80.7268 0.520912 68.0287 3.11968C55.3343 5.71769 43.4719 10.4866 34.7713 17.3609C26.0626 24.2416 20.5 33.2534 20.5 44.2998H21.5Z" fill="#101C3D"/>
  <rect y="112.3" width="167" height="34" fill="url(#paint0_linear_72_2346)"/>
  <rect x="45" y="17.2705" width="15" height="18" rx="2" fill="#277CE2"/>
  <path d="M52.204 31.3905C51.636 31.3905 51.1 31.2705 50.596 31.0305C50.092 30.7905 49.708 30.4745 49.444 30.0825L50.188 28.9905C50.476 29.3265 50.788 29.5825 51.124 29.7585C51.46 29.9345 51.804 30.0225 52.156 30.0225C52.604 30.0225 52.956 29.8785 53.212 29.5905C53.476 29.2945 53.608 28.8905 53.608 28.3785C53.608 27.9065 53.492 27.5345 53.26 27.2625C53.036 26.9905 52.724 26.8545 52.324 26.8545C52.084 26.8545 51.852 26.9265 51.628 27.0705C51.412 27.2065 51.248 27.3905 51.136 27.6225H49.708L50.116 22.8705H55.072V24.2385H51.64L51.484 26.0625C51.596 25.9265 51.776 25.8145 52.024 25.7265C52.28 25.6305 52.532 25.5825 52.78 25.5825C53.284 25.5825 53.728 25.6985 54.112 25.9305C54.504 26.1545 54.804 26.4785 55.012 26.9025C55.228 27.3185 55.336 27.8025 55.336 28.3545C55.336 28.9625 55.204 29.4945 54.94 29.9505C54.684 30.4065 54.32 30.7625 53.848 31.0185C53.376 31.2665 52.828 31.3905 52.204 31.3905Z" fill="white"/>
  <path d="M53.3661 39.0205C52.9812 39.6872 52.0189 39.6872 51.634 39.0205L49.469 35.2705L55.5311 35.2705L53.3661 39.0205Z" fill="#277CE2"/>
  <rect x="77" y="17.2705" width="15" height="18" rx="2" fill="#277CE2"/>
  <path d="M84.204 31.3905C83.636 31.3905 83.1 31.2705 82.596 31.0305C82.092 30.7905 81.708 30.4745 81.444 30.0825L82.188 28.9905C82.476 29.3265 82.788 29.5825 83.124 29.7585C83.46 29.9345 83.804 30.0225 84.156 30.0225C84.604 30.0225 84.956 29.8785 85.212 29.5905C85.476 29.2945 85.608 28.8905 85.608 28.3785C85.608 27.9065 85.492 27.5345 85.26 27.2625C85.036 26.9905 84.724 26.8545 84.324 26.8545C84.084 26.8545 83.852 26.9265 83.628 27.0705C83.412 27.2065 83.248 27.3905 83.136 27.6225H81.708L82.116 22.8705H87.072V24.2385H83.64L83.484 26.0625C83.596 25.9265 83.776 25.8145 84.024 25.7265C84.28 25.6305 84.532 25.5825 84.78 25.5825C85.284 25.5825 85.728 25.6985 86.112 25.9305C86.504 26.1545 86.804 26.4785 87.012 26.9025C87.228 27.3185 87.336 27.8025 87.336 28.3545C87.336 28.9625 87.204 29.4945 86.94 29.9505C86.684 30.4065 86.32 30.7625 85.848 31.0185C85.376 31.2665 84.828 31.3905 84.204 31.3905Z" fill="white"/>
  <path d="M85.366 39.0205C84.9811 39.6872 84.0189 39.6872 83.634 39.0205L81.4689 35.2705L87.5311 35.2705L85.366 39.0205Z" fill="#277CE2"/>
  <rect x="109" y="17.2705" width="15" height="18" rx="2" fill="#277CE2"/>
  <path d="M116.204 31.3905C115.636 31.3905 115.1 31.2705 114.596 31.0305C114.092 30.7905 113.708 30.4745 113.444 30.0825L114.188 28.9905C114.476 29.3265 114.788 29.5825 115.124 29.7585C115.46 29.9345 115.804 30.0225 116.156 30.0225C116.604 30.0225 116.956 29.8785 117.212 29.5905C117.476 29.2945 117.608 28.8905 117.608 28.3785C117.608 27.9065 117.492 27.5345 117.26 27.2625C117.036 26.9905 116.724 26.8545 116.324 26.8545C116.084 26.8545 115.852 26.9265 115.628 27.0705C115.412 27.2065 115.248 27.3905 115.136 27.6225H113.708L114.116 22.8705H119.072V24.2385H115.64L115.484 26.0625C115.596 25.9265 115.776 25.8145 116.024 25.7265C116.28 25.6305 116.532 25.5825 116.78 25.5825C117.284 25.5825 117.728 25.6985 118.112 25.9305C118.504 26.1545 118.804 26.4785 119.012 26.9025C119.228 27.3185 119.336 27.8025 119.336 28.3545C119.336 28.9625 119.204 29.4945 118.94 29.9505C118.684 30.4065 118.32 30.7625 117.848 31.0185C117.376 31.2665 116.828 31.3905 116.204 31.3905Z" fill="white"/>
  <path d="M117.366 39.0205C116.981 39.6872 116.019 39.6872 115.634 39.0205L113.469 35.2705L119.531 35.2705L117.366 39.0205Z" fill="#277CE2"/>
  <rect x="140" y="17.2705" width="15" height="18" rx="2" fill="#277CE2"/>
  <path d="M147.204 31.3905C146.636 31.3905 146.1 31.2705 145.596 31.0305C145.092 30.7905 144.708 30.4745 144.444 30.0825L145.188 28.9905C145.476 29.3265 145.788 29.5825 146.124 29.7585C146.46 29.9345 146.804 30.0225 147.156 30.0225C147.604 30.0225 147.956 29.8785 148.212 29.5905C148.476 29.2945 148.608 28.8905 148.608 28.3785C148.608 27.9065 148.492 27.5345 148.26 27.2625C148.036 26.9905 147.724 26.8545 147.324 26.8545C147.084 26.8545 146.852 26.9265 146.628 27.0705C146.412 27.2065 146.248 27.3905 146.136 27.6225H144.708L145.116 22.8705H150.072V24.2385H146.64L146.484 26.0625C146.596 25.9265 146.776 25.8145 147.024 25.7265C147.28 25.6305 147.532 25.5825 147.78 25.5825C148.284 25.5825 148.728 25.6985 149.112 25.9305C149.504 26.1545 149.804 26.4785 150.012 26.9025C150.228 27.3185 150.336 27.8025 150.336 28.3545C150.336 28.9625 150.204 29.4945 149.94 29.9505C149.684 30.4065 149.32 30.7625 148.848 31.0185C148.376 31.2665 147.828 31.3905 147.204 31.3905Z" fill="white"/>
  <path d="M148.366 39.0205C147.981 39.6872 147.019 39.6872 146.634 39.0205L144.469 35.2705L150.531 35.2705L148.366 39.0205Z" fill="#277CE2"/>
  <defs>
  <linearGradient id="paint0_linear_72_2346" x1="83.5" y1="112.646" x2="83.5" y2="146.3" gradientUnits="userSpaceOnUse">
  <stop stop-color="white" stop-opacity="0"/>
  <stop offset="0.665" stop-color="white"/>
  </linearGradient>
  </defs>
  </svg>
  