<svg width="153" height="138" viewBox="0 0 153 138" fill="none" xmlns="http://www.w3.org/2000/svg">
  <rect x="1.727" y="33.6975" width="149.213" height="101.369" rx="5.96289" stroke="#D4D4D4" stroke-width="2.38516"/>
  <rect x="8.28623" y="40.2564" width="22.4485" height="88.2507" rx="4.17402" stroke="#101C3D" stroke-width="1.19258"/>
  <circle cx="19.5104" cy="51.4809" r="6.46272" fill="#FFF8C4" stroke="#101C3D" stroke-width="1.17504"/>
  <circle cx="19.5105" cy="50.3059" r="1.17504" fill="#101C3D"/>
  <circle cx="24.2107" cy="50.3059" r="1.17504" fill="#101C3D"/>
  <path d="M20.0979 53.2437C20.0979 53.2437 21.8605 57.3563 23.623 53.2437" stroke="#101C3D" stroke-width="1.17504"/>
  <circle cx="19.5104" cy="67.9311" r="6.46272" fill="#FFF8C4" stroke="#101C3D" stroke-width="1.17504"/>
  <circle cx="17.1604" cy="66.7561" r="1.17504" fill="#101C3D"/>
  <circle cx="21.8606" cy="66.7561" r="1.17504" fill="#101C3D"/>
  <path d="M17.7478 69.6938C17.7478 69.6938 19.5104 73.8065 21.2729 69.6938" stroke="#101C3D" stroke-width="1.17504"/>
  <circle cx="19.5104" cy="84.3818" r="6.46272" fill="#FFF8C4" stroke="#101C3D" stroke-width="1.17504"/>
  <circle cx="17.1604" cy="83.2068" r="1.17504" fill="#101C3D"/>
  <circle cx="21.8606" cy="83.2068" r="1.17504" fill="#101C3D"/>
  <path d="M17.7478 86.1445C17.7478 86.1445 19.5104 90.2572 21.2729 86.1445" stroke="#101C3D" stroke-width="1.17504"/>
  <circle cx="19.5104" cy="100.832" r="6.46272" fill="#FFF8C4" stroke="#101C3D" stroke-width="1.17504"/>
  <circle cx="17.1604" cy="99.6575" r="1.17504" fill="#101C3D"/>
  <circle cx="21.8606" cy="99.6575" r="1.17504" fill="#101C3D"/>
  <path d="M17.7478 102.595C17.7478 102.595 19.5104 106.708 21.2729 102.595" stroke="#101C3D" stroke-width="1.17504"/>
  <circle cx="19.5104" cy="117.283" r="6.46272" fill="#FFF8C4" stroke="#101C3D" stroke-width="1.17504"/>
  <circle cx="17.1604" cy="116.108" r="1.17504" fill="#101C3D"/>
  <circle cx="21.8606" cy="116.108" r="1.17504" fill="#101C3D"/>
  <path d="M17.7478 119.046C17.7478 119.046 19.5104 123.159 21.2729 119.046" stroke="#101C3D" stroke-width="1.17504"/>
  <rect x="36.6976" y="40.2564" width="22.4485" height="88.2507" rx="4.17402" stroke="#101C3D" stroke-width="1.19258"/>
  <circle cx="47.9218" cy="51.4809" r="6.46272" fill="#FFF8C4" stroke="#101C3D" stroke-width="1.17504"/>
  <circle cx="45.5718" cy="50.3059" r="1.17504" fill="#101C3D"/>
  <circle cx="50.272" cy="50.3059" r="1.17504" fill="#101C3D"/>
  <path d="M46.1592 53.2437C46.1592 53.2437 47.9217 57.3563 49.6843 53.2437" stroke="#101C3D" stroke-width="1.17504"/>
  <circle cx="47.9218" cy="67.9311" r="6.46272" fill="#FFF8C4" stroke="#101C3D" stroke-width="1.17504"/>
  <circle cx="45.5718" cy="66.7561" r="1.17504" fill="#101C3D"/>
  <circle cx="50.272" cy="66.7561" r="1.17504" fill="#101C3D"/>
  <path d="M46.1592 69.6938C46.1592 69.6938 47.9217 73.8065 49.6843 69.6938" stroke="#101C3D" stroke-width="1.17504"/>
  <circle cx="47.9218" cy="84.3818" r="6.46272" fill="#FFF8C4" stroke="#101C3D" stroke-width="1.17504"/>
  <circle cx="45.5718" cy="83.2068" r="1.17504" fill="#101C3D"/>
  <circle cx="50.272" cy="83.2068" r="1.17504" fill="#101C3D"/>
  <path d="M46.1592 86.1445C46.1592 86.1445 47.9217 90.2572 49.6843 86.1445" stroke="#101C3D" stroke-width="1.17504"/>
  <circle cx="47.9218" cy="100.832" r="6.46272" fill="#FFF8C4" stroke="#101C3D" stroke-width="1.17504"/>
  <circle cx="45.5718" cy="99.6575" r="1.17504" fill="#101C3D"/>
  <circle cx="50.272" cy="99.6575" r="1.17504" fill="#101C3D"/>
  <path d="M46.1592 102.595C46.1592 102.595 47.9217 106.708 49.6843 102.595" stroke="#101C3D" stroke-width="1.17504"/>
  <circle cx="47.9218" cy="117.283" r="6.46272" fill="#FFF8C4" stroke="#101C3D" stroke-width="1.17504"/>
  <circle cx="45.5718" cy="116.108" r="1.17504" fill="#101C3D"/>
  <circle cx="50.272" cy="116.108" r="1.17504" fill="#101C3D"/>
  <path d="M46.1592 119.046C46.1592 119.046 47.9217 123.159 49.6843 119.046" stroke="#101C3D" stroke-width="1.17504"/>
  <rect x="65.109" y="40.2564" width="22.4485" height="88.2507" rx="4.17402" stroke="#101C3D" stroke-width="1.19258"/>
  <circle cx="76.3332" cy="51.4809" r="6.46272" fill="#FFF8C4" stroke="#101C3D" stroke-width="1.17504"/>
  <circle cx="73.9831" cy="50.3059" r="1.17504" fill="#101C3D"/>
  <circle cx="78.6833" cy="50.3059" r="1.17504" fill="#101C3D"/>
  <path d="M74.5706 53.2437C74.5706 53.2437 76.3331 57.3563 78.0957 53.2437" stroke="#101C3D" stroke-width="1.17504"/>
  <circle cx="76.3332" cy="67.9311" r="6.46272" fill="#FFF8C4" stroke="#101C3D" stroke-width="1.17504"/>
  <circle cx="73.9831" cy="66.7561" r="1.17504" fill="#101C3D"/>
  <circle cx="78.6833" cy="66.7561" r="1.17504" fill="#101C3D"/>
  <path d="M74.5706 69.6938C74.5706 69.6938 76.3331 73.8065 78.0957 69.6938" stroke="#101C3D" stroke-width="1.17504"/>
  <circle cx="76.3332" cy="84.3818" r="6.46272" fill="#FFF8C4" stroke="#101C3D" stroke-width="1.17504"/>
  <circle cx="73.9831" cy="83.2068" r="1.17504" fill="#101C3D"/>
  <circle cx="78.6833" cy="83.2068" r="1.17504" fill="#101C3D"/>
  <path d="M74.5706 86.1445C74.5706 86.1445 76.3331 90.2572 78.0957 86.1445" stroke="#101C3D" stroke-width="1.17504"/>
  <circle cx="76.3332" cy="100.832" r="6.46272" fill="#FFF8C4" stroke="#101C3D" stroke-width="1.17504"/>
  <circle cx="73.9831" cy="99.6575" r="1.17504" fill="#101C3D"/>
  <circle cx="78.6833" cy="99.6575" r="1.17504" fill="#101C3D"/>
  <path d="M74.5706 102.595C74.5706 102.595 76.3331 106.708 78.0957 102.595" stroke="#101C3D" stroke-width="1.17504"/>
  <circle cx="76.3332" cy="117.283" r="6.46272" fill="#FFF8C4" stroke="#101C3D" stroke-width="1.17504"/>
  <circle cx="73.9831" cy="116.108" r="1.17504" fill="#101C3D"/>
  <circle cx="78.6833" cy="116.108" r="1.17504" fill="#101C3D"/>
  <path d="M74.5706 119.046C74.5706 119.046 76.3331 123.159 78.0957 119.046" stroke="#101C3D" stroke-width="1.17504"/>
  <rect x="93.5204" y="40.2564" width="22.4485" height="88.2507" rx="4.17402" stroke="#101C3D" stroke-width="1.19258"/>
  <circle cx="104.745" cy="51.4809" r="6.46272" fill="#FFF8C4" stroke="#101C3D" stroke-width="1.17504"/>
  <circle cx="102.395" cy="50.3059" r="1.17504" fill="#101C3D"/>
  <circle cx="107.095" cy="50.3059" r="1.17504" fill="#101C3D"/>
  <path d="M102.982 53.2437C102.982 53.2437 104.744 57.3563 106.507 53.2437" stroke="#101C3D" stroke-width="1.17504"/>
  <circle cx="104.745" cy="67.9311" r="6.46272" fill="#FFF8C4" stroke="#101C3D" stroke-width="1.17504"/>
  <circle cx="102.395" cy="66.7561" r="1.17504" fill="#101C3D"/>
  <circle cx="107.095" cy="66.7561" r="1.17504" fill="#101C3D"/>
  <path d="M102.982 69.6938C102.982 69.6938 104.744 73.8065 106.507 69.6938" stroke="#101C3D" stroke-width="1.17504"/>
  <circle cx="104.745" cy="84.3818" r="6.46272" fill="#FFF8C4" stroke="#101C3D" stroke-width="1.17504"/>
  <circle cx="102.395" cy="83.2068" r="1.17504" fill="#101C3D"/>
  <circle cx="107.095" cy="83.2068" r="1.17504" fill="#101C3D"/>
  <path d="M102.982 86.1445C102.982 86.1445 104.744 90.2572 106.507 86.1445" stroke="#101C3D" stroke-width="1.17504"/>
  <circle cx="104.745" cy="100.832" r="6.46272" fill="#FFF8C4" stroke="#101C3D" stroke-width="1.17504"/>
  <circle cx="102.395" cy="99.6575" r="1.17504" fill="#101C3D"/>
  <circle cx="107.095" cy="99.6575" r="1.17504" fill="#101C3D"/>
  <path d="M102.982 102.595C102.982 102.595 104.744 106.708 106.507 102.595" stroke="#101C3D" stroke-width="1.17504"/>
  <circle cx="104.745" cy="117.283" r="6.46272" fill="#FFF8C4" stroke="#101C3D" stroke-width="1.17504"/>
  <circle cx="102.395" cy="116.108" r="1.17504" fill="#101C3D"/>
  <circle cx="107.095" cy="116.108" r="1.17504" fill="#101C3D"/>
  <path d="M102.982 119.046C102.982 119.046 104.744 123.159 106.507 119.046" stroke="#101C3D" stroke-width="1.17504"/>
  <rect x="121.932" y="40.2564" width="22.4485" height="88.2507" rx="4.17402" stroke="#101C3D" stroke-width="1.19258"/>
  <circle cx="133.156" cy="51.4809" r="6.46272" fill="#FFF8C4" stroke="#101C3D" stroke-width="1.17504"/>
  <circle cx="130.806" cy="50.3059" r="1.17504" fill="#101C3D"/>
  <circle cx="135.506" cy="50.3059" r="1.17504" fill="#101C3D"/>
  <path d="M131.393 53.2437C131.393 53.2437 133.156 57.3563 134.918 53.2437" stroke="#101C3D" stroke-width="1.17504"/>
  <circle cx="133.156" cy="67.9311" r="6.46272" fill="#FFF8C4" stroke="#101C3D" stroke-width="1.17504"/>
  <circle cx="130.806" cy="66.7561" r="1.17504" fill="#101C3D"/>
  <circle cx="135.506" cy="66.7561" r="1.17504" fill="#101C3D"/>
  <path d="M131.393 69.6938C131.393 69.6938 133.156 73.8065 134.918 69.6938" stroke="#101C3D" stroke-width="1.17504"/>
  <circle cx="133.156" cy="84.3818" r="6.46272" fill="#FFF8C4" stroke="#101C3D" stroke-width="1.17504"/>
  <circle cx="130.806" cy="83.2068" r="1.17504" fill="#101C3D"/>
  <circle cx="135.506" cy="83.2068" r="1.17504" fill="#101C3D"/>
  <path d="M131.393 86.1445C131.393 86.1445 133.156 90.2572 134.918 86.1445" stroke="#101C3D" stroke-width="1.17504"/>
  <circle cx="133.156" cy="100.832" r="6.46272" fill="#FFF8C4" stroke="#101C3D" stroke-width="1.17504"/>
  <circle cx="130.806" cy="99.6575" r="1.17504" fill="#101C3D"/>
  <circle cx="135.506" cy="99.6575" r="1.17504" fill="#101C3D"/>
  <path d="M131.393 102.595C131.393 102.595 133.156 106.708 134.918 102.595" stroke="#101C3D" stroke-width="1.17504"/>
  <circle cx="133.156" cy="117.283" r="6.46272" fill="#FFF8C4" stroke="#101C3D" stroke-width="1.17504"/>
  <circle cx="130.806" cy="116.108" r="1.17504" fill="#101C3D"/>
  <circle cx="135.506" cy="116.108" r="1.17504" fill="#101C3D"/>
  <path d="M131.393 119.046C131.393 119.046 133.156 123.159 134.918 119.046" stroke="#101C3D" stroke-width="1.17504"/>
  <path d="M38.8333 26.3086L34.7158 22.2614L33.2695 27.8508L38.8333 26.3086ZM19.8333 44.3093C19.8333 39.8666 20.7285 34.7863 23.0076 31.0348C24.1433 29.1653 25.6137 27.6399 27.4756 26.6748C29.3338 25.7117 31.6157 25.2889 34.4088 25.6768L34.5464 24.6863C31.5727 24.2733 29.0781 24.7178 27.0154 25.787C24.9565 26.8542 23.3616 28.5261 22.153 30.5156C19.7433 34.4821 18.8333 39.7667 18.8333 44.3093H19.8333Z" fill="#101C3D"/>
  <path d="M68.3333 17.8083L66.6099 12.298L62.6995 16.5456L68.3333 17.8083ZM19.8333 44.308C19.8333 33.0992 26.043 21.7513 34.7854 15.2436C39.1506 11.9942 44.1266 9.96707 49.2528 9.74992C54.3712 9.5331 59.6735 11.1188 64.7118 15.1523L65.3368 14.3717C60.1191 10.1945 54.5821 8.52327 49.2104 8.75081C43.8466 8.97803 38.6818 11.0966 34.1883 14.4415C25.2131 21.1225 18.8333 32.7583 18.8333 44.308H19.8333Z" fill="#101C3D"/>
  <path d="M96.3333 18.3085L95.1768 12.652L90.8564 16.4818L96.3333 18.3085ZM19.8328 44.2848C19.1262 28.7411 31.2022 15.3575 46.6722 8.92316C62.1313 2.49331 80.7566 3.10113 92.9928 15.2924L93.6986 14.584C81.0829 2.01462 61.9822 1.47228 46.2882 7.99984C30.605 14.5229 18.1008 28.2043 18.8338 44.3302L19.8328 44.2848Z" fill="#101C3D"/>
  <path d="M125.833 17.8087L124.613 12.1656L120.336 16.0441L125.833 17.8087ZM19.8333 44.3085C19.8333 22.8067 38.6806 9.02133 61.1187 3.82655C72.3147 1.2345 84.3443 0.802621 95.2361 2.61747C106.133 4.43322 115.85 8.49038 122.465 14.8372L123.158 14.1156C116.351 7.58504 106.422 3.46754 95.4004 1.63107C84.3734 -0.206319 72.2113 0.232002 60.8932 2.85232C38.3031 8.08228 18.8333 22.0903 18.8333 44.3085H19.8333Z" fill="#101C3D"/>
  <rect x="40.3333" y="16.6221" width="15" height="18" rx="2" fill="#277CE2"/>
  <path d="M45.7373 29.3381H47.0933V24.1541L45.5333 25.0781V23.5421L47.6933 22.2221H48.8213V29.3381H50.1653V30.6221H45.7373V29.3381Z" fill="white"/>
  <path d="M48.6992 38.3721C48.3143 39.0387 47.352 39.0387 46.9671 38.3721L44.8021 34.6221L50.8643 34.6221L48.6992 38.3721Z" fill="#277CE2"/>
  <rect x="69.3333" y="16.6221" width="15" height="18" rx="2" fill="#277CE2"/>
  <path d="M74.7373 29.3381H76.0933V24.1541L74.5333 25.0781V23.5421L76.6933 22.2221H77.8213V29.3381H79.1653V30.6221H74.7373V29.3381Z" fill="white"/>
  <path d="M77.6992 38.3721C77.3143 39.0387 76.352 39.0387 75.9671 38.3721L73.8021 34.6221L79.8643 34.6221L77.6992 38.3721Z" fill="#277CE2"/>
  <rect x="97.3333" y="16.6221" width="15" height="18" rx="2" fill="#277CE2"/>
  <path d="M102.737 29.3381H104.093V24.1541L102.533 25.0781V23.5421L104.693 22.2221H105.821V29.3381H107.165V30.6221H102.737V29.3381Z" fill="white"/>
  <path d="M105.699 38.3721C105.314 39.0387 104.352 39.0387 103.967 38.3721L101.802 34.6221L107.864 34.6221L105.699 38.3721Z" fill="#277CE2"/>
  <rect x="126.333" y="16.6221" width="15" height="18" rx="2" fill="#277CE2"/>
  <path d="M131.737 29.3381H133.093V24.1541L131.533 25.0781V23.5421L133.693 22.2221H134.821V29.3381H136.165V30.6221H131.737V29.3381Z" fill="white"/>
  <path d="M134.699 38.3721C134.314 39.0387 133.352 39.0387 132.967 38.3721L130.802 34.6221L136.864 34.6221L134.699 38.3721Z" fill="#277CE2"/>
  </svg>
  