<svg width="268" height="62" viewBox="0 0 268 62" fill="none" xmlns="http://www.w3.org/2000/svg">
  <g clip-path="url(#clip0_71_2834)">
  <path opacity="0.5" d="M21.6753 6.81493C21.5793 7.19893 21.3073 7.64293 20.8593 8.14693C21.1873 8.49893 21.3513 8.92693 21.3513 9.43093V14.3989H20.3433V11.6629C20.3433 11.3029 20.1713 11.0189 19.8273 10.8109C19.4833 10.6029 19.0993 10.4989 18.6753 10.4989C18.2513 10.4989 17.8953 10.6029 17.6073 10.8109C17.3193 11.0109 17.1753 11.2909 17.1753 11.6509V12.1309C17.2953 12.0909 17.4113 12.0709 17.5233 12.0709C17.8753 12.0709 18.1633 12.1869 18.3873 12.4189C18.6113 12.6429 18.7233 12.9389 18.7233 13.3069C18.7233 13.6589 18.6033 13.9509 18.3633 14.1829C18.1313 14.4069 17.8273 14.5189 17.4513 14.5189C17.0673 14.5189 16.7553 14.4029 16.5153 14.1709C16.2753 13.9309 16.1553 13.6229 16.1553 13.2469V11.6509C16.1553 11.1549 16.3233 10.7429 16.6593 10.4149C16.9953 10.0789 17.4353 9.86293 17.9793 9.76693C18.6353 9.28693 19.1713 8.81893 19.5873 8.36293C19.2993 8.25093 18.9673 8.19493 18.5913 8.19493C18.0793 8.19493 17.6513 8.29893 17.3073 8.50693C16.9633 8.71493 16.7553 8.99493 16.6833 9.34693H15.6993C15.7553 8.73893 16.0433 8.25893 16.5633 7.90693C17.0833 7.54693 17.7593 7.36693 18.5913 7.36693C19.1833 7.36693 19.7033 7.46693 20.1513 7.66693C20.3513 7.35493 20.4713 7.07093 20.5113 6.81493H21.6753ZM20.3433 9.39493C20.3433 9.18693 20.2873 8.99493 20.1753 8.81893C19.8233 9.13893 19.4353 9.44693 19.0113 9.74293C19.5713 9.81493 20.0153 10.0189 20.3433 10.3549V9.39493ZM18.0633 13.2949C18.0633 13.1349 18.0113 13.0029 17.9073 12.8989C17.8033 12.7869 17.6713 12.7309 17.5113 12.7309C17.3433 12.7309 17.2033 12.7869 17.0913 12.8989C16.9873 13.0029 16.9353 13.1349 16.9353 13.2949C16.9353 13.4549 16.9873 13.5909 17.0913 13.7029C17.2033 13.8069 17.3433 13.8589 17.5113 13.8589C17.6713 13.8589 17.8033 13.8069 17.9073 13.7029C18.0113 13.5909 18.0633 13.4549 18.0633 13.2949ZM26.1522 9.28693C26.1522 8.95093 26.0402 8.68693 25.8162 8.49493C25.6002 8.29493 25.3002 8.19493 24.9162 8.19493C24.5162 8.19493 24.1962 8.30693 23.9562 8.53093C23.7162 8.75493 23.5962 9.05893 23.5962 9.44293H22.6002C22.6002 8.80293 22.8082 8.29893 23.2242 7.93093C23.6402 7.55493 24.2042 7.36693 24.9162 7.36693C25.6122 7.36693 26.1602 7.53893 26.5602 7.88293C26.9682 8.21893 27.1722 8.67893 27.1722 9.26293V14.3989H26.1522V9.28693ZM34.0405 7.48693V12.7429C34.0405 13.2949 33.8045 13.7309 33.3325 14.0509C32.8685 14.3629 32.2325 14.5189 31.4245 14.5189C30.6165 14.5189 29.9765 14.3629 29.5045 14.0509C29.0405 13.7309 28.8085 13.2949 28.8085 12.7429V11.9509C28.8085 11.6869 28.8765 11.4509 29.0125 11.2429C29.1485 11.0269 29.3445 10.8589 29.6005 10.7389C29.2965 10.6029 29.0685 10.3869 28.9165 10.0909C28.7725 9.78693 28.7005 9.45093 28.7005 9.08293C28.7005 8.56293 28.8365 8.14693 29.1085 7.83493C29.3885 7.52293 29.7605 7.36693 30.2245 7.36693C30.5925 7.36693 30.8845 7.46693 31.1005 7.66693C31.3165 7.86693 31.4245 8.13493 31.4245 8.47093C31.4245 8.79893 31.3245 9.05893 31.1245 9.25093C30.9245 9.44293 30.6525 9.53893 30.3085 9.53893C30.0365 9.53893 29.8205 9.47493 29.6605 9.34693C29.6685 9.63493 29.7565 9.87493 29.9245 10.0669C30.1005 10.2509 30.3125 10.3429 30.5605 10.3429H31.6885V11.1589H30.5485C30.3405 11.1589 30.1685 11.2309 30.0325 11.3749C29.8965 11.5189 29.8285 11.7109 29.8285 11.9509V12.6709C29.8285 12.9909 29.9685 13.2429 30.2485 13.4269C30.5365 13.6029 30.9285 13.6909 31.4245 13.6909C31.9205 13.6909 32.3085 13.6029 32.5885 13.4269C32.8765 13.2429 33.0205 12.9909 33.0205 12.6709V7.48693H34.0405ZM30.2845 7.93093C30.1325 7.93093 30.0045 7.97893 29.9005 8.07493C29.8045 8.17093 29.7565 8.29893 29.7565 8.45893C29.7565 8.61093 29.8045 8.73893 29.9005 8.84293C30.0045 8.93893 30.1325 8.98693 30.2845 8.98693C30.4445 8.98693 30.5725 8.93893 30.6685 8.84293C30.7645 8.73893 30.8125 8.61093 30.8125 8.45893C30.8125 8.29893 30.7645 8.17093 30.6685 8.07493C30.5725 7.97893 30.4445 7.93093 30.2845 7.93093ZM38.7736 11.3749C38.7736 11.0789 38.8496 10.8109 39.0016 10.5709C39.1616 10.3309 39.3776 10.1509 39.6496 10.0309C39.3296 9.91893 38.9016 9.85093 38.3656 9.82693C38.3976 9.33893 38.5376 8.91093 38.7856 8.54293C39.0336 8.16693 39.3696 7.87893 39.7936 7.67893C40.2176 7.47093 40.7016 7.36693 41.2456 7.36693C42.0376 7.36693 42.6736 7.58693 43.1536 8.02693C43.6336 8.46693 43.8736 9.05493 43.8736 9.79093V14.3989H42.8536V9.88693C42.8536 9.36693 42.7016 8.95493 42.3976 8.65093C42.0936 8.34693 41.6816 8.19493 41.1616 8.19493C40.7376 8.19493 40.3616 8.29493 40.0336 8.49493C39.7136 8.68693 39.4896 8.95093 39.3616 9.28693C39.6496 9.31893 39.9216 9.39093 40.1776 9.50293C40.4336 9.61493 40.6296 9.74293 40.7656 9.88693V10.1029C40.4616 10.1909 40.2216 10.3469 40.0456 10.5709C39.8776 10.7869 39.7936 11.0429 39.7936 11.3389V14.3989H38.7736V11.3749ZM46.2757 14.5189C46.0517 14.5189 45.8717 14.4469 45.7357 14.3029C45.5997 14.1509 45.5317 13.9589 45.5317 13.7269C45.5317 13.4949 45.5997 13.3069 45.7357 13.1629C45.8717 13.0189 46.0517 12.9469 46.2757 12.9469C46.4997 12.9469 46.6797 13.0189 46.8157 13.1629C46.9517 13.3069 47.0197 13.4949 47.0197 13.7269C47.0197 13.9589 46.9517 14.1509 46.8157 14.3029C46.6797 14.4469 46.4997 14.5189 46.2757 14.5189Z" fill="#101C3D"/>
  <rect x="0.5" y="18.8989" width="62.5588" height="42.5" rx="2.5" stroke="#D4D4D4"/>
  <rect x="3.25" y="21.6489" width="9.41176" height="37" rx="1.75" stroke="#101C3D" stroke-width="0.5"/>
  <circle cx="7.95588" cy="26.3548" r="2.70956" fill="#FFF8C4" stroke="#101C3D" stroke-width="0.492647"/>
  <circle cx="6.97067" cy="25.8623" r="0.492647" fill="#101C3D"/>
  <circle cx="8.94113" cy="25.8623" r="0.492647" fill="#101C3D"/>
  <path d="M7.2168 27.0938C7.2168 27.0938 7.95577 28.818 8.69474 27.0938" stroke="#101C3D" stroke-width="0.492647"/>
  <circle cx="7.95588" cy="33.2518" r="2.70956" fill="#FFF8C4" stroke="#101C3D" stroke-width="0.492647"/>
  <circle cx="6.97067" cy="32.7592" r="0.492647" fill="#101C3D"/>
  <circle cx="8.94113" cy="32.7592" r="0.492647" fill="#101C3D"/>
  <path d="M7.2168 33.9907C7.2168 33.9907 7.95577 35.715 8.69474 33.9907" stroke="#101C3D" stroke-width="0.492647"/>
  <circle cx="7.95588" cy="40.1488" r="2.70956" fill="#FFF8C4" stroke="#101C3D" stroke-width="0.492647"/>
  <circle cx="6.97067" cy="39.6562" r="0.492647" fill="#101C3D"/>
  <circle cx="8.94113" cy="39.6562" r="0.492647" fill="#101C3D"/>
  <path d="M7.2168 40.8877C7.2168 40.8877 7.95577 42.612 8.69474 40.8877" stroke="#101C3D" stroke-width="0.492647"/>
  <circle cx="7.95588" cy="47.0462" r="2.70956" fill="#FFF8C4" stroke="#101C3D" stroke-width="0.492647"/>
  <circle cx="6.97067" cy="46.5537" r="0.492647" fill="#101C3D"/>
  <circle cx="8.94113" cy="46.5537" r="0.492647" fill="#101C3D"/>
  <path d="M7.2168 47.7852C7.2168 47.7852 7.95577 49.5094 8.69474 47.7852" stroke="#101C3D" stroke-width="0.492647"/>
  <circle cx="7.95588" cy="53.9432" r="2.70956" fill="#FFF8C4" stroke="#101C3D" stroke-width="0.492647"/>
  <circle cx="6.97067" cy="53.4507" r="0.492647" fill="#101C3D"/>
  <circle cx="8.94113" cy="53.4507" r="0.492647" fill="#101C3D"/>
  <path d="M7.2168 54.6821C7.2168 54.6821 7.95577 56.4064 8.69474 54.6821" stroke="#101C3D" stroke-width="0.492647"/>
  <rect x="15.1619" y="21.6489" width="9.41176" height="37" rx="1.75" stroke="#101C3D" stroke-width="0.5"/>
  <circle cx="19.8677" cy="26.3548" r="2.70956" fill="#FFF8C4" stroke="#101C3D" stroke-width="0.492647"/>
  <circle cx="18.8825" cy="25.8623" r="0.492647" fill="#101C3D"/>
  <circle cx="20.853" cy="25.8623" r="0.492647" fill="#101C3D"/>
  <path d="M19.1287 27.0938C19.1287 27.0938 19.8676 28.818 20.6066 27.0938" stroke="#101C3D" stroke-width="0.492647"/>
  <circle cx="19.8677" cy="33.2518" r="2.70956" fill="#FFF8C4" stroke="#101C3D" stroke-width="0.492647"/>
  <circle cx="18.8825" cy="32.7592" r="0.492647" fill="#101C3D"/>
  <circle cx="20.853" cy="32.7592" r="0.492647" fill="#101C3D"/>
  <path d="M19.1287 33.9907C19.1287 33.9907 19.8676 35.715 20.6066 33.9907" stroke="#101C3D" stroke-width="0.492647"/>
  <circle cx="19.8677" cy="40.1488" r="2.70956" fill="#FFF8C4" stroke="#101C3D" stroke-width="0.492647"/>
  <circle cx="18.8825" cy="39.6562" r="0.492647" fill="#101C3D"/>
  <circle cx="20.853" cy="39.6562" r="0.492647" fill="#101C3D"/>
  <path d="M19.1287 40.8877C19.1287 40.8877 19.8676 42.612 20.6066 40.8877" stroke="#101C3D" stroke-width="0.492647"/>
  <circle cx="19.8677" cy="47.0462" r="2.70956" fill="#FFF8C4" stroke="#101C3D" stroke-width="0.492647"/>
  <circle cx="18.8825" cy="46.5537" r="0.492647" fill="#101C3D"/>
  <circle cx="20.853" cy="46.5537" r="0.492647" fill="#101C3D"/>
  <path d="M19.1287 47.7852C19.1287 47.7852 19.8676 49.5094 20.6066 47.7852" stroke="#101C3D" stroke-width="0.492647"/>
  <circle cx="19.8677" cy="53.9432" r="2.70956" fill="#FFF8C4" stroke="#101C3D" stroke-width="0.492647"/>
  <circle cx="18.8825" cy="53.4507" r="0.492647" fill="#101C3D"/>
  <circle cx="20.853" cy="53.4507" r="0.492647" fill="#101C3D"/>
  <path d="M19.1287 54.6821C19.1287 54.6821 19.8676 56.4064 20.6066 54.6821" stroke="#101C3D" stroke-width="0.492647"/>
  <rect x="27.0735" y="21.6489" width="9.41176" height="37" rx="1.75" stroke="#101C3D" stroke-width="0.5"/>
  <circle cx="31.7794" cy="26.3548" r="2.70956" fill="#FFF8C4" stroke="#101C3D" stroke-width="0.492647"/>
  <circle cx="30.7942" cy="25.8623" r="0.492647" fill="#101C3D"/>
  <circle cx="32.7646" cy="25.8623" r="0.492647" fill="#101C3D"/>
  <path d="M31.0403 27.0938C31.0403 27.0938 31.7793 28.818 32.5182 27.0938" stroke="#101C3D" stroke-width="0.492647"/>
  <circle cx="31.7794" cy="33.2518" r="2.70956" fill="#FFF8C4" stroke="#101C3D" stroke-width="0.492647"/>
  <circle cx="30.7942" cy="32.7592" r="0.492647" fill="#101C3D"/>
  <circle cx="32.7646" cy="32.7592" r="0.492647" fill="#101C3D"/>
  <path d="M31.0403 33.9907C31.0403 33.9907 31.7793 35.715 32.5182 33.9907" stroke="#101C3D" stroke-width="0.492647"/>
  <circle cx="31.7794" cy="40.1488" r="2.70956" fill="#FFF8C4" stroke="#101C3D" stroke-width="0.492647"/>
  <circle cx="30.7942" cy="39.6562" r="0.492647" fill="#101C3D"/>
  <circle cx="32.7646" cy="39.6562" r="0.492647" fill="#101C3D"/>
  <path d="M31.0403 40.8877C31.0403 40.8877 31.7793 42.612 32.5182 40.8877" stroke="#101C3D" stroke-width="0.492647"/>
  <circle cx="31.7794" cy="47.0462" r="2.70956" fill="#FFF8C4" stroke="#101C3D" stroke-width="0.492647"/>
  <circle cx="30.7942" cy="46.5537" r="0.492647" fill="#101C3D"/>
  <circle cx="32.7646" cy="46.5537" r="0.492647" fill="#101C3D"/>
  <path d="M31.0403 47.7852C31.0403 47.7852 31.7793 49.5094 32.5182 47.7852" stroke="#101C3D" stroke-width="0.492647"/>
  <circle cx="31.7794" cy="53.9432" r="2.70956" fill="#FFF8C4" stroke="#101C3D" stroke-width="0.492647"/>
  <circle cx="30.7942" cy="53.4507" r="0.492647" fill="#101C3D"/>
  <circle cx="32.7646" cy="53.4507" r="0.492647" fill="#101C3D"/>
  <path d="M31.0403 54.6821C31.0403 54.6821 31.7793 56.4064 32.5182 54.6821" stroke="#101C3D" stroke-width="0.492647"/>
  <rect x="38.9854" y="21.6489" width="9.41176" height="37" rx="1.75" stroke="#101C3D" stroke-width="0.5"/>
  <circle cx="43.6912" cy="26.3548" r="2.70956" fill="#FFF8C4" stroke="#101C3D" stroke-width="0.492647"/>
  <circle cx="42.706" cy="25.8623" r="0.492647" fill="#101C3D"/>
  <circle cx="44.6765" cy="25.8623" r="0.492647" fill="#101C3D"/>
  <path d="M42.9521 27.0938C42.9521 27.0938 43.6911 28.818 44.4301 27.0938" stroke="#101C3D" stroke-width="0.492647"/>
  <circle cx="43.6912" cy="33.2518" r="2.70956" fill="#FFF8C4" stroke="#101C3D" stroke-width="0.492647"/>
  <circle cx="42.706" cy="32.7592" r="0.492647" fill="#101C3D"/>
  <circle cx="44.6765" cy="32.7592" r="0.492647" fill="#101C3D"/>
  <path d="M42.9521 33.9907C42.9521 33.9907 43.6911 35.715 44.4301 33.9907" stroke="#101C3D" stroke-width="0.492647"/>
  <circle cx="43.6912" cy="40.1488" r="2.70956" fill="#FFF8C4" stroke="#101C3D" stroke-width="0.492647"/>
  <circle cx="42.706" cy="39.6562" r="0.492647" fill="#101C3D"/>
  <circle cx="44.6765" cy="39.6562" r="0.492647" fill="#101C3D"/>
  <path d="M42.9521 40.8877C42.9521 40.8877 43.6911 42.612 44.4301 40.8877" stroke="#101C3D" stroke-width="0.492647"/>
  <circle cx="43.6912" cy="47.0462" r="2.70956" fill="#FFF8C4" stroke="#101C3D" stroke-width="0.492647"/>
  <circle cx="42.706" cy="46.5537" r="0.492647" fill="#101C3D"/>
  <circle cx="44.6765" cy="46.5537" r="0.492647" fill="#101C3D"/>
  <path d="M42.9521 47.7852C42.9521 47.7852 43.6911 49.5094 44.4301 47.7852" stroke="#101C3D" stroke-width="0.492647"/>
  <circle cx="43.6912" cy="53.9432" r="2.70956" fill="#FFF8C4" stroke="#101C3D" stroke-width="0.492647"/>
  <circle cx="42.706" cy="53.4507" r="0.492647" fill="#101C3D"/>
  <circle cx="44.6765" cy="53.4507" r="0.492647" fill="#101C3D"/>
  <path d="M42.9521 54.6821C42.9521 54.6821 43.6911 56.4064 44.4301 54.6821" stroke="#101C3D" stroke-width="0.492647"/>
  <rect x="50.897" y="21.6489" width="9.41176" height="37" rx="1.75" stroke="#101C3D" stroke-width="0.5"/>
  <circle cx="55.6029" cy="26.3548" r="2.70956" fill="#FFF8C4" stroke="#101C3D" stroke-width="0.492647"/>
  <circle cx="54.6176" cy="25.8623" r="0.492647" fill="#101C3D"/>
  <circle cx="56.5881" cy="25.8623" r="0.492647" fill="#101C3D"/>
  <path d="M54.8638 27.0938C54.8638 27.0938 55.6027 28.818 56.3417 27.0938" stroke="#101C3D" stroke-width="0.492647"/>
  <circle cx="55.6029" cy="33.2518" r="2.70956" fill="#FFF8C4" stroke="#101C3D" stroke-width="0.492647"/>
  <circle cx="54.6176" cy="32.7592" r="0.492647" fill="#101C3D"/>
  <circle cx="56.5881" cy="32.7592" r="0.492647" fill="#101C3D"/>
  <path d="M54.8638 33.9907C54.8638 33.9907 55.6027 35.715 56.3417 33.9907" stroke="#101C3D" stroke-width="0.492647"/>
  <circle cx="55.6029" cy="40.1488" r="2.70956" fill="#FFF8C4" stroke="#101C3D" stroke-width="0.492647"/>
  <circle cx="54.6176" cy="39.6562" r="0.492647" fill="#101C3D"/>
  <circle cx="56.5881" cy="39.6562" r="0.492647" fill="#101C3D"/>
  <path d="M54.8638 40.8877C54.8638 40.8877 55.6027 42.612 56.3417 40.8877" stroke="#101C3D" stroke-width="0.492647"/>
  <circle cx="55.6029" cy="47.0462" r="2.70956" fill="#FFF8C4" stroke="#101C3D" stroke-width="0.492647"/>
  <circle cx="54.6176" cy="46.5537" r="0.492647" fill="#101C3D"/>
  <circle cx="56.5881" cy="46.5537" r="0.492647" fill="#101C3D"/>
  <path d="M54.8638 47.7852C54.8638 47.7852 55.6027 49.5094 56.3417 47.7852" stroke="#101C3D" stroke-width="0.492647"/>
  <circle cx="55.6029" cy="53.9432" r="2.70956" fill="#FFF8C4" stroke="#101C3D" stroke-width="0.492647"/>
  <circle cx="54.6176" cy="53.4507" r="0.492647" fill="#101C3D"/>
  <circle cx="56.5881" cy="53.4507" r="0.492647" fill="#101C3D"/>
  <path d="M54.8638 54.6821C54.8638 54.6821 55.6027 56.4064 56.3417 54.6821" stroke="#101C3D" stroke-width="0.492647"/>
  <path opacity="0.5" d="M90.2341 6.81493C90.1381 7.19893 89.8661 7.64293 89.4181 8.14693C89.7461 8.49893 89.9101 8.92693 89.9101 9.43093V14.3989H88.9021V11.6629C88.9021 11.3029 88.7301 11.0189 88.3861 10.8109C88.0421 10.6029 87.6581 10.4989 87.2341 10.4989C86.8101 10.4989 86.4541 10.6029 86.1661 10.8109C85.8781 11.0109 85.7341 11.2909 85.7341 11.6509V12.1309C85.8541 12.0909 85.9701 12.0709 86.0821 12.0709C86.4341 12.0709 86.7221 12.1869 86.9461 12.4189C87.1701 12.6429 87.2821 12.9389 87.2821 13.3069C87.2821 13.6589 87.1621 13.9509 86.9221 14.1829C86.6901 14.4069 86.3861 14.5189 86.0101 14.5189C85.6261 14.5189 85.3141 14.4029 85.0741 14.1709C84.8341 13.9309 84.7141 13.6229 84.7141 13.2469V11.6509C84.7141 11.1549 84.8821 10.7429 85.2181 10.4149C85.5541 10.0789 85.9941 9.86293 86.5381 9.76693C87.1941 9.28693 87.7301 8.81893 88.1461 8.36293C87.8581 8.25093 87.5261 8.19493 87.1501 8.19493C86.6381 8.19493 86.2101 8.29893 85.8661 8.50693C85.5221 8.71493 85.3141 8.99493 85.2421 9.34693H84.2581C84.3141 8.73893 84.6021 8.25893 85.1221 7.90693C85.6421 7.54693 86.3181 7.36693 87.1501 7.36693C87.7421 7.36693 88.2621 7.46693 88.7101 7.66693C88.9101 7.35493 89.0301 7.07093 89.0701 6.81493H90.2341ZM88.9021 9.39493C88.9021 9.18693 88.8461 8.99493 88.7341 8.81893C88.3821 9.13893 87.9941 9.44693 87.5701 9.74293C88.1301 9.81493 88.5741 10.0189 88.9021 10.3549V9.39493ZM86.6221 13.2949C86.6221 13.1349 86.5701 13.0029 86.4661 12.8989C86.3621 12.7869 86.2301 12.7309 86.0701 12.7309C85.9021 12.7309 85.7621 12.7869 85.6501 12.8989C85.5461 13.0029 85.4941 13.1349 85.4941 13.2949C85.4941 13.4549 85.5461 13.5909 85.6501 13.7029C85.7621 13.8069 85.9021 13.8589 86.0701 13.8589C86.2301 13.8589 86.3621 13.8069 86.4661 13.7029C86.5701 13.5909 86.6221 13.4549 86.6221 13.2949ZM94.7111 9.28693C94.7111 8.95093 94.5991 8.68693 94.3751 8.49493C94.1591 8.29493 93.8591 8.19493 93.4751 8.19493C93.0751 8.19493 92.7551 8.30693 92.5151 8.53093C92.2751 8.75493 92.1551 9.05893 92.1551 9.44293H91.1591C91.1591 8.80293 91.3671 8.29893 91.7831 7.93093C92.1991 7.55493 92.7631 7.36693 93.4751 7.36693C94.1711 7.36693 94.7191 7.53893 95.1191 7.88293C95.5271 8.21893 95.7311 8.67893 95.7311 9.26293V14.3989H94.7111V9.28693ZM102.599 7.48693V12.7429C102.599 13.2949 102.363 13.7309 101.891 14.0509C101.427 14.3629 100.791 14.5189 99.9833 14.5189C99.1753 14.5189 98.5353 14.3629 98.0633 14.0509C97.5993 13.7309 97.3673 13.2949 97.3673 12.7429V11.9509C97.3673 11.6869 97.4353 11.4509 97.5713 11.2429C97.7073 11.0269 97.9033 10.8589 98.1593 10.7389C97.8553 10.6029 97.6273 10.3869 97.4753 10.0909C97.3313 9.78693 97.2593 9.45093 97.2593 9.08293C97.2593 8.56293 97.3953 8.14693 97.6673 7.83493C97.9473 7.52293 98.3193 7.36693 98.7833 7.36693C99.1513 7.36693 99.4433 7.46693 99.6593 7.66693C99.8753 7.86693 99.9833 8.13493 99.9833 8.47093C99.9833 8.79893 99.8833 9.05893 99.6833 9.25093C99.4833 9.44293 99.2113 9.53893 98.8673 9.53893C98.5953 9.53893 98.3793 9.47493 98.2193 9.34693C98.2273 9.63493 98.3153 9.87493 98.4833 10.0669C98.6593 10.2509 98.8713 10.3429 99.1193 10.3429H100.247V11.1589H99.1073C98.8993 11.1589 98.7273 11.2309 98.5913 11.3749C98.4553 11.5189 98.3873 11.7109 98.3873 11.9509V12.6709C98.3873 12.9909 98.5273 13.2429 98.8073 13.4269C99.0953 13.6029 99.4873 13.6909 99.9833 13.6909C100.479 13.6909 100.867 13.6029 101.147 13.4269C101.435 13.2429 101.579 12.9909 101.579 12.6709V7.48693H102.599ZM98.8433 7.93093C98.6913 7.93093 98.5633 7.97893 98.4593 8.07493C98.3633 8.17093 98.3153 8.29893 98.3153 8.45893C98.3153 8.61093 98.3633 8.73893 98.4593 8.84293C98.5633 8.93893 98.6913 8.98693 98.8433 8.98693C99.0033 8.98693 99.1313 8.93893 99.2273 8.84293C99.3233 8.73893 99.3713 8.61093 99.3713 8.45893C99.3713 8.29893 99.3233 8.17093 99.2273 8.07493C99.1313 7.97893 99.0033 7.93093 98.8433 7.93093ZM112.648 7.48693V12.8269C112.648 13.3709 112.48 13.7909 112.144 14.0869C111.816 14.3749 111.34 14.5189 110.716 14.5189C110.092 14.5189 109.616 14.3749 109.288 14.0869C108.96 13.7909 108.796 13.3709 108.796 12.8269V11.4949C108.796 11.2789 108.832 11.0869 108.904 10.9189C108.984 10.7509 109.1 10.5389 109.252 10.2829C109.404 10.0509 109.52 9.84293 109.6 9.65893C109.688 9.46693 109.732 9.25893 109.732 9.03493C109.732 8.71493 109.632 8.47893 109.432 8.32693C109.232 8.17493 108.972 8.09893 108.652 8.09893C108.26 8.09893 107.952 8.19893 107.728 8.39893C107.768 8.38293 107.832 8.37493 107.92 8.37493C108.232 8.37493 108.488 8.47893 108.688 8.68693C108.896 8.88693 109 9.15493 109 9.49093C109 9.81893 108.896 10.0909 108.688 10.3069C108.48 10.5229 108.196 10.6309 107.836 10.6309C107.452 10.6309 107.152 10.5069 106.936 10.2589C106.72 10.0029 106.612 9.66293 106.612 9.23893C106.612 8.70293 106.792 8.25893 107.152 7.90693C107.52 7.54693 108.028 7.36693 108.676 7.36693C109.26 7.36693 109.736 7.50693 110.104 7.78693C110.48 8.05893 110.668 8.45493 110.668 8.97493C110.668 9.24693 110.628 9.48293 110.548 9.68293C110.476 9.87493 110.364 10.1069 110.212 10.3789C110.076 10.6029 109.976 10.7989 109.912 10.9669C109.848 11.1349 109.816 11.3189 109.816 11.5189V12.8749C109.816 13.1389 109.892 13.3429 110.044 13.4869C110.204 13.6229 110.432 13.6909 110.728 13.6909C111.024 13.6909 111.248 13.6229 111.4 13.4869C111.552 13.3429 111.628 13.1389 111.628 12.8749V7.48693H112.648ZM108.388 9.49093C108.388 9.33093 108.336 9.20293 108.232 9.10693C108.136 9.01093 108.008 8.96293 107.848 8.96293C107.688 8.96293 107.556 9.01093 107.452 9.10693C107.356 9.20293 107.308 9.33093 107.308 9.49093C107.308 9.65093 107.356 9.78293 107.452 9.88693C107.556 9.98293 107.688 10.0309 107.848 10.0309C108.008 10.0309 108.136 9.98293 108.232 9.88693C108.336 9.78293 108.388 9.65093 108.388 9.49093ZM115.045 14.5189C114.821 14.5189 114.641 14.4469 114.505 14.3029C114.369 14.1509 114.301 13.9589 114.301 13.7269C114.301 13.4949 114.369 13.3069 114.505 13.1629C114.641 13.0189 114.821 12.9469 115.045 12.9469C115.269 12.9469 115.449 13.0189 115.585 13.1629C115.721 13.3069 115.789 13.4949 115.789 13.7269C115.789 13.9589 115.721 14.1509 115.585 14.3029C115.449 14.4469 115.269 14.5189 115.045 14.5189Z" fill="#101C3D"/>
  <rect x="69.0588" y="18.8989" width="62.5588" height="42.5" rx="2.5" stroke="#D4D4D4"/>
  <rect x="71.8088" y="21.6489" width="9.41176" height="37" rx="1.75" stroke="#101C3D" stroke-width="0.5"/>
  <circle cx="76.5147" cy="26.3548" r="2.70956" fill="#FFF8C4" stroke="#101C3D" stroke-width="0.492647"/>
  <circle cx="75.5295" cy="25.8623" r="0.492647" fill="#101C3D"/>
  <circle cx="77.5" cy="25.8623" r="0.492647" fill="#101C3D"/>
  <path d="M75.7756 27.0938C75.7756 27.0938 76.5146 28.818 77.2536 27.0938" stroke="#101C3D" stroke-width="0.492647"/>
  <circle cx="76.5147" cy="33.2518" r="2.70956" fill="#FFF8C4" stroke="#101C3D" stroke-width="0.492647"/>
  <circle cx="75.5295" cy="32.7592" r="0.492647" fill="#101C3D"/>
  <circle cx="77.5" cy="32.7592" r="0.492647" fill="#101C3D"/>
  <path d="M75.7756 33.9907C75.7756 33.9907 76.5146 35.715 77.2536 33.9907" stroke="#101C3D" stroke-width="0.492647"/>
  <circle cx="76.5147" cy="40.1488" r="2.70956" fill="#FFF8C4" stroke="#101C3D" stroke-width="0.492647"/>
  <circle cx="75.5295" cy="39.6562" r="0.492647" fill="#101C3D"/>
  <circle cx="77.5" cy="39.6562" r="0.492647" fill="#101C3D"/>
  <path d="M75.7756 40.8877C75.7756 40.8877 76.5146 42.612 77.2536 40.8877" stroke="#101C3D" stroke-width="0.492647"/>
  <circle cx="76.5147" cy="47.0462" r="2.70956" fill="#FFF8C4" stroke="#101C3D" stroke-width="0.492647"/>
  <circle cx="75.5295" cy="46.5537" r="0.492647" fill="#101C3D"/>
  <circle cx="77.5" cy="46.5537" r="0.492647" fill="#101C3D"/>
  <path d="M75.7756 47.7852C75.7756 47.7852 76.5146 49.5094 77.2536 47.7852" stroke="#101C3D" stroke-width="0.492647"/>
  <circle cx="76.5147" cy="53.9432" r="2.70956" fill="#FFF8C4" stroke="#101C3D" stroke-width="0.492647"/>
  <circle cx="75.5295" cy="53.4507" r="0.492647" fill="#101C3D"/>
  <circle cx="77.5" cy="53.4507" r="0.492647" fill="#101C3D"/>
  <path d="M75.7756 54.6821C75.7756 54.6821 76.5146 56.4064 77.2536 54.6821" stroke="#101C3D" stroke-width="0.492647"/>
  <rect x="83.7207" y="21.6489" width="9.41176" height="37" rx="1.75" stroke="#101C3D" stroke-width="0.5"/>
  <circle cx="88.4266" cy="26.3548" r="2.70956" fill="#FFF8C4" stroke="#101C3D" stroke-width="0.492647"/>
  <circle cx="87.4414" cy="25.8623" r="0.492647" fill="#101C3D"/>
  <circle cx="89.4118" cy="25.8623" r="0.492647" fill="#101C3D"/>
  <path d="M87.6875 27.0938C87.6875 27.0938 88.4265 28.818 89.1654 27.0938" stroke="#101C3D" stroke-width="0.492647"/>
  <circle cx="88.4266" cy="33.2518" r="2.70956" fill="#FFF8C4" stroke="#101C3D" stroke-width="0.492647"/>
  <circle cx="87.4414" cy="32.7592" r="0.492647" fill="#101C3D"/>
  <circle cx="89.4118" cy="32.7592" r="0.492647" fill="#101C3D"/>
  <path d="M87.6875 33.9907C87.6875 33.9907 88.4265 35.715 89.1654 33.9907" stroke="#101C3D" stroke-width="0.492647"/>
  <circle cx="88.4266" cy="40.1488" r="2.70956" fill="#FFF8C4" stroke="#101C3D" stroke-width="0.492647"/>
  <circle cx="87.4414" cy="39.6562" r="0.492647" fill="#101C3D"/>
  <circle cx="89.4118" cy="39.6562" r="0.492647" fill="#101C3D"/>
  <path d="M87.6875 40.8877C87.6875 40.8877 88.4265 42.612 89.1654 40.8877" stroke="#101C3D" stroke-width="0.492647"/>
  <circle cx="88.4266" cy="47.0462" r="2.70956" fill="#FFF8C4" stroke="#101C3D" stroke-width="0.492647"/>
  <circle cx="87.4414" cy="46.5537" r="0.492647" fill="#101C3D"/>
  <circle cx="89.4118" cy="46.5537" r="0.492647" fill="#101C3D"/>
  <path d="M87.6875 47.7852C87.6875 47.7852 88.4265 49.5094 89.1654 47.7852" stroke="#101C3D" stroke-width="0.492647"/>
  <circle cx="88.4266" cy="53.9432" r="2.70956" fill="#FFF8C4" stroke="#101C3D" stroke-width="0.492647"/>
  <circle cx="87.4414" cy="53.4507" r="0.492647" fill="#101C3D"/>
  <circle cx="89.4118" cy="53.4507" r="0.492647" fill="#101C3D"/>
  <path d="M87.6875 54.6821C87.6875 54.6821 88.4265 56.4064 89.1654 54.6821" stroke="#101C3D" stroke-width="0.492647"/>
  <rect x="95.6323" y="21.6489" width="9.41176" height="37" rx="1.75" stroke="#101C3D" stroke-width="0.5"/>
  <circle cx="100.338" cy="26.3548" r="2.70956" fill="#FFF8C4" stroke="#101C3D" stroke-width="0.492647"/>
  <circle cx="99.353" cy="25.8623" r="0.492647" fill="#101C3D"/>
  <circle cx="101.323" cy="25.8623" r="0.492647" fill="#101C3D"/>
  <path d="M99.5991 27.0938C99.5991 27.0938 100.338 28.818 101.077 27.0938" stroke="#101C3D" stroke-width="0.492647"/>
  <circle cx="100.338" cy="33.2518" r="2.70956" fill="#FFF8C4" stroke="#101C3D" stroke-width="0.492647"/>
  <circle cx="99.353" cy="32.7592" r="0.492647" fill="#101C3D"/>
  <circle cx="101.323" cy="32.7592" r="0.492647" fill="#101C3D"/>
  <path d="M99.5991 33.9907C99.5991 33.9907 100.338 35.715 101.077 33.9907" stroke="#101C3D" stroke-width="0.492647"/>
  <circle cx="100.338" cy="40.1488" r="2.70956" fill="#FFF8C4" stroke="#101C3D" stroke-width="0.492647"/>
  <circle cx="99.353" cy="39.6562" r="0.492647" fill="#101C3D"/>
  <circle cx="101.323" cy="39.6562" r="0.492647" fill="#101C3D"/>
  <path d="M99.5991 40.8877C99.5991 40.8877 100.338 42.612 101.077 40.8877" stroke="#101C3D" stroke-width="0.492647"/>
  <circle cx="100.338" cy="47.0462" r="2.70956" fill="#FFF8C4" stroke="#101C3D" stroke-width="0.492647"/>
  <circle cx="99.353" cy="46.5537" r="0.492647" fill="#101C3D"/>
  <circle cx="101.323" cy="46.5537" r="0.492647" fill="#101C3D"/>
  <path d="M99.5991 47.7852C99.5991 47.7852 100.338 49.5094 101.077 47.7852" stroke="#101C3D" stroke-width="0.492647"/>
  <circle cx="100.338" cy="53.9432" r="2.70956" fill="#FFF8C4" stroke="#101C3D" stroke-width="0.492647"/>
  <circle cx="99.353" cy="53.4507" r="0.492647" fill="#101C3D"/>
  <circle cx="101.323" cy="53.4507" r="0.492647" fill="#101C3D"/>
  <path d="M99.5991 54.6821C99.5991 54.6821 100.338 56.4064 101.077 54.6821" stroke="#101C3D" stroke-width="0.492647"/>
  <rect x="107.544" y="21.6489" width="9.41176" height="37" rx="1.75" stroke="#101C3D" stroke-width="0.5"/>
  <circle cx="112.25" cy="26.3548" r="2.70956" fill="#FFF8C4" stroke="#101C3D" stroke-width="0.492647"/>
  <circle cx="111.265" cy="25.8623" r="0.492647" fill="#101C3D"/>
  <circle cx="113.235" cy="25.8623" r="0.492647" fill="#101C3D"/>
  <path d="M111.511 27.0938C111.511 27.0938 112.25 28.818 112.989 27.0938" stroke="#101C3D" stroke-width="0.492647"/>
  <circle cx="112.25" cy="33.2518" r="2.70956" fill="#FFF8C4" stroke="#101C3D" stroke-width="0.492647"/>
  <circle cx="111.265" cy="32.7592" r="0.492647" fill="#101C3D"/>
  <circle cx="113.235" cy="32.7592" r="0.492647" fill="#101C3D"/>
  <path d="M111.511 33.9907C111.511 33.9907 112.25 35.715 112.989 33.9907" stroke="#101C3D" stroke-width="0.492647"/>
  <circle cx="112.25" cy="40.1488" r="2.70956" fill="#FFF8C4" stroke="#101C3D" stroke-width="0.492647"/>
  <circle cx="111.265" cy="39.6562" r="0.492647" fill="#101C3D"/>
  <circle cx="113.235" cy="39.6562" r="0.492647" fill="#101C3D"/>
  <path d="M111.511 40.8877C111.511 40.8877 112.25 42.612 112.989 40.8877" stroke="#101C3D" stroke-width="0.492647"/>
  <circle cx="112.25" cy="47.0462" r="2.70956" fill="#FFF8C4" stroke="#101C3D" stroke-width="0.492647"/>
  <circle cx="111.265" cy="46.5537" r="0.492647" fill="#101C3D"/>
  <circle cx="113.235" cy="46.5537" r="0.492647" fill="#101C3D"/>
  <path d="M111.511 47.7852C111.511 47.7852 112.25 49.5094 112.989 47.7852" stroke="#101C3D" stroke-width="0.492647"/>
  <circle cx="112.25" cy="53.9432" r="2.70956" fill="#FFF8C4" stroke="#101C3D" stroke-width="0.492647"/>
  <circle cx="111.265" cy="53.4507" r="0.492647" fill="#101C3D"/>
  <circle cx="113.235" cy="53.4507" r="0.492647" fill="#101C3D"/>
  <path d="M111.511 54.6821C111.511 54.6821 112.25 56.4064 112.989 54.6821" stroke="#101C3D" stroke-width="0.492647"/>
  <rect x="119.456" y="21.6489" width="9.41176" height="37" rx="1.75" stroke="#101C3D" stroke-width="0.5"/>
  <circle cx="124.162" cy="26.3548" r="2.70956" fill="#FFF8C4" stroke="#101C3D" stroke-width="0.492647"/>
  <circle cx="123.176" cy="25.8623" r="0.492647" fill="#101C3D"/>
  <circle cx="125.147" cy="25.8623" r="0.492647" fill="#101C3D"/>
  <path d="M123.423 27.0938C123.423 27.0938 124.162 28.818 124.901 27.0938" stroke="#101C3D" stroke-width="0.492647"/>
  <circle cx="124.162" cy="33.2518" r="2.70956" fill="#FFF8C4" stroke="#101C3D" stroke-width="0.492647"/>
  <circle cx="123.176" cy="32.7592" r="0.492647" fill="#101C3D"/>
  <circle cx="125.147" cy="32.7592" r="0.492647" fill="#101C3D"/>
  <path d="M123.423 33.9907C123.423 33.9907 124.162 35.715 124.901 33.9907" stroke="#101C3D" stroke-width="0.492647"/>
  <circle cx="124.162" cy="40.1488" r="2.70956" fill="#FFF8C4" stroke="#101C3D" stroke-width="0.492647"/>
  <circle cx="123.176" cy="39.6562" r="0.492647" fill="#101C3D"/>
  <circle cx="125.147" cy="39.6562" r="0.492647" fill="#101C3D"/>
  <path d="M123.423 40.8877C123.423 40.8877 124.162 42.612 124.901 40.8877" stroke="#101C3D" stroke-width="0.492647"/>
  <circle cx="124.162" cy="47.0462" r="2.70956" fill="#FFF8C4" stroke="#101C3D" stroke-width="0.492647"/>
  <circle cx="123.176" cy="46.5537" r="0.492647" fill="#101C3D"/>
  <circle cx="125.147" cy="46.5537" r="0.492647" fill="#101C3D"/>
  <path d="M123.423 47.7852C123.423 47.7852 124.162 49.5094 124.901 47.7852" stroke="#101C3D" stroke-width="0.492647"/>
  <circle cx="124.162" cy="53.9432" r="2.70956" fill="#FFF8C4" stroke="#101C3D" stroke-width="0.492647"/>
  <circle cx="123.176" cy="53.4507" r="0.492647" fill="#101C3D"/>
  <circle cx="125.147" cy="53.4507" r="0.492647" fill="#101C3D"/>
  <path d="M123.423 54.6821C123.423 54.6821 124.162 56.4064 124.901 54.6821" stroke="#101C3D" stroke-width="0.492647"/>
  <path opacity="0.5" d="M158.793 6.81493C158.697 7.19893 158.425 7.64293 157.977 8.14693C158.305 8.49893 158.469 8.92693 158.469 9.43093V14.3989H157.461V11.6629C157.461 11.3029 157.289 11.0189 156.945 10.8109C156.601 10.6029 156.217 10.4989 155.793 10.4989C155.369 10.4989 155.013 10.6029 154.725 10.8109C154.437 11.0109 154.293 11.2909 154.293 11.6509V12.1309C154.413 12.0909 154.529 12.0709 154.641 12.0709C154.993 12.0709 155.281 12.1869 155.505 12.4189C155.729 12.6429 155.841 12.9389 155.841 13.3069C155.841 13.6589 155.721 13.9509 155.481 14.1829C155.249 14.4069 154.945 14.5189 154.569 14.5189C154.185 14.5189 153.873 14.4029 153.633 14.1709C153.393 13.9309 153.273 13.6229 153.273 13.2469V11.6509C153.273 11.1549 153.441 10.7429 153.777 10.4149C154.113 10.0789 154.553 9.86293 155.097 9.76693C155.753 9.28693 156.289 8.81893 156.705 8.36293C156.417 8.25093 156.085 8.19493 155.709 8.19493C155.197 8.19493 154.769 8.29893 154.425 8.50693C154.081 8.71493 153.873 8.99493 153.801 9.34693H152.817C152.873 8.73893 153.161 8.25893 153.681 7.90693C154.201 7.54693 154.877 7.36693 155.709 7.36693C156.301 7.36693 156.821 7.46693 157.269 7.66693C157.469 7.35493 157.589 7.07093 157.629 6.81493H158.793ZM157.461 9.39493C157.461 9.18693 157.405 8.99493 157.293 8.81893C156.941 9.13893 156.553 9.44693 156.129 9.74293C156.689 9.81493 157.133 10.0189 157.461 10.3549V9.39493ZM155.181 13.2949C155.181 13.1349 155.129 13.0029 155.025 12.8989C154.921 12.7869 154.789 12.7309 154.629 12.7309C154.461 12.7309 154.321 12.7869 154.209 12.8989C154.105 13.0029 154.053 13.1349 154.053 13.2949C154.053 13.4549 154.105 13.5909 154.209 13.7029C154.321 13.8069 154.461 13.8589 154.629 13.8589C154.789 13.8589 154.921 13.8069 155.025 13.7029C155.129 13.5909 155.181 13.4549 155.181 13.2949ZM163.27 9.28693C163.27 8.95093 163.158 8.68693 162.934 8.49493C162.718 8.29493 162.418 8.19493 162.034 8.19493C161.634 8.19493 161.314 8.30693 161.074 8.53093C160.834 8.75493 160.714 9.05893 160.714 9.44293H159.718C159.718 8.80293 159.926 8.29893 160.342 7.93093C160.758 7.55493 161.322 7.36693 162.034 7.36693C162.73 7.36693 163.278 7.53893 163.678 7.88293C164.086 8.21893 164.29 8.67893 164.29 9.26293V14.3989H163.27V9.28693ZM171.158 7.48693V12.7429C171.158 13.2949 170.922 13.7309 170.45 14.0509C169.986 14.3629 169.35 14.5189 168.542 14.5189C167.734 14.5189 167.094 14.3629 166.622 14.0509C166.158 13.7309 165.926 13.2949 165.926 12.7429V11.9509C165.926 11.6869 165.994 11.4509 166.13 11.2429C166.266 11.0269 166.462 10.8589 166.718 10.7389C166.414 10.6029 166.186 10.3869 166.034 10.0909C165.89 9.78693 165.818 9.45093 165.818 9.08293C165.818 8.56293 165.954 8.14693 166.226 7.83493C166.506 7.52293 166.878 7.36693 167.342 7.36693C167.71 7.36693 168.002 7.46693 168.218 7.66693C168.434 7.86693 168.542 8.13493 168.542 8.47093C168.542 8.79893 168.442 9.05893 168.242 9.25093C168.042 9.44293 167.77 9.53893 167.426 9.53893C167.154 9.53893 166.938 9.47493 166.778 9.34693C166.786 9.63493 166.874 9.87493 167.042 10.0669C167.218 10.2509 167.43 10.3429 167.678 10.3429H168.806V11.1589H167.666C167.458 11.1589 167.286 11.2309 167.15 11.3749C167.014 11.5189 166.946 11.7109 166.946 11.9509V12.6709C166.946 12.9909 167.086 13.2429 167.366 13.4269C167.654 13.6029 168.046 13.6909 168.542 13.6909C169.038 13.6909 169.426 13.6029 169.706 13.4269C169.994 13.2429 170.138 12.9909 170.138 12.6709V7.48693H171.158ZM167.402 7.93093C167.25 7.93093 167.122 7.97893 167.018 8.07493C166.922 8.17093 166.874 8.29893 166.874 8.45893C166.874 8.61093 166.922 8.73893 167.018 8.84293C167.122 8.93893 167.25 8.98693 167.402 8.98693C167.562 8.98693 167.69 8.93893 167.786 8.84293C167.882 8.73893 167.93 8.61093 167.93 8.45893C167.93 8.29893 167.882 8.17093 167.786 8.07493C167.69 7.97893 167.562 7.93093 167.402 7.93093ZM178.459 7.36693C179.339 7.36693 180.035 7.57493 180.547 7.99093C181.059 8.39893 181.315 8.95493 181.315 9.65893V14.3989H180.295V9.75493C180.295 9.27493 180.131 8.89493 179.803 8.61493C179.475 8.33493 179.027 8.19493 178.459 8.19493C177.843 8.19493 177.355 8.35093 176.995 8.66293C176.643 8.97493 176.467 9.39493 176.467 9.92293C176.467 10.0989 176.487 10.3189 176.527 10.5829C176.575 10.8389 176.607 11.0029 176.623 11.0749C176.647 11.1709 176.675 11.3149 176.707 11.5069C176.835 10.9149 177.047 10.4389 177.343 10.0789C177.647 9.71093 178.015 9.52693 178.447 9.52693C178.799 9.52693 179.079 9.62293 179.287 9.81493C179.495 9.99893 179.599 10.2589 179.599 10.5949C179.599 10.9149 179.499 11.1789 179.299 11.3869C179.099 11.5869 178.839 11.6869 178.519 11.6869C178.335 11.6869 178.155 11.6469 177.979 11.5669C177.811 11.4789 177.683 11.3549 177.595 11.1949C177.435 11.4429 177.299 11.7509 177.187 12.1189C177.075 12.4869 177.019 12.8309 177.019 13.1509V14.3989H176.011V12.6829C176.011 12.5629 175.987 12.3949 175.939 12.1789C175.891 11.9629 175.839 11.7429 175.783 11.5189C175.575 10.7669 175.471 10.2189 175.471 9.87493C175.471 9.10693 175.739 8.49893 176.275 8.05093C176.811 7.59493 177.539 7.36693 178.459 7.36693ZM178.495 10.0909C178.343 10.0909 178.219 10.1389 178.123 10.2349C178.035 10.3229 177.991 10.4429 177.991 10.5949C177.991 10.7469 178.035 10.8709 178.123 10.9669C178.219 11.0629 178.343 11.1109 178.495 11.1109C178.647 11.1109 178.767 11.0629 178.855 10.9669C178.951 10.8709 178.999 10.7469 178.999 10.5949C178.999 10.4429 178.951 10.3229 178.855 10.2349C178.767 10.1389 178.647 10.0909 178.495 10.0909ZM183.71 14.5189C183.486 14.5189 183.306 14.4469 183.17 14.3029C183.034 14.1509 182.966 13.9589 182.966 13.7269C182.966 13.4949 183.034 13.3069 183.17 13.1629C183.306 13.0189 183.486 12.9469 183.71 12.9469C183.934 12.9469 184.114 13.0189 184.25 13.1629C184.386 13.3069 184.454 13.4949 184.454 13.7269C184.454 13.9589 184.386 14.1509 184.25 14.3029C184.114 14.4469 183.934 14.5189 183.71 14.5189Z" fill="#101C3D"/>
  <rect x="137.618" y="18.8989" width="62.5588" height="42.5" rx="2.5" stroke="#D4D4D4"/>
  <rect x="140.368" y="21.6489" width="9.41176" height="37" rx="1.75" stroke="#101C3D" stroke-width="0.5"/>
  <circle cx="145.074" cy="26.3548" r="2.70956" fill="#FFF8C4" stroke="#101C3D" stroke-width="0.492647"/>
  <circle cx="144.088" cy="25.8623" r="0.492647" fill="#101C3D"/>
  <circle cx="146.059" cy="25.8623" r="0.492647" fill="#101C3D"/>
  <path d="M144.334 27.0938C144.334 27.0938 145.073 28.818 145.812 27.0938" stroke="#101C3D" stroke-width="0.492647"/>
  <circle cx="145.074" cy="33.2518" r="2.70956" fill="#FFF8C4" stroke="#101C3D" stroke-width="0.492647"/>
  <circle cx="144.088" cy="32.7592" r="0.492647" fill="#101C3D"/>
  <circle cx="146.059" cy="32.7592" r="0.492647" fill="#101C3D"/>
  <path d="M144.334 33.9907C144.334 33.9907 145.073 35.715 145.812 33.9907" stroke="#101C3D" stroke-width="0.492647"/>
  <circle cx="145.074" cy="40.1488" r="2.70956" fill="#FFF8C4" stroke="#101C3D" stroke-width="0.492647"/>
  <circle cx="144.088" cy="39.6562" r="0.492647" fill="#101C3D"/>
  <circle cx="146.059" cy="39.6562" r="0.492647" fill="#101C3D"/>
  <path d="M144.334 40.8877C144.334 40.8877 145.073 42.612 145.812 40.8877" stroke="#101C3D" stroke-width="0.492647"/>
  <circle cx="145.074" cy="47.0462" r="2.70956" fill="#FFF8C4" stroke="#101C3D" stroke-width="0.492647"/>
  <circle cx="144.088" cy="46.5537" r="0.492647" fill="#101C3D"/>
  <circle cx="146.059" cy="46.5537" r="0.492647" fill="#101C3D"/>
  <path d="M144.334 47.7852C144.334 47.7852 145.073 49.5094 145.812 47.7852" stroke="#101C3D" stroke-width="0.492647"/>
  <circle cx="145.074" cy="53.9432" r="2.70956" fill="#FFF8C4" stroke="#101C3D" stroke-width="0.492647"/>
  <circle cx="144.088" cy="53.4507" r="0.492647" fill="#101C3D"/>
  <circle cx="146.059" cy="53.4507" r="0.492647" fill="#101C3D"/>
  <path d="M144.334 54.6821C144.334 54.6821 145.073 56.4064 145.812 54.6821" stroke="#101C3D" stroke-width="0.492647"/>
  <rect x="152.28" y="21.6489" width="9.41176" height="37" rx="1.75" stroke="#101C3D" stroke-width="0.5"/>
  <circle cx="156.985" cy="26.3548" r="2.70956" fill="#FFF8C4" stroke="#101C3D" stroke-width="0.492647"/>
  <circle cx="156" cy="25.8623" r="0.492647" fill="#101C3D"/>
  <circle cx="157.971" cy="25.8623" r="0.492647" fill="#101C3D"/>
  <path d="M156.246 27.0938C156.246 27.0938 156.985 28.818 157.724 27.0938" stroke="#101C3D" stroke-width="0.492647"/>
  <circle cx="156.985" cy="33.2518" r="2.70956" fill="#FFF8C4" stroke="#101C3D" stroke-width="0.492647"/>
  <circle cx="156" cy="32.7592" r="0.492647" fill="#101C3D"/>
  <circle cx="157.971" cy="32.7592" r="0.492647" fill="#101C3D"/>
  <path d="M156.246 33.9907C156.246 33.9907 156.985 35.715 157.724 33.9907" stroke="#101C3D" stroke-width="0.492647"/>
  <circle cx="156.985" cy="40.1488" r="2.70956" fill="#FFF8C4" stroke="#101C3D" stroke-width="0.492647"/>
  <circle cx="156" cy="39.6562" r="0.492647" fill="#101C3D"/>
  <circle cx="157.971" cy="39.6562" r="0.492647" fill="#101C3D"/>
  <path d="M156.246 40.8877C156.246 40.8877 156.985 42.612 157.724 40.8877" stroke="#101C3D" stroke-width="0.492647"/>
  <circle cx="156.985" cy="47.0462" r="2.70956" fill="#FFF8C4" stroke="#101C3D" stroke-width="0.492647"/>
  <circle cx="156" cy="46.5537" r="0.492647" fill="#101C3D"/>
  <circle cx="157.971" cy="46.5537" r="0.492647" fill="#101C3D"/>
  <path d="M156.246 47.7852C156.246 47.7852 156.985 49.5094 157.724 47.7852" stroke="#101C3D" stroke-width="0.492647"/>
  <circle cx="156.985" cy="53.9432" r="2.70956" fill="#FFF8C4" stroke="#101C3D" stroke-width="0.492647"/>
  <circle cx="156" cy="53.4507" r="0.492647" fill="#101C3D"/>
  <circle cx="157.971" cy="53.4507" r="0.492647" fill="#101C3D"/>
  <path d="M156.246 54.6821C156.246 54.6821 156.985 56.4064 157.724 54.6821" stroke="#101C3D" stroke-width="0.492647"/>
  <rect x="164.191" y="21.6489" width="9.41176" height="37" rx="1.75" stroke="#101C3D" stroke-width="0.5"/>
  <circle cx="168.897" cy="26.3548" r="2.70956" fill="#FFF8C4" stroke="#101C3D" stroke-width="0.492647"/>
  <circle cx="167.912" cy="25.8623" r="0.492647" fill="#101C3D"/>
  <circle cx="169.882" cy="25.8623" r="0.492647" fill="#101C3D"/>
  <path d="M168.158 27.0938C168.158 27.0938 168.897 28.818 169.636 27.0938" stroke="#101C3D" stroke-width="0.492647"/>
  <circle cx="168.897" cy="33.2518" r="2.70956" fill="#FFF8C4" stroke="#101C3D" stroke-width="0.492647"/>
  <circle cx="167.912" cy="32.7592" r="0.492647" fill="#101C3D"/>
  <circle cx="169.882" cy="32.7592" r="0.492647" fill="#101C3D"/>
  <path d="M168.158 33.9907C168.158 33.9907 168.897 35.715 169.636 33.9907" stroke="#101C3D" stroke-width="0.492647"/>
  <circle cx="168.897" cy="40.1488" r="2.70956" fill="#FFF8C4" stroke="#101C3D" stroke-width="0.492647"/>
  <circle cx="167.912" cy="39.6562" r="0.492647" fill="#101C3D"/>
  <circle cx="169.882" cy="39.6562" r="0.492647" fill="#101C3D"/>
  <path d="M168.158 40.8877C168.158 40.8877 168.897 42.612 169.636 40.8877" stroke="#101C3D" stroke-width="0.492647"/>
  <circle cx="168.897" cy="47.0462" r="2.70956" fill="#FFF8C4" stroke="#101C3D" stroke-width="0.492647"/>
  <circle cx="167.912" cy="46.5537" r="0.492647" fill="#101C3D"/>
  <circle cx="169.882" cy="46.5537" r="0.492647" fill="#101C3D"/>
  <path d="M168.158 47.7852C168.158 47.7852 168.897 49.5094 169.636 47.7852" stroke="#101C3D" stroke-width="0.492647"/>
  <circle cx="168.897" cy="53.9432" r="2.70956" fill="#FFF8C4" stroke="#101C3D" stroke-width="0.492647"/>
  <circle cx="167.912" cy="53.4507" r="0.492647" fill="#101C3D"/>
  <circle cx="169.882" cy="53.4507" r="0.492647" fill="#101C3D"/>
  <path d="M168.158 54.6821C168.158 54.6821 168.897 56.4064 169.636 54.6821" stroke="#101C3D" stroke-width="0.492647"/>
  <rect x="176.103" y="21.6489" width="9.41176" height="37" rx="1.75" stroke="#101C3D" stroke-width="0.5"/>
  <circle cx="180.809" cy="26.3548" r="2.70956" fill="#FFF8C4" stroke="#101C3D" stroke-width="0.492647"/>
  <circle cx="179.824" cy="25.8623" r="0.492647" fill="#101C3D"/>
  <circle cx="181.794" cy="25.8623" r="0.492647" fill="#101C3D"/>
  <path d="M180.07 27.0938C180.07 27.0938 180.809 28.818 181.548 27.0938" stroke="#101C3D" stroke-width="0.492647"/>
  <circle cx="180.809" cy="33.2518" r="2.70956" fill="#FFF8C4" stroke="#101C3D" stroke-width="0.492647"/>
  <circle cx="179.824" cy="32.7592" r="0.492647" fill="#101C3D"/>
  <circle cx="181.794" cy="32.7592" r="0.492647" fill="#101C3D"/>
  <path d="M180.07 33.9907C180.07 33.9907 180.809 35.715 181.548 33.9907" stroke="#101C3D" stroke-width="0.492647"/>
  <circle cx="180.809" cy="40.1488" r="2.70956" fill="#FFF8C4" stroke="#101C3D" stroke-width="0.492647"/>
  <circle cx="179.824" cy="39.6562" r="0.492647" fill="#101C3D"/>
  <circle cx="181.794" cy="39.6562" r="0.492647" fill="#101C3D"/>
  <path d="M180.07 40.8877C180.07 40.8877 180.809 42.612 181.548 40.8877" stroke="#101C3D" stroke-width="0.492647"/>
  <circle cx="180.809" cy="47.0462" r="2.70956" fill="#FFF8C4" stroke="#101C3D" stroke-width="0.492647"/>
  <circle cx="179.824" cy="46.5537" r="0.492647" fill="#101C3D"/>
  <circle cx="181.794" cy="46.5537" r="0.492647" fill="#101C3D"/>
  <path d="M180.07 47.7852C180.07 47.7852 180.809 49.5094 181.548 47.7852" stroke="#101C3D" stroke-width="0.492647"/>
  <circle cx="180.809" cy="53.9432" r="2.70956" fill="#FFF8C4" stroke="#101C3D" stroke-width="0.492647"/>
  <circle cx="179.824" cy="53.4507" r="0.492647" fill="#101C3D"/>
  <circle cx="181.794" cy="53.4507" r="0.492647" fill="#101C3D"/>
  <path d="M180.07 54.6821C180.07 54.6821 180.809 56.4064 181.548 54.6821" stroke="#101C3D" stroke-width="0.492647"/>
  <rect x="188.015" y="21.6489" width="9.41176" height="37" rx="1.75" stroke="#101C3D" stroke-width="0.5"/>
  <circle cx="192.721" cy="26.3548" r="2.70956" fill="#FFF8C4" stroke="#101C3D" stroke-width="0.492647"/>
  <circle cx="191.735" cy="25.8623" r="0.492647" fill="#101C3D"/>
  <circle cx="193.706" cy="25.8623" r="0.492647" fill="#101C3D"/>
  <path d="M191.981 27.0938C191.981 27.0938 192.72 28.818 193.459 27.0938" stroke="#101C3D" stroke-width="0.492647"/>
  <circle cx="192.721" cy="33.2518" r="2.70956" fill="#FFF8C4" stroke="#101C3D" stroke-width="0.492647"/>
  <circle cx="191.735" cy="32.7592" r="0.492647" fill="#101C3D"/>
  <circle cx="193.706" cy="32.7592" r="0.492647" fill="#101C3D"/>
  <path d="M191.981 33.9907C191.981 33.9907 192.72 35.715 193.459 33.9907" stroke="#101C3D" stroke-width="0.492647"/>
  <circle cx="192.721" cy="40.1488" r="2.70956" fill="#FFF8C4" stroke="#101C3D" stroke-width="0.492647"/>
  <circle cx="191.735" cy="39.6562" r="0.492647" fill="#101C3D"/>
  <circle cx="193.706" cy="39.6562" r="0.492647" fill="#101C3D"/>
  <path d="M191.981 40.8877C191.981 40.8877 192.72 42.612 193.459 40.8877" stroke="#101C3D" stroke-width="0.492647"/>
  <circle cx="192.721" cy="47.0462" r="2.70956" fill="#FFF8C4" stroke="#101C3D" stroke-width="0.492647"/>
  <circle cx="191.735" cy="46.5537" r="0.492647" fill="#101C3D"/>
  <circle cx="193.706" cy="46.5537" r="0.492647" fill="#101C3D"/>
  <path d="M191.981 47.7852C191.981 47.7852 192.72 49.5094 193.459 47.7852" stroke="#101C3D" stroke-width="0.492647"/>
  <circle cx="192.721" cy="53.9432" r="2.70956" fill="#FFF8C4" stroke="#101C3D" stroke-width="0.492647"/>
  <circle cx="191.735" cy="53.4507" r="0.492647" fill="#101C3D"/>
  <circle cx="193.706" cy="53.4507" r="0.492647" fill="#101C3D"/>
  <path d="M191.981 54.6821C191.981 54.6821 192.72 56.4064 193.459 54.6821" stroke="#101C3D" stroke-width="0.492647"/>
  <path opacity="0.5" d="M227.852 6.81493C227.756 7.19893 227.484 7.64293 227.036 8.14693C227.364 8.49893 227.528 8.92693 227.528 9.43093V14.3989H226.52V11.6629C226.52 11.3029 226.348 11.0189 226.004 10.8109C225.66 10.6029 225.276 10.4989 224.852 10.4989C224.428 10.4989 224.072 10.6029 223.784 10.8109C223.496 11.0109 223.352 11.2909 223.352 11.6509V12.1309C223.472 12.0909 223.588 12.0709 223.7 12.0709C224.052 12.0709 224.34 12.1869 224.564 12.4189C224.788 12.6429 224.9 12.9389 224.9 13.3069C224.9 13.6589 224.78 13.9509 224.54 14.1829C224.308 14.4069 224.004 14.5189 223.628 14.5189C223.244 14.5189 222.932 14.4029 222.692 14.1709C222.452 13.9309 222.332 13.6229 222.332 13.2469V11.6509C222.332 11.1549 222.5 10.7429 222.836 10.4149C223.172 10.0789 223.612 9.86293 224.156 9.76693C224.812 9.28693 225.348 8.81893 225.764 8.36293C225.476 8.25093 225.144 8.19493 224.768 8.19493C224.256 8.19493 223.828 8.29893 223.484 8.50693C223.14 8.71493 222.932 8.99493 222.86 9.34693H221.876C221.932 8.73893 222.22 8.25893 222.74 7.90693C223.26 7.54693 223.936 7.36693 224.768 7.36693C225.36 7.36693 225.88 7.46693 226.328 7.66693C226.528 7.35493 226.648 7.07093 226.688 6.81493H227.852ZM226.52 9.39493C226.52 9.18693 226.464 8.99493 226.352 8.81893C226 9.13893 225.612 9.44693 225.188 9.74293C225.748 9.81493 226.192 10.0189 226.52 10.3549V9.39493ZM224.24 13.2949C224.24 13.1349 224.188 13.0029 224.084 12.8989C223.98 12.7869 223.848 12.7309 223.688 12.7309C223.52 12.7309 223.38 12.7869 223.268 12.8989C223.164 13.0029 223.112 13.1349 223.112 13.2949C223.112 13.4549 223.164 13.5909 223.268 13.7029C223.38 13.8069 223.52 13.8589 223.688 13.8589C223.848 13.8589 223.98 13.8069 224.084 13.7029C224.188 13.5909 224.24 13.4549 224.24 13.2949ZM232.329 9.28693C232.329 8.95093 232.217 8.68693 231.993 8.49493C231.777 8.29493 231.477 8.19493 231.093 8.19493C230.693 8.19493 230.373 8.30693 230.133 8.53093C229.893 8.75493 229.773 9.05893 229.773 9.44293H228.777C228.777 8.80293 228.985 8.29893 229.401 7.93093C229.817 7.55493 230.381 7.36693 231.093 7.36693C231.789 7.36693 232.337 7.53893 232.737 7.88293C233.145 8.21893 233.349 8.67893 233.349 9.26293V14.3989H232.329V9.28693ZM240.217 7.48693V12.7429C240.217 13.2949 239.981 13.7309 239.509 14.0509C239.045 14.3629 238.409 14.5189 237.601 14.5189C236.793 14.5189 236.153 14.3629 235.681 14.0509C235.217 13.7309 234.985 13.2949 234.985 12.7429V11.9509C234.985 11.6869 235.053 11.4509 235.189 11.2429C235.325 11.0269 235.521 10.8589 235.777 10.7389C235.473 10.6029 235.245 10.3869 235.093 10.0909C234.949 9.78693 234.877 9.45093 234.877 9.08293C234.877 8.56293 235.013 8.14693 235.285 7.83493C235.565 7.52293 235.937 7.36693 236.401 7.36693C236.769 7.36693 237.061 7.46693 237.277 7.66693C237.493 7.86693 237.601 8.13493 237.601 8.47093C237.601 8.79893 237.501 9.05893 237.301 9.25093C237.101 9.44293 236.829 9.53893 236.485 9.53893C236.213 9.53893 235.997 9.47493 235.837 9.34693C235.845 9.63493 235.933 9.87493 236.101 10.0669C236.277 10.2509 236.489 10.3429 236.737 10.3429H237.865V11.1589H236.725C236.517 11.1589 236.345 11.2309 236.209 11.3749C236.073 11.5189 236.005 11.7109 236.005 11.9509V12.6709C236.005 12.9909 236.145 13.2429 236.425 13.4269C236.713 13.6029 237.105 13.6909 237.601 13.6909C238.097 13.6909 238.485 13.6029 238.765 13.4269C239.053 13.2429 239.197 12.9909 239.197 12.6709V7.48693H240.217ZM236.461 7.93093C236.309 7.93093 236.181 7.97893 236.077 8.07493C235.981 8.17093 235.933 8.29893 235.933 8.45893C235.933 8.61093 235.981 8.73893 236.077 8.84293C236.181 8.93893 236.309 8.98693 236.461 8.98693C236.621 8.98693 236.749 8.93893 236.845 8.84293C236.941 8.73893 236.989 8.61093 236.989 8.45893C236.989 8.29893 236.941 8.17093 236.845 8.07493C236.749 7.97893 236.621 7.93093 236.461 7.93093ZM247.278 7.36693C247.662 7.36693 247.974 7.48693 248.214 7.72693C248.462 7.95893 248.586 8.26293 248.586 8.63893V14.3989H247.578L244.278 10.7989L244.842 10.1869L247.566 13.1389V9.75493C247.446 9.79493 247.33 9.81493 247.218 9.81493C246.866 9.81493 246.574 9.70293 246.342 9.47893C246.118 9.24693 246.006 8.94693 246.006 8.57893C246.006 8.22693 246.126 7.93893 246.366 7.71493C246.606 7.48293 246.91 7.36693 247.278 7.36693ZM246.666 8.59093C246.666 8.75093 246.718 8.88693 246.822 8.99893C246.934 9.10293 247.07 9.15493 247.23 9.15493C247.398 9.15493 247.534 9.10293 247.638 8.99893C247.742 8.88693 247.794 8.75093 247.794 8.59093C247.794 8.43093 247.742 8.29893 247.638 8.19493C247.534 8.08293 247.398 8.02693 247.23 8.02693C247.07 8.02693 246.934 8.08293 246.822 8.19493C246.718 8.29893 246.666 8.43093 246.666 8.59093ZM250.987 14.5189C250.763 14.5189 250.583 14.4469 250.447 14.3029C250.311 14.1509 250.243 13.9589 250.243 13.7269C250.243 13.4949 250.311 13.3069 250.447 13.1629C250.583 13.0189 250.763 12.9469 250.987 12.9469C251.211 12.9469 251.391 13.0189 251.527 13.1629C251.663 13.3069 251.731 13.4949 251.731 13.7269C251.731 13.9589 251.663 14.1509 251.527 14.3029C251.391 14.4469 251.211 14.5189 250.987 14.5189Z" fill="#101C3D"/>
  <rect x="206.177" y="18.8989" width="62.5588" height="42.5" rx="2.5" stroke="#D4D4D4"/>
  <rect x="208.927" y="21.6489" width="9.41176" height="37" rx="1.75" stroke="#101C3D" stroke-width="0.5"/>
  <circle cx="213.632" cy="26.3548" r="2.70956" fill="#FFF8C4" stroke="#101C3D" stroke-width="0.492647"/>
  <circle cx="212.647" cy="25.8623" r="0.492647" fill="#101C3D"/>
  <circle cx="214.618" cy="25.8623" r="0.492647" fill="#101C3D"/>
  <path d="M212.893 27.0938C212.893 27.0938 213.632 28.818 214.371 27.0938" stroke="#101C3D" stroke-width="0.492647"/>
  <circle cx="213.632" cy="33.2518" r="2.70956" fill="#FFF8C4" stroke="#101C3D" stroke-width="0.492647"/>
  <circle cx="212.647" cy="32.7592" r="0.492647" fill="#101C3D"/>
  <circle cx="214.618" cy="32.7592" r="0.492647" fill="#101C3D"/>
  <path d="M212.893 33.9907C212.893 33.9907 213.632 35.715 214.371 33.9907" stroke="#101C3D" stroke-width="0.492647"/>
  <circle cx="213.632" cy="40.1488" r="2.70956" fill="#FFF8C4" stroke="#101C3D" stroke-width="0.492647"/>
  <circle cx="212.647" cy="39.6562" r="0.492647" fill="#101C3D"/>
  <circle cx="214.618" cy="39.6562" r="0.492647" fill="#101C3D"/>
  <path d="M212.893 40.8877C212.893 40.8877 213.632 42.612 214.371 40.8877" stroke="#101C3D" stroke-width="0.492647"/>
  <circle cx="213.632" cy="47.0462" r="2.70956" fill="#FFF8C4" stroke="#101C3D" stroke-width="0.492647"/>
  <circle cx="212.647" cy="46.5537" r="0.492647" fill="#101C3D"/>
  <circle cx="214.618" cy="46.5537" r="0.492647" fill="#101C3D"/>
  <path d="M212.893 47.7852C212.893 47.7852 213.632 49.5094 214.371 47.7852" stroke="#101C3D" stroke-width="0.492647"/>
  <circle cx="213.632" cy="53.9432" r="2.70956" fill="#FFF8C4" stroke="#101C3D" stroke-width="0.492647"/>
  <circle cx="212.647" cy="53.4507" r="0.492647" fill="#101C3D"/>
  <circle cx="214.618" cy="53.4507" r="0.492647" fill="#101C3D"/>
  <path d="M212.893 54.6821C212.893 54.6821 213.632 56.4064 214.371 54.6821" stroke="#101C3D" stroke-width="0.492647"/>
  <rect x="220.838" y="21.6489" width="9.41176" height="37" rx="1.75" stroke="#101C3D" stroke-width="0.5"/>
  <circle cx="225.544" cy="26.3548" r="2.70956" fill="#FFF8C4" stroke="#101C3D" stroke-width="0.492647"/>
  <circle cx="224.559" cy="25.8623" r="0.492647" fill="#101C3D"/>
  <circle cx="226.53" cy="25.8623" r="0.492647" fill="#101C3D"/>
  <path d="M224.805 27.0938C224.805 27.0938 225.544 28.818 226.283 27.0938" stroke="#101C3D" stroke-width="0.492647"/>
  <circle cx="225.544" cy="33.2518" r="2.70956" fill="#FFF8C4" stroke="#101C3D" stroke-width="0.492647"/>
  <circle cx="224.559" cy="32.7592" r="0.492647" fill="#101C3D"/>
  <circle cx="226.53" cy="32.7592" r="0.492647" fill="#101C3D"/>
  <path d="M224.805 33.9907C224.805 33.9907 225.544 35.715 226.283 33.9907" stroke="#101C3D" stroke-width="0.492647"/>
  <circle cx="225.544" cy="40.1488" r="2.70956" fill="#FFF8C4" stroke="#101C3D" stroke-width="0.492647"/>
  <circle cx="224.559" cy="39.6562" r="0.492647" fill="#101C3D"/>
  <circle cx="226.53" cy="39.6562" r="0.492647" fill="#101C3D"/>
  <path d="M224.805 40.8877C224.805 40.8877 225.544 42.612 226.283 40.8877" stroke="#101C3D" stroke-width="0.492647"/>
  <circle cx="225.544" cy="47.0462" r="2.70956" fill="#FFF8C4" stroke="#101C3D" stroke-width="0.492647"/>
  <circle cx="224.559" cy="46.5537" r="0.492647" fill="#101C3D"/>
  <circle cx="226.53" cy="46.5537" r="0.492647" fill="#101C3D"/>
  <path d="M224.805 47.7852C224.805 47.7852 225.544 49.5094 226.283 47.7852" stroke="#101C3D" stroke-width="0.492647"/>
  <circle cx="225.544" cy="53.9432" r="2.70956" fill="#FFF8C4" stroke="#101C3D" stroke-width="0.492647"/>
  <circle cx="224.559" cy="53.4507" r="0.492647" fill="#101C3D"/>
  <circle cx="226.53" cy="53.4507" r="0.492647" fill="#101C3D"/>
  <path d="M224.805 54.6821C224.805 54.6821 225.544 56.4064 226.283 54.6821" stroke="#101C3D" stroke-width="0.492647"/>
  <rect x="232.75" y="21.6489" width="9.41176" height="37" rx="1.75" stroke="#101C3D" stroke-width="0.5"/>
  <circle cx="237.456" cy="26.3548" r="2.70956" fill="#FFF8C4" stroke="#101C3D" stroke-width="0.492647"/>
  <circle cx="236.471" cy="25.8623" r="0.492647" fill="#101C3D"/>
  <circle cx="238.441" cy="25.8623" r="0.492647" fill="#101C3D"/>
  <path d="M236.717 27.0938C236.717 27.0938 237.456 28.818 238.195 27.0938" stroke="#101C3D" stroke-width="0.492647"/>
  <circle cx="237.456" cy="33.2518" r="2.70956" fill="#FFF8C4" stroke="#101C3D" stroke-width="0.492647"/>
  <circle cx="236.471" cy="32.7592" r="0.492647" fill="#101C3D"/>
  <circle cx="238.441" cy="32.7592" r="0.492647" fill="#101C3D"/>
  <path d="M236.717 33.9907C236.717 33.9907 237.456 35.715 238.195 33.9907" stroke="#101C3D" stroke-width="0.492647"/>
  <circle cx="237.456" cy="40.1488" r="2.70956" fill="#FFF8C4" stroke="#101C3D" stroke-width="0.492647"/>
  <circle cx="236.471" cy="39.6562" r="0.492647" fill="#101C3D"/>
  <circle cx="238.441" cy="39.6562" r="0.492647" fill="#101C3D"/>
  <path d="M236.717 40.8877C236.717 40.8877 237.456 42.612 238.195 40.8877" stroke="#101C3D" stroke-width="0.492647"/>
  <circle cx="237.456" cy="47.0462" r="2.70956" fill="#FFF8C4" stroke="#101C3D" stroke-width="0.492647"/>
  <circle cx="236.471" cy="46.5537" r="0.492647" fill="#101C3D"/>
  <circle cx="238.441" cy="46.5537" r="0.492647" fill="#101C3D"/>
  <path d="M236.717 47.7852C236.717 47.7852 237.456 49.5094 238.195 47.7852" stroke="#101C3D" stroke-width="0.492647"/>
  <circle cx="237.456" cy="53.9432" r="2.70956" fill="#FFF8C4" stroke="#101C3D" stroke-width="0.492647"/>
  <circle cx="236.471" cy="53.4507" r="0.492647" fill="#101C3D"/>
  <circle cx="238.441" cy="53.4507" r="0.492647" fill="#101C3D"/>
  <path d="M236.717 54.6821C236.717 54.6821 237.456 56.4064 238.195 54.6821" stroke="#101C3D" stroke-width="0.492647"/>
  <rect x="244.662" y="21.6489" width="9.41176" height="37" rx="1.75" stroke="#101C3D" stroke-width="0.5"/>
  <circle cx="249.368" cy="26.3548" r="2.70956" fill="#FFF8C4" stroke="#101C3D" stroke-width="0.492647"/>
  <circle cx="248.383" cy="25.8623" r="0.492647" fill="#101C3D"/>
  <circle cx="250.353" cy="25.8623" r="0.492647" fill="#101C3D"/>
  <path d="M248.629 27.0938C248.629 27.0938 249.368 28.818 250.107 27.0938" stroke="#101C3D" stroke-width="0.492647"/>
  <circle cx="249.368" cy="33.2518" r="2.70956" fill="#FFF8C4" stroke="#101C3D" stroke-width="0.492647"/>
  <circle cx="248.383" cy="32.7592" r="0.492647" fill="#101C3D"/>
  <circle cx="250.353" cy="32.7592" r="0.492647" fill="#101C3D"/>
  <path d="M248.629 33.9907C248.629 33.9907 249.368 35.715 250.107 33.9907" stroke="#101C3D" stroke-width="0.492647"/>
  <circle cx="249.368" cy="40.1488" r="2.70956" fill="#FFF8C4" stroke="#101C3D" stroke-width="0.492647"/>
  <circle cx="248.383" cy="39.6562" r="0.492647" fill="#101C3D"/>
  <circle cx="250.353" cy="39.6562" r="0.492647" fill="#101C3D"/>
  <path d="M248.629 40.8877C248.629 40.8877 249.368 42.612 250.107 40.8877" stroke="#101C3D" stroke-width="0.492647"/>
  <circle cx="249.368" cy="47.0462" r="2.70956" fill="#FFF8C4" stroke="#101C3D" stroke-width="0.492647"/>
  <circle cx="248.383" cy="46.5537" r="0.492647" fill="#101C3D"/>
  <circle cx="250.353" cy="46.5537" r="0.492647" fill="#101C3D"/>
  <path d="M248.629 47.7852C248.629 47.7852 249.368 49.5094 250.107 47.7852" stroke="#101C3D" stroke-width="0.492647"/>
  <circle cx="249.368" cy="53.9432" r="2.70956" fill="#FFF8C4" stroke="#101C3D" stroke-width="0.492647"/>
  <circle cx="248.383" cy="53.4507" r="0.492647" fill="#101C3D"/>
  <circle cx="250.353" cy="53.4507" r="0.492647" fill="#101C3D"/>
  <path d="M248.629 54.6821C248.629 54.6821 249.368 56.4064 250.107 54.6821" stroke="#101C3D" stroke-width="0.492647"/>
  <rect x="256.573" y="21.6489" width="9.41176" height="37" rx="1.75" stroke="#101C3D" stroke-width="0.5"/>
  <circle cx="261.279" cy="26.3548" r="2.70956" fill="#FFF8C4" stroke="#101C3D" stroke-width="0.492647"/>
  <circle cx="260.294" cy="25.8623" r="0.492647" fill="#101C3D"/>
  <circle cx="262.265" cy="25.8623" r="0.492647" fill="#101C3D"/>
  <path d="M260.54 27.0938C260.54 27.0938 261.279 28.818 262.018 27.0938" stroke="#101C3D" stroke-width="0.492647"/>
  <circle cx="261.279" cy="33.2518" r="2.70956" fill="#FFF8C4" stroke="#101C3D" stroke-width="0.492647"/>
  <circle cx="260.294" cy="32.7592" r="0.492647" fill="#101C3D"/>
  <circle cx="262.265" cy="32.7592" r="0.492647" fill="#101C3D"/>
  <path d="M260.54 33.9907C260.54 33.9907 261.279 35.715 262.018 33.9907" stroke="#101C3D" stroke-width="0.492647"/>
  <circle cx="261.279" cy="40.1488" r="2.70956" fill="#FFF8C4" stroke="#101C3D" stroke-width="0.492647"/>
  <circle cx="260.294" cy="39.6562" r="0.492647" fill="#101C3D"/>
  <circle cx="262.265" cy="39.6562" r="0.492647" fill="#101C3D"/>
  <path d="M260.54 40.8877C260.54 40.8877 261.279 42.612 262.018 40.8877" stroke="#101C3D" stroke-width="0.492647"/>
  <circle cx="261.279" cy="47.0462" r="2.70956" fill="#FFF8C4" stroke="#101C3D" stroke-width="0.492647"/>
  <circle cx="260.294" cy="46.5537" r="0.492647" fill="#101C3D"/>
  <circle cx="262.265" cy="46.5537" r="0.492647" fill="#101C3D"/>
  <path d="M260.54 47.7852C260.54 47.7852 261.279 49.5094 262.018 47.7852" stroke="#101C3D" stroke-width="0.492647"/>
  <circle cx="261.279" cy="53.9432" r="2.70956" fill="#FFF8C4" stroke="#101C3D" stroke-width="0.492647"/>
  <circle cx="260.294" cy="53.4507" r="0.492647" fill="#101C3D"/>
  <circle cx="262.265" cy="53.4507" r="0.492647" fill="#101C3D"/>
  <path d="M260.54 54.6821C260.54 54.6821 261.279 56.4064 262.018 54.6821" stroke="#101C3D" stroke-width="0.492647"/>
  <rect x="251" y="62.2412" width="61.9472" height="17" transform="rotate(-90 251 62.2412)" fill="url(#paint0_linear_71_2834)"/>
  </g>
  <defs>
  <linearGradient id="paint0_linear_71_2834" x1="281.974" y1="62.2412" x2="281.974" y2="79.2412" gradientUnits="userSpaceOnUse">
  <stop stop-color="white" stop-opacity="0"/>
  <stop offset="1" stop-color="white"/>
  </linearGradient>
  <clipPath id="clip0_71_2834">
  <rect width="268" height="61.5" fill="white" transform="translate(0 0.398926)"/>
  </clipPath>
  </defs>
  </svg>
  