<svg width="268" height="62" viewBox="0 0 268 62" fill="none" xmlns="http://www.w3.org/2000/svg">
  <g clip-path="url(#clip0_71_2834)">
  <path opacity="0.5" d="M23.1754 6.81493C23.0794 7.19893 22.8074 7.64293 22.3594 8.14693C22.6874 8.49893 22.8514 8.92693 22.8514 9.43093V14.3989H21.8434V11.6629C21.8434 11.3029 21.6714 11.0189 21.3274 10.8109C20.9834 10.6029 20.5994 10.4989 20.1754 10.4989C19.7514 10.4989 19.3954 10.6029 19.1074 10.8109C18.8194 11.0109 18.6754 11.2909 18.6754 11.6509V12.1309C18.7954 12.0909 18.9114 12.0709 19.0234 12.0709C19.3754 12.0709 19.6634 12.1869 19.8874 12.4189C20.1114 12.6429 20.2234 12.9389 20.2234 13.3069C20.2234 13.6589 20.1034 13.9509 19.8634 14.1829C19.6314 14.4069 19.3274 14.5189 18.9514 14.5189C18.5674 14.5189 18.2554 14.4029 18.0154 14.1709C17.7754 13.9309 17.6554 13.6229 17.6554 13.2469V11.6509C17.6554 11.1549 17.8234 10.7429 18.1594 10.4149C18.4954 10.0789 18.9354 9.86293 19.4794 9.76693C20.1354 9.28693 20.6714 8.81893 21.0874 8.36293C20.7994 8.25093 20.4674 8.19493 20.0914 8.19493C19.5794 8.19493 19.1514 8.29893 18.8074 8.50693C18.4634 8.71493 18.2554 8.99493 18.1834 9.34693H17.1994C17.2554 8.73893 17.5434 8.25893 18.0634 7.90693C18.5834 7.54693 19.2594 7.36693 20.0914 7.36693C20.6834 7.36693 21.2034 7.46693 21.6514 7.66693C21.8514 7.35493 21.9714 7.07093 22.0114 6.81493H23.1754ZM21.8434 9.39493C21.8434 9.18693 21.7874 8.99493 21.6754 8.81893C21.3234 9.13893 20.9354 9.44693 20.5114 9.74293C21.0714 9.81493 21.5154 10.0189 21.8434 10.3549V9.39493ZM19.5634 13.2949C19.5634 13.1349 19.5114 13.0029 19.4074 12.8989C19.3034 12.7869 19.1714 12.7309 19.0114 12.7309C18.8434 12.7309 18.7034 12.7869 18.5914 12.8989C18.4874 13.0029 18.4354 13.1349 18.4354 13.2949C18.4354 13.4549 18.4874 13.5909 18.5914 13.7029C18.7034 13.8069 18.8434 13.8589 19.0114 13.8589C19.1714 13.8589 19.3034 13.8069 19.4074 13.7029C19.5114 13.5909 19.5634 13.4549 19.5634 13.2949ZM27.6524 9.28693C27.6524 8.95093 27.5404 8.68693 27.3164 8.49493C27.1004 8.29493 26.8004 8.19493 26.4164 8.19493C26.0164 8.19493 25.6964 8.30693 25.4564 8.53093C25.2164 8.75493 25.0964 9.05893 25.0964 9.44293H24.1004C24.1004 8.80293 24.3084 8.29893 24.7244 7.93093C25.1404 7.55493 25.7044 7.36693 26.4164 7.36693C27.1124 7.36693 27.6604 7.53893 28.0604 7.88293C28.4684 8.21893 28.6724 8.67893 28.6724 9.26293V14.3989H27.6524V9.28693ZM35.5406 7.48693V12.7429C35.5406 13.2949 35.3046 13.7309 34.8326 14.0509C34.3686 14.3629 33.7326 14.5189 32.9246 14.5189C32.1166 14.5189 31.4766 14.3629 31.0046 14.0509C30.5406 13.7309 30.3086 13.2949 30.3086 12.7429V11.9509C30.3086 11.6869 30.3766 11.4509 30.5126 11.2429C30.6486 11.0269 30.8446 10.8589 31.1006 10.7389C30.7966 10.6029 30.5686 10.3869 30.4166 10.0909C30.2726 9.78693 30.2006 9.45093 30.2006 9.08293C30.2006 8.56293 30.3366 8.14693 30.6086 7.83493C30.8886 7.52293 31.2606 7.36693 31.7246 7.36693C32.0926 7.36693 32.3846 7.46693 32.6006 7.66693C32.8166 7.86693 32.9246 8.13493 32.9246 8.47093C32.9246 8.79893 32.8246 9.05893 32.6246 9.25093C32.4246 9.44293 32.1526 9.53893 31.8086 9.53893C31.5366 9.53893 31.3206 9.47493 31.1606 9.34693C31.1686 9.63493 31.2566 9.87493 31.4246 10.0669C31.6006 10.2509 31.8126 10.3429 32.0606 10.3429H33.1886V11.1589H32.0486C31.8406 11.1589 31.6686 11.2309 31.5326 11.3749C31.3966 11.5189 31.3286 11.7109 31.3286 11.9509V12.6709C31.3286 12.9909 31.4686 13.2429 31.7486 13.4269C32.0366 13.6029 32.4286 13.6909 32.9246 13.6909C33.4206 13.6909 33.8086 13.6029 34.0886 13.4269C34.3766 13.2429 34.5206 12.9909 34.5206 12.6709V7.48693H35.5406ZM31.7846 7.93093C31.6326 7.93093 31.5046 7.97893 31.4006 8.07493C31.3046 8.17093 31.2566 8.29893 31.2566 8.45893C31.2566 8.61093 31.3046 8.73893 31.4006 8.84293C31.5046 8.93893 31.6326 8.98693 31.7846 8.98693C31.9446 8.98693 32.0726 8.93893 32.1686 8.84293C32.2646 8.73893 32.3126 8.61093 32.3126 8.45893C32.3126 8.29893 32.2646 8.17093 32.1686 8.07493C32.0726 7.97893 31.9446 7.93093 31.7846 7.93093ZM40.8977 13.5229H42.3377V7.29493L40.6817 8.26693V7.25893L42.7337 5.99893H43.4417V13.5229H44.8697V14.3989H40.8977V13.5229Z" fill="#101C3D"/>
  <rect x="0.5" y="18.8989" width="62.5588" height="42.5" rx="2.5" stroke="#D4D4D4"/>
  <rect x="3.25" y="21.6489" width="9.41176" height="37" rx="1.75" stroke="#101C3D" stroke-width="0.5"/>
  <circle cx="7.95588" cy="26.3548" r="2.70956" fill="#FFF8C4" stroke="#101C3D" stroke-width="0.492647"/>
  <circle cx="6.97055" cy="25.8623" r="0.492647" fill="#101C3D"/>
  <circle cx="8.94113" cy="25.8623" r="0.492647" fill="#101C3D"/>
  <path d="M7.21692 27.0938C7.21692 27.0938 7.95589 28.818 8.69486 27.0938" stroke="#101C3D" stroke-width="0.492647"/>
  <circle cx="7.95588" cy="33.2518" r="2.70956" fill="#FFF8C4" stroke="#101C3D" stroke-width="0.492647"/>
  <circle cx="6.97055" cy="32.7592" r="0.492647" fill="#101C3D"/>
  <circle cx="8.94113" cy="32.7592" r="0.492647" fill="#101C3D"/>
  <path d="M7.21692 33.9907C7.21692 33.9907 7.95589 35.715 8.69486 33.9907" stroke="#101C3D" stroke-width="0.492647"/>
  <circle cx="7.95588" cy="40.1488" r="2.70956" fill="#FFF8C4" stroke="#101C3D" stroke-width="0.492647"/>
  <circle cx="6.97055" cy="39.6562" r="0.492647" fill="#101C3D"/>
  <circle cx="8.94113" cy="39.6562" r="0.492647" fill="#101C3D"/>
  <path d="M7.21692 40.8877C7.21692 40.8877 7.95589 42.612 8.69486 40.8877" stroke="#101C3D" stroke-width="0.492647"/>
  <circle cx="7.95588" cy="47.0462" r="2.70956" fill="#FFF8C4" stroke="#101C3D" stroke-width="0.492647"/>
  <circle cx="6.97055" cy="46.5537" r="0.492647" fill="#101C3D"/>
  <circle cx="8.94113" cy="46.5537" r="0.492647" fill="#101C3D"/>
  <path d="M7.21692 47.7852C7.21692 47.7852 7.95589 49.5094 8.69486 47.7852" stroke="#101C3D" stroke-width="0.492647"/>
  <circle cx="7.95588" cy="53.9432" r="2.70956" fill="#FFF8C4" stroke="#101C3D" stroke-width="0.492647"/>
  <circle cx="6.97055" cy="53.4507" r="0.492647" fill="#101C3D"/>
  <circle cx="8.94113" cy="53.4507" r="0.492647" fill="#101C3D"/>
  <path d="M7.21692 54.6821C7.21692 54.6821 7.95589 56.4064 8.69486 54.6821" stroke="#101C3D" stroke-width="0.492647"/>
  <rect x="15.1617" y="21.6489" width="9.41176" height="37" rx="1.75" stroke="#101C3D" stroke-width="0.5"/>
  <circle cx="19.8676" cy="26.3548" r="2.70956" fill="#FFF8C4" stroke="#101C3D" stroke-width="0.492647"/>
  <circle cx="18.8823" cy="25.8623" r="0.492647" fill="#101C3D"/>
  <circle cx="20.8529" cy="25.8623" r="0.492647" fill="#101C3D"/>
  <path d="M19.1287 27.0938C19.1287 27.0938 19.8676 28.818 20.6066 27.0938" stroke="#101C3D" stroke-width="0.492647"/>
  <circle cx="19.8676" cy="33.2518" r="2.70956" fill="#FFF8C4" stroke="#101C3D" stroke-width="0.492647"/>
  <circle cx="18.8823" cy="32.7592" r="0.492647" fill="#101C3D"/>
  <circle cx="20.8529" cy="32.7592" r="0.492647" fill="#101C3D"/>
  <path d="M19.1287 33.9907C19.1287 33.9907 19.8676 35.715 20.6066 33.9907" stroke="#101C3D" stroke-width="0.492647"/>
  <circle cx="19.8676" cy="40.1488" r="2.70956" fill="#FFF8C4" stroke="#101C3D" stroke-width="0.492647"/>
  <circle cx="18.8823" cy="39.6562" r="0.492647" fill="#101C3D"/>
  <circle cx="20.8529" cy="39.6562" r="0.492647" fill="#101C3D"/>
  <path d="M19.1287 40.8877C19.1287 40.8877 19.8676 42.612 20.6066 40.8877" stroke="#101C3D" stroke-width="0.492647"/>
  <circle cx="19.8676" cy="47.0462" r="2.70956" fill="#FFF8C4" stroke="#101C3D" stroke-width="0.492647"/>
  <circle cx="18.8823" cy="46.5537" r="0.492647" fill="#101C3D"/>
  <circle cx="20.8529" cy="46.5537" r="0.492647" fill="#101C3D"/>
  <path d="M19.1287 47.7852C19.1287 47.7852 19.8676 49.5094 20.6066 47.7852" stroke="#101C3D" stroke-width="0.492647"/>
  <circle cx="19.8676" cy="53.9432" r="2.70956" fill="#FFF8C4" stroke="#101C3D" stroke-width="0.492647"/>
  <circle cx="18.8823" cy="53.4507" r="0.492647" fill="#101C3D"/>
  <circle cx="20.8529" cy="53.4507" r="0.492647" fill="#101C3D"/>
  <path d="M19.1287 54.6821C19.1287 54.6821 19.8676 56.4064 20.6066 54.6821" stroke="#101C3D" stroke-width="0.492647"/>
  <rect x="27.0735" y="21.6489" width="9.41176" height="37" rx="1.75" stroke="#101C3D" stroke-width="0.5"/>
  <circle cx="31.7794" cy="26.3548" r="2.70956" fill="#FFF8C4" stroke="#101C3D" stroke-width="0.492647"/>
  <circle cx="30.794" cy="25.8623" r="0.492647" fill="#101C3D"/>
  <circle cx="32.7646" cy="25.8623" r="0.492647" fill="#101C3D"/>
  <path d="M31.0404 27.0938C31.0404 27.0938 31.7794 28.818 32.5183 27.0938" stroke="#101C3D" stroke-width="0.492647"/>
  <circle cx="31.7794" cy="33.2518" r="2.70956" fill="#FFF8C4" stroke="#101C3D" stroke-width="0.492647"/>
  <circle cx="30.794" cy="32.7592" r="0.492647" fill="#101C3D"/>
  <circle cx="32.7646" cy="32.7592" r="0.492647" fill="#101C3D"/>
  <path d="M31.0404 33.9907C31.0404 33.9907 31.7794 35.715 32.5183 33.9907" stroke="#101C3D" stroke-width="0.492647"/>
  <circle cx="31.7794" cy="40.1488" r="2.70956" fill="#FFF8C4" stroke="#101C3D" stroke-width="0.492647"/>
  <circle cx="30.794" cy="39.6562" r="0.492647" fill="#101C3D"/>
  <circle cx="32.7646" cy="39.6562" r="0.492647" fill="#101C3D"/>
  <path d="M31.0404 40.8877C31.0404 40.8877 31.7794 42.612 32.5183 40.8877" stroke="#101C3D" stroke-width="0.492647"/>
  <circle cx="31.7794" cy="47.0462" r="2.70956" fill="#FFF8C4" stroke="#101C3D" stroke-width="0.492647"/>
  <circle cx="30.794" cy="46.5537" r="0.492647" fill="#101C3D"/>
  <circle cx="32.7646" cy="46.5537" r="0.492647" fill="#101C3D"/>
  <path d="M31.0404 47.7852C31.0404 47.7852 31.7794 49.5094 32.5183 47.7852" stroke="#101C3D" stroke-width="0.492647"/>
  <circle cx="31.7794" cy="53.9432" r="2.70956" fill="#FFF8C4" stroke="#101C3D" stroke-width="0.492647"/>
  <circle cx="30.794" cy="53.4507" r="0.492647" fill="#101C3D"/>
  <circle cx="32.7646" cy="53.4507" r="0.492647" fill="#101C3D"/>
  <path d="M31.0404 54.6821C31.0404 54.6821 31.7794 56.4064 32.5183 54.6821" stroke="#101C3D" stroke-width="0.492647"/>
  <rect x="38.9854" y="21.6489" width="9.41176" height="37" rx="1.75" stroke="#101C3D" stroke-width="0.5"/>
  <circle cx="43.6912" cy="26.3548" r="2.70956" fill="#FFF8C4" stroke="#101C3D" stroke-width="0.492647"/>
  <circle cx="42.7059" cy="25.8623" r="0.492647" fill="#101C3D"/>
  <circle cx="44.6765" cy="25.8623" r="0.492647" fill="#101C3D"/>
  <path d="M42.9523 27.0938C42.9523 27.0938 43.6912 28.818 44.4302 27.0938" stroke="#101C3D" stroke-width="0.492647"/>
  <circle cx="43.6912" cy="33.2518" r="2.70956" fill="#FFF8C4" stroke="#101C3D" stroke-width="0.492647"/>
  <circle cx="42.7059" cy="32.7592" r="0.492647" fill="#101C3D"/>
  <circle cx="44.6765" cy="32.7592" r="0.492647" fill="#101C3D"/>
  <path d="M42.9523 33.9907C42.9523 33.9907 43.6912 35.715 44.4302 33.9907" stroke="#101C3D" stroke-width="0.492647"/>
  <circle cx="43.6912" cy="40.1488" r="2.70956" fill="#FFF8C4" stroke="#101C3D" stroke-width="0.492647"/>
  <circle cx="42.7059" cy="39.6562" r="0.492647" fill="#101C3D"/>
  <circle cx="44.6765" cy="39.6562" r="0.492647" fill="#101C3D"/>
  <path d="M42.9523 40.8877C42.9523 40.8877 43.6912 42.612 44.4302 40.8877" stroke="#101C3D" stroke-width="0.492647"/>
  <circle cx="43.6912" cy="47.0462" r="2.70956" fill="#FFF8C4" stroke="#101C3D" stroke-width="0.492647"/>
  <circle cx="42.7059" cy="46.5537" r="0.492647" fill="#101C3D"/>
  <circle cx="44.6765" cy="46.5537" r="0.492647" fill="#101C3D"/>
  <path d="M42.9523 47.7852C42.9523 47.7852 43.6912 49.5094 44.4302 47.7852" stroke="#101C3D" stroke-width="0.492647"/>
  <circle cx="43.6912" cy="53.9432" r="2.70956" fill="#FFF8C4" stroke="#101C3D" stroke-width="0.492647"/>
  <circle cx="42.7059" cy="53.4507" r="0.492647" fill="#101C3D"/>
  <circle cx="44.6765" cy="53.4507" r="0.492647" fill="#101C3D"/>
  <path d="M42.9523 54.6821C42.9523 54.6821 43.6912 56.4064 44.4302 54.6821" stroke="#101C3D" stroke-width="0.492647"/>
  <rect x="50.8971" y="21.6489" width="9.41176" height="37" rx="1.75" stroke="#101C3D" stroke-width="0.5"/>
  <circle cx="55.603" cy="26.3548" r="2.70956" fill="#FFF8C4" stroke="#101C3D" stroke-width="0.492647"/>
  <circle cx="54.6176" cy="25.8623" r="0.492647" fill="#101C3D"/>
  <circle cx="56.5882" cy="25.8623" r="0.492647" fill="#101C3D"/>
  <path d="M54.864 27.0938C54.864 27.0938 55.603 28.818 56.342 27.0938" stroke="#101C3D" stroke-width="0.492647"/>
  <circle cx="55.603" cy="33.2518" r="2.70956" fill="#FFF8C4" stroke="#101C3D" stroke-width="0.492647"/>
  <circle cx="54.6176" cy="32.7592" r="0.492647" fill="#101C3D"/>
  <circle cx="56.5882" cy="32.7592" r="0.492647" fill="#101C3D"/>
  <path d="M54.864 33.9907C54.864 33.9907 55.603 35.715 56.342 33.9907" stroke="#101C3D" stroke-width="0.492647"/>
  <circle cx="55.603" cy="40.1488" r="2.70956" fill="#FFF8C4" stroke="#101C3D" stroke-width="0.492647"/>
  <circle cx="54.6176" cy="39.6562" r="0.492647" fill="#101C3D"/>
  <circle cx="56.5882" cy="39.6562" r="0.492647" fill="#101C3D"/>
  <path d="M54.864 40.8877C54.864 40.8877 55.603 42.612 56.342 40.8877" stroke="#101C3D" stroke-width="0.492647"/>
  <circle cx="55.603" cy="47.0462" r="2.70956" fill="#FFF8C4" stroke="#101C3D" stroke-width="0.492647"/>
  <circle cx="54.6176" cy="46.5537" r="0.492647" fill="#101C3D"/>
  <circle cx="56.5882" cy="46.5537" r="0.492647" fill="#101C3D"/>
  <path d="M54.864 47.7852C54.864 47.7852 55.603 49.5094 56.342 47.7852" stroke="#101C3D" stroke-width="0.492647"/>
  <circle cx="55.603" cy="53.9432" r="2.70956" fill="#FFF8C4" stroke="#101C3D" stroke-width="0.492647"/>
  <circle cx="54.6176" cy="53.4507" r="0.492647" fill="#101C3D"/>
  <circle cx="56.5882" cy="53.4507" r="0.492647" fill="#101C3D"/>
  <path d="M54.864 54.6821C54.864 54.6821 55.603 56.4064 56.342 54.6821" stroke="#101C3D" stroke-width="0.492647"/>
  <path opacity="0.5" d="M91.7343 6.81493C91.6383 7.19893 91.3663 7.64293 90.9183 8.14693C91.2463 8.49893 91.4103 8.92693 91.4103 9.43093V14.3989H90.4023V11.6629C90.4023 11.3029 90.2303 11.0189 89.8863 10.8109C89.5423 10.6029 89.1583 10.4989 88.7343 10.4989C88.3103 10.4989 87.9543 10.6029 87.6663 10.8109C87.3783 11.0109 87.2343 11.2909 87.2343 11.6509V12.1309C87.3543 12.0909 87.4703 12.0709 87.5823 12.0709C87.9343 12.0709 88.2223 12.1869 88.4463 12.4189C88.6703 12.6429 88.7823 12.9389 88.7823 13.3069C88.7823 13.6589 88.6623 13.9509 88.4223 14.1829C88.1903 14.4069 87.8863 14.5189 87.5103 14.5189C87.1263 14.5189 86.8143 14.4029 86.5743 14.1709C86.3343 13.9309 86.2143 13.6229 86.2143 13.2469V11.6509C86.2143 11.1549 86.3823 10.7429 86.7183 10.4149C87.0543 10.0789 87.4943 9.86293 88.0383 9.76693C88.6943 9.28693 89.2303 8.81893 89.6463 8.36293C89.3583 8.25093 89.0263 8.19493 88.6503 8.19493C88.1383 8.19493 87.7103 8.29893 87.3663 8.50693C87.0223 8.71493 86.8143 8.99493 86.7423 9.34693H85.7583C85.8143 8.73893 86.1023 8.25893 86.6223 7.90693C87.1423 7.54693 87.8183 7.36693 88.6503 7.36693C89.2423 7.36693 89.7623 7.46693 90.2103 7.66693C90.4103 7.35493 90.5303 7.07093 90.5703 6.81493H91.7343ZM90.4023 9.39493C90.4023 9.18693 90.3463 8.99493 90.2343 8.81893C89.8823 9.13893 89.4943 9.44693 89.0703 9.74293C89.6303 9.81493 90.0743 10.0189 90.4023 10.3549V9.39493ZM88.1223 13.2949C88.1223 13.1349 88.0703 13.0029 87.9663 12.8989C87.8623 12.7869 87.7303 12.7309 87.5703 12.7309C87.4023 12.7309 87.2623 12.7869 87.1503 12.8989C87.0463 13.0029 86.9943 13.1349 86.9943 13.2949C86.9943 13.4549 87.0463 13.5909 87.1503 13.7029C87.2623 13.8069 87.4023 13.8589 87.5703 13.8589C87.7303 13.8589 87.8623 13.8069 87.9663 13.7029C88.0703 13.5909 88.1223 13.4549 88.1223 13.2949ZM96.2112 9.28693C96.2112 8.95093 96.0992 8.68693 95.8752 8.49493C95.6592 8.29493 95.3592 8.19493 94.9752 8.19493C94.5752 8.19493 94.2552 8.30693 94.0152 8.53093C93.7752 8.75493 93.6552 9.05893 93.6552 9.44293H92.6592C92.6592 8.80293 92.8672 8.29893 93.2832 7.93093C93.6992 7.55493 94.2632 7.36693 94.9752 7.36693C95.6712 7.36693 96.2192 7.53893 96.6192 7.88293C97.0272 8.21893 97.2312 8.67893 97.2312 9.26293V14.3989H96.2112V9.28693ZM104.099 7.48693V12.7429C104.099 13.2949 103.863 13.7309 103.391 14.0509C102.927 14.3629 102.291 14.5189 101.483 14.5189C100.675 14.5189 100.035 14.3629 99.5634 14.0509C99.0994 13.7309 98.8674 13.2949 98.8674 12.7429V11.9509C98.8674 11.6869 98.9354 11.4509 99.0714 11.2429C99.2074 11.0269 99.4034 10.8589 99.6594 10.7389C99.3554 10.6029 99.1274 10.3869 98.9754 10.0909C98.8314 9.78693 98.7594 9.45093 98.7594 9.08293C98.7594 8.56293 98.8954 8.14693 99.1674 7.83493C99.4474 7.52293 99.8194 7.36693 100.283 7.36693C100.651 7.36693 100.943 7.46693 101.159 7.66693C101.375 7.86693 101.483 8.13493 101.483 8.47093C101.483 8.79893 101.383 9.05893 101.183 9.25093C100.983 9.44293 100.711 9.53893 100.367 9.53893C100.095 9.53893 99.8794 9.47493 99.7194 9.34693C99.7274 9.63493 99.8154 9.87493 99.9834 10.0669C100.159 10.2509 100.371 10.3429 100.619 10.3429H101.747V11.1589H100.607C100.399 11.1589 100.227 11.2309 100.091 11.3749C99.9554 11.5189 99.8874 11.7109 99.8874 11.9509V12.6709C99.8874 12.9909 100.027 13.2429 100.307 13.4269C100.595 13.6029 100.987 13.6909 101.483 13.6909C101.979 13.6909 102.367 13.6029 102.647 13.4269C102.935 13.2429 103.079 12.9909 103.079 12.6709V7.48693H104.099ZM100.343 7.93093C100.191 7.93093 100.063 7.97893 99.9594 8.07493C99.8634 8.17093 99.8154 8.29893 99.8154 8.45893C99.8154 8.61093 99.8634 8.73893 99.9594 8.84293C100.063 8.93893 100.191 8.98693 100.343 8.98693C100.503 8.98693 100.631 8.93893 100.727 8.84293C100.823 8.73893 100.871 8.61093 100.871 8.45893C100.871 8.29893 100.823 8.17093 100.727 8.07493C100.631 7.97893 100.503 7.93093 100.343 7.93093ZM108.677 13.4509C109.253 13.0349 109.825 12.5389 110.393 11.9629C110.969 11.3789 111.457 10.7589 111.857 10.1029C112.257 9.44693 112.457 8.82693 112.457 8.24293C112.457 7.79493 112.329 7.44293 112.073 7.18693C111.817 6.92293 111.469 6.79093 111.029 6.79093C110.629 6.79093 110.249 6.88693 109.889 7.07893C109.537 7.27093 109.257 7.52693 109.049 7.84693L108.461 7.18693C108.709 6.77893 109.061 6.45893 109.517 6.22693C109.981 5.99493 110.489 5.87893 111.041 5.87893C111.825 5.87893 112.445 6.09093 112.901 6.51493C113.357 6.93093 113.585 7.49493 113.585 8.20693C113.585 9.05493 113.249 9.93893 112.577 10.8589C111.913 11.7789 111.097 12.6669 110.129 13.5229H113.957V14.3989H108.677V13.4509Z" fill="#101C3D"/>
  <rect x="69.0588" y="18.8989" width="62.5588" height="42.5" rx="2.5" stroke="#D4D4D4"/>
  <rect x="71.8088" y="21.6489" width="9.41176" height="37" rx="1.75" stroke="#101C3D" stroke-width="0.5"/>
  <circle cx="76.5147" cy="26.3548" r="2.70956" fill="#FFF8C4" stroke="#101C3D" stroke-width="0.492647"/>
  <circle cx="75.5294" cy="25.8623" r="0.492647" fill="#101C3D"/>
  <circle cx="77.5" cy="25.8623" r="0.492647" fill="#101C3D"/>
  <path d="M75.7758 27.0938C75.7758 27.0938 76.5147 28.818 77.2537 27.0938" stroke="#101C3D" stroke-width="0.492647"/>
  <circle cx="76.5147" cy="33.2518" r="2.70956" fill="#FFF8C4" stroke="#101C3D" stroke-width="0.492647"/>
  <circle cx="75.5294" cy="32.7592" r="0.492647" fill="#101C3D"/>
  <circle cx="77.5" cy="32.7592" r="0.492647" fill="#101C3D"/>
  <path d="M75.7758 33.9907C75.7758 33.9907 76.5147 35.715 77.2537 33.9907" stroke="#101C3D" stroke-width="0.492647"/>
  <circle cx="76.5147" cy="40.1488" r="2.70956" fill="#FFF8C4" stroke="#101C3D" stroke-width="0.492647"/>
  <circle cx="75.5294" cy="39.6562" r="0.492647" fill="#101C3D"/>
  <circle cx="77.5" cy="39.6562" r="0.492647" fill="#101C3D"/>
  <path d="M75.7758 40.8877C75.7758 40.8877 76.5147 42.612 77.2537 40.8877" stroke="#101C3D" stroke-width="0.492647"/>
  <circle cx="76.5147" cy="47.0462" r="2.70956" fill="#FFF8C4" stroke="#101C3D" stroke-width="0.492647"/>
  <circle cx="75.5294" cy="46.5537" r="0.492647" fill="#101C3D"/>
  <circle cx="77.5" cy="46.5537" r="0.492647" fill="#101C3D"/>
  <path d="M75.7758 47.7852C75.7758 47.7852 76.5147 49.5094 77.2537 47.7852" stroke="#101C3D" stroke-width="0.492647"/>
  <circle cx="76.5147" cy="53.9432" r="2.70956" fill="#FFF8C4" stroke="#101C3D" stroke-width="0.492647"/>
  <circle cx="75.5294" cy="53.4507" r="0.492647" fill="#101C3D"/>
  <circle cx="77.5" cy="53.4507" r="0.492647" fill="#101C3D"/>
  <path d="M75.7758 54.6821C75.7758 54.6821 76.5147 56.4064 77.2537 54.6821" stroke="#101C3D" stroke-width="0.492647"/>
  <rect x="83.7206" y="21.6489" width="9.41176" height="37" rx="1.75" stroke="#101C3D" stroke-width="0.5"/>
  <circle cx="88.4265" cy="26.3548" r="2.70956" fill="#FFF8C4" stroke="#101C3D" stroke-width="0.492647"/>
  <circle cx="87.4411" cy="25.8623" r="0.492647" fill="#101C3D"/>
  <circle cx="89.4117" cy="25.8623" r="0.492647" fill="#101C3D"/>
  <path d="M87.6875 27.0938C87.6875 27.0938 88.4265 28.818 89.1654 27.0938" stroke="#101C3D" stroke-width="0.492647"/>
  <circle cx="88.4265" cy="33.2518" r="2.70956" fill="#FFF8C4" stroke="#101C3D" stroke-width="0.492647"/>
  <circle cx="87.4411" cy="32.7592" r="0.492647" fill="#101C3D"/>
  <circle cx="89.4117" cy="32.7592" r="0.492647" fill="#101C3D"/>
  <path d="M87.6875 33.9907C87.6875 33.9907 88.4265 35.715 89.1654 33.9907" stroke="#101C3D" stroke-width="0.492647"/>
  <circle cx="88.4265" cy="40.1488" r="2.70956" fill="#FFF8C4" stroke="#101C3D" stroke-width="0.492647"/>
  <circle cx="87.4411" cy="39.6562" r="0.492647" fill="#101C3D"/>
  <circle cx="89.4117" cy="39.6562" r="0.492647" fill="#101C3D"/>
  <path d="M87.6875 40.8877C87.6875 40.8877 88.4265 42.612 89.1654 40.8877" stroke="#101C3D" stroke-width="0.492647"/>
  <circle cx="88.4265" cy="47.0462" r="2.70956" fill="#FFF8C4" stroke="#101C3D" stroke-width="0.492647"/>
  <circle cx="87.4411" cy="46.5537" r="0.492647" fill="#101C3D"/>
  <circle cx="89.4117" cy="46.5537" r="0.492647" fill="#101C3D"/>
  <path d="M87.6875 47.7852C87.6875 47.7852 88.4265 49.5094 89.1654 47.7852" stroke="#101C3D" stroke-width="0.492647"/>
  <circle cx="88.4265" cy="53.9432" r="2.70956" fill="#FFF8C4" stroke="#101C3D" stroke-width="0.492647"/>
  <circle cx="87.4411" cy="53.4507" r="0.492647" fill="#101C3D"/>
  <circle cx="89.4117" cy="53.4507" r="0.492647" fill="#101C3D"/>
  <path d="M87.6875 54.6821C87.6875 54.6821 88.4265 56.4064 89.1654 54.6821" stroke="#101C3D" stroke-width="0.492647"/>
  <rect x="95.6323" y="21.6489" width="9.41176" height="37" rx="1.75" stroke="#101C3D" stroke-width="0.5"/>
  <circle cx="100.338" cy="26.3548" r="2.70956" fill="#FFF8C4" stroke="#101C3D" stroke-width="0.492647"/>
  <circle cx="99.3529" cy="25.8623" r="0.492647" fill="#101C3D"/>
  <circle cx="101.323" cy="25.8623" r="0.492647" fill="#101C3D"/>
  <path d="M99.5992 27.0938C99.5992 27.0938 100.338 28.818 101.077 27.0938" stroke="#101C3D" stroke-width="0.492647"/>
  <circle cx="100.338" cy="33.2518" r="2.70956" fill="#FFF8C4" stroke="#101C3D" stroke-width="0.492647"/>
  <circle cx="99.3529" cy="32.7592" r="0.492647" fill="#101C3D"/>
  <circle cx="101.323" cy="32.7592" r="0.492647" fill="#101C3D"/>
  <path d="M99.5992 33.9907C99.5992 33.9907 100.338 35.715 101.077 33.9907" stroke="#101C3D" stroke-width="0.492647"/>
  <circle cx="100.338" cy="40.1488" r="2.70956" fill="#FFF8C4" stroke="#101C3D" stroke-width="0.492647"/>
  <circle cx="99.3529" cy="39.6562" r="0.492647" fill="#101C3D"/>
  <circle cx="101.323" cy="39.6562" r="0.492647" fill="#101C3D"/>
  <path d="M99.5992 40.8877C99.5992 40.8877 100.338 42.612 101.077 40.8877" stroke="#101C3D" stroke-width="0.492647"/>
  <circle cx="100.338" cy="47.0462" r="2.70956" fill="#FFF8C4" stroke="#101C3D" stroke-width="0.492647"/>
  <circle cx="99.3529" cy="46.5537" r="0.492647" fill="#101C3D"/>
  <circle cx="101.323" cy="46.5537" r="0.492647" fill="#101C3D"/>
  <path d="M99.5992 47.7852C99.5992 47.7852 100.338 49.5094 101.077 47.7852" stroke="#101C3D" stroke-width="0.492647"/>
  <circle cx="100.338" cy="53.9432" r="2.70956" fill="#FFF8C4" stroke="#101C3D" stroke-width="0.492647"/>
  <circle cx="99.3529" cy="53.4507" r="0.492647" fill="#101C3D"/>
  <circle cx="101.323" cy="53.4507" r="0.492647" fill="#101C3D"/>
  <path d="M99.5992 54.6821C99.5992 54.6821 100.338 56.4064 101.077 54.6821" stroke="#101C3D" stroke-width="0.492647"/>
  <rect x="107.544" y="21.6489" width="9.41176" height="37" rx="1.75" stroke="#101C3D" stroke-width="0.5"/>
  <circle cx="112.25" cy="26.3548" r="2.70956" fill="#FFF8C4" stroke="#101C3D" stroke-width="0.492647"/>
  <circle cx="111.265" cy="25.8623" r="0.492647" fill="#101C3D"/>
  <circle cx="113.235" cy="25.8623" r="0.492647" fill="#101C3D"/>
  <path d="M111.511 27.0938C111.511 27.0938 112.25 28.818 112.989 27.0938" stroke="#101C3D" stroke-width="0.492647"/>
  <circle cx="112.25" cy="33.2518" r="2.70956" fill="#FFF8C4" stroke="#101C3D" stroke-width="0.492647"/>
  <circle cx="111.265" cy="32.7592" r="0.492647" fill="#101C3D"/>
  <circle cx="113.235" cy="32.7592" r="0.492647" fill="#101C3D"/>
  <path d="M111.511 33.9907C111.511 33.9907 112.25 35.715 112.989 33.9907" stroke="#101C3D" stroke-width="0.492647"/>
  <circle cx="112.25" cy="40.1488" r="2.70956" fill="#FFF8C4" stroke="#101C3D" stroke-width="0.492647"/>
  <circle cx="111.265" cy="39.6562" r="0.492647" fill="#101C3D"/>
  <circle cx="113.235" cy="39.6562" r="0.492647" fill="#101C3D"/>
  <path d="M111.511 40.8877C111.511 40.8877 112.25 42.612 112.989 40.8877" stroke="#101C3D" stroke-width="0.492647"/>
  <circle cx="112.25" cy="47.0462" r="2.70956" fill="#FFF8C4" stroke="#101C3D" stroke-width="0.492647"/>
  <circle cx="111.265" cy="46.5537" r="0.492647" fill="#101C3D"/>
  <circle cx="113.235" cy="46.5537" r="0.492647" fill="#101C3D"/>
  <path d="M111.511 47.7852C111.511 47.7852 112.25 49.5094 112.989 47.7852" stroke="#101C3D" stroke-width="0.492647"/>
  <circle cx="112.25" cy="53.9432" r="2.70956" fill="#FFF8C4" stroke="#101C3D" stroke-width="0.492647"/>
  <circle cx="111.265" cy="53.4507" r="0.492647" fill="#101C3D"/>
  <circle cx="113.235" cy="53.4507" r="0.492647" fill="#101C3D"/>
  <path d="M111.511 54.6821C111.511 54.6821 112.25 56.4064 112.989 54.6821" stroke="#101C3D" stroke-width="0.492647"/>
  <rect x="119.456" y="21.6489" width="9.41176" height="37" rx="1.75" stroke="#101C3D" stroke-width="0.5"/>
  <circle cx="124.162" cy="26.3548" r="2.70956" fill="#FFF8C4" stroke="#101C3D" stroke-width="0.492647"/>
  <circle cx="123.176" cy="25.8623" r="0.492647" fill="#101C3D"/>
  <circle cx="125.147" cy="25.8623" r="0.492647" fill="#101C3D"/>
  <path d="M123.423 27.0938C123.423 27.0938 124.162 28.818 124.901 27.0938" stroke="#101C3D" stroke-width="0.492647"/>
  <circle cx="124.162" cy="33.2518" r="2.70956" fill="#FFF8C4" stroke="#101C3D" stroke-width="0.492647"/>
  <circle cx="123.176" cy="32.7592" r="0.492647" fill="#101C3D"/>
  <circle cx="125.147" cy="32.7592" r="0.492647" fill="#101C3D"/>
  <path d="M123.423 33.9907C123.423 33.9907 124.162 35.715 124.901 33.9907" stroke="#101C3D" stroke-width="0.492647"/>
  <circle cx="124.162" cy="40.1488" r="2.70956" fill="#FFF8C4" stroke="#101C3D" stroke-width="0.492647"/>
  <circle cx="123.176" cy="39.6562" r="0.492647" fill="#101C3D"/>
  <circle cx="125.147" cy="39.6562" r="0.492647" fill="#101C3D"/>
  <path d="M123.423 40.8877C123.423 40.8877 124.162 42.612 124.901 40.8877" stroke="#101C3D" stroke-width="0.492647"/>
  <circle cx="124.162" cy="47.0462" r="2.70956" fill="#FFF8C4" stroke="#101C3D" stroke-width="0.492647"/>
  <circle cx="123.176" cy="46.5537" r="0.492647" fill="#101C3D"/>
  <circle cx="125.147" cy="46.5537" r="0.492647" fill="#101C3D"/>
  <path d="M123.423 47.7852C123.423 47.7852 124.162 49.5094 124.901 47.7852" stroke="#101C3D" stroke-width="0.492647"/>
  <circle cx="124.162" cy="53.9432" r="2.70956" fill="#FFF8C4" stroke="#101C3D" stroke-width="0.492647"/>
  <circle cx="123.176" cy="53.4507" r="0.492647" fill="#101C3D"/>
  <circle cx="125.147" cy="53.4507" r="0.492647" fill="#101C3D"/>
  <path d="M123.423 54.6821C123.423 54.6821 124.162 56.4064 124.901 54.6821" stroke="#101C3D" stroke-width="0.492647"/>
  <path opacity="0.5" d="M160.293 6.81493C160.197 7.19893 159.925 7.64293 159.477 8.14693C159.805 8.49893 159.969 8.92693 159.969 9.43093V14.3989H158.961V11.6629C158.961 11.3029 158.789 11.0189 158.445 10.8109C158.101 10.6029 157.717 10.4989 157.293 10.4989C156.869 10.4989 156.513 10.6029 156.225 10.8109C155.937 11.0109 155.793 11.2909 155.793 11.6509V12.1309C155.913 12.0909 156.029 12.0709 156.141 12.0709C156.493 12.0709 156.781 12.1869 157.005 12.4189C157.229 12.6429 157.341 12.9389 157.341 13.3069C157.341 13.6589 157.221 13.9509 156.981 14.1829C156.749 14.4069 156.445 14.5189 156.069 14.5189C155.685 14.5189 155.373 14.4029 155.133 14.1709C154.893 13.9309 154.773 13.6229 154.773 13.2469V11.6509C154.773 11.1549 154.941 10.7429 155.277 10.4149C155.613 10.0789 156.053 9.86293 156.597 9.76693C157.253 9.28693 157.789 8.81893 158.205 8.36293C157.917 8.25093 157.585 8.19493 157.209 8.19493C156.697 8.19493 156.269 8.29893 155.925 8.50693C155.581 8.71493 155.373 8.99493 155.301 9.34693H154.317C154.373 8.73893 154.661 8.25893 155.181 7.90693C155.701 7.54693 156.377 7.36693 157.209 7.36693C157.801 7.36693 158.321 7.46693 158.769 7.66693C158.969 7.35493 159.089 7.07093 159.129 6.81493H160.293ZM158.961 9.39493C158.961 9.18693 158.905 8.99493 158.793 8.81893C158.441 9.13893 158.053 9.44693 157.629 9.74293C158.189 9.81493 158.633 10.0189 158.961 10.3549V9.39493ZM156.681 13.2949C156.681 13.1349 156.629 13.0029 156.525 12.8989C156.421 12.7869 156.289 12.7309 156.129 12.7309C155.961 12.7309 155.821 12.7869 155.709 12.8989C155.605 13.0029 155.553 13.1349 155.553 13.2949C155.553 13.4549 155.605 13.5909 155.709 13.7029C155.821 13.8069 155.961 13.8589 156.129 13.8589C156.289 13.8589 156.421 13.8069 156.525 13.7029C156.629 13.5909 156.681 13.4549 156.681 13.2949ZM164.77 9.28693C164.77 8.95093 164.658 8.68693 164.434 8.49493C164.218 8.29493 163.918 8.19493 163.534 8.19493C163.134 8.19493 162.814 8.30693 162.574 8.53093C162.334 8.75493 162.214 9.05893 162.214 9.44293H161.218C161.218 8.80293 161.426 8.29893 161.842 7.93093C162.258 7.55493 162.822 7.36693 163.534 7.36693C164.23 7.36693 164.778 7.53893 165.178 7.88293C165.586 8.21893 165.79 8.67893 165.79 9.26293V14.3989H164.77V9.28693ZM172.658 7.48693V12.7429C172.658 13.2949 172.422 13.7309 171.95 14.0509C171.486 14.3629 170.85 14.5189 170.042 14.5189C169.234 14.5189 168.594 14.3629 168.122 14.0509C167.658 13.7309 167.426 13.2949 167.426 12.7429V11.9509C167.426 11.6869 167.494 11.4509 167.63 11.2429C167.766 11.0269 167.962 10.8589 168.218 10.7389C167.914 10.6029 167.686 10.3869 167.534 10.0909C167.39 9.78693 167.318 9.45093 167.318 9.08293C167.318 8.56293 167.454 8.14693 167.726 7.83493C168.006 7.52293 168.378 7.36693 168.842 7.36693C169.21 7.36693 169.502 7.46693 169.718 7.66693C169.934 7.86693 170.042 8.13493 170.042 8.47093C170.042 8.79893 169.942 9.05893 169.742 9.25093C169.542 9.44293 169.27 9.53893 168.926 9.53893C168.654 9.53893 168.438 9.47493 168.278 9.34693C168.286 9.63493 168.374 9.87493 168.542 10.0669C168.718 10.2509 168.93 10.3429 169.178 10.3429H170.306V11.1589H169.166C168.958 11.1589 168.786 11.2309 168.65 11.3749C168.514 11.5189 168.446 11.7109 168.446 11.9509V12.6709C168.446 12.9909 168.586 13.2429 168.866 13.4269C169.154 13.6029 169.546 13.6909 170.042 13.6909C170.538 13.6909 170.926 13.6029 171.206 13.4269C171.494 13.2429 171.638 12.9909 171.638 12.6709V7.48693H172.658ZM168.902 7.93093C168.75 7.93093 168.622 7.97893 168.518 8.07493C168.422 8.17093 168.374 8.29893 168.374 8.45893C168.374 8.61093 168.422 8.73893 168.518 8.84293C168.622 8.93893 168.75 8.98693 168.902 8.98693C169.062 8.98693 169.19 8.93893 169.286 8.84293C169.382 8.73893 169.43 8.61093 169.43 8.45893C169.43 8.29893 169.382 8.17093 169.286 8.07493C169.19 7.97893 169.062 7.93093 168.902 7.93093ZM179.683 14.5189C179.091 14.5189 178.559 14.4109 178.087 14.1949C177.623 13.9709 177.279 13.6669 177.055 13.2829L177.607 12.6349C177.815 12.9309 178.103 13.1669 178.471 13.3429C178.847 13.5189 179.239 13.6069 179.647 13.6069C180.175 13.6069 180.595 13.4629 180.907 13.1749C181.227 12.8869 181.387 12.5149 181.387 12.0589C181.387 11.5549 181.187 11.1589 180.787 10.8709C180.395 10.5829 179.855 10.4389 179.167 10.4389H178.735V9.56293H179.155C179.739 9.56293 180.207 9.41893 180.559 9.13093C180.911 8.83493 181.087 8.45493 181.087 7.99093C181.087 7.60693 180.963 7.31093 180.715 7.10293C180.467 6.89493 180.119 6.79093 179.671 6.79093C179.263 6.79093 178.883 6.87893 178.531 7.05493C178.179 7.22293 177.895 7.45893 177.679 7.76293L177.139 7.11493C177.395 6.73093 177.755 6.43093 178.219 6.21493C178.691 5.99093 179.207 5.87893 179.767 5.87893C180.495 5.87893 181.079 6.06293 181.519 6.43093C181.967 6.79093 182.191 7.27093 182.191 7.87093C182.191 8.34293 182.047 8.76693 181.759 9.14293C181.479 9.51093 181.087 9.78293 180.583 9.95893C181.199 10.0949 181.671 10.3509 181.999 10.7269C182.335 11.0949 182.503 11.5549 182.503 12.1069C182.503 12.5789 182.387 12.9989 182.155 13.3669C181.923 13.7269 181.591 14.0109 181.159 14.2189C180.735 14.4189 180.243 14.5189 179.683 14.5189Z" fill="#101C3D"/>
  <rect x="137.618" y="18.8989" width="62.5588" height="42.5" rx="2.5" stroke="#D4D4D4"/>
  <rect x="140.368" y="21.6489" width="9.41176" height="37" rx="1.75" stroke="#101C3D" stroke-width="0.5"/>
  <circle cx="145.074" cy="26.3548" r="2.70956" fill="#FFF8C4" stroke="#101C3D" stroke-width="0.492647"/>
  <circle cx="144.088" cy="25.8623" r="0.492647" fill="#101C3D"/>
  <circle cx="146.059" cy="25.8623" r="0.492647" fill="#101C3D"/>
  <path d="M144.335 27.0938C144.335 27.0938 145.074 28.818 145.813 27.0938" stroke="#101C3D" stroke-width="0.492647"/>
  <circle cx="145.074" cy="33.2518" r="2.70956" fill="#FFF8C4" stroke="#101C3D" stroke-width="0.492647"/>
  <circle cx="144.088" cy="32.7592" r="0.492647" fill="#101C3D"/>
  <circle cx="146.059" cy="32.7592" r="0.492647" fill="#101C3D"/>
  <path d="M144.335 33.9907C144.335 33.9907 145.074 35.715 145.813 33.9907" stroke="#101C3D" stroke-width="0.492647"/>
  <circle cx="145.074" cy="40.1488" r="2.70956" fill="#FFF8C4" stroke="#101C3D" stroke-width="0.492647"/>
  <circle cx="144.088" cy="39.6562" r="0.492647" fill="#101C3D"/>
  <circle cx="146.059" cy="39.6562" r="0.492647" fill="#101C3D"/>
  <path d="M144.335 40.8877C144.335 40.8877 145.074 42.612 145.813 40.8877" stroke="#101C3D" stroke-width="0.492647"/>
  <circle cx="145.074" cy="47.0462" r="2.70956" fill="#FFF8C4" stroke="#101C3D" stroke-width="0.492647"/>
  <circle cx="144.088" cy="46.5537" r="0.492647" fill="#101C3D"/>
  <circle cx="146.059" cy="46.5537" r="0.492647" fill="#101C3D"/>
  <path d="M144.335 47.7852C144.335 47.7852 145.074 49.5094 145.813 47.7852" stroke="#101C3D" stroke-width="0.492647"/>
  <circle cx="145.074" cy="53.9432" r="2.70956" fill="#FFF8C4" stroke="#101C3D" stroke-width="0.492647"/>
  <circle cx="144.088" cy="53.4507" r="0.492647" fill="#101C3D"/>
  <circle cx="146.059" cy="53.4507" r="0.492647" fill="#101C3D"/>
  <path d="M144.335 54.6821C144.335 54.6821 145.074 56.4064 145.813 54.6821" stroke="#101C3D" stroke-width="0.492647"/>
  <rect x="152.279" y="21.6489" width="9.41176" height="37" rx="1.75" stroke="#101C3D" stroke-width="0.5"/>
  <circle cx="156.985" cy="26.3548" r="2.70956" fill="#FFF8C4" stroke="#101C3D" stroke-width="0.492647"/>
  <circle cx="156" cy="25.8623" r="0.492647" fill="#101C3D"/>
  <circle cx="157.971" cy="25.8623" r="0.492647" fill="#101C3D"/>
  <path d="M156.246 27.0938C156.246 27.0938 156.985 28.818 157.724 27.0938" stroke="#101C3D" stroke-width="0.492647"/>
  <circle cx="156.985" cy="33.2518" r="2.70956" fill="#FFF8C4" stroke="#101C3D" stroke-width="0.492647"/>
  <circle cx="156" cy="32.7592" r="0.492647" fill="#101C3D"/>
  <circle cx="157.971" cy="32.7592" r="0.492647" fill="#101C3D"/>
  <path d="M156.246 33.9907C156.246 33.9907 156.985 35.715 157.724 33.9907" stroke="#101C3D" stroke-width="0.492647"/>
  <circle cx="156.985" cy="40.1488" r="2.70956" fill="#FFF8C4" stroke="#101C3D" stroke-width="0.492647"/>
  <circle cx="156" cy="39.6562" r="0.492647" fill="#101C3D"/>
  <circle cx="157.971" cy="39.6562" r="0.492647" fill="#101C3D"/>
  <path d="M156.246 40.8877C156.246 40.8877 156.985 42.612 157.724 40.8877" stroke="#101C3D" stroke-width="0.492647"/>
  <circle cx="156.985" cy="47.0462" r="2.70956" fill="#FFF8C4" stroke="#101C3D" stroke-width="0.492647"/>
  <circle cx="156" cy="46.5537" r="0.492647" fill="#101C3D"/>
  <circle cx="157.971" cy="46.5537" r="0.492647" fill="#101C3D"/>
  <path d="M156.246 47.7852C156.246 47.7852 156.985 49.5094 157.724 47.7852" stroke="#101C3D" stroke-width="0.492647"/>
  <circle cx="156.985" cy="53.9432" r="2.70956" fill="#FFF8C4" stroke="#101C3D" stroke-width="0.492647"/>
  <circle cx="156" cy="53.4507" r="0.492647" fill="#101C3D"/>
  <circle cx="157.971" cy="53.4507" r="0.492647" fill="#101C3D"/>
  <path d="M156.246 54.6821C156.246 54.6821 156.985 56.4064 157.724 54.6821" stroke="#101C3D" stroke-width="0.492647"/>
  <rect x="164.191" y="21.6489" width="9.41176" height="37" rx="1.75" stroke="#101C3D" stroke-width="0.5"/>
  <circle cx="168.897" cy="26.3548" r="2.70956" fill="#FFF8C4" stroke="#101C3D" stroke-width="0.492647"/>
  <circle cx="167.912" cy="25.8623" r="0.492647" fill="#101C3D"/>
  <circle cx="169.882" cy="25.8623" r="0.492647" fill="#101C3D"/>
  <path d="M168.158 27.0938C168.158 27.0938 168.897 28.818 169.636 27.0938" stroke="#101C3D" stroke-width="0.492647"/>
  <circle cx="168.897" cy="33.2518" r="2.70956" fill="#FFF8C4" stroke="#101C3D" stroke-width="0.492647"/>
  <circle cx="167.912" cy="32.7592" r="0.492647" fill="#101C3D"/>
  <circle cx="169.882" cy="32.7592" r="0.492647" fill="#101C3D"/>
  <path d="M168.158 33.9907C168.158 33.9907 168.897 35.715 169.636 33.9907" stroke="#101C3D" stroke-width="0.492647"/>
  <circle cx="168.897" cy="40.1488" r="2.70956" fill="#FFF8C4" stroke="#101C3D" stroke-width="0.492647"/>
  <circle cx="167.912" cy="39.6562" r="0.492647" fill="#101C3D"/>
  <circle cx="169.882" cy="39.6562" r="0.492647" fill="#101C3D"/>
  <path d="M168.158 40.8877C168.158 40.8877 168.897 42.612 169.636 40.8877" stroke="#101C3D" stroke-width="0.492647"/>
  <circle cx="168.897" cy="47.0462" r="2.70956" fill="#FFF8C4" stroke="#101C3D" stroke-width="0.492647"/>
  <circle cx="167.912" cy="46.5537" r="0.492647" fill="#101C3D"/>
  <circle cx="169.882" cy="46.5537" r="0.492647" fill="#101C3D"/>
  <path d="M168.158 47.7852C168.158 47.7852 168.897 49.5094 169.636 47.7852" stroke="#101C3D" stroke-width="0.492647"/>
  <circle cx="168.897" cy="53.9432" r="2.70956" fill="#FFF8C4" stroke="#101C3D" stroke-width="0.492647"/>
  <circle cx="167.912" cy="53.4507" r="0.492647" fill="#101C3D"/>
  <circle cx="169.882" cy="53.4507" r="0.492647" fill="#101C3D"/>
  <path d="M168.158 54.6821C168.158 54.6821 168.897 56.4064 169.636 54.6821" stroke="#101C3D" stroke-width="0.492647"/>
  <rect x="176.103" y="21.6489" width="9.41176" height="37" rx="1.75" stroke="#101C3D" stroke-width="0.5"/>
  <circle cx="180.809" cy="26.3548" r="2.70956" fill="#FFF8C4" stroke="#101C3D" stroke-width="0.492647"/>
  <circle cx="179.824" cy="25.8623" r="0.492647" fill="#101C3D"/>
  <circle cx="181.794" cy="25.8623" r="0.492647" fill="#101C3D"/>
  <path d="M180.07 27.0938C180.07 27.0938 180.809 28.818 181.548 27.0938" stroke="#101C3D" stroke-width="0.492647"/>
  <circle cx="180.809" cy="33.2518" r="2.70956" fill="#FFF8C4" stroke="#101C3D" stroke-width="0.492647"/>
  <circle cx="179.824" cy="32.7592" r="0.492647" fill="#101C3D"/>
  <circle cx="181.794" cy="32.7592" r="0.492647" fill="#101C3D"/>
  <path d="M180.07 33.9907C180.07 33.9907 180.809 35.715 181.548 33.9907" stroke="#101C3D" stroke-width="0.492647"/>
  <circle cx="180.809" cy="40.1488" r="2.70956" fill="#FFF8C4" stroke="#101C3D" stroke-width="0.492647"/>
  <circle cx="179.824" cy="39.6562" r="0.492647" fill="#101C3D"/>
  <circle cx="181.794" cy="39.6562" r="0.492647" fill="#101C3D"/>
  <path d="M180.07 40.8877C180.07 40.8877 180.809 42.612 181.548 40.8877" stroke="#101C3D" stroke-width="0.492647"/>
  <circle cx="180.809" cy="47.0462" r="2.70956" fill="#FFF8C4" stroke="#101C3D" stroke-width="0.492647"/>
  <circle cx="179.824" cy="46.5537" r="0.492647" fill="#101C3D"/>
  <circle cx="181.794" cy="46.5537" r="0.492647" fill="#101C3D"/>
  <path d="M180.07 47.7852C180.07 47.7852 180.809 49.5094 181.548 47.7852" stroke="#101C3D" stroke-width="0.492647"/>
  <circle cx="180.809" cy="53.9432" r="2.70956" fill="#FFF8C4" stroke="#101C3D" stroke-width="0.492647"/>
  <circle cx="179.824" cy="53.4507" r="0.492647" fill="#101C3D"/>
  <circle cx="181.794" cy="53.4507" r="0.492647" fill="#101C3D"/>
  <path d="M180.07 54.6821C180.07 54.6821 180.809 56.4064 181.548 54.6821" stroke="#101C3D" stroke-width="0.492647"/>
  <rect x="188.015" y="21.6489" width="9.41176" height="37" rx="1.75" stroke="#101C3D" stroke-width="0.5"/>
  <circle cx="192.721" cy="26.3548" r="2.70956" fill="#FFF8C4" stroke="#101C3D" stroke-width="0.492647"/>
  <circle cx="191.735" cy="25.8623" r="0.492647" fill="#101C3D"/>
  <circle cx="193.706" cy="25.8623" r="0.492647" fill="#101C3D"/>
  <path d="M191.982 27.0938C191.982 27.0938 192.721 28.818 193.46 27.0938" stroke="#101C3D" stroke-width="0.492647"/>
  <circle cx="192.721" cy="33.2518" r="2.70956" fill="#FFF8C4" stroke="#101C3D" stroke-width="0.492647"/>
  <circle cx="191.735" cy="32.7592" r="0.492647" fill="#101C3D"/>
  <circle cx="193.706" cy="32.7592" r="0.492647" fill="#101C3D"/>
  <path d="M191.982 33.9907C191.982 33.9907 192.721 35.715 193.46 33.9907" stroke="#101C3D" stroke-width="0.492647"/>
  <circle cx="192.721" cy="40.1488" r="2.70956" fill="#FFF8C4" stroke="#101C3D" stroke-width="0.492647"/>
  <circle cx="191.735" cy="39.6562" r="0.492647" fill="#101C3D"/>
  <circle cx="193.706" cy="39.6562" r="0.492647" fill="#101C3D"/>
  <path d="M191.982 40.8877C191.982 40.8877 192.721 42.612 193.46 40.8877" stroke="#101C3D" stroke-width="0.492647"/>
  <circle cx="192.721" cy="47.0462" r="2.70956" fill="#FFF8C4" stroke="#101C3D" stroke-width="0.492647"/>
  <circle cx="191.735" cy="46.5537" r="0.492647" fill="#101C3D"/>
  <circle cx="193.706" cy="46.5537" r="0.492647" fill="#101C3D"/>
  <path d="M191.982 47.7852C191.982 47.7852 192.721 49.5094 193.46 47.7852" stroke="#101C3D" stroke-width="0.492647"/>
  <circle cx="192.721" cy="53.9432" r="2.70956" fill="#FFF8C4" stroke="#101C3D" stroke-width="0.492647"/>
  <circle cx="191.735" cy="53.4507" r="0.492647" fill="#101C3D"/>
  <circle cx="193.706" cy="53.4507" r="0.492647" fill="#101C3D"/>
  <path d="M191.982 54.6821C191.982 54.6821 192.721 56.4064 193.46 54.6821" stroke="#101C3D" stroke-width="0.492647"/>
  <path opacity="0.5" d="M229.352 5.81493C229.256 6.19893 228.984 6.64293 228.536 7.14693C228.864 7.49893 229.028 7.92693 229.028 8.43093V13.3989H228.02V10.6629C228.02 10.3029 227.848 10.0189 227.504 9.81093C227.16 9.60293 226.776 9.49893 226.352 9.49893C225.928 9.49893 225.572 9.60293 225.284 9.81093C224.996 10.0109 224.852 10.2909 224.852 10.6509V11.1309C224.972 11.0909 225.088 11.0709 225.2 11.0709C225.552 11.0709 225.84 11.1869 226.064 11.4189C226.288 11.6429 226.4 11.9389 226.4 12.3069C226.4 12.6589 226.28 12.9509 226.04 13.1829C225.808 13.4069 225.504 13.5189 225.128 13.5189C224.744 13.5189 224.432 13.4029 224.192 13.1709C223.952 12.9309 223.832 12.6229 223.832 12.2469V10.6509C223.832 10.1549 224 9.74293 224.336 9.41493C224.672 9.07893 225.112 8.86293 225.656 8.76693C226.312 8.28693 226.848 7.81893 227.264 7.36293C226.976 7.25093 226.644 7.19493 226.268 7.19493C225.756 7.19493 225.328 7.29893 224.984 7.50693C224.64 7.71493 224.432 7.99493 224.36 8.34693H223.376C223.432 7.73893 223.72 7.25893 224.24 6.90693C224.76 6.54693 225.436 6.36693 226.268 6.36693C226.86 6.36693 227.38 6.46693 227.828 6.66693C228.028 6.35493 228.148 6.07093 228.188 5.81493H229.352ZM228.02 8.39493C228.02 8.18693 227.964 7.99493 227.852 7.81893C227.5 8.13893 227.112 8.44693 226.688 8.74293C227.248 8.81493 227.692 9.01893 228.02 9.35493V8.39493ZM225.74 12.2949C225.74 12.1349 225.688 12.0029 225.584 11.8989C225.48 11.7869 225.348 11.7309 225.188 11.7309C225.02 11.7309 224.88 11.7869 224.768 11.8989C224.664 12.0029 224.612 12.1349 224.612 12.2949C224.612 12.4549 224.664 12.5909 224.768 12.7029C224.88 12.8069 225.02 12.8589 225.188 12.8589C225.348 12.8589 225.48 12.8069 225.584 12.7029C225.688 12.5909 225.74 12.4549 225.74 12.2949ZM233.829 8.28693C233.829 7.95093 233.717 7.68693 233.493 7.49493C233.277 7.29493 232.977 7.19493 232.593 7.19493C232.193 7.19493 231.873 7.30693 231.633 7.53093C231.393 7.75493 231.273 8.05893 231.273 8.44293H230.277C230.277 7.80293 230.485 7.29893 230.901 6.93093C231.317 6.55493 231.881 6.36693 232.593 6.36693C233.289 6.36693 233.837 6.53893 234.237 6.88293C234.645 7.21893 234.849 7.67893 234.849 8.26293V13.3989H233.829V8.28693ZM241.717 6.48693V11.7429C241.717 12.2949 241.481 12.7309 241.009 13.0509C240.545 13.3629 239.909 13.5189 239.101 13.5189C238.293 13.5189 237.653 13.3629 237.181 13.0509C236.717 12.7309 236.485 12.2949 236.485 11.7429V10.9509C236.485 10.6869 236.553 10.4509 236.689 10.2429C236.825 10.0269 237.021 9.85893 237.277 9.73893C236.973 9.60293 236.745 9.38693 236.593 9.09093C236.449 8.78693 236.377 8.45093 236.377 8.08293C236.377 7.56293 236.513 7.14693 236.785 6.83493C237.065 6.52293 237.437 6.36693 237.901 6.36693C238.269 6.36693 238.561 6.46693 238.777 6.66693C238.993 6.86693 239.101 7.13493 239.101 7.47093C239.101 7.79893 239.001 8.05893 238.801 8.25093C238.601 8.44293 238.329 8.53893 237.985 8.53893C237.713 8.53893 237.497 8.47493 237.337 8.34693C237.345 8.63493 237.433 8.87493 237.601 9.06693C237.777 9.25093 237.989 9.34293 238.237 9.34293H239.365V10.1589H238.225C238.017 10.1589 237.845 10.2309 237.709 10.3749C237.573 10.5189 237.505 10.7109 237.505 10.9509V11.6709C237.505 11.9909 237.645 12.2429 237.925 12.4269C238.213 12.6029 238.605 12.6909 239.101 12.6909C239.597 12.6909 239.985 12.6029 240.265 12.4269C240.553 12.2429 240.697 11.9909 240.697 11.6709V6.48693H241.717ZM237.961 6.93093C237.809 6.93093 237.681 6.97893 237.577 7.07493C237.481 7.17093 237.433 7.29893 237.433 7.45893C237.433 7.61093 237.481 7.73893 237.577 7.84293C237.681 7.93893 237.809 7.98693 237.961 7.98693C238.121 7.98693 238.249 7.93893 238.345 7.84293C238.441 7.73893 238.489 7.61093 238.489 7.45893C238.489 7.29893 238.441 7.17093 238.345 7.07493C238.249 6.97893 238.121 6.93093 237.961 6.93093ZM244.12 13.5189C243.896 13.5189 243.716 13.4469 243.58 13.3029C243.444 13.1509 243.376 12.9589 243.376 12.7269C243.376 12.4949 243.444 12.3069 243.58 12.1629C243.716 12.0189 243.896 11.9469 244.12 11.9469C244.344 11.9469 244.524 12.0189 244.66 12.1629C244.796 12.3069 244.864 12.4949 244.864 12.7269C244.864 12.9589 244.796 13.1509 244.66 13.3029C244.524 13.4469 244.344 13.5189 244.12 13.5189ZM247.144 13.5189C246.92 13.5189 246.74 13.4469 246.604 13.3029C246.468 13.1509 246.4 12.9589 246.4 12.7269C246.4 12.4949 246.468 12.3069 246.604 12.1629C246.74 12.0189 246.92 11.9469 247.144 11.9469C247.368 11.9469 247.548 12.0189 247.684 12.1629C247.82 12.3069 247.888 12.4949 247.888 12.7269C247.888 12.9589 247.82 13.1509 247.684 13.3029C247.548 13.4469 247.368 13.5189 247.144 13.5189ZM250.167 13.5189C249.943 13.5189 249.763 13.4469 249.627 13.3029C249.491 13.1509 249.423 12.9589 249.423 12.7269C249.423 12.4949 249.491 12.3069 249.627 12.1629C249.763 12.0189 249.943 11.9469 250.167 11.9469C250.391 11.9469 250.571 12.0189 250.707 12.1629C250.843 12.3069 250.911 12.4949 250.911 12.7269C250.911 12.9589 250.843 13.1509 250.707 13.3029C250.571 13.4469 250.391 13.5189 250.167 13.5189Z" fill="#101C3D"/>
  <rect x="206.176" y="18.8989" width="62.5588" height="42.5" rx="2.5" stroke="#D4D4D4"/>
  <rect x="208.926" y="21.6489" width="9.41176" height="37" rx="1.75" stroke="#101C3D" stroke-width="0.5"/>
  <circle cx="213.632" cy="26.3548" r="2.70956" fill="#FFF8C4" stroke="#101C3D" stroke-width="0.492647"/>
  <circle cx="212.647" cy="25.8623" r="0.492647" fill="#101C3D"/>
  <circle cx="214.618" cy="25.8623" r="0.492647" fill="#101C3D"/>
  <path d="M212.893 27.0938C212.893 27.0938 213.632 28.818 214.371 27.0938" stroke="#101C3D" stroke-width="0.492647"/>
  <circle cx="213.632" cy="33.2518" r="2.70956" fill="#FFF8C4" stroke="#101C3D" stroke-width="0.492647"/>
  <circle cx="212.647" cy="32.7592" r="0.492647" fill="#101C3D"/>
  <circle cx="214.618" cy="32.7592" r="0.492647" fill="#101C3D"/>
  <path d="M212.893 33.9907C212.893 33.9907 213.632 35.715 214.371 33.9907" stroke="#101C3D" stroke-width="0.492647"/>
  <circle cx="213.632" cy="40.1488" r="2.70956" fill="#FFF8C4" stroke="#101C3D" stroke-width="0.492647"/>
  <circle cx="212.647" cy="39.6562" r="0.492647" fill="#101C3D"/>
  <circle cx="214.618" cy="39.6562" r="0.492647" fill="#101C3D"/>
  <path d="M212.893 40.8877C212.893 40.8877 213.632 42.612 214.371 40.8877" stroke="#101C3D" stroke-width="0.492647"/>
  <circle cx="213.632" cy="47.0462" r="2.70956" fill="#FFF8C4" stroke="#101C3D" stroke-width="0.492647"/>
  <circle cx="212.647" cy="46.5537" r="0.492647" fill="#101C3D"/>
  <circle cx="214.618" cy="46.5537" r="0.492647" fill="#101C3D"/>
  <path d="M212.893 47.7852C212.893 47.7852 213.632 49.5094 214.371 47.7852" stroke="#101C3D" stroke-width="0.492647"/>
  <circle cx="213.632" cy="53.9432" r="2.70956" fill="#FFF8C4" stroke="#101C3D" stroke-width="0.492647"/>
  <circle cx="212.647" cy="53.4507" r="0.492647" fill="#101C3D"/>
  <circle cx="214.618" cy="53.4507" r="0.492647" fill="#101C3D"/>
  <path d="M212.893 54.6821C212.893 54.6821 213.632 56.4064 214.371 54.6821" stroke="#101C3D" stroke-width="0.492647"/>
  <rect x="220.838" y="21.6489" width="9.41176" height="37" rx="1.75" stroke="#101C3D" stroke-width="0.5"/>
  <circle cx="225.544" cy="26.3548" r="2.70956" fill="#FFF8C4" stroke="#101C3D" stroke-width="0.492647"/>
  <circle cx="224.559" cy="25.8623" r="0.492647" fill="#101C3D"/>
  <circle cx="226.529" cy="25.8623" r="0.492647" fill="#101C3D"/>
  <path d="M224.805 27.0938C224.805 27.0938 225.544 28.818 226.283 27.0938" stroke="#101C3D" stroke-width="0.492647"/>
  <circle cx="225.544" cy="33.2518" r="2.70956" fill="#FFF8C4" stroke="#101C3D" stroke-width="0.492647"/>
  <circle cx="224.559" cy="32.7592" r="0.492647" fill="#101C3D"/>
  <circle cx="226.529" cy="32.7592" r="0.492647" fill="#101C3D"/>
  <path d="M224.805 33.9907C224.805 33.9907 225.544 35.715 226.283 33.9907" stroke="#101C3D" stroke-width="0.492647"/>
  <circle cx="225.544" cy="40.1488" r="2.70956" fill="#FFF8C4" stroke="#101C3D" stroke-width="0.492647"/>
  <circle cx="224.559" cy="39.6562" r="0.492647" fill="#101C3D"/>
  <circle cx="226.529" cy="39.6562" r="0.492647" fill="#101C3D"/>
  <path d="M224.805 40.8877C224.805 40.8877 225.544 42.612 226.283 40.8877" stroke="#101C3D" stroke-width="0.492647"/>
  <circle cx="225.544" cy="47.0462" r="2.70956" fill="#FFF8C4" stroke="#101C3D" stroke-width="0.492647"/>
  <circle cx="224.559" cy="46.5537" r="0.492647" fill="#101C3D"/>
  <circle cx="226.529" cy="46.5537" r="0.492647" fill="#101C3D"/>
  <path d="M224.805 47.7852C224.805 47.7852 225.544 49.5094 226.283 47.7852" stroke="#101C3D" stroke-width="0.492647"/>
  <circle cx="225.544" cy="53.9432" r="2.70956" fill="#FFF8C4" stroke="#101C3D" stroke-width="0.492647"/>
  <circle cx="224.559" cy="53.4507" r="0.492647" fill="#101C3D"/>
  <circle cx="226.529" cy="53.4507" r="0.492647" fill="#101C3D"/>
  <path d="M224.805 54.6821C224.805 54.6821 225.544 56.4064 226.283 54.6821" stroke="#101C3D" stroke-width="0.492647"/>
  <rect x="232.75" y="21.6489" width="9.41176" height="37" rx="1.75" stroke="#101C3D" stroke-width="0.5"/>
  <circle cx="237.456" cy="26.3548" r="2.70956" fill="#FFF8C4" stroke="#101C3D" stroke-width="0.492647"/>
  <circle cx="236.471" cy="25.8623" r="0.492647" fill="#101C3D"/>
  <circle cx="238.441" cy="25.8623" r="0.492647" fill="#101C3D"/>
  <path d="M236.717 27.0938C236.717 27.0938 237.456 28.818 238.195 27.0938" stroke="#101C3D" stroke-width="0.492647"/>
  <circle cx="237.456" cy="33.2518" r="2.70956" fill="#FFF8C4" stroke="#101C3D" stroke-width="0.492647"/>
  <circle cx="236.471" cy="32.7592" r="0.492647" fill="#101C3D"/>
  <circle cx="238.441" cy="32.7592" r="0.492647" fill="#101C3D"/>
  <path d="M236.717 33.9907C236.717 33.9907 237.456 35.715 238.195 33.9907" stroke="#101C3D" stroke-width="0.492647"/>
  <circle cx="237.456" cy="40.1488" r="2.70956" fill="#FFF8C4" stroke="#101C3D" stroke-width="0.492647"/>
  <circle cx="236.471" cy="39.6562" r="0.492647" fill="#101C3D"/>
  <circle cx="238.441" cy="39.6562" r="0.492647" fill="#101C3D"/>
  <path d="M236.717 40.8877C236.717 40.8877 237.456 42.612 238.195 40.8877" stroke="#101C3D" stroke-width="0.492647"/>
  <circle cx="237.456" cy="47.0462" r="2.70956" fill="#FFF8C4" stroke="#101C3D" stroke-width="0.492647"/>
  <circle cx="236.471" cy="46.5537" r="0.492647" fill="#101C3D"/>
  <circle cx="238.441" cy="46.5537" r="0.492647" fill="#101C3D"/>
  <path d="M236.717 47.7852C236.717 47.7852 237.456 49.5094 238.195 47.7852" stroke="#101C3D" stroke-width="0.492647"/>
  <circle cx="237.456" cy="53.9432" r="2.70956" fill="#FFF8C4" stroke="#101C3D" stroke-width="0.492647"/>
  <circle cx="236.471" cy="53.4507" r="0.492647" fill="#101C3D"/>
  <circle cx="238.441" cy="53.4507" r="0.492647" fill="#101C3D"/>
  <path d="M236.717 54.6821C236.717 54.6821 237.456 56.4064 238.195 54.6821" stroke="#101C3D" stroke-width="0.492647"/>
  <rect x="244.662" y="21.6489" width="9.41176" height="37" rx="1.75" stroke="#101C3D" stroke-width="0.5"/>
  <circle cx="249.368" cy="26.3548" r="2.70956" fill="#FFF8C4" stroke="#101C3D" stroke-width="0.492647"/>
  <circle cx="248.382" cy="25.8623" r="0.492647" fill="#101C3D"/>
  <circle cx="250.353" cy="25.8623" r="0.492647" fill="#101C3D"/>
  <path d="M248.629 27.0938C248.629 27.0938 249.368 28.818 250.107 27.0938" stroke="#101C3D" stroke-width="0.492647"/>
  <circle cx="249.368" cy="33.2518" r="2.70956" fill="#FFF8C4" stroke="#101C3D" stroke-width="0.492647"/>
  <circle cx="248.382" cy="32.7592" r="0.492647" fill="#101C3D"/>
  <circle cx="250.353" cy="32.7592" r="0.492647" fill="#101C3D"/>
  <path d="M248.629 33.9907C248.629 33.9907 249.368 35.715 250.107 33.9907" stroke="#101C3D" stroke-width="0.492647"/>
  <circle cx="249.368" cy="40.1488" r="2.70956" fill="#FFF8C4" stroke="#101C3D" stroke-width="0.492647"/>
  <circle cx="248.382" cy="39.6562" r="0.492647" fill="#101C3D"/>
  <circle cx="250.353" cy="39.6562" r="0.492647" fill="#101C3D"/>
  <path d="M248.629 40.8877C248.629 40.8877 249.368 42.612 250.107 40.8877" stroke="#101C3D" stroke-width="0.492647"/>
  <circle cx="249.368" cy="47.0462" r="2.70956" fill="#FFF8C4" stroke="#101C3D" stroke-width="0.492647"/>
  <circle cx="248.382" cy="46.5537" r="0.492647" fill="#101C3D"/>
  <circle cx="250.353" cy="46.5537" r="0.492647" fill="#101C3D"/>
  <path d="M248.629 47.7852C248.629 47.7852 249.368 49.5094 250.107 47.7852" stroke="#101C3D" stroke-width="0.492647"/>
  <circle cx="249.368" cy="53.9432" r="2.70956" fill="#FFF8C4" stroke="#101C3D" stroke-width="0.492647"/>
  <circle cx="248.382" cy="53.4507" r="0.492647" fill="#101C3D"/>
  <circle cx="250.353" cy="53.4507" r="0.492647" fill="#101C3D"/>
  <path d="M248.629 54.6821C248.629 54.6821 249.368 56.4064 250.107 54.6821" stroke="#101C3D" stroke-width="0.492647"/>
  <rect x="256.573" y="21.6489" width="9.41176" height="37" rx="1.75" stroke="#101C3D" stroke-width="0.5"/>
  <circle cx="261.279" cy="26.3548" r="2.70956" fill="#FFF8C4" stroke="#101C3D" stroke-width="0.492647"/>
  <circle cx="260.294" cy="25.8623" r="0.492647" fill="#101C3D"/>
  <circle cx="262.265" cy="25.8623" r="0.492647" fill="#101C3D"/>
  <path d="M260.54 27.0938C260.54 27.0938 261.279 28.818 262.018 27.0938" stroke="#101C3D" stroke-width="0.492647"/>
  <circle cx="261.279" cy="33.2518" r="2.70956" fill="#FFF8C4" stroke="#101C3D" stroke-width="0.492647"/>
  <circle cx="260.294" cy="32.7592" r="0.492647" fill="#101C3D"/>
  <circle cx="262.265" cy="32.7592" r="0.492647" fill="#101C3D"/>
  <path d="M260.54 33.9907C260.54 33.9907 261.279 35.715 262.018 33.9907" stroke="#101C3D" stroke-width="0.492647"/>
  <circle cx="261.279" cy="40.1488" r="2.70956" fill="#FFF8C4" stroke="#101C3D" stroke-width="0.492647"/>
  <circle cx="260.294" cy="39.6562" r="0.492647" fill="#101C3D"/>
  <circle cx="262.265" cy="39.6562" r="0.492647" fill="#101C3D"/>
  <path d="M260.54 40.8877C260.54 40.8877 261.279 42.612 262.018 40.8877" stroke="#101C3D" stroke-width="0.492647"/>
  <circle cx="261.279" cy="47.0462" r="2.70956" fill="#FFF8C4" stroke="#101C3D" stroke-width="0.492647"/>
  <circle cx="260.294" cy="46.5537" r="0.492647" fill="#101C3D"/>
  <circle cx="262.265" cy="46.5537" r="0.492647" fill="#101C3D"/>
  <path d="M260.54 47.7852C260.54 47.7852 261.279 49.5094 262.018 47.7852" stroke="#101C3D" stroke-width="0.492647"/>
  <circle cx="261.279" cy="53.9432" r="2.70956" fill="#FFF8C4" stroke="#101C3D" stroke-width="0.492647"/>
  <circle cx="260.294" cy="53.4507" r="0.492647" fill="#101C3D"/>
  <circle cx="262.265" cy="53.4507" r="0.492647" fill="#101C3D"/>
  <path d="M260.54 54.6821C260.54 54.6821 261.279 56.4064 262.018 54.6821" stroke="#101C3D" stroke-width="0.492647"/>
  <rect x="251" y="62.2412" width="61.9472" height="17" transform="rotate(-90 251 62.2412)" fill="url(#paint0_linear_71_2834)"/>
  </g>
  <defs>
  <linearGradient id="paint0_linear_71_2834" x1="281.974" y1="62.2412" x2="281.974" y2="79.2412" gradientUnits="userSpaceOnUse">
  <stop stop-color="white" stop-opacity="0"/>
  <stop offset="1" stop-color="white"/>
  </linearGradient>
  <clipPath id="clip0_71_2834">
  <rect width="268" height="61.5" fill="white" transform="translate(0 0.398926)"/>
  </clipPath>
  </defs>
  </svg>
  