<svg width="128" height="94" viewBox="0 0 128 94" fill="none" xmlns="http://www.w3.org/2000/svg">
  <rect x="0.912695" y="1.29893" width="25.1746" height="42.7062" rx="4.17402" stroke="#101C3D" stroke-width="1.19258"/>
  <path d="M12.2613 6.39795C12.6944 5.53242 13.9297 5.53242 14.3629 6.39795L15.9383 9.54592C16.1107 9.8904 16.441 10.1285 16.8223 10.1832L20.3285 10.6859C21.2974 10.8248 21.6817 12.0181 20.9759 12.6963L18.4622 15.1116C18.1808 15.382 18.0521 15.7745 18.1185 16.159L18.7113 19.5882C18.8769 20.546 17.8742 21.2792 17.0116 20.831L13.8532 19.1899C13.5139 19.0136 13.1101 19.0134 12.7706 19.1894L9.6032 20.8315C8.73975 21.2791 7.73734 20.5439 7.90492 19.5858L8.50411 16.1603C8.57149 15.7751 8.44279 15.3815 8.16079 15.1106L5.64827 12.6963C4.94247 12.0181 5.32673 10.8248 6.29566 10.6859L9.80178 10.1832C10.1831 10.1285 10.5134 9.8904 10.6858 9.54592L12.2613 6.39795Z" fill="#F9D142" stroke="#101C3D" stroke-width="1.17504" stroke-linejoin="round"/>
  <circle cx="10.962" cy="12.5232" r="1.17504" fill="#101C3D"/>
  <circle cx="15.6621" cy="12.5232" r="1.17504" fill="#101C3D"/>
  <path d="M11.5496 15.4609C11.5496 15.4609 13.3121 19.5736 15.0747 15.4609" stroke="#101C3D" stroke-width="1.17504"/>
  <path d="M12.2611 24.752C12.6943 23.8864 13.9296 23.8864 14.3627 24.752L15.9382 27.8999C16.1106 28.2444 16.4409 28.4825 16.8222 28.5372L20.3283 29.0399C21.2973 29.1788 21.6815 30.3721 20.9757 31.0503L18.4621 33.4656C18.1807 33.736 18.0519 34.1285 18.1184 34.513L18.7112 37.9422C18.8767 38.9 17.874 39.6332 17.0115 39.185L13.8531 37.5439C13.5138 37.3676 13.11 37.3674 12.7705 37.5434L9.60308 39.1855C8.73963 39.6331 7.73722 38.8979 7.9048 37.9398L8.50398 34.5143C8.57137 34.1291 8.44267 33.7355 8.16067 33.4646L5.64815 31.0503C4.94235 30.3721 5.32661 29.1788 6.29554 29.0399L9.80166 28.5372C10.183 28.4825 10.5133 28.2444 10.6857 27.8999L12.2611 24.752Z" fill="#F9D142" stroke="#101C3D" stroke-width="1.17504" stroke-linejoin="round"/>
  <circle cx="10.9619" cy="30.8772" r="1.17504" fill="#101C3D"/>
  <circle cx="15.662" cy="30.8772" r="1.17504" fill="#101C3D"/>
  <path d="M11.5494 33.8149C11.5494 33.8149 13.312 37.9276 15.0746 33.8149" stroke="#101C3D" stroke-width="1.17504"/>
  <g opacity="0.5">
  <circle cx="13.4999" cy="54.0019" r="6.46272" fill="#FFF8C4" stroke="#101C3D" stroke-width="1.17504"/>
  <circle cx="11.1499" cy="52.8269" r="1.17504" fill="#101C3D"/>
  <circle cx="15.85" cy="52.8269" r="1.17504" fill="#101C3D"/>
  <path d="M11.7374 55.7646C11.7374 55.7646 13.5 59.8773 15.2625 55.7646" stroke="#101C3D" stroke-width="1.17504"/>
  </g>
  <g opacity="0.5">
  <circle cx="13.4999" cy="70.1025" r="6.46272" fill="#FFF8C4" stroke="#101C3D" stroke-width="1.17504"/>
  <circle cx="11.1499" cy="68.9275" r="1.17504" fill="#101C3D"/>
  <circle cx="15.85" cy="68.9275" r="1.17504" fill="#101C3D"/>
  <path d="M11.7374 71.8652C11.7374 71.8652 13.5 75.9779 15.2625 71.8652" stroke="#101C3D" stroke-width="1.17504"/>
  </g>
  <g opacity="0.5">
  <circle cx="13.4999" cy="86.2031" r="6.46272" fill="#FFF8C4" stroke="#101C3D" stroke-width="1.17504"/>
  <circle cx="11.1499" cy="85.0281" r="1.17504" fill="#101C3D"/>
  <circle cx="15.85" cy="85.0281" r="1.17504" fill="#101C3D"/>
  <path d="M11.7374 87.9658C11.7374 87.9658 13.5 92.0785 15.2625 87.9658" stroke="#101C3D" stroke-width="1.17504"/>
  </g>
  <path d="M45.6836 21.7026L40.6836 18.8159V24.5894L45.6836 21.7026ZM31.6836 22.2026H41.1836V21.2026H31.6836V22.2026Z" fill="#101C3D"/>
  <path d="M54.3936 13.9866C54.8043 13.9866 55.1403 14.122 55.4016 14.3926C55.6723 14.6633 55.8076 15.0086 55.8076 15.4286C55.8076 15.8393 55.6676 16.18 55.3876 16.4506C55.1076 16.712 54.7529 16.8426 54.3236 16.8426C53.8756 16.8426 53.5069 16.7073 53.2176 16.4366C52.9376 16.1566 52.7976 15.7973 52.7976 15.3586V4.52264L51.2436 6.67864L50.2916 6.34264C50.2543 5.5493 50.0816 4.37797 49.7736 2.82864H50.7256C50.9403 3.78997 51.0709 4.69064 51.1176 5.53064L52.8816 3.03864H53.9876V14.0566C54.1276 14.01 54.2629 13.9866 54.3936 13.9866ZM54.3796 16.0726C54.5663 16.0726 54.7203 16.012 54.8416 15.8906C54.9723 15.76 55.0376 15.6013 55.0376 15.4146C55.0376 15.228 54.9723 15.074 54.8416 14.9526C54.7203 14.822 54.5663 14.7566 54.3796 14.7566C54.1836 14.7566 54.0249 14.822 53.9036 14.9526C53.7823 15.074 53.7216 15.228 53.7216 15.4146C53.7216 15.6013 53.7823 15.76 53.9036 15.8906C54.0249 16.012 54.1836 16.0726 54.3796 16.0726ZM64.2727 5.32064V14.9526C64.2727 15.5406 64.0067 16.0026 63.4747 16.3386C62.952 16.6746 62.2193 16.8426 61.2767 16.8426C60.362 16.8426 59.634 16.6746 59.0927 16.3386C58.5513 16.0026 58.2807 15.5406 58.2807 14.9526V11.2846C58.1407 11.3313 58.0053 11.3546 57.8747 11.3546C57.464 11.3546 57.1233 11.224 56.8527 10.9626C56.5913 10.692 56.4607 10.342 56.4607 9.91264C56.4607 9.50197 56.6007 9.16597 56.8807 8.90464C57.1607 8.63397 57.5153 8.49864 57.9447 8.49864C58.3927 8.49864 58.7567 8.63864 59.0367 8.91864C59.326 9.1893 59.4707 9.54397 59.4707 9.98264V14.8266C59.4707 15.144 59.634 15.4006 59.9607 15.5966C60.2967 15.7833 60.7353 15.8766 61.2767 15.8766C61.846 15.8766 62.2893 15.7833 62.6067 15.5966C62.924 15.41 63.0827 15.1533 63.0827 14.8266V5.32064H64.2727ZM57.2307 9.92664C57.2307 10.1133 57.2913 10.272 57.4127 10.4026C57.5433 10.524 57.702 10.5846 57.8887 10.5846C58.0847 10.5846 58.2433 10.524 58.3647 10.4026C58.486 10.272 58.5467 10.1133 58.5467 9.92664C58.5467 9.73997 58.486 9.58597 58.3647 9.46464C58.2433 9.33397 58.0847 9.26864 57.8887 9.26864C57.702 9.26864 57.5433 9.33397 57.4127 9.46464C57.2913 9.58597 57.2307 9.73997 57.2307 9.92664ZM67.9865 13.9866C68.4065 13.9866 68.7472 14.122 69.0085 14.3926C69.2698 14.6633 69.4005 15.0086 69.4005 15.4286C69.4005 15.8393 69.2605 16.18 68.9805 16.4506C68.7098 16.712 68.3552 16.8426 67.9165 16.8426C67.4685 16.8426 67.1045 16.7073 66.8245 16.4366C66.5445 16.1566 66.4045 15.7973 66.4045 15.3586V8.63864H67.5805V14.0566C67.7205 14.01 67.8558 13.9866 67.9865 13.9866ZM67.9725 16.0726C68.1685 16.0726 68.3272 16.012 68.4485 15.8906C68.5698 15.76 68.6305 15.6013 68.6305 15.4146C68.6305 15.228 68.5698 15.074 68.4485 14.9526C68.3272 14.822 68.1685 14.7566 67.9725 14.7566C67.7765 14.7566 67.6178 14.822 67.4965 14.9526C67.3752 15.074 67.3145 15.228 67.3145 15.4146C67.3145 15.6013 67.3752 15.76 67.4965 15.8906C67.6178 16.012 67.7765 16.0726 67.9725 16.0726ZM71.7525 13.9866C72.1725 13.9866 72.5132 14.122 72.7745 14.3926C73.0358 14.6633 73.1665 15.0086 73.1665 15.4286C73.1665 15.8393 73.0265 16.18 72.7465 16.4506C72.4758 16.712 72.1212 16.8426 71.6825 16.8426C71.2345 16.8426 70.8705 16.7073 70.5905 16.4366C70.3105 16.1566 70.1705 15.7973 70.1705 15.3586V8.63864H71.3465V14.0566C71.4865 14.01 71.6218 13.9866 71.7525 13.9866ZM71.7385 16.0726C71.9345 16.0726 72.0932 16.012 72.2145 15.8906C72.3358 15.76 72.3965 15.6013 72.3965 15.4146C72.3965 15.228 72.3358 15.074 72.2145 14.9526C72.0932 14.822 71.9345 14.7566 71.7385 14.7566C71.5425 14.7566 71.3838 14.822 71.2625 14.9526C71.1412 15.074 71.0805 15.228 71.0805 15.4146C71.0805 15.6013 71.1412 15.76 71.2625 15.8906C71.3838 16.012 71.5425 16.0726 71.7385 16.0726ZM80.6999 8.63864V14.8686C80.6999 15.5033 80.5039 15.9933 80.1119 16.3386C79.7293 16.6746 79.1739 16.8426 78.4459 16.8426C77.7179 16.8426 77.1626 16.6746 76.7799 16.3386C76.3973 15.9933 76.2059 15.5033 76.2059 14.8686V13.3146C76.2059 13.0626 76.2479 12.8386 76.3319 12.6426C76.4253 12.4466 76.5606 12.1993 76.7379 11.9006C76.9153 11.63 77.0506 11.3873 77.1439 11.1726C77.2466 10.9486 77.2979 10.706 77.2979 10.4446C77.2979 10.0713 77.1813 9.79597 76.9479 9.61864C76.7146 9.4413 76.4113 9.35264 76.0379 9.35264C75.5806 9.35264 75.2213 9.4693 74.9599 9.70264C75.0066 9.68397 75.0813 9.67464 75.1839 9.67464C75.5479 9.67464 75.8466 9.79597 76.0799 10.0386C76.3226 10.272 76.4439 10.5846 76.4439 10.9766C76.4439 11.3593 76.3226 11.6766 76.0799 11.9286C75.8373 12.1806 75.5059 12.3066 75.0859 12.3066C74.6379 12.3066 74.2879 12.162 74.0359 11.8726C73.7839 11.574 73.6579 11.1773 73.6579 10.6826C73.6579 10.0573 73.8679 9.5393 74.2879 9.12864C74.7173 8.70864 75.3099 8.49864 76.0659 8.49864C76.7473 8.49864 77.3026 8.66197 77.7319 8.98864C78.1706 9.30597 78.3899 9.76797 78.3899 10.3746C78.3899 10.692 78.3433 10.9673 78.2499 11.2006C78.1659 11.4246 78.0353 11.6953 77.8579 12.0126C77.6993 12.274 77.5826 12.5026 77.5079 12.6986C77.4333 12.8946 77.3959 13.1093 77.3959 13.3426V14.9246C77.3959 15.2326 77.4846 15.4706 77.6619 15.6386C77.8486 15.7973 78.1146 15.8766 78.4599 15.8766C78.8053 15.8766 79.0666 15.7973 79.2439 15.6386C79.4213 15.4706 79.5099 15.2326 79.5099 14.9246V8.63864H80.6999ZM75.7299 10.9766C75.7299 10.79 75.6693 10.6406 75.5479 10.5286C75.4359 10.4166 75.2866 10.3606 75.0999 10.3606C74.9133 10.3606 74.7593 10.4166 74.6379 10.5286C74.5259 10.6406 74.4699 10.79 74.4699 10.9766C74.4699 11.1633 74.5259 11.3173 74.6379 11.4386C74.7593 11.5506 74.9133 11.6066 75.0999 11.6066C75.2866 11.6066 75.4359 11.5506 75.5479 11.4386C75.6693 11.3173 75.7299 11.1633 75.7299 10.9766ZM79.5761 4.06064H80.6961V7.05664H79.5761V4.06064ZM85.5264 8.49864C85.9744 8.49864 86.3384 8.63864 86.6184 8.91864C86.9078 9.1893 87.0524 9.54397 87.0524 9.98264V16.7026H85.8764L82.0264 12.5026L82.6844 11.7886L85.8624 15.2326V11.2846C85.7224 11.3313 85.5871 11.3546 85.4564 11.3546C85.0458 11.3546 84.7051 11.224 84.4344 10.9626C84.1731 10.692 84.0424 10.342 84.0424 9.91264C84.0424 9.50197 84.1824 9.16597 84.4624 8.90464C84.7424 8.63397 85.0971 8.49864 85.5264 8.49864ZM84.8124 9.92664C84.8124 10.1133 84.8731 10.272 84.9944 10.4026C85.1251 10.524 85.2838 10.5846 85.4704 10.5846C85.6664 10.5846 85.8251 10.524 85.9464 10.4026C86.0678 10.272 86.1284 10.1133 86.1284 9.92664C86.1284 9.73997 86.0678 9.58597 85.9464 9.46464C85.8251 9.33397 85.6664 9.26864 85.4704 9.26864C85.2838 9.26864 85.1251 9.33397 84.9944 9.46464C84.8731 9.58597 84.8124 9.73997 84.8124 9.92664ZM93.5498 8.49864C94.1565 8.59197 94.6418 8.8953 95.0058 9.40864C95.3698 9.91264 95.5518 10.538 95.5518 11.2846V16.7026H94.3618V11.3406C94.3618 10.8833 94.3012 10.51 94.1798 10.2206C94.0585 9.9313 93.8625 9.69797 93.5918 9.52064L92.1778 10.5706L90.7078 9.49264C90.4092 9.68864 90.1898 9.94064 90.0498 10.2486C89.9098 10.5566 89.8398 10.9393 89.8398 11.3966C89.8398 11.602 89.8632 11.8306 89.9098 12.0826C89.9658 12.3346 90.0452 12.6473 90.1478 13.0206C90.2412 13.3846 90.3112 13.688 90.3578 13.9306C90.4138 14.164 90.4418 14.374 90.4418 14.5606V15.0086C90.5818 14.8126 90.7498 14.6213 90.9458 14.4346C91.1512 14.248 91.4732 13.9633 91.9118 13.5806C91.6038 13.5433 91.3518 13.4173 91.1558 13.2026C90.9692 12.9786 90.8758 12.708 90.8758 12.3906C90.8758 12.036 90.9925 11.742 91.2258 11.5086C91.4685 11.2753 91.7765 11.1586 92.1498 11.1586C92.5138 11.1586 92.8172 11.28 93.0598 11.5226C93.3025 11.756 93.4238 12.0593 93.4238 12.4326C93.4238 12.778 93.3118 13.0953 93.0878 13.3846C92.8638 13.674 92.5185 14.0286 92.0518 14.4486C91.5665 14.8873 91.1932 15.27 90.9318 15.5966C90.6798 15.9233 90.5352 16.292 90.4978 16.7026H89.3218V14.7426C89.3218 14.5373 89.2332 14.0893 89.0558 13.3986C88.9345 12.96 88.8412 12.582 88.7758 12.2646C88.7105 11.9473 88.6778 11.6626 88.6778 11.4106C88.6778 10.664 88.8645 10.0293 89.2378 9.50664C89.6112 8.97464 90.1385 8.63864 90.8198 8.49864L92.1778 9.57664L93.5498 8.49864ZM91.5478 12.3906C91.5478 12.568 91.6038 12.7126 91.7158 12.8246C91.8278 12.9366 91.9725 12.9926 92.1498 12.9926C92.3272 12.9926 92.4672 12.9366 92.5698 12.8246C92.6818 12.7126 92.7378 12.568 92.7378 12.3906C92.7378 12.2226 92.6818 12.0826 92.5698 11.9706C92.4672 11.8586 92.3272 11.8026 92.1498 11.8026C91.9725 11.8026 91.8278 11.8586 91.7158 11.9706C91.6038 12.0826 91.5478 12.2226 91.5478 12.3906ZM94.287 4.06064H95.407V7.05664H94.287V4.06064ZM100.598 8.49864C101.559 8.49864 102.329 8.71797 102.908 9.15664C103.486 9.5953 103.776 10.1786 103.776 10.9066V14.8546C103.776 15.48 103.519 15.97 103.006 16.3246C102.492 16.67 101.774 16.8426 100.85 16.8426C99.9258 16.8426 99.2118 16.67 98.7078 16.3246C98.2038 15.97 97.9518 15.48 97.9518 14.8546V12.6146C97.9518 12.1853 98.0918 11.8353 98.3718 11.5646C98.6518 11.2846 99.0111 11.1446 99.4498 11.1446C99.8884 11.1446 100.243 11.2753 100.514 11.5366C100.794 11.798 100.934 12.1386 100.934 12.5586C100.934 12.9786 100.803 13.3193 100.542 13.5806C100.28 13.842 99.9444 13.9726 99.5338 13.9726C99.4124 13.9726 99.2771 13.954 99.1278 13.9166V14.7426C99.1278 15.1066 99.2818 15.3866 99.5898 15.5826C99.9071 15.7786 100.341 15.8766 100.892 15.8766C101.442 15.8766 101.862 15.774 102.152 15.5686C102.441 15.3633 102.586 15.074 102.586 14.7006V10.9066C102.586 10.468 102.399 10.118 102.026 9.85664C101.662 9.5953 101.176 9.46464 100.57 9.46464C99.9818 9.46464 99.4824 9.58597 99.0718 9.82864C98.6704 10.0713 98.4278 10.398 98.3438 10.8086H97.1958C97.2704 10.0993 97.6158 9.5393 98.2318 9.12864C98.8571 8.70864 99.6458 8.49864 100.598 8.49864ZM99.5198 11.9146C99.3238 11.9146 99.1651 11.9753 99.0438 12.0966C98.9224 12.218 98.8618 12.372 98.8618 12.5586C98.8618 12.7453 98.9224 12.8993 99.0438 13.0206C99.1651 13.142 99.3238 13.2026 99.5198 13.2026C99.7064 13.2026 99.8604 13.142 99.9818 13.0206C100.103 12.8993 100.164 12.7453 100.164 12.5586C100.164 12.372 100.103 12.218 99.9818 12.0966C99.8604 11.9753 99.7064 11.9146 99.5198 11.9146ZM108.353 13.9866C108.763 13.9866 109.099 14.122 109.361 14.3926C109.631 14.6633 109.767 15.0086 109.767 15.4286C109.767 15.8393 109.627 16.18 109.347 16.4506C109.076 16.712 108.721 16.8426 108.283 16.8426C107.835 16.8426 107.466 16.7073 107.177 16.4366C106.897 16.1566 106.757 15.7973 106.757 15.3586V7.49064C106.757 7.1453 106.794 6.8513 106.869 6.60864C106.953 6.36597 107.069 6.0813 107.219 5.75464C107.321 5.53997 107.396 5.3673 107.443 5.23664C107.489 5.10597 107.513 4.96597 107.513 4.81664C107.513 4.4993 107.396 4.25664 107.163 4.08864C106.939 3.9113 106.645 3.82264 106.281 3.82264C106.066 3.82264 105.87 3.85997 105.693 3.93464C105.515 3.99997 105.366 4.0933 105.245 4.21464H105.343C105.688 4.21464 105.973 4.32664 106.197 4.55064C106.43 4.77464 106.547 5.0593 106.547 5.40464C106.547 5.76864 106.421 6.0673 106.169 6.30064C105.926 6.53397 105.613 6.65064 105.231 6.65064C104.848 6.65064 104.531 6.5293 104.279 6.28664C104.027 6.03464 103.901 5.67064 103.901 5.19464C103.901 4.77464 104.003 4.39664 104.209 4.06064C104.405 3.7153 104.689 3.44464 105.063 3.24864C105.436 3.05264 105.865 2.95464 106.351 2.95464C107.013 2.95464 107.569 3.12264 108.017 3.45864C108.465 3.79464 108.689 4.2473 108.689 4.81664C108.689 5.02197 108.661 5.20397 108.605 5.36264C108.558 5.51197 108.479 5.7033 108.367 5.93664C108.236 6.18864 108.133 6.4313 108.059 6.66464C107.984 6.88864 107.947 7.16864 107.947 7.50464V14.0426C108.096 14.0053 108.231 13.9866 108.353 13.9866ZM105.819 5.43264C105.819 5.26464 105.763 5.1293 105.651 5.02664C105.548 4.91464 105.413 4.85864 105.245 4.85864C105.077 4.85864 104.937 4.91464 104.825 5.02664C104.722 5.1293 104.671 5.26464 104.671 5.43264C104.671 5.60064 104.722 5.74064 104.825 5.85264C104.937 5.9553 105.077 6.00664 105.245 6.00664C105.413 6.00664 105.548 5.9553 105.651 5.85264C105.763 5.74064 105.819 5.60064 105.819 5.43264ZM108.339 16.0726C108.525 16.0726 108.679 16.012 108.801 15.8906C108.931 15.76 108.997 15.6013 108.997 15.4146C108.997 15.228 108.931 15.074 108.801 14.9526C108.679 14.822 108.525 14.7566 108.339 14.7566C108.143 14.7566 107.984 14.822 107.863 14.9526C107.741 15.074 107.681 15.228 107.681 15.4146C107.681 15.6013 107.741 15.76 107.863 15.8906C107.984 16.012 108.143 16.0726 108.339 16.0726ZM117.438 14.0986C117.727 14.2013 117.956 14.3646 118.124 14.5886C118.292 14.8126 118.376 15.0646 118.376 15.3446C118.376 15.7926 118.236 16.1566 117.956 16.4366C117.676 16.7073 117.321 16.8426 116.892 16.8426C116.472 16.8426 116.126 16.7073 115.856 16.4366C115.585 16.166 115.45 15.816 115.45 15.3866V15.3306C115.067 15.48 114.698 15.676 114.344 15.9186C113.989 16.1613 113.704 16.4226 113.49 16.7026H112.244V11.2846C112.104 11.3313 111.968 11.3546 111.838 11.3546C111.427 11.3546 111.086 11.224 110.816 10.9626C110.554 10.692 110.424 10.342 110.424 9.91264C110.424 9.50197 110.564 9.16597 110.844 8.90464C111.124 8.63397 111.478 8.49864 111.908 8.49864C112.356 8.49864 112.72 8.63864 113 8.91864C113.289 9.1893 113.434 9.54397 113.434 9.98264V15.5266C113.686 15.256 114.204 14.934 114.988 14.5606C115.501 14.318 115.884 14.108 116.136 13.9306C116.388 13.7533 116.56 13.576 116.654 13.3986C116.747 13.212 116.794 12.988 116.794 12.7266V8.63864H117.984V12.7686C117.984 13.058 117.937 13.3193 117.844 13.5526C117.75 13.786 117.615 13.968 117.438 14.0986ZM111.194 9.92664C111.194 10.1133 111.254 10.272 111.376 10.4026C111.506 10.524 111.665 10.5846 111.852 10.5846C112.048 10.5846 112.206 10.524 112.328 10.4026C112.449 10.272 112.51 10.1133 112.51 9.92664C112.51 9.73997 112.449 9.58597 112.328 9.46464C112.206 9.33397 112.048 9.26864 111.852 9.26864C111.665 9.26864 111.506 9.33397 111.376 9.46464C111.254 9.58597 111.194 9.73997 111.194 9.92664ZM116.892 16.0726C117.088 16.0726 117.246 16.012 117.368 15.8906C117.489 15.76 117.55 15.6013 117.55 15.4146C117.55 15.228 117.489 15.074 117.368 14.9526C117.246 14.822 117.088 14.7566 116.892 14.7566C116.705 14.7566 116.551 14.822 116.43 14.9526C116.308 15.074 116.248 15.228 116.248 15.4146C116.248 15.6013 116.308 15.76 116.43 15.8906C116.551 16.012 116.705 16.0726 116.892 16.0726ZM53.3296 30.4646C53.0963 30.4646 52.8909 30.5393 52.7136 30.6886C52.5456 30.8286 52.4523 31.034 52.4336 31.3046C53.4789 31.4353 54.3656 31.664 55.0936 31.9906C55.8216 32.3173 56.1856 32.7233 56.1856 33.2086V36.3586C56.1856 36.7973 56.0409 37.1566 55.7516 37.4366C55.4716 37.7073 55.1076 37.8426 54.6596 37.8426C54.2209 37.8426 53.8616 37.712 53.5816 37.4506C53.3109 37.18 53.1756 36.8393 53.1756 36.4286C53.1756 35.9993 53.3063 35.654 53.5676 35.3926C53.8289 35.122 54.1696 34.9866 54.5896 34.9866C54.7203 34.9866 54.8556 35.01 54.9956 35.0566V33.3626C54.9956 33.1013 54.6503 32.8586 53.9596 32.6346C53.2689 32.4013 52.3356 32.21 51.1596 32.0606C51.1689 31.2393 51.3509 30.6093 51.7056 30.1706C52.0696 29.7226 52.5643 29.4986 53.1896 29.4986C53.4229 29.4986 53.6469 29.522 53.8616 29.5686C54.0763 29.6153 54.3703 29.69 54.7436 29.7926C55.1449 29.914 55.4063 29.9746 55.5276 29.9746C55.6396 29.9746 55.7423 29.928 55.8356 29.8346C55.9289 29.7413 55.9943 29.6106 56.0316 29.4426L56.9276 29.6946C56.8156 30.0866 56.6523 30.39 56.4376 30.6046C56.2229 30.8193 55.9756 30.9266 55.6956 30.9266C55.5649 30.9266 55.3969 30.9033 55.1916 30.8566C54.9863 30.81 54.7763 30.7586 54.5616 30.7026C54.5056 30.684 54.3329 30.642 54.0436 30.5766C53.7636 30.502 53.5256 30.4646 53.3296 30.4646ZM54.6036 37.0726C54.7996 37.0726 54.9583 37.012 55.0796 36.8906C55.2009 36.76 55.2616 36.6013 55.2616 36.4146C55.2616 36.228 55.2009 36.074 55.0796 35.9526C54.9583 35.822 54.7996 35.7566 54.6036 35.7566C54.4076 35.7566 54.2489 35.822 54.1276 35.9526C54.0063 36.074 53.9456 36.228 53.9456 36.4146C53.9456 36.6013 54.0063 36.76 54.1276 36.8906C54.2489 37.012 54.4076 37.0726 54.6036 37.0726ZM60.7828 33.1666C60.2882 33.1666 59.8355 33.092 59.4248 32.9426C59.0235 32.784 58.7015 32.5646 58.4588 32.2846C58.2162 32.0046 58.0948 31.6826 58.0948 31.3186C58.0948 30.8986 58.2348 30.5533 58.5148 30.2826C58.8042 30.0026 59.1588 29.8626 59.5788 29.8626C59.9895 29.8626 60.3348 30.0026 60.6148 30.2826C60.8948 30.5533 61.0348 30.8986 61.0348 31.3186C61.0348 31.7013 60.8855 32.0093 60.5868 32.2426C60.6428 32.252 60.7082 32.2566 60.7828 32.2566C61.4548 32.2566 61.9682 32.042 62.3228 31.6126C62.6868 31.1833 62.8782 30.5813 62.8968 29.8066H64.0728C64.0542 30.4506 63.9142 31.0293 63.6528 31.5426C63.3915 32.0466 63.0182 32.4433 62.5328 32.7326C62.0475 33.022 61.4642 33.1666 60.7828 33.1666ZM59.5648 31.8926C59.7608 31.8926 59.9148 31.8366 60.0268 31.7246C60.1388 31.6126 60.1948 31.4633 60.1948 31.2766C60.1948 31.0806 60.1388 30.9266 60.0268 30.8146C59.9148 30.7026 59.7608 30.6466 59.5648 30.6466C59.3782 30.6466 59.2288 30.7026 59.1168 30.8146C59.0048 30.9266 58.9488 31.0806 58.9488 31.2766C58.9488 31.4633 59.0048 31.6126 59.1168 31.7246C59.2288 31.8366 59.3782 31.8926 59.5648 31.8926ZM60.7828 37.4366C60.2882 37.4366 59.8355 37.362 59.4248 37.2126C59.0235 37.054 58.7015 36.8346 58.4588 36.5546C58.2162 36.2746 58.0948 35.9526 58.0948 35.5886C58.0948 35.1686 58.2348 34.8233 58.5148 34.5526C58.8042 34.2726 59.1588 34.1326 59.5788 34.1326C59.9895 34.1326 60.3348 34.2726 60.6148 34.5526C60.8948 34.8233 61.0348 35.1686 61.0348 35.5886C61.0348 35.9713 60.8855 36.284 60.5868 36.5266C60.6428 36.536 60.7082 36.5406 60.7828 36.5406C61.4642 36.5126 61.9822 36.2886 62.3368 35.8686C62.6915 35.4393 62.8782 34.842 62.8968 34.0766H64.0728C64.0542 34.7206 63.9142 35.2993 63.6528 35.8126C63.3915 36.3166 63.0182 36.7133 62.5328 37.0026C62.0475 37.292 61.4642 37.4366 60.7828 37.4366ZM59.5648 36.1766C59.7608 36.1766 59.9148 36.1206 60.0268 36.0086C60.1388 35.8873 60.1948 35.7333 60.1948 35.5466C60.1948 35.36 60.1388 35.2106 60.0268 35.0986C59.9148 34.9773 59.7608 34.9166 59.5648 34.9166C59.3782 34.9166 59.2288 34.9773 59.1168 35.0986C59.0048 35.2106 58.9488 35.36 58.9488 35.5466C58.9488 35.7333 59.0048 35.8873 59.1168 36.0086C59.2288 36.1206 59.3782 36.1766 59.5648 36.1766ZM68.9474 29.4986C69.9274 29.4986 70.7114 29.7553 71.2994 30.2686C71.8967 30.7726 72.1954 31.4586 72.1954 32.3266V37.7026H71.0054V32.4246C71.0054 31.7993 70.8187 31.3186 70.4454 30.9826C70.0814 30.6373 69.582 30.4646 68.9474 30.4646C68.462 30.4646 68.0514 30.558 67.7154 30.7446C67.3794 30.9313 67.1274 31.1693 66.9594 31.4586C66.7914 31.748 66.7074 32.0513 66.7074 32.3686C66.7074 32.574 66.7307 32.798 66.7774 33.0406C66.8334 33.2833 66.9127 33.61 67.0154 34.0206C67.1087 34.394 67.1787 34.6973 67.2254 34.9306C67.272 35.164 67.2954 35.374 67.2954 35.5606V35.8266C67.4914 35.5373 67.8507 35.164 68.3734 34.7066L68.6954 34.3986C68.378 34.352 68.1214 34.2166 67.9254 33.9926C67.7387 33.7686 67.6454 33.498 67.6454 33.1806C67.6454 32.826 67.762 32.532 67.9954 32.2986C68.238 32.0653 68.546 31.9486 68.9194 31.9486C69.2834 31.9486 69.5867 32.07 69.8294 32.3126C70.072 32.546 70.1934 32.8493 70.1934 33.2226C70.1934 33.5773 70.0814 33.9086 69.8574 34.2166C69.6427 34.5246 69.3114 34.9026 68.8634 35.3506C68.3967 35.808 68.0374 36.2093 67.7854 36.5546C67.5427 36.9 67.398 37.2826 67.3514 37.7026H66.1754V35.7426C66.1754 35.5373 66.0867 35.08 65.9094 34.3706C65.788 33.9226 65.6947 33.54 65.6294 33.2226C65.564 32.896 65.5314 32.6066 65.5314 32.3546C65.5314 31.832 65.6667 31.356 65.9374 30.9266C66.208 30.488 66.6 30.1426 67.1134 29.8906C67.636 29.6293 68.2474 29.4986 68.9474 29.4986ZM68.3174 33.1806C68.3174 33.358 68.3734 33.5026 68.4854 33.6146C68.5974 33.7266 68.742 33.7826 68.9194 33.7826C69.0967 33.7826 69.2367 33.7266 69.3394 33.6146C69.4514 33.5026 69.5074 33.358 69.5074 33.1806C69.5074 33.0033 69.4514 32.8633 69.3394 32.7606C69.2367 32.6486 69.0967 32.5926 68.9194 32.5926C68.742 32.5926 68.5974 32.6486 68.4854 32.7606C68.3734 32.8633 68.3174 33.0033 68.3174 33.1806ZM74.1558 24.8366C74.1465 25.5086 73.9925 26.1013 73.6938 26.6146C73.3951 27.1186 72.9845 27.5106 72.4618 27.7906C71.9298 28.0613 71.3278 28.1966 70.6558 28.1966C70.1238 28.1966 69.6571 28.1173 69.2558 27.9586C68.8451 27.8 68.5278 27.5806 68.3038 27.3006C68.0798 27.0113 67.9678 26.6893 67.9678 26.3346C67.9678 25.9426 68.0985 25.6206 68.3598 25.3686C68.6211 25.1166 68.9525 24.9906 69.3538 24.9906C69.7551 24.9906 70.0865 25.1166 70.3478 25.3686C70.6091 25.6206 70.7398 25.9473 70.7398 26.3486C70.7398 26.5633 70.7025 26.764 70.6278 26.9506C70.5438 27.128 70.4318 27.2773 70.2918 27.3986C70.3758 27.408 70.4971 27.4126 70.6558 27.4126C71.4118 27.4126 72.0138 27.1746 72.4618 26.6986C72.9005 26.2133 73.1245 25.5926 73.1338 24.8366H74.1558ZM68.6958 26.3206C68.6958 26.5073 68.7611 26.6613 68.8918 26.7826C69.0131 26.904 69.1671 26.9646 69.3538 26.9646C69.5405 26.9646 69.6945 26.904 69.8158 26.7826C69.9371 26.6613 69.9978 26.5073 69.9978 26.3206C69.9978 26.1433 69.9371 25.994 69.8158 25.8726C69.6945 25.7513 69.5405 25.6906 69.3538 25.6906C69.1671 25.6906 69.0131 25.7513 68.8918 25.8726C68.7611 25.994 68.6958 26.1433 68.6958 26.3206ZM81.2225 29.6386V35.9526C81.2225 36.5406 80.9612 37.0026 80.4385 37.3386C79.9252 37.6746 79.2112 37.8426 78.2965 37.8426C77.3818 37.8426 76.6632 37.6746 76.1405 37.3386C75.6272 37.0026 75.3705 36.5406 75.3705 35.9526V32.2846C75.2305 32.3313 75.0952 32.3546 74.9645 32.3546C74.5538 32.3546 74.2132 32.224 73.9425 31.9626C73.6812 31.692 73.5505 31.342 73.5505 30.9126C73.5505 30.502 73.6905 30.166 73.9705 29.9046C74.2505 29.634 74.6052 29.4986 75.0345 29.4986C75.4825 29.4986 75.8465 29.6386 76.1265 29.9186C76.4158 30.1893 76.5605 30.544 76.5605 30.9826V35.8266C76.5605 36.1533 76.7145 36.41 77.0225 36.5966C77.3305 36.7833 77.7552 36.8766 78.2965 36.8766C78.8378 36.8766 79.2625 36.7833 79.5705 36.5966C79.8785 36.41 80.0325 36.1533 80.0325 35.8266V29.6386H81.2225ZM74.3205 30.9266C74.3205 31.1133 74.3812 31.272 74.5025 31.4026C74.6332 31.524 74.7918 31.5846 74.9785 31.5846C75.1745 31.5846 75.3332 31.524 75.4545 31.4026C75.5758 31.272 75.6365 31.1133 75.6365 30.9266C75.6365 30.74 75.5758 30.586 75.4545 30.4646C75.3332 30.334 75.1745 30.2686 74.9785 30.2686C74.7918 30.2686 74.6332 30.334 74.5025 30.4646C74.3812 30.586 74.3205 30.74 74.3205 30.9266ZM90.386 26.3206V35.9526C90.386 36.5406 90.12 37.0026 89.588 37.3386C89.0653 37.6746 88.3326 37.8426 87.39 37.8426C86.4753 37.8426 85.7473 37.6746 85.206 37.3386C84.6646 37.0026 84.394 36.5406 84.394 35.9526V32.2846C84.254 32.3313 84.1186 32.3546 83.988 32.3546C83.5773 32.3546 83.2366 32.224 82.966 31.9626C82.7046 31.692 82.574 31.342 82.574 30.9126C82.574 30.502 82.714 30.166 82.994 29.9046C83.274 29.634 83.6286 29.4986 84.058 29.4986C84.506 29.4986 84.87 29.6386 85.15 29.9186C85.4393 30.1893 85.584 30.544 85.584 30.9826V35.8266C85.584 36.144 85.7473 36.4006 86.074 36.5966C86.41 36.7833 86.8486 36.8766 87.39 36.8766C87.9593 36.8766 88.4026 36.7833 88.72 36.5966C89.0373 36.41 89.196 36.1533 89.196 35.8266V26.3206H90.386ZM83.344 30.9266C83.344 31.1133 83.4046 31.272 83.526 31.4026C83.6566 31.524 83.8153 31.5846 84.002 31.5846C84.198 31.5846 84.3566 31.524 84.478 31.4026C84.5993 31.272 84.66 31.1133 84.66 30.9266C84.66 30.74 84.5993 30.586 84.478 30.4646C84.3566 30.334 84.198 30.2686 84.002 30.2686C83.8153 30.2686 83.6566 30.334 83.526 30.4646C83.4046 30.586 83.344 30.74 83.344 30.9266ZM94.0718 30.4646C93.8384 30.4646 93.6331 30.5393 93.4558 30.6886C93.2878 30.8286 93.1944 31.034 93.1758 31.3046C94.2211 31.4353 95.1078 31.664 95.8358 31.9906C96.5638 32.3173 96.9278 32.7233 96.9278 33.2086V36.3586C96.9278 36.7973 96.7831 37.1566 96.4938 37.4366C96.2138 37.7073 95.8498 37.8426 95.4018 37.8426C94.9631 37.8426 94.6038 37.712 94.3238 37.4506C94.0531 37.18 93.9178 36.8393 93.9178 36.4286C93.9178 35.9993 94.0484 35.654 94.3098 35.3926C94.5711 35.122 94.9118 34.9866 95.3318 34.9866C95.4624 34.9866 95.5978 35.01 95.7378 35.0566V33.3626C95.7378 33.1013 95.3924 32.8586 94.7018 32.6346C94.0111 32.4013 93.0778 32.21 91.9018 32.0606C91.9111 31.2393 92.0931 30.6093 92.4478 30.1706C92.8118 29.7226 93.3064 29.4986 93.9318 29.4986C94.1651 29.4986 94.3891 29.522 94.6038 29.5686C94.8184 29.6153 95.1124 29.69 95.4858 29.7926C95.8871 29.914 96.1484 29.9746 96.2698 29.9746C96.3818 29.9746 96.4844 29.928 96.5778 29.8346C96.6711 29.7413 96.7364 29.6106 96.7738 29.4426L97.6698 29.6946C97.5578 30.0866 97.3944 30.39 97.1798 30.6046C96.9651 30.8193 96.7178 30.9266 96.4378 30.9266C96.3071 30.9266 96.1391 30.9033 95.9338 30.8566C95.7284 30.81 95.5184 30.7586 95.3038 30.7026C95.2478 30.684 95.0751 30.642 94.7858 30.5766C94.5058 30.502 94.2678 30.4646 94.0718 30.4646ZM95.3458 37.0726C95.5418 37.0726 95.7004 37.012 95.8218 36.8906C95.9431 36.76 96.0038 36.6013 96.0038 36.4146C96.0038 36.228 95.9431 36.074 95.8218 35.9526C95.7004 35.822 95.5418 35.7566 95.3458 35.7566C95.1498 35.7566 94.9911 35.822 94.8698 35.9526C94.7484 36.074 94.6878 36.228 94.6878 36.4146C94.6878 36.6013 94.7484 36.76 94.8698 36.8906C94.9911 37.012 95.1498 37.0726 95.3458 37.0726ZM101.525 33.1666C101.03 33.1666 100.578 33.092 100.167 32.9426C99.7657 32.784 99.4437 32.5646 99.201 32.2846C98.9584 32.0046 98.837 31.6826 98.837 31.3186C98.837 30.8986 98.977 30.5533 99.257 30.2826C99.5464 30.0026 99.901 29.8626 100.321 29.8626C100.732 29.8626 101.077 30.0026 101.357 30.2826C101.637 30.5533 101.777 30.8986 101.777 31.3186C101.777 31.7013 101.628 32.0093 101.329 32.2426C101.385 32.252 101.45 32.2566 101.525 32.2566C102.197 32.2566 102.71 32.042 103.065 31.6126C103.429 31.1833 103.62 30.5813 103.639 29.8066H104.815C104.796 30.4506 104.656 31.0293 104.395 31.5426C104.134 32.0466 103.76 32.4433 103.275 32.7326C102.79 33.022 102.206 33.1666 101.525 33.1666ZM100.307 31.8926C100.503 31.8926 100.657 31.8366 100.769 31.7246C100.881 31.6126 100.937 31.4633 100.937 31.2766C100.937 31.0806 100.881 30.9266 100.769 30.8146C100.657 30.7026 100.503 30.6466 100.307 30.6466C100.12 30.6466 99.971 30.7026 99.859 30.8146C99.747 30.9266 99.691 31.0806 99.691 31.2766C99.691 31.4633 99.747 31.6126 99.859 31.7246C99.971 31.8366 100.12 31.8926 100.307 31.8926ZM101.525 37.4366C101.03 37.4366 100.578 37.362 100.167 37.2126C99.7657 37.054 99.4437 36.8346 99.201 36.5546C98.9584 36.2746 98.837 35.9526 98.837 35.5886C98.837 35.1686 98.977 34.8233 99.257 34.5526C99.5464 34.2726 99.901 34.1326 100.321 34.1326C100.732 34.1326 101.077 34.2726 101.357 34.5526C101.637 34.8233 101.777 35.1686 101.777 35.5886C101.777 35.9713 101.628 36.284 101.329 36.5266C101.385 36.536 101.45 36.5406 101.525 36.5406C102.206 36.5126 102.724 36.2886 103.079 35.8686C103.434 35.4393 103.62 34.842 103.639 34.0766H104.815C104.796 34.7206 104.656 35.2993 104.395 35.8126C104.134 36.3166 103.76 36.7133 103.275 37.0026C102.79 37.292 102.206 37.4366 101.525 37.4366ZM100.307 36.1766C100.503 36.1766 100.657 36.1206 100.769 36.0086C100.881 35.8873 100.937 35.7333 100.937 35.5466C100.937 35.36 100.881 35.2106 100.769 35.0986C100.657 34.9773 100.503 34.9166 100.307 34.9166C100.12 34.9166 99.971 34.9773 99.859 35.0986C99.747 35.2106 99.691 35.36 99.691 35.5466C99.691 35.7333 99.747 35.8873 99.859 36.0086C99.971 36.1206 100.12 36.1766 100.307 36.1766ZM108.36 34.9866C108.78 34.9866 109.12 35.122 109.382 35.3926C109.643 35.6633 109.774 36.0086 109.774 36.4286C109.774 36.8393 109.634 37.18 109.354 37.4506C109.083 37.712 108.728 37.8426 108.29 37.8426C107.842 37.8426 107.478 37.7073 107.198 37.4366C106.918 37.1566 106.778 36.7973 106.778 36.3586V29.6386H107.954V35.0566C108.094 35.01 108.229 34.9866 108.36 34.9866ZM108.346 37.0726C108.542 37.0726 108.7 37.012 108.822 36.8906C108.943 36.76 109.004 36.6013 109.004 36.4146C109.004 36.228 108.943 36.074 108.822 35.9526C108.7 35.822 108.542 35.7566 108.346 35.7566C108.15 35.7566 107.991 35.822 107.87 35.9526C107.748 36.074 107.688 36.228 107.688 36.4146C107.688 36.6013 107.748 36.76 107.87 36.8906C107.991 37.012 108.15 37.0726 108.346 37.0726ZM116.684 29.4986C117.682 29.4986 118.182 30.0726 118.182 31.2206V37.7026H116.992V31.2346C116.992 30.7586 116.838 30.5206 116.53 30.5206C116.38 30.5206 116.264 30.558 116.18 30.6326C116.105 30.698 116.04 30.8006 115.984 30.9406L113.408 37.7026H112.162V32.2846C112.022 32.3313 111.886 32.3546 111.756 32.3546C111.345 32.3546 111.004 32.224 110.734 31.9626C110.472 31.692 110.342 31.342 110.342 30.9126C110.342 30.502 110.482 30.166 110.762 29.9046C111.042 29.634 111.396 29.4986 111.826 29.4986C112.274 29.4986 112.638 29.6386 112.918 29.9186C113.207 30.1893 113.352 30.544 113.352 30.9826V34.6506C113.352 35.024 113.314 35.5 113.24 36.0786L113.632 34.5946L115.046 30.7586C115.354 29.9186 115.9 29.4986 116.684 29.4986ZM111.112 30.9266C111.112 31.1133 111.172 31.272 111.294 31.4026C111.424 31.524 111.583 31.5846 111.77 31.5846C111.966 31.5846 112.124 31.524 112.246 31.4026C112.367 31.272 112.428 31.1133 112.428 30.9266C112.428 30.74 112.367 30.586 112.246 30.4646C112.124 30.334 111.966 30.2686 111.77 30.2686C111.583 30.2686 111.424 30.334 111.294 30.4646C111.172 30.586 111.112 30.74 111.112 30.9266ZM126.837 28.8546C126.734 29.3306 126.435 29.8533 125.941 30.4226C126.389 30.8893 126.613 31.4726 126.613 32.1726V37.7026H125.437V32.2846C125.437 31.8926 125.334 31.5426 125.129 31.2346C124.783 31.5333 124.387 31.8366 123.939 32.1446C124.153 32.238 124.321 32.3826 124.443 32.5786C124.564 32.7653 124.625 32.994 124.625 33.2646C124.625 33.638 124.508 33.946 124.275 34.1886C124.041 34.422 123.738 34.5386 123.365 34.5386C123.15 34.5386 122.94 34.492 122.735 34.3986C122.539 34.296 122.389 34.1513 122.287 33.9646C122.1 34.254 121.941 34.6133 121.811 35.0426C121.68 35.472 121.615 35.8733 121.615 36.2466V37.7026H120.439V35.7006C120.439 35.5606 120.411 35.3646 120.355 35.1126C120.299 34.8606 120.238 34.604 120.173 34.3426C119.93 33.4653 119.809 32.826 119.809 32.4246C119.809 31.5286 120.117 30.8193 120.733 30.2966C121.358 29.7646 122.207 29.4986 123.281 29.4986C123.981 29.4986 124.592 29.6153 125.115 29.8486C125.32 29.4846 125.441 29.1533 125.479 28.8546H126.837ZM122.903 32.0606C123.509 31.6313 124.027 31.1786 124.457 30.7026C124.121 30.544 123.729 30.4646 123.281 30.4646C122.571 30.4646 122.007 30.6466 121.587 31.0106C121.176 31.3746 120.971 31.8646 120.971 32.4806C120.971 32.714 120.999 33.0033 121.055 33.3486C121.12 33.6846 121.162 33.8946 121.181 33.9786L121.265 34.3706C121.386 33.7733 121.587 33.2693 121.867 32.8586C122.147 32.4386 122.492 32.1726 122.903 32.0606ZM123.337 33.8666C123.514 33.8666 123.654 33.8106 123.757 33.6986C123.869 33.5866 123.925 33.442 123.925 33.2646C123.925 33.0873 123.869 32.9473 123.757 32.8446C123.654 32.7326 123.514 32.6766 123.337 32.6766C123.159 32.6766 123.015 32.7326 122.903 32.8446C122.8 32.9473 122.749 33.0873 122.749 33.2646C122.749 33.442 122.8 33.5866 122.903 33.6986C123.015 33.8106 123.159 33.8666 123.337 33.8666Z" fill="#101C3D"/>
  </svg>
  