<svg width="110" height="246" viewBox="0 0 110 246" fill="none" xmlns="http://www.w3.org/2000/svg">
  <rect x="0.912695" y="0.849219" width="25.1746" height="189.539" rx="4.17402" stroke="#101C3D" stroke-width="1.19258"/>
  <path d="M12.2613 5.94824C12.6944 5.08271 13.9297 5.08271 14.3629 5.94824L15.9383 9.09621C16.1107 9.4407 16.441 9.6788 16.8223 9.73347L20.3285 10.2361C21.2974 10.3751 21.6817 11.5684 20.9759 12.2466L18.4622 14.6619C18.1808 14.9323 18.0521 15.3248 18.1185 15.7093L18.7113 19.1385C18.8769 20.0963 17.8742 20.8295 17.0116 20.3813L13.8532 18.7402C13.5139 18.5639 13.1101 18.5637 12.7706 18.7397L9.6032 20.3818C8.73975 20.8294 7.73734 20.0942 7.90492 19.1361L8.50411 15.7106C8.57149 15.3254 8.44279 14.9318 8.16079 14.6609L5.64827 12.2466C4.94247 11.5684 5.32673 10.3751 6.29566 10.2361L9.80178 9.73347C10.1831 9.6788 10.5134 9.44069 10.6858 9.09621L12.2613 5.94824Z" fill="#F9D142" stroke="#101C3D" stroke-width="1.17504" stroke-linejoin="round"/>
  <circle cx="10.962" cy="12.0735" r="1.17504" fill="#101C3D"/>
  <circle cx="15.6621" cy="12.0735" r="1.17504" fill="#101C3D"/>
  <path d="M11.5496 15.0112C11.5496 15.0112 13.3121 19.1239 15.0747 15.0112" stroke="#101C3D" stroke-width="1.17504"/>
  <path d="M12.2611 24.3022C12.6943 23.4367 13.9296 23.4367 14.3627 24.3022L15.9382 27.4502C16.1106 27.7947 16.4409 28.0328 16.8222 28.0875L20.3283 28.5902C21.2973 28.7291 21.6815 29.9224 20.9757 30.6006L18.4621 33.0159C18.1807 33.2863 18.0519 33.6788 18.1184 34.0633L18.7112 37.4925C18.8767 38.4503 17.874 39.1835 17.0115 38.7353L13.8531 37.0942C13.5138 36.9179 13.11 36.9177 12.7705 37.0937L9.60308 38.7358C8.73963 39.1834 7.73722 38.4482 7.9048 37.4901L8.50398 34.0646C8.57137 33.6794 8.44267 33.2858 8.16067 33.0149L5.64815 30.6006C4.94235 29.9224 5.32661 28.7291 6.29554 28.5902L9.80166 28.0875C10.183 28.0328 10.5133 27.7947 10.6857 27.4502L12.2611 24.3022Z" fill="#F9D142" stroke="#101C3D" stroke-width="1.17504" stroke-linejoin="round"/>
  <circle cx="10.9619" cy="30.4275" r="1.17504" fill="#101C3D"/>
  <circle cx="15.662" cy="30.4275" r="1.17504" fill="#101C3D"/>
  <path d="M11.5494 33.3652C11.5494 33.3652 13.312 37.4779 15.0746 33.3652" stroke="#101C3D" stroke-width="1.17504"/>
  <path d="M12.2611 42.6563C12.6943 41.7907 13.9296 41.7907 14.3627 42.6563L15.9382 45.8042C16.1106 46.1487 16.4409 46.3868 16.8222 46.4415L20.3283 46.9442C21.2973 47.0831 21.6815 48.2764 20.9757 48.9546L18.4621 51.3699C18.1807 51.6403 18.0519 52.0328 18.1184 52.4173L18.7112 55.8465C18.8767 56.8043 17.874 57.5375 17.0115 57.0893L13.8531 55.4482C13.5138 55.2719 13.11 55.2717 12.7705 55.4477L9.60308 57.0898C8.73963 57.5374 7.73722 56.8022 7.9048 55.8441L8.50398 52.4186C8.57137 52.0334 8.44267 51.6398 8.16067 51.3689L5.64815 48.9546C4.94235 48.2764 5.32661 47.0831 6.29554 46.9442L9.80166 46.4415C10.183 46.3868 10.5133 46.1487 10.6857 45.8042L12.2611 42.6563Z" fill="#F9D142" stroke="#101C3D" stroke-width="1.17504" stroke-linejoin="round"/>
  <circle cx="10.9619" cy="48.7815" r="1.17504" fill="#101C3D"/>
  <circle cx="15.662" cy="48.7815" r="1.17504" fill="#101C3D"/>
  <path d="M11.5494 51.7192C11.5494 51.7192 13.312 55.8319 15.0746 51.7192" stroke="#101C3D" stroke-width="1.17504"/>
  <path d="M12.2611 61.0103C12.6943 60.1447 13.9296 60.1447 14.3627 61.0103L15.9382 64.1582C16.1106 64.5027 16.4409 64.7408 16.8222 64.7955L20.3283 65.2982C21.2973 65.4371 21.6815 66.6304 20.9757 67.3086L18.4621 69.7239C18.1807 69.9943 18.0519 70.3868 18.1184 70.7713L18.7112 74.2005C18.8767 75.1583 17.874 75.8915 17.0115 75.4433L13.8531 73.8022C13.5138 73.6259 13.11 73.6257 12.7705 73.8017L9.60308 75.4438C8.73963 75.8914 7.73722 75.1562 7.9048 74.1981L8.50398 70.7726C8.57137 70.3874 8.44267 69.9938 8.16067 69.7229L5.64815 67.3086C4.94235 66.6304 5.32661 65.4371 6.29554 65.2982L9.80166 64.7955C10.183 64.7408 10.5133 64.5027 10.6857 64.1582L12.2611 61.0103Z" fill="#F9D142" stroke="#101C3D" stroke-width="1.17504" stroke-linejoin="round"/>
  <circle cx="10.9619" cy="67.1355" r="1.17504" fill="#101C3D"/>
  <circle cx="15.662" cy="67.1355" r="1.17504" fill="#101C3D"/>
  <path d="M11.5494 70.0732C11.5494 70.0732 13.312 74.1859 15.0746 70.0732" stroke="#101C3D" stroke-width="1.17504"/>
  <path d="M12.2611 79.3647C12.6943 78.4992 13.9296 78.4992 14.3627 79.3647L15.9382 82.5127C16.1106 82.8572 16.4409 83.0953 16.8222 83.15L20.3283 83.6527C21.2973 83.7916 21.6815 84.9849 20.9757 85.6631L18.4621 88.0784C18.1807 88.3488 18.0519 88.7413 18.1184 89.1258L18.7112 92.555C18.8767 93.5128 17.874 94.246 17.0115 93.7978L13.8531 92.1567C13.5138 91.9804 13.11 91.9802 12.7705 92.1562L9.60308 93.7983C8.73963 94.2459 7.73722 93.5107 7.9048 92.5526L8.50398 89.1271C8.57137 88.7419 8.44267 88.3483 8.16067 88.0774L5.64815 85.6631C4.94235 84.9849 5.32661 83.7916 6.29554 83.6527L9.80166 83.15C10.183 83.0953 10.5133 82.8572 10.6857 82.5127L12.2611 79.3647Z" fill="#F9D142" stroke="#101C3D" stroke-width="1.17504" stroke-linejoin="round"/>
  <circle cx="10.9619" cy="85.49" r="1.17504" fill="#101C3D"/>
  <circle cx="15.662" cy="85.49" r="1.17504" fill="#101C3D"/>
  <path d="M11.5494 88.4277C11.5494 88.4277 13.312 92.5404 15.0746 88.4277" stroke="#101C3D" stroke-width="1.17504"/>
  <path d="M12.2611 97.7188C12.6943 96.8532 13.9296 96.8532 14.3627 97.7188L15.9382 100.867C16.1106 101.211 16.4409 101.449 16.8222 101.504L20.3283 102.007C21.2973 102.146 21.6815 103.339 20.9757 104.017L18.4621 106.432C18.1807 106.703 18.0519 107.095 18.1184 107.48L18.7112 110.909C18.8767 111.867 17.874 112.6 17.0115 112.152L13.8531 110.511C13.5138 110.334 13.11 110.334 12.7705 110.51L9.60308 112.152C8.73963 112.6 7.73722 111.865 7.9048 110.907L8.50398 107.481C8.57137 107.096 8.44267 106.702 8.16067 106.431L5.64815 104.017C4.94235 103.339 5.32661 102.146 6.29554 102.007L9.80166 101.504C10.183 101.449 10.5133 101.211 10.6857 100.867L12.2611 97.7188Z" fill="#F9D142" stroke="#101C3D" stroke-width="1.17504" stroke-linejoin="round"/>
  <circle cx="10.9619" cy="103.844" r="1.17504" fill="#101C3D"/>
  <circle cx="15.662" cy="103.844" r="1.17504" fill="#101C3D"/>
  <path d="M11.5494 106.782C11.5494 106.782 13.312 110.894 15.0746 106.782" stroke="#101C3D" stroke-width="1.17504"/>
  <path d="M12.2611 116.073C12.6943 115.207 13.9296 115.207 14.3627 116.073L15.9382 119.221C16.1106 119.565 16.4409 119.803 16.8222 119.858L20.3283 120.361C21.2973 120.5 21.6815 121.693 20.9757 122.371L18.4621 124.786C18.1807 125.057 18.0519 125.449 18.1184 125.834L18.7112 129.263C18.8767 130.221 17.874 130.954 17.0115 130.506L13.8531 128.865C13.5138 128.688 13.11 128.688 12.7705 128.864L9.60308 130.506C8.73963 130.954 7.73722 130.219 7.9048 129.261L8.50398 125.835C8.57137 125.45 8.44267 125.056 8.16067 124.785L5.64815 122.371C4.94235 121.693 5.32661 120.5 6.29554 120.361L9.80166 119.858C10.183 119.803 10.5133 119.565 10.6857 119.221L12.2611 116.073Z" fill="#F9D142" stroke="#101C3D" stroke-width="1.17504" stroke-linejoin="round"/>
  <circle cx="10.9619" cy="122.198" r="1.17504" fill="#101C3D"/>
  <circle cx="15.662" cy="122.198" r="1.17504" fill="#101C3D"/>
  <path d="M11.5494 125.136C11.5494 125.136 13.312 129.248 15.0746 125.136" stroke="#101C3D" stroke-width="1.17504"/>
  <path d="M12.2611 134.427C12.6943 133.561 13.9296 133.561 14.3627 134.427L15.9382 137.575C16.1106 137.919 16.4409 138.157 16.8222 138.212L20.3283 138.715C21.2973 138.854 21.6815 140.047 20.9757 140.725L18.4621 143.14C18.1807 143.411 18.0519 143.803 18.1184 144.188L18.7112 147.617C18.8767 148.575 17.874 149.308 17.0115 148.86L13.8531 147.219C13.5138 147.042 13.11 147.042 12.7705 147.218L9.60308 148.86C8.73963 149.308 7.73722 148.573 7.9048 147.615L8.50398 144.189C8.57137 143.804 8.44267 143.41 8.16067 143.139L5.64815 140.725C4.94235 140.047 5.32661 138.854 6.29554 138.715L9.80166 138.212C10.183 138.157 10.5133 137.919 10.6857 137.575L12.2611 134.427Z" fill="#F9D142" stroke="#101C3D" stroke-width="1.17504" stroke-linejoin="round"/>
  <circle cx="10.9619" cy="140.552" r="1.17504" fill="#101C3D"/>
  <circle cx="15.662" cy="140.552" r="1.17504" fill="#101C3D"/>
  <path d="M11.5494 143.49C11.5494 143.49 13.312 147.602 15.0746 143.49" stroke="#101C3D" stroke-width="1.17504"/>
  <path d="M12.2611 152.781C12.6943 151.916 13.9296 151.916 14.3627 152.781L15.9382 155.929C16.1106 156.274 16.4409 156.512 16.8222 156.566L20.3283 157.069C21.2973 157.208 21.6815 158.401 20.9757 159.08L18.4621 161.495C18.1807 161.765 18.0519 162.158 18.1184 162.542L18.7112 165.971C18.8767 166.929 17.874 167.662 17.0115 167.214L13.8531 165.573C13.5138 165.397 13.11 165.397 12.7705 165.573L9.60308 167.215C8.73963 167.662 7.73722 166.927 7.9048 165.969L8.50398 162.544C8.57137 162.158 8.44267 161.765 8.16067 161.494L5.64815 159.08C4.94235 158.401 5.32661 157.208 6.29554 157.069L9.80166 156.566C10.183 156.512 10.5133 156.274 10.6857 155.929L12.2611 152.781Z" fill="#F9D142" stroke="#101C3D" stroke-width="1.17504" stroke-linejoin="round"/>
  <circle cx="10.9619" cy="158.906" r="1.17504" fill="#101C3D"/>
  <circle cx="15.662" cy="158.906" r="1.17504" fill="#101C3D"/>
  <path d="M11.5494 161.844C11.5494 161.844 13.312 165.957 15.0746 161.844" stroke="#101C3D" stroke-width="1.17504"/>
  <path d="M12.2611 171.135C12.6943 170.27 13.9296 170.27 14.3627 171.135L15.9382 174.283C16.1106 174.628 16.4409 174.866 16.8222 174.92L20.3283 175.423C21.2973 175.562 21.6815 176.755 20.9757 177.434L18.4621 179.849C18.1807 180.119 18.0519 180.512 18.1184 180.896L18.7112 184.325C18.8767 185.283 17.874 186.016 17.0115 185.568L13.8531 183.927C13.5138 183.751 13.11 183.751 12.7705 183.927L9.60308 185.569C8.73963 186.016 7.73722 185.281 7.9048 184.323L8.50398 180.898C8.57137 180.512 8.44267 180.119 8.16067 179.848L5.64815 177.434C4.94235 176.755 5.32661 175.562 6.29554 175.423L9.80166 174.92C10.183 174.866 10.5133 174.628 10.6857 174.283L12.2611 171.135Z" fill="#F9D142" stroke="#101C3D" stroke-width="1.17504" stroke-linejoin="round"/>
  <circle cx="10.9619" cy="177.26" r="1.17504" fill="#101C3D"/>
  <circle cx="15.662" cy="177.26" r="1.17504" fill="#101C3D"/>
  <path d="M11.5494 180.198C11.5494 180.198 13.312 184.311 15.0746 180.198" stroke="#101C3D" stroke-width="1.17504"/>
  <g opacity="0.5">
  <path d="M12.2611 194.259C12.6943 193.394 13.9296 193.394 14.3627 194.259L15.9382 197.407C16.1106 197.752 16.4409 197.99 16.8222 198.045L20.3283 198.547C21.2973 198.686 21.6815 199.879 20.9757 200.558L18.4621 202.973C18.1807 203.243 18.0519 203.636 18.1184 204.02L18.7112 207.449C18.8767 208.407 17.874 209.14 17.0115 208.692L13.8531 207.051C13.5138 206.875 13.11 206.875 12.7705 207.051L9.60308 208.693C8.73963 209.14 7.73722 208.405 7.9048 207.447L8.50398 204.022C8.57137 203.636 8.44267 203.243 8.16067 202.972L5.64815 200.558C4.94235 199.879 5.32661 198.686 6.29554 198.547L9.80166 198.045C10.183 197.99 10.5133 197.752 10.6857 197.407L12.2611 194.259Z" fill="#D4D4D4" stroke="#101C3D" stroke-width="1.17504" stroke-linejoin="round"/>
  <circle cx="10.9619" cy="200.385" r="1.17504" fill="#101C3D"/>
  <circle cx="15.662" cy="200.385" r="1.17504" fill="#101C3D"/>
  <path d="M15.0745 205.15C15.0745 205.15 13.3119 201.038 11.5493 205.15" stroke="#101C3D" stroke-width="1.17504"/>
  </g>
  <g opacity="0.5">
  <path d="M12.2611 212.263C12.6943 211.398 13.9296 211.398 14.3627 212.263L15.9382 215.411C16.1106 215.756 16.4409 215.994 16.8222 216.048L20.3283 216.551C21.2973 216.69 21.6815 217.883 20.9757 218.562L18.4621 220.977C18.1807 221.247 18.0519 221.64 18.1184 222.024L18.7112 225.453C18.8767 226.411 17.874 227.144 17.0115 226.696L13.8531 225.055C13.5138 224.879 13.11 224.879 12.7705 225.055L9.60308 226.697C8.73963 227.144 7.73722 226.409 7.9048 225.451L8.50398 222.026C8.57137 221.64 8.44267 221.247 8.16067 220.976L5.64815 218.562C4.94235 217.883 5.32661 216.69 6.29554 216.551L9.80166 216.048C10.183 215.994 10.5133 215.756 10.6857 215.411L12.2611 212.263Z" fill="#D4D4D4" stroke="#101C3D" stroke-width="1.17504" stroke-linejoin="round"/>
  <circle cx="10.9619" cy="218.388" r="1.17504" fill="#101C3D"/>
  <circle cx="15.662" cy="218.388" r="1.17504" fill="#101C3D"/>
  <path d="M15.0745 223.154C15.0745 223.154 13.3119 219.042 11.5493 223.154" stroke="#101C3D" stroke-width="1.17504"/>
  </g>
  <g opacity="0.5">
  <path d="M12.2611 230.268C12.6943 229.402 13.9296 229.402 14.3627 230.268L15.9382 233.416C16.1106 233.76 16.4409 233.998 16.8222 234.053L20.3283 234.555C21.2973 234.694 21.6815 235.888 20.9757 236.566L18.4621 238.981C18.1807 239.252 18.0519 239.644 18.1184 240.029L18.7112 243.458C18.8767 244.416 17.874 245.149 17.0115 244.701L13.8531 243.06C13.5138 242.883 13.11 242.883 12.7705 243.059L9.60308 244.701C8.73963 245.149 7.73722 244.413 7.9048 243.455L8.50398 240.03C8.57137 239.645 8.44267 239.251 8.16067 238.98L5.64815 236.566C4.94235 235.888 5.32661 234.694 6.29554 234.555L9.80166 234.053C10.183 233.998 10.5133 233.76 10.6857 233.416L12.2611 230.268Z" fill="#D4D4D4" stroke="#101C3D" stroke-width="1.17504" stroke-linejoin="round"/>
  <circle cx="10.9619" cy="236.393" r="1.17504" fill="#101C3D"/>
  <circle cx="15.662" cy="236.393" r="1.17504" fill="#101C3D"/>
  <path d="M15.0745 241.159C15.0745 241.159 13.3119 237.046 11.5493 241.159" stroke="#101C3D" stroke-width="1.17504"/>
  </g>
  <rect x="0.5" y="211.3" width="26" height="34" fill="url(#paint0_linear_80_3822)"/>
  <path d="M45.6836 10.7529L40.6836 7.86618V13.6397L45.6836 10.7529ZM31.6836 11.2529H41.1836V10.2529H31.6836V11.2529Z" fill="#101C3D"/>
  <path d="M54.3936 13.5369C54.8043 13.5369 55.1403 13.6723 55.4016 13.9429C55.6723 14.2136 55.8076 14.5589 55.8076 14.9789C55.8076 15.3896 55.6676 15.7303 55.3876 16.0009C55.1076 16.2623 54.7529 16.3929 54.3236 16.3929C53.8756 16.3929 53.5069 16.2576 53.2176 15.9869C52.9376 15.7069 52.7976 15.3476 52.7976 14.9089V4.07293L51.2436 6.22893L50.2916 5.89293C50.2543 5.0996 50.0816 3.92826 49.7736 2.37893H50.7256C50.9403 3.34026 51.0709 4.24093 51.1176 5.08093L52.8816 2.58893H53.9876V13.6069C54.1276 13.5603 54.2629 13.5369 54.3936 13.5369ZM54.3796 15.6229C54.5663 15.6229 54.7203 15.5623 54.8416 15.4409C54.9723 15.3103 55.0376 15.1516 55.0376 14.9649C55.0376 14.7783 54.9723 14.6243 54.8416 14.5029C54.7203 14.3723 54.5663 14.3069 54.3796 14.3069C54.1836 14.3069 54.0249 14.3723 53.9036 14.5029C53.7823 14.6243 53.7216 14.7783 53.7216 14.9649C53.7216 15.1516 53.7823 15.3103 53.9036 15.4409C54.0249 15.5623 54.1836 15.6229 54.3796 15.6229ZM60.1427 8.04893C61.1227 8.04893 61.9067 8.3056 62.4947 8.81893C63.092 9.32293 63.3907 10.0089 63.3907 10.8769V16.2529H62.2007V10.9749C62.2007 10.3496 62.014 9.86893 61.6407 9.53293C61.2767 9.1876 60.7773 9.01493 60.1427 9.01493C59.6573 9.01493 59.2467 9.10826 58.9107 9.29493C58.5747 9.4816 58.3227 9.7196 58.1547 10.0089C57.9867 10.2983 57.9027 10.6016 57.9027 10.9189C57.9027 11.1243 57.926 11.3483 57.9727 11.5909C58.0287 11.8336 58.108 12.1603 58.2107 12.5709C58.304 12.9443 58.374 13.2476 58.4207 13.4809C58.4673 13.7143 58.4907 13.9243 58.4907 14.1109V14.3769C58.6867 14.0876 59.046 13.7143 59.5687 13.2569L59.8907 12.9489C59.5733 12.9023 59.3167 12.7669 59.1207 12.5429C58.934 12.3189 58.8407 12.0483 58.8407 11.7309C58.8407 11.3763 58.9573 11.0823 59.1907 10.8489C59.4333 10.6156 59.7413 10.4989 60.1147 10.4989C60.4787 10.4989 60.782 10.6203 61.0247 10.8629C61.2673 11.0963 61.3887 11.3996 61.3887 11.7729C61.3887 12.1276 61.2767 12.4589 61.0527 12.7669C60.838 13.0749 60.5067 13.4529 60.0587 13.9009C59.592 14.3583 59.2327 14.7596 58.9807 15.1049C58.738 15.4503 58.5933 15.8329 58.5467 16.2529H57.3707V14.2929C57.3707 14.0876 57.282 13.6303 57.1047 12.9209C56.9833 12.4729 56.89 12.0903 56.8247 11.7729C56.7593 11.4463 56.7267 11.1569 56.7267 10.9049C56.7267 10.3823 56.862 9.90626 57.1327 9.47693C57.4033 9.03826 57.7953 8.69293 58.3087 8.44093C58.8313 8.1796 59.4427 8.04893 60.1427 8.04893ZM59.5127 11.7309C59.5127 11.9083 59.5687 12.0529 59.6807 12.1649C59.7927 12.2769 59.9373 12.3329 60.1147 12.3329C60.292 12.3329 60.432 12.2769 60.5347 12.1649C60.6467 12.0529 60.7027 11.9083 60.7027 11.7309C60.7027 11.5536 60.6467 11.4136 60.5347 11.3109C60.432 11.1989 60.292 11.1429 60.1147 11.1429C59.9373 11.1429 59.7927 11.1989 59.6807 11.3109C59.5687 11.4136 59.5127 11.5536 59.5127 11.7309ZM64.7211 3.02293C64.6371 3.7416 64.3804 4.3716 63.9511 4.91293C63.5124 5.45426 62.9431 5.87426 62.2431 6.17293C61.5431 6.46226 60.7638 6.60693 59.9051 6.60693H59.3731V6.04693C59.6064 5.9536 59.8351 5.82293 60.0591 5.65493C60.2831 5.48693 60.4744 5.30026 60.6331 5.09493C60.5864 5.10426 60.5164 5.10893 60.4231 5.10893C60.0778 5.10893 59.8071 5.00626 59.6111 4.80093C59.4151 4.58626 59.3171 4.31093 59.3171 3.97493C59.3171 3.64826 59.4291 3.38226 59.6531 3.17693C59.8771 2.96226 60.1664 2.85493 60.5211 2.85493C60.8758 2.85493 61.1698 2.96693 61.4031 3.19093C61.6271 3.41493 61.7391 3.7136 61.7391 4.08693C61.7391 4.36693 61.6691 4.67026 61.5291 4.99693C61.3798 5.31426 61.1838 5.5756 60.9411 5.78093C61.6784 5.67826 62.2991 5.37026 62.8031 4.85693C63.2978 4.33426 63.5824 3.72293 63.6571 3.02293H64.7211ZM60.0031 4.00293C60.0031 4.15226 60.0544 4.27826 60.1571 4.38093C60.2504 4.47426 60.3718 4.52093 60.5211 4.52093C60.6704 4.52093 60.7964 4.47426 60.8991 4.38093C60.9924 4.27826 61.0391 4.15226 61.0391 4.00293C61.0391 3.8536 60.9924 3.73226 60.8991 3.63893C60.7964 3.53626 60.6704 3.48493 60.5211 3.48493C60.3624 3.48493 60.2364 3.5316 60.1431 3.62493C60.0498 3.71826 60.0031 3.84426 60.0031 4.00293ZM67.0978 13.5369C67.5178 13.5369 67.8585 13.6723 68.1198 13.9429C68.3812 14.2136 68.5118 14.5589 68.5118 14.9789C68.5118 15.3896 68.3718 15.7303 68.0918 16.0009C67.8212 16.2623 67.4665 16.3929 67.0278 16.3929C66.5798 16.3929 66.2158 16.2576 65.9358 15.9869C65.6558 15.7069 65.5158 15.3476 65.5158 14.9089V8.18893H66.6918V13.6069C66.8318 13.5603 66.9672 13.5369 67.0978 13.5369ZM67.0838 15.6229C67.2798 15.6229 67.4385 15.5623 67.5598 15.4409C67.6812 15.3103 67.7418 15.1516 67.7418 14.9649C67.7418 14.7783 67.6812 14.6243 67.5598 14.5029C67.4385 14.3723 67.2798 14.3069 67.0838 14.3069C66.8878 14.3069 66.7292 14.3723 66.6078 14.5029C66.4865 14.6243 66.4258 14.7783 66.4258 14.9649C66.4258 15.1516 66.4865 15.3103 66.6078 15.4409C66.7292 15.5623 66.8878 15.6229 67.0838 15.6229ZM76.8918 4.87093V14.5029C76.8918 15.0909 76.6258 15.5529 76.0938 15.8889C75.5711 16.2249 74.8385 16.3929 73.8958 16.3929C72.9811 16.3929 72.2531 16.2249 71.7118 15.8889C71.1705 15.5529 70.8998 15.0909 70.8998 14.5029V10.8349C70.7598 10.8816 70.6245 10.9049 70.4938 10.9049C70.0831 10.9049 69.7425 10.7743 69.4718 10.5129C69.2105 10.2423 69.0798 9.89226 69.0798 9.46293C69.0798 9.05226 69.2198 8.71626 69.4998 8.45493C69.7798 8.18426 70.1345 8.04893 70.5638 8.04893C71.0118 8.04893 71.3758 8.18893 71.6558 8.46893C71.9451 8.7396 72.0898 9.09426 72.0898 9.53293V14.3769C72.0898 14.6943 72.2531 14.9509 72.5798 15.1469C72.9158 15.3336 73.3545 15.4269 73.8958 15.4269C74.4651 15.4269 74.9085 15.3336 75.2258 15.1469C75.5431 14.9603 75.7018 14.7036 75.7018 14.3769V4.87093H76.8918ZM69.8498 9.47693C69.8498 9.6636 69.9105 9.82226 70.0318 9.95293C70.1625 10.0743 70.3211 10.1349 70.5078 10.1349C70.7038 10.1349 70.8625 10.0743 70.9838 9.95293C71.1051 9.82226 71.1658 9.6636 71.1658 9.47693C71.1658 9.29026 71.1051 9.13626 70.9838 9.01493C70.8625 8.88426 70.7038 8.81893 70.5078 8.81893C70.3211 8.81893 70.1625 8.88426 70.0318 9.01493C69.9105 9.13626 69.8498 9.29026 69.8498 9.47693ZM73.9836 4.49293C74.2916 4.49293 74.5483 4.58626 74.7536 4.77293C74.9496 4.9596 75.0476 5.20693 75.0476 5.51493C75.0476 5.8416 74.9403 6.1076 74.7256 6.31293C74.5016 6.50893 74.1983 6.60693 73.8156 6.60693C73.489 6.60693 73.1623 6.5276 72.8356 6.36893C72.509 6.20093 72.1963 5.9676 71.8976 5.66893C71.7576 5.7436 71.5943 5.87426 71.4076 6.06093C71.221 6.2476 71.053 6.45293 70.9036 6.67693C70.577 6.53693 70.3203 6.30826 70.1336 5.99093C69.9376 5.66426 69.8396 5.30493 69.8396 4.91293C69.8396 4.40893 70.0216 3.99826 70.3856 3.68093C70.7496 3.35426 71.2163 3.19093 71.7856 3.19093H73.1576C73.783 3.19093 74.1096 2.74293 74.1376 1.84693H75.0476C75.0476 2.51893 74.889 3.05093 74.5716 3.44293C74.2543 3.8256 73.7923 4.01693 73.1856 4.01693H71.7296C71.459 4.01693 71.235 4.10093 71.0576 4.26893C70.8803 4.4276 70.7916 4.6376 70.7916 4.89893C70.7916 5.02026 70.8103 5.14626 70.8476 5.27693C70.885 5.4076 70.9363 5.5196 71.0016 5.61293C71.1416 5.44493 71.3096 5.2956 71.5056 5.16493C71.6923 5.02493 71.865 4.9316 72.0236 4.88493C72.3316 5.19293 72.6396 5.45426 72.9476 5.66893C72.9383 5.62226 72.9336 5.55693 72.9336 5.47293C72.9336 5.1836 73.0363 4.95026 73.2416 4.77293C73.4376 4.58626 73.685 4.49293 73.9836 4.49293ZM73.9836 5.97693C74.1143 5.97693 74.2216 5.93493 74.3056 5.85093C74.3896 5.76693 74.4316 5.6596 74.4316 5.52893C74.4316 5.39826 74.3896 5.29093 74.3056 5.20693C74.2216 5.1136 74.1143 5.06693 73.9836 5.06693C73.853 5.06693 73.7456 5.1136 73.6616 5.20693C73.5776 5.29093 73.5356 5.39826 73.5356 5.52893C73.5356 5.65026 73.5776 5.7576 73.6616 5.85093C73.7456 5.93493 73.853 5.97693 73.9836 5.97693ZM85.2676 13.6489C85.557 13.7516 85.7856 13.9149 85.9536 14.1389C86.1216 14.3629 86.2056 14.6149 86.2056 14.8949C86.2056 15.3429 86.0656 15.7069 85.7856 15.9869C85.5056 16.2576 85.151 16.3929 84.7216 16.3929C84.3016 16.3929 83.9563 16.2576 83.6856 15.9869C83.415 15.7163 83.2796 15.3663 83.2796 14.9369V14.8809C82.897 15.0303 82.5283 15.2263 82.1736 15.4689C81.819 15.7116 81.5343 15.9729 81.3196 16.2529H80.0736V10.8349C79.9336 10.8816 79.7983 10.9049 79.6676 10.9049C79.257 10.9049 78.9163 10.7743 78.6456 10.5129C78.3843 10.2423 78.2536 9.89226 78.2536 9.46293C78.2536 9.05226 78.3936 8.71626 78.6736 8.45493C78.9536 8.18426 79.3083 8.04893 79.7376 8.04893C80.1856 8.04893 80.5496 8.18893 80.8296 8.46893C81.119 8.7396 81.2636 9.09426 81.2636 9.53293V15.0769C81.5156 14.8063 82.0336 14.4843 82.8176 14.1109C83.331 13.8683 83.7136 13.6583 83.9656 13.4809C84.2176 13.3036 84.3903 13.1263 84.4836 12.9489C84.577 12.7623 84.6236 12.5383 84.6236 12.2769V8.18893H85.8136V12.3189C85.8136 12.6083 85.767 12.8696 85.6736 13.1029C85.5803 13.3363 85.445 13.5183 85.2676 13.6489ZM79.0236 9.47693C79.0236 9.6636 79.0843 9.82226 79.2056 9.95293C79.3363 10.0743 79.495 10.1349 79.6816 10.1349C79.8776 10.1349 80.0363 10.0743 80.1576 9.95293C80.279 9.82226 80.3396 9.6636 80.3396 9.47693C80.3396 9.29026 80.279 9.13626 80.1576 9.01493C80.0363 8.88426 79.8776 8.81893 79.6816 8.81893C79.495 8.81893 79.3363 8.88426 79.2056 9.01493C79.0843 9.13626 79.0236 9.29026 79.0236 9.47693ZM84.7216 15.6229C84.9176 15.6229 85.0763 15.5623 85.1976 15.4409C85.319 15.3103 85.3796 15.1516 85.3796 14.9649C85.3796 14.7783 85.319 14.6243 85.1976 14.5029C85.0763 14.3723 84.9176 14.3069 84.7216 14.3069C84.535 14.3069 84.381 14.3723 84.2596 14.5029C84.1383 14.6243 84.0776 14.7783 84.0776 14.9649C84.0776 15.1516 84.1383 15.3103 84.2596 15.4409C84.381 15.5623 84.535 15.6229 84.7216 15.6229ZM97.712 7.40493C97.6 7.85293 97.2827 8.37093 96.76 8.95893C97.1427 9.3696 97.334 9.86893 97.334 10.4569V16.2529H96.158V13.0609C96.158 12.6409 95.9573 12.3096 95.556 12.0669C95.1547 11.8243 94.7067 11.7029 94.212 11.7029C93.7173 11.7029 93.302 11.8243 92.966 12.0669C92.63 12.3003 92.462 12.6269 92.462 13.0469V13.6069C92.602 13.5603 92.7373 13.5369 92.868 13.5369C93.2787 13.5369 93.6147 13.6723 93.876 13.9429C94.1373 14.2043 94.268 14.5496 94.268 14.9789C94.268 15.3896 94.128 15.7303 93.848 16.0009C93.5773 16.2623 93.2227 16.3929 92.784 16.3929C92.336 16.3929 91.972 16.2576 91.692 15.9869C91.412 15.7069 91.272 15.3476 91.272 14.9089V13.0469C91.272 12.4683 91.468 11.9876 91.86 11.6049C92.252 11.2129 92.7653 10.9609 93.4 10.8489C94.1653 10.2889 94.7907 9.74293 95.276 9.21093C94.94 9.08026 94.5527 9.01493 94.114 9.01493C93.5167 9.01493 93.0173 9.13626 92.616 9.37893C92.2147 9.6216 91.972 9.94826 91.888 10.3589H90.74C90.8053 9.6496 91.1413 9.0896 91.748 8.67893C92.3547 8.25893 93.1433 8.04893 94.114 8.04893C94.8047 8.04893 95.4113 8.1656 95.934 8.39893C96.1673 8.03493 96.3073 7.7036 96.354 7.40493H97.712ZM96.158 10.4149C96.158 10.1723 96.0927 9.94826 95.962 9.74293C95.5513 10.1163 95.0987 10.4756 94.604 10.8209C95.2573 10.9049 95.7753 11.1429 96.158 11.5349V10.4149ZM93.498 14.9649C93.498 14.7783 93.4373 14.6243 93.316 14.5029C93.1947 14.3723 93.0407 14.3069 92.854 14.3069C92.658 14.3069 92.4947 14.3723 92.364 14.5029C92.2427 14.6243 92.182 14.7783 92.182 14.9649C92.182 15.1516 92.2427 15.3103 92.364 15.4409C92.4947 15.5623 92.658 15.6229 92.854 15.6229C93.0407 15.6229 93.1947 15.5623 93.316 15.4409C93.4373 15.3103 93.498 15.1516 93.498 14.9649ZM101.647 8.04893C102.524 8.04893 103.22 8.26826 103.733 8.70693C104.246 9.1456 104.503 9.73826 104.503 10.4849V14.9089C104.503 15.3476 104.358 15.7069 104.069 15.9869C103.789 16.2576 103.425 16.3929 102.977 16.3929C102.538 16.3929 102.179 16.2623 101.899 16.0009C101.628 15.7303 101.493 15.3896 101.493 14.9789C101.493 14.5496 101.624 14.2043 101.885 13.9429C102.146 13.6723 102.487 13.5369 102.907 13.5369C103.038 13.5369 103.173 13.5603 103.313 13.6069V10.5969C103.313 10.1023 103.164 9.71493 102.865 9.43493C102.566 9.15493 102.151 9.01493 101.619 9.01493C101.143 9.01493 100.737 9.1456 100.401 9.40693C100.074 9.66826 99.8784 10.0136 99.8131 10.4429H98.6231C98.6884 9.7056 98.9964 9.12226 99.5471 8.69293C100.098 8.2636 100.798 8.04893 101.647 8.04893ZM102.921 15.6229C103.117 15.6229 103.276 15.5623 103.397 15.4409C103.518 15.3103 103.579 15.1516 103.579 14.9649C103.579 14.7783 103.518 14.6243 103.397 14.5029C103.276 14.3723 103.117 14.3069 102.921 14.3069C102.725 14.3069 102.566 14.3723 102.445 14.5029C102.324 14.6243 102.263 14.7783 102.263 14.9649C102.263 15.1516 102.324 15.3103 102.445 15.4409C102.566 15.5623 102.725 15.6229 102.921 15.6229ZM107.299 16.3929C107.038 16.3929 106.828 16.3089 106.669 16.1409C106.51 15.9636 106.431 15.7396 106.431 15.4689C106.431 15.1983 106.51 14.9789 106.669 14.8109C106.828 14.6429 107.038 14.5589 107.299 14.5589C107.56 14.5589 107.77 14.6429 107.929 14.8109C108.088 14.9789 108.167 15.1983 108.167 15.4689C108.167 15.7396 108.088 15.9636 107.929 16.1409C107.77 16.3089 107.56 16.3929 107.299 16.3929Z" fill="#101C3D"/>
  <defs>
  <linearGradient id="paint0_linear_80_3822" x1="13.5" y1="211.3" x2="13.5" y2="245.3" gradientUnits="userSpaceOnUse">
  <stop stop-color="white" stop-opacity="0"/>
  <stop offset="1" stop-color="white"/>
  </linearGradient>
  </defs>
  </svg>
  