<svg width="122" height="96" viewBox="0 0 122 96" fill="none" xmlns="http://www.w3.org/2000/svg">
  <rect x="0.912695" y="1.49521" width="25.1746" height="61.0603" rx="4.17402" stroke="#101C3D"
    stroke-width="1.19258" />
  <path
    d="M12.2613 6.59424C12.6944 5.72871 13.9297 5.7287 14.3629 6.59424L15.9383 9.74221C16.1107 10.0867 16.441 10.3248 16.8223 10.3795L20.3285 10.8821C21.2974 11.0211 21.6817 12.2144 20.9759 12.8926L18.4622 15.3079C18.1808 15.5783 18.0521 15.9708 18.1185 16.3553L18.7113 19.7845C18.8769 20.7423 17.8742 21.4755 17.0116 21.0273L13.8532 19.3862C13.5139 19.2099 13.1101 19.2097 12.7706 19.3857L9.6032 21.0278C8.73975 21.4754 7.73734 20.7402 7.90492 19.7821L8.50411 16.3566C8.57149 15.9714 8.44279 15.5778 8.16079 15.3069L5.64827 12.8926C4.94247 12.2144 5.32673 11.0211 6.29566 10.8821L9.80178 10.3795C10.1831 10.3248 10.5134 10.0867 10.6858 9.74221L12.2613 6.59424Z"
    fill="#F9D142" stroke="#101C3D" stroke-width="1.17504" stroke-linejoin="round" />
  <circle cx="10.962" cy="12.7195" r="1.17504" fill="#101C3D" />
  <circle cx="15.6621" cy="12.7195" r="1.17504" fill="#101C3D" />
  <path d="M11.5496 15.6572C11.5496 15.6572 13.3121 19.7699 15.0747 15.6572" stroke="#101C3D"
    stroke-width="1.17504" />
  <path
    d="M12.2611 24.9482C12.6943 24.0827 13.9296 24.0827 14.3627 24.9482L15.9382 28.0962C16.1106 28.4407 16.4409 28.6788 16.8222 28.7335L20.3283 29.2361C21.2973 29.3751 21.6815 30.5684 20.9757 31.2466L18.4621 33.6619C18.1807 33.9323 18.0519 34.3248 18.1184 34.7093L18.7112 38.1385C18.8767 39.0963 17.874 39.8295 17.0115 39.3813L13.8531 37.7402C13.5138 37.5639 13.11 37.5637 12.7705 37.7397L9.60308 39.3818C8.73963 39.8294 7.73722 39.0942 7.9048 38.1361L8.50398 34.7106C8.57137 34.3254 8.44267 33.9318 8.16067 33.6609L5.64815 31.2466C4.94235 30.5684 5.32661 29.3751 6.29554 29.2361L9.80166 28.7335C10.183 28.6788 10.5133 28.4407 10.6857 28.0962L12.2611 24.9482Z"
    fill="#F9D142" stroke="#101C3D" stroke-width="1.17504" stroke-linejoin="round" />
  <circle cx="10.9619" cy="31.0735" r="1.17504" fill="#101C3D" />
  <circle cx="15.662" cy="31.0735" r="1.17504" fill="#101C3D" />
  <path d="M11.5494 34.0112C11.5494 34.0112 13.312 38.1239 15.0746 34.0112" stroke="#101C3D"
    stroke-width="1.17504" />
  <path
    d="M12.2611 43.3022C12.6943 42.4367 13.9296 42.4367 14.3627 43.3022L15.9382 46.4502C16.1106 46.7947 16.4409 47.0328 16.8222 47.0875L20.3283 47.5902C21.2973 47.7291 21.6815 48.9224 20.9757 49.6006L18.4621 52.0159C18.1807 52.2863 18.0519 52.6788 18.1184 53.0633L18.7112 56.4925C18.8767 57.4503 17.874 58.1835 17.0115 57.7353L13.8531 56.0942C13.5138 55.9179 13.11 55.9177 12.7705 56.0937L9.60308 57.7358C8.73963 58.1834 7.73722 57.4482 7.9048 56.4901L8.50398 53.0646C8.57137 52.6794 8.44267 52.2858 8.16067 52.0149L5.64815 49.6006C4.94235 48.9224 5.32661 47.7291 6.29554 47.5902L9.80166 47.0875C10.183 47.0328 10.5133 46.7947 10.6857 46.4502L12.2611 43.3022Z"
    fill="#F9D142" stroke="#101C3D" stroke-width="1.17504" stroke-linejoin="round" />
  <circle cx="10.9619" cy="49.4275" r="1.17504" fill="#101C3D" />
  <circle cx="15.662" cy="49.4275" r="1.17504" fill="#101C3D" />
  <path d="M11.5494 52.3652C11.5494 52.3652 13.312 56.4779 15.0746 52.3652" stroke="#101C3D"
    stroke-width="1.17504" />
  <g opacity="0.5">
    <circle cx="13.4999" cy="72.5522" r="6.46272" fill="#FFF8C4" stroke="#101C3D"
      stroke-width="1.17504" />
    <circle cx="11.1499" cy="71.3772" r="1.17504" fill="#101C3D" />
    <circle cx="15.85" cy="71.3772" r="1.17504" fill="#101C3D" />
    <path d="M11.7374 74.3149C11.7374 74.3149 13.5 78.4276 15.2625 74.3149" stroke="#101C3D"
      stroke-width="1.17504" />
  </g>
  <g opacity="0.5">
    <circle cx="13.4999" cy="88.6528" r="6.46272" fill="#FFF8C4" stroke="#101C3D"
      stroke-width="1.17504" />
    <circle cx="11.1499" cy="87.4778" r="1.17504" fill="#101C3D" />
    <circle cx="15.85" cy="87.4778" r="1.17504" fill="#101C3D" />
    <path d="M11.7374 90.4155C11.7374 90.4155 13.5 94.5282 15.2625 90.4155" stroke="#101C3D"
      stroke-width="1.17504" />
  </g>
  <path
    d="M45.6836 21.8989L40.6836 19.0122V24.7857L45.6836 21.8989ZM31.6836 22.3989H41.1836V21.3989H31.6836V22.3989Z"
    fill="#101C3D" />
  <path
    d="M54.3936 14.1829C54.8043 14.1829 55.1403 14.3183 55.4016 14.5889C55.6723 14.8596 55.8076 15.2049 55.8076 15.6249C55.8076 16.0356 55.6676 16.3763 55.3876 16.6469C55.1076 16.9083 54.7529 17.0389 54.3236 17.0389C53.8756 17.0389 53.5069 16.9036 53.2176 16.6329C52.9376 16.3529 52.7976 15.9936 52.7976 15.5549V4.71892L51.2436 6.87493L50.2916 6.53893C50.2543 5.74559 50.0816 4.57426 49.7736 3.02492H50.7256C50.9403 3.98626 51.0709 4.88692 51.1176 5.72693L52.8816 3.23492H53.9876V14.2529C54.1276 14.2063 54.2629 14.1829 54.3936 14.1829ZM54.3796 16.2689C54.5663 16.2689 54.7203 16.2083 54.8416 16.0869C54.9723 15.9563 55.0376 15.7976 55.0376 15.6109C55.0376 15.4243 54.9723 15.2703 54.8416 15.1489C54.7203 15.0183 54.5663 14.9529 54.3796 14.9529C54.1836 14.9529 54.0249 15.0183 53.9036 15.1489C53.7823 15.2703 53.7216 15.4243 53.7216 15.6109C53.7216 15.7976 53.7823 15.9563 53.9036 16.0869C54.0249 16.2083 54.1836 16.2689 54.3796 16.2689ZM64.2727 5.51693V15.1489C64.2727 15.7369 64.0067 16.1989 63.4747 16.5349C62.952 16.8709 62.2193 17.0389 61.2767 17.0389C60.362 17.0389 59.634 16.8709 59.0927 16.5349C58.5513 16.1989 58.2807 15.7369 58.2807 15.1489V11.4809C58.1407 11.5276 58.0053 11.5509 57.8747 11.5509C57.464 11.5509 57.1233 11.4203 56.8527 11.1589C56.5913 10.8883 56.4607 10.5383 56.4607 10.1089C56.4607 9.69826 56.6007 9.36226 56.8807 9.10093C57.1607 8.83026 57.5153 8.69493 57.9447 8.69493C58.3927 8.69493 58.7567 8.83493 59.0367 9.11493C59.326 9.38559 59.4707 9.74026 59.4707 10.1789V15.0229C59.4707 15.3403 59.634 15.5969 59.9607 15.7929C60.2967 15.9796 60.7353 16.0729 61.2767 16.0729C61.846 16.0729 62.2893 15.9796 62.6067 15.7929C62.924 15.6063 63.0827 15.3496 63.0827 15.0229V5.51693H64.2727ZM57.2307 10.1229C57.2307 10.3096 57.2913 10.4683 57.4127 10.5989C57.5433 10.7203 57.702 10.7809 57.8887 10.7809C58.0847 10.7809 58.2433 10.7203 58.3647 10.5989C58.486 10.4683 58.5467 10.3096 58.5467 10.1229C58.5467 9.93626 58.486 9.78226 58.3647 9.66093C58.2433 9.53026 58.0847 9.46493 57.8887 9.46493C57.702 9.46493 57.5433 9.53026 57.4127 9.66093C57.2913 9.78226 57.2307 9.93626 57.2307 10.1229ZM67.9865 14.1829C68.4065 14.1829 68.7472 14.3183 69.0085 14.5889C69.2698 14.8596 69.4005 15.2049 69.4005 15.6249C69.4005 16.0356 69.2605 16.3763 68.9805 16.6469C68.7098 16.9083 68.3552 17.0389 67.9165 17.0389C67.4685 17.0389 67.1045 16.9036 66.8245 16.6329C66.5445 16.3529 66.4045 15.9936 66.4045 15.5549V8.83493H67.5805V14.2529C67.7205 14.2063 67.8558 14.1829 67.9865 14.1829ZM67.9725 16.2689C68.1685 16.2689 68.3272 16.2083 68.4485 16.0869C68.5698 15.9563 68.6305 15.7976 68.6305 15.6109C68.6305 15.4243 68.5698 15.2703 68.4485 15.1489C68.3272 15.0183 68.1685 14.9529 67.9725 14.9529C67.7765 14.9529 67.6178 15.0183 67.4965 15.1489C67.3752 15.2703 67.3145 15.4243 67.3145 15.6109C67.3145 15.7976 67.3752 15.9563 67.4965 16.0869C67.6178 16.2083 67.7765 16.2689 67.9725 16.2689ZM71.7525 14.1829C72.1725 14.1829 72.5132 14.3183 72.7745 14.5889C73.0358 14.8596 73.1665 15.2049 73.1665 15.6249C73.1665 16.0356 73.0265 16.3763 72.7465 16.6469C72.4758 16.9083 72.1212 17.0389 71.6825 17.0389C71.2345 17.0389 70.8705 16.9036 70.5905 16.6329C70.3105 16.3529 70.1705 15.9936 70.1705 15.5549V8.83493H71.3465V14.2529C71.4865 14.2063 71.6218 14.1829 71.7525 14.1829ZM71.7385 16.2689C71.9345 16.2689 72.0932 16.2083 72.2145 16.0869C72.3358 15.9563 72.3965 15.7976 72.3965 15.6109C72.3965 15.4243 72.3358 15.2703 72.2145 15.1489C72.0932 15.0183 71.9345 14.9529 71.7385 14.9529C71.5425 14.9529 71.3838 15.0183 71.2625 15.1489C71.1412 15.2703 71.0805 15.4243 71.0805 15.6109C71.0805 15.7976 71.1412 15.9563 71.2625 16.0869C71.3838 16.2083 71.5425 16.2689 71.7385 16.2689ZM80.6999 8.83493V15.0649C80.6999 15.6996 80.5039 16.1896 80.1119 16.5349C79.7293 16.8709 79.1739 17.0389 78.4459 17.0389C77.7179 17.0389 77.1626 16.8709 76.7799 16.5349C76.3973 16.1896 76.2059 15.6996 76.2059 15.0649V13.5109C76.2059 13.2589 76.2479 13.0349 76.3319 12.8389C76.4253 12.6429 76.5606 12.3956 76.7379 12.0969C76.9153 11.8263 77.0506 11.5836 77.1439 11.3689C77.2466 11.1449 77.2979 10.9023 77.2979 10.6409C77.2979 10.2676 77.1813 9.99226 76.9479 9.81493C76.7146 9.63759 76.4113 9.54893 76.0379 9.54893C75.5806 9.54893 75.2213 9.66559 74.9599 9.89893C75.0066 9.88026 75.0813 9.87093 75.1839 9.87093C75.5479 9.87093 75.8466 9.99226 76.0799 10.2349C76.3226 10.4683 76.4439 10.7809 76.4439 11.1729C76.4439 11.5556 76.3226 11.8729 76.0799 12.1249C75.8373 12.3769 75.5059 12.5029 75.0859 12.5029C74.6379 12.5029 74.2879 12.3583 74.0359 12.0689C73.7839 11.7703 73.6579 11.3736 73.6579 10.8789C73.6579 10.2536 73.8679 9.73559 74.2879 9.32493C74.7173 8.90493 75.3099 8.69493 76.0659 8.69493C76.7473 8.69493 77.3026 8.85826 77.7319 9.18493C78.1706 9.50226 78.3899 9.96426 78.3899 10.5709C78.3899 10.8883 78.3433 11.1636 78.2499 11.3969C78.1659 11.6209 78.0353 11.8916 77.8579 12.2089C77.6993 12.4703 77.5826 12.6989 77.5079 12.8949C77.4333 13.0909 77.3959 13.3056 77.3959 13.5389V15.1209C77.3959 15.4289 77.4846 15.6669 77.6619 15.8349C77.8486 15.9936 78.1146 16.0729 78.4599 16.0729C78.8053 16.0729 79.0666 15.9936 79.2439 15.8349C79.4213 15.6669 79.5099 15.4289 79.5099 15.1209V8.83493H80.6999ZM75.7299 11.1729C75.7299 10.9863 75.6693 10.8369 75.5479 10.7249C75.4359 10.6129 75.2866 10.5569 75.0999 10.5569C74.9133 10.5569 74.7593 10.6129 74.6379 10.7249C74.5259 10.8369 74.4699 10.9863 74.4699 11.1729C74.4699 11.3596 74.5259 11.5136 74.6379 11.6349C74.7593 11.7469 74.9133 11.8029 75.0999 11.8029C75.2866 11.8029 75.4359 11.7469 75.5479 11.6349C75.6693 11.5136 75.7299 11.3596 75.7299 11.1729ZM79.5761 4.25692H80.6961V7.25293H79.5761V4.25692ZM85.5264 8.69493C85.9744 8.69493 86.3384 8.83493 86.6184 9.11493C86.9078 9.38559 87.0524 9.74026 87.0524 10.1789V16.8989H85.8764L82.0264 12.6989L82.6844 11.9849L85.8624 15.4289V11.4809C85.7224 11.5276 85.5871 11.5509 85.4564 11.5509C85.0458 11.5509 84.7051 11.4203 84.4344 11.1589C84.1731 10.8883 84.0424 10.5383 84.0424 10.1089C84.0424 9.69826 84.1824 9.36226 84.4624 9.10093C84.7424 8.83026 85.0971 8.69493 85.5264 8.69493ZM84.8124 10.1229C84.8124 10.3096 84.8731 10.4683 84.9944 10.5989C85.1251 10.7203 85.2838 10.7809 85.4704 10.7809C85.6664 10.7809 85.8251 10.7203 85.9464 10.5989C86.0678 10.4683 86.1284 10.3096 86.1284 10.1229C86.1284 9.93626 86.0678 9.78226 85.9464 9.66093C85.8251 9.53026 85.6664 9.46493 85.4704 9.46493C85.2838 9.46493 85.1251 9.53026 84.9944 9.66093C84.8731 9.78226 84.8124 9.93626 84.8124 10.1229ZM93.5498 8.69493C94.1565 8.78826 94.6418 9.09159 95.0058 9.60493C95.3698 10.1089 95.5518 10.7343 95.5518 11.4809V16.8989H94.3618V11.5369C94.3618 11.0796 94.3012 10.7063 94.1798 10.4169C94.0585 10.1276 93.8625 9.89426 93.5918 9.71693L92.1778 10.7669L90.7078 9.68893C90.4092 9.88493 90.1898 10.1369 90.0498 10.4449C89.9098 10.7529 89.8398 11.1356 89.8398 11.5929C89.8398 11.7983 89.8632 12.0269 89.9098 12.2789C89.9658 12.5309 90.0452 12.8436 90.1478 13.2169C90.2412 13.5809 90.3112 13.8843 90.3578 14.1269C90.4138 14.3603 90.4418 14.5703 90.4418 14.7569V15.2049C90.5818 15.0089 90.7498 14.8176 90.9458 14.6309C91.1512 14.4443 91.4732 14.1596 91.9118 13.7769C91.6038 13.7396 91.3518 13.6136 91.1558 13.3989C90.9692 13.1749 90.8758 12.9043 90.8758 12.5869C90.8758 12.2323 90.9925 11.9383 91.2258 11.7049C91.4685 11.4716 91.7765 11.3549 92.1498 11.3549C92.5138 11.3549 92.8172 11.4763 93.0598 11.7189C93.3025 11.9523 93.4238 12.2556 93.4238 12.6289C93.4238 12.9743 93.3118 13.2916 93.0878 13.5809C92.8638 13.8703 92.5185 14.2249 92.0518 14.6449C91.5665 15.0836 91.1932 15.4663 90.9318 15.7929C90.6798 16.1196 90.5352 16.4883 90.4978 16.8989H89.3218V14.9389C89.3218 14.7336 89.2332 14.2856 89.0558 13.5949C88.9345 13.1563 88.8412 12.7783 88.7758 12.4609C88.7105 12.1436 88.6778 11.8589 88.6778 11.6069C88.6778 10.8603 88.8645 10.2256 89.2378 9.70293C89.6112 9.17093 90.1385 8.83493 90.8198 8.69493L92.1778 9.77293L93.5498 8.69493ZM91.5478 12.5869C91.5478 12.7643 91.6038 12.9089 91.7158 13.0209C91.8278 13.1329 91.9725 13.1889 92.1498 13.1889C92.3272 13.1889 92.4672 13.1329 92.5698 13.0209C92.6818 12.9089 92.7378 12.7643 92.7378 12.5869C92.7378 12.4189 92.6818 12.2789 92.5698 12.1669C92.4672 12.0549 92.3272 11.9989 92.1498 11.9989C91.9725 11.9989 91.8278 12.0549 91.7158 12.1669C91.6038 12.2789 91.5478 12.4189 91.5478 12.5869ZM94.287 4.25692H95.407V7.25293H94.287V4.25692ZM100.598 8.69493C101.559 8.69493 102.329 8.91426 102.908 9.35293C103.486 9.79159 103.776 10.3749 103.776 11.1029V15.0509C103.776 15.6763 103.519 16.1663 103.006 16.5209C102.492 16.8663 101.774 17.0389 100.85 17.0389C99.9258 17.0389 99.2118 16.8663 98.7078 16.5209C98.2038 16.1663 97.9518 15.6763 97.9518 15.0509V12.8109C97.9518 12.3816 98.0918 12.0316 98.3718 11.7609C98.6518 11.4809 99.0111 11.3409 99.4498 11.3409C99.8884 11.3409 100.243 11.4716 100.514 11.7329C100.794 11.9943 100.934 12.3349 100.934 12.7549C100.934 13.1749 100.803 13.5156 100.542 13.7769C100.28 14.0383 99.9444 14.1689 99.5338 14.1689C99.4124 14.1689 99.2771 14.1503 99.1278 14.1129V14.9389C99.1278 15.3029 99.2818 15.5829 99.5898 15.7789C99.9071 15.9749 100.341 16.0729 100.892 16.0729C101.442 16.0729 101.862 15.9703 102.152 15.7649C102.441 15.5596 102.586 15.2703 102.586 14.8969V11.1029C102.586 10.6643 102.399 10.3143 102.026 10.0529C101.662 9.79159 101.176 9.66093 100.57 9.66093C99.9818 9.66093 99.4824 9.78226 99.0718 10.0249C98.6704 10.2676 98.4278 10.5943 98.3438 11.0049H97.1958C97.2704 10.2956 97.6158 9.73559 98.2318 9.32493C98.8571 8.90493 99.6458 8.69493 100.598 8.69493ZM99.5198 12.1109C99.3238 12.1109 99.1651 12.1716 99.0438 12.2929C98.9224 12.4143 98.8618 12.5683 98.8618 12.7549C98.8618 12.9416 98.9224 13.0956 99.0438 13.2169C99.1651 13.3383 99.3238 13.3989 99.5198 13.3989C99.7064 13.3989 99.8604 13.3383 99.9818 13.2169C100.103 13.0956 100.164 12.9416 100.164 12.7549C100.164 12.5683 100.103 12.4143 99.9818 12.2929C99.8604 12.1716 99.7064 12.1109 99.5198 12.1109ZM108.353 14.1829C108.763 14.1829 109.099 14.3183 109.361 14.5889C109.631 14.8596 109.767 15.2049 109.767 15.6249C109.767 16.0356 109.627 16.3763 109.347 16.6469C109.076 16.9083 108.721 17.0389 108.283 17.0389C107.835 17.0389 107.466 16.9036 107.177 16.6329C106.897 16.3529 106.757 15.9936 106.757 15.5549V7.68693C106.757 7.34159 106.794 7.04759 106.869 6.80493C106.953 6.56226 107.069 6.27759 107.219 5.95092C107.321 5.73626 107.396 5.56359 107.443 5.43292C107.489 5.30226 107.513 5.16226 107.513 5.01293C107.513 4.69559 107.396 4.45293 107.163 4.28493C106.939 4.10759 106.645 4.01893 106.281 4.01893C106.066 4.01893 105.87 4.05626 105.693 4.13092C105.515 4.19626 105.366 4.28959 105.245 4.41093H105.343C105.688 4.41093 105.973 4.52293 106.197 4.74693C106.43 4.97093 106.547 5.25559 106.547 5.60093C106.547 5.96493 106.421 6.26359 106.169 6.49693C105.926 6.73026 105.613 6.84693 105.231 6.84693C104.848 6.84693 104.531 6.72559 104.279 6.48293C104.027 6.23093 103.901 5.86693 103.901 5.39093C103.901 4.97093 104.003 4.59293 104.209 4.25692C104.405 3.91159 104.689 3.64093 105.063 3.44493C105.436 3.24893 105.865 3.15093 106.351 3.15093C107.013 3.15093 107.569 3.31893 108.017 3.65493C108.465 3.99093 108.689 4.44359 108.689 5.01293C108.689 5.21826 108.661 5.40026 108.605 5.55892C108.558 5.70826 108.479 5.89959 108.367 6.13293C108.236 6.38493 108.133 6.62759 108.059 6.86093C107.984 7.08493 107.947 7.36493 107.947 7.70093V14.2389C108.096 14.2016 108.231 14.1829 108.353 14.1829ZM105.819 5.62892C105.819 5.46093 105.763 5.32559 105.651 5.22293C105.548 5.11093 105.413 5.05493 105.245 5.05493C105.077 5.05493 104.937 5.11093 104.825 5.22293C104.722 5.32559 104.671 5.46093 104.671 5.62892C104.671 5.79692 104.722 5.93693 104.825 6.04893C104.937 6.15159 105.077 6.20292 105.245 6.20292C105.413 6.20292 105.548 6.15159 105.651 6.04893C105.763 5.93693 105.819 5.79692 105.819 5.62892ZM108.339 16.2689C108.525 16.2689 108.679 16.2083 108.801 16.0869C108.931 15.9563 108.997 15.7976 108.997 15.6109C108.997 15.4243 108.931 15.2703 108.801 15.1489C108.679 15.0183 108.525 14.9529 108.339 14.9529C108.143 14.9529 107.984 15.0183 107.863 15.1489C107.741 15.2703 107.681 15.4243 107.681 15.6109C107.681 15.7976 107.741 15.9563 107.863 16.0869C107.984 16.2083 108.143 16.2689 108.339 16.2689ZM117.438 14.2949C117.727 14.3976 117.956 14.5609 118.124 14.7849C118.292 15.0089 118.376 15.2609 118.376 15.5409C118.376 15.9889 118.236 16.3529 117.956 16.6329C117.676 16.9036 117.321 17.0389 116.892 17.0389C116.472 17.0389 116.126 16.9036 115.856 16.6329C115.585 16.3623 115.45 16.0123 115.45 15.5829V15.5269C115.067 15.6763 114.698 15.8723 114.344 16.1149C113.989 16.3576 113.704 16.6189 113.49 16.8989H112.244V11.4809C112.104 11.5276 111.968 11.5509 111.838 11.5509C111.427 11.5509 111.086 11.4203 110.816 11.1589C110.554 10.8883 110.424 10.5383 110.424 10.1089C110.424 9.69826 110.564 9.36226 110.844 9.10093C111.124 8.83026 111.478 8.69493 111.908 8.69493C112.356 8.69493 112.72 8.83493 113 9.11493C113.289 9.38559 113.434 9.74026 113.434 10.1789V15.7229C113.686 15.4523 114.204 15.1303 114.988 14.7569C115.501 14.5143 115.884 14.3043 116.136 14.1269C116.388 13.9496 116.56 13.7723 116.654 13.5949C116.747 13.4083 116.794 13.1843 116.794 12.9229V8.83493H117.984V12.9649C117.984 13.2543 117.937 13.5156 117.844 13.7489C117.75 13.9823 117.615 14.1643 117.438 14.2949ZM111.194 10.1229C111.194 10.3096 111.254 10.4683 111.376 10.5989C111.506 10.7203 111.665 10.7809 111.852 10.7809C112.048 10.7809 112.206 10.7203 112.328 10.5989C112.449 10.4683 112.51 10.3096 112.51 10.1229C112.51 9.93626 112.449 9.78226 112.328 9.66093C112.206 9.53026 112.048 9.46493 111.852 9.46493C111.665 9.46493 111.506 9.53026 111.376 9.66093C111.254 9.78226 111.194 9.93626 111.194 10.1229ZM116.892 16.2689C117.088 16.2689 117.246 16.2083 117.368 16.0869C117.489 15.9563 117.55 15.7976 117.55 15.6109C117.55 15.4243 117.489 15.2703 117.368 15.1489C117.246 15.0183 117.088 14.9529 116.892 14.9529C116.705 14.9529 116.551 15.0183 116.43 15.1489C116.308 15.2703 116.248 15.4243 116.248 15.6109C116.248 15.7976 116.308 15.9563 116.43 16.0869C116.551 16.2083 116.705 16.2689 116.892 16.2689ZM53.3296 30.6609C53.0963 30.6609 52.8909 30.7356 52.7136 30.8849C52.5456 31.0249 52.4523 31.2303 52.4336 31.5009C53.4789 31.6316 54.3656 31.8603 55.0936 32.1869C55.8216 32.5136 56.1856 32.9196 56.1856 33.4049V36.5549C56.1856 36.9936 56.0409 37.3529 55.7516 37.6329C55.4716 37.9036 55.1076 38.0389 54.6596 38.0389C54.2209 38.0389 53.8616 37.9083 53.5816 37.6469C53.3109 37.3763 53.1756 37.0356 53.1756 36.6249C53.1756 36.1956 53.3063 35.8503 53.5676 35.5889C53.8289 35.3183 54.1696 35.1829 54.5896 35.1829C54.7203 35.1829 54.8556 35.2063 54.9956 35.2529V33.5589C54.9956 33.2976 54.6503 33.0549 53.9596 32.8309C53.2689 32.5976 52.3356 32.4063 51.1596 32.2569C51.1689 31.4356 51.3509 30.8056 51.7056 30.3669C52.0696 29.9189 52.5643 29.6949 53.1896 29.6949C53.4229 29.6949 53.6469 29.7183 53.8616 29.7649C54.0763 29.8116 54.3703 29.8863 54.7436 29.9889C55.1449 30.1103 55.4063 30.1709 55.5276 30.1709C55.6396 30.1709 55.7423 30.1243 55.8356 30.0309C55.9289 29.9376 55.9943 29.8069 56.0316 29.6389L56.9276 29.8909C56.8156 30.2829 56.6523 30.5863 56.4376 30.8009C56.2229 31.0156 55.9756 31.1229 55.6956 31.1229C55.5649 31.1229 55.3969 31.0996 55.1916 31.0529C54.9863 31.0063 54.7763 30.9549 54.5616 30.8989C54.5056 30.8803 54.3329 30.8383 54.0436 30.7729C53.7636 30.6983 53.5256 30.6609 53.3296 30.6609ZM54.6036 37.2689C54.7996 37.2689 54.9583 37.2083 55.0796 37.0869C55.2009 36.9563 55.2616 36.7976 55.2616 36.6109C55.2616 36.4243 55.2009 36.2703 55.0796 36.1489C54.9583 36.0183 54.7996 35.9529 54.6036 35.9529C54.4076 35.9529 54.2489 36.0183 54.1276 36.1489C54.0063 36.2703 53.9456 36.4243 53.9456 36.6109C53.9456 36.7976 54.0063 36.9563 54.1276 37.0869C54.2489 37.2083 54.4076 37.2689 54.6036 37.2689ZM60.7828 33.3629C60.2882 33.3629 59.8355 33.2883 59.4248 33.1389C59.0235 32.9803 58.7015 32.7609 58.4588 32.4809C58.2162 32.2009 58.0948 31.8789 58.0948 31.5149C58.0948 31.0949 58.2348 30.7496 58.5148 30.4789C58.8042 30.1989 59.1588 30.0589 59.5788 30.0589C59.9895 30.0589 60.3348 30.1989 60.6148 30.4789C60.8948 30.7496 61.0348 31.0949 61.0348 31.5149C61.0348 31.8976 60.8855 32.2056 60.5868 32.4389C60.6428 32.4483 60.7082 32.4529 60.7828 32.4529C61.4548 32.4529 61.9682 32.2383 62.3228 31.8089C62.6868 31.3796 62.8782 30.7776 62.8968 30.0029H64.0728C64.0542 30.6469 63.9142 31.2256 63.6528 31.7389C63.3915 32.2429 63.0182 32.6396 62.5328 32.9289C62.0475 33.2183 61.4642 33.3629 60.7828 33.3629ZM59.5648 32.0889C59.7608 32.0889 59.9148 32.0329 60.0268 31.9209C60.1388 31.8089 60.1948 31.6596 60.1948 31.4729C60.1948 31.2769 60.1388 31.1229 60.0268 31.0109C59.9148 30.8989 59.7608 30.8429 59.5648 30.8429C59.3782 30.8429 59.2288 30.8989 59.1168 31.0109C59.0048 31.1229 58.9488 31.2769 58.9488 31.4729C58.9488 31.6596 59.0048 31.8089 59.1168 31.9209C59.2288 32.0329 59.3782 32.0889 59.5648 32.0889ZM60.7828 37.6329C60.2882 37.6329 59.8355 37.5583 59.4248 37.4089C59.0235 37.2503 58.7015 37.0309 58.4588 36.7509C58.2162 36.4709 58.0948 36.1489 58.0948 35.7849C58.0948 35.3649 58.2348 35.0196 58.5148 34.7489C58.8042 34.4689 59.1588 34.3289 59.5788 34.3289C59.9895 34.3289 60.3348 34.4689 60.6148 34.7489C60.8948 35.0196 61.0348 35.3649 61.0348 35.7849C61.0348 36.1676 60.8855 36.4803 60.5868 36.7229C60.6428 36.7323 60.7082 36.7369 60.7828 36.7369C61.4642 36.7089 61.9822 36.4849 62.3368 36.0649C62.6915 35.6356 62.8782 35.0383 62.8968 34.2729H64.0728C64.0542 34.9169 63.9142 35.4956 63.6528 36.0089C63.3915 36.5129 63.0182 36.9096 62.5328 37.1989C62.0475 37.4883 61.4642 37.6329 60.7828 37.6329ZM59.5648 36.3729C59.7608 36.3729 59.9148 36.3169 60.0268 36.2049C60.1388 36.0836 60.1948 35.9296 60.1948 35.7429C60.1948 35.5563 60.1388 35.4069 60.0268 35.2949C59.9148 35.1736 59.7608 35.1129 59.5648 35.1129C59.3782 35.1129 59.2288 35.1736 59.1168 35.2949C59.0048 35.4069 58.9488 35.5563 58.9488 35.7429C58.9488 35.9296 59.0048 36.0836 59.1168 36.2049C59.2288 36.3169 59.3782 36.3729 59.5648 36.3729ZM68.9474 29.6949C69.9274 29.6949 70.7114 29.9516 71.2994 30.4649C71.8967 30.9689 72.1954 31.6549 72.1954 32.5229V37.8989H71.0054V32.6209C71.0054 31.9956 70.8187 31.5149 70.4454 31.1789C70.0814 30.8336 69.582 30.6609 68.9474 30.6609C68.462 30.6609 68.0514 30.7543 67.7154 30.9409C67.3794 31.1276 67.1274 31.3656 66.9594 31.6549C66.7914 31.9443 66.7074 32.2476 66.7074 32.5649C66.7074 32.7703 66.7307 32.9943 66.7774 33.2369C66.8334 33.4796 66.9127 33.8063 67.0154 34.2169C67.1087 34.5903 67.1787 34.8936 67.2254 35.1269C67.272 35.3603 67.2954 35.5703 67.2954 35.7569V36.0229C67.4914 35.7336 67.8507 35.3603 68.3734 34.9029L68.6954 34.5949C68.378 34.5483 68.1214 34.4129 67.9254 34.1889C67.7387 33.9649 67.6454 33.6943 67.6454 33.3769C67.6454 33.0223 67.762 32.7283 67.9954 32.4949C68.238 32.2616 68.546 32.1449 68.9194 32.1449C69.2834 32.1449 69.5867 32.2663 69.8294 32.5089C70.072 32.7423 70.1934 33.0456 70.1934 33.4189C70.1934 33.7736 70.0814 34.1049 69.8574 34.4129C69.6427 34.7209 69.3114 35.0989 68.8634 35.5469C68.3967 36.0043 68.0374 36.4056 67.7854 36.7509C67.5427 37.0963 67.398 37.4789 67.3514 37.8989H66.1754V35.9389C66.1754 35.7336 66.0867 35.2763 65.9094 34.5669C65.788 34.1189 65.6947 33.7363 65.6294 33.4189C65.564 33.0923 65.5314 32.8029 65.5314 32.5509C65.5314 32.0283 65.6667 31.5523 65.9374 31.1229C66.208 30.6843 66.6 30.3389 67.1134 30.0869C67.636 29.8256 68.2474 29.6949 68.9474 29.6949ZM68.3174 33.3769C68.3174 33.5543 68.3734 33.6989 68.4854 33.8109C68.5974 33.9229 68.742 33.9789 68.9194 33.9789C69.0967 33.9789 69.2367 33.9229 69.3394 33.8109C69.4514 33.6989 69.5074 33.5543 69.5074 33.3769C69.5074 33.1996 69.4514 33.0596 69.3394 32.9569C69.2367 32.8449 69.0967 32.7889 68.9194 32.7889C68.742 32.7889 68.5974 32.8449 68.4854 32.9569C68.3734 33.0596 68.3174 33.1996 68.3174 33.3769ZM74.1558 25.0329C74.1465 25.7049 73.9925 26.2976 73.6938 26.8109C73.3951 27.3149 72.9845 27.7069 72.4618 27.9869C71.9298 28.2576 71.3278 28.3929 70.6558 28.3929C70.1238 28.3929 69.6571 28.3136 69.2558 28.1549C68.8451 27.9963 68.5278 27.7769 68.3038 27.4969C68.0798 27.2076 67.9678 26.8856 67.9678 26.5309C67.9678 26.1389 68.0985 25.8169 68.3598 25.5649C68.6211 25.3129 68.9525 25.1869 69.3538 25.1869C69.7551 25.1869 70.0865 25.3129 70.3478 25.5649C70.6091 25.8169 70.7398 26.1436 70.7398 26.5449C70.7398 26.7596 70.7025 26.9603 70.6278 27.1469C70.5438 27.3243 70.4318 27.4736 70.2918 27.5949C70.3758 27.6043 70.4971 27.6089 70.6558 27.6089C71.4118 27.6089 72.0138 27.3709 72.4618 26.8949C72.9005 26.4096 73.1245 25.7889 73.1338 25.0329H74.1558ZM68.6958 26.5169C68.6958 26.7036 68.7611 26.8576 68.8918 26.9789C69.0131 27.1003 69.1671 27.1609 69.3538 27.1609C69.5405 27.1609 69.6945 27.1003 69.8158 26.9789C69.9371 26.8576 69.9978 26.7036 69.9978 26.5169C69.9978 26.3396 69.9371 26.1903 69.8158 26.0689C69.6945 25.9476 69.5405 25.8869 69.3538 25.8869C69.1671 25.8869 69.0131 25.9476 68.8918 26.0689C68.7611 26.1903 68.6958 26.3396 68.6958 26.5169ZM81.2225 29.8349V36.1489C81.2225 36.7369 80.9612 37.1989 80.4385 37.5349C79.9252 37.8709 79.2112 38.0389 78.2965 38.0389C77.3818 38.0389 76.6632 37.8709 76.1405 37.5349C75.6272 37.1989 75.3705 36.7369 75.3705 36.1489V32.4809C75.2305 32.5276 75.0952 32.5509 74.9645 32.5509C74.5538 32.5509 74.2132 32.4203 73.9425 32.1589C73.6812 31.8883 73.5505 31.5383 73.5505 31.1089C73.5505 30.6983 73.6905 30.3623 73.9705 30.1009C74.2505 29.8303 74.6052 29.6949 75.0345 29.6949C75.4825 29.6949 75.8465 29.8349 76.1265 30.1149C76.4158 30.3856 76.5605 30.7403 76.5605 31.1789V36.0229C76.5605 36.3496 76.7145 36.6063 77.0225 36.7929C77.3305 36.9796 77.7552 37.0729 78.2965 37.0729C78.8378 37.0729 79.2625 36.9796 79.5705 36.7929C79.8785 36.6063 80.0325 36.3496 80.0325 36.0229V29.8349H81.2225ZM74.3205 31.1229C74.3205 31.3096 74.3812 31.4683 74.5025 31.5989C74.6332 31.7203 74.7918 31.7809 74.9785 31.7809C75.1745 31.7809 75.3332 31.7203 75.4545 31.5989C75.5758 31.4683 75.6365 31.3096 75.6365 31.1229C75.6365 30.9363 75.5758 30.7823 75.4545 30.6609C75.3332 30.5303 75.1745 30.4649 74.9785 30.4649C74.7918 30.4649 74.6332 30.5303 74.5025 30.6609C74.3812 30.7823 74.3205 30.9363 74.3205 31.1229ZM87.166 38.0389C86.69 38.0389 86.3026 37.9316 86.004 37.7169C85.7053 37.5023 85.5233 37.1989 85.458 36.8069L85.178 35.1129C85.0286 35.1876 84.8653 35.2249 84.688 35.2249C84.296 35.2249 83.9693 35.1036 83.708 34.8609C83.456 34.6183 83.33 34.3103 83.33 33.9369C83.33 33.5543 83.4606 33.2416 83.722 32.9989C83.9926 32.7563 84.3193 32.6349 84.702 32.6349C85.038 32.6349 85.332 32.7376 85.584 32.9429C85.836 33.1389 85.9853 33.3909 86.032 33.6989L86.536 36.6389C86.5546 36.7789 86.62 36.8909 86.732 36.9749C86.8533 37.0496 86.998 37.0869 87.166 37.0869C87.3713 37.0869 87.53 37.0356 87.642 36.9329C87.754 36.8209 87.81 36.6716 87.81 36.4849V32.0049C87.81 31.5943 87.642 31.2676 87.306 31.0249C86.97 30.7823 86.5173 30.6609 85.948 30.6609C85.388 30.6609 84.9166 30.7823 84.534 31.0249C84.1513 31.2676 83.9226 31.5943 83.848 32.0049H82.658C82.7233 31.3049 83.05 30.7449 83.638 30.3249C84.2353 29.9049 85.0146 29.6949 85.976 29.6949C86.8906 29.6949 87.6233 29.8956 88.174 30.2969C88.7246 30.6983 89 31.2396 89 31.9209V36.4289C89 36.9516 88.8413 37.3529 88.524 37.6329C88.216 37.9036 87.7633 38.0389 87.166 38.0389ZM84.646 34.5249C84.8233 34.5249 84.9633 34.4689 85.066 34.3569C85.178 34.2449 85.234 34.1003 85.234 33.9229C85.234 33.7456 85.178 33.6056 85.066 33.5029C84.9633 33.3909 84.8233 33.3349 84.646 33.3349C84.4686 33.3349 84.324 33.3909 84.212 33.5029C84.1 33.6056 84.044 33.7456 84.044 33.9229C84.044 34.1003 84.1 34.2449 84.212 34.3569C84.324 34.4689 84.4686 34.5249 84.646 34.5249ZM90.9585 25.0329C90.9492 25.7049 90.7952 26.2976 90.4965 26.8109C90.1979 27.3149 89.7872 27.7069 89.2645 27.9869C88.7325 28.2576 88.1305 28.3929 87.4585 28.3929C86.9265 28.3929 86.4599 28.3136 86.0585 28.1549C85.6479 27.9963 85.3305 27.7769 85.1065 27.4969C84.8825 27.2076 84.7705 26.8856 84.7705 26.5309C84.7705 26.1389 84.9012 25.8169 85.1625 25.5649C85.4239 25.3129 85.7552 25.1869 86.1565 25.1869C86.5579 25.1869 86.8892 25.3129 87.1505 25.5649C87.4119 25.8169 87.5425 26.1436 87.5425 26.5449C87.5425 26.7596 87.5052 26.9603 87.4305 27.1469C87.3465 27.3243 87.2345 27.4736 87.0945 27.5949C87.1785 27.6043 87.2999 27.6089 87.4585 27.6089C88.2145 27.6089 88.8165 27.3709 89.2645 26.8949C89.7032 26.4096 89.9272 25.7889 89.9365 25.0329H90.9585ZM85.4985 26.5169C85.4985 26.7036 85.5639 26.8576 85.6945 26.9789C85.8159 27.1003 85.9699 27.1609 86.1565 27.1609C86.3432 27.1609 86.4972 27.1003 86.6185 26.9789C86.7399 26.8576 86.8005 26.7036 86.8005 26.5169C86.8005 26.3396 86.7399 26.1903 86.6185 26.0689C86.4972 25.9476 86.3432 25.8869 86.1565 25.8869C85.9699 25.8869 85.8159 25.9476 85.6945 26.0689C85.5639 26.1903 85.4985 26.3396 85.4985 26.5169ZM93.8253 29.6949C94.2733 29.6949 94.6373 29.8349 94.9173 30.1149C95.2066 30.3856 95.3513 30.7403 95.3513 31.1789V37.8989H94.1753L90.3253 33.6989L90.9833 32.9849L94.1613 36.4289V32.4809C94.0213 32.5276 93.8859 32.5509 93.7553 32.5509C93.3446 32.5509 93.0039 32.4203 92.7333 32.1589C92.4719 31.8883 92.3413 31.5383 92.3413 31.1089C92.3413 30.6983 92.4813 30.3623 92.7613 30.1009C93.0413 29.8303 93.3959 29.6949 93.8253 29.6949ZM93.1113 31.1229C93.1113 31.3096 93.1719 31.4683 93.2933 31.5989C93.4239 31.7203 93.5826 31.7809 93.7693 31.7809C93.9653 31.7809 94.1239 31.7203 94.2453 31.5989C94.3666 31.4683 94.4273 31.3096 94.4273 31.1229C94.4273 30.9363 94.3666 30.7823 94.2453 30.6609C94.1239 30.5303 93.9653 30.4649 93.7693 30.4649C93.5826 30.4649 93.4239 30.5303 93.2933 30.6609C93.1719 30.7823 93.1113 30.9363 93.1113 31.1229ZM104.523 31.1089C104.523 31.3703 104.467 31.6083 104.355 31.8229C104.243 32.0283 104.089 32.1916 103.893 32.3129C104.135 32.6023 104.257 32.9989 104.257 33.5029V37.8989H103.067V33.5029C103.067 33.0736 102.945 32.8589 102.703 32.8589C102.507 32.8589 102.306 33.0363 102.101 33.3909L99.5807 37.8989H98.5307V32.4809C98.3907 32.5276 98.2553 32.5509 98.1247 32.5509C97.714 32.5509 97.3733 32.4203 97.1027 32.1589C96.8413 31.8883 96.7107 31.5383 96.7107 31.1089C96.7107 30.6983 96.8507 30.3623 97.1307 30.1009C97.4107 29.8303 97.7653 29.6949 98.1947 29.6949C98.6427 29.6949 99.0067 29.8349 99.2867 30.1149C99.576 30.3856 99.7207 30.7403 99.7207 31.1789V34.9729C99.7207 35.2809 99.702 35.5563 99.6647 35.7989C99.6273 36.0323 99.604 36.1769 99.5947 36.2329L101.415 32.9009C101.629 32.5276 101.853 32.2849 102.087 32.1729C101.947 32.0423 101.839 31.8883 101.765 31.7109C101.69 31.5243 101.653 31.3236 101.653 31.1089C101.653 30.6983 101.783 30.3623 102.045 30.1009C102.315 29.8303 102.661 29.6949 103.081 29.6949C103.501 29.6949 103.846 29.8303 104.117 30.1009C104.387 30.3623 104.523 30.6983 104.523 31.1089ZM97.4807 31.1229C97.4807 31.3096 97.5413 31.4683 97.6627 31.5989C97.7933 31.7203 97.952 31.7809 98.1387 31.7809C98.3347 31.7809 98.4933 31.7203 98.6147 31.5989C98.736 31.4683 98.7967 31.3096 98.7967 31.1229C98.7967 30.9363 98.736 30.7823 98.6147 30.6609C98.4933 30.5303 98.3347 30.4649 98.1387 30.4649C97.952 30.4649 97.7933 30.5303 97.6627 30.6609C97.5413 30.7823 97.4807 30.9363 97.4807 31.1229ZM103.081 30.4649C102.894 30.4649 102.74 30.5303 102.619 30.6609C102.497 30.7823 102.437 30.9363 102.437 31.1229C102.437 31.3096 102.497 31.4683 102.619 31.5989C102.74 31.7203 102.894 31.7809 103.081 31.7809C103.277 31.7809 103.435 31.7203 103.557 31.5989C103.678 31.4683 103.739 31.3096 103.739 31.1229C103.739 30.9363 103.678 30.7823 103.557 30.6609C103.435 30.5303 103.277 30.4649 103.081 30.4649ZM108.565 29.6949C109.442 29.6949 110.138 29.9143 110.651 30.3529C111.164 30.7916 111.421 31.3843 111.421 32.1309V36.5549C111.421 36.9936 111.276 37.3529 110.987 37.6329C110.707 37.9036 110.343 38.0389 109.895 38.0389C109.456 38.0389 109.097 37.9083 108.817 37.6469C108.546 37.3763 108.411 37.0356 108.411 36.6249C108.411 36.1956 108.542 35.8503 108.803 35.5889C109.064 35.3183 109.405 35.1829 109.825 35.1829C109.956 35.1829 110.091 35.2063 110.231 35.2529V32.2429C110.231 31.7483 110.082 31.3609 109.783 31.0809C109.484 30.8009 109.069 30.6609 108.537 30.6609C108.061 30.6609 107.655 30.7916 107.319 31.0529C106.992 31.3143 106.796 31.6596 106.731 32.0889H105.541C105.606 31.3516 105.914 30.7683 106.465 30.3389C107.016 29.9096 107.716 29.6949 108.565 29.6949ZM109.839 37.2689C110.035 37.2689 110.194 37.2083 110.315 37.0869C110.436 36.9563 110.497 36.7976 110.497 36.6109C110.497 36.4243 110.436 36.2703 110.315 36.1489C110.194 36.0183 110.035 35.9529 109.839 35.9529C109.643 35.9529 109.484 36.0183 109.363 36.1489C109.242 36.2703 109.181 36.4243 109.181 36.6109C109.181 36.7976 109.242 36.9563 109.363 37.0869C109.484 37.2083 109.643 37.2689 109.839 37.2689ZM113.38 25.0329C113.371 25.7049 113.217 26.2976 112.918 26.8109C112.62 27.3149 112.209 27.7069 111.686 27.9869C111.154 28.2576 110.552 28.3929 109.88 28.3929C109.348 28.3929 108.882 28.3136 108.48 28.1549C108.07 27.9963 107.752 27.7769 107.528 27.4969C107.304 27.2076 107.192 26.8856 107.192 26.5309C107.192 26.1389 107.323 25.8169 107.584 25.5649C107.846 25.3129 108.177 25.1869 108.578 25.1869C108.98 25.1869 109.311 25.3129 109.572 25.5649C109.834 25.8169 109.964 26.1436 109.964 26.5449C109.964 26.7596 109.927 26.9603 109.852 27.1469C109.768 27.3243 109.656 27.4736 109.516 27.5949C109.6 27.6043 109.722 27.6089 109.88 27.6089C110.636 27.6089 111.238 27.3709 111.686 26.8949C112.125 26.4096 112.349 25.7889 112.358 25.0329H113.38ZM107.92 26.5169C107.92 26.7036 107.986 26.8576 108.116 26.9789C108.238 27.1003 108.392 27.1609 108.578 27.1609C108.765 27.1609 108.919 27.1003 109.04 26.9789C109.162 26.8576 109.222 26.7036 109.222 26.5169C109.222 26.3396 109.162 26.1903 109.04 26.0689C108.919 25.9476 108.765 25.8869 108.578 25.8869C108.392 25.8869 108.238 25.9476 108.116 26.0689C107.986 26.1903 107.92 26.3396 107.92 26.5169ZM116.457 29.6949C117.437 29.6949 118.221 29.9516 118.809 30.4649C119.406 30.9689 119.705 31.6549 119.705 32.5229V37.8989H118.515V32.6209C118.515 31.9956 118.328 31.5149 117.955 31.1789C117.591 30.8336 117.092 30.6609 116.457 30.6609C115.972 30.6609 115.561 30.7543 115.225 30.9409C114.889 31.1276 114.637 31.3656 114.469 31.6549C114.301 31.9443 114.217 32.2476 114.217 32.5649C114.217 32.7703 114.24 32.9943 114.287 33.2369C114.343 33.4796 114.422 33.8063 114.525 34.2169C114.618 34.5903 114.688 34.8936 114.735 35.1269C114.782 35.3603 114.805 35.5703 114.805 35.7569V36.0229C115.001 35.7336 115.36 35.3603 115.883 34.9029L116.205 34.5949C115.888 34.5483 115.631 34.4129 115.435 34.1889C115.248 33.9649 115.155 33.6943 115.155 33.3769C115.155 33.0223 115.272 32.7283 115.505 32.4949C115.748 32.2616 116.056 32.1449 116.429 32.1449C116.793 32.1449 117.096 32.2663 117.339 32.5089C117.582 32.7423 117.703 33.0456 117.703 33.4189C117.703 33.7736 117.591 34.1049 117.367 34.4129C117.152 34.7209 116.821 35.0989 116.373 35.5469C115.906 36.0043 115.547 36.4056 115.295 36.7509C115.052 37.0963 114.908 37.4789 114.861 37.8989H113.685V35.9389C113.685 35.7336 113.596 35.2763 113.419 34.5669C113.298 34.1189 113.204 33.7363 113.139 33.4189C113.074 33.0923 113.041 32.8029 113.041 32.5509C113.041 32.0283 113.176 31.5523 113.447 31.1229C113.718 30.6843 114.11 30.3389 114.623 30.0869C115.146 29.8256 115.757 29.6949 116.457 29.6949ZM115.827 33.3769C115.827 33.5543 115.883 33.6989 115.995 33.8109C116.107 33.9229 116.252 33.9789 116.429 33.9789C116.606 33.9789 116.746 33.9229 116.849 33.8109C116.961 33.6989 117.017 33.5543 117.017 33.3769C117.017 33.1996 116.961 33.0596 116.849 32.9569C116.746 32.8449 116.606 32.7889 116.429 32.7889C116.252 32.7889 116.107 32.8449 115.995 32.9569C115.883 33.0596 115.827 33.1996 115.827 33.3769Z"
    fill="#101C3D" />
</svg>
  