<svg width="16" height="16" viewBox="0 0 16 16" fill="none" xmlns="http://www.w3.org/2000/svg">
<g clip-path="url(#clip0_204_4784)">
<rect width="16" height="16" rx="8" fill="white"/>
<path d="M8 1C4.15 1 1 4.15 1 8C1 11.85 4.15 15 8 15C11.85 15 15 11.85 15 8C15 4.15 11.85 1 8 1ZM7.45 4H8.55V9.5H7.45V4ZM8 12.5C7.6 12.5 7.25 12.15 7.25 11.75C7.25 11.35 7.6 11 8 11C8.4 11 8.75 11.35 8.75 11.75C8.75 12.15 8.4 12.5 8 12.5Z" fill="#101C3D"/>
</g>
<rect x="0.5" y="0.5" width="15" height="15" rx="7.5" stroke="#101C3D"/>
<defs>
<clipPath id="clip0_204_4784">
<rect width="16" height="16" rx="8" fill="white"/>
</clipPath>
</defs>
</svg>
