<svg width="20" height="26" viewBox="0 0 20 26" fill="none" xmlns="http://www.w3.org/2000/svg">
<path d="M16.25 5.5H3.75C3.41848 5.5 3.10054 5.6317 2.86612 5.86612C2.6317 6.10054 2.5 6.41848 2.5 6.75V19.25C2.5 19.5815 2.6317 19.8995 2.86612 20.1339C3.10054 20.3683 3.41848 20.5 3.75 20.5H16.25C16.5815 20.5 16.8995 20.3683 17.1339 20.1339C17.3683 19.8995 17.5 19.5815 17.5 19.25V6.75C17.5 6.41848 17.3683 6.10054 17.1339 5.86612C16.8995 5.6317 16.5815 5.5 16.25 5.5ZM8.75 16.4375L5.625 13.3392L6.61925 12.375L8.75 14.466L13.3804 9.875L14.3753 10.8608L8.75 16.4375Z" fill="#FCEB71"/>
</svg>
