<svg width="20" height="26" viewBox="0 0 20 26" fill="none" xmlns="http://www.w3.org/2000/svg">
<path d="M8.75 16.3837L5.625 13.2581L6.50813 12.375L8.75 14.6163L13.4906 9.875L14.375 10.7594L8.75 16.3837Z" fill="#FCEB71"/>
<path d="M10 4.25C8.26942 4.25 6.57769 4.76318 5.13876 5.72464C3.69983 6.6861 2.57832 8.05267 1.91606 9.65152C1.25379 11.2504 1.08051 13.0097 1.41813 14.707C1.75575 16.4044 2.58911 17.9635 3.81282 19.1872C5.03653 20.4109 6.59563 21.2442 8.29296 21.5819C9.9903 21.9195 11.7496 21.7462 13.3485 21.0839C14.9473 20.4217 16.3139 19.3002 17.2754 17.8612C18.2368 16.4223 18.75 14.7306 18.75 13C18.75 10.6794 17.8281 8.45376 16.1872 6.81282C14.5462 5.17187 12.3206 4.25 10 4.25ZM10 20.5C8.51664 20.5 7.0666 20.0601 5.83323 19.236C4.59986 18.4119 3.63856 17.2406 3.07091 15.8701C2.50325 14.4997 2.35473 12.9917 2.64411 11.5368C2.9335 10.082 3.64781 8.74559 4.6967 7.6967C5.7456 6.64781 7.08197 5.9335 8.53683 5.64411C9.99168 5.35472 11.4997 5.50325 12.8701 6.0709C14.2406 6.63856 15.4119 7.59985 16.236 8.83322C17.0601 10.0666 17.5 11.5166 17.5 13C17.5 14.9891 16.7098 16.8968 15.3033 18.3033C13.8968 19.7098 11.9891 20.5 10 20.5Z" fill="#FCEB71"/>
</svg>
