<svg width="13" height="15" viewBox="0 0 13 15" fill="none" xmlns="http://www.w3.org/2000/svg">
<path d="M11.5 9C11.5 9.98891 11.2068 10.9556 10.6574 11.7779C10.1079 12.6001 9.32705 13.241 8.41342 13.6194C7.49979 13.9978 6.49446 14.0969 5.52455 13.9039C4.55465 13.711 3.66373 13.2348 2.96447 12.5355C2.26521 11.8363 1.789 10.9454 1.59608 9.97545C1.40315 9.00555 1.50217 8.00021 1.88061 7.08658C2.25904 6.17295 2.89991 5.39206 3.72215 4.84265C4.5444 4.29324 5.5111 4 6.5 4H9.59105L7.79885 5.7927L8.5 6.5L11.5 3.5L8.5 0.5L7.79885 1.207L9.59255 3H6.5C5.31331 3 4.15328 3.35189 3.16658 4.01118C2.17989 4.67047 1.41085 5.60754 0.956726 6.7039C0.5026 7.80026 0.38378 9.00666 0.615291 10.1705C0.846802 11.3344 1.41825 12.4035 2.25736 13.2426C3.09648 14.0818 4.16558 14.6532 5.32946 14.8847C6.49335 15.1162 7.69975 14.9974 8.7961 14.5433C9.89246 14.0892 10.8295 13.3201 11.4888 12.3334C12.1481 11.3467 12.5 10.1867 12.5 9H11.5Z" fill="#FCEB71"/>
</svg>
