<svg width="81" height="81" viewBox="0 0 81 81" fill="none" xmlns="http://www.w3.org/2000/svg">
  <g clip-path="url(#clip0_139_6607)">
  <rect x="0.5" y="0.509277" width="80" height="80" rx="40" fill="#FCEB71"/>
  <path d="M36.3402 49.4761C36.3402 49.4761 36.2753 54.1666 36.0155 56.0725C35.7557 57.9783 27.5258 60.5595 25.2526 61.1053C22.9794 61.6512 17.2825 64.1676 16.0485 68.0441C14.8144 71.9205 16.0485 84.7525 16.0485 84.7525H40.6175V49.4761H36.3402Z" fill="#277CE2"/>
  <path d="M44.8855 49.4761C44.8855 49.4761 44.9504 54.1666 45.2102 56.0725C45.47 57.9783 53.6999 60.5595 55.9731 61.1053C58.2463 61.6512 63.9432 64.1676 65.1772 68.0441C66.4112 71.9205 65.1772 84.7525 65.1772 84.7525H40.6082V49.4761H44.8855Z" fill="#277CE2"/>
  <path d="M36.1082 55.1472C36.1082 55.1472 37.8246 57.3584 43.6607 57.053L45.3958 56.7385L44.4587 51.7241L36.1082 55.1472Z" fill="#277CE2"/>
  <path d="M40.6175 58.9868L35.3103 59.0238L38.9289 72.5959L42.5938 75.2974L46.7227 62.3081L40.6175 58.9868Z" fill="white"/>
  <path d="M38.929 60.1803L39.4857 62.6505H40.6176V58.9868L38.929 60.1803Z" fill="#277CE2"/>
  <path d="M38.9289 67.748L39.4856 62.6504H40.6175L40.8866 70.3385H38.632L38.9289 67.748Z" fill="#277CE2"/>
  <path d="M42.2968 60.1803L41.7401 62.6505H40.6174V58.9868L42.2968 60.1803Z" fill="#277CE2"/>
  <path d="M42.2968 67.748L41.7401 62.6504H40.6175L40.3391 70.3385H42.5938L42.2968 67.748Z" fill="#277CE2"/>
  <path d="M50.1649 44.1193C50.1649 49.3095 47.1402 56.35 40.5711 56.35C33.6216 56.35 30.9773 49.3095 30.9773 44.1193C30.9773 38.9292 35.2732 34.7104 40.5711 34.7104C45.869 34.7104 50.1649 38.9199 50.1649 44.1193Z" fill="#277CE2"/>
  <path d="M36.9897 45.1094C37.3791 45.1094 37.6949 44.7946 37.6949 44.4062C37.6949 44.0179 37.3791 43.7031 36.9897 43.7031C36.6003 43.7031 36.2845 44.0179 36.2845 44.4062C36.2845 44.7946 36.6003 45.1094 36.9897 45.1094Z" fill="white"/>
  <path d="M43.7351 45.1094C44.1245 45.1094 44.4402 44.7946 44.4402 44.4062C44.4402 44.0179 44.1245 43.7031 43.7351 43.7031C43.3456 43.7031 43.0299 44.0179 43.0299 44.4062C43.0299 44.7946 43.3456 45.1094 43.7351 45.1094Z" fill="white"/>
  <path d="M36.0155 55.7393L40.6176 58.9866L37.1661 62.3079L34.5032 57.6081L36.0155 55.7393Z" fill="white" stroke="#277CE2" stroke-width="0.5" stroke-miterlimit="10"/>
  <path d="M45.2102 55.7393L40.6174 58.9866L44.0597 62.3079L46.7226 57.6081L45.2102 55.7393Z" fill="white" stroke="#277CE2" stroke-width="0.5" stroke-miterlimit="10"/>
  <path d="M65.0938 68.0442C63.8598 64.1678 58.1536 61.6514 55.8897 61.1055C54.1917 60.6984 49.1814 59.1534 46.6392 57.6084C46.6392 57.6084 44.1897 62.1602 40.6546 68.9046C37.1196 62.1602 34.5124 57.6084 34.5124 57.6084C31.9701 59.1534 26.9505 60.6984 25.2619 61.1055C22.9887 61.6514 17.2918 64.1678 16.0577 68.0442C14.8237 71.9206 16.0577 84.7526 16.0577 84.7526H65.1031C65.1031 84.7526 66.3371 71.9206 65.1031 68.0442H65.0938Z" fill="#277CE2"/>
  <path d="M38.9568 51.3726H42.1857" stroke="white" stroke-width="0.5" stroke-miterlimit="10"/>
  <path d="M40.6299 27.9176C45.6722 27.9176 49.7598 23.8418 49.7598 18.814C49.7598 13.7863 45.6722 9.71045 40.6299 9.71045C35.5876 9.71045 31.5 13.7863 31.5 18.814C31.5 23.8418 35.5876 27.9176 40.6299 27.9176Z" fill="#277CE2"/>
  <path d="M44.8886 13.3555L38.4958 19.9149L36.3804 17.7315L34.2371 19.9056L38.4958 24.2724H38.5051L47.0133 15.5388L44.8886 13.3555Z" fill="white"/>
  </g>
  <defs>
  <clipPath id="clip0_139_6607">
  <rect x="0.5" y="0.509277" width="80" height="80" rx="40" fill="white"/>
  </clipPath>
  </defs>
  </svg>
  