<svg width="81" height="81" viewBox="0 0 81 81" fill="none" xmlns="http://www.w3.org/2000/svg">
  <rect x="0.5" y="0.509277" width="80" height="80" rx="40" fill="#FCEB71"/>
  <g clip-path="url(#clip0_139_6598)">
  <path d="M35.44 50.5904C44.2434 50.5904 51.38 43.4539 51.38 34.6504C51.38 25.847 44.2434 18.7104 35.44 18.7104C26.6366 18.7104 19.5 25.847 19.5 34.6504C19.5 43.4539 26.6366 50.5904 35.44 50.5904Z" fill="#277CE2"/>
  <path d="M60.41 59.6207L44.97 44.1807" stroke="#277CE2" stroke-width="5" stroke-miterlimit="10"/>
  <path d="M35.6101 28.5005C28.9401 28.5005 24.6201 34.6405 24.6201 34.6405C24.6201 34.6405 28.9301 40.7805 35.2501 40.7805C42.3401 40.7805 46.2401 34.6405 46.2401 34.6405C46.2401 34.6405 42.3401 28.5005 35.6101 28.5005Z" fill="white"/>
  <path d="M35.6401 39.9204C38.5507 39.9204 40.9101 37.5609 40.9101 34.6504C40.9101 31.7398 38.5507 29.3804 35.6401 29.3804C32.7296 29.3804 30.3701 31.7398 30.3701 34.6504C30.3701 37.5609 32.7296 39.9204 35.6401 39.9204Z" fill="#277CE2"/>
  </g>
  <defs>
  <clipPath id="clip0_139_6598">
  <rect width="42.68" height="42.68" fill="white" transform="translate(19.5 18.7104)"/>
  </clipPath>
  </defs>
  </svg>
  