<svg width="81" height="81" viewBox="0 0 81 81" fill="none" xmlns="http://www.w3.org/2000/svg">
  <rect x="0.5" y="0.509277" width="80" height="80" rx="40" fill="#FCEB71"/>
  <g clip-path="url(#clip0_139_6435)">
  <path d="M50.0928 12.7105L10.4958 20.0049L19.0912 66.8266L58.6881 59.5322L50.0928 12.7105Z" fill="white"/>
  <path d="M28.572 35.628L38.7551 33.7568" stroke="#277CE2" stroke-width="0.25" stroke-miterlimit="10"/>
  <path d="M13.7554 23.1928L48.1857 16.8525" stroke="#277CE2" stroke-width="0.25" stroke-miterlimit="10"/>
  <path d="M17.3824 42.9404L51.8128 36.6001" stroke="#277CE2" stroke-width="0.25" stroke-miterlimit="10"/>
  <path d="M17.6182 44.2395L52.0485 37.8901" stroke="#277CE2" stroke-width="0.25" stroke-miterlimit="10"/>
  <path d="M17.854 45.5293L52.2843 39.189" stroke="#277CE2" stroke-width="0.25" stroke-miterlimit="10"/>
  <path d="M18.0897 46.8281L52.52 40.4878" stroke="#277CE2" stroke-width="0.25" stroke-miterlimit="10"/>
  <path d="M18.3346 48.1269L52.7649 41.7866" stroke="#277CE2" stroke-width="0.25" stroke-miterlimit="10"/>
  <path d="M18.5703 49.426L53.0006 43.0767" stroke="#277CE2" stroke-width="0.25" stroke-miterlimit="10"/>
  <path d="M18.806 50.7158L53.2364 44.3755" stroke="#277CE2" stroke-width="0.25" stroke-miterlimit="10"/>
  <path d="M19.0419 52.0151L53.4813 45.6748" stroke="#277CE2" stroke-width="0.25" stroke-miterlimit="10"/>
  <path d="M19.2866 53.3139L53.7169 46.9736" stroke="#277CE2" stroke-width="0.25" stroke-miterlimit="10"/>
  <path d="M19.5225 54.6126L53.9528 48.2632" stroke="#277CE2" stroke-width="0.25" stroke-miterlimit="10"/>
  <path d="M19.7582 55.9028L54.1885 49.5625" stroke="#277CE2" stroke-width="0.25" stroke-miterlimit="10"/>
  <path d="M19.9939 57.2016L54.4333 50.8613" stroke="#277CE2" stroke-width="0.25" stroke-miterlimit="10"/>
  <path d="M20.2388 58.5005L54.6691 52.1602" stroke="#277CE2" stroke-width="0.25" stroke-miterlimit="10"/>
  <path d="M20.4745 59.7996L54.9048 53.4502" stroke="#277CE2" stroke-width="0.25" stroke-miterlimit="10"/>
  <path d="M20.7103 61.0984L55.1406 54.749" stroke="#277CE2" stroke-width="0.25" stroke-miterlimit="10"/>
  <path d="M20.9551 62.3882L55.3854 56.0479" stroke="#277CE2" stroke-width="0.25" stroke-miterlimit="10"/>
  <path d="M28.8169 36.9452L38.9909 35.0649" stroke="#277CE2" stroke-width="0.25" stroke-miterlimit="10"/>
  <path d="M36.2706 32.0038C36.3704 31.7313 36.2344 31.5042 36.1618 31.2681C36.1074 31.4588 36.18 31.6314 36.2072 31.804C36.2162 31.8676 36.2162 31.9402 36.1437 31.9493C36.0712 31.9584 36.0349 31.9039 36.0167 31.8403C35.9895 31.7313 35.9714 31.6132 35.9533 31.5042C35.9261 31.3862 35.8445 31.3226 35.7266 31.3135C35.6087 31.3044 35.518 31.3498 35.4545 31.4407C35.3729 31.5497 35.4183 31.6405 35.4999 31.7222C35.4727 31.8222 35.5089 31.913 35.5271 32.0038C35.5362 32.0947 35.5906 32.1492 35.6812 32.1583C35.7538 32.1583 35.7991 32.1219 35.8173 32.0583C35.8354 31.9766 35.8173 31.8857 35.7266 31.8676C35.6178 31.8494 35.6087 31.7858 35.6087 31.7041C35.6268 31.6768 35.6631 31.6405 35.654 31.6132C35.654 31.5497 35.4817 31.4952 35.645 31.4316C35.7719 31.3771 35.8445 31.4588 35.8626 31.586C35.8717 31.6587 35.8626 31.7404 35.9079 31.7949C36.053 31.9857 35.8626 32.2763 36.1165 32.4217L36.2162 32.4035C36.452 32.2309 36.452 32.2218 36.2616 32.0674C36.2072 32.022 36.2797 32.0311 36.2888 32.0129L36.2706 32.0038Z" fill="#277CE2"/>
  <path d="M35.2006 32.2037C35.3728 32.0765 35.264 31.913 35.2368 31.7677C35.2187 31.6587 35.255 31.4497 35.128 31.4679C34.992 31.4952 35.128 31.6768 35.128 31.7858C35.1099 31.9039 35.2731 32.0947 35.0917 32.131C34.8832 32.1764 34.9739 31.9312 34.9195 31.8222C34.8741 31.7222 34.9195 31.5497 34.7834 31.5406C34.6565 31.5315 34.4933 31.5133 34.4117 31.6677C34.2938 31.8676 34.5205 32.0038 34.4933 32.1946C34.4842 32.2854 34.5567 32.3399 34.6474 32.3399C34.72 32.3399 34.7653 32.2945 34.7744 32.2309C34.7834 32.1401 34.7562 32.0674 34.6656 32.0493C34.593 32.0402 34.5295 31.9948 34.5658 31.9403C34.6928 31.7767 34.5023 31.7767 34.457 31.695C34.6837 31.5587 34.7744 31.5951 34.8378 31.8403C34.8741 31.9766 34.856 32.1401 34.9739 32.2491C34.8197 32.4398 34.9467 32.5216 35.1008 32.6034L35.255 32.5761C35.3094 32.4398 35.4998 32.2854 35.1915 32.2128L35.2006 32.2037Z" fill="#277CE2"/>
  <path d="M37.1321 28.0523C37.0958 27.9887 37.0414 28.025 36.996 28.0523C36.8238 28.134 36.5971 28.0886 36.5154 27.9978C36.3704 27.8343 36.2525 27.8888 36.1346 27.9433C36.0167 27.9978 35.8988 28.016 35.781 28.0432C35.6993 27.9251 35.391 28.025 35.4817 27.7344C35.4817 27.7707 35.4455 27.7707 35.4182 27.7616C35.4364 27.8979 35.382 28.016 35.3094 28.125C35.3457 28.1704 35.255 28.2431 35.3276 28.2794C35.3638 28.2976 35.4273 28.2885 35.4364 28.2158C35.4545 28.1068 35.5271 28.1522 35.5633 28.1976C35.6359 28.2794 35.6359 28.3702 35.5633 28.452C35.5271 28.4883 35.4908 28.5882 35.4273 28.4974C35.2913 28.2703 35.1462 28.3702 34.9921 28.4611C34.9739 28.4611 34.9467 28.4611 34.9286 28.4611C34.9467 28.4974 34.9014 28.5882 35.0011 28.561C35.3638 28.6155 35.7356 28.5973 36.0983 28.6972C36.325 28.7608 36.5517 28.888 36.8691 28.8335C36.6243 28.6609 36.3976 28.6064 36.1981 28.5065C36.1437 28.4792 36.0167 28.5065 36.0439 28.3793C35.9895 28.452 35.9623 28.3975 35.9351 28.343C35.8898 28.3884 35.8354 28.343 35.79 28.3611C35.8263 28.2885 35.8716 28.2521 35.9351 28.3339C35.9895 28.2794 36.0258 28.3066 36.053 28.3611C36.1437 28.3157 36.2343 28.3611 36.325 28.3702C36.5971 28.3975 36.851 28.3702 37.0686 28.1795C37.1139 28.1431 37.1593 28.1068 37.123 28.0523H37.1321Z" fill="#277CE2"/>
  <path d="M29.7871 32.4219C29.6692 32.5127 29.769 32.5945 29.7146 32.6671C29.6602 32.6217 29.5423 32.6671 29.5332 32.5672C29.506 32.6308 29.4788 32.6853 29.4425 32.758C29.4063 32.6853 29.379 32.6035 29.3337 32.549C29.2884 32.4855 29.2158 32.4673 29.1524 32.54C29.0889 32.6035 29.0526 32.7125 29.1342 32.7398C29.3609 32.8215 29.3428 33.0123 29.3881 33.1849C29.3972 33.2303 29.4063 33.2757 29.4607 33.2757C29.5151 33.2757 29.5151 33.2212 29.5332 33.1849C29.5695 33.0486 29.5151 32.8942 29.6148 32.7489C29.6874 32.8942 29.7508 33.0214 29.8143 33.1486C29.8324 33.194 29.8687 33.2212 29.914 33.194C29.9322 33.1849 29.9503 33.1304 29.9413 33.1031C29.8959 32.8851 29.8868 32.649 29.7962 32.431L29.7871 32.4219Z" fill="#277CE2"/>
  <path d="M29.5332 32.5127C29.5332 32.5127 29.5332 32.5581 29.5332 32.5672C29.5332 32.5581 29.5423 32.5399 29.5513 32.5309C29.5423 32.5127 29.5332 32.5127 29.5332 32.5127Z" fill="#277CE2"/>
  <path d="M33.2601 31.7402C33.2601 31.7402 33.1875 31.7402 33.1875 31.7857C33.1603 31.9764 33.0787 31.8856 32.979 31.8402C32.8611 31.7857 32.7523 31.8402 32.6888 31.9401C32.6344 32.0309 32.6707 32.1944 32.7432 32.1853C32.979 32.1672 32.9518 32.3307 32.979 32.4669C33.0062 32.6032 33.1059 32.6304 33.2238 32.6123C33.3235 32.5941 33.3779 32.5214 33.3689 32.4033C33.3598 32.2035 33.2419 32.0218 33.2963 31.8038C33.2873 31.7857 33.2782 31.7493 33.2601 31.7493V31.7402ZM33.2147 32.4669C33.2147 32.4669 33.1422 32.476 33.124 32.4669C33.0515 32.4124 33.0606 32.3216 33.0606 32.2489C33.0606 32.1672 33.0515 32.0763 33.1694 32.0309C33.1875 32.1036 33.2147 32.1762 33.2147 32.2398C33.2147 32.3125 33.2782 32.3942 33.2147 32.4578V32.4669Z" fill="#277CE2"/>
  <path d="M33.9945 31.6588C34.0217 31.8223 34.0489 31.9767 34.0852 32.1402C34.1124 32.2583 34.0852 32.331 33.9583 32.3491C33.8495 32.3673 33.8041 32.3037 33.786 32.1947C33.7678 32.0676 33.7406 31.9313 33.7044 31.8041C33.6862 31.7405 33.6228 31.686 33.5412 31.6951C33.4867 31.6951 33.4505 31.7405 33.4233 31.795C33.3961 31.8586 33.3961 31.9404 33.4595 31.9585C33.65 32.004 33.659 32.1584 33.6772 32.3037C33.7044 32.4491 33.8132 32.4854 33.9311 32.4763C34.058 32.4763 34.2031 32.4127 34.2031 32.2674C34.2031 32.0585 34.1759 31.8405 34.0762 31.6406C34.0489 31.6406 34.0217 31.6497 33.9855 31.6588H33.9945Z" fill="#277CE2"/>
  <path d="M31.4194 29.3423C31.4919 29.0517 31.374 29.1516 31.238 29.1879C31.1564 29.2061 31.0204 29.088 31.0113 29.2878C31.0113 29.4059 30.9569 29.4877 31.1383 29.5967C31.365 29.742 31.5191 29.6058 31.7095 29.6058C31.7005 29.524 31.6914 29.4422 31.6823 29.3696C31.5826 29.3332 31.374 29.5149 31.4194 29.3423Z" fill="#277CE2"/>
  <path d="M30.449 32.2853C30.3312 32.3398 30.2042 32.2762 30.0954 32.3489C30.0319 32.3943 30.0138 32.4579 30.0138 32.5306C30.0138 32.6396 30.0954 32.5942 30.1498 32.6032C30.3402 32.6305 30.5397 32.6487 30.304 32.903C30.2586 32.9575 30.2677 33.0211 30.3221 33.0665C30.3584 33.1028 30.4128 33.1301 30.4672 33.1119C30.5307 33.0937 30.576 33.0392 30.5579 32.9666C30.5125 32.7667 30.576 32.4942 30.2042 32.4852C30.3221 32.4488 30.4037 32.4307 30.4672 32.3943C30.5035 32.3761 30.5035 32.2581 30.449 32.2853Z" fill="#277CE2"/>
  <path d="M31.6551 32.0673C31.6551 32.0673 31.6007 32.0673 31.5826 32.0673C31.4738 32.0763 31.4013 32.1399 31.3922 32.2489C31.3831 32.4034 31.5101 32.3398 31.5826 32.3579C31.7368 32.3943 31.9544 32.3852 31.7096 32.6214C31.6551 32.6759 31.6642 32.7485 31.7096 32.8121C31.7458 32.8575 31.7912 32.8848 31.8456 32.8575C31.9181 32.8303 31.9635 32.7758 31.9544 32.694C31.909 32.5124 31.9635 32.258 31.6189 32.2399C31.7458 32.1672 31.909 32.2035 31.8818 32.0763C31.8546 31.931 31.7458 32.1581 31.6733 32.0673H31.6551Z" fill="#277CE2"/>
  <path d="M35.4636 27.1622C35.4364 27.0714 35.3366 27.0623 35.2459 27.0532C35.1643 27.035 35.0736 27.0532 35.0011 26.9896C35.0011 26.9714 34.992 26.9623 34.992 26.9442C34.9376 26.926 34.8742 26.9805 34.8379 26.9169C34.7653 26.7898 34.6747 26.6989 34.5114 26.7625C34.3664 26.817 34.3482 26.9442 34.3573 27.0804C34.3754 27.4256 34.6747 27.2439 34.8107 27.3529C34.9195 27.2712 34.7109 27.1077 34.9104 27.0623C34.9376 27.3348 35.2187 27.3802 35.3366 27.58C35.4364 27.5074 35.3547 27.4347 35.3457 27.3529C35.3366 27.3529 35.3185 27.3348 35.3094 27.3257V27.3075C35.4001 27.2894 35.4998 27.2621 35.4726 27.1531L35.4636 27.1622Z" fill="#277CE2"/>
  <path d="M32.4984 30.1779C32.589 30.1052 32.4984 30.0689 32.4258 30.0507C32.3714 30.0326 32.3895 29.9871 32.4168 29.9417C32.4712 29.8327 32.5165 29.7237 32.5709 29.6056C32.5437 29.5511 32.58 29.4421 32.4893 29.4512C32.4167 29.4512 32.3533 29.5239 32.2807 29.5602C32.3895 29.7146 32.181 29.7964 32.1991 29.9326C32.2082 30.0053 32.2082 30.0871 32.2445 30.1416C32.3079 30.2324 32.4258 30.2506 32.4984 30.187V30.1779Z" fill="#277CE2"/>
  <path d="M32.2717 31.931C32.1629 31.931 32.0903 32.0037 32.0541 32.0945C32.0359 32.1309 32.0178 32.1854 32.0631 32.2126C32.1175 32.2399 32.1447 32.2126 32.1629 32.1672C32.181 32.0945 32.2173 32.031 32.308 32.0491C32.3986 32.0673 32.4168 32.149 32.4349 32.2308C32.4712 32.3852 32.4621 32.5578 32.58 32.694C32.6163 32.467 32.5709 32.258 32.5074 32.0582C32.4802 31.9583 32.3805 31.9219 32.2717 31.931Z" fill="#277CE2"/>
  <path d="M36.6787 31.1682C36.6152 31.0956 36.588 31.1501 36.5517 31.1955C36.5426 31.1955 36.5336 31.2136 36.5336 31.2227C36.3976 31.5043 36.6424 31.6951 36.6787 31.9857C36.7693 31.8132 36.8419 31.7132 36.8963 31.5951C36.9416 31.5134 36.987 31.4135 36.86 31.3499C36.8419 31.3045 36.8328 31.25 36.8781 31.2409C36.9416 31.2227 36.9598 31.2863 36.9688 31.3408C37.0232 31.5134 37.0051 31.7042 37.123 31.904C37.1774 31.7314 37.123 31.6315 37.1139 31.5225C37.0414 31.1046 37.0414 31.1046 36.6696 31.1682H36.6787Z" fill="#277CE2"/>
  <path d="M34.2303 31.1502C34.1759 31.1411 34.1669 31.1865 34.1578 31.2319C34.1215 31.4136 34.0762 31.4318 33.9674 31.2592C33.922 31.1865 33.8223 31.1956 33.7679 31.2592C33.7044 31.3319 33.7226 31.4136 33.786 31.4681C33.8495 31.5317 33.9402 31.5408 34.0309 31.5317C34.1669 31.4772 34.2757 31.4045 34.2848 31.241C34.2848 31.1956 34.2848 31.1502 34.2303 31.1411V31.1502Z" fill="#277CE2"/>
  <path d="M36.3341 30.7593C36.2706 30.7593 36.2706 30.8047 36.2615 30.841C36.2252 30.95 36.2071 31.1317 36.0802 30.8864C36.0439 30.8138 35.9532 30.8047 35.8807 30.8683C35.7991 30.95 35.8172 31.0409 35.8807 31.0954C35.9713 31.1771 36.0892 31.1771 36.198 31.1226C36.3159 31.059 36.3794 30.9682 36.3885 30.8319C36.3885 30.7956 36.3703 30.7593 36.3341 30.7593Z" fill="#277CE2"/>
  <path d="M33.5775 29.1425C33.5775 29.1425 33.5775 29.2243 33.5775 29.2606L33.6682 29.3969L33.7226 29.4423C33.7226 29.4423 33.7589 29.4423 33.7861 29.4514C33.8405 29.4332 33.904 29.406 33.9584 29.3878C34.0309 29.2243 33.9584 29.1244 33.8314 29.0335C33.6863 28.9245 33.6591 29.1062 33.5775 29.1334V29.1425Z" fill="#277CE2"/>
  <path d="M31.0748 32.8125C31.0748 32.8125 31.0113 32.7126 30.9659 32.6763C30.8934 32.6218 30.8118 32.64 30.7665 32.7217C30.7302 32.7853 30.7302 32.858 30.7937 32.9125C30.9115 33.0033 31.0476 33.0033 31.1564 32.9125C31.2561 32.8307 31.3377 32.7308 31.247 32.5854C31.1382 32.6309 31.1926 32.7671 31.0748 32.8125Z" fill="#277CE2"/>
  <path d="M36.733 30.7231C36.5879 30.7504 36.461 30.814 36.4882 30.9593C36.5154 31.1137 36.6423 30.9866 36.724 30.9956C36.7874 30.9956 36.8509 30.9957 36.9053 30.9775C36.9597 30.9684 37.0413 31.0411 37.0685 30.9593C37.0957 30.8866 37.0232 30.8321 36.9688 30.7867C36.8962 30.7231 36.8146 30.7141 36.733 30.7322V30.7231Z" fill="#277CE2"/>
  <path d="M31.1745 32.2038C31.0748 32.1675 31.1201 32.3038 31.0748 32.3492C31.0476 32.3764 31.0294 32.4037 31.0204 32.4218C30.9659 32.4218 30.9659 32.3764 30.9569 32.3492C30.9206 32.2674 30.8571 32.2402 30.7665 32.2674C30.6939 32.2856 30.6758 32.3401 30.6758 32.4128C30.6758 32.5127 30.7483 32.5581 30.8299 32.5672C30.975 32.5854 31.1201 32.5672 31.1926 32.4128C31.2289 32.3492 31.2833 32.2402 31.1926 32.2038H31.1745Z" fill="#277CE2"/>
  <path d="M34.8561 26.2904C34.9014 26.2177 34.9377 26.145 34.9739 26.0633C34.9739 26.0542 34.9467 26.027 34.9286 26.0088C34.7654 26.1541 34.6294 25.9634 34.4752 25.9634C34.5024 26.1178 34.711 26.1269 34.7382 26.2904C34.7382 26.3176 34.8198 26.3358 34.847 26.2904H34.8561Z" fill="#277CE2"/>
  <path d="M35.2097 25.845C35.2097 25.845 35.1644 25.727 35.1462 25.7542C34.974 25.9359 34.847 25.7542 34.6656 25.6997C34.7382 25.9995 34.983 25.8905 35.1281 25.9722C35.1825 25.9995 35.2097 25.9086 35.2097 25.845Z" fill="#277CE2"/>
  <path d="M33.2147 29.9328C33.2147 29.9328 33.2419 29.9146 33.2601 29.9146C33.2238 29.8328 33.3326 29.7693 33.2782 29.6875C33.2238 29.6875 33.2329 29.633 33.2238 29.5967C33.2057 29.5331 33.0878 29.4695 33.2057 29.4059C33.2873 29.3605 33.3145 29.4513 33.3598 29.5058C33.3961 29.5513 33.4051 29.6239 33.4868 29.6239V29.4967C33.4414 29.4241 33.3779 29.3605 33.4505 29.2787C33.4505 29.2061 33.5412 29.1425 33.4868 29.0698C33.3145 29.1334 33.2057 29.306 33.0243 29.3605C33.0062 29.3605 32.9699 29.4059 32.9699 29.4059C33.0515 29.5603 32.8701 29.7602 33.0515 29.8964C33.0152 30.1508 32.716 29.96 32.6072 30.1598C32.8248 30.1053 33.0696 30.2598 33.2329 30.0236C33.2329 29.9963 33.2238 29.96 33.2147 29.9328Z" fill="#277CE2"/>
  <path d="M34.7109 28.0799C34.6384 28.0889 34.593 28.0617 34.593 27.9799C34.6293 27.9799 34.6656 27.9799 34.6928 27.989C34.6928 28.0163 34.7019 28.0435 34.7109 28.0708C34.7291 28.0708 34.7381 28.0708 34.7563 28.0708C34.8288 28.1525 34.9739 27.9527 35.0283 28.1434C35.0646 28.2706 35.0646 28.2706 35.1824 28.1798V28.1616C35.1824 28.1616 35.1824 28.1253 35.1824 28.098C35.119 28.0344 35.0555 27.9618 35.0011 27.8982C34.983 27.8709 34.9648 27.8437 34.9467 27.8164C34.9286 27.8164 34.9104 27.8255 34.8923 27.8346C34.7744 27.989 34.8016 27.8073 34.7563 27.7801C34.6293 27.7528 34.5024 27.7256 34.3754 27.6983C34.3573 27.6529 34.321 27.6529 34.2757 27.6711C34.2122 27.6438 34.1487 27.6166 34.0852 27.5893C34.0762 27.5803 34.058 27.5621 34.049 27.553C33.9855 27.4713 33.8767 27.5167 33.7951 27.4713C33.7951 27.4258 33.7769 27.3804 33.7679 27.3441C33.7679 27.3259 33.7679 27.3078 33.7679 27.2805C33.7679 27.2805 33.786 27.2533 33.7951 27.2351C33.8314 27.2351 33.8586 27.2169 33.8948 27.2169C33.913 27.2169 33.9402 27.2351 33.9583 27.2442C34.1487 27.2442 33.9946 27.0534 34.0943 27.008C34.0943 26.9898 34.0943 26.9717 34.0943 26.9626L34.058 26.8445C34.058 26.8445 34.0127 26.8536 34.0127 26.8172L33.9946 26.7082C33.9946 26.7082 33.9946 26.6356 33.9855 26.6083C33.9764 26.5902 33.9674 26.572 33.9492 26.5538C33.8676 26.5084 33.8676 26.4448 33.9039 26.3721C33.8586 26.2995 33.8223 26.2268 33.7769 26.1541C33.7588 26.0815 33.7407 26.0088 33.7316 25.9361C33.6772 25.9361 33.6228 25.9452 33.5684 25.9543C33.5503 25.9634 33.5412 25.9725 33.523 25.9725C33.3326 26.1451 33.1422 26.3267 32.9427 26.4993C32.852 26.3631 32.9699 26.2541 32.9155 26.1451C32.8974 26.1451 32.8883 26.1451 32.8792 26.1451C32.8883 26.1451 32.9064 26.1451 32.9155 26.1451C32.979 26.0996 32.9971 26.0361 32.9699 25.9634C32.9608 25.9089 32.9608 25.8544 33.0062 25.809C33.0697 25.7636 33.0425 25.7 33.0243 25.6455C33.0153 25.591 32.9971 25.5455 32.988 25.491C32.9518 25.373 33.0878 25.3911 33.1241 25.3185C33.2238 25.273 33.3326 25.2276 33.4324 25.1822C33.6319 25.0914 33.5593 24.9188 33.5412 24.7734C33.523 24.619 33.4052 24.5918 33.2691 24.619C33.2329 24.5918 33.1875 24.5554 33.1875 24.5009C33.2057 24.2194 32.7976 24.2375 32.8067 23.9559C32.7523 23.9559 32.7069 23.965 32.6525 23.9741C32.5891 23.8833 32.6979 23.6925 32.4984 23.6743C32.4531 23.6471 32.4168 23.6198 32.3714 23.5926C32.3352 23.529 32.3896 23.42 32.2717 23.4018C32.2536 23.3837 32.2354 23.3746 32.2173 23.3564C32.1992 23.3019 32.1901 23.2565 32.1719 23.202C32.1719 23.1657 32.1719 23.1475 32.1266 23.1657C31.9634 22.8659 31.8002 22.5752 31.637 22.2755C31.6279 22.2755 31.6188 22.2755 31.6007 22.2846C31.6097 22.2846 31.6188 22.2846 31.637 22.2755C31.6097 22.1392 31.5916 22.003 31.5553 21.8667C31.5463 21.8122 31.5009 21.7759 31.4465 21.7759C31.374 21.7759 31.374 21.8485 31.374 21.894C31.374 21.9939 31.4012 22.1029 31.4193 22.2028L31.3377 22.9658C31.3377 23.0385 31.3286 23.1202 31.3196 23.1929C31.0929 23.2202 31.2289 23.3746 31.2108 23.4836C31.1926 23.5381 31.102 23.5381 31.1201 23.6017C31.1564 23.7379 31.1926 23.856 31.0113 23.9196C30.9659 23.9378 30.975 24.0013 30.9931 24.0377C31.0747 24.1921 30.9478 24.2375 30.8571 24.292C30.7483 24.3919 30.9206 24.5282 30.8209 24.6281C30.6667 24.6826 30.5398 24.7462 30.6304 24.946C30.6667 25.0278 30.6123 25.0823 30.5398 25.1095C30.3856 25.1822 30.4581 25.2912 30.4944 25.4002C30.5307 25.5183 30.5579 25.6364 30.7302 25.6273C30.9115 25.6182 31.0929 25.6273 31.2742 25.6273C31.3286 25.7454 31.2017 25.8816 31.2924 25.9997C31.2924 26.0451 31.3105 26.0815 31.3468 26.0996C31.3468 26.1178 31.3649 26.136 31.374 26.1541C31.4012 26.1996 31.4284 26.245 31.4556 26.2904C31.4828 26.3358 31.51 26.3903 31.5372 26.4357C31.5191 26.5084 31.6551 26.6083 31.5009 26.6537C31.1564 26.5357 30.8209 26.4085 30.4763 26.2904C30.4219 26.2722 30.3584 26.2631 30.3221 26.2086C30.1226 25.9361 29.5695 25.7454 29.2521 25.8271C29.1977 25.8362 29.1252 25.8635 29.098 25.8453C28.9438 25.6636 28.699 25.6455 28.4995 25.5728C28.0915 25.4184 27.7015 25.155 27.2209 25.2912L27.2391 25.4002C27.6653 25.6909 28.1549 25.8544 28.6718 26.0542C28.5176 26.0724 28.436 26.1723 28.3091 26.1723C28.0915 26.1814 27.9917 26.3267 27.9736 26.5357C27.9282 26.9535 28.3363 27.3804 28.7534 27.3259C28.835 27.3168 28.8985 27.2805 28.9166 27.1806C28.9348 27.0988 28.971 27.0171 29.0073 26.9353C29.107 26.681 29.098 26.4539 28.8531 26.2813C28.9257 26.2086 28.971 26.3086 29.0345 26.2995C29.0798 26.354 29.1161 26.4357 29.2068 26.3631C29.1524 26.4539 29.2703 26.5084 29.2431 26.5902C29.2431 26.6174 29.2612 26.6447 29.2975 26.6174C29.4153 26.5357 29.4607 26.4357 29.4244 26.2904C29.4607 26.2631 29.4607 26.2268 29.4516 26.1905C29.5242 26.1451 29.4698 26.027 29.5604 25.9906C29.5876 26.027 29.6148 26.0633 29.642 26.0996C29.6874 26.1814 29.7418 26.2541 29.7871 26.3358C29.8325 26.3631 29.8687 26.3903 29.9141 26.4176C29.9141 26.5084 29.9322 26.5992 29.9413 26.681C29.9413 26.6992 29.9322 26.7173 29.9231 26.7355C29.9231 26.7537 29.9231 26.7718 29.9231 26.7991C29.8506 26.8172 29.769 26.8627 29.8234 26.9353C29.8687 27.008 29.9231 26.9172 29.9685 26.8899C29.9957 26.8717 30.0229 26.8445 30.0501 26.8263C30.0682 26.9262 30.0682 27.0443 30.1136 27.1352C30.177 27.2533 30.2042 27.3623 30.1136 27.4713C30.0864 27.5439 30.0592 27.6257 30.032 27.6983C30.0229 27.7165 30.0138 27.7347 30.0048 27.7528C29.9503 27.7528 29.905 27.7347 29.8506 27.7256C29.8325 27.6893 29.8143 27.6438 29.7599 27.662C29.7599 27.662 29.7509 27.6983 29.7509 27.7074C29.7781 27.7256 29.8053 27.7347 29.8415 27.7438C29.8415 27.771 29.8597 27.7983 29.8597 27.8255C29.8053 27.9073 29.7509 27.9799 29.6692 28.0344C29.4607 28.1798 29.4788 28.3614 29.6058 28.5431C29.633 28.6067 29.5151 28.7339 29.6874 28.7339C29.7055 28.7884 29.7055 28.852 29.769 28.8792C29.769 28.8792 29.769 28.9065 29.769 28.9155C29.6239 29.1063 29.4153 29.1154 29.2068 29.1426C29.0617 29.1608 28.8894 29.1426 28.7987 29.288C28.699 29.4333 28.5992 29.5514 28.4088 29.5696C28.3635 29.5696 28.3181 29.5877 28.3272 29.6513C28.3272 29.6967 28.3544 29.7331 28.4088 29.7421C28.5358 29.7694 28.6627 29.7966 28.7897 29.7785C28.7353 29.8693 28.7806 30.0328 28.6355 30.0601C28.4179 30.0964 28.3091 30.1963 28.2909 30.4961C28.3635 30.2962 28.4995 30.4416 28.572 30.3598C28.7625 30.1509 28.9892 29.9874 29.2159 29.8239C29.3065 29.7603 29.4153 29.6786 29.3972 29.5332C29.4607 29.5605 29.497 29.5151 29.5332 29.4696C29.6874 29.4515 29.6239 29.3788 29.5695 29.3152C29.5695 29.297 29.5876 29.297 29.5967 29.288C29.6692 29.3061 29.7327 29.3152 29.6964 29.2062C29.7146 29.188 29.7327 29.1699 29.7418 29.1608C29.7418 29.1426 29.7599 29.1245 29.769 29.1154C29.7599 29.1245 29.7509 29.1335 29.7418 29.1608C29.8385 29.2456 29.9171 29.2335 29.9775 29.1245C29.9775 29.1245 30.041 29.1063 30.0682 29.0972C30.1952 29.07 30.2768 28.97 30.3675 28.8792C30.4037 28.8429 30.3856 28.8338 30.3493 28.8247C30.3131 28.8247 30.2768 28.8429 30.2405 28.852C30.2042 28.7248 30.177 28.5885 29.9957 28.6249C29.8325 28.6521 29.8325 28.7793 29.8597 28.9065C29.8597 28.9337 29.8597 28.961 29.8597 28.9791C29.8415 28.961 29.8325 28.9519 29.8143 28.9337C29.7962 28.9155 29.7781 28.8974 29.7509 28.8792C29.7418 28.8247 29.7418 28.7611 29.6692 28.7339C29.6602 28.6612 29.642 28.5976 29.633 28.534C29.7146 28.534 29.7418 28.425 29.8325 28.4432C29.8506 28.4704 29.8687 28.4704 29.8869 28.4432C29.905 28.4432 29.9231 28.425 29.9413 28.4159C30.0592 28.3705 30.1317 28.2888 30.1589 28.1707C30.3675 28.0435 30.4763 27.88 30.3765 27.6257C30.3493 27.5621 30.3221 27.4985 30.2949 27.4349C30.2677 27.2442 30.1498 27.0807 30.1408 26.8808C30.2768 26.8082 30.4309 26.899 30.567 26.8354L30.6123 26.9898C30.576 27.3532 30.5579 27.7165 30.7846 28.0344C30.7846 28.0889 30.7846 28.1525 30.8481 28.1889C30.8571 28.207 30.8662 28.2161 30.8843 28.2343C30.6214 28.2161 30.8118 28.4614 30.7302 28.5522C30.7755 28.5159 30.8209 28.4886 30.8662 28.4523C31.0022 28.4159 31.1201 28.4704 31.238 28.5431C31.5463 28.7066 31.8183 29.0064 32.2264 28.8701C32.2898 28.852 32.3805 28.8883 32.453 28.8974C32.5981 28.9246 32.716 28.8974 32.8158 28.7884C32.8339 28.7702 32.852 28.752 32.8702 28.7339C32.8702 28.7339 32.8339 28.7702 32.8158 28.7884C32.979 28.7975 33.1422 28.8247 33.2238 28.6249C33.4505 28.6249 33.5775 28.4977 33.6409 28.2888C33.6863 28.2434 33.7316 28.207 33.7679 28.1616C33.8586 28.0163 33.9492 28.1434 34.0308 28.1616C34.1397 28.1889 34.1669 28.2524 34.0852 28.3433C34.0852 28.3614 34.0852 28.3887 34.0852 28.4069C34.1306 28.4159 34.1669 28.425 34.2122 28.4341C34.2485 28.4341 34.2847 28.4523 34.321 28.4614C34.4026 28.3705 34.4389 28.5885 34.4933 28.4977C34.5386 28.425 34.4389 28.3705 34.4026 28.3069C34.4026 28.3069 34.3936 28.2888 34.3845 28.2888C34.3573 28.2888 34.3301 28.3069 34.2938 28.316C34.2757 28.3069 34.2485 28.2888 34.2303 28.2797C34.2757 28.2252 34.3301 28.1798 34.4117 28.1707C34.4117 28.1707 34.457 28.207 34.4842 28.2252C34.5749 28.1979 34.6384 28.2797 34.7109 28.3069C34.8107 28.2161 34.6747 28.1616 34.6747 28.0799H34.7109ZM29.8234 29.0881C29.8234 29.0881 29.8506 29.0881 29.8687 29.079C29.8506 29.079 29.8415 29.079 29.8234 29.0881ZM33.1513 26.5992C33.115 26.463 33.3054 26.4902 33.4052 26.4993C33.4505 26.4993 33.5049 26.5629 33.514 26.6083C33.5593 26.8536 33.6953 27.0988 33.6047 27.3623C33.4686 27.4077 33.387 27.2623 33.2601 27.2714C33.1241 27.2169 32.9699 27.1806 32.852 27.0807C32.8158 27.0534 32.7886 27.0352 32.7886 26.9898C32.7886 26.9081 32.852 26.9172 32.8974 26.9081C33.0697 26.8808 33.2329 26.8899 33.1513 26.6083V26.5992ZM32.8248 27.5258C32.8248 27.5258 32.8067 27.4531 32.8248 27.4077C32.8248 27.4077 32.8067 27.4894 32.8248 27.5258ZM32.852 27.5712C32.852 27.5712 32.843 27.553 32.8339 27.5439C32.8339 27.553 32.843 27.5621 32.852 27.5712ZM31.7639 26.9717C31.7639 27.0171 31.7639 27.0625 31.7639 27.1079C31.7639 27.0625 31.7548 27.0171 31.7639 26.9717ZM32.6435 26.4721C32.6435 26.4721 32.6616 26.4721 32.6707 26.4721C32.6707 26.4721 32.6525 26.4721 32.6435 26.4721ZM31.8818 24.0286C31.8818 24.0286 31.8818 23.9741 31.8818 23.9378C31.8818 23.965 31.8818 23.9923 31.8818 24.0286ZM31.9997 25.9089C31.9997 25.9089 31.9997 25.9089 31.9906 25.9089C31.9906 25.9089 31.9906 25.9089 31.9997 25.9089ZM32.3714 26.4448C32.3714 26.4448 32.3714 26.463 32.3805 26.4721C32.3805 26.463 32.3805 26.4539 32.3714 26.4448ZM32.3533 26.3994C32.3533 26.3994 32.3533 26.3994 32.3533 26.4085C32.3533 26.4085 32.3533 26.4085 32.3533 26.3994C32.3714 26.3994 32.3805 26.3994 32.3986 26.3903C32.3805 26.3903 32.3714 26.3903 32.3533 26.3994ZM32.6344 27.3078H32.6163C32.6163 27.3078 32.6253 27.3078 32.6344 27.3078ZM32.7069 27.335C32.7069 27.335 32.6979 27.3259 32.6888 27.3168C32.6888 27.3168 32.7069 27.3168 32.7069 27.335ZM32.7342 26.4085C32.7342 26.4085 32.7342 26.4266 32.7251 26.4357C32.7251 26.4357 32.7251 26.4176 32.7342 26.4085ZM31.9997 23.5472C31.9997 23.5472 32.0178 23.5472 32.0359 23.5381C32.0269 23.5381 32.0087 23.5381 31.9997 23.5472ZM31.8364 27.3078C31.8364 27.3078 31.8364 27.335 31.8274 27.3532C31.8274 27.3441 31.8364 27.3259 31.8364 27.3078ZM31.8908 26.7082C31.8908 26.7082 31.909 26.7173 31.909 26.7264V26.7446C31.909 26.7446 31.909 26.7355 31.909 26.7264C31.909 26.7264 31.8908 26.7173 31.8908 26.7082ZM32.7342 27.4077C32.7342 27.4077 32.7704 27.4077 32.7976 27.4077C32.7795 27.4077 32.7614 27.4077 32.7342 27.4077ZM33.0515 27.444C33.0515 27.444 32.9971 27.444 32.9699 27.4349C32.9971 27.4349 33.0243 27.4349 33.0515 27.444ZM32.9336 27.4258C32.9336 27.4258 32.9064 27.4258 32.8883 27.4258C32.9064 27.4258 32.9155 27.4258 32.9336 27.4258ZM32.8067 26.2086C32.8067 26.2086 32.7795 26.2541 32.7704 26.2904C32.7704 26.3176 32.7523 26.3449 32.7432 26.3631C32.7432 26.3721 32.7432 26.3812 32.7342 26.3903C32.7342 26.3812 32.7342 26.3721 32.7432 26.3631C32.7432 26.3358 32.7614 26.3086 32.7704 26.2904C32.7795 26.2631 32.7886 26.2359 32.8067 26.2086C32.8158 26.1905 32.8248 26.1632 32.843 26.1541C32.8248 26.1723 32.8158 26.1905 32.8067 26.2086ZM31.6097 28.3978C31.6097 28.3978 31.6279 28.3978 31.6279 28.4069C31.6279 28.4069 31.6097 28.4069 31.6097 28.3978ZM32.852 28.5794C32.852 28.5794 32.852 28.5885 32.852 28.5976C32.852 28.5976 32.852 28.5885 32.852 28.5794ZM33.2601 28.0799C33.0878 28.098 33.1059 28.3251 32.9608 28.3433C32.6344 28.3796 32.317 28.6158 31.9725 28.4069C31.8999 28.3614 31.7911 28.3705 31.7004 28.3614C31.6914 28.2252 31.4375 28.2797 31.4828 28.098C31.4556 28.0889 31.4375 28.0708 31.4284 28.0526C31.4284 28.0708 31.4465 28.0889 31.4828 28.098C31.4556 27.88 31.7004 27.8618 31.7639 27.7165C31.646 27.662 31.7186 27.6348 31.782 27.6075C31.782 27.5893 31.782 27.5621 31.782 27.5439C31.6732 27.5439 31.5553 27.5258 31.6097 27.6983C31.6279 27.7801 31.5916 27.7892 31.5281 27.771C31.3014 27.7165 31.4375 27.8709 31.4284 27.9436C31.1745 27.8437 30.975 27.335 31.0929 27.1079C31.1292 27.0352 31.1926 27.0352 31.247 27.0625C31.3286 27.0897 31.4012 27.1442 31.3468 27.2533C31.3649 27.2533 31.3921 27.2533 31.4103 27.2533C31.5916 27.1442 31.7276 27.1806 31.8092 27.3713V27.4803C31.9271 27.5439 31.8455 27.5621 31.7911 27.5893C31.7911 27.6257 31.7911 27.662 31.7911 27.6983C31.9634 27.6893 31.9906 27.5712 31.9725 27.4349C32.0359 27.4077 32.0813 27.4713 32.1357 27.4803C32.1719 27.4531 32.2082 27.444 32.2536 27.4349C32.2082 27.4349 32.1719 27.4531 32.1357 27.4803C32.2173 27.6348 32.2989 27.7801 32.4984 27.6075C32.6616 27.5167 32.7704 27.7165 32.9155 27.6893C33.0515 27.7347 33.1875 27.7892 33.3236 27.8346C33.4233 27.9436 33.4958 28.0435 33.2691 28.0617L33.2601 28.0799ZM34.3845 28.0889C34.3845 28.0889 34.4026 28.1162 34.4117 28.1253C34.4026 28.1162 34.3936 28.098 34.3845 28.0889Z" fill="#277CE2"/>
  <path d="M34.2213 28.9698C34.1397 28.8335 34.0852 28.6155 33.8495 28.779C33.8676 28.8245 33.9039 28.8335 33.9492 28.8335C33.9764 28.8517 34.0036 28.8608 34.0308 28.879C34.0036 28.8971 33.9764 28.9062 33.9492 28.9244C34.0036 29.0334 34.0127 29.0334 34.2213 28.9789V28.9698Z" fill="#277CE2"/>
  <path d="M35.9442 25.6452C35.9442 25.6452 35.9442 25.6634 35.9442 25.6725C35.9351 25.7724 35.79 25.7361 35.7628 25.836C35.8172 25.8905 35.8807 25.8632 35.9442 25.8541C35.9986 25.8996 35.9714 26.0176 36.0802 26.0267C36.2071 25.8269 36.1165 25.7088 35.9442 25.6089C35.9442 25.618 35.9442 25.6361 35.9351 25.6452H35.9442Z" fill="#277CE2"/>
  <path d="M30.5488 29.2243C30.5488 29.2243 30.6213 29.2243 30.6485 29.2243C30.7846 29.2607 30.9387 29.2516 30.9387 29.079C30.9387 28.9337 30.7846 28.9155 30.6576 28.9246C30.44 28.7702 30.5125 29.0245 30.4581 29.079C30.313 29.2153 30.4218 29.2334 30.5488 29.2153V29.2243ZM30.7029 29.0699C30.7029 29.0699 30.712 29.0699 30.7211 29.0699C30.7211 29.0699 30.7211 29.079 30.7301 29.0881C30.7301 29.0881 30.712 29.0881 30.7029 29.0972V29.079V29.0699Z" fill="#277CE2"/>
  <path d="M31.9453 29.4966C31.9453 29.4966 31.9453 29.4694 31.9453 29.4603C31.9362 29.4239 31.9362 29.3513 31.9181 29.3513C31.8727 29.3422 31.8909 29.3876 31.8909 29.4149C31.8274 29.4694 31.8364 29.5875 31.7276 29.6147C31.7095 29.76 31.782 29.7691 31.8909 29.7237C31.909 29.7782 31.8909 29.86 31.9815 29.869C32.0541 29.869 32.0903 29.8236 32.1085 29.76C32.1357 29.6965 32.1357 29.642 32.0813 29.5875C32.045 29.5511 31.9543 29.5875 31.9543 29.4966H31.9453Z" fill="#277CE2"/>
  <path d="M33.8404 25.9817L34.0036 25.9998C34.058 26.3087 34.194 26.018 34.2847 26.0362C34.3482 26.0089 34.4207 25.9817 34.4842 25.9544C34.4661 25.8727 34.4479 25.7909 34.4389 25.7001C34.4389 25.6819 34.4389 25.6637 34.4389 25.6456C34.5023 25.6092 34.5749 25.5911 34.593 25.5002C34.6293 25.4639 34.6112 25.4185 34.593 25.3822C34.5477 25.0461 34.72 25.1369 34.8923 25.2277C34.7472 25.4003 34.8016 25.5002 35.1462 25.6547C35.0736 25.5457 35.0373 25.4639 35.0827 25.364C35.2278 25.2913 35.3819 25.2186 35.527 25.146C35.79 25.1187 35.5451 25.3095 35.6177 25.364C35.6177 25.4003 35.6086 25.4367 35.5905 25.4639C35.5179 25.5729 35.5542 25.6547 35.663 25.6274C35.7628 25.6002 35.6902 25.4639 35.7174 25.3822C35.7174 25.364 35.7174 25.3458 35.7174 25.3277C35.7356 25.2822 35.8444 25.364 35.8262 25.2277C35.8081 25.0733 35.7174 25.0551 35.6086 25.037C35.5179 25.0006 35.3366 25.1641 35.3366 24.9189C35.3819 24.9098 35.4363 24.9189 35.4726 24.8553C35.4907 24.8462 35.5089 24.8371 35.527 24.8281C35.5814 24.819 35.6358 24.8099 35.6902 24.7917C35.7174 24.9371 35.9079 24.7736 35.9623 24.9552C35.9985 25.0824 36.0983 25.2005 36.0529 25.4185C36.2162 25.1006 36.1345 24.8553 35.8806 24.7372C35.8081 24.7009 35.6902 24.71 35.7628 24.5737C35.9532 24.4465 36.0892 24.2649 36.2343 24.0832C36.2706 24.0378 36.3068 23.9651 36.2615 23.9106C36.2162 23.8561 36.1527 23.9106 36.0892 23.9197C35.8716 24.0015 35.7084 24.1468 35.5361 24.2921C35.4635 24.3103 35.3729 24.2649 35.3366 24.3648C35.0736 24.6101 34.9376 25.0279 34.457 24.9643C34.4298 24.9643 34.3935 25.0188 34.3663 25.0461C34.2757 25.1187 34.185 25.1914 34.1034 25.2641C34.0852 25.2731 34.0762 25.2913 34.058 25.3004C34.058 25.3004 33.9855 25.3186 33.9855 25.3731C33.9492 25.4457 33.9946 25.5184 34.0127 25.5911C33.9764 25.6274 33.9492 25.6637 33.9129 25.7092C33.9401 25.7909 33.8857 25.8363 33.8313 25.8727C33.7769 25.9181 33.8041 25.9362 33.8495 25.9453L33.8404 25.9817ZM34.3845 25.7001C34.3845 25.7001 34.3029 25.7637 34.2847 25.8091C34.3029 25.7727 34.3391 25.7364 34.3845 25.7001Z" fill="#277CE2"/>
  <path d="M30.7665 28.5522C30.7665 28.5522 30.7483 28.5704 30.7393 28.5704C30.7483 28.5704 30.7574 28.5613 30.7665 28.5522Z" fill="#277CE2"/>
  <path d="M30.3856 28.5978C30.3856 28.5978 30.3403 28.6159 30.3221 28.6341C30.3403 28.6432 30.3584 28.6613 30.3765 28.6704C30.4672 28.734 30.5579 28.8067 30.6758 28.7794C30.6758 28.7703 30.6939 28.7522 30.6939 28.7431C30.6395 28.5887 30.5307 28.5523 30.3765 28.6068L30.3856 28.5978Z" fill="#277CE2"/>
  <path d="M32.7341 29.733C32.7341 29.733 32.7976 29.6875 32.7795 29.6603C32.7341 29.5876 32.6707 29.5876 32.5981 29.6058C32.5981 29.6058 32.58 29.6058 32.5709 29.6058C32.5891 29.6966 32.6435 29.742 32.7341 29.733Z" fill="#277CE2"/>
  <path d="M30.9569 28.8426C30.8843 28.7245 30.7846 28.7518 30.6939 28.7427C30.6939 28.7518 30.6758 28.7699 30.6758 28.779C30.7574 28.8517 30.839 28.888 30.9569 28.8426Z" fill="#277CE2"/>
  <path d="M31.5281 29.7964C31.5281 29.7964 31.4556 29.7964 31.4647 29.8509C31.4647 29.8781 31.5009 29.9054 31.4919 29.9054C31.5735 29.8963 31.6097 29.8781 31.6007 29.8418C31.6007 29.7964 31.5553 29.7964 31.5191 29.8055L31.5281 29.7964Z" fill="#277CE2"/>
  <path d="M32.7705 29.8148C32.7705 29.8148 32.6888 29.8511 32.6888 29.9056C32.6888 29.9238 32.7251 29.9419 32.7433 29.9419C32.7977 29.9419 32.8158 29.9056 32.8158 29.8602C32.8158 29.8329 32.7977 29.8057 32.7705 29.8148Z" fill="#277CE2"/>
  <path d="M32.1084 30.0689C32.0359 30.0144 31.9815 30.0144 31.8727 30.0507C31.9815 30.1052 32.0359 30.1143 32.1084 30.0689Z" fill="#277CE2"/>
  <path d="M32.1629 29.4514C32.1629 29.4514 32.2082 29.415 32.1901 29.3969C32.181 29.3787 32.1448 29.3696 32.1266 29.3696C32.1085 29.3696 32.0813 29.3969 32.0813 29.415C32.0904 29.4514 32.1266 29.4605 32.1629 29.4605V29.4514Z" fill="#277CE2"/>
  <path d="M30.6758 29.4058C30.6758 29.4058 30.7121 29.4421 30.7393 29.4421C30.7665 29.4421 30.7846 29.4239 30.7755 29.3785C30.7574 29.3785 30.7393 29.3604 30.7121 29.3604C30.6849 29.3604 30.6577 29.3785 30.6758 29.4058Z" fill="#277CE2"/>
  <path d="M31.5372 29.0247L31.501 29.0429C31.51 29.0701 31.5282 29.0974 31.5372 29.1246C31.5554 29.1155 31.5735 29.1065 31.5917 29.0974C31.5917 29.0429 31.5645 29.0247 31.5372 29.0156V29.0247Z" fill="#277CE2"/>
  <path d="M34.7562 28.343C34.8016 28.4066 34.856 28.4429 34.9285 28.4248C34.9104 28.3158 34.8288 28.3339 34.7562 28.343Z" fill="#277CE2"/>
  <path d="M32.7796 29.4425C32.7796 29.4425 32.7342 29.4243 32.7161 29.4243C32.6798 29.4425 32.6617 29.4607 32.6889 29.4788C32.707 29.497 32.7342 29.5061 32.7524 29.497C32.7614 29.497 32.7705 29.4607 32.7796 29.4425Z" fill="#277CE2"/>
  <path d="M29.7237 26.6539C29.7237 26.6539 29.6692 26.6539 29.6511 26.6902C29.5876 26.7175 29.5242 26.7538 29.497 26.8174C29.4153 26.8537 29.4063 26.6993 29.3428 26.7447C29.2521 26.8174 29.234 26.9173 29.2975 27.0263C29.37 26.9718 29.4607 26.9537 29.506 26.8628C29.5423 27.0173 29.5695 27.1717 29.6058 27.317C29.6148 27.3624 29.642 27.3715 29.6602 27.317C29.6602 27.2988 29.6602 27.2807 29.6602 27.2625C29.7781 27.2625 29.8869 27.208 29.8597 27.0808C29.8415 26.9718 29.7327 27.0536 29.6602 27.0445C29.6602 26.9355 29.5967 26.8265 29.6602 26.7175C29.6964 26.6993 29.7509 26.6812 29.7055 26.6357L29.7237 26.6539Z" fill="#277CE2"/>
  <path d="M30.168 28.4613C30.168 28.4613 30.1861 28.4977 30.2042 28.5158C30.2224 28.4977 30.2314 28.4886 30.2496 28.4795C30.2314 28.4613 30.2224 28.4432 30.2042 28.4341C30.2042 28.4341 30.168 28.4522 30.168 28.4613Z" fill="#277CE2"/>
  <path d="M31.1563 28.9337C31.1563 28.9337 31.1745 28.9155 31.1835 28.9065C31.1654 28.8883 31.1563 28.8701 31.1473 28.8701C31.1291 28.8701 31.1201 28.8883 31.111 28.8974C31.1019 28.9337 31.1201 28.9428 31.1473 28.9337H31.1563Z" fill="#277CE2"/>
  <path d="M31.365 28.9792C31.365 28.9792 31.3468 28.952 31.3378 28.9429C31.3287 28.952 31.3106 28.961 31.3015 28.9701C31.2834 28.9974 31.3015 29.0155 31.3287 29.0155C31.3378 29.0155 31.3468 28.9974 31.365 28.9883V28.9792Z" fill="#277CE2"/>
  <path d="M29.6964 27.553C29.6964 27.553 29.7146 27.5712 29.7146 27.5803C29.7146 27.5803 29.7236 27.5712 29.7327 27.5621C29.7327 27.5621 29.7236 27.5439 29.7146 27.5439C29.7146 27.5439 29.6964 27.5439 29.6874 27.5439L29.6964 27.553Z" fill="#277CE2"/>
  <path d="M30.1499 29.1699C30.1499 29.1699 30.1317 29.179 30.1227 29.1881C30.1227 29.1881 30.1317 29.1972 30.1408 29.2063C30.1408 29.2063 30.159 29.2063 30.159 29.1972C30.159 29.1972 30.159 29.1881 30.159 29.179L30.1499 29.1699Z" fill="#277CE2"/>
  <path d="M35.9532 25.4272C35.9532 25.4272 35.9441 25.4454 35.9351 25.4545C35.9351 25.4545 35.9441 25.4545 35.9532 25.4545C35.9532 25.4545 35.9623 25.4454 35.9713 25.4363C35.9713 25.4363 35.9623 25.4363 35.9532 25.4272Z" fill="#277CE2"/>
  <path d="M29.7246 27.4531H29.7146V27.4631L29.7246 27.4531Z" fill="#277CE2"/>
  <path d="M30.5942 28.4884H30.6124L30.6033 28.4702L30.5942 28.4884Z" fill="#277CE2"/>
  <path d="M33.9945 27.3985C33.9945 27.3985 34.0399 27.3076 33.9673 27.3076C33.922 27.3076 33.9311 27.3712 33.9401 27.4075C33.9583 27.4075 33.9764 27.4075 33.9945 27.3985C33.9945 27.4166 33.9945 27.4348 33.9945 27.453C34.049 27.453 34.058 27.4257 34.0036 27.3985H33.9945Z" fill="#277CE2"/>
  <path d="M67.5057 21.3909L27.4825 17.0142L22.3252 64.3398L62.3484 68.7165L67.5057 21.3909Z" fill="white"/>
  <path d="M40.3239 37.1724L50.6158 38.2987" stroke="#277CE2" stroke-width="0.25" stroke-miterlimit="10"/>
  <path d="M29.6874 21.0039L64.4895 24.8099" stroke="#277CE2" stroke-width="0.25" stroke-miterlimit="10"/>
  <path d="M27.5111 40.9604L62.3132 44.7665" stroke="#277CE2" stroke-width="0.25" stroke-miterlimit="10"/>
  <path d="M27.3661 42.2681L62.1682 46.0741" stroke="#277CE2" stroke-width="0.25" stroke-miterlimit="10"/>
  <path d="M27.2209 43.5762L62.023 47.3913" stroke="#277CE2" stroke-width="0.25" stroke-miterlimit="10"/>
  <path d="M27.085 44.8936L61.8871 48.6996" stroke="#277CE2" stroke-width="0.25" stroke-miterlimit="10"/>
  <path d="M26.9398 46.2017L61.7419 50.0077" stroke="#277CE2" stroke-width="0.25" stroke-miterlimit="10"/>
  <path d="M26.7948 47.5093L61.5969 51.3153" stroke="#277CE2" stroke-width="0.25" stroke-miterlimit="10"/>
  <path d="M26.6497 48.8174L61.4518 52.6325" stroke="#277CE2" stroke-width="0.25" stroke-miterlimit="10"/>
  <path d="M26.5137 50.1348L61.3158 53.9408" stroke="#277CE2" stroke-width="0.25" stroke-miterlimit="10"/>
  <path d="M26.3687 51.4429L61.1708 55.2489" stroke="#277CE2" stroke-width="0.25" stroke-miterlimit="10"/>
  <path d="M26.2235 52.7505L61.0256 56.5656" stroke="#277CE2" stroke-width="0.25" stroke-miterlimit="10"/>
  <path d="M26.0784 54.0679L60.8805 57.8739" stroke="#277CE2" stroke-width="0.25" stroke-miterlimit="10"/>
  <path d="M25.9424 55.376L60.7354 59.182" stroke="#277CE2" stroke-width="0.25" stroke-miterlimit="10"/>
  <path d="M25.7974 56.6841L60.5995 60.4901" stroke="#277CE2" stroke-width="0.25" stroke-miterlimit="10"/>
  <path d="M25.6522 57.9917L60.4543 61.8068" stroke="#277CE2" stroke-width="0.25" stroke-miterlimit="10"/>
  <path d="M25.5072 59.3091L60.3093 63.1151" stroke="#277CE2" stroke-width="0.25" stroke-miterlimit="10"/>
  <path d="M25.3711 60.6172L60.1641 64.4232" stroke="#277CE2" stroke-width="0.25" stroke-miterlimit="10"/>
  <path d="M40.1788 38.4985L50.4708 39.6249" stroke="#277CE2" stroke-width="0.25" stroke-miterlimit="10"/>
  <path d="M48.7478 35.9006C48.9201 35.6735 48.8567 35.4101 48.8567 35.1649C48.7569 35.3284 48.766 35.5191 48.7388 35.6917C48.7297 35.7553 48.7116 35.8189 48.63 35.8098C48.5574 35.8098 48.5393 35.7371 48.5393 35.6735C48.5483 35.5554 48.5665 35.4464 48.5756 35.3284C48.5846 35.2103 48.5211 35.1285 48.4123 35.0831C48.3035 35.0377 48.2038 35.0649 48.1131 35.1285C48.0043 35.2103 48.0224 35.3011 48.0768 35.4101C48.0224 35.5009 48.0315 35.6009 48.0224 35.6917C48.0134 35.7825 48.0406 35.8461 48.1222 35.8825C48.1856 35.9097 48.2491 35.8825 48.2763 35.828C48.3126 35.7553 48.3217 35.6644 48.24 35.619C48.1403 35.5736 48.1494 35.51 48.1766 35.4283C48.2038 35.401 48.24 35.3829 48.2491 35.3556C48.2582 35.292 48.1131 35.1921 48.2854 35.183C48.4214 35.1739 48.4667 35.2648 48.4486 35.3919C48.4486 35.4646 48.4123 35.5464 48.4305 35.6009C48.5121 35.8189 48.2491 36.046 48.4486 36.264H48.5574C48.8294 36.1731 48.8294 36.1731 48.6934 35.9642C48.6572 35.9006 48.7206 35.937 48.7388 35.9188L48.7478 35.9006Z" fill="#277CE2"/>
  <path d="M47.6597 35.7919C47.8683 35.7192 47.7957 35.5285 47.8139 35.3831C47.8229 35.2741 47.9227 35.0834 47.7957 35.0652C47.6597 35.047 47.7413 35.265 47.696 35.365C47.6506 35.474 47.7504 35.7011 47.569 35.6829C47.3605 35.6647 47.5146 35.4558 47.4965 35.3377C47.4784 35.2287 47.5781 35.0834 47.4421 35.0289C47.3242 34.9835 47.1791 34.9199 47.0522 35.047C46.8889 35.2015 47.0522 35.4013 46.9796 35.5739C46.9434 35.6556 46.9978 35.7283 47.0884 35.7556C47.1519 35.7737 47.2154 35.7556 47.2426 35.6829C47.2789 35.6011 47.2698 35.5194 47.1882 35.474C47.1156 35.4376 47.0703 35.3831 47.1247 35.3377C47.297 35.2196 47.1066 35.156 47.0975 35.0743C47.3605 35.0016 47.433 35.0743 47.4239 35.3195C47.4239 35.4649 47.3514 35.6102 47.4421 35.7465C47.2426 35.8827 47.3423 36.0008 47.4602 36.1189L47.6144 36.1371C47.705 36.0281 47.9317 35.9281 47.6597 35.7737V35.7919Z" fill="#277CE2"/>
  <path d="M49.573 32.3579C49.573 32.3579 49.573 32.3579 49.573 32.3679C49.573 32.3679 49.573 32.3679 49.583 32.3679L49.573 32.3579Z" fill="#277CE2"/>
  <path d="M50.6883 32.3671C50.6702 32.2945 50.6067 32.3126 50.5614 32.3217C50.3709 32.358 50.1624 32.24 50.117 32.1309C50.0264 31.9311 49.8994 31.9493 49.7634 31.9674C49.6364 31.9856 49.5186 31.9674 49.4007 31.9674C49.3553 31.8312 49.0289 31.8403 49.2103 31.5859C49.1921 31.6132 49.1649 31.6132 49.1468 31.595C49.1286 31.7313 49.038 31.8312 48.9382 31.9129C48.9564 31.9674 48.8566 32.0129 48.911 32.0583C48.9473 32.0855 49.0017 32.0946 49.038 32.031C49.0833 31.9311 49.1468 31.9947 49.1649 32.0492C49.2103 32.1491 49.1831 32.24 49.0924 32.2945C49.047 32.3217 48.9836 32.4035 48.9564 32.2945C48.8929 32.0401 48.7206 32.0946 48.5483 32.14C48.5302 32.14 48.512 32.1309 48.4848 32.1219C48.4848 32.1673 48.4214 32.2309 48.5302 32.24C48.8657 32.3944 49.2193 32.4852 49.5367 32.685C49.7362 32.8122 49.9175 32.9939 50.2349 33.0302C50.0445 32.794 49.845 32.676 49.6818 32.5215C49.6364 32.4852 49.5095 32.467 49.573 32.349C49.5004 32.3944 49.4823 32.349 49.4823 32.2854C49.4279 32.3126 49.3825 32.2581 49.3372 32.2672C49.3916 32.2127 49.446 32.1854 49.4914 32.2854C49.5548 32.249 49.582 32.2854 49.5911 32.349C49.6908 32.3308 49.7634 32.4035 49.8541 32.4398C50.108 32.5397 50.3619 32.5851 50.6158 32.467C50.6611 32.4489 50.7246 32.4216 50.7064 32.358L50.6883 32.3671Z" fill="#277CE2"/>
  <path d="M42.4095 34.4384C42.2735 34.4929 42.337 34.6019 42.2735 34.6564C42.2372 34.6019 42.1103 34.6019 42.1284 34.5111C42.0831 34.5565 42.0377 34.611 41.9924 34.6655C41.9743 34.5837 41.9743 34.502 41.9471 34.4293C41.9199 34.3567 41.8564 34.3203 41.7748 34.3657C41.7022 34.4112 41.6297 34.502 41.6932 34.5565C41.8927 34.7018 41.811 34.8744 41.802 35.0561C41.802 35.1015 41.7929 35.1469 41.8473 35.1651C41.9017 35.1833 41.9199 35.1288 41.938 35.0924C42.0105 34.9743 42.0105 34.8108 42.1466 34.7018C42.1738 34.8653 42.201 35.0016 42.2282 35.1378C42.2282 35.1833 42.2644 35.2287 42.3098 35.2105C42.337 35.2105 42.3551 35.156 42.3642 35.1288C42.3823 34.9017 42.4458 34.6837 42.4095 34.4384Z" fill="#277CE2"/>
  <path d="M42.1374 34.4565C42.1374 34.4565 42.1193 34.4929 42.1193 34.511C42.1193 34.502 42.1374 34.4929 42.1465 34.4838C42.1465 34.4656 42.1465 34.4656 42.1374 34.4565Z" fill="#277CE2"/>
  <path d="M45.9278 34.7833C45.9278 34.7833 45.8643 34.7651 45.8461 34.8014C45.7645 34.9831 45.7101 34.865 45.6376 34.8014C45.5378 34.7106 45.42 34.7288 45.3293 34.8196C45.2477 34.8923 45.2386 35.0558 45.3112 35.0739C45.5469 35.1284 45.4653 35.2738 45.4562 35.41C45.4562 35.5463 45.5288 35.6008 45.6467 35.6189C45.7464 35.628 45.8189 35.5826 45.8461 35.4645C45.8915 35.2738 45.828 35.0558 45.9459 34.8741C45.9459 34.8559 45.9459 34.8196 45.9278 34.8105V34.7833ZM45.6739 35.4736C45.6739 35.4736 45.6013 35.4736 45.5832 35.4464C45.5288 35.3737 45.565 35.2919 45.5832 35.2193C45.6013 35.1466 45.6285 35.0467 45.7555 35.0467C45.7555 35.1284 45.7555 35.192 45.7373 35.2647C45.7283 35.3373 45.7555 35.4282 45.6648 35.4736H45.6739Z" fill="#277CE2"/>
  <path d="M46.6623 34.9195C46.6441 35.083 46.626 35.2465 46.6079 35.401C46.5988 35.519 46.5444 35.5826 46.4265 35.5645C46.3177 35.5463 46.2905 35.4736 46.3086 35.3737C46.3268 35.2465 46.3449 35.1103 46.3449 34.974C46.3449 34.9014 46.2996 34.8378 46.2179 34.8196C46.1635 34.8105 46.1182 34.8378 46.0819 34.8832C46.0366 34.9377 46.0185 35.0194 46.0729 35.0467C46.2361 35.1466 46.2089 35.292 46.1817 35.4373C46.1635 35.5826 46.2633 35.6462 46.3812 35.6735C46.5081 35.7007 46.6532 35.6916 46.6985 35.5554C46.762 35.3465 46.7892 35.1375 46.7529 34.9195C46.7257 34.9195 46.6895 34.9195 46.6623 34.9104V34.9195Z" fill="#277CE2"/>
  <path d="M44.8487 31.9677C45.0028 31.7134 44.8668 31.7769 44.7217 31.7679C44.6401 31.7679 44.5404 31.6044 44.4769 31.7951C44.4406 31.9132 44.3681 31.9768 44.5132 32.1312C44.6945 32.331 44.8759 32.2493 45.0573 32.3038C45.0754 32.222 45.0845 32.1403 45.1026 32.0676C45.0119 32.004 44.758 32.1221 44.8578 31.9677H44.8487Z" fill="#277CE2"/>
  <path d="M43.0805 34.5017C42.9536 34.5198 42.8447 34.4199 42.7178 34.4563C42.6453 34.4835 42.609 34.538 42.5909 34.6107C42.5636 34.7106 42.6453 34.7015 42.6997 34.7197C42.881 34.8014 43.0624 34.8741 42.7631 35.0467C42.7087 35.083 42.6997 35.1466 42.7359 35.2102C42.7631 35.2556 42.7994 35.301 42.8629 35.301C42.9264 35.301 42.9898 35.2556 42.9898 35.192C43.008 34.9922 43.144 34.7469 42.7903 34.6289C42.9173 34.6289 42.9989 34.6289 43.0714 34.6198C43.1077 34.6107 43.144 34.5017 43.0896 34.5108L43.0805 34.5017Z" fill="#277CE2"/>
  <path d="M44.2956 34.6382C44.2956 34.6382 44.2503 34.62 44.2231 34.6109C44.1142 34.5927 44.0236 34.6291 43.9873 34.7381C43.9329 34.8834 44.0689 34.8562 44.1324 34.8925C44.2684 34.9742 44.486 35.0287 44.1777 35.1741C44.1052 35.2104 44.0961 35.2831 44.1233 35.3558C44.1415 35.4103 44.1868 35.4466 44.2412 35.4466C44.3137 35.4466 44.3863 35.4012 44.3863 35.3194C44.4044 35.1287 44.5223 34.9107 44.1959 34.7926C44.3319 34.7562 44.477 34.8471 44.4951 34.7108C44.5042 34.5655 44.3409 34.7472 44.2956 34.6382Z" fill="#277CE2"/>
  <path d="M49.3463 31.0318C49.3463 30.941 49.2466 30.9046 49.174 30.8592C49.1015 30.8229 49.0108 30.8047 48.9564 30.732C48.9564 30.7139 48.9564 30.7048 48.9564 30.6866C48.9111 30.6503 48.8385 30.6866 48.8113 30.6139C48.7841 30.4686 48.7116 30.3596 48.5393 30.3687C48.3761 30.3778 48.3307 30.4959 48.3035 30.6321C48.2219 30.9682 48.5665 30.8865 48.6572 31.0227C48.7841 30.9773 48.63 30.7593 48.8295 30.7775C48.7751 31.0409 49.038 31.1771 49.0924 31.3951C49.2103 31.3588 49.1559 31.2589 49.165 31.1862C49.165 31.1771 49.1468 31.168 49.1378 31.1499C49.1378 31.1499 49.1378 31.1317 49.1468 31.1317C49.2375 31.1408 49.3373 31.1317 49.3463 31.0318Z" fill="#277CE2"/>
  <path d="M45.6466 33.0757C45.7554 33.0303 45.6829 32.9758 45.6194 32.9304C45.565 32.894 45.6103 32.8577 45.6375 32.8214C45.7192 32.7305 45.8008 32.6397 45.8824 32.5489C45.8733 32.4853 45.9368 32.3944 45.8461 32.3763C45.7736 32.3581 45.692 32.4035 45.6194 32.4217C45.6829 32.6034 45.4562 32.6215 45.4381 32.7578C45.429 32.8305 45.4018 32.9031 45.4199 32.9667C45.4562 33.0666 45.5559 33.1211 45.6466 33.0848V33.0757Z" fill="#277CE2"/>
  <path d="M44.9303 34.6837C44.8215 34.6565 44.7398 34.7019 44.6764 34.7836C44.6492 34.8109 44.6129 34.8563 44.6582 34.9017C44.6945 34.9471 44.7398 34.9199 44.767 34.8835C44.8124 34.82 44.8577 34.7655 44.9393 34.8109C45.0209 34.8563 45.0119 34.938 45.0119 35.0198C45.0028 35.1833 44.9484 35.3377 45.0119 35.5012C45.1116 35.3014 45.1207 35.0834 45.1207 34.8745C45.1207 34.7655 45.0391 34.711 44.9303 34.6837Z" fill="#277CE2"/>
  <path d="M49.3645 35.2195C49.3282 35.1378 49.2829 35.1741 49.2375 35.2195C49.2194 35.2195 49.2103 35.2195 49.2103 35.2377C48.9927 35.4648 49.1831 35.7191 49.1287 36.0098C49.2647 35.8735 49.3645 35.7918 49.4461 35.701C49.5096 35.6283 49.5821 35.5556 49.4824 35.4557C49.4824 35.4103 49.4824 35.3558 49.5368 35.3558C49.6002 35.3558 49.6002 35.4284 49.6002 35.4739C49.6002 35.6555 49.5277 35.8372 49.5912 36.0552C49.7 35.9099 49.6728 35.7918 49.6909 35.6828C49.7453 35.2649 49.7362 35.2649 49.3645 35.2104V35.2195Z" fill="#277CE2"/>
  <path d="M47.034 34.5018C46.9796 34.4745 46.9615 34.5199 46.9433 34.5563C46.8617 34.7198 46.8073 34.7198 46.7529 34.529C46.7348 34.4473 46.635 34.4291 46.5534 34.4745C46.4718 34.529 46.4718 34.6108 46.5081 34.6834C46.5534 34.7652 46.635 34.7925 46.7257 34.8106C46.8708 34.8015 46.9977 34.7652 47.0521 34.6017C47.0703 34.5563 47.0793 34.5109 47.034 34.4836V34.5018Z" fill="#277CE2"/>
  <path d="M49.1559 34.7381C49.1015 34.7109 49.0834 34.7654 49.0653 34.8017C49.0018 34.8926 48.9292 35.0652 48.8748 34.7926C48.8567 34.7109 48.7751 34.6746 48.6844 34.72C48.5847 34.7745 48.5756 34.8653 48.63 34.938C48.6935 35.0379 48.8023 35.0742 48.9292 35.0561C49.0562 35.0288 49.1469 34.9562 49.1922 34.829C49.1922 34.7926 49.1922 34.7563 49.1559 34.7381Z" fill="#277CE2"/>
  <path d="M46.9705 32.3852C46.9705 32.3852 46.9433 32.4579 46.9252 32.4942L46.9796 32.6577L47.0249 32.7213C47.0249 32.7213 47.0612 32.7395 47.0793 32.7486C47.1428 32.7486 47.2063 32.7486 47.2697 32.7395C47.3876 32.6032 47.3423 32.4852 47.2425 32.3671C47.1337 32.2217 47.0612 32.3852 46.9705 32.3943V32.3852Z" fill="#277CE2"/>
  <path d="M43.5248 35.1922C43.5067 35.1467 43.4976 35.0832 43.4613 35.0377C43.4069 34.9651 43.3253 34.956 43.2528 35.0196C43.1984 35.0741 43.1712 35.1377 43.2256 35.2103C43.3163 35.3284 43.4432 35.3647 43.5792 35.3193C43.6971 35.2739 43.8059 35.2012 43.7606 35.0287C43.6427 35.0468 43.6608 35.1922 43.5248 35.1922Z" fill="#277CE2"/>
  <path d="M49.5458 34.8109C49.4007 34.7928 49.2647 34.8109 49.2466 34.9653C49.2285 35.1198 49.3826 35.0289 49.4551 35.0653C49.5096 35.0925 49.573 35.0925 49.6365 35.1016C49.6909 35.1016 49.7453 35.2015 49.7997 35.1288C49.8451 35.0653 49.7997 34.9926 49.7544 34.929C49.7 34.8563 49.6274 34.8109 49.5458 34.8109Z" fill="#277CE2"/>
  <path d="M43.806 34.629C43.7153 34.5654 43.7243 34.7108 43.6699 34.738C43.6427 34.7562 43.6155 34.7744 43.5974 34.7925C43.543 34.7744 43.5611 34.738 43.5521 34.7017C43.543 34.6108 43.4886 34.5654 43.3888 34.5654C43.3163 34.5654 43.28 34.6108 43.2619 34.6744C43.2347 34.7653 43.2891 34.8379 43.3616 34.8652C43.4977 34.9197 43.6337 34.9469 43.7515 34.8198C43.806 34.7653 43.8876 34.6835 43.815 34.6199L43.806 34.629Z" fill="#277CE2"/>
  <path d="M49.0199 30.0238C49.0833 29.9693 49.1468 29.9057 49.2012 29.8421C49.2012 29.8421 49.1831 29.7967 49.174 29.7785C48.9745 29.8694 48.902 29.6514 48.7569 29.606C48.7388 29.7604 48.9383 29.833 48.9111 29.9965C48.9111 30.0238 48.9745 30.0601 49.0199 30.0329V30.0238Z" fill="#277CE2"/>
  <path d="M49.4914 29.6967C49.4914 29.6967 49.4914 29.5786 49.4551 29.5877C49.2465 29.7149 49.1649 29.4969 49.0108 29.397C48.9926 29.7058 49.2556 29.6695 49.3735 29.7966C49.4188 29.8421 49.4732 29.7603 49.4914 29.6967Z" fill="#277CE2"/>
  <path d="M46.4084 33.0393C46.4084 33.0393 46.4446 33.0393 46.4628 33.0393C46.4537 32.9575 46.5716 32.9212 46.5444 32.8304C46.49 32.8031 46.5172 32.7668 46.5172 32.7304C46.5172 32.6669 46.4174 32.5669 46.5535 32.5397C46.6441 32.5215 46.6441 32.6214 46.6713 32.6759C46.6985 32.7304 46.6804 32.8031 46.7529 32.8304L46.7801 32.7032C46.7711 32.6305 46.7348 32.5488 46.8164 32.4852C46.8346 32.4125 46.9343 32.3853 46.9071 32.2944C46.7167 32.2944 46.5716 32.4489 46.3812 32.4398C46.354 32.4398 46.3177 32.467 46.3177 32.467C46.354 32.6396 46.1182 32.7759 46.2542 32.9666C46.1454 33.2028 45.9096 32.9394 45.7555 33.0938C45.9822 33.1029 46.1635 33.3209 46.3902 33.1483C46.3902 33.121 46.3902 33.0847 46.3993 33.0575L46.4084 33.0393Z" fill="#277CE2"/>
  <path d="M48.367 31.695C48.2945 31.6859 48.2582 31.6405 48.2764 31.5678C48.3126 31.586 48.3398 31.5951 48.3761 31.6133C48.3761 31.6405 48.3761 31.6678 48.3761 31.695C48.3942 31.695 48.4033 31.695 48.4214 31.695C48.4668 31.7949 48.6663 31.6496 48.6572 31.8403C48.6572 31.9675 48.6572 31.9675 48.7932 31.913C48.7932 31.913 48.7932 31.8585 48.8023 31.8403C48.766 31.7586 48.7207 31.6768 48.6844 31.5951C48.6844 31.5678 48.6663 31.5315 48.6572 31.5043C48.6391 31.5043 48.6209 31.5043 48.6028 31.5043C48.4487 31.6223 48.5212 31.4498 48.4849 31.4134C48.3761 31.3498 48.2582 31.2862 48.1494 31.2227C48.1403 31.1772 48.1041 31.1682 48.0678 31.1682C48.0134 31.1227 47.959 31.0773 47.9137 31.0319C47.9137 31.0137 47.8955 31.0047 47.8865 30.9865C47.8502 30.8866 47.7323 30.9047 47.6688 30.8412C47.6688 30.7957 47.6688 30.7503 47.6779 30.7049C47.6779 30.6867 47.696 30.6686 47.7051 30.6504C47.7051 30.6504 47.7323 30.6231 47.7414 30.6141C47.7776 30.6141 47.8048 30.6141 47.8411 30.6141C47.8592 30.6322 47.8774 30.6413 47.8955 30.6595C48.0769 30.714 47.9862 30.4869 48.095 30.4687C48.095 30.4506 48.095 30.4324 48.095 30.4233V30.2961C48.095 30.2961 48.0406 30.2961 48.0587 30.2507V30.1417C48.0587 30.1417 48.0769 30.0781 48.0859 30.0418C48.0859 30.0236 48.0769 30.0055 48.0678 29.9782C48.0043 29.9146 48.0225 29.851 48.0769 29.7965C48.0587 29.7148 48.0406 29.633 48.0225 29.5513C48.0225 29.4786 48.0315 29.406 48.0406 29.3242C47.9862 29.3151 47.9318 29.306 47.8774 29.297C47.8592 29.297 47.8411 29.297 47.823 29.297C47.5872 29.406 47.3515 29.524 47.1157 29.6421C47.0613 29.4877 47.2154 29.415 47.1973 29.297C47.2698 29.2697 47.3061 29.2243 47.3061 29.1425C47.3061 29.088 47.3242 29.0335 47.3877 29.0063C47.4603 28.979 47.4512 28.9154 47.4512 28.8609C47.4149 28.8609 47.3787 28.8428 47.3424 28.8337C47.3333 28.8337 47.3152 28.8246 47.3061 28.8155C47.288 28.8155 47.2608 28.8064 47.2517 28.7974C47.2698 28.7974 47.288 28.7974 47.3061 28.8155C47.3152 28.8155 47.3243 28.8155 47.3424 28.8337C47.3787 28.8337 47.4149 28.8519 47.4512 28.8609C47.4512 28.8064 47.4512 28.7519 47.4603 28.6974C47.4603 28.5703 47.5872 28.6248 47.6416 28.5703C47.7504 28.5612 47.8683 28.543 47.9771 28.5339C48.1948 28.5067 48.1766 28.3159 48.2038 28.1706C48.231 28.0162 48.1222 27.9617 47.9862 27.9526C47.959 27.9072 47.9227 27.8708 47.9409 27.8163C48.0406 27.5529 47.6416 27.4439 47.7323 27.1805C47.6779 27.1805 47.6326 27.1623 47.5781 27.1532C47.5419 27.0442 47.7051 26.8989 47.5147 26.8171C47.4784 26.7808 47.4512 26.7354 47.4149 26.6991C47.3968 26.6264 47.4875 26.5356 47.3787 26.4811C47.3605 26.4629 47.3515 26.4447 47.3333 26.4266C47.3333 26.3721 47.3333 26.3176 47.3333 26.2631C47.3424 26.2358 47.3424 26.2085 47.297 26.2085C47.2245 25.8815 47.152 25.5455 47.0794 25.2184C47.0704 25.2184 47.0522 25.2184 47.0431 25.2184C47.0522 25.2184 47.0613 25.2184 47.0794 25.2184C47.0976 25.0822 47.1157 24.9369 47.1248 24.8006C47.1248 24.7461 47.1066 24.6916 47.0431 24.6825C46.9706 24.6734 46.9525 24.737 46.9434 24.7824C46.9162 24.8824 46.9071 24.9914 46.8981 25.0913L46.6079 25.7998C46.5807 25.8725 46.5535 25.936 46.5263 26.0087C46.2996 25.9724 46.3903 26.1631 46.3449 26.254C46.3177 26.2994 46.2271 26.2721 46.2271 26.3357C46.2271 26.472 46.227 26.5991 46.0276 26.6082C45.9822 26.6082 45.9732 26.6718 45.9822 26.7172C46.0185 26.8898 45.8825 26.8898 45.7827 26.9261C45.6558 26.9897 45.7827 27.1714 45.6558 27.235C45.5016 27.235 45.3565 27.2622 45.3837 27.4802C45.3928 27.5711 45.3203 27.5983 45.2477 27.6165C45.0754 27.6437 45.1117 27.7709 45.1208 27.8799C45.1208 28.0071 45.1208 28.1252 45.284 28.1615C45.4563 28.1978 45.6286 28.2705 45.8009 28.325C45.819 28.4613 45.6558 28.543 45.7102 28.6884C45.7011 28.7338 45.7102 28.7701 45.7283 28.8064C45.7283 28.8246 45.7283 28.8428 45.7283 28.8609C45.7374 28.9154 45.7555 28.9699 45.7646 29.0154C45.7737 29.0699 45.7918 29.1244 45.8009 29.1789C45.7646 29.2425 45.8643 29.3787 45.7011 29.3787C45.4109 29.1607 45.1117 28.9518 44.8215 28.7338C44.7762 28.6974 44.7218 28.6793 44.6946 28.6066C44.5858 28.2887 44.1052 27.9435 43.7788 27.9344C43.7243 27.9344 43.6427 27.9344 43.6337 27.9072C43.5339 27.6892 43.3163 27.5983 43.144 27.4712C42.7994 27.2077 42.5002 26.8444 42.0015 26.8353V26.9443C42.3098 27.344 42.736 27.6437 43.1803 27.9798C43.0261 27.9526 42.9173 28.0253 42.7904 27.9889C42.5818 27.9435 42.4458 28.0525 42.3642 28.2433C42.1919 28.6339 42.473 29.1607 42.881 29.2243C42.9627 29.2425 43.0352 29.2243 43.0805 29.1334C43.1259 29.0608 43.1803 28.9881 43.2347 28.9245C43.407 28.7065 43.4523 28.4885 43.28 28.2523C43.3707 28.1978 43.3888 28.3159 43.4523 28.325C43.4795 28.3886 43.4977 28.4794 43.5974 28.434C43.5158 28.4976 43.6155 28.5884 43.5702 28.6611C43.5702 28.6884 43.5702 28.7156 43.6155 28.7065C43.7515 28.6611 43.8241 28.5794 43.8332 28.434C43.8694 28.4158 43.8876 28.3886 43.8876 28.3432C43.9692 28.3159 43.951 28.1888 44.0508 28.1797C44.0689 28.2251 44.0871 28.2614 44.0961 28.3068C44.1233 28.3977 44.1415 28.4885 44.1687 28.5794C44.2049 28.6157 44.2321 28.652 44.2684 28.6884C44.2503 28.7792 44.2321 28.8609 44.214 28.9518C44.2049 28.9699 44.1868 28.979 44.1777 28.9972C44.1777 29.0154 44.1777 29.0335 44.1687 29.0517C44.0961 29.0517 44.0054 29.0699 44.0326 29.1516C44.0508 29.2334 44.1324 29.1516 44.1868 29.1516C44.2231 29.1516 44.2503 29.1244 44.2865 29.1153C44.2775 29.2243 44.2412 29.3333 44.2593 29.4332C44.2865 29.5695 44.2865 29.6785 44.1596 29.7511C44.1143 29.8147 44.0599 29.8783 44.0145 29.9419C43.9964 29.96 43.9873 29.9691 43.9692 29.9873C43.9238 29.9601 43.8785 29.9419 43.8332 29.9146C43.8332 29.8692 43.8241 29.8329 43.7697 29.8329C43.7697 29.8329 43.7425 29.8692 43.7515 29.8692C43.7697 29.8874 43.7969 29.9055 43.8241 29.9237C43.8241 29.951 43.8241 29.9782 43.8241 30.0146C43.7515 30.0781 43.679 30.1326 43.5883 30.1599C43.3526 30.2416 43.3163 30.4142 43.3888 30.6322C43.3888 30.7049 43.2438 30.7957 43.416 30.8412C43.416 30.8957 43.3979 30.9592 43.4523 31.0047C43.4523 31.0047 43.4523 31.0319 43.4523 31.041C43.2619 31.1863 43.0533 31.1318 42.8448 31.0955C42.6997 31.0682 42.5455 31.0047 42.4186 31.1137C42.2826 31.2317 42.1466 31.3044 41.9652 31.2681C41.9199 31.259 41.8745 31.259 41.8655 31.3226C41.8564 31.368 41.8655 31.4043 41.9108 31.4316C42.0287 31.4952 42.1375 31.5588 42.2644 31.5769C42.1828 31.6496 42.1828 31.8222 42.0377 31.7949C41.8201 31.7677 41.6841 31.8313 41.5844 32.1128C41.7113 31.9403 41.802 32.1128 41.8927 32.0583C42.1284 31.913 42.4005 31.8222 42.6634 31.7313C42.7632 31.695 42.8992 31.6496 42.9264 31.5043C42.9808 31.5497 43.0261 31.5043 43.0715 31.4861C43.2165 31.5133 43.1803 31.4225 43.1531 31.3498C43.1531 31.3407 43.1712 31.3317 43.1893 31.3317C43.2528 31.368 43.3072 31.3952 43.3072 31.2862C43.3254 31.2772 43.3435 31.2681 43.3707 31.2499C43.3798 31.2317 43.3979 31.2227 43.407 31.2227C43.3888 31.2227 43.3798 31.2408 43.3707 31.2499C43.4372 31.3589 43.5128 31.371 43.5974 31.2862C43.5974 31.2862 43.6609 31.2862 43.6971 31.2862C43.8332 31.2862 43.9329 31.2227 44.0417 31.1682C44.078 31.15 44.0689 31.1318 44.0417 31.1137C44.0054 31.1137 43.9692 31.1137 43.9238 31.1137C43.9238 30.9865 43.942 30.8412 43.7606 30.823C43.5974 30.8048 43.5611 30.9229 43.5521 31.0501C43.5521 31.0773 43.543 31.1046 43.5339 31.1227C43.5249 31.1046 43.5158 31.0864 43.5067 31.0682C43.4886 31.0501 43.4795 31.0228 43.4614 31.0047C43.4614 30.9502 43.4886 30.8866 43.4251 30.8412C43.4251 30.7685 43.4342 30.7049 43.4432 30.6413C43.5158 30.6595 43.5793 30.5686 43.6609 30.6141C43.679 30.6413 43.6881 30.6504 43.7153 30.6141C43.7334 30.6141 43.7515 30.6141 43.7788 30.6141C43.8966 30.605 43.9964 30.5505 44.0599 30.4415C44.2956 30.3779 44.4498 30.2507 44.4226 29.9782C44.4226 29.9055 44.4044 29.842 44.3954 29.7693C44.4316 29.5785 44.35 29.3878 44.4044 29.197C44.5586 29.1698 44.6765 29.297 44.8306 29.2788V29.4332C44.6855 29.7693 44.5676 30.1145 44.6946 30.4869C44.6855 30.5414 44.6583 30.605 44.7127 30.6595C44.7127 30.6776 44.7218 30.6958 44.7309 30.714C44.486 30.6231 44.5949 30.9138 44.4951 30.9774C44.5495 30.9592 44.6039 30.9411 44.6493 30.9229C44.7943 30.9229 44.885 31.0137 44.9757 31.1137C45.2205 31.3589 45.3928 31.7223 45.8281 31.7041C45.9006 31.7041 45.9732 31.7586 46.0366 31.7949C46.1636 31.8676 46.2905 31.8676 46.4084 31.7949C46.4265 31.7858 46.4537 31.7768 46.4719 31.7586C46.4719 31.7586 46.4265 31.7768 46.4084 31.7949C46.5626 31.8585 46.7167 31.9221 46.8437 31.7586C47.0613 31.8131 47.2245 31.7404 47.3424 31.5497C47.3968 31.5224 47.4512 31.5043 47.4965 31.4588C47.6235 31.3498 47.6779 31.4952 47.7504 31.5406C47.8411 31.5951 47.8502 31.6678 47.7504 31.7313C47.7504 31.7495 47.7414 31.7677 47.7323 31.7858C47.7686 31.804 47.8048 31.8313 47.8411 31.8494C47.8774 31.8676 47.9046 31.8858 47.9409 31.9039C48.0406 31.8403 48.0134 32.0583 48.095 31.9857C48.1676 31.9312 48.0769 31.8494 48.0587 31.7768C48.0587 31.7768 48.0587 31.7586 48.0497 31.7495C48.0225 31.7495 47.9862 31.7495 47.959 31.7495C47.9409 31.7313 47.9227 31.7132 47.9046 31.695C47.9681 31.6587 48.0315 31.6314 48.1131 31.6496C48.1131 31.6496 48.1494 31.695 48.1676 31.7223C48.2673 31.7223 48.2945 31.8222 48.367 31.8676C48.4849 31.804 48.367 31.7132 48.3942 31.6405L48.367 31.695ZM43.3979 31.259C43.3979 31.259 43.4251 31.259 43.4432 31.259C43.4251 31.259 43.416 31.259 43.3979 31.259ZM47.297 29.8329C47.297 29.6966 47.4784 29.7693 47.5691 29.8056C47.6054 29.8238 47.6507 29.8965 47.6416 29.9419C47.6144 30.1962 47.6779 30.4596 47.5147 30.6867C47.3696 30.6867 47.3333 30.5323 47.2154 30.5051C47.0976 30.4051 46.9615 30.3416 46.8799 30.1962C46.8527 30.1599 46.8346 30.1326 46.8437 30.0872C46.8618 30.0146 46.9253 30.0327 46.9706 30.0418C47.1429 30.06 47.297 30.1236 47.297 29.8238V29.8329ZM46.7167 30.6231C46.7167 30.6231 46.7167 30.5505 46.753 30.5141C46.753 30.5141 46.7167 30.5868 46.7167 30.6231ZM46.7258 30.6777C46.7258 30.6777 46.7258 30.6595 46.7258 30.6413C46.7258 30.6504 46.7258 30.6595 46.7258 30.6777ZM45.8553 29.7875C45.8553 29.7875 45.8281 29.8783 45.819 29.9237C45.819 29.8783 45.8371 29.8329 45.8553 29.7875ZM46.8437 29.5695C46.8437 29.5695 46.8618 29.5695 46.8709 29.5695C46.8709 29.5695 46.8527 29.5695 46.8437 29.5695ZM46.8165 27.0079C46.8165 27.0079 46.8346 26.9534 46.8527 26.9261C46.8437 26.9534 46.8255 26.9806 46.8165 27.0079ZM46.3903 28.8337C46.3903 28.8337 46.3903 28.8337 46.3812 28.8337C46.3812 28.8337 46.3812 28.8337 46.3903 28.8337ZM46.5898 29.4514C46.5898 29.4514 46.5898 29.4695 46.5898 29.4786C46.5898 29.4695 46.5898 29.4605 46.5898 29.4514ZM46.5898 29.415C46.5898 29.415 46.5898 29.4241 46.5898 29.4332C46.5898 29.4332 46.5898 29.4241 46.5898 29.415ZM46.5988 30.3597H46.5807C46.5807 30.3597 46.5898 30.3597 46.5988 30.3597ZM46.6623 30.4051C46.6623 30.4051 46.6623 30.387 46.6442 30.387C46.6442 30.387 46.6532 30.3961 46.6623 30.4051ZM46.9525 29.5331C46.9525 29.5331 46.9434 29.5513 46.9343 29.5513C46.9343 29.5513 46.9434 29.5422 46.9525 29.5331ZM47.0613 26.581C47.0613 26.581 47.0885 26.581 47.0976 26.581C47.0885 26.581 47.0704 26.581 47.0613 26.581ZM45.8281 30.1326C45.8281 30.1326 45.8099 30.1599 45.8009 30.169C45.8099 30.169 45.819 30.1508 45.8281 30.1326ZM46.0638 29.5695C46.0638 29.5695 46.0729 29.5785 46.082 29.5876C46.082 29.5876 46.082 29.5967 46.0729 29.6058C46.0729 29.6058 46.0729 29.5967 46.082 29.5876C46.082 29.5876 46.0729 29.5785 46.0638 29.5695ZM46.6714 30.4869C46.6714 30.4869 46.7076 30.496 46.7258 30.5051C46.7076 30.5051 46.6895 30.496 46.6714 30.4869ZM46.9615 30.6141C46.9615 30.6141 46.9162 30.5959 46.889 30.5777C46.9162 30.5868 46.9343 30.605 46.9615 30.6141ZM46.8527 30.5596C46.8527 30.5596 46.8255 30.5505 46.8165 30.5414C46.8255 30.5414 46.8437 30.5505 46.8527 30.5596ZM47.0794 29.3605C47.0794 29.3605 47.0431 29.3969 47.025 29.4241C47.0069 29.4423 46.9978 29.4695 46.9797 29.4877C46.9797 29.4877 46.9706 29.5059 46.9615 29.515C46.9615 29.515 46.9706 29.4968 46.9797 29.4877C46.9978 29.4695 47.0069 29.4423 47.025 29.4241C47.0431 29.3969 47.0613 29.3696 47.0794 29.3605ZM45.7102 29.6875C45.6195 29.6785 45.5379 29.6694 45.4472 29.6512C45.5379 29.6603 45.6195 29.6694 45.7102 29.6875ZM45.3021 31.1137C45.3021 31.1137 45.3112 31.1227 45.3203 31.1318C45.3203 31.1318 45.3112 31.1227 45.3021 31.1137ZM46.4447 31.6405C46.4447 31.6405 46.4447 31.6496 46.4447 31.6587C46.4447 31.6587 46.4447 31.6496 46.4447 31.6405ZM46.9797 31.2772C46.8074 31.2408 46.762 31.4679 46.617 31.4407C46.2905 31.3862 45.9278 31.5224 45.6467 31.2227C45.5923 31.1591 45.4835 31.1409 45.3928 31.0955C45.42 30.9592 45.1661 30.9411 45.2568 30.7776C45.2296 30.7594 45.2205 30.7412 45.2205 30.714C45.2205 30.7322 45.2296 30.7594 45.2568 30.7776C45.2931 30.5596 45.5379 30.6141 45.6376 30.4869C45.5379 30.3961 45.6104 30.3961 45.683 30.387C45.683 30.3688 45.683 30.3416 45.683 30.3234C45.5832 30.2871 45.4744 30.2416 45.4744 30.4142C45.4744 30.496 45.4291 30.496 45.3747 30.4596C45.1752 30.3416 45.2568 30.5323 45.2205 30.5959C45.0029 30.4233 44.9576 29.8874 45.1389 29.7057C45.1933 29.6421 45.2568 29.6694 45.3021 29.7057C45.3747 29.7602 45.4291 29.8238 45.3384 29.9146C45.3565 29.9146 45.3837 29.9237 45.4019 29.9328C45.6014 29.8783 45.7193 29.951 45.7555 30.1599L45.7283 30.2689C45.819 30.3597 45.7283 30.3597 45.6739 30.3688C45.6739 30.4051 45.6558 30.4415 45.6467 30.4778C45.819 30.5141 45.8734 30.4142 45.9006 30.278C45.9732 30.278 45.9913 30.3506 46.0457 30.3688C46.091 30.3597 46.1273 30.3597 46.1726 30.3688C46.1273 30.3688 46.091 30.3688 46.0457 30.3688C46.082 30.5414 46.1182 30.7049 46.354 30.5959C46.5354 30.5596 46.5807 30.7776 46.7348 30.7957C46.8527 30.8866 46.9706 30.9683 47.0885 31.0592C47.161 31.1863 47.1882 31.3135 46.9706 31.2681L46.9797 31.2772ZM48.0497 31.6133C48.0497 31.6133 48.0587 31.6405 48.0678 31.6587C48.0678 31.6405 48.0587 31.6314 48.0497 31.6133Z" fill="#277CE2"/>
  <path d="M47.6416 32.4125C47.5963 32.258 47.6144 32.04 47.3424 32.1218C47.3424 32.1672 47.3787 32.1854 47.4149 32.2035C47.4331 32.2217 47.4603 32.249 47.4784 32.2671C47.4512 32.2671 47.4149 32.2762 47.3877 32.2853C47.4059 32.4034 47.4149 32.4125 47.6416 32.4125Z" fill="#277CE2"/>
  <path d="M50.2532 29.7147C50.2532 29.7147 50.2532 29.7329 50.2532 29.742C50.2078 29.8328 50.0899 29.7602 50.0355 29.851C50.0718 29.9237 50.1443 29.9146 50.2078 29.9237C50.2532 29.9873 50.1897 30.0872 50.2894 30.1326C50.4708 29.9782 50.4164 29.8328 50.2894 29.6875C50.2894 29.6966 50.2713 29.7057 50.2713 29.7238L50.2532 29.7147Z" fill="#277CE2"/>
  <path d="M44.0598 31.595C44.0598 31.595 44.1232 31.6132 44.1595 31.6314C44.2864 31.704 44.4225 31.7404 44.4769 31.5769C44.5222 31.4315 44.3771 31.377 44.2502 31.3498C44.087 31.1409 44.087 31.4043 44.0144 31.4406C43.8421 31.5314 43.9328 31.5769 44.0688 31.595H44.0598ZM44.2411 31.4951C44.2411 31.4951 44.2502 31.4951 44.2592 31.4951C44.2592 31.4951 44.2592 31.5042 44.2592 31.5133C44.2502 31.5133 44.2411 31.5133 44.232 31.5133V31.4951H44.2411Z" fill="#277CE2"/>
  <path d="M45.3112 32.258C45.3112 32.258 45.3112 32.2308 45.3112 32.2217C45.3112 32.1854 45.3293 32.1127 45.3112 32.1036C45.2749 32.0764 45.2749 32.1309 45.2658 32.1581C45.1842 32.1945 45.157 32.3125 45.0482 32.3035C44.9847 32.4397 45.0482 32.467 45.1752 32.4579C45.1752 32.5124 45.1389 32.585 45.2205 32.6214C45.293 32.6486 45.3384 32.6032 45.3747 32.5578C45.42 32.5033 45.4381 32.4488 45.4019 32.3852C45.3747 32.3398 45.284 32.3489 45.3021 32.258H45.3112Z" fill="#277CE2"/>
  <path d="M48.1313 29.4335L48.2764 29.497C48.2401 29.815 48.4487 29.5697 48.5303 29.6061C48.6028 29.6061 48.6754 29.597 48.7479 29.5879C48.7479 29.5061 48.766 29.4153 48.7751 29.3335C48.7751 29.3154 48.7751 29.2972 48.7842 29.279C48.8567 29.2609 48.9383 29.2609 48.9746 29.1882C49.0199 29.161 49.0199 29.1155 49.0109 29.0792C49.0653 28.7431 49.2013 28.8885 49.3373 29.0247C49.1469 29.1519 49.165 29.2609 49.4552 29.5061C49.4189 29.379 49.4008 29.2881 49.4824 29.2155C49.6456 29.1882 49.8088 29.161 49.9721 29.1337C50.2259 29.1882 49.9448 29.2972 49.9993 29.3699C49.9811 29.3971 49.9721 29.4335 49.9448 29.4516C49.8451 29.5334 49.8542 29.6242 49.9721 29.6333C50.0718 29.6333 50.0446 29.4789 50.099 29.4153C50.1081 29.4062 50.099 29.379 50.099 29.3608C50.1353 29.3154 50.2078 29.4335 50.235 29.2972C50.2622 29.1428 50.1806 29.1065 50.0809 29.052C50.0083 28.9884 49.7816 29.0974 49.8542 28.8612C49.8995 28.8612 49.9539 28.8885 49.9993 28.843C50.0174 28.843 50.0355 28.843 50.0537 28.8339C50.1081 28.8339 50.1625 28.843 50.2169 28.8521C50.1987 28.9975 50.4345 28.8975 50.4254 29.0883C50.4254 29.2245 50.4798 29.3608 50.3801 29.5515C50.6249 29.2972 50.6159 29.0338 50.4073 28.843C50.3438 28.7885 50.2259 28.7613 50.3438 28.6523C50.5615 28.5887 50.7519 28.4434 50.9332 28.3162C50.9876 28.2799 51.042 28.2254 51.0148 28.1618C50.9876 28.0982 50.906 28.1254 50.8516 28.1254C50.6249 28.1345 50.4164 28.2344 50.2169 28.3253C50.1443 28.3253 50.0718 28.2526 50.0083 28.3434C49.6819 28.4979 49.428 28.8703 48.9927 28.6704C48.9655 28.6614 48.9202 28.7068 48.8749 28.7249C48.766 28.7704 48.6663 28.8067 48.5575 28.8521C48.5393 28.8521 48.5212 28.8703 48.5031 28.8794C48.5031 28.8794 48.4215 28.8794 48.4124 28.9248C48.358 28.9884 48.3852 29.0701 48.3761 29.1428C48.3308 29.17 48.2854 29.1973 48.2492 29.2245C48.2492 29.3063 48.1857 29.3335 48.1313 29.3608C48.0678 29.388 48.086 29.4153 48.1313 29.4425V29.4335Z" fill="#277CE2"/>
  <path d="M44.4497 31.0137C44.4497 31.0137 44.4316 31.0137 44.4135 31.0228C44.4316 31.0228 44.4407 31.0228 44.4497 31.0137Z" fill="#277CE2"/>
  <path d="M44.0689 30.9503C44.0689 30.9503 44.0235 30.9503 43.9963 30.9594C44.0145 30.9775 44.0235 30.9957 44.0417 31.0048C44.1142 31.0956 44.1777 31.1864 44.2956 31.1955C44.3046 31.1864 44.3137 31.1774 44.3318 31.1683C44.3228 31.0048 44.2321 30.9321 44.0689 30.9412V30.9503Z" fill="#277CE2"/>
  <path d="M46.0004 32.7123C46.0004 32.7123 46.0729 32.6942 46.0638 32.6578C46.0457 32.5761 45.9732 32.5579 45.9006 32.5488C45.9006 32.5488 45.8825 32.5488 45.8734 32.5488C45.8644 32.6397 45.9006 32.7032 45.9913 32.7123H46.0004Z" fill="#277CE2"/>
  <path d="M44.5585 31.3498C44.5222 31.2136 44.4225 31.2136 44.3318 31.1772C44.3227 31.1863 44.3137 31.1954 44.2955 31.2045C44.3499 31.2953 44.4225 31.3589 44.5494 31.3498H44.5585Z" fill="#277CE2"/>
  <path d="M44.8306 32.4306C44.8306 32.4306 44.7581 32.4125 44.7581 32.467C44.7581 32.4942 44.7762 32.5306 44.7762 32.5215C44.8578 32.5306 44.8941 32.5306 44.9031 32.4851C44.9031 32.4397 44.8669 32.4306 44.8397 32.4306H44.8306Z" fill="#277CE2"/>
  <path d="M46.0184 32.8032C46.0184 32.8032 45.9278 32.8214 45.9187 32.8668C45.9187 32.8759 45.9368 32.9122 45.955 32.9213C46.0003 32.9395 46.0366 32.9122 46.0547 32.8577C46.0547 32.8305 46.0547 32.8032 46.0184 32.8032Z" fill="#277CE2"/>
  <path d="M45.3021 32.8579C45.2477 32.7853 45.1933 32.7762 45.0845 32.7671C45.1752 32.8488 45.2296 32.8761 45.3021 32.8579Z" fill="#277CE2"/>
  <path d="M45.5288 32.2764C45.5288 32.2764 45.5832 32.2582 45.5741 32.231C45.5741 32.2128 45.5379 32.1946 45.5197 32.1855C45.5016 32.1855 45.4653 32.2037 45.4653 32.2128C45.4653 32.2491 45.4925 32.2673 45.5288 32.2764Z" fill="#277CE2"/>
  <path d="M44.1232 31.8041C44.1232 31.8041 44.1504 31.8495 44.1686 31.8586C44.1958 31.8677 44.2139 31.8586 44.223 31.8132C44.2048 31.8041 44.1958 31.7859 44.1686 31.7769C44.1414 31.7769 44.1142 31.7769 44.1232 31.8132V31.8041Z" fill="#277CE2"/>
  <path d="M45.0573 31.6948C45.0573 31.6948 45.021 31.6948 45.021 31.7039C45.021 31.7312 45.021 31.7675 45.0301 31.7947C45.0482 31.7947 45.0754 31.7947 45.0935 31.7857C45.1117 31.7402 45.0935 31.713 45.0573 31.6948Z" fill="#277CE2"/>
  <path d="M48.3398 31.9585C48.358 32.0312 48.4033 32.0766 48.4849 32.0857C48.494 31.9767 48.4215 31.9676 48.3398 31.9585Z" fill="#277CE2"/>
  <path d="M46.1272 32.4489C46.1272 32.4489 46.091 32.4217 46.0728 32.4126C46.0366 32.4126 46.0094 32.4308 46.0275 32.458C46.0366 32.4762 46.0638 32.4943 46.0819 32.4943C46.091 32.4943 46.1091 32.4671 46.1182 32.4489H46.1272Z" fill="#277CE2"/>
  <path d="M44.0054 28.8972C44.0054 28.8972 43.951 28.8791 43.9238 28.9154C43.8512 28.9154 43.7878 28.9336 43.7424 28.9972C43.6608 28.9972 43.688 28.8518 43.6155 28.8882C43.5157 28.9245 43.4613 29.0244 43.4976 29.1516C43.5792 29.1152 43.679 29.1243 43.7515 29.0607C43.7424 29.2152 43.7243 29.3696 43.7243 29.524C43.7243 29.5694 43.7424 29.5876 43.7787 29.5331C43.7787 29.5149 43.7878 29.4968 43.7878 29.4786C43.9057 29.5058 44.0145 29.4786 44.0326 29.3605C44.0417 29.2515 43.9147 29.2969 43.8512 29.2697C43.8784 29.1607 43.8512 29.0426 43.951 28.9608C43.9963 28.9608 44.0507 28.9608 44.0235 28.8972H44.0054Z" fill="#277CE2"/>
  <path d="M43.9056 30.7596C43.9056 30.7596 43.9147 30.7959 43.9238 30.8232C43.951 30.8141 43.96 30.805 43.9782 30.805C43.9782 30.7868 43.96 30.7687 43.951 30.7505C43.951 30.7505 43.9147 30.7596 43.9147 30.7687L43.9056 30.7596Z" fill="#277CE2"/>
  <path d="M44.7218 31.4952C44.7218 31.4952 44.749 31.4771 44.758 31.4771C44.749 31.4589 44.7399 31.4316 44.7399 31.4316C44.7218 31.4316 44.7036 31.4316 44.6946 31.4498C44.6764 31.4771 44.6946 31.4952 44.7218 31.4952Z" fill="#277CE2"/>
  <path d="M44.9031 31.604C44.9031 31.604 44.9031 31.5768 44.894 31.5586C44.8759 31.5586 44.8578 31.5586 44.8487 31.5768C44.8306 31.5949 44.8306 31.6222 44.8668 31.6222C44.8759 31.6222 44.894 31.6131 44.9031 31.604Z" fill="#277CE2"/>
  <path d="M43.7152 29.751C43.7152 29.751 43.7152 29.7691 43.7243 29.7782C43.7243 29.7782 43.7424 29.7782 43.7424 29.7691C43.7424 29.7691 43.7425 29.751 43.7334 29.751C43.7334 29.751 43.7152 29.751 43.7062 29.751H43.7152Z" fill="#277CE2"/>
  <path d="M43.6881 31.4409C43.6881 31.4409 43.67 31.4409 43.6609 31.45C43.6609 31.45 43.6609 31.4591 43.67 31.4682H43.6881V31.45V31.4409Z" fill="#277CE2"/>
  <path d="M50.3166 29.5149C50.3166 29.5149 50.2985 29.524 50.2894 29.5331C50.2894 29.5331 50.2985 29.5331 50.3076 29.5331C50.3076 29.5331 50.3166 29.5331 50.3257 29.524C50.3257 29.524 50.3257 29.5149 50.3166 29.5059V29.5149Z" fill="#277CE2"/>
  <path d="M43.7706 29.6602H43.7606V29.6702L43.7706 29.6602Z" fill="#277CE2"/>
  <path d="M44.3137 30.9046L44.3319 30.9137L44.3228 30.8955L44.3137 30.9046Z" fill="#277CE2"/>
  <path d="M47.8774 30.8413C47.8774 30.8413 47.9499 30.7687 47.8774 30.7505C47.8321 30.7414 47.823 30.7959 47.823 30.8413C47.8411 30.8413 47.8593 30.8413 47.8774 30.8413C47.8774 30.8595 47.8683 30.8777 47.8502 30.8868C47.9046 30.8868 47.9137 30.8868 47.8774 30.8413Z" fill="#277CE2"/>
  </g>
  <defs>
  <clipPath id="clip0_139_6435">
  <rect width="57" height="56" fill="white" transform="translate(10.5 12.7104)"/>
  </clipPath>
  </defs>
  </svg>
  