<svg width="81" height="81" viewBox="0 0 81 81" fill="none" xmlns="http://www.w3.org/2000/svg">
  <rect x="0.5" y="0.509277" width="80" height="80" rx="40" fill="#FCEB71"/>
  <g clip-path="url(#clip0_139_6425)">
  <path d="M40.5 25.4702H26.78L27.49 27.4002C29.5 32.8502 34.69 36.4802 40.5 36.4802C46.31 36.4802 51.51 32.8602 53.51 27.4002L54.22 25.4702H40.5Z" fill="#277CE2"/>
  <path d="M40.5001 32.5703L32.8501 44.9003H40.5001H48.1501L40.5001 32.5703Z" fill="#277CE2"/>
  <path d="M40.5001 43.5703H21.8601L24.0201 49.4403C26.0301 54.8903 31.2201 58.5203 37.0301 58.5203H43.9601C49.7701 58.5203 54.9701 54.9003 56.9701 49.4403L59.1301 43.5703H40.4901H40.5001Z" fill="#277CE2"/>
  <path d="M40.4999 54.3706L31.1799 69.4006H40.4999H49.8199L40.4999 54.3706Z" fill="#277CE2"/>
  <path d="M65.5 14.7104H15.5V26.0604H65.5V14.7104Z" fill="white"/>
  </g>
  <defs>
  <clipPath id="clip0_139_6425">
  <rect width="50" height="54.69" fill="white" transform="translate(15.5 14.7104)"/>
  </clipPath>
  </defs>
  </svg>
  