<svg width="20" height="20" viewBox="0 0 20 20" fill="none" xmlns="http://www.w3.org/2000/svg">
<g clip-path="url(#clip0_626_981)">
<path d="M25 10C25 18.2843 18.2843 25 10 25C1.71573 25 -5 18.2843 -5 10C-5 1.71573 1.71573 -5 10 -5C18.2843 -5 25 1.71573 25 10Z" fill="#101C3D"/>
<path d="M15.25 5.625H4.75C4.51794 5.625 4.29538 5.71719 4.13128 5.88128C3.96719 6.04538 3.875 6.26794 3.875 6.5V13.5C3.875 13.7321 3.96719 13.9546 4.13128 14.1187C4.29538 14.2828 4.51794 14.375 4.75 14.375H15.25C15.4821 14.375 15.7046 14.2828 15.8687 14.1187C16.0328 13.9546 16.125 13.7321 16.125 13.5V6.5C16.125 6.26794 16.0328 6.04538 15.8687 5.88128C15.7046 5.71719 15.4821 5.625 15.25 5.625ZM14.2875 6.5L10 9.46625L5.7125 6.5H14.2875ZM4.75 13.5V6.89812L9.75063 10.3587C9.82386 10.4096 9.91087 10.4368 10 10.4368C10.0891 10.4368 10.1761 10.4096 10.2494 10.3587L15.25 6.89812V13.5H4.75Z" fill="white"/>
</g>
<defs>
<clipPath id="clip0_626_981">
<rect width="20" height="20" rx="10" fill="white"/>
</clipPath>
</defs>
</svg>
