<svg width="60" height="60" viewBox="0 0 60 60" fill="none" xmlns="http://www.w3.org/2000/svg">
<g clip-path="url(#clip0_411_4991)">
<rect width="60" height="60" rx="30" fill="#D4D4D4"/>
<path d="M36.0763 29.126C36.0763 29.126 36.2618 36.8289 37.2869 39.4194C38.3413 42.0846 43.815 45.7392 46.2981 46.5528C48.7811 47.3696 55.0261 51.1381 56.3734 56.9471C57.7207 62.756 56.3734 81.9889 56.3734 81.9889H29.4863V29.126H36.0763Z" fill="#F2F2F2"/>
<path d="M23.8959 29.126C23.8959 29.126 23.7104 36.8289 22.6853 39.4194C21.6309 42.0846 16.1571 45.7392 13.6741 46.5528C11.1911 47.3696 4.94607 51.1381 3.59879 56.9471C2.25151 62.756 3.59879 81.9889 3.59879 81.9889H30.4858V29.126H23.8959Z" fill="#F2F2F2"/>
<path d="M56.3738 56.9503C55.0266 51.1414 48.7815 47.3696 46.2985 46.5561C43.8155 45.7392 38.345 42.0879 37.2873 39.4226C36.2622 36.8322 28.6602 41.7918 26.0828 41.961C25.3668 42.0066 21.8815 40.8187 21.1818 41.5477C19.0795 43.7378 15.5388 45.9443 13.6741 46.5561C11.1911 47.3729 4.94607 51.1414 3.59879 56.9503C2.25151 62.7593 3.59879 81.9922 3.59879 81.9922H56.3771C56.3771 81.9922 57.7244 62.7593 56.3771 56.9503H56.3738Z" fill="#F2F2F2"/>
<path d="M21.9395 40.656C22.2649 40.2297 22.5252 39.8131 22.6814 39.4193C23.1663 38.1925 23.4657 35.8168 23.6447 33.656L35.8339 35.8982C35.8339 35.8982 33.8846 41.6016 23.2086 40.6625L21.9427 40.6527L21.9395 40.656Z" fill="#0058C1"/>
<path d="M14.5947 22.5669C14.5947 30.3512 19.1149 39.4194 28.9267 39.4194C39.3079 39.4194 43.2586 29.1299 43.2586 21.3489C43.2586 13.5678 36.8411 7 28.9267 7C21.0122 7 14.5947 14.7826 14.5947 22.5669Z" fill="#F2F2F2"/>
<path d="M33.458 22.5783C34.0368 22.5783 34.5059 22.1091 34.5059 21.5304C34.5059 20.9517 34.0368 20.4825 33.458 20.4825C32.8793 20.4825 32.4102 20.9517 32.4102 21.5304C32.4102 22.1091 32.8793 22.5783 33.458 22.5783Z" fill="#0058C1"/>
<path d="M35.6836 20.8763C35.6836 20.8763 33.7408 19.835 31.1211 20.8861" stroke="#0058C1" stroke-width="0.78125" stroke-miterlimit="10"/>
<path d="M23.0371 22.5783C23.6159 22.5783 24.085 22.1091 24.085 21.5304C24.085 20.9517 23.6159 20.4825 23.0371 20.4825C22.4584 20.4825 21.9893 20.9517 21.9893 21.5304C21.9893 22.1091 22.4584 22.5783 23.0371 22.5783Z" fill="#0058C1"/>
<path d="M25.0984 20.8763C25.0984 20.8763 23.2728 19.835 20.8125 20.8861" stroke="#0058C1" stroke-width="0.78125" stroke-miterlimit="10"/>
<path d="M28.1374 21.1269L25.9668 28.9014H30.064" fill="#F2F2F2"/>
<path d="M28.1374 21.1269L25.9668 28.9014H30.064" stroke="#0058C1" stroke-width="0.78125" stroke-miterlimit="10"/>
</g>
<defs>
<clipPath id="clip0_411_4991">
<rect width="60" height="60" rx="30" fill="white"/>
</clipPath>
</defs>
</svg>
