<svg width="20" height="20" viewBox="0 0 20 20" fill="none" xmlns="http://www.w3.org/2000/svg">
<g clip-path="url(#clip0_626_966)">
<path fill-rule="evenodd" clip-rule="evenodd" d="M10 0C4.5 0 0 4.5 0 10C0 15.5 4.5 20 10 20C15.5 20 20 15.5 20 10C20 4.5 15.5 0 10 0ZM12.65 6.1C12.3 6.1 12 6.1 11.65 6.1C11.2 6.1 10.95 6.35 10.9 6.75C10.9 7.1 10.9 7.45 10.9 7.8C10.9 7.95 10.95 7.9 11.05 7.9C11.55 7.9 12.05 7.9 12.55 7.9C12.7 7.9 12.75 7.95 12.75 8.1C12.7 8.7 12.65 9.25 12.6 9.85C12.6 10 12.55 10 12.4 10C12 10 11.6 10 11.2 10C10.9 10 10.95 9.95 10.95 10.25C10.95 12.1 10.95 13.9 10.95 15.75C10.95 15.95 10.9 16 10.7 16C10 16 9.35 16 8.65 16C8.45 16 8.45 15.95 8.45 15.75C8.45 14.85 8.45 13.9 8.45 13C8.45 12.05 8.45 11.15 8.45 10.2C8.45 10.05 8.4 10 8.25 10C7.95 10 7.65 10 7.35 10C7.25 10 7.2 9.95 7.2 9.85C7.2 9.25 7.2 8.7 7.2 8.1C7.2 8 7.25 7.95 7.35 7.95C7.65 7.95 7.95 7.95 8.25 7.95C8.4 7.95 8.45 7.9 8.45 7.75C8.45 7.3 8.45 6.85 8.45 6.4C8.45 5.85 8.6 5.35 8.95 4.9C9.35 4.35 9.95 4.1 10.6 4.05C11.3 4 12 4.05 12.65 4.05C12.75 4.05 12.75 4.1 12.75 4.2C12.75 4.8 12.75 5.4 12.75 5.95C12.8 6.05 12.75 6.1 12.65 6.1Z" fill="#101C3D"/>
</g>
<defs>
<clipPath id="clip0_626_966">
<rect width="20" height="20" fill="white"/>
</clipPath>
</defs>
</svg>
