<svg width="40" height="40" viewBox="0 0 40 40" fill="none" xmlns="http://www.w3.org/2000/svg">
<g clip-path="url(#clip0_293_5673)">
<rect width="40" height="40" rx="20" fill="white"/>
<path d="M20 2.5C10.25 2.5 2.5 10.25 2.5 20C2.5 29.75 10.25 37.5 20 37.5C29.75 37.5 37.5 29.75 37.5 20C37.5 10.25 29.75 2.5 20 2.5ZM26.75 28.75L20 22L13.25 28.75L11.25 26.75L18 20L11.25 13.25L13.25 11.25L20 18L26.75 11.25L28.75 13.25L22 20L28.75 26.75L26.75 28.75Z" fill="#FF5C00"/>
</g>
<rect x="1.25" y="1.25" width="37.5" height="37.5" rx="18.75" stroke="#101C3D" stroke-width="2.5"/>
<defs>
<clipPath id="clip0_293_5673">
<rect width="40" height="40" rx="20" fill="white"/>
</clipPath>
</defs>
</svg>
