<svg width="200" height="198" viewBox="0 0 200 198" fill="none" xmlns="http://www.w3.org/2000/svg">
    <path
        d="M200 45.4447V34.8833C200 30.8062 197.265 27.2381 193.327 26.1802C187.372 24.582 181.862 23.8387 175.981 23.8387C169.386 23.8387 163.759 26.3947 159.71 31.1293C159.392 30.8119 159.064 30.5003 158.724 30.2001C153.331 25.3968 145.827 23.0638 135.788 23.0638C128.667 23.0638 122.606 24.2532 117.67 26.5948C117.67 26.5491 117.676 26.5005 117.676 26.4547V17.3457C117.676 14.5895 116.416 11.9849 114.253 10.2752C112.089 8.56548 109.266 7.9422 106.585 8.57977C104.034 9.18876 101.367 9.64621 98.8612 9.96928C96.6436 3.74794 91.1655 0.0969009 83.4897 0.0969009C76.457 0.0969009 72.2848 3.19328 70.0187 5.78932C68.4812 7.55337 67.3467 9.63477 66.638 11.9563C66.1037 13.3773 64.2776 16.9912 59.3253 17.7317C53.1327 18.658 14.4655 23.9816 9.0102 25.2253C5.52383 26.0201 3.2577 28.8277 2.07176 30.7548C1.68312 31.3209 1.3602 31.9298 1.10873 32.5731C1.08587 32.6246 1.07444 32.6532 1.07444 32.6532H1.08015C0.70008 33.6567 0.488612 34.7346 0.488612 35.8496V45.0558C0.488612 47.0829 1.1716 49.0357 2.40325 50.611C0.888686 53.7188 0.00280762 57.5071 0.00280762 62.0159V78.5871C0.00280762 88.6939 4.01498 92.5393 5.33237 93.8031C8.70728 97.0395 12.8766 98.0974 16.4344 98.4176C10.8563 102.938 7.43847 110.529 7.07841 120.172C6.93838 123.938 9.15308 127.394 12.6337 128.835C13.5053 129.196 14.2026 129.499 14.7227 129.742V178.457C14.7227 181.062 14.7227 188.987 20.7295 193.916C24.9417 197.37 30.1398 197.836 34.6721 197.836C38.3156 197.836 43.5109 197.476 47.8117 194.554C49.4291 196.106 51.6238 197.061 54.0414 197.061H92.0085C95.4205 197.061 98.5383 195.134 100.064 192.081L100.09 192.032C100.476 192.481 100.899 192.916 101.359 193.333C105.742 197.324 111.398 197.836 115.836 197.836C120.9 197.836 124.966 196.793 128.215 194.657C129.821 196.146 131.973 197.059 134.336 197.059H148.476C150.785 197.059 153.008 196.169 154.683 194.577L158.029 191.392C159.355 194.711 162.602 197.059 166.394 197.059H178.307C181.719 197.059 184.837 195.131 186.363 192.078L188.978 186.846C189.604 185.594 189.93 184.216 189.93 182.817V148.806C189.93 141.152 188.081 134.982 184.431 130.462C184.074 130.022 183.7 129.602 183.314 129.196H183.323C180.945 126.179 180.925 124.098 180.925 124.098V104.364C180.925 98.8522 183.491 98.0659 183.831 97.9859C183.843 97.9859 183.851 97.9802 183.863 97.9802C183.866 97.9802 183.868 97.9802 183.868 97.9802C186.86 97.3483 189.398 96.1875 191.538 94.4778C194.516 92.1019 198.065 87.5017 198.065 79.076V60.472C198.065 57.347 197.614 54.6538 196.822 52.3236C196.871 52.2836 196.919 52.2407 196.965 52.1978C198.897 50.4881 200 48.0321 200 45.4533V45.4447Z"
        fill="#277CE2" />
    <path
        d="M9.00452 62.0159C9.00452 52.1321 14.817 48.4496 21.1125 48.4496C25.7619 48.4496 30.7971 50.1936 33.9949 54.2649V53.4901C33.9949 46.8027 31.2829 44.0895 23.1471 44.0895C18.8864 44.0895 15.0113 44.4783 9.49032 45.0587V35.8525C15.3028 33.7196 21.6926 32.0728 29.6369 32.0728C33.8977 32.0728 37.967 33.1392 40.3875 34.6888L45.7142 29.1651L53.1727 40.2126L46.6829 43.2175C48.7176 45.5419 49.6864 48.9356 49.6864 54.8453V83.5275L47.0716 88.7597H33.9949V59.6886C33.0261 59.2998 30.3142 58.7194 28.4738 58.7194C25.1818 58.7194 23.5358 60.0746 23.5358 63.2739C26.8278 63.3711 29.5398 64.9207 29.5398 70.3472V80.231C29.5398 88.3708 26.0534 89.5345 19.5636 89.5345C12.2994 89.5345 9.00737 87.21 9.00737 78.5842V62.013L9.00452 62.0159ZM21.0153 82.8499C22.5642 82.8499 22.7585 82.3668 22.7585 78.6843V72.4829C22.7585 69.8669 21.8869 69.4781 20.6267 69.4781H19.0778V77.229C19.0778 82.3639 19.2721 82.8499 21.0153 82.8499Z"
        fill="#FCEB71" />
    <path
        d="M56.8506 72.3829C56.8506 64.7263 60.0455 62.3046 64.4063 62.3046H64.9864V59.7858C64.3091 59.9802 63.7261 60.0774 63.0489 60.0774C58.7881 60.0774 56.6562 57.1697 56.6562 50.4852V43.8951C56.6562 37.3049 59.271 32.6532 68.6671 32.6532C74.5767 32.6532 80.192 33.914 80.192 44.1838V67.4395C82.8068 69.378 86.1017 72.38 87.9392 74.4157V38.2713L90.6511 33.0391H103.631V88.7568H88.908C86.5847 85.4631 83.3869 82.2638 79.4176 78.6786C79.2233 87.5932 74.9625 89.5316 67.7955 89.5316C59.6597 89.5316 56.8506 87.11 56.8506 78.1954V72.38V72.3829ZM67.6011 53.2957V46.9972C67.6011 40.407 67.6011 39.9238 65.7608 39.9238C64.0176 39.9238 63.9205 40.407 63.9205 45.5447V48.6468C63.9205 53.0069 64.3091 53.2985 65.7608 53.2985H67.6011V53.2957ZM67.7955 69.6696C67.504 69.2808 66.7296 68.8948 65.9551 68.8948C64.6949 68.8948 64.1148 69.3808 64.1148 71.5109V77.3262C64.1148 81.8807 64.4063 82.2667 65.9551 82.2667C67.504 82.2667 67.7955 81.7835 67.7955 77.0346V69.6696Z"
        fill="white" />
    <path
        d="M89.7795 29.6511C78.3517 29.6511 74.7682 25.4855 74.7682 18.0233C74.7682 13.08 77.2858 9.1087 83.4841 9.1087C89.2966 9.1087 90.9426 12.1136 90.9426 16.7653C90.9426 17.8317 90.8455 18.801 90.6511 19.5758H90.7483C95.5921 19.5758 102.565 18.801 108.666 17.3457V26.4547C103.242 28.7791 96.1722 29.6511 89.7795 29.6511ZM83.7756 13.952C82.6125 13.952 82.2267 14.7268 82.2267 17.7317C82.2267 20.5421 82.5182 21.5114 85.2301 21.5114H85.4244V17.5373C85.4244 14.6296 85.2301 13.952 83.7784 13.952H83.7756Z"
        fill="white" />
    <path
        d="M130.073 69.9612L123.583 88.7596H111.961V51.4516C111.961 38.4657 120.194 32.0699 135.788 32.0699C151.382 32.0699 158.064 38.5629 158.064 51.4516V83.5275L155.449 88.7596H143.73V67.1508C143.149 72.8689 140.34 74.1269 136.465 74.1269C133.173 74.1269 130.944 72.8661 130.073 69.9612ZM135.497 43.7006C128.91 43.7006 126.295 46.4139 126.295 52.9069V56.2977C126.295 60.1746 125.035 66.6676 124.163 70.8333C124.743 68.992 125.326 66.9564 125.615 65.8928L127.649 58.9166C129.49 52.6181 132.105 50.1965 136.463 50.1965C140.046 50.1965 143.147 51.5545 143.727 56.2034V52.9097C143.727 46.0308 141.886 43.7035 135.494 43.7035L135.497 43.7006ZM136.66 68.606C137.823 68.606 138.403 67.9284 138.403 65.6984V57.6558C138.403 56.2034 137.917 55.5229 136.66 55.5229C135.982 55.5229 135.399 55.8145 134.917 56.5893V65.6984C134.917 67.8312 135.208 68.606 136.66 68.606Z"
        fill="white" />
    <path
        d="M177.919 89.5373C170.074 89.5373 166.974 87.3072 166.974 78.9759V74.713C166.974 68.0256 168.426 64.4404 173.366 63.6656V61.3411C173.366 57.2698 170.946 55.237 161.744 52.7153C162.036 44.4783 164.651 32.8505 175.981 32.8505C182.082 32.8505 187.023 33.8197 190.993 34.8861V45.4475C187.02 44.9615 182.954 44.4783 178.305 44.4783C176.561 44.4783 175.884 44.8671 175.787 46.3196C185.183 48.8384 189.055 52.5209 189.055 60.4662V79.0702C189.055 87.4044 184.406 89.5345 177.916 89.5345L177.919 89.5373ZM177.822 69.478H175.981C174.335 69.478 174.141 69.8669 174.141 75.2934V77.0374C174.141 82.2695 174.335 82.8528 176.078 82.8528C177.627 82.8528 177.822 82.2724 177.822 75.6822V69.4809V69.478Z"
        fill="white" />
    <path
        d="M39.4188 162.758H39.8074C43.0995 162.758 45.7143 164.794 45.7143 170.995V179.813C45.7143 186.403 42.6137 188.824 34.6722 188.824C27.3108 188.824 23.7273 187.275 23.7273 178.455V129.421C23.7273 124.092 21.6926 122.831 16.0745 120.507C16.3659 112.756 19.4637 102.775 30.1171 102.775C37.0898 102.775 44.1597 103.744 49.875 105.099V114.691C42.125 113.722 35.9267 112.753 33.1176 112.753C31.4716 112.753 30.6 113.236 30.0171 114.497C36.7955 117.016 39.4131 120.893 39.4131 127.289V162.755L39.4188 162.758ZM37.287 182.137C38.8358 182.137 39.1273 181.748 39.1273 176.71V174.192C39.1273 168.96 38.7387 168.765 36.9955 168.765H35.4466V175.453C35.4466 181.751 35.4466 182.14 37.287 182.14V182.137Z"
        fill="white" />
    <path
        d="M78.9347 164.405C75.3511 166.052 71.6704 169.057 69.7329 171.381V188.05H54.0415V159.27C53.5557 159.367 53.0727 159.367 52.5898 159.367C48.329 159.367 46.1971 156.557 46.1971 149.775V143.185C46.1971 136.498 48.8119 131.943 58.0136 131.943C64.0176 131.943 69.7329 133.204 69.7329 143.474V160.045C71.379 158.398 74.4795 156.362 77.9659 154.813C76.6085 153.458 75.6426 151.422 75.6426 148.417V142.216C75.6426 134.465 79.4205 131.943 85.6187 131.943C91.817 131.943 95.692 134.268 95.692 142.216V147.642C95.692 155.007 92.4 157.332 88.0392 158.204L94.6261 161.014V182.817L92.0114 188.05H78.9347V164.405ZM57.142 152.583V146.284C57.142 139.694 57.142 139.211 55.3017 139.211C53.5585 139.211 53.4613 139.694 53.4613 144.832V147.934C53.4613 152.294 53.85 152.586 55.3017 152.586H57.142V152.583ZM87.4562 144.54C87.4562 139.405 87.2619 138.63 85.5187 138.63C84.067 138.63 83.5812 139.405 83.5812 143.571V151.905C84.1613 152.002 84.55 152.002 85.0329 152.002C87.0676 152.002 87.4534 150.839 87.4534 147.448V144.54H87.4562Z"
        fill="white" />
    <path
        d="M115.836 188.824C107.992 188.824 104.891 186.594 104.891 178.263V174C104.891 167.313 106.343 163.727 111.284 162.953V150.258C111.284 144.929 108.766 143.185 104.408 143.185C101.89 143.185 100.339 143.379 98.0154 143.574V134.854C101.988 133.012 107.411 131.366 113.221 131.366C121.84 131.366 126.975 135.628 126.975 146.968V178.363C126.975 186.697 122.326 188.827 115.836 188.827V188.824ZM115.739 168.765H113.898C112.252 168.765 112.058 169.154 112.058 174.58V176.325C112.058 181.557 112.252 182.14 113.995 182.14C115.544 182.14 115.739 181.559 115.739 174.969V168.768V168.765Z"
        fill="#FCEB71" />
    <path
        d="M148.476 188.05H134.336V148.803C134.336 138.433 139.083 132.621 147.896 131.36L157.969 134.945L168.043 131.36C175.887 132.426 180.925 137.175 180.925 148.803V182.815L178.31 188.047H166.397V164.597C165.428 170.218 161.167 175.838 156.42 180.487L148.479 188.047L148.476 188.05ZM154.674 171.673C150.897 171.381 148.765 169.832 147.99 165.083C147.796 169.832 147.507 174.869 147.022 179.132L148.862 177.388C150.605 175.838 152.64 173.803 154.674 171.67V171.673ZM148.282 154.327C149.636 149.289 153.317 148.223 157.581 148.223C162.23 148.223 165.619 149.869 166.394 155.102V150.547C166.394 144.54 165.716 143.668 163.199 142.602L157.292 144.54L151.48 142.602C149.059 143.377 148.285 144.832 148.285 150.547V154.327H148.282ZM158.644 167.021V156.265C158.644 154.907 158.547 153.941 156.901 153.941C155.449 153.941 155.06 154.813 155.06 156.362V164.891C155.06 166.441 155.546 167.024 157.192 167.024H158.644V167.021Z"
        fill="white" />
    <path
        d="M82.4524 106.294L82.8325 105.991H83.4869V115.738C83.7641 115.626 84.1784 115.489 84.6242 115.489C85.9016 115.489 86.7646 115.987 86.7646 117.779V118.663C86.7646 120.458 86.1788 121.147 84.5556 121.147C83.0725 121.147 82.4524 120.484 82.4524 118.883V106.294ZM84.6614 120.538C85.4215 120.538 85.7987 120.178 85.7987 119.129V117.582C85.7987 116.504 85.3844 116.035 84.3499 116.035H83.4869V119.126C83.4869 120.204 83.9012 120.535 84.6614 120.535V120.538Z"
        fill="white" />
    <path
        d="M96.6665 110.131L92.7 121.036H91.5627V111.289C91.2855 111.401 90.8711 111.538 90.4253 111.538C89.1479 111.538 88.2849 111.04 88.2849 109.248V108.364C88.2849 106.569 89.0108 105.88 90.5625 105.88C92.0113 105.88 92.5971 106.543 92.5971 108.144V114.08C92.5971 116.481 92.4943 118.58 92.1828 120.484C92.9429 118.36 93.8031 115.543 94.2174 114.437L96.2864 108.916H97.0465L99.1498 114.52C99.5299 115.624 100.393 118.331 101.15 120.427C100.876 118.465 100.77 116.37 100.77 114.077V106.291L101.15 105.988H101.805V121.036H100.667L96.6665 110.131ZM91.5598 110.986V107.895C91.5598 106.818 91.2483 106.486 90.491 106.486C89.628 106.486 89.2479 106.846 89.2479 107.895V109.442C89.2479 110.52 89.6623 110.989 90.6968 110.989H91.5598V110.986Z"
        fill="white" />
    <path
        d="M99.0098 103.201V100.468H99.8042V103.89H100.942V100.468H101.805V104.359H99.4242C97.6981 102.646 95.6978 101.571 93.7317 101.571C91.7656 101.571 91.1455 102.786 91.1455 104.167V104.362H90.2482V104.059C90.2482 102.403 91.3169 100.911 93.766 100.911C95.732 100.911 97.4581 101.683 99.0098 103.201Z"
        fill="white" />
    <path d="M100.907 99.364V95.4728H101.805V99.364H100.907Z" fill="white" />
    <path
        d="M107.22 112.367C107.22 110.849 107.98 110.214 109.323 110.214C110.532 110.214 111.324 110.712 111.324 112.175V113.859C111.324 115.157 110.22 115.489 109.495 115.489C108.909 115.489 108.46 115.406 108.217 115.24V117.671C108.217 119.823 109.217 120.541 112.081 120.541C114.944 120.541 116.222 119.575 116.222 117.256V110.437C116.222 107.538 114.67 106.434 111.772 106.434C110.046 106.434 108.22 106.849 106.771 107.401V106.712C108.426 106.131 110.015 105.774 112.118 105.774C115.499 105.774 117.259 107.292 117.259 110.22V116.707C117.259 120.27 115.604 121.207 112.084 121.207C108.563 121.207 107.22 120.435 107.22 117.479V112.373V112.367ZM108.151 112.173V114.934H108.98C109.912 114.934 110.36 114.686 110.36 113.857V112.09C110.36 111.261 110.086 110.82 109.292 110.82C108.497 110.82 108.154 111.318 108.154 112.173H108.151Z"
        fill="white" />
</svg>
    