<svg width="192" height="164" viewBox="0 0 192 164" fill="none" xmlns="http://www.w3.org/2000/svg">
  <g clip-path="url(#clip0_54_974)">
  <path d="M94.6285 2.76477C94.6285 2.76477 85.9669 -2.86531 74.8367 5.3777C74.8367 5.3777 59.6138 6.5398 58.827 21.1636C58.827 21.1636 45.7768 30.8935 50.4974 43.8354C55.218 56.7774 67.4815 58.6974 67.4815 58.6974H96.8589L123.263 57.1816C123.263 57.1816 139.186 48.7654 138.478 38.3858C137.771 28.0063 132.422 26.31 132.422 26.31C132.422 26.31 131.397 18.3341 126.922 13.1443C122.447 7.95454 115.128 7.48537 115.128 7.48537C115.128 7.48537 112.905 1.84086 105.874 0.888074C98.8439 -0.0647076 94.6285 2.76477 94.6285 2.76477Z" fill="white"/>
  <path d="M79.2397 59.2098C79.2397 59.2098 79.0015 76.3166 78.0631 83.2604C77.1176 90.2041 47.1916 99.6237 38.9413 101.609C30.6911 103.594 9.95366 112.768 5.47847 126.901C1.00329 141.034 5.47847 187.821 5.47847 187.821H94.7801V59.2098H79.2397Z" fill="#FCEB71"/>
  <path d="M110.321 59.2098C110.321 59.2098 110.559 76.3166 111.497 83.2604C112.443 90.2041 142.369 99.6237 150.619 101.609C158.869 103.594 179.607 112.768 184.082 126.901C188.557 141.034 184.082 187.821 184.082 187.821H94.7801V59.2098H110.321Z" fill="#FCEB71"/>
  <path d="M188.326 121.855C181.029 101.06 162.493 98.5482 154.047 96.5632C147.739 95.0835 127.016 94.4989 117.546 88.8544C117.546 88.8544 110.494 88.1181 94.7873 93.8637C79.5139 90.8249 81.4123 101.154 77.6878 94.6288C75.5657 90.9043 74.3675 88.8616 74.3675 88.8616C64.8974 94.5061 44.1744 95.0908 37.8658 96.5705C29.4135 98.5554 10.8848 101.067 3.58732 121.862C-5.50741 147.79 5.62281 187.828 5.62281 187.828H186.298C186.298 187.828 197.435 147.79 188.333 121.862L188.326 121.855Z" fill="white"/>
  <path d="M78.4095 79.8751C78.4095 79.8751 84.6315 87.9305 105.874 86.8333L112.176 85.6857L108.754 67.3951L78.4095 79.8751Z" fill="#0058C1"/>
  <path d="M129.499 39.6634C129.499 58.5963 118.499 84.2565 94.6286 84.2565C69.3726 84.2565 59.7582 58.5963 59.7582 39.6634C59.7582 20.7305 75.3708 5.37769 94.6286 5.37769C113.886 5.37769 129.499 20.7305 129.499 39.6634Z" fill="#FCEB71"/>
  <path d="M62.1329 48.8014C62.1329 48.8014 60.1912 46.1812 57.3618 47.5599C54.5323 48.9385 55.7305 67.6766 65.6409 67.193L62.1257 48.8014H62.1329Z" fill="#FCEB71"/>
  <path d="M126.778 48.8014C126.778 48.8014 128.719 46.1812 131.549 47.5599C134.378 48.9385 133.18 67.6766 123.27 67.193L126.785 48.8014H126.778Z" fill="#FCEB71"/>
  <path d="M94.311 32.8351L90.9113 51.8619L96.8589 52.9013" fill="#FCEB71"/>
  <path d="M94.311 32.8351L90.9113 51.8619L96.8589 52.9013" stroke="#0058C1" stroke-width="0.5" stroke-miterlimit="10"/>
  <path d="M80.5028 36.4081C81.91 36.4081 83.0508 35.2673 83.0508 33.8601C83.0508 32.4529 81.91 31.3121 80.5028 31.3121C79.0956 31.3121 77.9548 32.4529 77.9548 33.8601C77.9548 35.2673 79.0956 36.4081 80.5028 36.4081Z" fill="#0058C1"/>
  <path d="M75.9988 30.7491C75.9988 30.7491 80.7266 28.2156 87.1001 30.7708" stroke="#0058C1" stroke-width="0.5" stroke-miterlimit="10"/>
  <path d="M87.692 39.5118C87.692 39.5118 84.913 44.9759 78.4095 48.1591" stroke="#0058C1" stroke-width="0.5" stroke-miterlimit="10"/>
  <path d="M104.994 36.4081C106.401 36.4081 107.542 35.2673 107.542 33.8601C107.542 32.4529 106.401 31.3121 104.994 31.3121C103.586 31.3121 102.446 32.4529 102.446 33.8601C102.446 35.2673 103.586 36.4081 104.994 36.4081Z" fill="#0058C1"/>
  <path d="M100.49 30.7491C100.49 30.7491 105.217 28.2156 111.591 30.7708" stroke="#0058C1" stroke-width="0.5" stroke-miterlimit="10"/>
  <path d="M102.9 39.5118C102.9 39.5118 105.679 44.9759 112.183 48.1591" stroke="#0058C1" stroke-width="0.5" stroke-miterlimit="10"/>
  <path d="M93.7912 64.9916C95.4854 64.9916 96.8588 63.2433 96.8588 61.0866C96.8588 58.9299 95.4854 57.1816 93.7912 57.1816C92.097 57.1816 90.7235 58.9299 90.7235 61.0866C90.7235 63.2433 92.097 64.9916 93.7912 64.9916Z" fill="#0058C1"/>
  <path d="M101.327 56.301C101.327 56.301 104.719 57.8024 104.301 61.0866" stroke="#0058C1" stroke-width="0.5" stroke-miterlimit="10"/>
  <path d="M78.0631 82.0405L94.7801 93.8637L82.2568 105.983L72.5846 88.8544L78.0631 82.0405Z" fill="white" stroke="#0058C1" stroke-width="0.5" stroke-miterlimit="10"/>
  <path d="M111.497 82.0405L94.7801 93.8637L107.303 105.983L116.976 88.8544L111.497 82.0405Z" fill="white" stroke="#0058C1" stroke-width="0.5" stroke-miterlimit="10"/>
  <path d="M74.8367 11.4336C74.8367 11.4336 81.7371 17.9804 102.438 11.4336C102.438 11.4336 104.358 20.9253 117.647 25.1768C117.647 25.1768 116.261 42.6878 130.437 48.9097L132.422 36.4153L124.721 17.6989L107.542 5.3849L90.9113 3.71753L77.9549 7.25437L74.8439 11.4408L74.8367 11.4336Z" fill="white"/>
  <path d="M55.4562 66.6155L54.489 45.1779C54.424 43.7199 55.4634 42.4495 56.8998 42.2185C58.4517 41.9731 59.9097 43.0197 60.1768 44.5716L63.1651 62.2125L55.449 66.6227L55.4562 66.6155Z" fill="#FCEB71" stroke="#0058C1" stroke-width="0.5" stroke-miterlimit="10"/>
  <path d="M63.1723 62.2053L80.972 78.2222C84.7037 81.5786 86.0607 86.8478 84.4222 91.59L78.7055 108.09L62.335 100.432L68.1888 88.0604L57.2751 72.3828C56.0986 70.6938 55.4634 68.6871 55.4562 66.6228L55.3912 50.3317C55.4418 49.119 56.2791 48.0868 57.4556 47.7909C58.9714 47.4156 60.4944 48.3828 60.7903 49.9202L63.1723 62.2198V62.2053Z" fill="#FCEB71" stroke="#0058C1" stroke-width="0.5" stroke-miterlimit="10"/>
  <path d="M63.1722 91.655L85.1079 98.7865L80.9864 116.117L55.4706 107.109L63.1722 91.655Z" fill="white" stroke="#0058C1" stroke-width="0.5" stroke-miterlimit="10"/>
  <path d="M132.437 67.7344L133.404 46.2968C133.469 44.8388 132.429 43.5684 130.993 43.3374C129.441 43.092 127.983 44.1386 127.716 45.6905L124.728 63.3314L132.444 67.7416L132.437 67.7344Z" fill="#FCEB71" stroke="#0058C1" stroke-width="0.5" stroke-miterlimit="10"/>
  <path d="M124.721 63.3313L106.921 79.3482C103.189 82.7046 101.832 87.9737 103.471 92.716L109.187 109.216L125.558 101.558L119.704 89.1864L130.618 73.5088C131.794 71.8197 132.429 69.8131 132.437 67.7488L132.502 51.4576C132.451 50.245 131.614 49.2128 130.437 48.9169C128.921 48.5415 127.398 49.5088 127.103 51.0462L124.721 63.3458V63.3313Z" fill="#FCEB71" stroke="#0058C1" stroke-width="0.5" stroke-miterlimit="10"/>
  <path d="M124.721 92.781L102.785 99.9052L106.906 117.243L132.422 108.228L124.721 92.781Z" fill="white" stroke="#0058C1" stroke-width="0.5" stroke-miterlimit="10"/>
  <path d="M132.422 108.228L161.785 167.899" stroke="#0058C1" stroke-width="0.5" stroke-miterlimit="10"/>
  <path d="M106.906 117.243L120.354 187.821" stroke="#0058C1" stroke-width="0.5" stroke-miterlimit="10"/>
  <path d="M80.9864 116.117L72.5846 189.597" stroke="#0058C1" stroke-width="0.5" stroke-miterlimit="10"/>
  <path d="M55.4706 107.109L27.1036 163.46" stroke="#0058C1" stroke-width="0.5" stroke-miterlimit="10"/>
  <rect x="122" y="48.6931" width="70" height="70" rx="35" fill="#83D3FF"/>
  <path d="M152.833 69.7758C152.553 69.5218 152.413 69.176 152.413 68.7383V63.2913C152.413 62.9131 152.477 62.5456 152.612 62.1836C152.747 61.8269 152.951 61.5135 153.226 61.2595C153.21 61.2271 153.178 61.1893 153.124 61.1407C153.07 61.092 153.027 61.065 152.989 61.0542L151.858 62.5726L150.839 62.4051C150.78 62.0863 150.645 61.7243 150.43 61.3082C150.22 60.8975 150.031 60.6219 149.864 60.4868L150.839 59.9626C151.033 60.1572 151.216 60.4112 151.378 60.7246C151.54 61.0326 151.653 61.3244 151.712 61.5892L152.876 59.968C153.296 59.9735 153.759 60.1031 154.26 60.3409C154.761 60.5841 155.112 60.8651 155.316 61.1785C155.031 61.4108 154.837 61.681 154.74 61.9836C154.643 62.2862 154.594 62.6105 154.594 62.9617V67.8845C154.902 67.8845 155.149 67.9818 155.333 68.1817C155.516 68.3762 155.602 68.6356 155.602 68.9544C155.602 69.3327 155.483 69.6299 155.241 69.8406C154.999 70.0514 154.638 70.1595 154.153 70.1595C153.549 70.1595 153.107 70.0352 152.827 69.7812L152.833 69.7758ZM154.654 69.4786C154.761 69.3705 154.81 69.2138 154.81 69.0085C154.81 68.8031 154.756 68.6464 154.654 68.5437C154.546 68.4357 154.417 68.387 154.26 68.387C154.104 68.387 153.97 68.4411 153.873 68.5437C153.77 68.6518 153.722 68.8031 153.722 69.0085C153.722 69.2138 153.77 69.3705 153.873 69.4786C153.975 69.5867 154.104 69.6407 154.26 69.6407C154.417 69.6407 154.551 69.5867 154.654 69.4786Z" fill="#0058C1"/>
  <path d="M156.41 66.0149C156.41 65.2638 156.679 64.6856 157.224 64.2695C157.768 63.8534 158.603 63.6481 159.734 63.6481C160.866 63.6481 161.711 63.8534 162.25 64.2695C162.789 64.6856 163.058 65.2692 163.058 66.0149V70.0461H160.876V65.5069C160.876 65.1503 160.769 64.8747 160.553 64.6856C160.338 64.491 160.063 64.3938 159.734 64.3938C159.406 64.3938 159.12 64.4856 158.91 64.6694C158.7 64.8531 158.592 65.1341 158.592 65.5015V68.9275C158.738 68.8572 158.915 68.733 159.136 68.5492C159.357 68.3655 159.497 68.2034 159.567 68.0683C159.325 68.0143 159.125 67.89 158.964 67.7009C158.802 67.5063 158.721 67.2523 158.721 66.9335C158.721 66.6147 158.813 66.3769 159.007 66.177C159.195 65.9771 159.438 65.8744 159.729 65.8744C160.074 65.8744 160.343 65.9825 160.526 66.1986C160.709 66.4148 160.801 66.6796 160.801 66.9876C160.801 67.382 160.709 67.7387 160.532 68.0629C160.348 68.3817 160.111 68.6843 159.81 68.9599C159.508 69.2355 159.077 69.5976 158.506 70.0461H156.415V66.0149H156.41ZM160.106 67.4091C160.203 67.301 160.251 67.1605 160.251 66.9768C160.251 66.793 160.203 66.6525 160.106 66.5499C160.009 66.4472 159.89 66.3986 159.756 66.3986C159.621 66.3986 159.508 66.4472 159.411 66.5499C159.314 66.6525 159.271 66.793 159.271 66.9768C159.271 67.1605 159.319 67.301 159.411 67.4091C159.503 67.5171 159.621 67.5658 159.756 67.5658C159.89 67.5658 160.009 67.5117 160.106 67.4091Z" fill="#0058C1"/>
  <path d="M158.764 62.1404C158.872 62.1079 158.996 62.0485 159.147 61.9458C159.298 61.8486 159.422 61.7459 159.519 61.6378C159.212 61.6162 158.98 61.5027 158.834 61.2974C158.689 61.092 158.614 60.8759 158.614 60.6489C158.614 60.3841 158.705 60.1464 158.894 59.9356C159.082 59.7249 159.379 59.6168 159.788 59.6168C160.224 59.6168 160.564 59.7195 160.796 59.9302C161.027 60.1356 161.146 60.395 161.146 60.6976C161.146 61.0002 161.07 61.2704 160.919 61.4865C160.769 61.7027 160.596 61.8702 160.397 61.9891C160.903 61.9512 161.286 61.8594 161.55 61.7135C161.814 61.5676 161.997 61.373 162.105 61.1299C162.212 60.8867 162.299 60.5463 162.363 60.1086H163.699C163.629 60.984 163.333 61.6216 162.81 62.0107C162.288 62.3997 161.561 62.5943 160.634 62.5943H158.754V62.1404H158.764ZM160.101 61.0542C160.187 60.9569 160.23 60.8218 160.23 60.6435C160.23 60.4652 160.187 60.3355 160.101 60.2328C160.014 60.1356 159.896 60.0869 159.745 60.0869C159.6 60.0869 159.486 60.1356 159.4 60.2382C159.314 60.3409 159.271 60.476 159.271 60.6435C159.271 60.811 159.314 60.9461 159.4 61.0488C159.486 61.1515 159.605 61.2001 159.745 61.2001C159.896 61.2001 160.014 61.1515 160.101 61.0542Z" fill="#0058C1"/>
  <path d="M147.036 81.4425C146.842 80.994 146.61 80.6428 146.346 80.378C146.249 80.5347 146.109 80.6536 145.931 80.7238C145.754 80.7941 145.581 80.8319 145.414 80.8319C145.075 80.8319 144.805 80.7184 144.601 80.4915C144.396 80.2645 144.294 79.9889 144.294 79.6647C144.294 79.3188 144.396 79.027 144.595 78.7893C144.795 78.5569 145.096 78.438 145.495 78.438C145.964 78.438 146.352 78.6164 146.664 78.973C146.977 79.3297 147.203 79.7728 147.348 80.3131V78.1787C147.348 77.8004 147.23 77.4816 146.993 77.2222C146.756 76.9628 146.411 76.8331 145.958 76.8331C145.506 76.8331 145.129 76.9358 144.811 77.1357C144.487 77.3357 144.283 77.6167 144.18 77.9787H143.448C143.582 77.4329 143.911 77.0007 144.434 76.671C144.956 76.3468 145.64 76.1847 146.492 76.1847C147.397 76.1847 148.129 76.3468 148.69 76.6656C149.25 76.9844 149.53 77.4924 149.53 78.1787V82.5827H147.348C147.332 82.2747 147.23 81.8964 147.03 81.4479L147.036 81.4425ZM145.818 80.124C145.921 80.0105 145.969 79.8538 145.969 79.6485C145.969 79.4431 145.921 79.2864 145.818 79.1783C145.716 79.0703 145.587 79.0162 145.43 79.0162C145.274 79.0162 145.15 79.0703 145.048 79.1837C144.94 79.2972 144.892 79.4539 144.892 79.6485C144.892 79.843 144.945 80.0105 145.048 80.124C145.156 80.2375 145.279 80.2969 145.43 80.2969C145.581 80.2969 145.721 80.2375 145.818 80.124Z" fill="#0058C1"/>
  <path d="M146.055 74.8499C145.673 74.5851 145.484 74.2393 145.484 73.807C145.484 73.499 145.597 73.2396 145.824 73.0397C146.05 72.8397 146.373 72.7371 146.799 72.7371C147.154 72.7371 147.44 72.8397 147.666 73.0397C147.892 73.2396 148 73.4774 148 73.7476C148 74.0826 147.844 74.3744 147.526 74.623C148.113 74.5797 148.566 74.3798 148.878 74.034C149.191 73.6881 149.358 73.2828 149.379 72.8289H150.829C150.737 73.6287 150.398 74.2339 149.81 74.6392C149.223 75.0444 148.517 75.2444 147.693 75.2444C146.982 75.2444 146.438 75.1147 146.055 74.8499ZM147.041 74.0664C147.111 73.9961 147.149 73.9043 147.149 73.78C147.149 73.6557 147.111 73.5638 147.041 73.4882C146.971 73.4179 146.869 73.3801 146.739 73.3801C146.621 73.3801 146.524 73.4179 146.449 73.4882C146.373 73.5584 146.341 73.6557 146.341 73.78C146.341 73.9043 146.379 73.9961 146.449 74.0664C146.519 74.1366 146.616 74.169 146.739 74.169C146.869 74.169 146.966 74.1366 147.041 74.0664Z" fill="#0058C1"/>
  <path d="M150.624 81.8855H151.222V78.4488C150.942 78.4488 150.705 78.3407 150.511 78.1192C150.317 77.8976 150.214 77.6436 150.214 77.3464C150.214 76.9682 150.333 76.6764 150.575 76.4764C150.818 76.2765 151.179 76.1738 151.664 76.1738C152.267 76.1738 152.709 76.2981 152.989 76.5521C153.269 76.8061 153.409 77.1519 153.409 77.5896V81.8801H154.293C154.519 81.8801 154.686 81.8315 154.788 81.7397C154.896 81.6478 154.945 81.4749 154.945 81.2209V76.2981H157.127V81.4262C157.127 82.1882 156.75 82.5718 155.995 82.5718H150.618V81.8801L150.624 81.8855ZM151.949 77.7895C152.052 77.6815 152.1 77.5302 152.1 77.3248C152.1 77.1195 152.052 76.9628 151.949 76.8547C151.847 76.7466 151.718 76.6926 151.561 76.6926C151.405 76.6926 151.27 76.7466 151.163 76.8547C151.055 76.9628 151.006 77.1195 151.006 77.3248C151.006 77.5302 151.06 77.6869 151.163 77.7895C151.27 77.8976 151.4 77.9462 151.561 77.9462C151.723 77.9462 151.852 77.8922 151.949 77.7895Z" fill="#0058C1"/>
  <path d="M158.258 78.7406C158.258 78.0381 158.387 77.4761 158.646 77.0546C158.905 76.6331 159.368 76.3413 160.03 76.1738L161.593 76.8331L163.134 76.1738C163.796 76.3413 164.26 76.6331 164.518 77.0546C164.777 77.4761 164.906 78.0381 164.906 78.7406V82.5772H162.724V78.5352C162.724 78.2489 162.713 78.0111 162.687 77.8328C162.66 77.6544 162.606 77.4977 162.525 77.368L161.598 77.903L160.65 77.368C160.569 77.4977 160.51 77.649 160.488 77.8328C160.461 78.0165 160.451 78.2489 160.451 78.5352V81.4641C160.596 81.3938 160.774 81.2695 160.995 81.0858C161.216 80.9021 161.356 80.74 161.426 80.6049C161.183 80.5508 160.984 80.4265 160.822 80.2374C160.661 80.0429 160.58 79.7889 160.58 79.4701C160.58 79.1513 160.672 78.9135 160.866 78.7136C161.054 78.5136 161.297 78.411 161.587 78.411C161.932 78.411 162.202 78.519 162.385 78.7352C162.568 78.9513 162.66 79.2161 162.66 79.5241C162.66 79.9186 162.568 80.2752 162.39 80.5995C162.207 80.9183 161.97 81.2209 161.668 81.4965C161.367 81.7721 160.936 82.1341 160.365 82.5826H158.274V78.746L158.258 78.7406ZM161.959 79.9456C162.056 79.8375 162.105 79.697 162.105 79.5133C162.105 79.3296 162.056 79.1891 161.959 79.0864C161.862 78.9838 161.744 78.9351 161.609 78.9351C161.474 78.9351 161.361 78.9838 161.264 79.0864C161.167 79.1891 161.124 79.3296 161.124 79.5133C161.124 79.697 161.173 79.8375 161.264 79.9456C161.356 80.0537 161.474 80.1023 161.609 80.1023C161.744 80.1023 161.862 80.0483 161.959 79.9456Z" fill="#0058C1"/>
  <path d="M168.273 78.1192C168.273 77.6977 168.209 77.3735 168.079 77.1519C167.95 76.9303 167.724 76.8223 167.401 76.8223C167.137 76.8223 166.905 76.952 166.7 77.2005C166.496 77.4545 166.382 77.7517 166.35 78.0921H165.639C165.714 77.5085 165.946 77.0438 166.339 76.698C166.733 76.3521 167.266 76.1738 167.945 76.1738C168.742 76.1738 169.362 76.3359 169.798 76.6602C170.234 76.9844 170.455 77.4761 170.455 78.1354V82.5718H168.273V78.1138V78.1192Z" fill="#0058C1"/>
  <path d="M135.463 92.6498C135.463 92.3634 135.55 92.0716 135.727 91.7798C135.905 91.488 136.174 91.261 136.535 91.0935C136.385 90.98 136.196 90.8719 135.964 90.7639C135.733 90.6558 135.496 90.5747 135.259 90.5153V90.3694C135.528 89.8831 135.948 89.4886 136.509 89.1752C137.069 88.8672 137.742 88.7104 138.518 88.7104C139.089 88.7104 139.612 88.7915 140.08 88.9482C140.549 89.1049 140.921 89.3481 141.196 89.6669C141.47 89.9857 141.611 90.3856 141.611 90.8503V95.1084H139.429V90.5261C139.429 90.2181 139.326 89.9587 139.127 89.7588C138.928 89.5588 138.647 89.4562 138.297 89.4562C137.688 89.4562 137.225 89.6885 136.918 90.1478C137.182 90.2181 137.446 90.3316 137.715 90.4883C137.985 90.645 138.216 90.8233 138.41 91.0232V91.1583C138.125 91.3421 137.925 91.542 137.818 91.7635C137.71 91.9851 137.656 92.2823 137.656 92.6552V95.1084H135.474V92.6444L135.463 92.6498Z" fill="#0058C1"/>
  <path d="M144.967 90.6558C144.967 90.2343 144.902 89.9101 144.773 89.6885C144.644 89.467 144.417 89.3589 144.094 89.3589C143.83 89.3589 143.599 89.4886 143.394 89.7372C143.189 89.9911 143.076 90.2883 143.044 90.6288H142.332C142.408 90.0452 142.64 89.5804 143.033 89.2346C143.426 88.8888 143.96 88.7104 144.638 88.7104C145.436 88.7104 146.055 88.8726 146.492 89.1968C146.928 89.521 147.149 90.0127 147.149 90.672V95.1084H144.967V90.6504V90.6558Z" fill="#0058C1"/>
  <path d="M150.257 94.9248C150.015 94.7248 149.897 94.433 149.897 94.0548C149.897 93.7576 149.993 93.5036 150.193 93.282C150.392 93.0605 150.629 92.9524 150.904 92.9524V92.2499C150.904 92.0176 150.888 91.8393 150.861 91.7204C150.834 91.6015 150.769 91.5204 150.683 91.4664C150.597 91.4124 150.457 91.3853 150.268 91.3853C149.988 91.3853 149.622 91.3962 149.164 91.4178C148.706 91.4394 148.302 91.4772 147.946 91.5312V90.8936C147.946 90.2127 148.129 89.6778 148.496 89.2887C148.862 88.8996 149.503 88.7051 150.414 88.7051C150.678 88.7051 150.974 88.7483 151.308 88.8402C151.54 88.9104 151.739 88.9429 151.906 88.9429C152.073 88.9429 152.245 88.9104 152.396 88.851C152.553 88.7916 152.725 88.6673 152.924 88.4781L153.501 89.3968C153.258 89.5913 153.037 89.721 152.827 89.775C152.617 89.8291 152.386 89.8615 152.132 89.8615C151.89 89.8615 151.647 89.8183 151.394 89.7372C151.373 89.7318 151.287 89.7048 151.146 89.667C151.001 89.6291 150.834 89.6075 150.64 89.6075C150.527 89.6075 150.403 89.6453 150.268 89.7264C150.134 89.8075 150.02 89.9263 149.929 90.0831C149.837 90.2398 149.794 90.4289 149.794 90.6504L150.053 90.6396C150.161 90.6342 150.322 90.6288 150.548 90.6288C151.136 90.6288 151.61 90.6667 151.965 90.7477C152.326 90.8288 152.601 90.9855 152.79 91.2178C152.984 91.4502 153.081 91.7906 153.081 92.2391V93.7954C153.081 94.2331 152.94 94.5789 152.66 94.8329C152.38 95.0869 151.938 95.2112 151.335 95.2112C150.85 95.2112 150.489 95.1085 150.247 94.9086L150.257 94.9248ZM151.637 94.5519C151.739 94.4438 151.788 94.2871 151.788 94.0818C151.788 93.8765 151.739 93.7198 151.637 93.6171C151.534 93.509 151.405 93.4604 151.249 93.4604C151.093 93.4604 150.958 93.5144 150.855 93.6171C150.753 93.7198 150.699 93.8765 150.699 94.0818C150.699 94.2871 150.753 94.4438 150.855 94.5519C150.963 94.66 151.093 94.714 151.249 94.714C151.405 94.714 151.54 94.66 151.637 94.5519Z" fill="#0058C1"/>
  <path d="M154.74 94.849C154.46 94.595 154.32 94.2492 154.32 93.8115V88.8401H156.502V92.9577C156.809 92.9577 157.057 93.055 157.24 93.2549C157.423 93.4495 157.509 93.7088 157.509 94.0277C157.509 94.4059 157.391 94.7031 157.148 94.9139C156.906 95.1246 156.545 95.2327 156.06 95.2327C155.456 95.2327 155.015 95.1084 154.735 94.8544L154.74 94.849ZM156.561 94.5518C156.669 94.4437 156.717 94.287 156.717 94.0817C156.717 93.8763 156.663 93.7196 156.561 93.617C156.453 93.5089 156.324 93.4603 156.162 93.4603C156.001 93.4603 155.871 93.5143 155.774 93.617C155.672 93.725 155.623 93.8763 155.623 94.0817C155.623 94.287 155.672 94.4437 155.774 94.5518C155.877 94.6599 156.006 94.7139 156.162 94.7139C156.318 94.7139 156.453 94.6599 156.561 94.5518Z" fill="#0058C1"/>
  <path d="M158.926 94.8491C158.646 94.5952 158.506 94.2493 158.506 93.8116V92.1905C158.506 91.7204 158.667 91.3367 158.991 91.0341C159.314 90.7315 159.761 90.5802 160.327 90.5802C160.893 90.5802 161.297 90.6937 161.609 90.9206C161.922 91.1476 162.175 91.4556 162.363 91.8501V90.7153C162.363 90.3208 162.234 89.9966 161.975 89.748C161.717 89.494 161.297 89.3698 160.726 89.3698C160.278 89.3698 159.896 89.4724 159.567 89.6724C159.239 89.8723 159.028 90.1533 158.926 90.5153H158.188C158.323 89.9696 158.657 89.5373 159.185 89.2076C159.713 88.8834 160.402 88.7213 161.253 88.7213C162.191 88.7213 162.972 88.8834 163.602 89.2076C164.233 89.5319 164.545 90.0344 164.545 90.7153V95.1193H162.52C162.374 94.1304 162.186 93.2929 161.954 92.612C161.722 91.9311 161.426 91.5907 161.07 91.5907C160.973 91.5907 160.882 91.6339 160.806 91.715C160.726 91.796 160.688 91.9473 160.688 92.1581V92.9632C161.011 92.9848 161.259 93.1037 161.437 93.3145C161.609 93.5252 161.695 93.7738 161.695 94.0548C161.695 94.433 161.577 94.7248 161.334 94.9302C161.092 95.1355 160.731 95.2382 160.246 95.2382C159.643 95.2382 159.201 95.1139 158.921 94.8599L158.926 94.8491ZM160.747 94.5519C160.855 94.4438 160.903 94.2871 160.903 94.0818C160.903 93.8765 160.849 93.7197 160.747 93.6171C160.639 93.509 160.51 93.4604 160.348 93.4604C160.187 93.4604 160.057 93.5144 159.96 93.6171C159.858 93.7252 159.81 93.8765 159.81 94.0818C159.81 94.2871 159.858 94.4438 159.96 94.5519C160.063 94.66 160.192 94.714 160.348 94.714C160.505 94.714 160.639 94.66 160.747 94.5519Z" fill="#0058C1"/>
  <path d="M164.551 85.3223V87.6729H158.409C158.468 87.1109 158.727 86.6462 159.179 86.2787C159.632 85.9059 160.278 85.7113 161.113 85.6897V85.3277H162.369V85.9059C162.692 86.0356 162.945 86.2193 163.128 86.4624V85.3277H164.556L164.551 85.3223ZM162.59 87.0028C162.455 86.7921 162.266 86.63 162.035 86.5165C161.803 86.403 161.523 86.3436 161.21 86.3436C160.817 86.3436 160.494 86.403 160.235 86.5273C159.977 86.6462 159.815 86.8083 159.75 87.0028H162.59Z" fill="#0058C1"/>
  <path d="M165.682 92.6281C165.682 92.1742 165.817 91.8067 166.081 91.5257C166.345 91.2448 166.776 91.1043 167.368 91.1043C167.859 91.1043 168.23 91.2069 168.489 91.4123C168.748 91.6176 168.871 91.904 168.871 92.2769C168.871 92.5741 168.775 92.828 168.575 93.0496C168.381 93.2711 168.144 93.3792 167.864 93.3792V94.4221H168.678C168.871 94.4221 169.033 94.3789 169.152 94.287C169.27 94.1952 169.335 94.0547 169.335 93.8547V90.7098C169.335 90.3315 169.216 90.0127 168.985 89.7533C168.753 89.494 168.408 89.3643 167.956 89.3643C167.503 89.3643 167.126 89.4669 166.808 89.6669C166.485 89.8668 166.28 90.1478 166.178 90.5099H165.445C165.58 89.9641 165.908 89.5318 166.431 89.2022C166.954 88.8779 167.638 88.7158 168.489 88.7158C169.394 88.7158 170.127 88.8779 170.682 89.1968C171.242 89.5156 171.517 90.0235 171.517 90.7098V93.7737C171.517 94.26 171.393 94.6005 171.15 94.8058C170.908 95.0111 170.547 95.1138 170.084 95.1138H165.682V92.6281ZM167.923 92.72C168.031 92.6119 168.08 92.4606 168.08 92.2552C168.08 92.0499 168.026 91.8932 167.923 91.7851C167.821 91.6771 167.686 91.623 167.525 91.623C167.363 91.623 167.234 91.6771 167.137 91.7851C167.034 91.8932 166.986 92.0499 166.986 92.2552C166.986 92.4606 167.034 92.6173 167.137 92.72C167.239 92.828 167.368 92.8767 167.525 92.8767C167.681 92.8767 167.816 92.8226 167.923 92.72Z" fill="#0058C1"/>
  <path d="M172.594 92.6498C172.594 92.3634 172.68 92.0716 172.858 91.7798C173.036 91.488 173.305 91.261 173.666 91.0935C173.516 90.98 173.327 90.8719 173.095 90.7639C172.864 90.6558 172.627 90.5747 172.39 90.5153V90.3694C172.659 89.8831 173.079 89.4886 173.639 89.1752C174.2 88.8672 174.873 88.7104 175.649 88.7104C176.22 88.7104 176.743 88.7915 177.211 88.9482C177.68 89.1049 178.052 89.3481 178.327 89.6669C178.601 89.9857 178.741 90.3856 178.741 90.8503V95.1084H176.559V90.5261C176.559 90.2181 176.457 89.9587 176.258 89.7588C176.058 89.5588 175.778 89.4562 175.428 89.4562C174.819 89.4562 174.356 89.6885 174.049 90.1478C174.313 90.2181 174.577 90.3316 174.846 90.4883C175.116 90.645 175.347 90.8233 175.541 91.0232V91.1583C175.256 91.3421 175.056 91.542 174.949 91.7635C174.841 91.9851 174.787 92.2823 174.787 92.6552V95.1084H172.605V92.6444L172.594 92.6498Z" fill="#0058C1"/>
  <path d="M141.632 105.186C141.632 104.9 141.718 104.608 141.896 104.316C142.074 104.025 142.343 103.798 142.704 103.63C142.553 103.517 142.365 103.409 142.133 103.3C141.901 103.192 141.664 103.111 141.427 103.052V102.906C141.697 102.42 142.117 102.025 142.677 101.712C143.238 101.404 143.911 101.247 144.687 101.247C145.258 101.247 145.78 101.328 146.249 101.485C146.718 101.642 147.09 101.885 147.364 102.204C147.639 102.522 147.779 102.922 147.779 103.387V107.645H145.597V103.063C145.597 102.755 145.495 102.495 145.296 102.295C145.096 102.095 144.816 101.993 144.466 101.993C143.857 101.993 143.394 102.225 143.087 102.684C143.351 102.755 143.615 102.868 143.884 103.025C144.153 103.182 144.385 103.36 144.579 103.56V103.695C144.293 103.879 144.094 104.079 143.986 104.3C143.879 104.522 143.825 104.819 143.825 105.192V107.645H141.643V105.181L141.632 105.186Z" fill="#0058C1"/>
  <path d="M144.299 99.9232C143.916 99.6584 143.728 99.3125 143.728 98.8802C143.728 98.5722 143.841 98.3129 144.067 98.1129C144.294 97.913 144.617 97.8103 145.042 97.8103C145.398 97.8103 145.684 97.913 145.91 98.1129C146.136 98.3129 146.244 98.5506 146.244 98.8208C146.244 99.1558 146.088 99.4476 145.77 99.6962C146.357 99.653 146.81 99.453 147.122 99.1072C147.434 98.7614 147.601 98.3561 147.623 97.9022H149.072C148.981 98.7019 148.641 99.3071 148.054 99.7124C147.467 100.118 146.761 100.318 145.937 100.318C145.226 100.318 144.681 100.188 144.299 99.9232ZM145.279 99.1396C145.349 99.0694 145.387 98.9775 145.387 98.8532C145.387 98.7289 145.349 98.6371 145.279 98.5614C145.209 98.4912 145.107 98.4533 144.978 98.4533C144.859 98.4533 144.762 98.4912 144.687 98.5614C144.611 98.6317 144.579 98.7289 144.579 98.8532C144.579 98.9775 144.617 99.0694 144.687 99.1396C144.757 99.2099 144.854 99.2423 144.978 99.2423C145.107 99.2423 145.204 99.2099 145.279 99.1396Z" fill="#0058C1"/>
  <path d="M155.553 105.819C155.661 106.002 155.715 106.224 155.715 106.483C155.715 107.337 155.192 107.764 154.153 107.764C153.194 107.764 152.677 107.396 152.601 106.662C152.316 106.813 152.079 106.97 151.901 107.126C151.723 107.283 151.604 107.461 151.551 107.65H149.46V103.522C149.18 103.522 148.943 103.414 148.749 103.192C148.555 102.971 148.453 102.717 148.453 102.42C148.453 102.041 148.571 101.75 148.814 101.55C149.056 101.35 149.417 101.247 149.902 101.247C150.505 101.247 150.947 101.371 151.227 101.625C151.507 101.879 151.648 102.225 151.648 102.663V106.294C151.718 106.197 151.809 106.11 151.922 106.035C152.041 105.959 152.197 105.867 152.391 105.765C152.709 105.592 152.941 105.435 153.091 105.3C153.242 105.165 153.318 104.992 153.318 104.787V101.371H155.5V104.581C155.5 104.862 155.354 105.127 155.069 105.376C155.279 105.484 155.44 105.629 155.548 105.813L155.553 105.819ZM150.193 102.863C150.295 102.755 150.344 102.603 150.344 102.398C150.344 102.193 150.295 102.036 150.193 101.928C150.091 101.82 149.961 101.766 149.805 101.766C149.649 101.766 149.514 101.82 149.406 101.928C149.299 102.036 149.25 102.193 149.25 102.398C149.25 102.603 149.304 102.76 149.406 102.863C149.514 102.971 149.643 103.019 149.805 103.019C149.967 103.019 150.096 102.965 150.193 102.863ZM154.578 106.97C154.686 106.856 154.735 106.683 154.735 106.456C154.735 106.229 154.681 106.056 154.578 105.932C154.471 105.813 154.33 105.748 154.158 105.748C153.986 105.748 153.856 105.808 153.743 105.932C153.63 106.056 153.582 106.229 153.582 106.456C153.582 106.683 153.636 106.845 153.743 106.959C153.851 107.072 153.991 107.137 154.158 107.137C154.325 107.137 154.471 107.083 154.578 106.97Z" fill="#0058C1"/>
  <path d="M156.943 107.386C156.663 107.132 156.523 106.786 156.523 106.348V101.377H158.705V105.494C159.012 105.494 159.26 105.592 159.443 105.792C159.626 105.986 159.713 106.245 159.713 106.564C159.713 106.943 159.594 107.24 159.352 107.45C159.109 107.661 158.748 107.769 158.263 107.769C157.66 107.769 157.218 107.645 156.938 107.391L156.943 107.386ZM158.764 107.088C158.872 106.98 158.921 106.824 158.921 106.618C158.921 106.413 158.867 106.256 158.764 106.154C158.657 106.046 158.527 105.997 158.366 105.997C158.204 105.997 158.075 106.051 157.978 106.154C157.876 106.262 157.827 106.413 157.827 106.618C157.827 106.824 157.876 106.98 157.978 107.088C158.08 107.197 158.21 107.251 158.366 107.251C158.522 107.251 158.657 107.197 158.764 107.088Z" fill="#0058C1"/>
  <path d="M160.505 105.165C160.505 104.711 160.639 104.343 160.903 104.062C161.167 103.781 161.598 103.641 162.191 103.641C162.681 103.641 163.053 103.744 163.311 103.949C163.57 104.154 163.694 104.441 163.694 104.813C163.694 105.111 163.597 105.365 163.398 105.586C163.204 105.808 162.967 105.916 162.687 105.916V106.959H163.5C163.694 106.959 163.856 106.916 163.974 106.824C164.093 106.732 164.157 106.591 164.157 106.391V103.246C164.157 102.868 164.039 102.549 163.807 102.29C163.575 102.031 163.231 101.901 162.778 101.901C162.326 101.901 161.948 102.004 161.631 102.203C161.307 102.403 161.103 102.684 161 103.046H160.268C160.402 102.501 160.731 102.068 161.253 101.739C161.776 101.415 162.46 101.252 163.311 101.252C164.217 101.252 164.949 101.415 165.504 101.733C166.065 102.052 166.339 102.56 166.339 103.246V106.31C166.339 106.797 166.215 107.137 165.973 107.342C165.73 107.548 165.37 107.65 164.906 107.65H160.505V105.165ZM162.746 105.257C162.854 105.149 162.902 104.997 162.902 104.792C162.902 104.587 162.848 104.43 162.746 104.322C162.643 104.214 162.509 104.16 162.347 104.16C162.185 104.16 162.056 104.214 161.959 104.322C161.857 104.43 161.808 104.587 161.808 104.792C161.808 104.997 161.857 105.154 161.959 105.257C162.062 105.365 162.191 105.413 162.347 105.413C162.503 105.413 162.638 105.359 162.746 105.257Z" fill="#0058C1"/>
  <path d="M167.74 105.894C167.449 105.294 167.158 104.803 166.862 104.419L168.365 103.468C168.704 103.825 169.017 104.289 169.302 104.857C169.588 105.43 169.798 105.975 169.927 106.499H170.224C170.331 106.499 170.38 106.429 170.38 106.283V103.527C170.1 103.527 169.863 103.419 169.669 103.198C169.475 102.976 169.372 102.722 169.372 102.425C169.372 102.047 169.491 101.755 169.733 101.555C169.976 101.355 170.337 101.252 170.822 101.252C171.425 101.252 171.867 101.377 172.147 101.631C172.427 101.885 172.567 102.231 172.567 102.668V106.143C172.567 106.559 172.389 106.916 172.034 107.207C171.678 107.499 171.14 107.65 170.418 107.65H168.327C168.23 107.078 168.036 106.489 167.745 105.894H167.74ZM171.113 102.863C171.215 102.755 171.263 102.603 171.263 102.398C171.263 102.193 171.215 102.036 171.113 101.928C171.01 101.82 170.881 101.766 170.725 101.766C170.568 101.766 170.434 101.82 170.326 101.928C170.218 102.036 170.17 102.193 170.17 102.398C170.17 102.603 170.224 102.76 170.326 102.863C170.434 102.971 170.563 103.019 170.725 103.019C170.886 103.019 171.016 102.965 171.113 102.863Z" fill="#0058C1"/>
  <rect x="19" y="92.6931" width="70" height="70" rx="35" fill="#83D3FF"/>
  <path d="M42.2121 126.31C41.9319 126.056 41.7918 125.71 41.7918 125.272V119.825C41.7918 119.447 41.8565 119.08 41.9912 118.718C42.1259 118.361 42.3306 118.047 42.6054 117.793C42.5892 117.761 42.5569 117.723 42.503 117.675C42.4491 117.626 42.406 117.599 42.3683 117.588L41.2369 119.107L40.2187 118.939C40.1594 118.62 40.0247 118.258 39.8092 117.842C39.5991 117.431 39.4105 117.156 39.2435 117.021L40.2187 116.497C40.4126 116.691 40.5958 116.945 40.7574 117.259C40.9191 117.567 41.0322 117.858 41.0915 118.123L42.2552 116.502C42.6754 116.507 43.1387 116.637 43.6398 116.875C44.1408 117.118 44.491 117.399 44.6957 117.712C44.4102 117.945 44.2162 118.215 44.1192 118.518C44.0223 118.82 43.9738 119.144 43.9738 119.496V124.418C44.2809 124.418 44.5287 124.516 44.7119 124.716C44.8951 124.91 44.9813 125.17 44.9813 125.488C44.9813 125.867 44.8627 126.164 44.6203 126.375C44.3779 126.585 44.0169 126.693 43.532 126.693C42.9286 126.693 42.4868 126.569 42.2067 126.315L42.2121 126.31ZM44.033 126.013C44.1408 125.904 44.1893 125.748 44.1893 125.542C44.1893 125.337 44.1354 125.18 44.033 125.078C43.9253 124.97 43.796 124.921 43.6398 124.921C43.4835 124.921 43.3488 124.975 43.2519 125.078C43.1495 125.186 43.101 125.337 43.101 125.542C43.101 125.748 43.1495 125.904 43.2519 126.013C43.3542 126.121 43.4835 126.175 43.6398 126.175C43.796 126.175 43.9307 126.121 44.033 126.013Z" fill="#0058C1"/>
  <path d="M45.7893 122.549C45.7893 121.798 46.0587 121.22 46.6028 120.804C47.147 120.387 47.982 120.182 49.1134 120.182C50.2448 120.182 51.0906 120.387 51.6294 120.804C52.1681 121.22 52.4375 121.803 52.4375 122.549V126.58H50.2556V122.041C50.2556 121.684 50.1478 121.409 49.9323 121.22C49.7168 121.025 49.4421 120.928 49.1134 120.928C48.7848 120.928 48.4992 121.02 48.2891 121.203C48.079 121.387 47.9713 121.668 47.9713 122.036V125.462C48.1167 125.391 48.2945 125.267 48.5154 125.083C48.7363 124.9 48.8764 124.737 48.9464 124.602C48.704 124.548 48.5046 124.424 48.343 124.235C48.1814 124.04 48.1006 123.786 48.1006 123.468C48.1006 123.149 48.1921 122.911 48.3861 122.711C48.5747 122.511 48.8171 122.408 49.108 122.408C49.4528 122.408 49.7222 122.517 49.9054 122.733C50.0886 122.949 50.1801 123.214 50.1801 123.522C50.1801 123.916 50.0886 124.273 49.9108 124.597C49.7276 124.916 49.4905 125.218 49.1888 125.494C48.8871 125.77 48.4561 126.132 47.8851 126.58H45.7947V122.549H45.7893ZM49.4852 123.943C49.5821 123.835 49.6306 123.695 49.6306 123.511C49.6306 123.327 49.5821 123.187 49.4852 123.084C49.3882 122.981 49.2697 122.933 49.135 122.933C49.0003 122.933 48.8871 122.981 48.7902 123.084C48.6932 123.187 48.6501 123.327 48.6501 123.511C48.6501 123.695 48.6986 123.835 48.7902 123.943C48.8818 124.051 49.0003 124.1 49.135 124.1C49.2697 124.1 49.3882 124.046 49.4852 123.943Z" fill="#0058C1"/>
  <path d="M48.1384 118.68C48.2461 118.647 48.3701 118.588 48.5209 118.485C48.6718 118.388 48.7957 118.285 48.8927 118.177C48.5856 118.156 48.3539 118.042 48.2084 117.837C48.063 117.631 47.9875 117.415 47.9875 117.188C47.9875 116.924 48.0791 116.686 48.2677 116.475C48.4563 116.264 48.7526 116.156 49.162 116.156C49.5984 116.156 49.9378 116.259 50.1695 116.47C50.4012 116.675 50.5197 116.934 50.5197 117.237C50.5197 117.54 50.4443 117.81 50.2934 118.026C50.1426 118.242 49.9702 118.41 49.7708 118.528C50.2773 118.491 50.6598 118.399 50.9238 118.253C51.1877 118.107 51.3709 117.912 51.4787 117.669C51.5864 117.426 51.6726 117.086 51.7373 116.648H53.0734C53.0033 117.523 52.707 118.161 52.1844 118.55C51.6618 118.939 50.9345 119.134 50.0079 119.134H48.1276V118.68H48.1384ZM49.4799 117.588C49.5661 117.491 49.6092 117.356 49.6092 117.178C49.6092 116.999 49.5661 116.87 49.4799 116.767C49.3937 116.67 49.2752 116.621 49.1243 116.621C48.9789 116.621 48.8657 116.67 48.7795 116.772C48.6933 116.875 48.6502 117.01 48.6502 117.178C48.6502 117.345 48.6933 117.48 48.7795 117.583C48.8657 117.686 48.9842 117.734 49.1243 117.734C49.2752 117.734 49.3937 117.686 49.4799 117.588Z" fill="#0058C1"/>
  <path d="M54.1939 126.31C53.9138 126.056 53.7737 125.71 53.7737 125.272V123.651C53.7737 123.181 53.9353 122.798 54.2586 122.495C54.5818 122.192 55.029 122.041 55.5947 122.041C56.1604 122.041 56.5644 122.154 56.8769 122.381C57.1894 122.608 57.4426 122.916 57.6312 123.311V122.176C57.6312 121.782 57.5018 121.457 57.2432 121.209C56.9846 120.955 56.5644 120.831 55.9933 120.831C55.5462 120.831 55.1637 120.933 54.835 121.133C54.5064 121.333 54.2963 121.614 54.1939 121.976H53.4558C53.5905 121.43 53.9245 120.998 54.4525 120.668C54.9805 120.344 55.6701 120.182 56.5213 120.182C57.4587 120.182 58.2399 120.344 58.8703 120.668C59.5006 120.993 59.8131 121.495 59.8131 122.176V126.58H57.7874C57.6419 125.591 57.4534 124.754 57.2217 124.073C56.99 123.392 56.6937 123.052 56.3381 123.052C56.2412 123.052 56.1496 123.095 56.0742 123.176C55.9933 123.257 55.9556 123.408 55.9556 123.619V124.424C56.2789 124.446 56.5267 124.565 56.7045 124.775C56.8769 124.986 56.9631 125.235 56.9631 125.516C56.9631 125.894 56.8446 126.186 56.6021 126.391C56.3597 126.596 55.9987 126.699 55.5138 126.699C54.9104 126.699 54.4687 126.575 54.1885 126.321L54.1939 126.31ZM56.0149 126.013C56.1226 125.905 56.1711 125.748 56.1711 125.543C56.1711 125.337 56.1173 125.181 56.0149 125.078C55.9071 124.97 55.7778 124.921 55.6162 124.921C55.4546 124.921 55.3253 124.975 55.2283 125.078C55.1259 125.186 55.0775 125.337 55.0775 125.543C55.0775 125.748 55.1259 125.905 55.2283 126.013C55.3307 126.121 55.46 126.175 55.6162 126.175C55.7724 126.175 55.9071 126.121 56.0149 126.013Z" fill="#0058C1"/>
  <path d="M58.143 129.309C57.782 129.309 57.5019 129.217 57.3079 129.033C57.114 128.85 57.0116 128.596 57.0116 128.277C57.0116 127.958 57.1247 127.737 57.3456 127.558C57.5665 127.38 57.8898 127.293 58.3154 127.293C58.9242 127.293 59.3282 127.429 59.5276 127.699C59.7269 127.969 59.8239 128.315 59.8239 128.736V130.552H58.1484V129.314L58.143 129.309ZM58.5147 128.704C58.6063 128.612 58.6494 128.471 58.6494 128.288C58.6494 128.104 58.6009 127.969 58.5093 127.866C58.4177 127.769 58.2992 127.72 58.1645 127.72C58.0191 127.72 57.9005 127.769 57.809 127.866C57.7174 127.964 57.6689 128.104 57.6689 128.288C57.6689 128.471 57.7174 128.607 57.809 128.704C57.9005 128.801 58.0245 128.844 58.1645 128.844C58.3046 128.844 58.4231 128.796 58.5147 128.704Z" fill="#0058C1"/>
  <path d="M55.5193 118.68C55.627 118.647 55.7509 118.588 55.9018 118.485C56.0526 118.388 56.1765 118.285 56.2735 118.177C55.9664 118.156 55.7348 118.042 55.5893 117.837C55.4438 117.631 55.3684 117.415 55.3684 117.188C55.3684 116.924 55.46 116.686 55.6486 116.475C55.8371 116.264 56.1334 116.156 56.5429 116.156C56.9793 116.156 57.3187 116.259 57.5504 116.47C57.782 116.675 57.9006 116.934 57.9006 117.237C57.9006 117.54 57.8251 117.81 57.6743 118.026C57.5234 118.242 57.351 118.41 57.1517 118.528C57.6581 118.491 58.0406 118.399 58.3046 118.253C58.5686 118.107 58.7518 117.912 58.8595 117.669C58.9673 117.426 59.0535 117.086 59.1181 116.648H60.4542C60.3842 117.523 60.0879 118.161 59.5653 118.55C59.0427 118.939 58.3154 119.134 57.3887 119.134H55.5085V118.68H55.5193ZM56.8608 117.588C56.947 117.491 56.9901 117.356 56.9901 117.178C56.9901 116.999 56.947 116.87 56.8608 116.767C56.7746 116.67 56.656 116.621 56.5052 116.621C56.3597 116.621 56.2466 116.67 56.1604 116.772C56.0742 116.875 56.0311 117.01 56.0311 117.178C56.0311 117.345 56.0742 117.48 56.1604 117.583C56.2466 117.686 56.3651 117.734 56.5052 117.734C56.656 117.734 56.7746 117.686 56.8608 117.588Z" fill="#0058C1"/>
  <path d="M67.5927 124.743C67.7005 124.927 67.7543 125.148 67.7543 125.408C67.7543 126.261 67.2317 126.688 66.192 126.688C65.233 126.688 64.7158 126.321 64.6403 125.586C64.3548 125.737 64.1178 125.894 63.94 126.051C63.7622 126.207 63.6437 126.386 63.5898 126.575H61.4994V122.446C61.2193 122.446 60.9822 122.338 60.7883 122.117C60.5943 121.895 60.4919 121.641 60.4919 121.344C60.4919 120.966 60.6105 120.674 60.8529 120.474C61.0953 120.274 61.4563 120.171 61.9412 120.171C62.5446 120.171 62.9864 120.296 63.2665 120.55C63.5467 120.804 63.6867 121.149 63.6867 121.587V125.218C63.7568 125.121 63.8484 125.035 63.9615 124.959C64.08 124.883 64.2363 124.792 64.4302 124.689C64.7481 124.516 64.9798 124.359 65.1306 124.224C65.2815 124.089 65.3569 123.916 65.3569 123.711V120.296H67.5388V123.505C67.5388 123.786 67.3934 124.051 67.1078 124.3C67.3179 124.408 67.4796 124.554 67.5873 124.738L67.5927 124.743ZM62.2321 121.787C62.3345 121.679 62.383 121.528 62.383 121.322C62.383 121.117 62.3345 120.96 62.2321 120.852C62.1298 120.744 62.0005 120.69 61.8442 120.69C61.688 120.69 61.5533 120.744 61.4455 120.852C61.3378 120.96 61.2893 121.117 61.2893 121.322C61.2893 121.528 61.3432 121.684 61.4455 121.787C61.5533 121.895 61.6826 121.944 61.8442 121.944C62.0058 121.944 62.1351 121.89 62.2321 121.787ZM66.6176 125.894C66.7253 125.78 66.7738 125.608 66.7738 125.381C66.7738 125.154 66.7199 124.981 66.6176 124.856C66.5098 124.738 66.3697 124.673 66.1973 124.673C66.0249 124.673 65.8956 124.732 65.7825 124.856C65.6694 124.981 65.6209 125.154 65.6209 125.381C65.6209 125.608 65.6748 125.77 65.7825 125.883C65.8903 125.997 66.0303 126.061 66.1973 126.061C66.3644 126.061 66.5098 126.007 66.6176 125.894Z" fill="#0058C1"/>
  <path d="M35.9517 138.846C35.6716 138.592 35.5315 138.247 35.5315 137.809V132.837H37.7134V136.955C38.0205 136.955 38.2684 137.052 38.4515 137.252C38.6347 137.447 38.7209 137.706 38.7209 138.025C38.7209 138.403 38.6024 138.7 38.36 138.911C38.1175 139.122 37.7565 139.23 37.2717 139.23C36.6683 139.23 36.2265 139.106 35.9463 138.852L35.9517 138.846ZM37.7727 138.549C37.8805 138.441 37.9289 138.284 37.9289 138.079C37.9289 137.874 37.8751 137.717 37.7727 137.614C37.665 137.506 37.5357 137.458 37.374 137.458C37.2124 137.458 37.0831 137.512 36.9861 137.614C36.8838 137.722 36.8353 137.874 36.8353 138.079C36.8353 138.284 36.8838 138.441 36.9861 138.549C37.0885 138.657 37.2178 138.711 37.374 138.711C37.5303 138.711 37.665 138.657 37.7727 138.549Z" fill="#0058C1"/>
  <path d="M41.3285 138.841C40.8705 138.582 40.6442 138.155 40.6442 137.55V137.128C40.6442 136.809 40.7197 136.539 40.8759 136.318C41.0322 136.096 41.253 135.842 41.5494 135.561C41.808 135.318 41.9965 135.113 42.115 134.951C42.2336 134.783 42.2982 134.594 42.2982 134.383C42.2982 133.74 41.9804 133.416 41.3339 133.416C41.1453 133.416 40.9729 133.454 40.8167 133.524C40.6604 133.594 40.5527 133.697 40.4826 133.827L40.6173 133.816C40.9406 133.816 41.1776 133.918 41.3231 134.129C41.4685 134.334 41.544 134.583 41.544 134.859C41.544 135.177 41.4416 135.437 41.2369 135.648C41.0322 135.853 40.7574 135.961 40.4126 135.961C39.9762 135.961 39.6637 135.826 39.4859 135.55C39.3081 135.275 39.2166 134.956 39.2166 134.583C39.2166 134.264 39.2974 133.962 39.4644 133.675C39.6314 133.389 39.8792 133.156 40.2186 132.978C40.558 132.8 40.9621 132.713 41.4362 132.713C42.1689 132.713 42.7292 132.87 43.1225 133.178C43.5158 133.486 43.7098 133.891 43.7098 134.383C43.7098 134.745 43.6667 135.037 43.5858 135.264C43.505 135.485 43.3757 135.729 43.2141 135.983C43.0848 136.188 42.9878 136.366 42.9232 136.523C42.8585 136.68 42.8262 136.869 42.8262 137.096V137.836C42.8262 138.025 42.8747 138.182 42.9771 138.301C43.0794 138.42 43.2303 138.485 43.4242 138.485C43.6182 138.485 43.769 138.425 43.866 138.306C43.963 138.187 44.0115 138.031 44.0115 137.836V132.843H46.2042V137.55C46.2042 138.155 45.9779 138.587 45.52 138.841C45.062 139.101 44.3616 139.225 43.4188 139.225C42.476 139.225 41.7756 139.095 41.3177 138.841H41.3285ZM40.7682 135.307C40.8651 135.199 40.9136 135.053 40.9136 134.869C40.9136 134.686 40.8651 134.545 40.7682 134.437C40.6712 134.329 40.5527 134.28 40.418 134.28C40.2833 134.28 40.1648 134.334 40.0732 134.437C39.9762 134.545 39.9331 134.686 39.9331 134.869C39.9331 135.053 39.9816 135.204 40.0732 135.313C40.1648 135.421 40.2833 135.469 40.418 135.469C40.5527 135.469 40.6712 135.415 40.7682 135.307Z" fill="#0058C1"/>
  <path d="M41.9104 131.216C42.0181 131.184 42.142 131.125 42.2929 131.022C42.4437 130.925 42.5677 130.822 42.6646 130.714C42.3575 130.692 42.1259 130.579 41.9804 130.373C41.8349 130.168 41.7595 129.952 41.7595 129.725C41.7595 129.46 41.8511 129.222 42.0397 129.012C42.2282 128.801 42.5246 128.693 42.934 128.693C43.3704 128.693 43.7098 128.796 43.9415 129.006C44.1731 129.212 44.2917 129.471 44.2917 129.774C44.2917 130.076 44.2162 130.346 44.0654 130.563C43.9145 130.779 43.7421 130.946 43.5428 131.065C44.0492 131.027 44.4317 130.935 44.6957 130.79C44.9597 130.644 45.1429 130.449 45.2506 130.206C45.3584 129.963 45.4446 129.622 45.5092 129.185H46.8454C46.7753 130.06 46.479 130.698 45.9564 131.087C45.4338 131.476 44.7065 131.67 43.7798 131.67H41.8996V131.216H41.9104ZM43.2519 130.125C43.3381 130.028 43.3812 129.892 43.3812 129.714C43.3812 129.536 43.3381 129.406 43.2519 129.303C43.1657 129.206 43.0471 129.158 42.8963 129.158C42.7508 129.158 42.6377 129.206 42.5515 129.309C42.4653 129.412 42.4222 129.547 42.4222 129.714C42.4222 129.882 42.4653 130.017 42.5515 130.119C42.6377 130.222 42.7562 130.271 42.8963 130.271C43.0471 130.271 43.1657 130.222 43.2519 130.125Z" fill="#0058C1"/>
  <path d="M49.5714 134.653C49.5714 134.232 49.5067 133.908 49.3774 133.686C49.2481 133.465 49.0219 133.356 48.6986 133.356C48.4346 133.356 48.203 133.486 47.9982 133.735C47.7935 133.989 47.6804 134.286 47.648 134.626H46.9369C47.0123 134.043 47.244 133.578 47.6373 133.232C48.0306 132.886 48.5639 132.708 49.2428 132.708C50.0401 132.708 50.6597 132.87 51.0961 133.194C51.5325 133.519 51.7533 134.01 51.7533 134.67V139.106H49.5714V134.648V134.653Z" fill="#0058C1"/>
  <path d="M54.8674 138.928C54.625 138.728 54.5064 138.436 54.5064 138.058C54.5064 137.76 54.6034 137.506 54.8028 137.285C55.0021 137.063 55.2391 136.955 55.5139 136.955V136.253C55.5139 136.02 55.4977 135.842 55.4708 135.723C55.4439 135.604 55.3792 135.523 55.293 135.469C55.2068 135.415 55.0667 135.388 54.8782 135.388C54.598 135.388 54.2317 135.399 53.7737 135.421C53.3158 135.442 52.9117 135.48 52.5562 135.534V134.896C52.5562 134.216 52.7393 133.681 53.1057 133.292C53.472 132.902 54.1132 132.708 55.0236 132.708C55.2876 132.708 55.5839 132.751 55.918 132.843C56.1496 132.913 56.349 132.946 56.516 132.946C56.683 132.946 56.8554 132.913 57.0063 132.854C57.1625 132.794 57.3349 132.67 57.5342 132.481L58.1107 133.4C57.8683 133.594 57.6474 133.724 57.4373 133.778C57.2271 133.832 56.9955 133.864 56.7423 133.864C56.4998 133.864 56.2574 133.821 56.0042 133.74C55.9826 133.735 55.8964 133.708 55.7563 133.67C55.6109 133.632 55.4439 133.61 55.2499 133.61C55.1368 133.61 55.0129 133.648 54.8782 133.729C54.7435 133.81 54.6304 133.929 54.5388 134.086C54.4472 134.243 54.4041 134.432 54.4041 134.653L54.6627 134.642C54.7704 134.637 54.9321 134.632 55.1583 134.632C55.7456 134.632 56.2197 134.669 56.5753 134.751C56.9362 134.832 57.211 134.988 57.3995 135.221C57.5935 135.453 57.6905 135.793 57.6905 136.242V137.798C57.6905 138.236 57.5504 138.582 57.2702 138.836C56.9901 139.09 56.5483 139.214 55.9449 139.214C55.46 139.214 55.0991 139.111 54.8566 138.911L54.8674 138.928ZM56.2412 138.549C56.3436 138.441 56.3921 138.285 56.3921 138.079C56.3921 137.874 56.3436 137.717 56.2412 137.614C56.1389 137.506 56.0096 137.458 55.8533 137.458C55.6971 137.458 55.5624 137.512 55.46 137.614C55.3577 137.717 55.3038 137.874 55.3038 138.079C55.3038 138.285 55.3577 138.441 55.46 138.549C55.5678 138.657 55.6971 138.711 55.8533 138.711C56.0096 138.711 56.1443 138.657 56.2412 138.549Z" fill="#0058C1"/>
  <path d="M59.0427 136.626C59.0427 136.172 59.1774 135.804 59.4414 135.523C59.7054 135.242 60.1364 135.102 60.729 135.102C61.2193 135.102 61.591 135.204 61.8496 135.41C62.1082 135.615 62.2321 135.902 62.2321 136.274C62.2321 136.572 62.1352 136.826 61.9358 137.047C61.7419 137.269 61.5048 137.377 61.2247 137.377V138.42H62.0382C62.2321 138.42 62.3938 138.376 62.5123 138.285C62.6308 138.193 62.6955 138.052 62.6955 137.852V134.707C62.6955 134.329 62.5769 134.01 62.3453 133.751C62.1136 133.492 61.7688 133.362 61.3163 133.362C60.8637 133.362 60.4866 133.464 60.1687 133.664C59.8455 133.864 59.6407 134.145 59.5384 134.507H58.8057C58.9404 133.962 59.269 133.529 59.7916 133.2C60.3142 132.875 60.9984 132.713 61.8496 132.713C62.7547 132.713 63.4874 132.875 64.0423 133.194C64.6027 133.513 64.8774 134.021 64.8774 134.707V137.771C64.8774 138.258 64.7535 138.598 64.5111 138.803C64.2686 139.009 63.9077 139.111 63.4443 139.111H59.0427V136.626ZM61.2839 136.718C61.3917 136.609 61.4402 136.458 61.4402 136.253C61.4402 136.047 61.3863 135.891 61.2839 135.783C61.1816 135.675 61.0469 135.621 60.8853 135.621C60.7236 135.621 60.5943 135.675 60.4973 135.783C60.395 135.891 60.3465 136.047 60.3465 136.253C60.3465 136.458 60.395 136.615 60.4973 136.718C60.5997 136.826 60.729 136.874 60.8853 136.874C61.0415 136.874 61.1762 136.82 61.2839 136.718Z" fill="#0058C1"/>
  <path d="M65.9656 138.42H66.5636V134.983C66.2835 134.983 66.0464 134.875 65.8525 134.653C65.6585 134.432 65.5562 134.178 65.5562 133.881C65.5562 133.502 65.6747 133.211 65.9171 133.011C66.1596 132.811 66.5205 132.708 67.0054 132.708C67.6088 132.708 68.0506 132.832 68.3307 133.086C68.6109 133.34 68.751 133.686 68.751 134.124V138.414H69.6345C69.8608 138.414 70.0278 138.366 70.1302 138.274C70.2379 138.182 70.2864 138.009 70.2864 137.755V132.832H72.4684V137.96C72.4684 138.722 72.0912 139.106 71.337 139.106H65.9602V138.414L65.9656 138.42ZM67.2963 134.324C67.3987 134.216 67.4472 134.064 67.4472 133.859C67.4472 133.654 67.3987 133.497 67.2963 133.389C67.194 133.281 67.0647 133.227 66.9084 133.227C66.7522 133.227 66.6175 133.281 66.5097 133.389C66.402 133.497 66.3535 133.654 66.3535 133.859C66.3535 134.064 66.4074 134.221 66.5097 134.324C66.6175 134.432 66.7468 134.48 66.9084 134.48C67.0701 134.48 67.1994 134.426 67.2963 134.324Z" fill="#0058C1"/>
  <rect y="0.693115" width="70" height="70" rx="35" fill="#83D3FF"/>
  <path d="M17.5148 34.307C17.2346 34.0531 17.0946 33.7072 17.0946 33.2695V27.8226C17.0946 27.4443 17.1592 27.0769 17.2939 26.7148C17.4286 26.3582 17.6333 26.0448 17.9081 25.7908C17.8919 25.7584 17.8596 25.7205 17.8057 25.6719C17.7518 25.6233 17.7087 25.5963 17.671 25.5854L16.5397 27.1039L15.5214 26.9364C15.4621 26.6176 15.3275 26.2555 15.112 25.8394C14.9018 25.4287 14.7133 25.1531 14.5463 25.0181L15.5214 24.4939C15.7154 24.6884 15.8985 24.9424 16.0602 25.2558C16.2218 25.5638 16.3349 25.8556 16.3942 26.1204L17.5579 24.4993C17.9781 24.5047 18.4415 24.6344 18.9425 24.8722C19.4435 25.1153 19.7937 25.3963 19.9985 25.7097C19.7129 25.9421 19.519 26.2123 19.422 26.5149C19.325 26.8175 19.2765 27.1417 19.2765 27.493V32.4157C19.5836 32.4157 19.8314 32.513 20.0146 32.7129C20.1978 32.9075 20.284 33.1669 20.284 33.4857C20.284 33.8639 20.1655 34.1611 19.923 34.3719C19.6806 34.5826 19.3196 34.6907 18.8347 34.6907C18.2313 34.6907 17.7896 34.5664 17.5094 34.3124L17.5148 34.307ZM19.3358 34.0152C19.4435 33.9072 19.492 33.7505 19.492 33.5451C19.492 33.3398 19.4381 33.1831 19.3358 33.0804C19.228 32.9723 19.0987 32.9237 18.9425 32.9237C18.7863 32.9237 18.6516 32.9777 18.5546 33.0804C18.4522 33.1885 18.4037 33.3398 18.4037 33.5451C18.4037 33.7505 18.4522 33.9072 18.5546 34.0152C18.657 34.1233 18.7863 34.1773 18.9425 34.1773C19.0987 34.1773 19.2334 34.1233 19.3358 34.0152Z" fill="#0058C1"/>
  <path d="M21.092 30.546C21.092 29.7949 21.3614 29.2167 21.9056 28.8006C22.4497 28.3845 23.2848 28.1792 24.4162 28.1792C25.5475 28.1792 26.3934 28.3845 26.9321 28.8006C27.4709 29.2167 27.7403 29.8003 27.7403 30.546V34.5772H25.5583V30.0381C25.5583 29.6814 25.4506 29.4058 25.2351 29.2167C25.0196 29.0222 24.7448 28.9249 24.4162 28.9249C24.0875 28.9249 23.802 29.0168 23.5919 29.2005C23.3817 29.3842 23.274 29.6652 23.274 30.0327V33.4586C23.4195 33.3884 23.5972 33.2641 23.8181 33.0804C24.039 32.8966 24.1791 32.7345 24.2491 32.5994C24.0067 32.5454 23.8074 32.4211 23.6457 32.232C23.4841 32.0374 23.4033 31.7835 23.4033 31.4647C23.4033 31.1458 23.4949 30.9081 23.6888 30.7081C23.8774 30.5082 24.1198 30.4055 24.4108 30.4055C24.7556 30.4055 25.0249 30.5136 25.2081 30.7298C25.3913 30.9459 25.4829 31.2107 25.4829 31.5187C25.4829 31.9132 25.3913 32.2698 25.2135 32.594C25.0303 32.9129 24.7933 33.2155 24.4916 33.491C24.1899 33.7666 23.7589 34.1287 23.1878 34.5772H21.0974V30.546H21.092ZM24.7933 31.9402C24.8903 31.8321 24.9387 31.6916 24.9387 31.5079C24.9387 31.3242 24.8903 31.1837 24.7933 31.081C24.6963 30.9783 24.5778 30.9297 24.4431 30.9297C24.3084 30.9297 24.1953 30.9783 24.0983 31.081C24.0013 31.1837 23.9582 31.3242 23.9582 31.5079C23.9582 31.6916 24.0067 31.8321 24.0983 31.9402C24.1899 32.0483 24.3084 32.0969 24.4431 32.0969C24.5778 32.0969 24.6963 32.0429 24.7933 31.9402Z" fill="#0058C1"/>
  <path d="M23.4465 26.677C23.5543 26.6446 23.6782 26.5851 23.829 26.4824C23.9799 26.3852 24.1038 26.2825 24.2008 26.1744C23.8937 26.1528 23.662 26.0393 23.5165 25.834C23.3711 25.6287 23.2957 25.4125 23.2957 25.1856C23.2957 24.9208 23.3872 24.683 23.5758 24.4723C23.7644 24.2615 24.0607 24.1534 24.4701 24.1534C24.9065 24.1534 25.2459 24.2561 25.4776 24.4669C25.7093 24.6722 25.8278 24.9316 25.8278 25.2342C25.8278 25.5368 25.7524 25.807 25.6015 26.0231C25.4507 26.2393 25.2783 26.4068 25.0789 26.5257C25.5854 26.4878 25.9679 26.396 26.2319 26.2501C26.4958 26.1042 26.679 25.9096 26.7868 25.6665C26.8945 25.4233 26.9807 25.0829 27.0454 24.6452H28.3815C28.3114 25.5206 28.0151 26.1582 27.4925 26.5473C26.97 26.9364 26.2426 27.1309 25.316 27.1309H23.4357V26.677H23.4465ZM24.788 25.5854C24.8742 25.4882 24.9173 25.3531 24.9173 25.1747C24.9173 24.9964 24.8742 24.8667 24.788 24.7641C24.7018 24.6668 24.5833 24.6182 24.4324 24.6182C24.287 24.6182 24.1738 24.6668 24.0876 24.7695C24.0014 24.8721 23.9583 25.0072 23.9583 25.1747C23.9583 25.3423 24.0014 25.4774 24.0876 25.58C24.1738 25.6827 24.2923 25.7313 24.4324 25.7313C24.5833 25.7313 24.7018 25.6827 24.788 25.5854Z" fill="#0058C1"/>
  <path d="M29.7445 34.307C29.4644 34.053 29.3243 33.7072 29.3243 33.2695V27.9468C29.3243 27.574 29.2489 27.3146 29.0926 27.1633C28.9364 27.012 28.6401 26.9147 28.2037 26.8769C28.1283 26.8715 27.999 26.8661 27.8212 26.8661V26.2987C27.8212 25.7475 28.0043 25.3098 28.3761 24.9802C28.7478 24.656 29.3405 24.4938 30.154 24.4938C30.3802 24.4938 30.5796 24.5209 30.752 24.5695C30.9244 24.6181 31.113 24.6884 31.3177 24.7802C31.3985 24.8181 31.4847 24.8505 31.5655 24.8829C31.6463 24.9153 31.7217 24.9261 31.7918 24.9261C31.9103 24.9261 32.0342 24.8883 32.1527 24.8127C32.2713 24.737 32.4006 24.6019 32.5353 24.402L33.2356 25.0018C33.1225 25.2287 32.9501 25.4179 32.7238 25.5638C32.4975 25.7097 32.2551 25.7853 32.0019 25.7853C31.8457 25.7853 31.7002 25.7637 31.5709 25.7205C31.4416 25.6773 31.2907 25.6178 31.1183 25.5422C30.989 25.4827 30.8813 25.4395 30.7951 25.4125C30.7089 25.3855 30.6173 25.3746 30.5311 25.3746C29.8738 25.3746 29.5344 25.634 29.5129 26.1474C29.5883 26.142 29.6799 26.1366 29.7984 26.1366C30.3479 26.1366 30.7735 26.2933 31.0645 26.6121C31.3554 26.9309 31.5062 27.374 31.5062 27.9414V32.4103C31.8133 32.4103 32.0612 32.5075 32.2389 32.7075C32.4221 32.902 32.5083 33.1614 32.5083 33.4802C32.5083 33.8585 32.3898 34.1557 32.1474 34.3664C31.9049 34.5772 31.544 34.6852 31.0591 34.6852C30.4557 34.6852 30.0139 34.561 29.7337 34.307H29.7445ZM31.5655 34.0152C31.6733 33.9071 31.7217 33.7504 31.7217 33.5451C31.7217 33.3397 31.6679 33.183 31.5655 33.0803C31.4578 32.9723 31.3285 32.9236 31.1722 32.9236C31.016 32.9236 30.8813 32.9777 30.7843 33.0803C30.6819 33.1884 30.6335 33.3397 30.6335 33.5451C30.6335 33.7504 30.6819 33.9071 30.7843 34.0152C30.8867 34.1233 31.016 34.1773 31.1722 34.1773C31.3285 34.1773 31.4631 34.1233 31.5655 34.0152Z" fill="#0058C1"/>
  <path d="M39.9054 31.1134V34.5772H37.7235V31.7997L35.9133 34.5772H33.866V30.4488C33.5858 30.4488 33.3488 30.3407 33.1548 30.1192C32.9609 29.8976 32.8585 29.6436 32.8585 29.3464C32.8585 28.9682 32.977 28.6764 33.2195 28.4764C33.4619 28.2765 33.8229 28.1738 34.3078 28.1738C34.9112 28.1738 35.3529 28.2981 35.6331 28.5521C35.9133 28.8061 36.0533 29.1519 36.0533 29.5896V32.4265L37.1308 30.6811C37.2494 30.4758 37.4433 30.3191 37.7073 30.2056C37.2978 30.0381 37.0985 29.7193 37.0985 29.2546C37.0985 28.9303 37.2116 28.671 37.4325 28.471C37.6534 28.2711 38.0144 28.1738 38.5154 28.1738C39.4583 28.1738 39.927 28.5359 39.927 29.2546C39.927 29.7301 39.7169 30.0543 39.302 30.2164C39.7115 30.4056 39.9108 30.7028 39.9108 31.1134H39.9054ZM34.5933 29.7841C34.6957 29.6761 34.7442 29.5248 34.7442 29.3194C34.7442 29.1141 34.6957 28.9574 34.5933 28.8493C34.4909 28.7412 34.3616 28.6872 34.2054 28.6872C34.0492 28.6872 33.9145 28.7412 33.8067 28.8493C33.699 28.9574 33.6505 29.1141 33.6505 29.3194C33.6505 29.5248 33.7044 29.6815 33.8067 29.7841C33.9145 29.8922 34.0438 29.9408 34.2054 29.9408C34.367 29.9408 34.4963 29.8868 34.5933 29.7841ZM38.1168 28.7899C38.009 28.8979 37.9605 29.0546 37.9605 29.26C37.9605 29.4653 38.0144 29.622 38.1168 29.7247C38.2191 29.8274 38.3538 29.8814 38.5154 29.8814C38.6771 29.8814 38.8064 29.8274 38.9033 29.7247C39.0057 29.6166 39.0542 29.4653 39.0542 29.26C39.0542 29.0546 39.0057 28.8979 38.9033 28.7899C38.801 28.6818 38.6717 28.6277 38.5154 28.6277C38.3592 28.6277 38.2245 28.6818 38.1168 28.7899Z" fill="#0058C1"/>
  <path d="M43.4126 34.3881C43.1702 34.1882 43.0517 33.8964 43.0517 33.5181C43.0517 33.2209 43.1486 32.9669 43.348 32.7454C43.5473 32.5238 43.779 32.4157 44.0591 32.4157V30.1138C44.0591 29.6598 43.9622 29.3302 43.7736 29.1249C43.585 28.9195 43.2618 28.8169 42.8092 28.8169C42.5506 28.8169 42.3136 28.8871 42.0981 29.0222C41.8772 29.1573 41.6994 29.3464 41.5593 29.5842C41.4192 29.822 41.3438 30.0867 41.3384 30.3731H40.6003C40.6165 29.6707 40.8697 29.1249 41.36 28.7466C41.8503 28.3684 42.5237 28.1738 43.3749 28.1738C44.3124 28.1738 45.0181 28.3359 45.5084 28.6548C45.9933 28.9736 46.2357 29.4815 46.2357 30.1678V33.2641C46.2357 33.7018 46.0956 34.0477 45.8155 34.3016C45.5353 34.5556 45.0935 34.6799 44.4901 34.6799C44.0053 34.6799 43.6443 34.5772 43.4019 34.3773L43.4126 34.3881ZM44.7865 34.0152C44.8888 33.9072 44.9373 33.7505 44.9373 33.5451C44.9373 33.3398 44.8888 33.1831 44.7865 33.0804C44.6841 32.9723 44.5548 32.9237 44.3986 32.9237C44.2423 32.9237 44.1076 32.9777 43.9999 33.0804C43.8921 33.1885 43.8436 33.3398 43.8436 33.5451C43.8436 33.7505 43.8975 33.9072 43.9999 34.0152C44.1022 34.1233 44.2369 34.1774 44.3986 34.1774C44.5602 34.1774 44.6895 34.1233 44.7865 34.0152Z" fill="#0058C1"/>
  <path d="M47.3726 30.7406C47.3726 30.0381 47.5019 29.4761 47.7605 29.0546C48.0191 28.6331 48.4824 28.3413 49.1451 28.1738L50.7074 28.8331L52.2483 28.1738C52.9109 28.3413 53.3743 28.6331 53.6329 29.0546C53.8915 29.4761 54.0208 30.0381 54.0208 30.7406V34.5772H51.8388V30.5352C51.8388 30.2489 51.8281 30.0111 51.8011 29.8328C51.7742 29.6544 51.7203 29.4977 51.6395 29.368L50.7128 29.903L49.7646 29.368C49.6838 29.4977 49.6245 29.649 49.603 29.8328C49.5761 30.0165 49.5653 30.2489 49.5653 30.5352V33.4641C49.7107 33.3938 49.8885 33.2695 50.1094 33.0858C50.3303 32.9021 50.4704 32.74 50.5404 32.6049C50.298 32.5508 50.0987 32.4265 49.937 32.2374C49.7754 32.0429 49.6946 31.7889 49.6946 31.4701C49.6946 31.1513 49.7862 30.9135 49.9801 30.7136C50.1687 30.5136 50.4111 30.411 50.7021 30.411C51.0469 30.411 51.3162 30.519 51.4994 30.7352C51.6826 30.9513 51.7742 31.2161 51.7742 31.5241C51.7742 31.9186 51.6826 32.2752 51.5048 32.5995C51.3216 32.9183 51.0846 33.2209 50.7829 33.4965C50.4812 33.7721 50.0502 34.1341 49.4791 34.5826H47.3887V30.746L47.3726 30.7406ZM51.0738 31.9402C51.1708 31.8321 51.2193 31.6916 51.2193 31.5079C51.2193 31.3242 51.1708 31.1837 51.0738 31.081C50.9768 30.9784 50.8583 30.9297 50.7236 30.9297C50.5889 30.9297 50.4758 30.9784 50.3788 31.081C50.2818 31.1837 50.2387 31.3242 50.2387 31.5079C50.2387 31.6916 50.2872 31.8321 50.3788 31.9402C50.4704 32.0483 50.5889 32.0969 50.7236 32.0969C50.8583 32.0969 50.9768 32.0429 51.0738 31.9402Z" fill="#0058C1"/>
  <path d="M11.3245 46.8436C11.0444 46.5897 10.9043 46.2438 10.9043 45.8061V44.185C10.9043 43.7149 11.0659 43.3312 11.3892 43.0286C11.7124 42.726 12.1596 42.5747 12.7253 42.5747C13.291 42.5747 13.695 42.6882 14.0075 42.9151C14.32 43.1421 14.5732 43.4501 14.7618 43.8446V42.7098C14.7618 42.3153 14.6325 41.9911 14.3739 41.7425C14.1153 41.4885 13.695 41.3643 13.124 41.3643C12.6768 41.3643 12.2943 41.4669 11.9656 41.6669C11.637 41.8668 11.4269 42.1478 11.3245 42.5099H10.5864C10.7211 41.9641 11.0551 41.5318 11.5831 41.2022C12.1111 40.8779 12.8007 40.7158 13.6519 40.7158C14.5894 40.7158 15.3706 40.8779 16.0009 41.2022C16.6312 41.5264 16.9437 42.0289 16.9437 42.7098V47.1138H14.918C14.7725 46.1249 14.584 45.2874 14.3523 44.6065C14.1206 43.9256 13.8243 43.5852 13.4688 43.5852C13.3718 43.5852 13.2802 43.6284 13.2048 43.7095C13.124 43.7905 13.0862 43.9418 13.0862 44.1526V44.9577C13.4095 44.9793 13.6573 45.0982 13.8351 45.309C14.0075 45.5197 14.0937 45.7683 14.0937 46.0493C14.0937 46.4275 13.9752 46.7193 13.7327 46.9247C13.4903 47.13 13.1293 47.2327 12.6445 47.2327C12.0411 47.2327 11.5993 47.1084 11.3191 46.8544L11.3245 46.8436ZM13.1455 46.5518C13.2533 46.4438 13.3017 46.287 13.3017 46.0817C13.3017 45.8764 13.2479 45.7197 13.1455 45.617C13.0378 45.5089 12.9085 45.4603 12.7468 45.4603C12.5852 45.4603 12.4559 45.5143 12.3589 45.617C12.2566 45.7251 12.2081 45.8764 12.2081 46.0817C12.2081 46.287 12.2566 46.4438 12.3589 46.5518C12.4613 46.6599 12.5906 46.7139 12.7468 46.7139C12.9031 46.7139 13.0378 46.6599 13.1455 46.5518Z" fill="#0058C1"/>
  <path d="M18.3445 45.3522C18.0535 44.7524 17.7626 44.2607 17.4663 43.877L18.9694 42.926C19.3088 43.2826 19.6213 43.7473 19.9069 44.3147C20.1924 44.8875 20.4025 45.4333 20.5318 45.9575H20.8281C20.9359 45.9575 20.9844 45.8872 20.9844 45.7413V42.9854C20.7042 42.9854 20.4672 42.8773 20.2732 42.6558C20.0793 42.4342 19.9769 42.1803 19.9769 41.8831C19.9769 41.5048 20.0954 41.213 20.3379 41.0131C20.5803 40.8131 20.9413 40.7104 21.4261 40.7104C22.0296 40.7104 22.4713 40.8347 22.7515 41.0887C23.0316 41.3427 23.1717 41.6885 23.1717 42.1262V45.6008C23.1717 46.0169 22.9939 46.3735 22.6383 46.6653C22.2828 46.9571 21.744 47.1084 21.0221 47.1084H18.9317C18.8347 46.5357 18.6408 45.9466 18.3499 45.3522H18.3445ZM21.7117 42.3208C21.814 42.2127 21.8625 42.0614 21.8625 41.856C21.8625 41.6507 21.814 41.494 21.7117 41.3859C21.6093 41.2778 21.48 41.2238 21.3238 41.2238C21.1675 41.2238 21.0329 41.2778 20.9251 41.3859C20.8174 41.494 20.7689 41.6507 20.7689 41.856C20.7689 42.0614 20.8227 42.2181 20.9251 42.3208C21.0329 42.4288 21.1622 42.4775 21.3238 42.4775C21.4854 42.4775 21.6147 42.4234 21.7117 42.3208Z" fill="#0058C1"/>
  <path d="M24.2976 43.0826C24.2976 42.3315 24.567 41.7533 25.1111 41.3372C25.6553 40.9212 26.4904 40.7158 27.6217 40.7158C28.7531 40.7158 29.599 40.9212 30.1377 41.3372C30.6765 41.7533 30.9458 42.3369 30.9458 43.0826V47.1138H28.7639V42.5747C28.7639 42.2181 28.6561 41.9425 28.4406 41.7533C28.2251 41.5588 27.9504 41.4615 27.6217 41.4615C27.2931 41.4615 27.0076 41.5534 26.7974 41.7371C26.5873 41.9208 26.4796 42.2018 26.4796 42.5693V44.1796C26.5227 44.0229 26.5766 43.8824 26.6358 43.7689C26.7651 43.4717 26.916 43.261 27.0938 43.1313C27.2715 43.0016 27.487 42.9367 27.7456 42.9367C28.0635 42.9367 28.306 43.0448 28.4676 43.261C28.6346 43.4771 28.7154 43.7419 28.7154 44.0499C28.7154 44.3579 28.6346 44.6065 28.4676 44.8064C28.3006 45.0064 28.0689 45.109 27.7672 45.109C27.4278 45.109 27.1853 44.9902 27.0291 44.747C26.8621 44.9902 26.7166 45.3684 26.5873 45.8818C26.458 46.3951 26.3934 46.8058 26.3826 47.1084H24.2922V43.0772L24.2976 43.0826ZM28.112 44.4768C28.209 44.3687 28.2575 44.2282 28.2575 44.0445C28.2575 43.8608 28.209 43.7203 28.112 43.6176C28.015 43.5149 27.8965 43.4663 27.7618 43.4663C27.6271 43.4663 27.514 43.5149 27.417 43.6176C27.32 43.7203 27.2769 43.8608 27.2769 44.0445C27.2769 44.2282 27.3254 44.3687 27.417 44.4768C27.5086 44.5849 27.6271 44.6335 27.7618 44.6335C27.8965 44.6335 28.015 44.5795 28.112 44.4768Z" fill="#0058C1"/>
  <path d="M32.0718 41.5696C32.2927 41.3696 32.5998 41.267 32.9985 41.267C33.3379 41.267 33.6127 41.3642 33.8282 41.5642C34.0437 41.7587 34.1514 41.9965 34.1514 42.2775C34.1514 42.4288 34.1137 42.5801 34.0383 42.7314C33.9629 42.8827 33.8497 43.0232 33.6989 43.1529C34.2484 43.1096 34.6309 42.9205 34.8464 42.5909C35.0619 42.2613 35.1858 41.8506 35.2128 41.3588H36.6028C36.5112 42.1748 36.2256 42.7854 35.7354 43.1799C35.2505 43.5798 34.6255 43.7743 33.8605 43.7743C33.1763 43.7743 32.6483 43.6392 32.282 43.3744C31.9156 43.1096 31.7324 42.7638 31.7324 42.3315C31.7324 42.0235 31.8402 41.7641 32.0611 41.5642L32.0718 41.5696ZM32.0718 44.7686C32.2927 44.5686 32.5998 44.466 32.9985 44.466C33.3379 44.466 33.6127 44.5632 33.8282 44.7632C34.0437 44.9577 34.1514 45.1955 34.1514 45.4765C34.1514 45.6278 34.1137 45.7791 34.0383 45.9304C33.9629 46.0817 33.8497 46.2222 33.6989 46.3519C34.2484 46.3086 34.6309 46.1195 34.8464 45.7899C35.0619 45.4602 35.1858 45.0496 35.2128 44.5578H36.6028C36.5112 45.3738 36.2256 45.979 35.7354 46.3789C35.2505 46.7788 34.6255 46.9733 33.8605 46.9733C33.1763 46.9733 32.6483 46.8382 32.282 46.5734C31.9156 46.3086 31.7324 45.9628 31.7324 45.5305C31.7324 45.2225 31.8402 44.9631 32.0611 44.7632L32.0718 44.7686ZM32.6752 42.5909C32.7453 42.6611 32.8369 42.699 32.9392 42.699C33.0685 42.699 33.1655 42.6665 33.2409 42.5963C33.3164 42.526 33.3487 42.4342 33.3487 42.3153C33.3487 42.1964 33.311 42.0991 33.2409 42.0235C33.1709 41.9532 33.0685 41.9154 32.9392 41.9154C32.8261 41.9154 32.7345 41.9532 32.6699 42.0235C32.5998 42.0937 32.5675 42.191 32.5675 42.3153C32.5675 42.4288 32.6052 42.5206 32.6752 42.5909ZM32.6752 45.7899C32.7453 45.8601 32.8369 45.898 32.9392 45.898C33.0685 45.898 33.1655 45.8655 33.2409 45.7953C33.3164 45.725 33.3487 45.6332 33.3487 45.5089C33.3487 45.3846 33.311 45.2927 33.2409 45.2171C33.1709 45.1414 33.0685 45.109 32.9392 45.109C32.8261 45.109 32.7345 45.1468 32.6699 45.2171C32.6052 45.2873 32.5675 45.3846 32.5675 45.5089C32.5675 45.6224 32.6052 45.7142 32.6752 45.7845V45.7899Z" fill="#0058C1"/>
  <path d="M37.3301 40.8347H39.512V44.9523C39.8191 44.9523 40.067 45.0496 40.2501 45.2496C40.4333 45.4441 40.5195 45.7035 40.5195 46.0223C40.5195 46.4005 40.401 46.6977 40.1585 46.9085C39.9161 47.1192 39.5551 47.2273 39.0703 47.2273C38.4669 47.2273 38.0251 47.103 37.7449 46.849C37.4648 46.5951 37.3247 46.2492 37.3247 45.8115V40.8401L37.3301 40.8347ZM38.7847 46.5518C38.8871 46.6599 39.0164 46.714 39.1726 46.714C39.3289 46.714 39.4636 46.6599 39.5713 46.5518C39.6791 46.4438 39.7275 46.2871 39.7275 46.0817C39.7275 45.8764 39.6737 45.7197 39.5713 45.617C39.4636 45.5089 39.3343 45.4603 39.1726 45.4603C39.011 45.4603 38.8817 45.5143 38.7847 45.617C38.6824 45.7251 38.6339 45.8764 38.6339 46.0817C38.6339 46.2871 38.6824 46.4438 38.7847 46.5518ZM40.8966 40.8347H43.0786V44.9523C43.3857 44.9523 43.6335 45.0496 43.8167 45.2496C43.9999 45.4441 44.0861 45.7035 44.0861 46.0223C44.0861 46.4005 43.9675 46.6977 43.7251 46.9085C43.4827 47.1192 43.1217 47.2273 42.6368 47.2273C42.0334 47.2273 41.5916 47.103 41.3115 46.849C41.0313 46.5951 40.8913 46.2492 40.8913 45.8115V40.8401L40.8966 40.8347ZM42.3513 46.5518C42.4536 46.6599 42.5829 46.714 42.7392 46.714C42.8954 46.714 43.0301 46.6599 43.1379 46.5518C43.2456 46.4438 43.2941 46.2871 43.2941 46.0817C43.2941 45.8764 43.2402 45.7197 43.1379 45.617C43.0301 45.5089 42.9008 45.4603 42.7392 45.4603C42.5776 45.4603 42.4483 45.5143 42.3513 45.617C42.2489 45.7251 42.2004 45.8764 42.2004 46.0817C42.2004 46.2871 42.2489 46.4438 42.3513 46.5518Z" fill="#0058C1"/>
  <path d="M51.5263 45.2765C51.6341 45.4602 51.6879 45.6818 51.6879 45.9412C51.6879 46.7949 51.1653 47.2218 50.1256 47.2218C49.1666 47.2218 48.6494 46.8544 48.5739 46.1195C48.2884 46.2708 48.0513 46.4275 47.8736 46.5842C47.6958 46.7409 47.5772 46.9192 47.5234 47.1084H45.433V42.9799C45.1529 42.9799 44.9158 42.8718 44.7219 42.6503C44.5279 42.4287 44.4255 42.1748 44.4255 41.8776C44.4255 41.4993 44.5441 41.2075 44.7865 41.0076C45.0289 40.8076 45.3899 40.705 45.8748 40.705C46.4782 40.705 46.92 40.8292 47.2001 41.0832C47.4803 41.3372 47.6203 41.683 47.6203 42.1207V45.752C47.6904 45.6548 47.782 45.5683 47.8951 45.4926C48.0136 45.417 48.1699 45.3251 48.3638 45.2225C48.6817 45.0495 48.9134 44.8928 49.0642 44.7577C49.2151 44.6226 49.2905 44.4497 49.2905 44.2444V40.8292H51.4724V44.039C51.4724 44.32 51.327 44.5848 51.0414 44.8334C51.2515 44.9415 51.4132 45.0874 51.5209 45.2711L51.5263 45.2765ZM46.1657 42.3207C46.2681 42.2126 46.3166 42.0613 46.3166 41.8559C46.3166 41.6506 46.2681 41.4939 46.1657 41.3858C46.0633 41.2777 45.934 41.2237 45.7778 41.2237C45.6216 41.2237 45.4869 41.2777 45.3791 41.3858C45.2714 41.4939 45.2229 41.6506 45.2229 41.8559C45.2229 42.0613 45.2768 42.218 45.3791 42.3207C45.4869 42.4287 45.6162 42.4774 45.7778 42.4774C45.9394 42.4774 46.0687 42.4233 46.1657 42.3207ZM50.5458 46.4275C50.6535 46.314 50.702 46.1411 50.702 45.9141C50.702 45.6872 50.6481 45.5143 50.5458 45.39C50.438 45.2711 50.298 45.2062 50.1256 45.2062C49.9531 45.2062 49.8239 45.2657 49.7107 45.39C49.5976 45.5143 49.5491 45.6872 49.5491 45.9141C49.5491 46.1411 49.603 46.3032 49.7107 46.4167C49.8185 46.5302 49.9585 46.595 50.1256 46.595C50.2926 46.595 50.438 46.541 50.5458 46.4275Z" fill="#0058C1"/>
  <path d="M59.252 45.2765C59.3598 45.4602 59.4136 45.6818 59.4136 45.9412C59.4136 46.7949 58.891 47.2218 57.8513 47.2218C56.8923 47.2218 56.3751 46.8544 56.2996 46.1195C56.0141 46.2708 55.7771 46.4275 55.5993 46.5842C55.4215 46.7409 55.303 46.9192 55.2491 47.1084H53.1587V42.9799C52.8786 42.9799 52.6415 42.8718 52.4476 42.6503C52.2536 42.4287 52.1512 42.1748 52.1512 41.8776C52.1512 41.4993 52.2698 41.2075 52.5122 41.0076C52.7546 40.8076 53.1156 40.705 53.6005 40.705C54.2039 40.705 54.6457 40.8292 54.9258 41.0832C55.206 41.3372 55.3461 41.683 55.3461 42.1207V45.752C55.4161 45.6548 55.5077 45.5683 55.6208 45.4926C55.7393 45.417 55.8956 45.3251 56.0895 45.2225C56.4074 45.0495 56.6391 44.8928 56.7899 44.7577C56.9408 44.6226 57.0162 44.4497 57.0162 44.2444V40.8292H59.1981V44.039C59.1981 44.32 59.0527 44.5848 58.7671 44.8334C58.9773 44.9415 59.1389 45.0874 59.2466 45.2711L59.252 45.2765ZM53.8914 42.3207C53.9938 42.2126 54.0423 42.0613 54.0423 41.8559C54.0423 41.6506 53.9938 41.4939 53.8914 41.3858C53.7891 41.2777 53.6598 41.2237 53.5035 41.2237C53.3473 41.2237 53.2126 41.2777 53.1048 41.3858C52.9971 41.4939 52.9486 41.6506 52.9486 41.8559C52.9486 42.0613 53.0025 42.218 53.1048 42.3207C53.2126 42.4287 53.3419 42.4774 53.5035 42.4774C53.6651 42.4774 53.7944 42.4233 53.8914 42.3207ZM58.2769 46.4275C58.3846 46.314 58.4331 46.1411 58.4331 45.9141C58.4331 45.6872 58.3792 45.5143 58.2769 45.39C58.1691 45.2711 58.029 45.2062 57.8566 45.2062C57.6842 45.2062 57.5549 45.2657 57.4418 45.39C57.3287 45.5143 57.2802 45.6872 57.2802 45.9141C57.2802 46.1411 57.3341 46.3032 57.4418 46.4167C57.5496 46.5302 57.6896 46.595 57.8566 46.595C58.0237 46.595 58.1691 46.541 58.2769 46.4275Z" fill="#0058C1"/>
  <path d="M143.038 6.59653L143 5.95477C143 3.78033 144.333 2.69312 147 2.69312C149.667 2.69312 151 3.78033 151 5.95477L150.962 6.59653L148.576 23.3049H145.424L143.038 6.59653ZM144.538 30.7645C143.917 30.1453 143.606 29.3148 143.606 28.2654C143.606 27.2159 143.917 26.3854 144.538 25.7663C145.159 25.1472 145.992 24.8376 147.045 24.8376C148.098 24.8376 148.932 25.1472 149.553 25.7663C150.174 26.3854 150.485 27.2159 150.485 28.2654C150.485 29.3148 150.174 30.1453 149.553 30.7645C148.932 31.3836 148.098 31.6931 147.045 31.6931C145.992 31.6931 145.159 31.3836 144.538 30.7645Z" fill="#83D3FF"/>
  </g>
  <defs>
  <clipPath id="clip0_54_974">
  <rect width="192" height="162.406" fill="white" transform="translate(0 0.693115)"/>
  </clipPath>
  </defs>
  </svg>
  