<svg width="20" height="20" viewBox="0 0 20 20" fill="none" xmlns="http://www.w3.org/2000/svg">
<g clip-path="url(#clip0_626_974)">
<path d="M25 10C25 18.2843 18.2843 25 10 25C1.71573 25 -5 18.2843 -5 10C-5 1.71573 1.71573 -5 10 -5C18.2843 -5 25 1.71573 25 10Z" fill="#101C3D"/>
<path d="M11.6239 12.055L12.4639 11.215C12.577 11.1033 12.7201 11.0268 12.8759 10.9948C13.0317 10.9629 13.1934 10.9768 13.3414 11.035L14.3651 11.4438C14.5147 11.5045 14.6429 11.6081 14.7337 11.7416C14.8244 11.875 14.8736 12.0324 14.8751 12.1938V14.0688C14.8742 14.1786 14.8512 14.287 14.8073 14.3877C14.7634 14.4883 14.6995 14.579 14.6197 14.6544C14.5398 14.7297 14.4455 14.7881 14.3425 14.826C14.2394 14.8639 14.1298 14.8806 14.0201 14.875C6.84636 14.4288 5.39886 8.35377 5.12511 6.02877C5.1124 5.91459 5.12401 5.79902 5.15918 5.68966C5.19434 5.58029 5.25227 5.47961 5.32914 5.39424C5.40601 5.30887 5.50008 5.24074 5.60517 5.19434C5.71026 5.14794 5.82398 5.12431 5.93886 5.12502H7.75011C7.91174 5.12549 8.06953 5.17432 8.20318 5.2652C8.33684 5.35609 8.44025 5.48488 8.50011 5.63502L8.90886 6.65877C8.96896 6.80617 8.98429 6.96801 8.95294 7.12407C8.9216 7.28013 8.84496 7.4235 8.73261 7.53627L7.89261 8.37627C7.89261 8.37627 8.37636 11.65 11.6239 12.055Z" fill="white"/>
</g>
<defs>
<clipPath id="clip0_626_974">
<rect width="20" height="20" rx="10" fill="white"/>
</clipPath>
</defs>
</svg>
