<svg width="260" height="81" viewBox="0 0 260 81" fill="none" xmlns="http://www.w3.org/2000/svg">
  <rect y="10.0991" width="60" height="60" rx="2" fill="#83D3FF"/>
  <path d="M16.8618 27.8611C16.6285 27.8611 16.4232 27.9358 16.2458 28.0851C16.0778 28.2251 15.9845 28.4305 15.9658 28.7011C17.0112 28.8318 17.8978 29.0605 18.6258 29.3871C19.3538 29.7138 19.7178 30.1198 19.7178 30.6051V33.7551C19.7178 34.1938 19.5732 34.5531 19.2838 34.8331C19.0038 35.1038 18.6398 35.2391 18.1918 35.2391C17.7532 35.2391 17.3938 35.1085 17.1138 34.8471C16.8432 34.5765 16.7078 34.2358 16.7078 33.8251C16.7078 33.3958 16.8385 33.0505 17.0998 32.7891C17.3612 32.5185 17.7018 32.3831 18.1218 32.3831C18.2525 32.3831 18.3878 32.4065 18.5278 32.4531V30.7591C18.5278 30.4978 18.1825 30.2551 17.4918 30.0311C16.8012 29.7978 15.8678 29.6065 14.6918 29.4571C14.7012 28.6358 14.8832 28.0058 15.2378 27.5671C15.6018 27.1191 16.0965 26.8951 16.7218 26.8951C16.9552 26.8951 17.1792 26.9185 17.3938 26.9651C17.6085 27.0118 17.9025 27.0865 18.2758 27.1891C18.6772 27.3105 18.9385 27.3711 19.0598 27.3711C19.1718 27.3711 19.2745 27.3245 19.3678 27.2311C19.4612 27.1378 19.5265 27.0071 19.5638 26.8391L20.4598 27.0911C20.3478 27.4831 20.1845 27.7865 19.9698 28.0011C19.7552 28.2158 19.5078 28.3231 19.2278 28.3231C19.0972 28.3231 18.9292 28.2998 18.7238 28.2531C18.5185 28.2065 18.3085 28.1551 18.0938 28.0991C18.0378 28.0805 17.8652 28.0385 17.5758 27.9731C17.2958 27.8985 17.0578 27.8611 16.8618 27.8611ZM18.1358 34.4691C18.3318 34.4691 18.4905 34.4085 18.6118 34.2871C18.7332 34.1565 18.7938 33.9978 18.7938 33.8111C18.7938 33.6245 18.7332 33.4705 18.6118 33.3491C18.4905 33.2185 18.3318 33.1531 18.1358 33.1531C17.9398 33.1531 17.7812 33.2185 17.6598 33.3491C17.5385 33.4705 17.4778 33.6245 17.4778 33.8111C17.4778 33.9978 17.5385 34.1565 17.6598 34.2871C17.7812 34.4085 17.9398 34.4691 18.1358 34.4691ZM24.3151 30.5631C23.8204 30.5631 23.3677 30.4885 22.9571 30.3391C22.5557 30.1805 22.2337 29.9611 21.9911 29.6811C21.7484 29.4011 21.6271 29.0791 21.6271 28.7151C21.6271 28.2951 21.7671 27.9498 22.0471 27.6791C22.3364 27.3991 22.6911 27.2591 23.1111 27.2591C23.5217 27.2591 23.8671 27.3991 24.1471 27.6791C24.4271 27.9498 24.5671 28.2951 24.5671 28.7151C24.5671 29.0978 24.4177 29.4058 24.1191 29.6391C24.1751 29.6485 24.2404 29.6531 24.3151 29.6531C24.9871 29.6531 25.5004 29.4385 25.8551 29.0091C26.2191 28.5798 26.4104 27.9778 26.4291 27.2031H27.6051C27.5864 27.8471 27.4464 28.4258 27.1851 28.9391C26.9237 29.4431 26.5504 29.8398 26.0651 30.1291C25.5797 30.4185 24.9964 30.5631 24.3151 30.5631ZM23.0971 29.2891C23.2931 29.2891 23.4471 29.2331 23.5591 29.1211C23.6711 29.0091 23.7271 28.8598 23.7271 28.6731C23.7271 28.4771 23.6711 28.3231 23.5591 28.2111C23.4471 28.0991 23.2931 28.0431 23.0971 28.0431C22.9104 28.0431 22.7611 28.0991 22.6491 28.2111C22.5371 28.3231 22.4811 28.4771 22.4811 28.6731C22.4811 28.8598 22.5371 29.0091 22.6491 29.1211C22.7611 29.2331 22.9104 29.2891 23.0971 29.2891ZM24.3151 34.8331C23.8204 34.8331 23.3677 34.7585 22.9571 34.6091C22.5557 34.4505 22.2337 34.2311 21.9911 33.9511C21.7484 33.6711 21.6271 33.3491 21.6271 32.9851C21.6271 32.5651 21.7671 32.2198 22.0471 31.9491C22.3364 31.6691 22.6911 31.5291 23.1111 31.5291C23.5217 31.5291 23.8671 31.6691 24.1471 31.9491C24.4271 32.2198 24.5671 32.5651 24.5671 32.9851C24.5671 33.3678 24.4177 33.6805 24.1191 33.9231C24.1751 33.9325 24.2404 33.9371 24.3151 33.9371C24.9964 33.9091 25.5144 33.6851 25.8691 33.2651C26.2237 32.8358 26.4104 32.2385 26.4291 31.4731H27.6051C27.5864 32.1171 27.4464 32.6958 27.1851 33.2091C26.9237 33.7131 26.5504 34.1098 26.0651 34.3991C25.5797 34.6885 24.9964 34.8331 24.3151 34.8331ZM23.0971 33.5731C23.2931 33.5731 23.4471 33.5171 23.5591 33.4051C23.6711 33.2838 23.7271 33.1298 23.7271 32.9431C23.7271 32.7565 23.6711 32.6071 23.5591 32.4951C23.4471 32.3738 23.2931 32.3131 23.0971 32.3131C22.9104 32.3131 22.7611 32.3738 22.6491 32.4951C22.5371 32.6071 22.4811 32.7565 22.4811 32.9431C22.4811 33.1298 22.5371 33.2838 22.6491 33.4051C22.7611 33.5171 22.9104 33.5731 23.0971 33.5731ZM32.4796 26.8951C33.4876 26.8951 34.2809 27.1471 34.8596 27.6511C35.4383 28.1551 35.7276 28.8458 35.7276 29.7231V35.0991H34.5376V29.8211C34.5376 29.1958 34.3509 28.7151 33.9776 28.3791C33.6136 28.0338 33.1143 27.8611 32.4796 27.8611C31.9943 27.8611 31.5836 27.9545 31.2476 28.1411C30.9116 28.3278 30.6596 28.5658 30.4916 28.8551C30.3236 29.1445 30.2396 29.4478 30.2396 29.7651C30.2396 29.9705 30.2629 30.1945 30.3096 30.4371C30.3656 30.6798 30.4449 31.0065 30.5476 31.4171C30.6409 31.7905 30.7109 32.0938 30.7576 32.3271C30.8043 32.5605 30.8276 32.7705 30.8276 32.9571V33.2231C31.0236 32.9338 31.3829 32.5605 31.9056 32.1031L32.2276 31.7951C31.9103 31.7485 31.6536 31.6131 31.4576 31.3891C31.2709 31.1651 31.1776 30.8945 31.1776 30.5771C31.1776 30.2225 31.2943 29.9285 31.5276 29.6951C31.7703 29.4618 32.0783 29.3451 32.4516 29.3451C32.8156 29.3451 33.1189 29.4665 33.3616 29.7091C33.6043 29.9425 33.7256 30.2458 33.7256 30.6191C33.7256 30.9738 33.6136 31.3051 33.3896 31.6131C33.1749 31.9211 32.8436 32.2991 32.3956 32.7471C31.9289 33.2045 31.5696 33.6058 31.3176 33.9511C31.0749 34.2965 30.9303 34.6791 30.8836 35.0991H29.7076V33.1391C29.7076 32.9338 29.6189 32.4765 29.4416 31.7671C29.3203 31.3191 29.2269 30.9365 29.1616 30.6191C29.0963 30.2925 29.0636 30.0031 29.0636 29.7511C29.0636 29.2285 29.1989 28.7525 29.4696 28.3231C29.7403 27.8845 30.1323 27.5391 30.6456 27.2871C31.1683 27.0258 31.7796 26.8951 32.4796 26.8951ZM31.8496 30.5771C31.8496 30.7545 31.9056 30.8991 32.0176 31.0111C32.1296 31.1231 32.2743 31.1791 32.4516 31.1791C32.6289 31.1791 32.7689 31.1231 32.8716 31.0111C32.9836 30.8991 33.0396 30.7545 33.0396 30.5771C33.0396 30.3998 32.9836 30.2598 32.8716 30.1571C32.7689 30.0451 32.6289 29.9891 32.4516 29.9891C32.2743 29.9891 32.1296 30.0451 32.0176 30.1571C31.9056 30.2598 31.8496 30.3998 31.8496 30.5771ZM37.688 22.2331C37.6787 22.9051 37.5247 23.4978 37.226 24.0111C36.9274 24.5151 36.5167 24.9071 35.994 25.1871C35.462 25.4578 34.86 25.5931 34.188 25.5931C33.656 25.5931 33.1894 25.5138 32.788 25.3551C32.3774 25.1965 32.06 24.9771 31.836 24.6971C31.612 24.4078 31.5 24.0858 31.5 23.7311C31.5 23.3391 31.6307 23.0171 31.892 22.7651C32.1534 22.5131 32.4847 22.3871 32.886 22.3871C33.2874 22.3871 33.6187 22.5131 33.88 22.7651C34.1414 23.0171 34.272 23.3438 34.272 23.7451C34.272 23.9598 34.2347 24.1605 34.16 24.3471C34.076 24.5245 33.964 24.6738 33.824 24.7951C33.908 24.8045 34.0294 24.8091 34.188 24.8091C34.944 24.8091 35.546 24.5711 35.994 24.0951C36.4327 23.6098 36.6567 22.9891 36.666 22.2331H37.688ZM32.228 23.7171C32.228 23.9038 32.2934 24.0578 32.424 24.1791C32.5454 24.3005 32.6994 24.3611 32.886 24.3611C33.0727 24.3611 33.2267 24.3005 33.348 24.1791C33.4694 24.0578 33.53 23.9038 33.53 23.7171C33.53 23.5398 33.4694 23.3905 33.348 23.2691C33.2267 23.1478 33.0727 23.0871 32.886 23.0871C32.6994 23.0871 32.5454 23.1478 32.424 23.2691C32.2934 23.3905 32.228 23.5398 32.228 23.7171ZM44.7547 27.0351V33.3491C44.7547 33.9371 44.4934 34.3991 43.9707 34.7351C43.4574 35.0711 42.7434 35.2391 41.8287 35.2391C40.9141 35.2391 40.1954 35.0711 39.6727 34.7351C39.1594 34.3991 38.9027 33.9371 38.9027 33.3491V29.6811C38.7627 29.7278 38.6274 29.7511 38.4967 29.7511C38.0861 29.7511 37.7454 29.6205 37.4747 29.3591C37.2134 29.0885 37.0827 28.7385 37.0827 28.3091C37.0827 27.8985 37.2227 27.5625 37.5027 27.3011C37.7827 27.0305 38.1374 26.8951 38.5667 26.8951C39.0147 26.8951 39.3787 27.0351 39.6587 27.3151C39.9481 27.5858 40.0927 27.9405 40.0927 28.3791V33.2231C40.0927 33.5498 40.2467 33.8065 40.5547 33.9931C40.8627 34.1798 41.2874 34.2731 41.8287 34.2731C42.3701 34.2731 42.7947 34.1798 43.1027 33.9931C43.4107 33.8065 43.5647 33.5498 43.5647 33.2231V27.0351H44.7547ZM37.8527 28.3231C37.8527 28.5098 37.9134 28.6685 38.0347 28.7991C38.1654 28.9205 38.3241 28.9811 38.5107 28.9811C38.7067 28.9811 38.8654 28.9205 38.9867 28.7991C39.1081 28.6685 39.1687 28.5098 39.1687 28.3231C39.1687 28.1365 39.1081 27.9825 38.9867 27.8611C38.8654 27.7305 38.7067 27.6651 38.5107 27.6651C38.3241 27.6651 38.1654 27.7305 38.0347 27.8611C37.9134 27.9825 37.8527 28.1365 37.8527 28.3231ZM15.9093 47.8951C16.8706 47.8951 17.6406 48.1145 18.2193 48.5531C18.7979 48.9918 19.0873 49.5751 19.0873 50.3031V54.2511C19.0873 54.8765 18.8306 55.3665 18.3173 55.7211C17.8039 56.0665 17.0853 56.2391 16.1613 56.2391C15.2373 56.2391 14.5233 56.0665 14.0193 55.7211C13.5153 55.3665 13.2633 54.8765 13.2633 54.2511V52.0111C13.2633 51.5818 13.4033 51.2318 13.6833 50.9611C13.9633 50.6811 14.3226 50.5411 14.7613 50.5411C15.1999 50.5411 15.5546 50.6718 15.8253 50.9331C16.1053 51.1945 16.2453 51.5351 16.2453 51.9551C16.2453 52.3751 16.1146 52.7158 15.8533 52.9771C15.5919 53.2385 15.2559 53.3691 14.8453 53.3691C14.7239 53.3691 14.5886 53.3505 14.4393 53.3131V54.1391C14.4393 54.5031 14.5933 54.7831 14.9013 54.9791C15.2186 55.1751 15.6526 55.2731 16.2033 55.2731C16.7539 55.2731 17.1739 55.1705 17.4633 54.9651C17.7526 54.7598 17.8973 54.4705 17.8973 54.0971V50.3031C17.8973 49.8645 17.7106 49.5145 17.3373 49.2531C16.9733 48.9918 16.4879 48.8611 15.8813 48.8611C15.2933 48.8611 14.7939 48.9825 14.3833 49.2251C13.9819 49.4678 13.7393 49.7945 13.6553 50.2051H12.5073C12.5819 49.4958 12.9273 48.9358 13.5433 48.5251C14.1686 48.1051 14.9573 47.8951 15.9093 47.8951ZM14.8313 51.3111C14.6353 51.3111 14.4766 51.3718 14.3553 51.4931C14.2339 51.6145 14.1733 51.7685 14.1733 51.9551C14.1733 52.1418 14.2339 52.2958 14.3553 52.4171C14.4766 52.5385 14.6353 52.5991 14.8313 52.5991C15.0179 52.5991 15.1719 52.5385 15.2933 52.4171C15.4146 52.2958 15.4753 52.1418 15.4753 51.9551C15.4753 51.7685 15.4146 51.6145 15.2933 51.4931C15.1719 51.3718 15.0179 51.3111 14.8313 51.3111ZM18.2774 46.7751C17.792 46.7751 17.4 46.6258 17.1014 46.3271C16.7934 46.0191 16.6394 45.6318 16.6394 45.1651C16.6394 44.6985 16.7934 44.3158 17.1014 44.0171C17.4 43.7091 17.792 43.5551 18.2774 43.5551C18.7627 43.5551 19.1594 43.7091 19.4674 44.0171C19.7754 44.3158 19.9294 44.6985 19.9294 45.1651C19.9294 45.6318 19.7754 46.0191 19.4674 46.3271C19.1594 46.6258 18.7627 46.7751 18.2774 46.7751ZM18.2774 46.0471C18.5387 46.0471 18.7487 45.9678 18.9074 45.8091C19.066 45.6411 19.1454 45.4265 19.1454 45.1651C19.1454 44.9038 19.066 44.6938 18.9074 44.5351C18.7487 44.3671 18.5387 44.2831 18.2774 44.2831C18.0254 44.2831 17.82 44.3671 17.6614 44.5351C17.5027 44.6938 17.4234 44.9038 17.4234 45.1651C17.4234 45.4265 17.5027 45.6411 17.6614 45.8091C17.82 45.9678 18.0254 46.0471 18.2774 46.0471ZM24.6861 50.1351C24.6861 49.7431 24.5554 49.4351 24.2941 49.2111C24.0421 48.9778 23.6921 48.8611 23.2441 48.8611C22.7774 48.8611 22.4041 48.9918 22.1241 49.2531C21.8441 49.5145 21.7041 49.8691 21.7041 50.3171H20.5421C20.5421 49.5705 20.7847 48.9825 21.2701 48.5531C21.7554 48.1145 22.4134 47.8951 23.2441 47.8951C24.0561 47.8951 24.6954 48.0958 25.1621 48.4971C25.6381 48.8891 25.8761 49.4258 25.8761 50.1071V56.0991H24.6861V50.1351ZM29.591 53.3831C30.011 53.3831 30.3517 53.5185 30.613 53.7891C30.8743 54.0598 31.005 54.4051 31.005 54.8251C31.005 55.2358 30.865 55.5765 30.585 55.8471C30.3143 56.1085 29.9597 56.2391 29.521 56.2391C29.073 56.2391 28.709 56.1038 28.429 55.8331C28.149 55.5531 28.009 55.1938 28.009 54.7551V48.0351H29.185V53.4531C29.325 53.4065 29.4603 53.3831 29.591 53.3831ZM29.577 55.4691C29.773 55.4691 29.9317 55.4085 30.053 55.2871C30.1743 55.1565 30.235 54.9978 30.235 54.8111C30.235 54.6245 30.1743 54.4705 30.053 54.3491C29.9317 54.2185 29.773 54.1531 29.577 54.1531C29.381 54.1531 29.2223 54.2185 29.101 54.3491C28.9797 54.4705 28.919 54.6245 28.919 54.8111C28.919 54.9978 28.9797 55.1565 29.101 55.2871C29.2223 55.4085 29.381 55.4691 29.577 55.4691ZM35.759 47.8951C36.7016 47.8951 37.4483 48.1471 37.999 48.6511C38.559 49.1551 38.839 49.8458 38.839 50.7231V56.0991H37.649V50.8351C37.649 50.2285 37.467 49.7478 37.103 49.3931C36.7483 49.0385 36.2723 48.8611 35.675 48.8611C35.1896 48.8611 34.7603 48.9778 34.387 49.2111C34.0136 49.4351 33.7523 49.7431 33.603 50.1351C33.9483 50.1725 34.2703 50.2565 34.569 50.3871C34.877 50.5178 35.1103 50.6671 35.269 50.8351V51.0871C34.961 51.1711 34.723 51.3345 34.555 51.5771C34.387 51.8105 34.303 52.0811 34.303 52.3891C34.303 52.5945 34.345 52.9165 34.429 53.3551C34.541 53.9525 34.597 54.4051 34.597 54.7131C34.597 55.1705 34.4523 55.5391 34.163 55.8191C33.883 56.0991 33.5143 56.2391 33.057 56.2391C32.6183 56.2391 32.259 56.1085 31.979 55.8471C31.7083 55.5858 31.573 55.2451 31.573 54.8251C31.573 54.4051 31.699 54.0598 31.951 53.7891C32.2123 53.5185 32.553 53.3831 32.973 53.3831C33.0756 53.3831 33.211 53.4018 33.379 53.4391C33.267 53.0751 33.211 52.7391 33.211 52.4311C33.211 52.1231 33.2763 51.8385 33.407 51.5771C33.547 51.3158 33.7336 51.1245 33.967 51.0031C33.6216 50.8725 33.113 50.7931 32.441 50.7651C32.4783 50.2051 32.637 49.7105 32.917 49.2811C33.197 48.8425 33.5796 48.5018 34.065 48.2591C34.5596 48.0165 35.1243 47.8951 35.759 47.8951ZM33.015 55.4691C33.2016 55.4691 33.3556 55.4085 33.477 55.2871C33.6076 55.1565 33.673 54.9978 33.673 54.8111C33.673 54.6245 33.6076 54.4705 33.477 54.3491C33.3556 54.2185 33.2016 54.1531 33.015 54.1531C32.8283 54.1531 32.6696 54.2185 32.539 54.3491C32.4176 54.4705 32.357 54.6245 32.357 54.8111C32.357 54.9978 32.4176 55.1565 32.539 55.2871C32.6696 55.4085 32.8283 55.4691 33.015 55.4691ZM43.8819 47.8951C44.8433 47.8951 45.6133 48.1145 46.1919 48.5531C46.7706 48.9918 47.0599 49.5751 47.0599 50.3031V54.2511C47.0599 54.8765 46.8033 55.3665 46.2899 55.7211C45.7766 56.0665 45.0579 56.2391 44.1339 56.2391C43.2099 56.2391 42.4959 56.0665 41.9919 55.7211C41.4879 55.3665 41.2359 54.8765 41.2359 54.2511V52.0111C41.2359 51.5818 41.3759 51.2318 41.6559 50.9611C41.9359 50.6811 42.2953 50.5411 42.7339 50.5411C43.1726 50.5411 43.5273 50.6718 43.7979 50.9331C44.0779 51.1945 44.2179 51.5351 44.2179 51.9551C44.2179 52.3751 44.0873 52.7158 43.8259 52.9771C43.5646 53.2385 43.2286 53.3691 42.8179 53.3691C42.6966 53.3691 42.5613 53.3505 42.4119 53.3131V54.1391C42.4119 54.5031 42.5659 54.7831 42.8739 54.9791C43.1913 55.1751 43.6253 55.2731 44.1759 55.2731C44.7266 55.2731 45.1466 55.1705 45.4359 54.9651C45.7253 54.7598 45.8699 54.4705 45.8699 54.0971V50.3031C45.8699 49.8645 45.6833 49.5145 45.3099 49.2531C44.9459 48.9918 44.4606 48.8611 43.8539 48.8611C43.2659 48.8611 42.7666 48.9825 42.3559 49.2251C41.9546 49.4678 41.7119 49.7945 41.6279 50.2051H40.4799C40.5546 49.4958 40.8999 48.9358 41.5159 48.5251C42.1413 48.1051 42.9299 47.8951 43.8819 47.8951ZM42.8039 51.3111C42.6079 51.3111 42.4493 51.3718 42.3279 51.4931C42.2066 51.6145 42.1459 51.7685 42.1459 51.9551C42.1459 52.1418 42.2066 52.2958 42.3279 52.4171C42.4493 52.5385 42.6079 52.5991 42.8039 52.5991C42.9906 52.5991 43.1446 52.5385 43.2659 52.4171C43.3873 52.2958 43.4479 52.1418 43.4479 51.9551C43.4479 51.7685 43.3873 51.6145 43.2659 51.4931C43.1446 51.3718 42.9906 51.3111 42.8039 51.3111Z" fill="#101C3D"/>
  <path d="M100 40.0991L95 37.2124V42.9859L100 40.0991ZM60 40.5991H95.5V39.5991H60V40.5991Z" fill="#101C3D"/>
  <rect x="100" y="10.0991" width="60" height="60" rx="2" fill="#83D3FF"/>
  <path d="M116.862 27.8611C116.628 27.8611 116.423 27.9358 116.246 28.0851C116.078 28.2251 115.984 28.4305 115.966 28.7011C117.011 28.8318 117.898 29.0605 118.626 29.3871C119.354 29.7138 119.718 30.1198 119.718 30.6051V33.7551C119.718 34.1938 119.573 34.5531 119.284 34.8331C119.004 35.1038 118.64 35.2391 118.192 35.2391C117.753 35.2391 117.394 35.1085 117.114 34.8471C116.843 34.5765 116.708 34.2358 116.708 33.8251C116.708 33.3958 116.838 33.0505 117.1 32.7891C117.361 32.5185 117.702 32.3831 118.122 32.3831C118.252 32.3831 118.388 32.4065 118.528 32.4531V30.7591C118.528 30.4978 118.182 30.2551 117.492 30.0311C116.801 29.7978 115.868 29.6065 114.692 29.4571C114.701 28.6358 114.883 28.0058 115.238 27.5671C115.602 27.1191 116.096 26.8951 116.722 26.8951C116.955 26.8951 117.179 26.9185 117.394 26.9651C117.608 27.0118 117.902 27.0865 118.276 27.1891C118.677 27.3105 118.938 27.3711 119.06 27.3711C119.172 27.3711 119.274 27.3245 119.368 27.2311C119.461 27.1378 119.526 27.0071 119.564 26.8391L120.46 27.0911C120.348 27.4831 120.184 27.7865 119.97 28.0011C119.755 28.2158 119.508 28.3231 119.228 28.3231C119.097 28.3231 118.929 28.2998 118.724 28.2531C118.518 28.2065 118.308 28.1551 118.094 28.0991C118.038 28.0805 117.865 28.0385 117.576 27.9731C117.296 27.8985 117.058 27.8611 116.862 27.8611ZM118.136 34.4691C118.332 34.4691 118.49 34.4085 118.612 34.2871C118.733 34.1565 118.794 33.9978 118.794 33.8111C118.794 33.6245 118.733 33.4705 118.612 33.3491C118.49 33.2185 118.332 33.1531 118.136 33.1531C117.94 33.1531 117.781 33.2185 117.66 33.3491C117.538 33.4705 117.478 33.6245 117.478 33.8111C117.478 33.9978 117.538 34.1565 117.66 34.2871C117.781 34.4085 117.94 34.4691 118.136 34.4691ZM124.315 30.5631C123.82 30.5631 123.368 30.4885 122.957 30.3391C122.556 30.1805 122.234 29.9611 121.991 29.6811C121.748 29.4011 121.627 29.0791 121.627 28.7151C121.627 28.2951 121.767 27.9498 122.047 27.6791C122.336 27.3991 122.691 27.2591 123.111 27.2591C123.522 27.2591 123.867 27.3991 124.147 27.6791C124.427 27.9498 124.567 28.2951 124.567 28.7151C124.567 29.0978 124.418 29.4058 124.119 29.6391C124.175 29.6485 124.24 29.6531 124.315 29.6531C124.987 29.6531 125.5 29.4385 125.855 29.0091C126.219 28.5798 126.41 27.9778 126.429 27.2031H127.605C127.586 27.8471 127.446 28.4258 127.185 28.9391C126.924 29.4431 126.55 29.8398 126.065 30.1291C125.58 30.4185 124.996 30.5631 124.315 30.5631ZM123.097 29.2891C123.293 29.2891 123.447 29.2331 123.559 29.1211C123.671 29.0091 123.727 28.8598 123.727 28.6731C123.727 28.4771 123.671 28.3231 123.559 28.2111C123.447 28.0991 123.293 28.0431 123.097 28.0431C122.91 28.0431 122.761 28.0991 122.649 28.2111C122.537 28.3231 122.481 28.4771 122.481 28.6731C122.481 28.8598 122.537 29.0091 122.649 29.1211C122.761 29.2331 122.91 29.2891 123.097 29.2891ZM124.315 34.8331C123.82 34.8331 123.368 34.7585 122.957 34.6091C122.556 34.4505 122.234 34.2311 121.991 33.9511C121.748 33.6711 121.627 33.3491 121.627 32.9851C121.627 32.5651 121.767 32.2198 122.047 31.9491C122.336 31.6691 122.691 31.5291 123.111 31.5291C123.522 31.5291 123.867 31.6691 124.147 31.9491C124.427 32.2198 124.567 32.5651 124.567 32.9851C124.567 33.3678 124.418 33.6805 124.119 33.9231C124.175 33.9325 124.24 33.9371 124.315 33.9371C124.996 33.9091 125.514 33.6851 125.869 33.2651C126.224 32.8358 126.41 32.2385 126.429 31.4731H127.605C127.586 32.1171 127.446 32.6958 127.185 33.2091C126.924 33.7131 126.55 34.1098 126.065 34.3991C125.58 34.6885 124.996 34.8331 124.315 34.8331ZM123.097 33.5731C123.293 33.5731 123.447 33.5171 123.559 33.4051C123.671 33.2838 123.727 33.1298 123.727 32.9431C123.727 32.7565 123.671 32.6071 123.559 32.4951C123.447 32.3738 123.293 32.3131 123.097 32.3131C122.91 32.3131 122.761 32.3738 122.649 32.4951C122.537 32.6071 122.481 32.7565 122.481 32.9431C122.481 33.1298 122.537 33.2838 122.649 33.4051C122.761 33.5171 122.91 33.5731 123.097 33.5731ZM132.48 26.8951C133.488 26.8951 134.281 27.1471 134.86 27.6511C135.438 28.1551 135.728 28.8458 135.728 29.7231V35.0991H134.538V29.8211C134.538 29.1958 134.351 28.7151 133.978 28.3791C133.614 28.0338 133.114 27.8611 132.48 27.8611C131.994 27.8611 131.584 27.9545 131.248 28.1411C130.912 28.3278 130.66 28.5658 130.492 28.8551C130.324 29.1445 130.24 29.4478 130.24 29.7651C130.24 29.9705 130.263 30.1945 130.31 30.4371C130.366 30.6798 130.445 31.0065 130.548 31.4171C130.641 31.7905 130.711 32.0938 130.758 32.3271C130.804 32.5605 130.828 32.7705 130.828 32.9571V33.2231C131.024 32.9338 131.383 32.5605 131.906 32.1031L132.228 31.7951C131.91 31.7485 131.654 31.6131 131.458 31.3891C131.271 31.1651 131.178 30.8945 131.178 30.5771C131.178 30.2225 131.294 29.9285 131.528 29.6951C131.77 29.4618 132.078 29.3451 132.452 29.3451C132.816 29.3451 133.119 29.4665 133.362 29.7091C133.604 29.9425 133.726 30.2458 133.726 30.6191C133.726 30.9738 133.614 31.3051 133.39 31.6131C133.175 31.9211 132.844 32.2991 132.396 32.7471C131.929 33.2045 131.57 33.6058 131.318 33.9511C131.075 34.2965 130.93 34.6791 130.884 35.0991H129.708V33.1391C129.708 32.9338 129.619 32.4765 129.442 31.7671C129.32 31.3191 129.227 30.9365 129.162 30.6191C129.096 30.2925 129.064 30.0031 129.064 29.7511C129.064 29.2285 129.199 28.7525 129.47 28.3231C129.74 27.8845 130.132 27.5391 130.646 27.2871C131.168 27.0258 131.78 26.8951 132.48 26.8951ZM131.85 30.5771C131.85 30.7545 131.906 30.8991 132.018 31.0111C132.13 31.1231 132.274 31.1791 132.452 31.1791C132.629 31.1791 132.769 31.1231 132.872 31.0111C132.984 30.8991 133.04 30.7545 133.04 30.5771C133.04 30.3998 132.984 30.2598 132.872 30.1571C132.769 30.0451 132.629 29.9891 132.452 29.9891C132.274 29.9891 132.13 30.0451 132.018 30.1571C131.906 30.2598 131.85 30.3998 131.85 30.5771ZM137.688 22.2331C137.679 22.9051 137.525 23.4978 137.226 24.0111C136.927 24.5151 136.517 24.9071 135.994 25.1871C135.462 25.4578 134.86 25.5931 134.188 25.5931C133.656 25.5931 133.189 25.5138 132.788 25.3551C132.377 25.1965 132.06 24.9771 131.836 24.6971C131.612 24.4078 131.5 24.0858 131.5 23.7311C131.5 23.3391 131.631 23.0171 131.892 22.7651C132.153 22.5131 132.485 22.3871 132.886 22.3871C133.287 22.3871 133.619 22.5131 133.88 22.7651C134.141 23.0171 134.272 23.3438 134.272 23.7451C134.272 23.9598 134.235 24.1605 134.16 24.3471C134.076 24.5245 133.964 24.6738 133.824 24.7951C133.908 24.8045 134.029 24.8091 134.188 24.8091C134.944 24.8091 135.546 24.5711 135.994 24.0951C136.433 23.6098 136.657 22.9891 136.666 22.2331H137.688ZM132.228 23.7171C132.228 23.9038 132.293 24.0578 132.424 24.1791C132.545 24.3005 132.699 24.3611 132.886 24.3611C133.073 24.3611 133.227 24.3005 133.348 24.1791C133.469 24.0578 133.53 23.9038 133.53 23.7171C133.53 23.5398 133.469 23.3905 133.348 23.2691C133.227 23.1478 133.073 23.0871 132.886 23.0871C132.699 23.0871 132.545 23.1478 132.424 23.2691C132.293 23.3905 132.228 23.5398 132.228 23.7171ZM144.755 27.0351V33.3491C144.755 33.9371 144.493 34.3991 143.971 34.7351C143.457 35.0711 142.743 35.2391 141.829 35.2391C140.914 35.2391 140.195 35.0711 139.673 34.7351C139.159 34.3991 138.903 33.9371 138.903 33.3491V29.6811C138.763 29.7278 138.627 29.7511 138.497 29.7511C138.086 29.7511 137.745 29.6205 137.475 29.3591C137.213 29.0885 137.083 28.7385 137.083 28.3091C137.083 27.8985 137.223 27.5625 137.503 27.3011C137.783 27.0305 138.137 26.8951 138.567 26.8951C139.015 26.8951 139.379 27.0351 139.659 27.3151C139.948 27.5858 140.093 27.9405 140.093 28.3791V33.2231C140.093 33.5498 140.247 33.8065 140.555 33.9931C140.863 34.1798 141.287 34.2731 141.829 34.2731C142.37 34.2731 142.795 34.1798 143.103 33.9931C143.411 33.8065 143.565 33.5498 143.565 33.2231V27.0351H144.755ZM137.853 28.3231C137.853 28.5098 137.913 28.6685 138.035 28.7991C138.165 28.9205 138.324 28.9811 138.511 28.9811C138.707 28.9811 138.865 28.9205 138.987 28.7991C139.108 28.6685 139.169 28.5098 139.169 28.3231C139.169 28.1365 139.108 27.9825 138.987 27.8611C138.865 27.7305 138.707 27.6651 138.511 27.6651C138.324 27.6651 138.165 27.7305 138.035 27.8611C137.913 27.9825 137.853 28.1365 137.853 28.3231ZM115.671 56.2391C115.195 56.2391 114.808 56.1318 114.509 55.9171C114.21 55.7025 114.028 55.3991 113.963 55.0071L113.683 53.3131C113.534 53.3878 113.37 53.4251 113.193 53.4251C112.801 53.4251 112.474 53.3038 112.213 53.0611C111.961 52.8185 111.835 52.5105 111.835 52.1371C111.835 51.7545 111.966 51.4418 112.227 51.1991C112.498 50.9565 112.824 50.8351 113.207 50.8351C113.543 50.8351 113.837 50.9378 114.089 51.1431C114.341 51.3391 114.49 51.5911 114.537 51.8991L115.041 54.8391C115.06 54.9791 115.125 55.0911 115.237 55.1751C115.358 55.2498 115.503 55.2871 115.671 55.2871C115.876 55.2871 116.035 55.2358 116.147 55.1331C116.259 55.0211 116.315 54.8718 116.315 54.6851V50.2051C116.315 49.7945 116.147 49.4678 115.811 49.2251C115.475 48.9825 115.022 48.8611 114.453 48.8611C113.893 48.8611 113.422 48.9825 113.039 49.2251C112.656 49.4678 112.428 49.7945 112.353 50.2051H111.163C111.228 49.5051 111.555 48.9451 112.143 48.5251C112.74 48.1051 113.52 47.8951 114.481 47.8951C115.396 47.8951 116.128 48.0958 116.679 48.4971C117.23 48.8985 117.505 49.4398 117.505 50.1211V54.6291C117.505 55.1518 117.346 55.5531 117.029 55.8331C116.721 56.1038 116.268 56.2391 115.671 56.2391ZM113.151 52.7251C113.328 52.7251 113.468 52.6691 113.571 52.5571C113.683 52.4451 113.739 52.3005 113.739 52.1231C113.739 51.9458 113.683 51.8058 113.571 51.7031C113.468 51.5911 113.328 51.5351 113.151 51.5351C112.974 51.5351 112.829 51.5911 112.717 51.7031C112.605 51.8058 112.549 51.9458 112.549 52.1231C112.549 52.3005 112.605 52.4451 112.717 52.5571C112.829 52.6691 112.974 52.7251 113.151 52.7251ZM119.463 43.2331C119.454 43.9051 119.3 44.4978 119.001 45.0111C118.703 45.5151 118.292 45.9071 117.769 46.1871C117.237 46.4578 116.635 46.5931 115.963 46.5931C115.431 46.5931 114.965 46.5138 114.563 46.3551C114.153 46.1965 113.835 45.9771 113.611 45.6971C113.387 45.4078 113.275 45.0858 113.275 44.7311C113.275 44.3391 113.406 44.0171 113.667 43.7651C113.929 43.5131 114.26 43.3871 114.661 43.3871C115.063 43.3871 115.394 43.5131 115.655 43.7651C115.917 44.0171 116.047 44.3438 116.047 44.7451C116.047 44.9598 116.01 45.1605 115.935 45.3471C115.851 45.5245 115.739 45.6738 115.599 45.7951C115.683 45.8045 115.805 45.8091 115.963 45.8091C116.719 45.8091 117.321 45.5711 117.769 45.0951C118.208 44.6098 118.432 43.9891 118.441 43.2331H119.463ZM114.003 44.7171C114.003 44.9038 114.069 45.0578 114.199 45.1791C114.321 45.3005 114.475 45.3611 114.661 45.3611C114.848 45.3611 115.002 45.3005 115.123 45.1791C115.245 45.0578 115.305 44.9038 115.305 44.7171C115.305 44.5398 115.245 44.3905 115.123 44.2691C115.002 44.1478 114.848 44.0871 114.661 44.0871C114.475 44.0871 114.321 44.1478 114.199 44.2691C114.069 44.3905 114.003 44.5398 114.003 44.7171ZM122.33 47.8951C122.778 47.8951 123.142 48.0351 123.422 48.3151C123.711 48.5858 123.856 48.9405 123.856 49.3791V56.0991H122.68L118.83 51.8991L119.488 51.1851L122.666 54.6291V50.6811C122.526 50.7278 122.391 50.7511 122.26 50.7511C121.849 50.7511 121.509 50.6205 121.238 50.3591C120.977 50.0885 120.846 49.7385 120.846 49.3091C120.846 48.8985 120.986 48.5625 121.266 48.3011C121.546 48.0305 121.901 47.8951 122.33 47.8951ZM121.616 49.3231C121.616 49.5098 121.677 49.6685 121.798 49.7991C121.929 49.9205 122.087 49.9811 122.274 49.9811C122.47 49.9811 122.629 49.9205 122.75 49.7991C122.871 49.6685 122.932 49.5098 122.932 49.3231C122.932 49.1365 122.871 48.9825 122.75 48.8611C122.629 48.7305 122.47 48.6651 122.274 48.6651C122.087 48.6651 121.929 48.7305 121.798 48.8611C121.677 48.9825 121.616 49.1365 121.616 49.3231ZM133.028 49.3091C133.028 49.5705 132.972 49.8085 132.86 50.0231C132.748 50.2285 132.594 50.3918 132.398 50.5131C132.64 50.8025 132.762 51.1991 132.762 51.7031V56.0991H131.572V51.7031C131.572 51.2738 131.45 51.0591 131.208 51.0591C131.012 51.0591 130.811 51.2365 130.606 51.5911L128.086 56.0991H127.036V50.6811C126.896 50.7278 126.76 50.7511 126.63 50.7511C126.219 50.7511 125.878 50.6205 125.608 50.3591C125.346 50.0885 125.216 49.7385 125.216 49.3091C125.216 48.8985 125.356 48.5625 125.636 48.3011C125.916 48.0305 126.27 47.8951 126.7 47.8951C127.148 47.8951 127.512 48.0351 127.792 48.3151C128.081 48.5858 128.226 48.9405 128.226 49.3791V53.1731C128.226 53.4811 128.207 53.7565 128.17 53.9991C128.132 54.2325 128.109 54.3771 128.1 54.4331L129.92 51.1011C130.134 50.7278 130.358 50.4851 130.592 50.3731C130.452 50.2425 130.344 50.0885 130.27 49.9111C130.195 49.7245 130.158 49.5238 130.158 49.3091C130.158 48.8985 130.288 48.5625 130.55 48.3011C130.82 48.0305 131.166 47.8951 131.586 47.8951C132.006 47.8951 132.351 48.0305 132.622 48.3011C132.892 48.5625 133.028 48.8985 133.028 49.3091ZM125.986 49.3231C125.986 49.5098 126.046 49.6685 126.168 49.7991C126.298 49.9205 126.457 49.9811 126.644 49.9811C126.84 49.9811 126.998 49.9205 127.12 49.7991C127.241 49.6685 127.302 49.5098 127.302 49.3231C127.302 49.1365 127.241 48.9825 127.12 48.8611C126.998 48.7305 126.84 48.6651 126.644 48.6651C126.457 48.6651 126.298 48.7305 126.168 48.8611C126.046 48.9825 125.986 49.1365 125.986 49.3231ZM131.586 48.6651C131.399 48.6651 131.245 48.7305 131.124 48.8611C131.002 48.9825 130.942 49.1365 130.942 49.3231C130.942 49.5098 131.002 49.6685 131.124 49.7991C131.245 49.9205 131.399 49.9811 131.586 49.9811C131.782 49.9811 131.94 49.9205 132.062 49.7991C132.183 49.6685 132.244 49.5098 132.244 49.3231C132.244 49.1365 132.183 48.9825 132.062 48.8611C131.94 48.7305 131.782 48.6651 131.586 48.6651ZM137.07 47.8951C137.947 47.8951 138.643 48.1145 139.156 48.5531C139.669 48.9918 139.926 49.5845 139.926 50.3311V54.7551C139.926 55.1938 139.781 55.5531 139.492 55.8331C139.212 56.1038 138.848 56.2391 138.4 56.2391C137.961 56.2391 137.602 56.1085 137.322 55.8471C137.051 55.5765 136.916 55.2358 136.916 54.8251C136.916 54.3958 137.047 54.0505 137.308 53.7891C137.569 53.5185 137.91 53.3831 138.33 53.3831C138.461 53.3831 138.596 53.4065 138.736 53.4531V50.4431C138.736 49.9485 138.587 49.5611 138.288 49.2811C137.989 49.0011 137.574 48.8611 137.042 48.8611C136.566 48.8611 136.16 48.9918 135.824 49.2531C135.497 49.5145 135.301 49.8598 135.236 50.2891H134.046C134.111 49.5518 134.419 48.9685 134.97 48.5391C135.521 48.1098 136.221 47.8951 137.07 47.8951ZM138.344 55.4691C138.54 55.4691 138.699 55.4085 138.82 55.2871C138.941 55.1565 139.002 54.9978 139.002 54.8111C139.002 54.6245 138.941 54.4705 138.82 54.3491C138.699 54.2185 138.54 54.1531 138.344 54.1531C138.148 54.1531 137.989 54.2185 137.868 54.3491C137.747 54.4705 137.686 54.6245 137.686 54.8111C137.686 54.9978 137.747 55.1565 137.868 55.2871C137.989 55.4085 138.148 55.4691 138.344 55.4691ZM141.885 43.2331C141.876 43.9051 141.722 44.4978 141.423 45.0111C141.125 45.5151 140.714 45.9071 140.191 46.1871C139.659 46.4578 139.057 46.5931 138.385 46.5931C137.853 46.5931 137.387 46.5138 136.985 46.3551C136.575 46.1965 136.257 45.9771 136.033 45.6971C135.809 45.4078 135.697 45.0858 135.697 44.7311C135.697 44.3391 135.828 44.0171 136.089 43.7651C136.351 43.5131 136.682 43.3871 137.083 43.3871C137.485 43.3871 137.816 43.5131 138.077 43.7651C138.339 44.0171 138.469 44.3438 138.469 44.7451C138.469 44.9598 138.432 45.1605 138.357 45.3471C138.273 45.5245 138.161 45.6738 138.021 45.7951C138.105 45.8045 138.227 45.8091 138.385 45.8091C139.141 45.8091 139.743 45.5711 140.191 45.0951C140.63 44.6098 140.854 43.9891 140.863 43.2331H141.885ZM136.425 44.7171C136.425 44.9038 136.491 45.0578 136.621 45.1791C136.743 45.3005 136.897 45.3611 137.083 45.3611C137.27 45.3611 137.424 45.3005 137.545 45.1791C137.667 45.0578 137.727 44.9038 137.727 44.7171C137.727 44.5398 137.667 44.3905 137.545 44.2691C137.424 44.1478 137.27 44.0871 137.083 44.0871C136.897 44.0871 136.743 44.1478 136.621 44.2691C136.491 44.3905 136.425 44.5398 136.425 44.7171ZM144.962 47.8951C145.97 47.8951 146.763 48.1471 147.342 48.6511C147.921 49.1551 148.21 49.8458 148.21 50.7231V56.0991H147.02V50.8211C147.02 50.1958 146.833 49.7151 146.46 49.3791C146.096 49.0338 145.597 48.8611 144.962 48.8611C144.477 48.8611 144.066 48.9545 143.73 49.1411C143.394 49.3278 143.142 49.5658 142.974 49.8551C142.806 50.1445 142.722 50.4478 142.722 50.7651C142.722 50.9705 142.745 51.1945 142.792 51.4371C142.848 51.6798 142.927 52.0065 143.03 52.4171C143.123 52.7905 143.193 53.0938 143.24 53.3271C143.287 53.5605 143.31 53.7705 143.31 53.9571V54.2231C143.506 53.9338 143.865 53.5605 144.388 53.1031L144.71 52.7951C144.393 52.7485 144.136 52.6131 143.94 52.3891C143.753 52.1651 143.66 51.8945 143.66 51.5771C143.66 51.2225 143.777 50.9285 144.01 50.6951C144.253 50.4618 144.561 50.3451 144.934 50.3451C145.298 50.3451 145.601 50.4665 145.844 50.7091C146.087 50.9425 146.208 51.2458 146.208 51.6191C146.208 51.9738 146.096 52.3051 145.872 52.6131C145.657 52.9211 145.326 53.2991 144.878 53.7471C144.411 54.2045 144.052 54.6058 143.8 54.9511C143.557 55.2965 143.413 55.6791 143.366 56.0991H142.19V54.1391C142.19 53.9338 142.101 53.4765 141.924 52.7671C141.803 52.3191 141.709 51.9365 141.644 51.6191C141.579 51.2925 141.546 51.0031 141.546 50.7511C141.546 50.2285 141.681 49.7525 141.952 49.3231C142.223 48.8845 142.615 48.5391 143.128 48.2871C143.651 48.0258 144.262 47.8951 144.962 47.8951ZM144.332 51.5771C144.332 51.7545 144.388 51.8991 144.5 52.0111C144.612 52.1231 144.757 52.1791 144.934 52.1791C145.111 52.1791 145.251 52.1231 145.354 52.0111C145.466 51.8991 145.522 51.7545 145.522 51.5771C145.522 51.3998 145.466 51.2598 145.354 51.1571C145.251 51.0451 145.111 50.9891 144.934 50.9891C144.757 50.9891 144.612 51.0451 144.5 51.1571C144.388 51.2598 144.332 51.3998 144.332 51.5771Z" fill="#101C3D"/>
  <path d="M200 40.0991L195 37.2124V42.9859L200 40.0991ZM160 40.5991H195.5V39.5991H160V40.5991Z" fill="#101C3D"/>
  <rect x="200" y="10.0991" width="60" height="60" rx="2" fill="#83D3FF"/>
  <path d="M216.862 27.8611C216.628 27.8611 216.423 27.9358 216.246 28.0851C216.078 28.2251 215.984 28.4305 215.966 28.7011C217.011 28.8318 217.898 29.0605 218.626 29.3871C219.354 29.7138 219.718 30.1198 219.718 30.6051V33.7551C219.718 34.1938 219.573 34.5531 219.284 34.8331C219.004 35.1038 218.64 35.2391 218.192 35.2391C217.753 35.2391 217.394 35.1085 217.114 34.8471C216.843 34.5765 216.708 34.2358 216.708 33.8251C216.708 33.3958 216.838 33.0505 217.1 32.7891C217.361 32.5185 217.702 32.3831 218.122 32.3831C218.252 32.3831 218.388 32.4065 218.528 32.4531V30.7591C218.528 30.4978 218.182 30.2551 217.492 30.0311C216.801 29.7978 215.868 29.6065 214.692 29.4571C214.701 28.6358 214.883 28.0058 215.238 27.5671C215.602 27.1191 216.096 26.8951 216.722 26.8951C216.955 26.8951 217.179 26.9185 217.394 26.9651C217.608 27.0118 217.902 27.0865 218.276 27.1891C218.677 27.3105 218.938 27.3711 219.06 27.3711C219.172 27.3711 219.274 27.3245 219.368 27.2311C219.461 27.1378 219.526 27.0071 219.564 26.8391L220.46 27.0911C220.348 27.4831 220.184 27.7865 219.97 28.0011C219.755 28.2158 219.508 28.3231 219.228 28.3231C219.097 28.3231 218.929 28.2998 218.724 28.2531C218.518 28.2065 218.308 28.1551 218.094 28.0991C218.038 28.0805 217.865 28.0385 217.576 27.9731C217.296 27.8985 217.058 27.8611 216.862 27.8611ZM218.136 34.4691C218.332 34.4691 218.49 34.4085 218.612 34.2871C218.733 34.1565 218.794 33.9978 218.794 33.8111C218.794 33.6245 218.733 33.4705 218.612 33.3491C218.49 33.2185 218.332 33.1531 218.136 33.1531C217.94 33.1531 217.781 33.2185 217.66 33.3491C217.538 33.4705 217.478 33.6245 217.478 33.8111C217.478 33.9978 217.538 34.1565 217.66 34.2871C217.781 34.4085 217.94 34.4691 218.136 34.4691ZM224.315 30.5631C223.82 30.5631 223.368 30.4885 222.957 30.3391C222.556 30.1805 222.234 29.9611 221.991 29.6811C221.748 29.4011 221.627 29.0791 221.627 28.7151C221.627 28.2951 221.767 27.9498 222.047 27.6791C222.336 27.3991 222.691 27.2591 223.111 27.2591C223.522 27.2591 223.867 27.3991 224.147 27.6791C224.427 27.9498 224.567 28.2951 224.567 28.7151C224.567 29.0978 224.418 29.4058 224.119 29.6391C224.175 29.6485 224.24 29.6531 224.315 29.6531C224.987 29.6531 225.5 29.4385 225.855 29.0091C226.219 28.5798 226.41 27.9778 226.429 27.2031H227.605C227.586 27.8471 227.446 28.4258 227.185 28.9391C226.924 29.4431 226.55 29.8398 226.065 30.1291C225.58 30.4185 224.996 30.5631 224.315 30.5631ZM223.097 29.2891C223.293 29.2891 223.447 29.2331 223.559 29.1211C223.671 29.0091 223.727 28.8598 223.727 28.6731C223.727 28.4771 223.671 28.3231 223.559 28.2111C223.447 28.0991 223.293 28.0431 223.097 28.0431C222.91 28.0431 222.761 28.0991 222.649 28.2111C222.537 28.3231 222.481 28.4771 222.481 28.6731C222.481 28.8598 222.537 29.0091 222.649 29.1211C222.761 29.2331 222.91 29.2891 223.097 29.2891ZM224.315 34.8331C223.82 34.8331 223.368 34.7585 222.957 34.6091C222.556 34.4505 222.234 34.2311 221.991 33.9511C221.748 33.6711 221.627 33.3491 221.627 32.9851C221.627 32.5651 221.767 32.2198 222.047 31.9491C222.336 31.6691 222.691 31.5291 223.111 31.5291C223.522 31.5291 223.867 31.6691 224.147 31.9491C224.427 32.2198 224.567 32.5651 224.567 32.9851C224.567 33.3678 224.418 33.6805 224.119 33.9231C224.175 33.9325 224.24 33.9371 224.315 33.9371C224.996 33.9091 225.514 33.6851 225.869 33.2651C226.224 32.8358 226.41 32.2385 226.429 31.4731H227.605C227.586 32.1171 227.446 32.6958 227.185 33.2091C226.924 33.7131 226.55 34.1098 226.065 34.3991C225.58 34.6885 224.996 34.8331 224.315 34.8331ZM223.097 33.5731C223.293 33.5731 223.447 33.5171 223.559 33.4051C223.671 33.2838 223.727 33.1298 223.727 32.9431C223.727 32.7565 223.671 32.6071 223.559 32.4951C223.447 32.3738 223.293 32.3131 223.097 32.3131C222.91 32.3131 222.761 32.3738 222.649 32.4951C222.537 32.6071 222.481 32.7565 222.481 32.9431C222.481 33.1298 222.537 33.2838 222.649 33.4051C222.761 33.5171 222.91 33.5731 223.097 33.5731ZM232.48 26.8951C233.488 26.8951 234.281 27.1471 234.86 27.6511C235.438 28.1551 235.728 28.8458 235.728 29.7231V35.0991H234.538V29.8211C234.538 29.1958 234.351 28.7151 233.978 28.3791C233.614 28.0338 233.114 27.8611 232.48 27.8611C231.994 27.8611 231.584 27.9545 231.248 28.1411C230.912 28.3278 230.66 28.5658 230.492 28.8551C230.324 29.1445 230.24 29.4478 230.24 29.7651C230.24 29.9705 230.263 30.1945 230.31 30.4371C230.366 30.6798 230.445 31.0065 230.548 31.4171C230.641 31.7905 230.711 32.0938 230.758 32.3271C230.804 32.5605 230.828 32.7705 230.828 32.9571V33.2231C231.024 32.9338 231.383 32.5605 231.906 32.1031L232.228 31.7951C231.91 31.7485 231.654 31.6131 231.458 31.3891C231.271 31.1651 231.178 30.8945 231.178 30.5771C231.178 30.2225 231.294 29.9285 231.528 29.6951C231.77 29.4618 232.078 29.3451 232.452 29.3451C232.816 29.3451 233.119 29.4665 233.362 29.7091C233.604 29.9425 233.726 30.2458 233.726 30.6191C233.726 30.9738 233.614 31.3051 233.39 31.6131C233.175 31.9211 232.844 32.2991 232.396 32.7471C231.929 33.2045 231.57 33.6058 231.318 33.9511C231.075 34.2965 230.93 34.6791 230.884 35.0991H229.708V33.1391C229.708 32.9338 229.619 32.4765 229.442 31.7671C229.32 31.3191 229.227 30.9365 229.162 30.6191C229.096 30.2925 229.064 30.0031 229.064 29.7511C229.064 29.2285 229.199 28.7525 229.47 28.3231C229.74 27.8845 230.132 27.5391 230.646 27.2871C231.168 27.0258 231.78 26.8951 232.48 26.8951ZM231.85 30.5771C231.85 30.7545 231.906 30.8991 232.018 31.0111C232.13 31.1231 232.274 31.1791 232.452 31.1791C232.629 31.1791 232.769 31.1231 232.872 31.0111C232.984 30.8991 233.04 30.7545 233.04 30.5771C233.04 30.3998 232.984 30.2598 232.872 30.1571C232.769 30.0451 232.629 29.9891 232.452 29.9891C232.274 29.9891 232.13 30.0451 232.018 30.1571C231.906 30.2598 231.85 30.3998 231.85 30.5771ZM237.688 22.2331C237.679 22.9051 237.525 23.4978 237.226 24.0111C236.927 24.5151 236.517 24.9071 235.994 25.1871C235.462 25.4578 234.86 25.5931 234.188 25.5931C233.656 25.5931 233.189 25.5138 232.788 25.3551C232.377 25.1965 232.06 24.9771 231.836 24.6971C231.612 24.4078 231.5 24.0858 231.5 23.7311C231.5 23.3391 231.631 23.0171 231.892 22.7651C232.153 22.5131 232.485 22.3871 232.886 22.3871C233.287 22.3871 233.619 22.5131 233.88 22.7651C234.141 23.0171 234.272 23.3438 234.272 23.7451C234.272 23.9598 234.235 24.1605 234.16 24.3471C234.076 24.5245 233.964 24.6738 233.824 24.7951C233.908 24.8045 234.029 24.8091 234.188 24.8091C234.944 24.8091 235.546 24.5711 235.994 24.0951C236.433 23.6098 236.657 22.9891 236.666 22.2331H237.688ZM232.228 23.7171C232.228 23.9038 232.293 24.0578 232.424 24.1791C232.545 24.3005 232.699 24.3611 232.886 24.3611C233.073 24.3611 233.227 24.3005 233.348 24.1791C233.469 24.0578 233.53 23.9038 233.53 23.7171C233.53 23.5398 233.469 23.3905 233.348 23.2691C233.227 23.1478 233.073 23.0871 232.886 23.0871C232.699 23.0871 232.545 23.1478 232.424 23.2691C232.293 23.3905 232.228 23.5398 232.228 23.7171ZM244.755 27.0351V33.3491C244.755 33.9371 244.493 34.3991 243.971 34.7351C243.457 35.0711 242.743 35.2391 241.829 35.2391C240.914 35.2391 240.195 35.0711 239.673 34.7351C239.159 34.3991 238.903 33.9371 238.903 33.3491V29.6811C238.763 29.7278 238.627 29.7511 238.497 29.7511C238.086 29.7511 237.745 29.6205 237.475 29.3591C237.213 29.0885 237.083 28.7385 237.083 28.3091C237.083 27.8985 237.223 27.5625 237.503 27.3011C237.783 27.0305 238.137 26.8951 238.567 26.8951C239.015 26.8951 239.379 27.0351 239.659 27.3151C239.948 27.5858 240.093 27.9405 240.093 28.3791V33.2231C240.093 33.5498 240.247 33.8065 240.555 33.9931C240.863 34.1798 241.287 34.2731 241.829 34.2731C242.37 34.2731 242.795 34.1798 243.103 33.9931C243.411 33.8065 243.565 33.5498 243.565 33.2231V27.0351H244.755ZM237.853 28.3231C237.853 28.5098 237.913 28.6685 238.035 28.7991C238.165 28.9205 238.324 28.9811 238.511 28.9811C238.707 28.9811 238.865 28.9205 238.987 28.7991C239.108 28.6685 239.169 28.5098 239.169 28.3231C239.169 28.1365 239.108 27.9825 238.987 27.8611C238.865 27.7305 238.707 27.6651 238.511 27.6651C238.324 27.6651 238.165 27.7305 238.035 27.8611C237.913 27.9825 237.853 28.1365 237.853 28.3231ZM215.439 44.7171V54.3491C215.439 54.9371 215.173 55.3991 214.641 55.7351C214.118 56.0711 213.385 56.2391 212.443 56.2391C211.528 56.2391 210.8 56.0711 210.259 55.7351C209.717 55.3991 209.447 54.9371 209.447 54.3491V50.6811C209.307 50.7278 209.171 50.7511 209.041 50.7511C208.63 50.7511 208.289 50.6205 208.019 50.3591C207.757 50.0885 207.627 49.7385 207.627 49.3091C207.627 48.8985 207.767 48.5625 208.047 48.3011C208.327 48.0305 208.681 47.8951 209.111 47.8951C209.559 47.8951 209.923 48.0351 210.203 48.3151C210.492 48.5858 210.637 48.9405 210.637 49.3791V54.2231C210.637 54.5405 210.8 54.7971 211.127 54.9931C211.463 55.1798 211.901 55.2731 212.443 55.2731C213.012 55.2731 213.455 55.1798 213.773 54.9931C214.09 54.8065 214.249 54.5498 214.249 54.2231V44.7171H215.439ZM208.397 49.3231C208.397 49.5098 208.457 49.6685 208.579 49.7991C208.709 49.9205 208.868 49.9811 209.055 49.9811C209.251 49.9811 209.409 49.9205 209.531 49.7991C209.652 49.6685 209.713 49.5098 209.713 49.3231C209.713 49.1365 209.652 48.9825 209.531 48.8611C209.409 48.7305 209.251 48.6651 209.055 48.6651C208.868 48.6651 208.709 48.7305 208.579 48.8611C208.457 48.9825 208.397 49.1365 208.397 49.3231ZM219.125 48.8611C218.891 48.8611 218.686 48.9358 218.509 49.0851C218.341 49.2251 218.247 49.4305 218.229 49.7011C219.274 49.8318 220.161 50.0605 220.889 50.3871C221.617 50.7138 221.981 51.1198 221.981 51.6051V54.7551C221.981 55.1938 221.836 55.5531 221.547 55.8331C221.267 56.1038 220.903 56.2391 220.455 56.2391C220.016 56.2391 219.657 56.1085 219.377 55.8471C219.106 55.5765 218.971 55.2358 218.971 54.8251C218.971 54.3958 219.101 54.0505 219.363 53.7891C219.624 53.5185 219.965 53.3831 220.385 53.3831C220.515 53.3831 220.651 53.4065 220.791 53.4531V51.7591C220.791 51.4978 220.445 51.2551 219.755 51.0311C219.064 50.7978 218.131 50.6065 216.955 50.4571C216.964 49.6358 217.146 49.0058 217.501 48.5671C217.865 48.1191 218.359 47.8951 218.985 47.8951C219.218 47.8951 219.442 47.9185 219.657 47.9651C219.871 48.0118 220.165 48.0865 220.539 48.1891C220.94 48.3105 221.201 48.3711 221.323 48.3711C221.435 48.3711 221.537 48.3245 221.631 48.2311C221.724 48.1378 221.789 48.0071 221.827 47.8391L222.723 48.0911C222.611 48.4831 222.447 48.7865 222.233 49.0011C222.018 49.2158 221.771 49.3231 221.491 49.3231C221.36 49.3231 221.192 49.2998 220.987 49.2531C220.781 49.2065 220.571 49.1551 220.357 49.0991C220.301 49.0805 220.128 49.0385 219.839 48.9731C219.559 48.8985 219.321 48.8611 219.125 48.8611ZM220.399 55.4691C220.595 55.4691 220.753 55.4085 220.875 55.2871C220.996 55.1565 221.057 54.9978 221.057 54.8111C221.057 54.6245 220.996 54.4705 220.875 54.3491C220.753 54.2185 220.595 54.1531 220.399 54.1531C220.203 54.1531 220.044 54.2185 219.923 54.3491C219.801 54.4705 219.741 54.6245 219.741 54.8111C219.741 54.9978 219.801 55.1565 219.923 55.2871C220.044 55.4085 220.203 55.4691 220.399 55.4691ZM226.578 51.5631C226.083 51.5631 225.63 51.4885 225.22 51.3391C224.818 51.1805 224.496 50.9611 224.254 50.6811C224.011 50.4011 223.89 50.0791 223.89 49.7151C223.89 49.2951 224.03 48.9498 224.31 48.6791C224.599 48.3991 224.954 48.2591 225.374 48.2591C225.784 48.2591 226.13 48.3991 226.41 48.6791C226.69 48.9498 226.83 49.2951 226.83 49.7151C226.83 50.0978 226.68 50.4058 226.382 50.6391C226.438 50.6485 226.503 50.6531 226.578 50.6531C227.25 50.6531 227.763 50.4385 228.118 50.0091C228.482 49.5798 228.673 48.9778 228.692 48.2031H229.868C229.849 48.8471 229.709 49.4258 229.448 49.9391C229.186 50.4431 228.813 50.8398 228.328 51.1291C227.842 51.4185 227.259 51.5631 226.578 51.5631ZM225.36 50.2891C225.556 50.2891 225.71 50.2331 225.822 50.1211C225.934 50.0091 225.99 49.8598 225.99 49.6731C225.99 49.4771 225.934 49.3231 225.822 49.2111C225.71 49.0991 225.556 49.0431 225.36 49.0431C225.173 49.0431 225.024 49.0991 224.912 49.2111C224.8 49.3231 224.744 49.4771 224.744 49.6731C224.744 49.8598 224.8 50.0091 224.912 50.1211C225.024 50.2331 225.173 50.2891 225.36 50.2891ZM226.578 55.8331C226.083 55.8331 225.63 55.7585 225.22 55.6091C224.818 55.4505 224.496 55.2311 224.254 54.9511C224.011 54.6711 223.89 54.3491 223.89 53.9851C223.89 53.5651 224.03 53.2198 224.31 52.9491C224.599 52.6691 224.954 52.5291 225.374 52.5291C225.784 52.5291 226.13 52.6691 226.41 52.9491C226.69 53.2198 226.83 53.5651 226.83 53.9851C226.83 54.3678 226.68 54.6805 226.382 54.9231C226.438 54.9325 226.503 54.9371 226.578 54.9371C227.259 54.9091 227.777 54.6851 228.132 54.2651C228.486 53.8358 228.673 53.2385 228.692 52.4731H229.868C229.849 53.1171 229.709 53.6958 229.448 54.2091C229.186 54.7131 228.813 55.1098 228.328 55.3991C227.842 55.6885 227.259 55.8331 226.578 55.8331ZM225.36 54.5731C225.556 54.5731 225.71 54.5171 225.822 54.4051C225.934 54.2838 225.99 54.1298 225.99 53.9431C225.99 53.7565 225.934 53.6071 225.822 53.4951C225.71 53.3738 225.556 53.3131 225.36 53.3131C225.173 53.3131 225.024 53.3738 224.912 53.4951C224.8 53.6071 224.744 53.7565 224.744 53.9431C224.744 54.1298 224.8 54.2838 224.912 54.4051C225.024 54.5171 225.173 54.5731 225.36 54.5731ZM233.412 53.3831C233.832 53.3831 234.173 53.5185 234.434 53.7891C234.696 54.0598 234.826 54.4051 234.826 54.8251C234.826 55.2358 234.686 55.5765 234.406 55.8471C234.136 56.1085 233.781 56.2391 233.342 56.2391C232.894 56.2391 232.53 56.1038 232.25 55.8331C231.97 55.5531 231.83 55.1938 231.83 54.7551V48.0351H233.006V53.4531C233.146 53.4065 233.282 53.3831 233.412 53.3831ZM233.398 55.4691C233.594 55.4691 233.753 55.4085 233.874 55.2871C233.996 55.1565 234.056 54.9978 234.056 54.8111C234.056 54.6245 233.996 54.4705 233.874 54.3491C233.753 54.2185 233.594 54.1531 233.398 54.1531C233.202 54.1531 233.044 54.2185 232.922 54.3491C232.801 54.4705 232.74 54.6245 232.74 54.8111C232.74 54.9978 232.801 55.1565 232.922 55.2871C233.044 55.4085 233.202 55.4691 233.398 55.4691ZM241.736 47.8951C242.735 47.8951 243.234 48.4691 243.234 49.6171V56.0991H242.044V49.6311C242.044 49.1551 241.89 48.9171 241.582 48.9171C241.433 48.9171 241.316 48.9545 241.232 49.0291C241.158 49.0945 241.092 49.1971 241.036 49.3371L238.46 56.0991H237.214V50.6811C237.074 50.7278 236.939 50.7511 236.808 50.7511C236.398 50.7511 236.057 50.6205 235.786 50.3591C235.525 50.0885 235.394 49.7385 235.394 49.3091C235.394 48.8985 235.534 48.5625 235.814 48.3011C236.094 48.0305 236.449 47.8951 236.878 47.8951C237.326 47.8951 237.69 48.0351 237.97 48.3151C238.26 48.5858 238.404 48.9405 238.404 49.3791V53.0471C238.404 53.4205 238.367 53.8965 238.292 54.4751L238.684 52.9911L240.098 49.1551C240.406 48.3151 240.952 47.8951 241.736 47.8951ZM236.164 49.3231C236.164 49.5098 236.225 49.6685 236.346 49.7991C236.477 49.9205 236.636 49.9811 236.822 49.9811C237.018 49.9811 237.177 49.9205 237.298 49.7991C237.42 49.6685 237.48 49.5098 237.48 49.3231C237.48 49.1365 237.42 48.9825 237.298 48.8611C237.177 48.7305 237.018 48.6651 236.822 48.6651C236.636 48.6651 236.477 48.7305 236.346 48.8611C236.225 48.9825 236.164 49.1365 236.164 49.3231ZM251.889 47.2511C251.787 47.7271 251.488 48.2498 250.993 48.8191C251.441 49.2858 251.665 49.8691 251.665 50.5691V56.0991H250.489V50.6811C250.489 50.2891 250.387 49.9391 250.181 49.6311C249.836 49.9298 249.439 50.2331 248.991 50.5411C249.206 50.6345 249.374 50.7791 249.495 50.9751C249.617 51.1618 249.677 51.3905 249.677 51.6611C249.677 52.0345 249.561 52.3425 249.327 52.5851C249.094 52.8185 248.791 52.9351 248.417 52.9351C248.203 52.9351 247.993 52.8885 247.787 52.7951C247.591 52.6925 247.442 52.5478 247.339 52.3611C247.153 52.6505 246.994 53.0098 246.863 53.4391C246.733 53.8685 246.667 54.2698 246.667 54.6431V56.0991H245.491V54.0971C245.491 53.9571 245.463 53.7611 245.407 53.5091C245.351 53.2571 245.291 53.0005 245.225 52.7391C244.983 51.8618 244.861 51.2225 244.861 50.8211C244.861 49.9251 245.169 49.2158 245.785 48.6931C246.411 48.1611 247.26 47.8951 248.333 47.8951C249.033 47.8951 249.645 48.0118 250.167 48.2451C250.373 47.8811 250.494 47.5498 250.531 47.2511H251.889ZM247.955 50.4571C248.562 50.0278 249.08 49.5751 249.509 49.0991C249.173 48.9405 248.781 48.8611 248.333 48.8611C247.624 48.8611 247.059 49.0431 246.639 49.4071C246.229 49.7711 246.023 50.2611 246.023 50.8771C246.023 51.1105 246.051 51.3998 246.107 51.7451C246.173 52.0811 246.215 52.2911 246.233 52.3751L246.317 52.7671C246.439 52.1698 246.639 51.6658 246.919 51.2551C247.199 50.8351 247.545 50.5691 247.955 50.4571ZM248.389 52.2631C248.567 52.2631 248.707 52.2071 248.809 52.0951C248.921 51.9831 248.977 51.8385 248.977 51.6611C248.977 51.4838 248.921 51.3438 248.809 51.2411C248.707 51.1291 248.567 51.0731 248.389 51.0731C248.212 51.0731 248.067 51.1291 247.955 51.2411C247.853 51.3438 247.801 51.4838 247.801 51.6611C247.801 51.8385 247.853 51.9831 247.955 52.0951C248.067 52.2071 248.212 52.2631 248.389 52.2631Z" fill="#101C3D"/>
  <path opacity="0.6" d="M71.6795 20.3878V27.2998H70.6115L68.8115 24.6238L66.9995 27.2998H65.9435V21.5398C65.9435 21.1638 66.0635 20.8598 66.3035 20.6278C66.5435 20.3878 66.8555 20.2678 67.2395 20.2678C67.6155 20.2678 67.9195 20.3838 68.1515 20.6158C68.3915 20.8398 68.5115 21.1278 68.5115 21.4798C68.5115 21.8478 68.3995 22.1478 68.1755 22.3798C67.9515 22.6038 67.6595 22.7158 67.2995 22.7158C67.2035 22.7158 67.0915 22.6998 66.9635 22.6678V25.8718L68.4515 23.7358H69.1715L70.6595 25.8718V20.3878H71.6795ZM67.2875 20.9278C67.1195 20.9278 66.9835 20.9838 66.8795 21.0958C66.7755 21.1998 66.7235 21.3318 66.7235 21.4918C66.7235 21.6518 66.7755 21.7878 66.8795 21.8998C66.9835 22.0038 67.1195 22.0558 67.2875 22.0558C67.4555 22.0558 67.5915 22.0038 67.6955 21.8998C67.7995 21.7878 67.8515 21.6518 67.8515 21.4918C67.8515 21.3318 67.7995 21.1998 67.6955 21.0958C67.5915 20.9838 67.4555 20.9278 67.2875 20.9278ZM70.2644 31.2838C69.8244 31.2838 69.4884 31.1878 69.2564 30.9958C69.0164 30.8118 68.8964 30.5518 68.8964 30.2158V29.9398C68.7684 29.9718 68.6564 29.9878 68.5604 29.9878C68.2724 29.9878 68.0404 29.8958 67.8644 29.7118C67.6804 29.5278 67.5884 29.2918 67.5884 29.0038C67.5884 28.7158 67.6884 28.4798 67.8884 28.2958C68.0804 28.1118 68.3284 28.0198 68.6324 28.0198C68.9604 28.0198 69.2324 28.1038 69.4484 28.2718C69.6564 28.4478 69.7604 28.6718 69.7604 28.9438V30.2158C69.7604 30.3438 69.8044 30.4438 69.8924 30.5158C69.9804 30.5878 70.1124 30.6238 70.2884 30.6238C70.4644 30.6238 70.5964 30.5878 70.6844 30.5158C70.7724 30.4438 70.8164 30.3438 70.8164 30.2158V28.0798H71.6804V30.2158C71.6804 30.5518 71.5604 30.8118 71.3204 30.9958C71.0724 31.1878 70.7204 31.2838 70.2644 31.2838ZM68.5724 29.4358C68.7004 29.4358 68.8044 29.3958 68.8844 29.3158C68.9644 29.2358 69.0044 29.1318 69.0044 29.0038C69.0044 28.8758 68.9644 28.7718 68.8844 28.6918C68.8044 28.6118 68.7004 28.5718 68.5724 28.5718C68.4444 28.5718 68.3404 28.6118 68.2604 28.6918C68.1804 28.7718 68.1404 28.8758 68.1404 29.0038C68.1404 29.1318 68.1804 29.2358 68.2604 29.3158C68.3404 29.3958 68.4444 29.4358 68.5724 29.4358ZM72.9404 15.9598C72.8684 16.5758 72.6484 17.1158 72.2804 17.5798C71.9044 18.0438 71.4164 18.4038 70.8164 18.6598C70.2164 18.9078 69.5484 19.0318 68.8124 19.0318H68.3564V18.5518C68.5564 18.4718 68.7524 18.3598 68.9444 18.2158C69.1364 18.0718 69.3004 17.9118 69.4364 17.7358C69.3964 17.7438 69.3364 17.7478 69.2564 17.7478C68.9604 17.7478 68.7284 17.6598 68.5604 17.4838C68.3924 17.2998 68.3084 17.0638 68.3084 16.7758C68.3084 16.4958 68.4044 16.2678 68.5964 16.0918C68.7884 15.9078 69.0364 15.8158 69.3404 15.8158C69.6444 15.8158 69.8964 15.9118 70.0964 16.1038C70.2884 16.2958 70.3844 16.5518 70.3844 16.8718C70.3844 17.1118 70.3244 17.3718 70.2044 17.6518C70.0764 17.9238 69.9084 18.1478 69.7004 18.3238C70.3324 18.2358 70.8644 17.9718 71.2964 17.5318C71.7204 17.0838 71.9644 16.5598 72.0284 15.9598H72.9404ZM68.8964 16.7998C68.8964 16.9278 68.9404 17.0358 69.0284 17.1238C69.1084 17.2038 69.2124 17.2438 69.3404 17.2438C69.4684 17.2438 69.5764 17.2038 69.6644 17.1238C69.7444 17.0358 69.7844 16.9278 69.7844 16.7998C69.7844 16.6718 69.7444 16.5678 69.6644 16.4878C69.5764 16.3998 69.4684 16.3558 69.3404 16.3558C69.2044 16.3558 69.0964 16.3958 69.0164 16.4758C68.9364 16.5558 68.8964 16.6638 68.8964 16.7998ZM78.2444 21.8038C78.7164 21.9878 78.9524 22.3878 78.9524 23.0038V25.7278C78.9524 26.2638 78.7764 26.6798 78.4244 26.9758C78.0804 27.2718 77.5884 27.4198 76.9484 27.4198C76.3164 27.4198 75.8244 27.2758 75.4724 26.9878C75.1284 26.6918 74.9564 26.2718 74.9564 25.7278V24.3958C74.9564 24.1798 74.9924 23.9878 75.0644 23.8198C75.1444 23.6518 75.2604 23.4398 75.4124 23.1838C75.5644 22.9518 75.6804 22.7438 75.7604 22.5598C75.8484 22.3678 75.8924 22.1598 75.8924 21.9358C75.8924 21.6158 75.7924 21.3798 75.5924 21.2278C75.3924 21.0758 75.1324 20.9998 74.8124 20.9998C74.4284 20.9998 74.1204 21.0958 73.8884 21.2878C73.9284 21.2798 73.9924 21.2758 74.0804 21.2758C74.3924 21.2758 74.6484 21.3798 74.8484 21.5878C75.0564 21.7878 75.1604 22.0558 75.1604 22.3918C75.1604 22.7198 75.0564 22.9918 74.8484 23.2078C74.6404 23.4238 74.3564 23.5318 73.9964 23.5318C73.6124 23.5318 73.3124 23.4078 73.0964 23.1598C72.8804 22.9038 72.7724 22.5638 72.7724 22.1398C72.7724 21.6038 72.9524 21.1598 73.3124 20.8078C73.6804 20.4478 74.1884 20.2678 74.8364 20.2678C75.4124 20.2678 75.8804 20.4038 76.2404 20.6758C76.6004 20.9478 76.7804 21.3478 76.7804 21.8758C76.7804 22.1478 76.7444 22.3878 76.6724 22.5958C76.6004 22.8038 76.4924 23.0318 76.3484 23.2798C76.2204 23.5038 76.1244 23.6998 76.0604 23.8678C76.0044 24.0358 75.9764 24.2198 75.9764 24.4198V25.7758C75.9764 26.0318 76.0604 26.2318 76.2284 26.3758C76.4044 26.5198 76.6484 26.5918 76.9604 26.5918C77.2724 26.5918 77.5124 26.5198 77.6804 26.3758C77.8484 26.2318 77.9324 26.0318 77.9324 25.7758V23.0398C77.9324 22.7918 77.8764 22.5958 77.7644 22.4518C77.6604 22.3078 77.4884 22.1958 77.2484 22.1158V21.5518C77.5604 21.4158 77.7964 21.2198 77.9564 20.9638C78.1244 20.7078 78.2164 20.3758 78.2324 19.9678H79.2884C79.2564 20.3918 79.1364 20.7718 78.9284 21.1078C78.7204 21.4358 78.4924 21.6678 78.2444 21.8038ZM74.5484 22.3918C74.5484 22.2318 74.4964 22.1038 74.3924 22.0078C74.2964 21.9118 74.1684 21.8638 74.0084 21.8638C73.8484 21.8638 73.7164 21.9118 73.6124 22.0078C73.5164 22.1038 73.4684 22.2318 73.4684 22.3918C73.4684 22.5518 73.5164 22.6838 73.6124 22.7878C73.7164 22.8838 73.8484 22.9318 74.0084 22.9318C74.1684 22.9318 74.2964 22.8838 74.3924 22.7878C74.4964 22.6838 74.5484 22.5518 74.5484 22.3918ZM86.1337 25.0678C86.3817 25.1558 86.5777 25.2958 86.7217 25.4878C86.8657 25.6798 86.9377 25.8958 86.9377 26.1358C86.9377 26.5198 86.8177 26.8318 86.5777 27.0718C86.3377 27.3038 86.0337 27.4198 85.6657 27.4198C85.3057 27.4198 85.0097 27.3038 84.7777 27.0718C84.5457 26.8398 84.4297 26.5398 84.4297 26.1718V26.1238C84.1017 26.2518 83.7857 26.4198 83.4817 26.6278C83.1777 26.8358 82.9337 27.0598 82.7497 27.2998H81.6817V22.6558C81.5617 22.6958 81.4457 22.7158 81.3337 22.7158C80.9817 22.7158 80.6897 22.6038 80.4577 22.3798C80.2337 22.1478 80.1217 21.8478 80.1217 21.4798C80.1217 21.1278 80.2417 20.8398 80.4817 20.6158C80.7217 20.3838 81.0257 20.2678 81.3937 20.2678C81.7777 20.2678 82.0897 20.3878 82.3297 20.6278C82.5777 20.8598 82.7017 21.1638 82.7017 21.5398V26.2918C82.9177 26.0598 83.3617 25.7838 84.0337 25.4638C84.4737 25.2558 84.8017 25.0758 85.0177 24.9238C85.2337 24.7718 85.3817 24.6198 85.4617 24.4678C85.5417 24.3078 85.5817 24.1158 85.5817 23.8918V20.3878H86.6017V23.9278C86.6017 24.1758 86.5617 24.3998 86.4817 24.5998C86.4017 24.7998 86.2857 24.9558 86.1337 25.0678ZM80.7817 21.4918C80.7817 21.6518 80.8337 21.7878 80.9377 21.8998C81.0497 22.0038 81.1857 22.0558 81.3457 22.0558C81.5137 22.0558 81.6497 22.0038 81.7537 21.8998C81.8577 21.7878 81.9097 21.6518 81.9097 21.4918C81.9097 21.3318 81.8577 21.1998 81.7537 21.0958C81.6497 20.9838 81.5137 20.9278 81.3457 20.9278C81.1857 20.9278 81.0497 20.9838 80.9377 21.0958C80.8337 21.1998 80.7817 21.3318 80.7817 21.4918ZM85.6657 26.7598C85.8337 26.7598 85.9697 26.7078 86.0737 26.6038C86.1777 26.4918 86.2297 26.3558 86.2297 26.1958C86.2297 26.0358 86.1777 25.9038 86.0737 25.7998C85.9697 25.6878 85.8337 25.6318 85.6657 25.6318C85.5057 25.6318 85.3737 25.6878 85.2697 25.7998C85.1657 25.9038 85.1137 26.0358 85.1137 26.1958C85.1137 26.3558 85.1657 26.4918 85.2697 26.6038C85.3737 26.7078 85.5057 26.7598 85.6657 26.7598ZM90.3303 23.4118C89.9063 23.4118 89.5183 23.3478 89.1663 23.2198C88.8223 23.0838 88.5463 22.8958 88.3383 22.6558C88.1303 22.4158 88.0263 22.1398 88.0263 21.8278C88.0263 21.4678 88.1463 21.1718 88.3863 20.9398C88.6343 20.6998 88.9383 20.5798 89.2983 20.5798C89.6503 20.5798 89.9463 20.6998 90.1863 20.9398C90.4263 21.1718 90.5463 21.4678 90.5463 21.8278C90.5463 22.1558 90.4183 22.4198 90.1623 22.6198C90.2103 22.6278 90.2663 22.6318 90.3303 22.6318C90.9063 22.6318 91.3463 22.4478 91.6503 22.0798C91.9623 21.7118 92.1263 21.1958 92.1423 20.5318H93.1503C93.1343 21.0838 93.0143 21.5798 92.7903 22.0198C92.5663 22.4518 92.2463 22.7918 91.8303 23.0398C91.4143 23.2878 90.9143 23.4118 90.3303 23.4118ZM89.2863 22.3198C89.4543 22.3198 89.5863 22.2718 89.6823 22.1758C89.7783 22.0798 89.8263 21.9518 89.8263 21.7918C89.8263 21.6238 89.7783 21.4918 89.6823 21.3958C89.5863 21.2998 89.4543 21.2518 89.2863 21.2518C89.1263 21.2518 88.9983 21.2998 88.9023 21.3958C88.8063 21.4918 88.7583 21.6238 88.7583 21.7918C88.7583 21.9518 88.8063 22.0798 88.9023 22.1758C88.9983 22.2718 89.1263 22.3198 89.2863 22.3198ZM90.3303 27.0718C89.9063 27.0718 89.5183 27.0078 89.1663 26.8798C88.8223 26.7438 88.5463 26.5558 88.3383 26.3158C88.1303 26.0758 88.0263 25.7998 88.0263 25.4878C88.0263 25.1278 88.1463 24.8318 88.3863 24.5998C88.6343 24.3598 88.9383 24.2398 89.2983 24.2398C89.6503 24.2398 89.9463 24.3598 90.1863 24.5998C90.4263 24.8318 90.5463 25.1278 90.5463 25.4878C90.5463 25.8158 90.4183 26.0838 90.1623 26.2918C90.2103 26.2998 90.2663 26.3038 90.3303 26.3038C90.9143 26.2798 91.3583 26.0878 91.6623 25.7278C91.9663 25.3598 92.1263 24.8478 92.1423 24.1918H93.1503C93.1343 24.7438 93.0143 25.2398 92.7903 25.6798C92.5663 26.1118 92.2463 26.4518 91.8303 26.6998C91.4143 26.9478 90.9143 27.0718 90.3303 27.0718ZM89.2863 25.9918C89.4543 25.9918 89.5863 25.9438 89.6823 25.8478C89.7783 25.7438 89.8263 25.6118 89.8263 25.4518C89.8263 25.2918 89.7783 25.1638 89.6823 25.0678C89.5863 24.9638 89.4543 24.9118 89.2863 24.9118C89.1263 24.9118 88.9983 24.9638 88.9023 25.0678C88.8063 25.1638 88.7583 25.2918 88.7583 25.4518C88.7583 25.6118 88.8063 25.7438 88.9023 25.8478C88.9983 25.9438 89.1263 25.9918 89.2863 25.9918Z" fill="#101C3D"/>
  <path opacity="0.6" d="M171.68 21.3878V28.2998H170.612L168.812 25.6238L167 28.2998H165.944V22.5398C165.944 22.1638 166.064 21.8598 166.304 21.6278C166.544 21.3878 166.856 21.2678 167.24 21.2678C167.616 21.2678 167.92 21.3838 168.152 21.6158C168.392 21.8398 168.512 22.1278 168.512 22.4798C168.512 22.8478 168.4 23.1478 168.176 23.3798C167.952 23.6038 167.66 23.7158 167.3 23.7158C167.204 23.7158 167.092 23.6998 166.964 23.6678V26.8718L168.452 24.7358H169.172L170.66 26.8718V21.3878H171.68ZM167.288 21.9278C167.12 21.9278 166.984 21.9838 166.88 22.0958C166.776 22.1998 166.724 22.3318 166.724 22.4918C166.724 22.6518 166.776 22.7878 166.88 22.8998C166.984 23.0038 167.12 23.0558 167.288 23.0558C167.456 23.0558 167.592 23.0038 167.696 22.8998C167.8 22.7878 167.852 22.6518 167.852 22.4918C167.852 22.3318 167.8 22.1998 167.696 22.0958C167.592 21.9838 167.456 21.9278 167.288 21.9278ZM170.264 32.2838C169.824 32.2838 169.488 32.1878 169.256 31.9958C169.016 31.8118 168.896 31.5518 168.896 31.2158V30.9398C168.768 30.9718 168.656 30.9878 168.56 30.9878C168.272 30.9878 168.04 30.8958 167.864 30.7118C167.68 30.5278 167.588 30.2918 167.588 30.0038C167.588 29.7158 167.688 29.4798 167.888 29.2958C168.08 29.1118 168.328 29.0198 168.632 29.0198C168.96 29.0198 169.232 29.1038 169.448 29.2718C169.656 29.4478 169.76 29.6718 169.76 29.9438V31.2158C169.76 31.3438 169.804 31.4438 169.892 31.5158C169.98 31.5878 170.112 31.6238 170.288 31.6238C170.464 31.6238 170.596 31.5878 170.684 31.5158C170.772 31.4438 170.816 31.3438 170.816 31.2158V29.0798H171.68V31.2158C171.68 31.5518 171.56 31.8118 171.32 31.9958C171.072 32.1878 170.72 32.2838 170.264 32.2838ZM168.572 30.4358C168.7 30.4358 168.804 30.3958 168.884 30.3158C168.964 30.2358 169.004 30.1318 169.004 30.0038C169.004 29.8758 168.964 29.7718 168.884 29.6918C168.804 29.6118 168.7 29.5718 168.572 29.5718C168.444 29.5718 168.34 29.6118 168.26 29.6918C168.18 29.7718 168.14 29.8758 168.14 30.0038C168.14 30.1318 168.18 30.2358 168.26 30.3158C168.34 30.3958 168.444 30.4358 168.572 30.4358ZM172.94 16.9598C172.868 17.5758 172.648 18.1158 172.28 18.5798C171.904 19.0438 171.416 19.4038 170.816 19.6598C170.216 19.9078 169.548 20.0318 168.812 20.0318H168.356V19.5518C168.556 19.4718 168.752 19.3598 168.944 19.2158C169.136 19.0718 169.3 18.9118 169.436 18.7358C169.396 18.7438 169.336 18.7478 169.256 18.7478C168.96 18.7478 168.728 18.6598 168.56 18.4838C168.392 18.2998 168.308 18.0638 168.308 17.7758C168.308 17.4958 168.404 17.2678 168.596 17.0918C168.788 16.9078 169.036 16.8158 169.34 16.8158C169.644 16.8158 169.896 16.9118 170.096 17.1038C170.288 17.2958 170.384 17.5518 170.384 17.8718C170.384 18.1118 170.324 18.3718 170.204 18.6518C170.076 18.9238 169.908 19.1478 169.7 19.3238C170.332 19.2358 170.864 18.9718 171.296 18.5318C171.72 18.0838 171.964 17.5598 172.028 16.9598H172.94ZM168.896 17.7998C168.896 17.9278 168.94 18.0358 169.028 18.1238C169.108 18.2038 169.212 18.2438 169.34 18.2438C169.468 18.2438 169.576 18.2038 169.664 18.1238C169.744 18.0358 169.784 17.9278 169.784 17.7998C169.784 17.6718 169.744 17.5678 169.664 17.4878C169.576 17.3998 169.468 17.3558 169.34 17.3558C169.204 17.3558 169.096 17.3958 169.016 17.4758C168.936 17.5558 168.896 17.6638 168.896 17.7998ZM178.244 22.8038C178.716 22.9878 178.952 23.3878 178.952 24.0038V26.7278C178.952 27.2638 178.776 27.6798 178.424 27.9758C178.08 28.2718 177.588 28.4198 176.948 28.4198C176.316 28.4198 175.824 28.2758 175.472 27.9878C175.128 27.6918 174.956 27.2718 174.956 26.7278V25.3958C174.956 25.1798 174.992 24.9878 175.064 24.8198C175.144 24.6518 175.26 24.4398 175.412 24.1838C175.564 23.9518 175.68 23.7438 175.76 23.5598C175.848 23.3678 175.892 23.1598 175.892 22.9358C175.892 22.6158 175.792 22.3798 175.592 22.2278C175.392 22.0758 175.132 21.9998 174.812 21.9998C174.428 21.9998 174.12 22.0958 173.888 22.2878C173.928 22.2798 173.992 22.2758 174.08 22.2758C174.392 22.2758 174.648 22.3798 174.848 22.5878C175.056 22.7878 175.16 23.0558 175.16 23.3918C175.16 23.7198 175.056 23.9918 174.848 24.2078C174.64 24.4238 174.356 24.5318 173.996 24.5318C173.612 24.5318 173.312 24.4078 173.096 24.1598C172.88 23.9038 172.772 23.5638 172.772 23.1398C172.772 22.6038 172.952 22.1598 173.312 21.8078C173.68 21.4478 174.188 21.2678 174.836 21.2678C175.412 21.2678 175.88 21.4038 176.24 21.6758C176.6 21.9478 176.78 22.3478 176.78 22.8758C176.78 23.1478 176.744 23.3878 176.672 23.5958C176.6 23.8038 176.492 24.0318 176.348 24.2798C176.22 24.5038 176.124 24.6998 176.06 24.8678C176.004 25.0358 175.976 25.2198 175.976 25.4198V26.7758C175.976 27.0318 176.06 27.2318 176.228 27.3758C176.404 27.5198 176.648 27.5918 176.96 27.5918C177.272 27.5918 177.512 27.5198 177.68 27.3758C177.848 27.2318 177.932 27.0318 177.932 26.7758V24.0398C177.932 23.7918 177.876 23.5958 177.764 23.4518C177.66 23.3078 177.488 23.1958 177.248 23.1158V22.5518C177.56 22.4158 177.796 22.2198 177.956 21.9638C178.124 21.7078 178.216 21.3758 178.232 20.9678H179.288C179.256 21.3918 179.136 21.7718 178.928 22.1078C178.72 22.4358 178.492 22.6678 178.244 22.8038ZM174.548 23.3918C174.548 23.2318 174.496 23.1038 174.392 23.0078C174.296 22.9118 174.168 22.8638 174.008 22.8638C173.848 22.8638 173.716 22.9118 173.612 23.0078C173.516 23.1038 173.468 23.2318 173.468 23.3918C173.468 23.5518 173.516 23.6838 173.612 23.7878C173.716 23.8838 173.848 23.9318 174.008 23.9318C174.168 23.9318 174.296 23.8838 174.392 23.7878C174.496 23.6838 174.548 23.5518 174.548 23.3918ZM186.134 26.0678C186.382 26.1558 186.578 26.2958 186.722 26.4878C186.866 26.6798 186.938 26.8958 186.938 27.1358C186.938 27.5198 186.818 27.8318 186.578 28.0718C186.338 28.3038 186.034 28.4198 185.666 28.4198C185.306 28.4198 185.01 28.3038 184.778 28.0718C184.546 27.8398 184.43 27.5398 184.43 27.1718V27.1238C184.102 27.2518 183.786 27.4198 183.482 27.6278C183.178 27.8358 182.934 28.0598 182.75 28.2998H181.682V23.6558C181.562 23.6958 181.446 23.7158 181.334 23.7158C180.982 23.7158 180.69 23.6038 180.458 23.3798C180.234 23.1478 180.122 22.8478 180.122 22.4798C180.122 22.1278 180.242 21.8398 180.482 21.6158C180.722 21.3838 181.026 21.2678 181.394 21.2678C181.778 21.2678 182.09 21.3878 182.33 21.6278C182.578 21.8598 182.702 22.1638 182.702 22.5398V27.2918C182.918 27.0598 183.362 26.7838 184.034 26.4638C184.474 26.2558 184.802 26.0758 185.018 25.9238C185.234 25.7718 185.382 25.6198 185.462 25.4678C185.542 25.3078 185.582 25.1158 185.582 24.8918V21.3878H186.602V24.9278C186.602 25.1758 186.562 25.3998 186.482 25.5998C186.402 25.7998 186.286 25.9558 186.134 26.0678ZM180.782 22.4918C180.782 22.6518 180.834 22.7878 180.938 22.8998C181.05 23.0038 181.186 23.0558 181.346 23.0558C181.514 23.0558 181.65 23.0038 181.754 22.8998C181.858 22.7878 181.91 22.6518 181.91 22.4918C181.91 22.3318 181.858 22.1998 181.754 22.0958C181.65 21.9838 181.514 21.9278 181.346 21.9278C181.186 21.9278 181.05 21.9838 180.938 22.0958C180.834 22.1998 180.782 22.3318 180.782 22.4918ZM185.666 27.7598C185.834 27.7598 185.97 27.7078 186.074 27.6038C186.178 27.4918 186.23 27.3558 186.23 27.1958C186.23 27.0358 186.178 26.9038 186.074 26.7998C185.97 26.6878 185.834 26.6318 185.666 26.6318C185.506 26.6318 185.374 26.6878 185.27 26.7998C185.166 26.9038 185.114 27.0358 185.114 27.1958C185.114 27.3558 185.166 27.4918 185.27 27.6038C185.374 27.7078 185.506 27.7598 185.666 27.7598ZM190.33 24.4118C189.906 24.4118 189.518 24.3478 189.166 24.2198C188.822 24.0838 188.546 23.8958 188.338 23.6558C188.13 23.4158 188.026 23.1398 188.026 22.8278C188.026 22.4678 188.146 22.1718 188.386 21.9398C188.634 21.6998 188.938 21.5798 189.298 21.5798C189.65 21.5798 189.946 21.6998 190.186 21.9398C190.426 22.1718 190.546 22.4678 190.546 22.8278C190.546 23.1558 190.418 23.4198 190.162 23.6198C190.21 23.6278 190.266 23.6318 190.33 23.6318C190.906 23.6318 191.346 23.4478 191.65 23.0798C191.962 22.7118 192.126 22.1958 192.142 21.5318H193.15C193.134 22.0838 193.014 22.5798 192.79 23.0198C192.566 23.4518 192.246 23.7918 191.83 24.0398C191.414 24.2878 190.914 24.4118 190.33 24.4118ZM189.286 23.3198C189.454 23.3198 189.586 23.2718 189.682 23.1758C189.778 23.0798 189.826 22.9518 189.826 22.7918C189.826 22.6238 189.778 22.4918 189.682 22.3958C189.586 22.2998 189.454 22.2518 189.286 22.2518C189.126 22.2518 188.998 22.2998 188.902 22.3958C188.806 22.4918 188.758 22.6238 188.758 22.7918C188.758 22.9518 188.806 23.0798 188.902 23.1758C188.998 23.2718 189.126 23.3198 189.286 23.3198ZM190.33 28.0718C189.906 28.0718 189.518 28.0078 189.166 27.8798C188.822 27.7438 188.546 27.5558 188.338 27.3158C188.13 27.0758 188.026 26.7998 188.026 26.4878C188.026 26.1278 188.146 25.8318 188.386 25.5998C188.634 25.3598 188.938 25.2398 189.298 25.2398C189.65 25.2398 189.946 25.3598 190.186 25.5998C190.426 25.8318 190.546 26.1278 190.546 26.4878C190.546 26.8158 190.418 27.0838 190.162 27.2918C190.21 27.2998 190.266 27.3038 190.33 27.3038C190.914 27.2798 191.358 27.0878 191.662 26.7278C191.966 26.3598 192.126 25.8478 192.142 25.1918H193.15C193.134 25.7438 193.014 26.2398 192.79 26.6798C192.566 27.1118 192.246 27.4518 191.83 27.6998C191.414 27.9478 190.914 28.0718 190.33 28.0718ZM189.286 26.9918C189.454 26.9918 189.586 26.9438 189.682 26.8478C189.778 26.7438 189.826 26.6118 189.826 26.4518C189.826 26.2918 189.778 26.1638 189.682 26.0678C189.586 25.9638 189.454 25.9118 189.286 25.9118C189.126 25.9118 188.998 25.9638 188.902 26.0678C188.806 26.1638 188.758 26.2918 188.758 26.4518C188.758 26.6118 188.806 26.7438 188.902 26.8478C188.998 26.9438 189.126 26.9918 189.286 26.9918Z" fill="#101C3D"/>
  <path d="M175.106 32.7868C175.474 32.0502 176.526 32.0502 176.894 32.7868L178.235 35.4659C178.382 35.759 178.663 35.9617 178.987 36.0082L181.971 36.436C182.796 36.5542 183.123 37.5698 182.522 38.1469L180.383 40.2025C180.144 40.4326 180.034 40.7666 180.09 41.0939L180.595 44.0122C180.736 44.8273 179.883 45.4513 179.148 45.0699L176.461 43.6732C176.172 43.5232 175.828 43.523 175.539 43.6728L172.844 45.0703C172.109 45.4512 171.256 44.8255 171.398 44.0102L171.908 41.0949C171.966 40.7671 171.856 40.4322 171.616 40.2016L169.478 38.1469C168.877 37.5698 169.204 36.5542 170.029 36.436L173.013 36.0082C173.337 35.9617 173.618 35.759 173.765 35.4659L175.106 32.7868Z" fill="#F9D142" stroke="#101C3D" stroke-linejoin="round"/>
  <circle cx="174" cy="38" r="1" fill="#101C3D"/>
  <circle cx="178" cy="38" r="1" fill="#101C3D"/>
  <path d="M174.5 40.5C174.5 40.5 176 44 177.5 40.5" stroke="#101C3D"/>
  <path d="M181.106 35.7868C181.474 35.0502 182.526 35.0502 182.894 35.7868L184.235 38.4659C184.382 38.759 184.663 38.9617 184.987 39.0082L187.971 39.436C188.796 39.5542 189.123 40.5698 188.522 41.1469L186.383 43.2025C186.144 43.4326 186.034 43.7666 186.09 44.0939L186.595 47.0122C186.736 47.8273 185.883 48.4513 185.148 48.0699L182.461 46.6732C182.172 46.5232 181.828 46.523 181.539 46.6728L178.844 48.0703C178.109 48.4512 177.256 47.8255 177.398 47.0102L177.908 44.0949C177.966 43.7671 177.856 43.4322 177.616 43.2016L175.478 41.1469C174.877 40.5698 175.204 39.5542 176.029 39.436L179.013 39.0082C179.337 38.9617 179.618 38.759 179.765 38.4659L181.106 35.7868Z" fill="#F9D142" stroke="#101C3D" stroke-linejoin="round"/>
  <circle cx="180" cy="41" r="1" fill="#101C3D"/>
  <circle cx="184" cy="41" r="1" fill="#101C3D"/>
  <path d="M180.5 43.5C180.5 43.5 182 47 183.5 43.5" stroke="#101C3D"/>
  <path d="M81.1057 32.0866C81.4744 31.35 82.5256 31.35 82.8943 32.0866L84.235 34.7657C84.3818 35.0588 84.6629 35.2615 84.9874 35.308L87.9712 35.7358C88.7958 35.854 89.1228 36.8696 88.5222 37.4467L86.383 39.5023C86.1435 39.7324 86.0339 40.0664 86.0905 40.3937L86.5949 43.312C86.7358 44.1271 85.8825 44.7511 85.1485 44.3697L82.4606 42.973C82.1718 42.823 81.8281 42.8228 81.5392 42.9726L78.8436 44.3701C78.1088 44.751 77.2557 44.1253 77.3983 43.31L77.9083 40.3948C77.9656 40.0669 77.8561 39.732 77.6161 39.5014L75.4778 37.4467C74.8772 36.8696 75.2042 35.854 76.0288 35.7358L79.0126 35.308C79.3371 35.2615 79.6182 35.0588 79.765 34.7657L81.1057 32.0866Z" fill="#F9D142" stroke="#101C3D" stroke-linejoin="round"/>
  <circle cx="80" cy="37.2998" r="1" fill="#101C3D"/>
  <circle cx="84" cy="37.2998" r="1" fill="#101C3D"/>
  <path d="M80.5 39.7998C80.5 39.7998 82 43.2998 83.5 39.7998" stroke="#101C3D"/>
  <path d="M74.1057 34.7868C74.4744 34.0502 75.5256 34.0502 75.8943 34.7868L77.235 37.4659C77.3818 37.759 77.6629 37.9617 77.9874 38.0082L80.9712 38.436C81.7958 38.5542 82.1228 39.5698 81.5222 40.1469L79.383 42.2025C79.1435 42.4326 79.0339 42.7666 79.0905 43.0939L79.5949 46.0122C79.7358 46.8273 78.8825 47.4513 78.1485 47.0699L75.4606 45.6732C75.1718 45.5232 74.8281 45.523 74.5392 45.6728L71.8436 47.0703C71.1088 47.4512 70.2557 46.8255 70.3983 46.0102L70.9083 43.0949C70.9656 42.7671 70.8561 42.4322 70.6161 42.2016L68.4778 40.1469C67.8772 39.5698 68.2042 38.5542 69.0288 38.436L72.0126 38.0082C72.3371 37.9617 72.6182 37.759 72.765 37.4659L74.1057 34.7868Z" fill="#F9D142" stroke="#101C3D" stroke-linejoin="round"/>
  <circle cx="73" cy="40" r="1" fill="#101C3D"/>
  <circle cx="77" cy="40" r="1" fill="#101C3D"/>
  <path d="M73.5 42.5C73.5 42.5 75 46 76.5 42.5" stroke="#101C3D"/>
  <path d="M80.1057 38.7868C80.4744 38.0502 81.5256 38.0502 81.8943 38.7868L83.235 41.4659C83.3818 41.759 83.6629 41.9617 83.9874 42.0082L86.9712 42.436C87.7958 42.5542 88.1228 43.5698 87.5222 44.1469L85.383 46.2025C85.1435 46.4326 85.0339 46.7666 85.0905 47.0939L85.5949 50.0122C85.7358 50.8273 84.8825 51.4513 84.1485 51.0699L81.4606 49.6732C81.1718 49.5232 80.8281 49.523 80.5392 49.6728L77.8436 51.0703C77.1088 51.4512 76.2557 50.8255 76.3983 50.0102L76.9083 47.0949C76.9656 46.7671 76.8561 46.4322 76.6161 46.2016L74.4778 44.1469C73.8772 43.5698 74.2042 42.5542 75.0288 42.436L78.0126 42.0082C78.3371 41.9617 78.6182 41.759 78.765 41.4659L80.1057 38.7868Z" fill="#F9D142" stroke="#101C3D" stroke-linejoin="round"/>
  <circle cx="79" cy="44" r="1" fill="#101C3D"/>
  <circle cx="83" cy="44" r="1" fill="#101C3D"/>
  <path d="M79.5 46.5C79.5 46.5 81 50 82.5 46.5" stroke="#101C3D"/>
  </svg>
  