<svg width="192" height="143" viewBox="0 0 192 143" fill="none" xmlns="http://www.w3.org/2000/svg">
  <path d="M86.5756 101.789C84.3749 92.3011 74.1743 86.1403 70.1184 84.8114C66.0626 83.4772 57.1271 77.5131 55.3995 73.1596C53.7251 68.9284 53.4221 56.3463 53.4221 56.3463H33.5258C33.5258 56.3463 33.2228 68.9284 31.5484 73.1596C29.8261 77.5131 20.8853 83.4825 16.8295 84.8114C12.7737 86.1456 3.17899 92.3011 0.978325 101.789C-0.967188 110.172 0.526498 135.682 0.898591 141.502C0.946431 142.268 86.6128 142.204 86.6712 141.322C87.0646 135.177 88.5051 110.092 86.5809 101.789H86.5756Z" fill="#FCEB71"/>
  <path d="M56.6115 75.1741C56.08 74.4778 55.6547 73.7974 55.3996 73.1542C54.6075 71.1502 54.1185 67.2698 53.8261 63.7402L37.183 67.4027C37.183 67.4027 40.367 73.4518 54.5384 75.1847L56.6062 75.1688L56.6115 75.1741Z" fill="#0058C1"/>
  <path d="M68.6141 40.256C68.6141 52.9709 68.4281 73.1543 52.4015 73.1543C35.4447 73.1543 21.7889 55.9264 21.7889 43.2168C21.7889 30.5072 32.2713 20.2002 45.1989 20.2002C58.1264 20.2002 68.6088 27.5464 68.6088 40.2613L68.6141 40.256Z" fill="#FCEB71"/>
  <path d="M59.9656 42.4991L63.8726 55.9742H57.1855" fill="#FCEB71"/>
  <path d="M59.9656 42.4991L63.8726 55.9742H57.1855" stroke="#0058C1" stroke-width="0.5" stroke-miterlimit="10"/>
  <path d="M51.3649 45.6459C52.3103 45.6459 53.0766 44.8796 53.0766 43.9343C53.0766 42.989 52.3103 42.2227 51.3649 42.2227C50.4196 42.2227 49.6533 42.989 49.6533 43.9343C49.6533 44.8796 50.4196 45.6459 51.3649 45.6459Z" fill="#0058C1"/>
  <path d="M45.927 42.8659C45.927 42.8659 49.1004 41.1649 53.3795 42.8819" stroke="#0058C1" stroke-width="0.5" stroke-miterlimit="10"/>
  <path d="M53.7995 47.3523C53.7995 47.3523 51.9337 51.0201 47.5696 53.1569" stroke="#0058C1" stroke-width="0.5" stroke-miterlimit="10"/>
  <path d="M65.5151 45.6459C66.4604 45.6459 67.2267 44.8796 67.2267 43.9343C67.2267 42.989 66.4604 42.2227 65.5151 42.2227C64.5698 42.2227 63.8035 42.989 63.8035 43.9343C63.8035 44.8796 64.5698 45.6459 65.5151 45.6459Z" fill="#0058C1"/>
  <path d="M60.0771 42.8659C60.0771 42.8659 63.2506 41.1649 67.5296 42.8819" stroke="#0058C1" stroke-width="0.5" stroke-miterlimit="10"/>
  <path d="M61.7144 47.3523C61.7144 47.3523 63.5801 51.0201 67.9442 53.1569" stroke="#0058C1" stroke-width="0.5" stroke-miterlimit="10"/>
  <path d="M57.1857 59.3177C57.1857 59.3177 54.6129 60.3649 54.8149 63.0971" stroke="#0058C1" stroke-width="0.5" stroke-miterlimit="10"/>
  <path d="M32.3829 43.9874C32.3829 43.9874 31.0806 42.228 29.1829 43.1529C27.2852 44.0778 28.0879 56.6598 34.743 56.3356L32.3829 43.9874Z" fill="#0058C1"/>
  <path d="M53.6612 38.4009H47.0699C46.4387 38.4009 45.927 38.9126 45.927 39.5437C45.927 40.1749 46.4387 40.6866 47.0699 40.6866H53.6612C54.2924 40.6866 54.8041 40.1749 54.8041 39.5437C54.8041 38.9126 54.2924 38.4009 53.6612 38.4009Z" fill="#FCEB71" stroke="#0058C1" stroke-width="0.5" stroke-miterlimit="10"/>
  <path d="M66.5303 40.6866H61.2147C60.7044 40.6866 60.2898 40.1763 60.2898 39.5437C60.2898 38.9112 60.7044 38.4009 61.2147 38.4009H66.5303C67.0406 38.4009 67.4552 38.9112 67.4552 39.5437C67.4552 40.1763 67.0406 40.6866 66.5303 40.6866Z" fill="#FCEB71" stroke="#0058C1" stroke-width="0.5" stroke-miterlimit="10"/>
  <path d="M57.8925 61.6299C57.8925 61.6299 61.5655 60.3648 63.8034 61.6299" stroke="#0058C1" stroke-width="0.5" stroke-miterlimit="10"/>
  <path d="M67.5297 30.2147C67.5297 30.2147 66.3922 34.6373 60.5291 34.0048" stroke="#0058C1" stroke-width="0.5" stroke-miterlimit="10"/>
  <path d="M48.351 32.5111C48.351 32.5111 47.2135 36.9337 41.3503 36.3011" stroke="#0058C1" stroke-width="0.5" stroke-miterlimit="10"/>
  <path d="M41.3132 35.2222C41.3132 35.2222 42.1052 39.7192 36.5132 41.569" stroke="#0058C1" stroke-width="0.5" stroke-miterlimit="10"/>
  <path d="M37.5283 40.1018C37.5283 40.1018 35.6732 44.2746 29.9961 42.6746" stroke="#0058C1" stroke-width="0.5" stroke-miterlimit="10"/>
  <path d="M61.1085 31.4001C61.1085 31.4001 58.6526 35.2486 53.2786 32.8247" stroke="#0058C1" stroke-width="0.5" stroke-miterlimit="10"/>
  <path d="M55.0487 30.4486C55.0487 30.4486 53.6241 34.7861 47.8195 33.7762" stroke="#0058C1" stroke-width="0.5" stroke-miterlimit="10"/>
  <path d="M82.4985 74.8818L47.9152 119.203L19.3757 97.0426L6.16638 112.904L34.3604 135.639C38.076 138.637 42.7112 140.269 47.4846 140.269C55.373 140.269 62.5916 135.831 66.1477 128.787L85.741 90.0153L82.4985 74.8765V74.8818Z" fill="#FCEB71"/>
  <mask id="mask0_54_808" style="mask-type:luminance" maskUnits="userSpaceOnUse" x="0" y="74" width="88" height="69">
  <path d="M70.1184 84.8061C66.5836 83.6473 59.3543 78.9696 56.4042 74.9084L49.85 77.3005L30.2195 75.3337C27.0939 79.2938 20.2368 83.6898 16.8295 84.8061C12.7737 86.1403 3.17899 92.2958 0.978325 101.784C-0.967188 110.167 0.526498 135.676 0.898591 141.497C0.946431 142.263 86.6128 142.199 86.6712 141.316C87.0646 135.172 88.5051 110.087 86.5809 101.784C84.3802 92.2958 74.1796 86.135 70.1238 84.8061H70.1184Z" fill="white"/>
  </mask>
  <g mask="url(#mask0_54_808)">
  <path d="M6.05994 52.2268V146.802" stroke="#0058C1" stroke-width="0.25" stroke-miterlimit="10"/>
  <path d="M13.5551 52.2268V146.802" stroke="#0058C1" stroke-width="0.25" stroke-miterlimit="10"/>
  <path d="M21.05 52.2268V146.802" stroke="#0058C1" stroke-width="0.25" stroke-miterlimit="10"/>
  <path d="M28.545 52.2268V146.802" stroke="#0058C1" stroke-width="0.25" stroke-miterlimit="10"/>
  <path d="M36.0454 52.2268V146.802" stroke="#0058C1" stroke-width="0.25" stroke-miterlimit="10"/>
  <path d="M43.5404 52.2268V146.802" stroke="#0058C1" stroke-width="0.25" stroke-miterlimit="10"/>
  <path d="M51.0354 52.2268V146.802" stroke="#0058C1" stroke-width="0.25" stroke-miterlimit="10"/>
  <path d="M58.5304 52.2268V146.802" stroke="#0058C1" stroke-width="0.25" stroke-miterlimit="10"/>
  <path d="M66.0254 52.2268V146.802" stroke="#0058C1" stroke-width="0.25" stroke-miterlimit="10"/>
  <path d="M73.5204 52.2268V146.802" stroke="#0058C1" stroke-width="0.25" stroke-miterlimit="10"/>
  <path d="M81.0154 52.2268V146.802" stroke="#0058C1" stroke-width="0.25" stroke-miterlimit="10"/>
  <path d="M90.8281 77.0294H-3.75256" stroke="#0058C1" stroke-width="0.25" stroke-miterlimit="10"/>
  <path d="M90.8281 84.5244H-3.75256" stroke="#0058C1" stroke-width="0.25" stroke-miterlimit="10"/>
  <path d="M90.8281 92.0194H-3.75256" stroke="#0058C1" stroke-width="0.25" stroke-miterlimit="10"/>
  <path d="M90.8281 99.5145H-3.75256" stroke="#0058C1" stroke-width="0.25" stroke-miterlimit="10"/>
  <path d="M90.8281 107.009H-3.75256" stroke="#0058C1" stroke-width="0.25" stroke-miterlimit="10"/>
  <path d="M90.8281 114.505H-3.75256" stroke="#0058C1" stroke-width="0.25" stroke-miterlimit="10"/>
  <path d="M90.8281 122H-3.75256" stroke="#0058C1" stroke-width="0.25" stroke-miterlimit="10"/>
  <path d="M90.8281 129.495H-3.75256" stroke="#0058C1" stroke-width="0.25" stroke-miterlimit="10"/>
  <path d="M90.8281 136.99H-3.75256" stroke="#0058C1" stroke-width="0.25" stroke-miterlimit="10"/>
  </g>
  <path d="M32.4466 69.46L49.8446 77.3005L44.0134 86.9005L29.6506 76.0088L32.4466 69.46Z" fill="#FCEB71" stroke="#0058C1" stroke-width="0.5" stroke-miterlimit="10"/>
  <path d="M55.9949 74.2919L49.8447 77.3005L54.8042 85.6938L60.4228 78.9749L55.9949 74.2919Z" fill="#FCEB71" stroke="#0058C1" stroke-width="0.5" stroke-miterlimit="10"/>
  <path d="M115.375 62.5974L88.941 66.717C88.4307 66.7968 88.1224 66.1695 88.4998 65.8134L92.8479 61.7363C94.0227 60.6307 94.1184 58.733 92.9914 57.5742C91.8645 56.4154 90.1051 56.4101 88.9622 57.4838L81.3768 64.6067C78.7509 67.0732 77.5071 70.6772 78.0652 74.2386L78.9529 79.9263L79.8406 85.614C80.3297 88.7555 83.2745 90.903 86.416 90.414L103.915 87.6871C105.478 87.4426 106.61 86.0074 106.397 84.4446C106.291 83.6579 105.876 82.9881 105.292 82.5416C104.744 82.1217 104.643 81.335 105.031 80.7715C105.419 80.208 105.616 79.4532 105.499 78.7037C105.382 77.9542 104.978 77.3057 104.42 76.8698C103.862 76.434 103.75 75.6632 104.144 75.0891C104.537 74.515 104.734 73.7708 104.617 73.016C104.372 71.4479 102.9 70.3689 101.332 70.6134L116.268 68.2851C117.837 68.0406 118.916 66.5682 118.671 65.0001C118.427 63.4267 116.954 62.3529 115.386 62.5974H115.375Z" fill="#FCEB71"/>
  <path d="M113.494 69.0718C113.494 69.0718 112.229 66.8393 114.174 66.4194C116.12 65.9994 118.475 65.5529 118.618 66.6639" stroke="white" stroke-width="0.5" stroke-miterlimit="10"/>
  <path d="M87.0167 59.0519C87.0167 59.0519 87.8938 61.4652 89.4725 60.2532C91.0513 59.0412 92.9224 57.5422 92.1675 56.713" stroke="white" stroke-width="0.5" stroke-miterlimit="10"/>
  <path d="M6.16633 110.799L27.9922 133.348C32.2766 137.776 38.1769 140.274 44.343 140.274C52.1835 140.274 59.4712 136.24 63.628 129.595L85.741 94.2732L74.1211 83.2805L47.846 108.758L26.4826 87.4745C26.4826 87.4745 19.8593 82.9988 10.9504 88.022C2.04142 93.0453 2.01484 104.187 6.17165 110.805L6.16633 110.799Z" fill="#FCEB71"/>
  <path d="M9.80756 38.4008L80.4786 27.7749L64.165 24.8088L61.0553 19.1158C57.0208 11.7218 48.7497 7.68726 40.4414 9.05337C32.1331 10.4195 25.5896 16.8833 24.1278 25.1809L22.9956 31.6022L9.80225 38.4008H9.80756Z" fill="#0058C1"/>
  <mask id="mask1_54_808" style="mask-type:luminance" maskUnits="userSpaceOnUse" x="3" y="83" width="83" height="58">
  <path d="M6.16633 110.799L27.9922 133.348C32.2766 137.776 38.1769 140.274 44.343 140.274C52.1835 140.274 59.4712 136.24 63.628 129.595L85.741 94.2732L74.1211 83.2805L47.846 108.758L26.4826 87.4745C26.4826 87.4745 19.8593 82.9988 10.9504 88.022C2.04142 93.0453 2.01484 104.187 6.17165 110.805L6.16633 110.799Z" fill="white"/>
  </mask>
  <g mask="url(#mask1_54_808)">
  <path d="M-14.3042 69.3004L16.2659 158.799" stroke="#0058C1" stroke-width="0.25" stroke-miterlimit="10"/>
  <path d="M-7.21313 66.8766L23.3569 156.381" stroke="#0058C1" stroke-width="0.25" stroke-miterlimit="10"/>
  <path d="M-0.12207 64.458L30.4533 153.957" stroke="#0058C1" stroke-width="0.25" stroke-miterlimit="10"/>
  <path d="M6.97424 62.0341L37.5443 151.533" stroke="#0058C1" stroke-width="0.25" stroke-miterlimit="10"/>
  <path d="M14.0652 59.6101L44.6406 149.109" stroke="#0058C1" stroke-width="0.25" stroke-miterlimit="10"/>
  <path d="M21.1562 57.1862L51.7316 146.685" stroke="#0058C1" stroke-width="0.25" stroke-miterlimit="10"/>
  <path d="M28.2526 54.7622L58.8226 144.266" stroke="#0058C1" stroke-width="0.25" stroke-miterlimit="10"/>
  <path d="M35.3435 52.3384L65.9189 141.843" stroke="#0058C1" stroke-width="0.25" stroke-miterlimit="10"/>
  <path d="M42.4399 49.9198L73.01 139.419" stroke="#0058C1" stroke-width="0.25" stroke-miterlimit="10"/>
  <path d="M49.531 47.4958L80.1064 136.995" stroke="#0058C1" stroke-width="0.25" stroke-miterlimit="10"/>
  <path d="M56.6219 45.0719L87.1973 134.571" stroke="#0058C1" stroke-width="0.25" stroke-miterlimit="10"/>
  <path d="M63.7183 42.6479L94.2883 132.152" stroke="#0058C1" stroke-width="0.25" stroke-miterlimit="10"/>
  <path d="M70.8093 40.2241L101.385 129.728" stroke="#0058C1" stroke-width="0.25" stroke-miterlimit="10"/>
  <path d="M78.5967 55.8573L-10.9022 86.4274" stroke="#0058C1" stroke-width="0.25" stroke-miterlimit="10"/>
  <path d="M81.0207 62.9484L-8.48352 93.5237" stroke="#0058C1" stroke-width="0.25" stroke-miterlimit="10"/>
  <path d="M83.4445 70.0393L-6.05969 100.615" stroke="#0058C1" stroke-width="0.25" stroke-miterlimit="10"/>
  <path d="M85.8632 77.1357L-3.63574 107.706" stroke="#0058C1" stroke-width="0.25" stroke-miterlimit="10"/>
  <path d="M88.287 84.2267L-1.21191 114.802" stroke="#0058C1" stroke-width="0.25" stroke-miterlimit="10"/>
  <path d="M90.7109 91.323L1.21204 121.893" stroke="#0058C1" stroke-width="0.25" stroke-miterlimit="10"/>
  <path d="M93.1349 98.4141L3.63599 128.984" stroke="#0058C1" stroke-width="0.25" stroke-miterlimit="10"/>
  <path d="M95.5588 105.505L6.05457 136.081" stroke="#0058C1" stroke-width="0.25" stroke-miterlimit="10"/>
  <path d="M97.9827 112.601L8.47852 143.172" stroke="#0058C1" stroke-width="0.25" stroke-miterlimit="10"/>
  <path d="M100.401 119.692L10.9025 150.268" stroke="#0058C1" stroke-width="0.25" stroke-miterlimit="10"/>
  <path d="M102.825 126.789L13.3263 157.359" stroke="#0058C1" stroke-width="0.25" stroke-miterlimit="10"/>
  </g>
  <path d="M157.863 56.3409C157.863 56.3409 158.166 68.923 159.841 73.1542C161.563 77.5077 170.504 83.4771 174.559 84.806C178.615 86.1402 188.816 92.2957 191.017 101.784C193.217 111.272 191.017 142.688 191.017 142.688H147.099V56.3409H157.863Z" fill="#FCEB71"/>
  <path d="M137.967 56.3409C137.967 56.3409 137.664 68.923 135.989 73.1542C134.267 77.5077 125.326 83.4771 121.271 84.806C117.215 86.1402 107.014 92.2957 104.813 101.784C102.613 111.272 104.813 142.688 104.813 142.688H148.731V56.3409H137.967Z" fill="#FCEB71"/>
  <path d="M191.017 101.789C188.816 92.3011 178.615 86.1403 174.559 84.8114C170.504 83.4772 161.568 77.5131 159.841 73.1596C158.166 68.9284 145.749 77.0294 141.539 77.3058C140.369 77.3802 134.676 75.44 133.534 76.6307C130.1 80.2081 124.316 83.8121 121.271 84.8114C117.215 86.1456 107.014 92.3011 104.813 101.789C102.613 111.278 104.813 142.693 104.813 142.693H191.022C191.022 142.693 193.223 111.278 191.022 101.789H191.017Z" fill="#FCEB71"/>
  <path d="M134.772 75.1741C135.304 74.4778 135.729 73.7974 135.984 73.1542C136.776 71.1502 137.265 67.2698 137.557 63.7402L154.201 67.4027C154.201 67.4027 151.017 73.4518 136.845 75.1847L134.777 75.1688L134.772 75.1741Z" fill="#0058C1"/>
  <path d="M122.77 40.256C122.77 52.9709 122.956 73.1543 138.982 73.1543C155.939 73.1543 169.595 55.9264 169.595 43.2168C169.595 30.5072 159.112 20.2002 146.185 20.2002C133.257 20.2002 122.775 27.5464 122.775 40.2613L122.77 40.256Z" fill="#FCEB71"/>
  <path d="M138.769 45.6459C139.715 45.6459 140.481 44.8796 140.481 43.9343C140.481 42.989 139.715 42.2227 138.769 42.2227C137.824 42.2227 137.058 42.989 137.058 43.9343C137.058 44.8796 137.824 45.6459 138.769 45.6459Z" fill="#0058C1"/>
  <path d="M144.207 42.8659C144.207 42.8659 141.034 41.1649 136.755 42.8819" stroke="#0058C1" stroke-width="0.5" stroke-miterlimit="10"/>
  <path d="M136.34 47.3523C136.34 47.3523 138.206 51.0201 142.57 53.1569" stroke="#0058C1" stroke-width="0.5" stroke-miterlimit="10"/>
  <path d="M125.869 45.6459C126.814 45.6459 127.58 44.8796 127.58 43.9343C127.58 42.989 126.814 42.2227 125.869 42.2227C124.923 42.2227 124.157 42.989 124.157 43.9343C124.157 44.8796 124.923 45.6459 125.869 45.6459Z" fill="#0058C1"/>
  <path d="M130.855 42.8659C130.855 42.8659 127.872 41.1649 123.854 42.8819" stroke="#0058C1" stroke-width="0.5" stroke-miterlimit="10"/>
  <path d="M129.749 48.1124C129.749 48.1124 127.883 51.7802 123.519 53.9171" stroke="#0058C1" stroke-width="0.5" stroke-miterlimit="10"/>
  <path d="M134.203 59.3177C134.203 59.3177 136.776 60.3649 136.574 63.0971" stroke="#0058C1" stroke-width="0.5" stroke-miterlimit="10"/>
  <path d="M159.001 43.9874C159.001 43.9874 160.303 42.228 162.201 43.1529C164.098 44.0778 163.296 56.6598 156.641 56.3356L159.001 43.9874Z" fill="#0058C1"/>
  <path d="M133.491 61.6299C133.491 61.6299 129.818 60.3648 127.58 61.6299" stroke="#0058C1" stroke-width="0.5" stroke-miterlimit="10"/>
  <path d="M129.775 40.6812H123.498C122.899 40.6812 122.413 41.1666 122.413 41.7655V47.028C122.413 47.6269 122.899 48.1124 123.498 48.1124H129.775C130.374 48.1124 130.86 47.6269 130.86 47.028V41.7655C130.86 41.1666 130.374 40.6812 129.775 40.6812Z" stroke="#0058C1" stroke-width="0.5" stroke-miterlimit="10"/>
  <path d="M143.915 40.6812H134.767C134.062 40.6812 133.491 41.2523 133.491 41.9569V46.8366C133.491 47.5412 134.062 48.1124 134.767 48.1124H143.915C144.62 48.1124 145.191 47.5412 145.191 46.8366V41.9569C145.191 41.2523 144.62 40.6812 143.915 40.6812Z" stroke="#0058C1" stroke-width="0.5" stroke-miterlimit="10"/>
  <path d="M131.057 43.2751L127.511 55.9741H134.203" fill="#FCEB71"/>
  <path d="M131.057 43.2751L127.511 55.9741H134.203" stroke="#0058C1" stroke-width="0.5" stroke-miterlimit="10"/>
  <path d="M133.491 43.2433C133.491 43.2433 132.322 42.5575 130.855 43.3762" stroke="#0058C1" stroke-width="0.5" stroke-miterlimit="10"/>
  <path d="M158.937 69.46L141.539 77.3005L147.37 86.9005L161.733 76.0088L158.937 69.46Z" fill="#FCEB71" stroke="#0058C1" stroke-width="0.5" stroke-miterlimit="10"/>
  <path d="M135.389 74.2919L141.539 77.3005L136.579 85.6938L130.961 78.9749L135.389 74.2919Z" fill="#FCEB71" stroke="#0058C1" stroke-width="0.5" stroke-miterlimit="10"/>
  <path d="M92.3323 93.9649L118.453 99.7536C118.958 99.8652 119.304 99.2592 118.953 98.8818L114.876 94.5336C113.77 93.3589 113.797 91.4559 114.993 90.3715C116.189 89.2871 117.948 89.3934 119.022 90.5363L126.14 98.127C128.606 100.753 129.611 104.431 128.835 107.95L127.591 113.569L126.347 119.187C125.661 122.292 122.583 124.248 119.479 123.562L102.187 119.73C100.646 119.389 99.6041 117.885 99.9177 116.333C100.077 115.552 100.534 114.914 101.14 114.504C101.714 114.122 101.863 113.346 101.512 112.75C101.162 112.155 101.007 111.4 101.177 110.656C101.348 109.912 101.783 109.295 102.373 108.896C102.964 108.498 103.123 107.732 102.762 107.137C102.4 106.542 102.257 105.787 102.421 105.037C102.767 103.485 104.303 102.507 105.855 102.853L91.0991 99.5781C89.5469 99.2326 88.5689 97.6964 88.9144 96.1443C89.2599 94.5921 90.7961 93.614 92.3483 93.9595L92.3323 93.9649Z" fill="#0058C1"/>
  <path d="M93.7996 100.546C93.7996 100.546 95.2082 98.3981 93.2892 97.8559C91.3703 97.3137 89.0527 96.7183 88.8401 97.8186" stroke="#FCEB71" stroke-width="0.5" stroke-miterlimit="10"/>
  <path d="M120.856 92.2267C120.856 92.2267 119.83 94.5762 118.326 93.2686C116.827 91.9609 115.051 90.345 115.859 89.5636" stroke="#FCEB71" stroke-width="0.5" stroke-miterlimit="10"/>
  <path d="M128.867 26.1058C128.867 26.1058 138.78 41.2818 154.201 44.4021C154.201 44.4021 155.232 48.8512 153.882 53.1622C153.058 55.7881 148.843 62.8154 150.225 66.531C153.005 73.9728 165.725 72.0858 171.88 69.4652C181.507 65.3668 173.342 47.5064 172.481 38.8845C171.62 30.2679 163.508 19.4347 148.726 19.5569C133.948 19.6792 128.861 26.1058 128.861 26.1058H128.867Z" fill="#0058C1"/>
  <path d="M129.345 107.578L142.166 111.746L137.488 130.356L122.185 124.476L129.345 107.578Z" fill="#FCEB71" stroke="#0058C1" stroke-width="0.5" stroke-miterlimit="10"/>
  <path d="M77.0925 38.9484L78.2407 36.0248L79.3942 38.9484L82.3178 40.1019L79.3942 41.2553L78.2407 44.1789L77.0925 41.2553L74.1689 40.1019L77.0925 38.9484Z" fill="white"/>
  <path d="M109.427 52.0034L110.581 49.0798L111.734 52.0034L114.658 53.1569L111.734 54.3104L110.581 57.234L109.427 54.3104L106.504 53.1569L109.427 52.0034Z" fill="white"/>
  <path d="M100.62 25.5015L90.8593 32.9861C89.0724 34.3562 88.7346 36.9155 90.1047 38.7023L97.5893 48.4635C98.9594 50.2503 101.519 50.5882 103.306 49.218L113.067 41.7335C114.854 40.3634 115.191 37.8041 113.821 36.0172L106.337 26.2561C104.967 24.4692 102.407 24.1314 100.62 25.5015Z" fill="#FCEB71"/>
  <path d="M92.8426 37.9224L93.2891 34.5523C93.3157 34.3663 93.2997 34.2174 93.2519 34.1111C93.2041 33.9995 93.1084 33.9198 92.9755 33.856C92.8373 33.7975 92.6406 33.7497 92.3748 33.7178L92.4173 33.3935C92.4652 33.0374 92.614 32.7716 92.8745 32.5962C93.1296 32.4208 93.507 32.3676 94.0067 32.4314C94.1449 32.4526 94.2672 32.4792 94.3682 32.5271C94.4692 32.5696 94.5808 32.6281 94.6977 32.6972C94.8306 32.7769 94.9369 32.8247 95.0007 32.8301C95.0751 32.8407 95.1549 32.8301 95.2293 32.7928C95.3037 32.7609 95.3941 32.6918 95.4951 32.5855L95.8512 32.9842C95.7609 33.1118 95.6439 33.2075 95.5004 33.2766C95.3569 33.3457 95.208 33.3669 95.0592 33.351C94.9582 33.335 94.8678 33.3138 94.7934 33.2819C94.7137 33.2447 94.6286 33.1968 94.533 33.1384C94.3788 33.0427 94.2565 32.9895 94.1609 32.9789C93.9908 32.9576 93.8313 32.9789 93.6825 33.0267C93.5336 33.0799 93.4379 33.2181 93.406 33.4307C93.4539 33.4307 93.523 33.4307 93.6027 33.4413C93.9482 33.4892 94.2034 33.6221 94.3629 33.8453C94.5276 34.0686 94.5861 34.3609 94.5383 34.7224L94.1609 37.6035C94.3629 37.63 94.517 37.7098 94.6286 37.8427C94.7349 37.9756 94.7775 38.1457 94.7509 38.3477C94.719 38.5762 94.6233 38.7463 94.4585 38.858C94.2938 38.9696 94.0652 39.0015 93.7781 38.9643C93.0818 38.8739 92.7735 38.5231 92.8532 37.9224H92.8426ZM94.129 38.5975C94.2034 38.539 94.2512 38.4433 94.2672 38.3104C94.2831 38.1776 94.2672 38.0766 94.2034 38.0021C94.1396 37.9277 94.0652 37.8799 93.9642 37.8692C93.8632 37.8533 93.7781 37.8799 93.7037 37.9384C93.6293 37.9968 93.5868 38.0925 93.5708 38.2201C93.5549 38.3477 93.5708 38.454 93.6293 38.5284C93.6825 38.6081 93.7622 38.6506 93.8632 38.6666C93.9642 38.6772 94.0546 38.656 94.129 38.5975Z" fill="#0058C1"/>
  <path d="M99.535 37.1676L99.2107 39.6128L97.9775 39.448L98.2486 37.4068C98.2592 37.3164 98.2433 37.2686 98.1954 37.258H98.1529L96.7017 39.2779L95.5376 39.1237L95.8885 36.4713C95.6971 36.4447 95.5429 36.3596 95.4313 36.2161C95.3197 36.0726 95.2772 35.8972 95.3037 35.7005C95.3356 35.4719 95.4313 35.3018 95.5908 35.1955C95.7556 35.0892 95.9788 35.0573 96.2659 35.0945C96.6273 35.1424 96.8825 35.254 97.0313 35.4347C97.1802 35.6154 97.228 35.8387 97.1961 36.1098L96.9409 38.05L97.8606 36.8061C97.9137 36.7264 98.0253 36.6626 98.2008 36.6254C98.0253 36.4925 97.9509 36.2905 97.9881 36.0247C98.0147 35.8174 98.1051 35.6633 98.2592 35.5517C98.4134 35.44 98.6366 35.4081 98.9343 35.4453C99.2373 35.4879 99.4446 35.5782 99.5615 35.7218C99.6785 35.8653 99.7263 36.0407 99.6998 36.248C99.6625 36.5138 99.535 36.6945 99.317 36.7796C99.4924 36.8859 99.5722 37.0135 99.5509 37.1623L99.535 37.1676ZM96.319 36.1311C96.3934 36.0726 96.436 35.9769 96.4572 35.8493C96.4732 35.7218 96.4572 35.6154 96.3988 35.541C96.3456 35.4613 96.2659 35.4188 96.1649 35.4028C96.0639 35.3869 95.9735 35.4135 95.8991 35.4719C95.8247 35.5304 95.7768 35.6261 95.7609 35.759C95.7449 35.8865 95.7609 35.9929 95.8247 36.0673C95.8885 36.1417 95.9629 36.1895 96.0639 36.2002C96.1649 36.2108 96.2499 36.1895 96.3243 36.1311H96.319ZM98.626 35.8068C98.5463 35.8759 98.5037 35.9716 98.4825 36.1045C98.4665 36.2321 98.4825 36.3384 98.541 36.4181C98.5994 36.4978 98.6792 36.5457 98.7802 36.5616C98.8811 36.5723 98.9662 36.551 99.0406 36.4872C99.115 36.4234 99.1576 36.3277 99.1788 36.2002C99.1948 36.0726 99.1788 35.961 99.1204 35.8759C99.0619 35.7909 98.9875 35.743 98.8918 35.7271C98.7908 35.7111 98.7004 35.743 98.626 35.8068Z" fill="#0058C1"/>
  <path d="M101.465 39.7936C101.332 39.6501 101.284 39.464 101.316 39.2301C101.342 39.0441 101.427 38.8952 101.571 38.7783C101.72 38.6667 101.885 38.6188 102.081 38.6454L102.278 37.1464C102.315 36.8594 102.278 36.6361 102.166 36.4819C102.055 36.3278 101.853 36.2268 101.555 36.1896C101.305 36.1577 101.077 36.2215 100.864 36.381C100.651 36.5404 100.518 36.7584 100.455 37.0348L100.024 36.9763C100.098 36.5457 100.306 36.2374 100.641 36.0408C100.976 35.8441 101.401 35.7856 101.916 35.8494C103.086 36.0035 103.612 36.5032 103.5 37.3537L103.24 39.3364C103.203 39.6075 103.091 39.8095 102.91 39.9424C102.724 40.0753 102.448 40.1178 102.087 40.07C101.799 40.0328 101.592 39.9424 101.459 39.7989L101.465 39.7936ZM102.342 39.6819C102.416 39.6235 102.459 39.5278 102.48 39.3949C102.501 39.262 102.48 39.161 102.421 39.0866C102.368 39.0122 102.289 38.9643 102.188 38.9537C102.087 38.9378 101.996 38.9643 101.922 39.0228C101.847 39.0813 101.799 39.177 101.784 39.3045C101.768 39.4321 101.784 39.5384 101.842 39.6182C101.9 39.6979 101.98 39.7404 102.081 39.7564C102.182 39.7723 102.267 39.7457 102.342 39.6873V39.6819Z" fill="#0058C1"/>
  <path d="M104.218 37.8001C104.277 37.3642 104.399 37.0187 104.59 36.7688C104.781 36.5137 105.1 36.3702 105.547 36.3276L106.419 36.8805L107.397 36.5722C107.795 36.721 108.061 36.9389 108.194 37.2153C108.327 37.4918 108.364 37.8373 108.311 38.2413L107.976 40.7715L106.743 40.6067L107.083 38.0446C107.11 37.8373 107.12 37.6725 107.11 37.5502C107.099 37.428 107.067 37.3163 106.998 37.226L106.35 37.5077L105.781 37.0665C105.696 37.1303 105.632 37.226 105.589 37.3429C105.552 37.4599 105.515 37.6246 105.488 37.8426L105.233 39.7668C105.35 39.7296 105.499 39.6499 105.675 39.5383C105.855 39.4213 105.972 39.3203 106.041 39.2246C105.887 39.1821 105.765 39.0971 105.669 38.9589C105.579 38.8207 105.547 38.6506 105.574 38.4539C105.6 38.2678 105.68 38.119 105.813 38.0074C105.946 37.9011 106.105 37.8585 106.286 37.8798C106.504 37.9064 106.658 37.9967 106.754 38.1403C106.849 38.2891 106.886 38.4592 106.86 38.6612C106.828 38.9057 106.738 39.1236 106.583 39.3097C106.429 39.5011 106.243 39.6712 106.015 39.8306C105.786 39.9901 105.478 40.1761 105.09 40.3941L103.904 40.2399L104.223 37.8107L104.218 37.8001ZM106.397 38.8526C106.467 38.7941 106.514 38.7037 106.53 38.5868C106.546 38.4698 106.53 38.3795 106.472 38.305C106.419 38.2306 106.35 38.1881 106.259 38.1775C106.169 38.1668 106.089 38.1881 106.02 38.2466C105.951 38.305 105.908 38.3901 105.892 38.5017C105.877 38.624 105.892 38.7197 105.946 38.7941C105.999 38.8685 106.068 38.911 106.158 38.927C106.243 38.9376 106.323 38.9163 106.392 38.8579L106.397 38.8526Z" fill="#0058C1"/>
  <path d="M109.305 40.862C109.215 40.7503 109.183 40.6068 109.204 40.4314C109.225 40.2613 109.294 40.1284 109.411 40.038C109.528 39.9477 109.672 39.9158 109.842 39.937C110.012 39.9583 110.145 40.0274 110.23 40.1443C110.315 40.2613 110.347 40.4048 110.326 40.5802C110.304 40.7503 110.235 40.8832 110.118 40.9683C110.001 41.0533 109.863 41.0852 109.688 41.0639C109.518 41.0427 109.385 40.9736 109.294 40.8566L109.305 40.862ZM109.645 36.5032L109.656 36.3862C109.709 35.9982 109.948 35.8334 110.379 35.8919C110.809 35.9503 111.001 36.1736 110.948 36.5563L110.926 36.6679L110.129 39.7031L109.619 39.634L109.645 36.4925V36.5032Z" fill="#0058C1"/>
  <path d="M80.5891 4.48418L75.1142 15.4989C74.1119 17.5152 74.934 19.9623 76.9504 20.9645L87.965 26.4394C89.9814 27.4417 92.4285 26.6196 93.4307 24.6032L98.9056 13.5885C99.9079 11.5722 99.0858 9.12513 97.0694 8.12289L86.0547 2.64797C84.0384 1.64573 81.5913 2.46782 80.5891 4.48418Z" fill="#0058C1"/>
  <path d="M79.0699 19.0785L77.9855 15.8573C77.927 15.6765 77.8473 15.549 77.7569 15.4746C77.6665 15.4001 77.5443 15.3629 77.3955 15.3682C77.2466 15.3736 77.0446 15.4214 76.7948 15.5064L76.6885 15.1981C76.5768 14.8579 76.5928 14.555 76.7469 14.2839C76.9011 14.0128 77.2147 13.8001 77.6931 13.6407C77.826 13.5981 77.9483 13.5716 78.0599 13.5663C78.1715 13.5663 78.2938 13.5663 78.432 13.5769C78.5915 13.5928 78.6978 13.5875 78.7616 13.5663C78.836 13.5397 78.8998 13.4971 78.9529 13.4334C79.0061 13.3696 79.0539 13.2686 79.1018 13.1304L79.5961 13.3324C79.5695 13.4865 79.5058 13.6247 79.4048 13.747C79.3038 13.8746 79.1815 13.9596 79.0433 14.0074C78.9476 14.0393 78.8572 14.0553 78.7722 14.0606C78.6871 14.0606 78.5861 14.0606 78.4745 14.0447C78.2938 14.0287 78.1609 14.034 78.0705 14.0659C77.9111 14.1191 77.7729 14.2041 77.6612 14.3211C77.5496 14.438 77.5283 14.5975 77.5921 14.8048C77.6347 14.7782 77.6931 14.7569 77.7729 14.7304C78.1024 14.6187 78.3895 14.6294 78.634 14.7569C78.8785 14.8845 79.0592 15.1237 79.1762 15.4639L80.1011 18.2174C80.2925 18.1536 80.4679 18.1589 80.622 18.228C80.7762 18.3025 80.8878 18.43 80.9516 18.6267C81.026 18.8447 81.0101 19.0413 80.9091 19.2114C80.8081 19.3815 80.622 19.5144 80.3456 19.6048C79.6812 19.828 79.2506 19.6526 79.0592 19.0732L79.0699 19.0785ZM80.521 19.1211C80.5636 19.0307 80.5636 18.9297 80.521 18.8021C80.4785 18.6799 80.4147 18.5948 80.3297 18.5523C80.2446 18.5098 80.1543 18.5045 80.0586 18.5363C79.9629 18.5682 79.8938 18.6267 79.8566 18.7118C79.8141 18.7968 79.8194 18.9031 79.8566 19.0254C79.8938 19.1476 79.9629 19.2327 80.0426 19.2805C80.1277 19.3284 80.218 19.3337 80.3137 19.3018C80.4094 19.2699 80.4785 19.2114 80.521 19.1211Z" fill="#FCEB71"/>
  <path d="M84.747 15.4587L85.5337 17.7922L84.3537 18.1909L83.6998 16.2401C83.6733 16.155 83.6307 16.1178 83.5882 16.1338L83.5457 16.1497L83.1311 18.6055L82.0201 18.9776L81.1696 16.4421C80.9836 16.5059 80.8135 16.4952 80.6487 16.4155C80.4839 16.3358 80.3723 16.1976 80.3032 16.0062C80.2287 15.7883 80.2394 15.5916 80.3404 15.4268C80.4414 15.262 80.6274 15.1291 80.9038 15.0388C81.2493 14.9218 81.5311 14.9112 81.7384 15.0069C81.9457 15.1025 82.0945 15.2833 82.1796 15.5437L82.8015 17.3989L83.0779 15.8786C83.0939 15.7829 83.1683 15.6766 83.3012 15.565C83.0832 15.5225 82.9291 15.3736 82.844 15.1238C82.7802 14.9271 82.7909 14.7464 82.8812 14.5816C82.9716 14.4168 83.1576 14.2839 83.4394 14.1936C83.7264 14.0979 83.955 14.0873 84.1251 14.167C84.2952 14.2467 84.4121 14.3849 84.4759 14.5816C84.561 14.8368 84.5238 15.0547 84.3643 15.2301C84.5663 15.2461 84.6939 15.3258 84.7417 15.4693L84.747 15.4587ZM81.4035 15.9371C81.446 15.852 81.446 15.7457 81.4035 15.6235C81.361 15.5012 81.2972 15.4162 81.2174 15.3683C81.1324 15.3205 81.042 15.3152 80.9463 15.3471C80.8507 15.379 80.7816 15.4374 80.739 15.5278C80.6965 15.6182 80.6965 15.7192 80.739 15.8467C80.7816 15.9743 80.8454 16.054 80.9304 16.0966C81.0155 16.1391 81.1058 16.1444 81.2015 16.1125C81.2972 16.0806 81.3663 16.0221 81.4035 15.9371ZM83.3331 14.6348C83.2958 14.7305 83.2958 14.8368 83.3331 14.9643C83.3756 15.0866 83.4394 15.1717 83.5244 15.2195C83.6095 15.2673 83.7052 15.2726 83.8008 15.2408C83.8965 15.2089 83.9656 15.1451 84.0028 15.06C84.04 14.9697 84.04 14.8633 84.0028 14.7411C83.9603 14.6188 83.8965 14.5285 83.8061 14.4806C83.7158 14.4328 83.6254 14.4168 83.5351 14.4487C83.4394 14.4806 83.3703 14.5444 83.3331 14.6401V14.6348Z" fill="#FCEB71"/>
  <path d="M87.6387 16.9683C87.4579 16.8992 87.3304 16.7503 87.256 16.5271C87.1975 16.3463 87.2081 16.1762 87.2879 16.0061C87.3676 15.836 87.5005 15.7244 87.6865 15.6606L87.2028 14.2254C87.1124 13.949 86.9795 13.7683 86.8148 13.6779C86.6447 13.5875 86.4214 13.5875 86.1344 13.6832C85.8952 13.763 85.7197 13.9224 85.5975 14.1563C85.4805 14.3955 85.4487 14.6453 85.5178 14.9218L85.1031 15.06C84.9809 14.64 85.0287 14.2733 85.2467 13.949C85.4646 13.6247 85.8154 13.3802 86.3098 13.2154C87.4261 12.838 88.1224 13.056 88.3935 13.8693L89.0314 15.7669C89.1217 16.0274 89.1111 16.256 88.9995 16.458C88.8879 16.66 88.6646 16.8141 88.3138 16.9311C88.0374 17.0214 87.8141 17.0321 87.6334 16.963L87.6387 16.9683ZM88.3775 16.4792C88.4148 16.3942 88.4148 16.2879 88.3775 16.1603C88.335 16.038 88.2712 15.953 88.1915 15.9105C88.1065 15.8679 88.0161 15.8626 87.9204 15.8945C87.8247 15.9264 87.7556 15.9849 87.7131 16.0699C87.6706 16.155 87.6706 16.2613 87.7131 16.3835C87.7556 16.5058 87.8194 16.5909 87.9045 16.6387C87.9895 16.6812 88.0799 16.6919 88.1809 16.66C88.2766 16.6281 88.3457 16.5696 88.3829 16.4792H88.3775Z" fill="#FCEB71"/>
  <path d="M89.2333 13.9649C89.0951 13.5503 89.0526 13.1835 89.1111 12.8752C89.1696 12.5669 89.3928 12.2905 89.7755 12.0566L90.8015 12.1682L91.5403 11.4612C91.9656 11.4187 92.2951 11.4984 92.5397 11.6898C92.7789 11.8812 92.9649 12.1735 93.0978 12.5616L93.9111 14.9802L92.731 15.3788L91.9071 12.9283C91.8433 12.7317 91.7795 12.5775 91.7157 12.4712C91.652 12.3596 91.5722 12.2798 91.4712 12.2267L91.0088 12.7635L90.3018 12.62C90.2539 12.7157 90.238 12.8273 90.254 12.9496C90.2699 13.0719 90.3124 13.2366 90.3815 13.4439L90.9981 15.2831C91.0885 15.1981 91.1842 15.0652 91.2958 14.8792C91.4074 14.6984 91.4712 14.5496 91.4872 14.438C91.3277 14.4699 91.1789 14.4433 91.0353 14.3582C90.8918 14.2732 90.7908 14.135 90.727 13.9489C90.6686 13.7682 90.6739 13.6034 90.743 13.4439C90.8174 13.2898 90.9397 13.1782 91.1151 13.1197C91.3224 13.0506 91.4978 13.0612 91.652 13.1516C91.8061 13.242 91.9124 13.3802 91.9762 13.5715C92.0559 13.8054 92.0666 14.0393 92.0134 14.2785C91.9603 14.5177 91.8646 14.7569 91.7317 14.9961C91.5935 15.2353 91.4021 15.5436 91.147 15.9051L90.0147 16.2878L89.2333 13.9649ZM91.652 13.9542C91.6892 13.8692 91.6892 13.7735 91.652 13.6566C91.6147 13.5449 91.5563 13.4705 91.4765 13.428C91.3968 13.3855 91.3171 13.3802 91.232 13.4067C91.147 13.4386 91.0832 13.4918 91.046 13.5715C91.0088 13.6513 91.0088 13.7469 91.046 13.8586C91.0832 13.9702 91.1417 14.0552 91.2214 14.0978C91.3011 14.1403 91.3809 14.1509 91.4712 14.119C91.551 14.0924 91.6147 14.034 91.652 13.9489V13.9542Z" fill="#FCEB71"/>
  <path d="M93.5391 10.4195L93.4965 10.3132C93.3743 9.94108 93.5178 9.68593 93.9271 9.54772C94.3417 9.40952 94.6075 9.52646 94.7298 9.89855L94.7616 10.0102L95.3836 13.0879L94.8945 13.2527L93.5391 10.4195ZM95.1497 14.4753C95.0168 14.4115 94.9264 14.2999 94.868 14.1351C94.8148 13.9703 94.8201 13.8215 94.8839 13.6886C94.9477 13.5557 95.0646 13.4653 95.2294 13.4069C95.3942 13.3537 95.543 13.359 95.6706 13.4228C95.7982 13.4866 95.8939 13.6035 95.947 13.7683C96.0002 13.9331 96.0002 14.0819 95.9364 14.2095C95.8726 14.3371 95.761 14.4275 95.5909 14.4859C95.4208 14.5444 95.2773 14.5391 95.1497 14.4753Z" fill="#FCEB71"/>
  </svg>
  