<svg width="140" height="171" viewBox="0 0 140 171" fill="none" xmlns="http://www.w3.org/2000/svg">
<g clip-path="url(#clip0_204_4850)">
<path d="M70.8573 4.23711C70.8573 4.23711 57.3234 -4.55988 39.9324 8.31982C39.9324 8.31982 16.1467 10.1356 14.9174 32.9852C14.9174 32.9852 -5.47358 48.1882 1.90236 68.41C9.2783 88.6319 28.44 91.6319 28.44 91.6319H74.3422L115.598 89.2634C115.598 89.2634 140.478 76.1131 139.372 59.895C138.267 43.677 129.91 41.0266 129.91 41.0266C129.91 41.0266 128.308 28.5642 121.316 20.4552C114.323 12.3461 102.887 11.6131 102.887 11.6131C102.887 11.6131 99.4136 2.79351 88.4287 1.30478C77.4437 -0.183938 70.8573 4.23711 70.8573 4.23711Z" fill="white"/>
<path d="M45.5153 124.722C45.5153 124.722 55.2371 137.309 88.4288 135.594L98.2747 133.801L92.9288 105.222L45.5153 124.722Z" fill="#277CE2"/>
<path d="M125.342 61.8912C125.342 91.4739 108.154 131.568 70.857 131.568C31.3946 131.568 16.3721 91.4739 16.3721 61.8912C16.3721 32.3085 40.7668 8.31979 70.857 8.31979C100.947 8.31979 125.342 32.3085 125.342 61.8912Z" fill="#FCEB71"/>
<path d="M20.0829 76.1693C20.0829 76.1693 17.0491 72.0754 12.6281 74.2295C8.20701 76.3836 10.0792 105.662 25.5642 104.906L20.0717 76.1693H20.0829Z" fill="#FCEB71"/>
<path d="M121.09 76.1693C121.09 76.1693 124.124 72.0754 128.545 74.2295C132.966 76.3836 131.094 105.662 115.609 104.906L121.102 76.1693H121.09Z" fill="#FCEB71"/>
<path d="M70.3609 51.222L65.0488 80.9513L74.3421 82.5754" fill="#FCEB71"/>
<path d="M70.3609 51.222L65.0488 80.9513L74.3421 82.5754" stroke="#277CE2" stroke-miterlimit="10" stroke-linecap="round"/>
<path d="M48.7858 56.8048C50.9845 56.8048 52.767 55.0223 52.767 52.8236C52.767 50.6248 50.9845 48.8424 48.7858 48.8424C46.587 48.8424 44.8046 50.6248 44.8046 52.8236C44.8046 55.0223 46.587 56.8048 48.7858 56.8048Z" fill="#277CE2"/>
<path d="M41.7483 47.9627C41.7483 47.9627 49.5 47.9627 59.0942 47.9965" stroke="#277CE2" stroke-miterlimit="10" stroke-linecap="round"/>
<path d="M60.019 61.6544C60.019 61.6544 55.6769 70.192 45.5153 75.1657" stroke="#277CE2" stroke-miterlimit="10" stroke-linecap="round"/>
<path d="M87.0525 56.8048C89.2513 56.8048 91.0337 55.0223 91.0337 52.8236C91.0337 50.6248 89.2513 48.8424 87.0525 48.8424C84.8538 48.8424 83.0713 50.6248 83.0713 52.8236C83.0713 55.0223 84.8538 56.8048 87.0525 56.8048Z" fill="#277CE2"/>
<path d="M80.015 47.9627C80.015 47.9627 91 30.5 97.3609 47.9965" stroke="#277CE2" stroke-miterlimit="10" stroke-linecap="round"/>
<path d="M83.782 61.6544C83.782 61.6544 88.1241 70.192 98.2857 75.1657" stroke="#277CE2" stroke-miterlimit="10" stroke-linecap="round"/>
<path d="M69.5 97C74.1944 97 78 96.3284 78 95.5C78 94.6716 74.1944 94 69.5 94C64.8056 94 61 94.6716 61 95.5C61 96.3284 64.8056 97 69.5 97Z" fill="#277CE2"/>
<path d="M81.3235 87.8875C81.3235 87.8875 86.6242 90.2334 85.9701 95.365" stroke="#277CE2" stroke-miterlimit="10" stroke-linecap="round"/>
<path d="M39.9325 17.7822C39.9325 17.7822 50.7144 28.0115 83.0603 17.7822C83.0603 17.7822 86.0603 32.613 106.823 39.2559C106.823 39.2559 104.658 66.6168 126.808 76.3386L129.91 56.816L117.876 27.5717L91.034 8.33106L65.049 5.7258L44.8047 11.2521L39.9438 17.7935L39.9325 17.7822Z" fill="white"/>
<path d="M9.65043 104.004L8.13915 70.5077C8.03765 68.2295 9.66171 66.2445 11.9061 65.8836C14.3309 65.5002 16.6091 67.1355 17.0264 69.5603L21.6955 97.1242L9.63915 104.015L9.65043 104.004Z" fill="#FCEB71" stroke="#277CE2" stroke-miterlimit="10" stroke-linejoin="round"/>
<path d="M21.7067 97.113L49.5188 122.139C55.3496 127.384 57.4699 135.617 54.9097 143.027L47.7941 163.565C46.8228 166.368 43.6382 167.714 40.9509 166.457L24.9473 158.97C22.4383 157.797 21.3616 154.807 22.5463 152.303L29.5451 137.512L12.4924 113.015C10.6541 110.376 9.66161 107.241 9.65034 104.015L9.54883 78.5604C9.62778 76.6657 10.936 75.0529 12.7744 74.5905C15.1428 74.004 17.5225 75.5153 17.9849 77.9175L21.7067 97.1356V97.113Z" fill="#FCEB71" stroke="#277CE2" stroke-miterlimit="10"/>
<path d="M129.932 105.752L131.444 72.256C131.545 69.9778 129.921 67.9928 127.677 67.6319C125.252 67.2484 122.974 68.8838 122.557 71.3086L117.887 98.8725L129.944 105.763L129.932 105.752Z" fill="#FCEB71" stroke="#277CE2" stroke-miterlimit="10" stroke-linejoin="round"/>
<path d="M117.876 98.8724L90.0639 123.899C84.2331 129.143 82.1128 137.376 84.6729 144.786L91.7886 165.324C92.7599 168.128 95.9444 169.474 98.6318 168.216L114.635 160.73C117.144 159.556 118.221 156.566 117.036 154.062L110.038 139.271L127.09 114.775C128.929 112.136 129.921 109 129.932 105.775L130.034 80.3197C129.955 78.425 128.647 76.8122 126.808 76.3498C124.44 75.7633 122.06 77.2746 121.598 79.6769L117.876 98.8949V98.8724Z" fill="#FCEB71" stroke="#277CE2" stroke-miterlimit="10"/>
<path d="M124.822 16.5809C128.041 16.2182 131.582 13.9713 132.21 11.0485C132.676 8.94299 131.713 8.00337 129.598 7.58522C129.453 7.5567 129.309 7.52819 129.165 7.49968L126.776 13.5206L121.488 12.4753L122.886 1.36335C125.066 0.945313 128.352 0.745854 132.486 1.56315C137.053 2.46597 141.489 5.29102 140.273 11.4439C139.237 16.6835 135.246 19.4407 131.933 20.5339L130.038 24.3051L124.654 23.2408L124.822 16.5809ZM121.173 30.4942C121.819 27.2255 123.786 25.8661 126.814 26.4649C129.987 27.0921 131.144 29.0691 130.498 32.3378C129.823 35.7508 128.02 37.0425 124.847 36.4153C121.819 35.8165 120.498 33.9071 121.173 30.4942Z" fill="#FF8827"/>
</g>
<defs>
<clipPath id="clip0_204_4850">
<rect width="140" height="170.568" fill="white"/>
</clipPath>
</defs>
</svg>
